<svg width="44" height="44" viewBox="0 0 44 44" fill="none" xmlns="http://www.w3.org/2000/svg">
<rect width="44" height="44" rx="22" fill="#FFD23F"/>
<mask id="mask0_5_1939" style="mask-type:luminance" maskUnits="userSpaceOnUse" x="11" y="12" width="23" height="22">
<path d="M11 12H33.0905V34H11V12Z" fill="white"/>
</mask>
<g mask="url(#mask0_5_1939)">
<path d="M13.9947 20.5277C13.9947 20.3377 14.1489 20.184 14.3389 20.184H23.0242C23.2142 20.184 23.3684 20.3377 23.3684 20.5277C23.3684 20.7173 23.2142 20.8715 23.0242 20.8715H14.3389C14.1489 20.8715 13.9947 20.7173 13.9947 20.5277ZM22.0986 30.4182H14.3389C14.1489 30.4182 13.9947 30.5724 13.9947 30.762C13.9947 30.952 14.1489 31.1057 14.3389 31.1057H22.0986C22.2881 31.1057 22.4423 30.952 22.4423 30.762C22.4423 30.5724 22.2881 30.4182 22.0986 30.4182ZM14.3389 18.3125H20.5736C20.7636 18.3125 20.9174 18.1587 20.9174 17.9687C20.9174 17.7792 20.7636 17.625 20.5736 17.625H14.3389C14.1489 17.625 13.9947 17.7792 13.9947 17.9687C13.9947 18.1587 14.1489 18.3125 14.3389 18.3125ZM32.7982 32.8669L31.9178 33.7737C31.7716 33.9246 31.5769 34.0005 31.3817 34.0005C31.194 34.0005 31.0059 33.9302 30.8611 33.7897L28.5817 31.5787C28.519 31.6532 28.4247 31.7003 28.32 31.7003H26.3631V33.6563C26.3631 33.8463 26.2089 34 26.0189 34H11.3442C11.1542 34 11 33.8463 11 33.6563V14.6439C11 14.4539 11.1542 14.3002 11.3442 14.3002H13.3011V12.3438C13.3011 12.1542 13.4553 12 13.6448 12H25.942C26.0335 12 26.1208 12.0363 26.1854 12.1009L28.5628 14.4775C28.6274 14.5421 28.6638 14.6293 28.6638 14.7203V23.5875C29.0301 24.2637 29.2381 25.037 29.2381 25.858C29.2381 26.7704 28.9811 27.6239 28.536 28.3501L29.5092 29.3044C29.6031 29.2611 29.7058 29.237 29.8124 29.2351C30.0133 29.2342 30.2014 29.3068 30.3443 29.4454L32.7826 31.8102C33.0783 32.0974 33.0853 32.5712 32.7982 32.8669ZM28.13 28.915C28.038 29.0258 27.9409 29.1323 27.839 29.2342L28.6939 30.073L28.9948 29.7632L28.13 28.915ZM28.5506 25.858C28.5506 23.6007 26.7135 21.7641 24.4548 21.7641C22.1966 21.7641 20.3595 23.6007 20.3595 25.858C20.3595 28.1157 22.1966 29.9523 24.4548 29.9523C26.7135 29.9523 28.5506 28.1157 28.5506 25.858ZM23.9852 16.6767H25.1885L23.9852 15.4738V16.6767ZM26.2863 14.3765H27.4896L26.2863 13.1737V14.3765ZM13.9891 14.3002H23.6414C23.7324 14.3002 23.8201 14.3365 23.8847 14.4006L26.2622 16.7776C26.3268 16.8417 26.3627 16.9294 26.3627 17.0204V21.4741C26.9785 21.7429 27.5273 22.1371 27.9758 22.6251V15.064H25.942C25.7525 15.064 25.5983 14.9103 25.5983 14.7203V12.6875H13.9891V14.3002ZM25.6752 31.3566V30.4819C25.2852 30.5847 24.8764 30.6398 24.4548 30.6398C22.8139 30.6398 21.3639 29.8095 20.5019 28.5472H14.3389C14.1489 28.5472 13.9947 28.3934 13.9947 28.2034C13.9947 28.0138 14.1489 27.8597 14.3389 27.8597H20.1115C19.8465 27.2877 19.6914 26.6549 19.6734 25.9886H14.3389C14.1489 25.9886 13.9947 25.8349 13.9947 25.6448C13.9947 25.4548 14.1489 25.3011 14.3389 25.3011H19.7041C19.7833 24.6244 20.004 23.9907 20.3359 23.43H14.3389C14.1489 23.43 13.9947 23.2758 13.9947 23.0863C13.9947 22.8963 14.1489 22.7425 14.3389 22.7425H20.8296C21.7076 21.7231 23.0072 21.0766 24.4548 21.0766C24.8764 21.0766 25.2852 21.1318 25.6752 21.2346V17.3642H23.6414C23.4514 17.3642 23.2977 17.2105 23.2977 17.0204V14.9877H11.688V33.3125H25.6752V31.3566ZM27.9758 31.0128V30.3319L27.3175 29.6864C27.0237 29.9066 26.7036 30.0938 26.3627 30.2423V31.0128H27.9758ZM32.3035 32.3039L29.8652 29.9391C29.8516 29.9255 29.8355 29.9226 29.8237 29.9226C29.8237 29.9226 29.8233 29.9226 29.8228 29.9226C29.8115 29.9226 29.795 29.9259 29.7808 29.9401L28.9009 30.8468C28.8788 30.8699 28.8792 30.9091 28.9019 30.9312L31.3402 33.296C31.3628 33.3182 31.4024 33.3177 31.4246 33.2951L32.3045 32.3883C32.3266 32.3652 32.3262 32.326 32.3035 32.3039ZM27.9866 25.858C27.9866 27.805 26.4023 29.3884 24.4548 29.3884C22.5074 29.3884 20.923 27.805 20.923 25.858C20.923 23.9115 22.5074 22.3281 24.4548 22.3281C26.4023 22.3281 27.9866 23.9115 27.9866 25.858ZM27.2987 25.858C27.2987 24.2906 26.0231 23.0156 24.4548 23.0156C22.887 23.0156 21.611 24.2906 21.611 25.858C21.611 27.4258 22.887 28.7009 24.4548 28.7009C26.0231 28.7009 27.2987 27.4258 27.2987 25.858Z" fill="black"/>
</g>
</svg>
