<svg width="44" height="44" viewBox="0 0 44 44" fill="none" xmlns="http://www.w3.org/2000/svg">
<rect width="44" height="44" rx="22" fill="#FFD23F"/>
<mask id="mask0_5_1902" style="mask-type:luminance" maskUnits="userSpaceOnUse" x="12" y="11" width="21" height="11">
<path d="M12.2734 11H32.6386V21.9614H12.2734V11Z" fill="white"/>
</mask>
<g mask="url(#mask0_5_1902)">
<path d="M12.6839 21.8546C12.4919 21.8546 12.3274 21.7086 12.3088 21.5142C12.2975 21.4012 12.2969 21.2881 12.2969 21.1757C12.2969 15.5951 16.8439 11.0547 22.4328 11.0547C28.0218 11.0547 32.5688 15.5951 32.5688 21.1757C32.5688 21.3838 32.4001 21.5525 32.1914 21.5525C31.9832 21.5525 31.8139 21.3838 31.8139 21.1757C31.8139 16.0108 27.6055 11.8089 22.4328 11.8089C17.2602 11.8089 13.0523 16.0108 13.0523 21.1757C13.0523 21.2636 13.0517 21.3521 13.0601 21.4407C13.0804 21.6476 12.9285 21.8324 12.721 21.8528C12.7084 21.854 12.6964 21.8546 12.6839 21.8546Z" fill="black"/>
</g>
<path d="M23.6682 31.2239C23.4594 31.2239 23.2656 31.0564 23.2656 30.8483C23.2656 30.6401 23.4098 30.4727 23.6185 30.4727H23.6233C26.4549 30.1329 29.0543 28.4312 30.5335 25.9221C30.6394 25.7426 30.8697 25.6828 31.0509 25.7887C31.2304 25.8945 31.2908 26.1254 31.1849 26.3049C29.5867 29.0156 26.7767 30.8543 23.6682 31.2239Z" fill="black"/>
<path d="M18.0907 30.2825C18.0243 30.2825 17.9615 30.2657 17.9071 30.2352C17.7863 30.1724 17.7031 30.0462 17.7031 29.9003C17.7031 29.6921 17.8724 29.5234 18.0811 29.5234C18.2893 29.5234 18.4687 29.6975 18.4687 29.9056C18.4687 30.1138 18.2995 30.2825 18.0907 30.2825Z" fill="black"/>
<path d="M22.4393 27.6557C18.8624 27.6557 15.9531 24.7505 15.9531 21.1797C15.9531 17.6083 18.8624 14.7031 22.4393 14.7031C26.0161 14.7031 28.9254 17.6083 28.9254 21.1797C28.9254 24.7505 26.0161 27.6557 22.4393 27.6557ZM22.4393 15.4574C19.2793 15.4574 16.7086 18.0246 16.7086 21.1797C16.7086 24.3348 19.2793 26.9014 22.4393 26.9014C25.5992 26.9014 28.17 24.3348 28.17 21.1797C28.17 18.0246 25.5992 15.4574 22.4393 15.4574Z" fill="black"/>
<path d="M22.4399 16.2607C22.2318 16.2607 22.0625 16.0914 22.0625 15.8832V15.0805C22.0625 14.8724 22.2318 14.7031 22.4399 14.7031C22.6487 14.7031 22.8179 14.8724 22.8179 15.0805V15.8832C22.8179 16.0914 22.6487 16.2607 22.4399 16.2607Z" fill="black"/>
<path d="M22.4399 27.6552C22.2318 27.6552 22.0625 27.4859 22.0625 27.2778V26.4751C22.0625 26.2669 22.2318 26.0977 22.4399 26.0977C22.6487 26.0977 22.8179 26.2669 22.8179 26.4751V27.2778C22.8179 27.4859 22.6487 27.6552 22.4399 27.6552Z" fill="black"/>
<path d="M19.7956 16.969C19.6646 16.969 19.5378 16.9014 19.4678 16.7806L19.0665 16.085C18.9618 15.9049 19.024 15.6741 19.2046 15.57C19.3859 15.4659 19.6162 15.5281 19.7202 15.7082L20.1222 16.4038C20.2263 16.5838 20.164 16.8147 19.984 16.9188C19.9242 16.9529 19.8596 16.969 19.7956 16.969Z" fill="black"/>
<path d="M17.8467 18.9095C17.7827 18.9095 17.7181 18.8934 17.6589 18.8587L16.9621 18.4573C16.782 18.3533 16.7198 18.123 16.8239 17.9423C16.928 17.7623 17.1588 17.7001 17.3401 17.8048L18.0363 18.2061C18.2169 18.3102 18.2785 18.5405 18.1745 18.7211C18.1045 18.8419 17.9777 18.9095 17.8467 18.9095Z" fill="black"/>
<path d="M17.1344 21.555H16.3305C16.1224 21.555 15.9531 21.3864 15.9531 21.1782C15.9531 20.9701 16.1224 20.8008 16.3305 20.8008H17.1344C17.3432 20.8008 17.5125 20.9701 17.5125 21.1782C17.5125 21.3864 17.3432 21.555 17.1344 21.555Z" fill="black"/>
<path d="M17.1517 24.6053C17.0207 24.6053 16.8939 24.5377 16.8239 24.4163C16.7198 24.2362 16.782 24.0054 16.9621 23.9013L17.6589 23.4999C17.8401 23.3953 18.0704 23.4581 18.1745 23.6381C18.2785 23.8187 18.2169 24.049 18.0363 24.1531L17.3401 24.5544C17.2803 24.5885 17.2157 24.6053 17.1517 24.6053Z" fill="black"/>
<path d="M19.3925 26.8383C19.3291 26.8383 19.2639 26.8222 19.2046 26.7881C19.024 26.684 18.9618 26.4531 19.0665 26.2731L19.4678 25.5775C19.5719 25.3974 19.8022 25.3352 19.984 25.4387C20.164 25.5434 20.2263 25.7737 20.1222 25.9543L19.7202 26.6493C19.6503 26.7707 19.5234 26.8383 19.3925 26.8383Z" fill="black"/>
<path d="M25.4989 26.8384C25.3685 26.8384 25.2417 26.7708 25.1717 26.65L24.7692 25.9544C24.6651 25.7743 24.7273 25.5435 24.9074 25.4394C25.0886 25.3347 25.3195 25.3975 25.4236 25.5776L25.8255 26.2726C25.9302 26.4532 25.868 26.6835 25.6873 26.7876C25.6281 26.8223 25.5629 26.8384 25.4989 26.8384Z" fill="black"/>
<path d="M27.7302 24.6053C27.6662 24.6053 27.601 24.5885 27.5418 24.5544L26.845 24.1531C26.6644 24.049 26.6028 23.8187 26.7068 23.6381C26.8109 23.4581 27.0418 23.3953 27.2224 23.4999L27.9192 23.9013C28.0999 24.0054 28.1621 24.2362 28.0574 24.4163C27.988 24.5377 27.8612 24.6053 27.7302 24.6053Z" fill="black"/>
<path d="M28.5419 21.555H27.7374C27.5286 21.555 27.3594 21.3864 27.3594 21.1782C27.3594 20.9701 27.5286 20.8008 27.7374 20.8008H28.5419C28.75 20.8008 28.9193 20.9701 28.9193 21.1782C28.9193 21.3864 28.75 21.555 28.5419 21.555Z" fill="black"/>
<path d="M27.0346 18.9095C26.9036 18.9095 26.7768 18.8419 26.7068 18.7211C26.6028 18.5405 26.6644 18.3096 26.845 18.2061L27.5418 17.8048C27.7231 17.7001 27.9533 17.7623 28.0574 17.9423C28.1621 18.123 28.0999 18.3539 27.9192 18.4573L27.2224 18.8587C27.1632 18.8934 27.098 18.9095 27.0346 18.9095Z" fill="black"/>
<path d="M25.0958 16.9693C25.0318 16.9693 24.9672 16.9531 24.9074 16.919C24.7273 16.815 24.6651 16.5841 24.7692 16.404L25.1717 15.7084C25.2752 15.5284 25.5067 15.4656 25.6873 15.5702C25.868 15.6743 25.9302 15.9052 25.8255 16.0852L25.4236 16.7809C25.3536 16.9017 25.2268 16.9693 25.0958 16.9693Z" fill="black"/>
<path d="M24.7485 21.555H23.4087C23.2005 21.555 23.0312 21.3864 23.0312 21.1782C23.0312 20.9701 23.2005 20.8008 23.4087 20.8008H24.7485C24.9572 20.8008 25.1259 20.9701 25.1259 21.1782C25.1259 21.3864 24.9572 21.555 24.7485 21.555Z" fill="black"/>
<path d="M21.9441 20.7235C21.8149 20.7235 21.6893 20.6577 21.6188 20.5393L20.194 18.1462C20.0869 17.9673 20.1462 17.7359 20.325 17.6294C20.5068 17.5223 20.7365 17.5821 20.843 17.761L22.2677 20.1541C22.3748 20.3329 22.3156 20.5644 22.1367 20.6709C22.0757 20.7068 22.0093 20.7235 21.9441 20.7235Z" fill="black"/>
<path d="M22.4401 22.5204C21.6979 22.5204 21.0938 21.9174 21.0938 21.1758C21.0938 20.4371 21.6979 19.8359 22.4401 19.8359C23.183 19.8359 23.7865 20.4371 23.7865 21.1758C23.7865 21.9174 23.183 22.5204 22.4401 22.5204ZM22.4401 20.5896C22.1142 20.5896 21.8492 20.8528 21.8492 21.1758C21.8492 21.5011 22.1142 21.7661 22.4401 21.7661C22.7661 21.7661 23.0311 21.5011 23.0311 21.1758C23.0311 20.8528 22.7661 20.5896 22.4401 20.5896Z" fill="black"/>
<mask id="mask1_5_1902" style="mask-type:luminance" maskUnits="userSpaceOnUse" x="30" y="19" width="4" height="3">
<path d="M30.3438 19.3594H33.9451V21.6562H30.3438V19.3594Z" fill="white"/>
</mask>
<g mask="url(#mask1_5_1902)">
<path d="M32.1343 21.6518C32.0344 21.6518 31.9381 21.6117 31.8675 21.5412L30.4619 20.1379C30.3148 19.9908 30.3148 19.7522 30.4619 19.605C30.6097 19.4579 30.8483 19.4579 30.9961 19.605L32.1343 20.7409L33.2719 19.6026C33.4197 19.4555 33.6589 19.4555 33.8067 19.602C33.9538 19.7492 33.9538 19.9884 33.8067 20.1356L32.4023 21.5412C32.3311 21.6117 32.2348 21.6518 32.1343 21.6518Z" fill="black"/>
</g>
<path d="M21.4905 34.8091C19.491 34.8091 16.779 33.2575 14.6281 31.5319C10.7588 28.427 7.75919 24.1438 9.51291 21.9642L10.769 20.5029C11.0872 20.1333 11.6488 20.0896 12.0203 20.4078L15.5074 23.3979C15.6874 23.5516 15.7969 23.7669 15.8142 24.0032C15.8328 24.2389 15.7574 24.4674 15.6031 24.6468L14.5833 25.8335C14.487 25.9453 14.5324 26.1559 14.5875 26.3132C15.0032 27.4939 17.1863 29.3655 18.4179 29.5963C18.5824 29.628 18.7971 29.6406 18.8934 29.5288L19.9138 28.3421C20.2326 27.9718 20.7931 27.9288 21.1651 28.247L24.6522 31.2364C24.8323 31.3907 24.9417 31.6055 24.9591 31.8417C24.9776 32.078 24.9023 32.3065 24.7479 32.4859L23.4996 33.9376C23.0068 34.5495 22.3076 34.8091 21.4905 34.8091ZM11.4425 20.9485C11.4048 20.9485 11.3683 20.9641 11.342 20.9946L10.0943 22.4457C8.72637 24.1468 11.5633 28.1052 15.1019 30.9439C17.9807 33.2539 21.655 35.0238 22.9183 33.4555L24.1743 31.9949C24.206 31.959 24.2078 31.9195 24.2066 31.8986C24.2048 31.8782 24.1965 31.8399 24.1606 31.8088L20.6735 28.8194C20.6172 28.7721 20.5341 28.7787 20.4868 28.8331L19.4664 30.0198C19.2834 30.2322 18.9323 30.4606 18.2779 30.338C16.7706 30.0551 14.3835 28.0089 13.8751 26.5632C13.655 25.9394 13.8272 25.5548 14.0097 25.3418L15.0295 24.1563C15.0612 24.1198 15.063 24.0804 15.0618 24.06C15.06 24.0397 15.0516 24.0008 15.0157 23.9703L11.5286 20.9802C11.5035 20.9593 11.473 20.9485 11.4425 20.9485Z" fill="black"/>
<path d="M23.4983 33.7434C23.4086 33.7434 23.3206 33.7117 23.2524 33.6525L18.9914 29.9997C18.9148 29.9351 18.8681 29.8424 18.8604 29.7425C18.8532 29.6426 18.8855 29.5439 18.9501 29.468L19.9179 28.3435C20.2367 27.9732 20.7971 27.9302 21.1691 28.2484L24.6563 31.2384C24.8357 31.3916 24.9452 31.6063 24.9631 31.8425C24.9816 32.0782 24.9063 32.3079 24.752 32.4873L23.7848 33.6118C23.7196 33.6884 23.6269 33.735 23.527 33.7428C23.5174 33.7434 23.5078 33.7434 23.4983 33.7434ZM19.7695 29.6731L23.4576 32.8348L24.1784 31.9963C24.2101 31.9604 24.2118 31.9203 24.2107 31.9C24.2089 31.8796 24.2005 31.8413 24.1646 31.8108L20.6775 28.8208C20.6213 28.7735 20.5381 28.7795 20.4909 28.8351L19.7695 29.6731Z" fill="black"/>
<path d="M14.3498 25.904C14.2601 25.904 14.1728 25.8717 14.104 25.8124L9.84291 22.1603C9.76635 22.0951 9.7197 22.0023 9.71192 21.9025C9.70474 21.8026 9.73704 21.7045 9.80224 21.6285L10.7694 20.5034C11.0876 20.1338 11.6493 20.0901 12.0207 20.4083L15.5078 23.3984C15.6879 23.5521 15.7973 23.7674 15.8147 24.0037C15.8332 24.2394 15.7578 24.4678 15.6035 24.6473L14.6369 25.7724C14.5711 25.8483 14.4784 25.895 14.3785 25.9028C14.369 25.9034 14.3594 25.904 14.3498 25.904ZM10.6211 21.8337L14.3092 24.9948L15.0299 24.1568C15.0616 24.1203 15.0634 24.0809 15.0622 24.0605C15.0604 24.0402 15.052 24.0013 15.0162 23.9708L11.529 20.9807C11.4734 20.9341 11.3897 20.9395 11.3424 20.9951L10.6211 21.8337Z" fill="black"/>
</svg>
