<svg width="68" height="68" viewBox="0 0 68 68" fill="none" xmlns="http://www.w3.org/2000/svg">
<circle cx="33.9221" cy="33.7502" r="32.9506" fill="white" stroke="black" stroke-width="0.665668"/>
<mask id="mask0_234_124" style="mask-type:luminance" maskUnits="userSpaceOnUse" x="12" y="12" width="44" height="43">
<path d="M12.519 12.168H55.3513V55.0002H12.519V12.168Z" fill="white"/>
</mask>
<g mask="url(#mask0_234_124)">
<path d="M33.9429 14.2114C23.258 14.2114 14.5647 22.904 14.5647 33.5889C14.5647 44.2738 23.258 52.9663 33.9429 52.9663C44.6271 52.9663 53.3203 44.2738 53.3203 33.5889C53.3203 22.904 44.6271 14.2114 33.9429 14.2114ZM33.9429 55.0127C22.1292 55.0127 12.519 45.4018 12.519 33.5889C12.519 21.7759 22.1292 12.165 33.9429 12.165C45.7558 12.165 55.3646 21.7759 55.3646 33.5889C55.3646 45.4018 45.7558 55.0127 33.9429 55.0127Z" fill="black"/>
</g>
<path d="M39.8588 40.5326C39.5971 40.5326 39.3361 40.433 39.1369 40.2323L33.2168 34.3136C33.0245 34.1214 32.9165 33.8618 32.9165 33.5903V21.6932C32.9165 21.1277 33.3753 20.6689 33.9407 20.6689C34.5055 20.6689 34.9628 21.1277 34.9628 21.6932V33.1673L40.5828 38.7865C40.9819 39.1864 40.9819 39.8339 40.5828 40.2323C40.3814 40.433 40.1204 40.5326 39.8588 40.5326Z" fill="black"/>
<path d="M43.1904 19.6124L43.363 19.3156C43.6443 18.8267 43.4773 18.2009 42.9883 17.9189C42.4973 17.6355 41.8715 17.8045 41.5902 18.2935L41.4183 18.5923C41.1363 19.0813 41.3054 19.705 41.7944 19.9884C41.9543 20.0817 42.1318 20.1252 42.3037 20.1252C42.6579 20.1252 43.0017 19.9414 43.1904 19.6124ZM26.2907 48.8855L26.4626 48.5888C26.7446 48.0998 26.5776 47.4741 26.0865 47.1906C25.5976 46.9086 24.9718 47.0756 24.6898 47.5653L24.52 47.8634C24.2366 48.3524 24.405 48.9781 24.894 49.2601C25.0546 49.3527 25.2314 49.3969 25.4033 49.3969C25.7575 49.3969 26.102 49.2145 26.2907 48.8855ZM48.9401 26.1113L49.2375 25.9387C49.7265 25.6574 49.8934 25.0316 49.6114 24.5427C49.328 24.053 48.7023 23.886 48.2133 24.1681L47.9165 24.3399C47.4276 24.6219 47.2606 25.2477 47.5419 25.7367C47.7313 26.0657 48.0751 26.2474 48.4294 26.2474C48.6033 26.2474 48.7787 26.2039 48.9401 26.1113ZM19.6676 43.011L19.9643 42.8391C20.4533 42.5571 20.6217 41.9313 20.3383 41.4424C20.0569 40.952 19.4298 40.7864 18.9422 41.0677L18.6455 41.2403C18.1558 41.5237 17.9875 42.1495 18.2709 42.6385C18.4596 42.9654 18.804 43.1492 19.1583 43.1492C19.3316 43.1492 19.507 43.1036 19.6676 43.011ZM52.0352 33.5895C52.0352 33.0248 51.5785 32.5674 51.0131 32.5674H50.6693C50.1039 32.5674 49.6472 33.0248 49.6472 33.5895C49.6472 34.1542 50.1039 34.6116 50.6693 34.6116H51.0131C51.5785 34.6116 52.0352 34.1542 52.0352 33.5895ZM18.2351 33.5895C18.2351 33.0248 17.7763 32.5674 17.2116 32.5674H16.8692C16.3045 32.5674 15.8457 33.0248 15.8457 33.5895C15.8457 34.1542 16.3045 34.6116 16.8692 34.6116H17.2116C17.7763 34.6116 18.2351 34.1542 18.2351 33.5895ZM49.6114 42.6385C49.8934 42.1495 49.7265 41.5237 49.2375 41.2403L48.9401 41.0677C48.4511 40.7864 47.8253 40.9534 47.5419 41.4424C47.2606 41.9313 47.4276 42.5571 47.9165 42.8391L48.2133 43.011C48.3739 43.1036 48.5507 43.1492 48.7247 43.1492C49.0769 43.1492 49.4213 42.9654 49.6114 42.6385ZM20.3383 25.7367C20.6217 25.2477 20.4533 24.6219 19.9643 24.3399L19.6676 24.1681C19.1779 23.886 18.5522 24.053 18.2709 24.5427C17.9875 25.0316 18.1558 25.6574 18.6455 25.9387L18.9422 26.1113C19.1022 26.2039 19.2797 26.2474 19.4515 26.2474C19.8058 26.2474 20.1495 26.0657 20.3383 25.7367ZM42.9883 49.2601C43.4773 48.9781 43.6443 48.3524 43.363 47.8634L43.1904 47.5653C42.9091 47.0756 42.2833 46.9086 41.7944 47.1906C41.3054 47.4741 41.1363 48.0998 41.4197 48.5888L41.5916 48.8855C41.781 49.2145 42.1248 49.3969 42.4769 49.3969C42.6509 49.3969 42.8263 49.3527 42.9883 49.2601ZM26.0865 19.9884C26.5776 19.705 26.7446 19.0813 26.4626 18.5923L26.2907 18.2935C26.0073 17.8045 25.3815 17.6355 24.894 17.9189C24.405 18.2009 24.2366 18.8267 24.5179 19.3156L24.6898 19.6124C24.8792 19.9414 25.223 20.1252 25.5772 20.1252C25.7512 20.1252 25.9266 20.0817 26.0865 19.9884ZM34.9636 50.6618V50.3173C34.9636 49.754 34.5062 49.2952 33.9415 49.2952C33.3761 49.2952 32.9173 49.754 32.9173 50.3173V50.6618C32.9173 51.2265 33.3761 51.6839 33.9415 51.6839C34.5062 51.6839 34.9636 51.2265 34.9636 50.6618ZM33.9415 17.8838C33.3761 17.8838 32.9173 17.4264 32.9173 16.8617V16.5172C32.9173 15.9525 33.3761 15.4951 33.9415 15.4951C34.5062 15.4951 34.9636 15.9525 34.9636 16.5172V16.8617C34.9636 17.4264 34.5062 17.8838 33.9415 17.8838Z" fill="black"/>
</svg>
