<svg width="68" height="68" viewBox="0 0 68 68" fill="none" xmlns="http://www.w3.org/2000/svg">
<circle cx="33.9221" cy="33.9455" r="32.9506" fill="white" stroke="black" stroke-width="0.665668"/>
<path d="M23.2639 22.2866C25.1464 22.2792 26.5177 22.7255 27.8395 23.3522C29.9831 24.3689 31.5977 25.9622 32.7985 27.9828C33.1372 28.5545 33.4294 29.1518 33.7541 29.732C33.8115 29.798 33.8825 29.8414 33.9674 29.8622C33.9803 29.8677 34.0451 29.7766 34.061 29.7222C34.168 29.4086 34.2676 29.0913 34.3703 28.7764C35.049 26.6922 35.955 24.726 37.3673 23.0239C38.5045 21.6519 39.8502 20.5618 41.5486 19.9474C41.938 19.8013 42.3367 19.6888 42.7451 19.6099C43.1535 19.531 43.5655 19.4864 43.9813 19.4766C44.397 19.4669 44.8103 19.4925 45.2218 19.5524C45.6332 19.6124 46.0368 19.7059 46.4323 19.8337C46.9575 19.9939 47.4436 20.2335 47.8899 20.5527C48.3368 20.8718 48.7207 21.2533 49.0429 21.6984C50.1752 23.2532 50.6142 25.0084 50.4717 26.9184C50.3782 28.1369 50.0242 29.2863 49.5394 30.4008C48.5037 32.7602 47.2014 34.9691 45.7696 37.1126C43.3779 40.6776 40.8638 44.1515 38.0203 47.3771C37.7776 47.6449 37.5116 47.8876 37.2224 48.1053C36.6789 48.5253 36.1207 48.5112 35.5448 48.134C35.0141 47.7874 34.47 47.4621 33.9228 47.1424C31.9939 46.0125 30.0399 44.9218 28.1354 43.7528C26.1735 42.5509 24.3125 41.2095 22.5523 39.7275C21.5698 38.9113 20.7016 37.9875 19.9472 36.9573C19.1934 35.9265 18.5752 34.8199 18.0941 33.6369C17.2253 31.4995 17.1214 29.29 17.7511 27.0676C18.2316 25.371 19.2533 24.0577 20.7395 23.1095C21.6364 22.5384 22.6098 22.2774 23.2639 22.2866ZM48.9683 26.2074C48.9683 26.0209 48.9818 25.8038 48.9683 25.5941C48.8198 23.7349 47.9761 22.2719 46.2831 21.4771C44.103 20.4518 41.9955 20.7006 40.0758 22.2071C39.2657 22.8515 38.5724 23.6041 37.9965 24.4649C36.8098 26.2092 36.0296 28.1332 35.4879 30.16C35.1914 31.2121 35.0361 32.2845 35.0215 33.3777C35.0215 33.9768 34.8521 34.1627 34.3496 34.31C34.2921 34.3308 34.2328 34.3406 34.1716 34.3388C34.1105 34.3375 34.0512 34.3259 33.9943 34.3027C33.9381 34.2795 33.8873 34.2471 33.8427 34.2055C33.7981 34.1633 33.762 34.115 33.7351 34.06C33.655 33.898 33.5835 33.7323 33.5211 33.5623C33.2466 32.891 32.9776 32.2179 32.7025 31.5466C32.1828 30.2486 31.495 29.046 30.6403 27.9394C28.9627 25.802 26.7568 24.5236 24.115 23.9923C23.3465 23.8376 22.5498 23.8266 21.8009 24.1592C20.6961 24.6496 19.924 25.4804 19.4703 26.5827C18.6645 28.5166 18.5233 30.5011 19.2612 32.4948C20.0744 34.6921 21.4053 36.5544 23.1588 38.0878C25.3653 40.0228 27.7943 41.6705 30.3285 43.1512C32.2048 44.2493 34.0885 45.3345 35.9716 46.4228C36.1042 46.4949 36.2418 46.5567 36.3836 46.6092C36.4252 46.6288 36.468 46.641 36.5138 46.6459C36.5591 46.6508 36.6043 46.6484 36.649 46.638C36.6936 46.627 36.7346 46.6092 36.7731 46.5848C36.8116 46.5597 36.8452 46.5297 36.8733 46.4931C36.9718 46.3793 37.0763 46.2705 37.1735 46.155C40.2836 42.4469 43.1645 38.5695 45.7158 34.4543C46.6873 32.8873 47.5903 31.2849 48.294 29.5712C48.7348 28.5031 49.0429 27.4032 48.9683 26.2074Z" fill="black"/>
</svg>