<svg width="386" height="344" viewBox="0 0 386 344" fill="none" xmlns="http://www.w3.org/2000/svg">
<rect x="1.05759" y="0.437226" width="383.885" height="342.785" rx="25.7964" fill="#FFA8ED"/>
<rect x="1.05759" y="0.437226" width="383.885" height="342.785" rx="25.7964" stroke="black" stroke-width="0.874453"/>
<path d="M100.537 130.946C100.537 135.163 101.879 136.935 105.236 136.935V137.445H89.4454V136.935C92.8023 136.935 94.1451 135.163 94.1451 130.946V98.6929H93.2857C88.5591 98.6929 83.8326 103.634 81.4961 111.637H81.0396L84.2085 97.8335H110.473L113.642 111.637H113.186C110.876 103.634 106.096 98.6929 101.369 98.6929H100.537V130.946ZM131.34 115.907C124.975 121.439 122.236 125.226 122.236 128.986C122.236 131.806 123.713 134.008 126.184 134.008C129.406 134.008 131.582 130.275 131.582 125.414V115.907H131.34ZM115.388 112.228C115.388 105.89 120.437 101.029 127.016 101.029C133.166 101.029 137.329 105.219 137.329 111.422V132.665C139.88 132.558 142.002 129.442 142.082 125.736H142.485C142.431 133.31 140.014 137.902 136.093 137.902C133.488 137.902 132.119 135.861 132.253 132.45L132.468 126.972H132.199C131.501 133.954 128.252 138.17 123.471 138.17C119.631 138.17 116.757 135.377 116.757 131.295C116.757 128.1 118.637 124.608 124.169 120.285L131.582 114.511V112.121C131.582 107.716 128.52 104.682 124.089 104.682C119.899 104.682 116.892 107.394 116.328 111.503H118.718C122.316 111.503 124.277 112.792 124.277 115.182C124.277 117.304 122.639 118.861 120.383 118.861C117.429 118.861 115.388 116.176 115.388 112.228ZM141.438 137.445V136.962C144.553 136.962 145.627 135.512 145.627 132.611V98.5586C145.627 95.6582 144.58 95.1748 141.384 95.3628V94.8794C144.58 94.4766 147.856 93.5098 151.106 92.0327H151.428V117.196L159.834 108.146C162.841 104.95 160.961 102.453 156.557 102.453V101.942H169.394V102.453C166.977 102.882 164.211 104.923 161.203 108.065L158.088 111.422L167.622 133.229C168.75 135.78 169.582 136.962 170.495 136.962V137.445H157.846V136.962C161.472 136.962 162.197 135.673 161.203 133.229L153.979 115.854L151.428 118.62V132.611C151.428 135.512 152.448 136.962 155.349 136.962V137.445H141.438ZM191.684 123.427C191.684 132.719 187.924 138.09 181.291 138.09C173.986 138.09 169.152 131.564 169.152 120.285C169.152 108.468 174.309 101.137 181.936 101.137C186.931 101.137 191.711 104.467 191.711 114.108H174.711C174.685 114.779 174.658 115.451 174.658 116.176C174.658 127.16 178.176 133.256 183.708 133.256C188.059 133.256 191.201 129.416 191.201 123.427H191.684ZM174.738 113.168H185.83C185.856 112.846 185.856 112.523 185.856 112.201C185.856 106.051 183.681 102.184 180.539 102.184C177.343 102.184 175.195 106.078 174.738 113.168ZM213.92 129.926C213.92 132.208 214.968 133.39 217.009 133.39C220.017 133.39 221.843 130.57 221.843 125.817H222.273C222.273 133.82 219.48 138.09 214.404 138.09C210.402 138.09 208.093 135.512 208.093 131.107V105.622H203.474V105.272C209.301 102.802 212.631 98.7197 213.276 93.9932H213.84V101.942H221.843V105.622H213.92V129.926ZM223.427 137.445V136.962C226.408 136.962 227.482 135.512 227.482 132.611V107.636C227.482 104.735 226.489 104.225 223.454 104.413V103.983C226.489 103.554 229.792 102.587 233.042 101.137H233.364V132.611C233.364 135.512 234.411 136.962 237.419 136.962V137.445H223.427ZM225.979 94.6377C225.979 92.1133 227.751 90.3677 230.275 90.3677C232.8 90.3677 234.572 92.1133 234.572 94.6377C234.572 97.1621 232.8 98.9346 230.275 98.9346C227.751 98.9346 225.979 97.1621 225.979 94.6377ZM237.473 137.445V136.962C240.481 136.962 241.528 135.512 241.528 132.611V107.501C241.528 104.735 240.695 104.064 237.473 104.279V103.795C240.427 103.393 243.515 102.506 247.033 100.949H247.382V102.479C247.382 106.696 246.98 109.301 246.523 112.523H246.845C247.678 105.326 251.062 101.137 256.003 101.137C260.622 101.137 262.69 105.111 261.777 112.282H262.099C262.797 105.192 266.235 101.137 271.391 101.137C275.661 101.137 277.998 104.064 277.998 109.22V132.611C277.998 135.512 279.045 136.962 282.053 136.962V137.445H268.544V136.962C271.203 136.962 272.143 135.512 272.143 132.611V109.408C272.143 106.427 270.827 104.708 268.464 104.708C264.892 104.708 262.663 108.522 262.663 114.699V132.611C262.663 135.512 263.603 136.962 266.262 136.962V137.445H253.291V136.962C255.949 136.962 256.889 135.512 256.889 132.611V109.408C256.889 106.427 255.573 104.708 253.237 104.708C249.746 104.708 247.436 108.817 247.436 115.048V132.611C247.436 135.512 248.376 136.962 251.035 136.962V137.445H237.473ZM304.531 123.427C304.531 132.719 300.771 138.09 294.138 138.09C286.833 138.09 281.999 131.564 281.999 120.285C281.999 108.468 287.155 101.137 294.782 101.137C299.777 101.137 304.558 104.467 304.558 114.108H287.558C287.531 114.779 287.504 115.451 287.504 116.176C287.504 127.16 291.023 133.256 296.555 133.256C300.905 133.256 304.047 129.416 304.047 123.427H304.531ZM287.585 113.168H298.676C298.703 112.846 298.703 112.523 298.703 112.201C298.703 106.051 296.528 102.184 293.386 102.184C290.19 102.184 288.042 106.078 287.585 113.168ZM86.6524 189.926C86.6524 192.208 87.6998 193.39 89.7408 193.39C92.7486 193.39 94.5748 190.57 94.5748 185.817H95.0044C95.0044 193.82 92.2115 198.09 87.1358 198.09C83.1343 198.09 80.8248 195.512 80.8248 191.107V165.622H76.2056V165.272C82.0332 162.802 85.3633 158.72 86.0079 153.993H86.5718V161.942H94.5748V165.622H86.6524V189.926ZM108.325 198.144C100.644 198.144 96.2398 191.215 96.2398 179.586C96.2398 167.958 100.671 161.137 108.325 161.137C115.925 161.137 120.383 167.958 120.383 179.586C120.383 191.215 115.952 198.144 108.325 198.144ZM102.578 179.586C102.578 191.242 104.565 197.23 108.325 197.23C112.031 197.23 114.018 191.242 114.018 179.586C114.018 167.904 112.031 161.996 108.325 161.996C104.565 161.996 102.578 167.904 102.578 179.586ZM132.602 197.445V196.962C135.61 196.962 136.657 195.512 136.657 192.611L136.684 167.501C136.684 164.628 135.664 164.064 132.629 164.279V163.795C135.69 163.366 138.779 162.453 142.163 160.949H142.512V161.593C142.512 164.843 142.351 166.588 141.652 172.523H141.975C142.888 164.977 146.486 161.137 151.428 161.137C155.939 161.137 158.276 164.333 158.276 169.22V192.611C158.276 195.512 159.323 196.962 162.304 196.962V197.445H148.715V196.962C151.428 196.962 152.395 195.512 152.395 192.611V169.408C152.395 166.642 151.159 164.708 148.527 164.708C145.52 164.708 142.565 167.636 142.565 174.887V192.611C142.565 195.512 143.505 196.962 146.218 196.962V197.445H132.602ZM179.545 167.448C179.545 164.574 178.552 164.037 175.517 164.252V163.795C178.525 163.366 181.613 162.453 185.105 160.949H185.427V192.665C188.005 192.638 189.992 189.254 190.073 185.736H190.449C190.422 193.498 188.005 197.875 183.923 197.875C181.318 197.875 180.056 195.539 180.136 192.45C180.136 190.839 180.19 189.684 180.459 186.649H180.163C179.384 194.088 175.759 198.17 170.871 198.17C166.494 198.17 164.211 194.975 164.211 190.087L164.184 167.448C164.184 164.574 163.19 164.037 160.129 164.252V163.795C163.19 163.366 166.306 162.453 169.743 160.949H170.065V189.926C170.065 192.692 171.247 194.572 173.745 194.572C176.672 194.572 179.545 191.725 179.545 184.582V167.448ZM190.019 197.445V196.962C193.027 196.962 194.074 195.512 194.074 192.611L194.101 167.501C194.101 164.735 193.295 164.064 190.046 164.279V163.795C193.107 163.366 196.196 162.453 199.58 160.949H199.902V161.459C199.902 164.923 199.714 167.045 199.069 172.953H199.365C200.063 166.374 203.447 161.298 208.281 161.298C211.235 161.298 213.33 163.419 213.303 166.347C213.303 168.629 211.745 170.294 209.65 170.294C207.395 170.294 205.864 168.603 205.864 165.783V163.393C202.749 164.279 199.982 169.408 199.982 174.94V192.289C199.982 195.136 201.003 196.693 203.823 196.908H205.944V197.445H190.019ZM223.884 189.926C223.884 192.208 224.931 193.39 226.972 193.39C229.98 193.39 231.806 190.57 231.806 185.817H232.236C232.236 193.82 229.443 198.09 224.367 198.09C220.366 198.09 218.056 195.512 218.056 191.107V165.622H213.437V165.272C219.265 162.802 222.595 158.72 223.239 153.993H223.803V161.942H231.806V165.622H223.884V189.926ZM252.216 167.448C252.216 164.574 251.223 164.037 248.188 164.252V163.795C251.196 163.366 254.284 162.453 257.775 160.949H258.098V192.665C260.676 192.638 262.663 189.254 262.744 185.736H263.12C263.093 193.498 260.676 197.875 256.594 197.875C253.989 197.875 252.727 195.539 252.807 192.45C252.807 190.839 252.861 189.684 253.129 186.649H252.834C252.055 194.088 248.43 198.17 243.542 198.17C239.165 198.17 236.882 194.975 236.882 190.087L236.855 167.448C236.855 164.574 235.861 164.037 232.8 164.252V163.795C235.861 163.366 238.977 162.453 242.414 160.949H242.736V189.926C242.736 192.692 243.918 194.572 246.416 194.572C249.343 194.572 252.216 191.725 252.216 184.582V167.448ZM262.69 197.445V196.962C265.698 196.962 266.745 195.512 266.745 192.611L266.772 167.501C266.772 164.735 265.966 164.064 262.717 164.279V163.795C265.778 163.366 268.867 162.453 272.251 160.949H272.573V161.459C272.573 164.923 272.385 167.045 271.74 172.953H272.036C272.734 166.374 276.118 161.298 280.952 161.298C283.906 161.298 286.001 163.419 285.974 166.347C285.974 168.629 284.416 170.294 282.321 170.294C280.065 170.294 278.535 168.603 278.535 165.783V163.393C275.419 164.279 272.653 169.408 272.653 174.94V192.289C272.653 195.136 273.674 196.693 276.494 196.908H278.615V197.445H262.69ZM308.21 183.427C308.21 192.719 304.45 198.09 297.817 198.09C290.512 198.09 285.678 191.564 285.678 180.285C285.678 168.468 290.835 161.137 298.461 161.137C303.457 161.137 308.237 164.467 308.237 174.108H291.237C291.21 174.779 291.184 175.451 291.184 176.176C291.184 187.16 294.702 193.256 300.234 193.256C304.585 193.256 307.727 189.416 307.727 183.427H308.21ZM291.264 173.168H302.356C302.382 172.846 302.382 172.523 302.382 172.201C302.382 166.051 300.207 162.184 297.065 162.184C293.869 162.184 291.721 166.078 291.264 173.168ZM78.4078 269.349C73.896 269.349 71.8282 266.69 71.8282 264.085C71.8282 262.098 73.1978 260.486 75.3462 260.486C77.7632 260.486 79.1597 262.312 79.1597 265.293V268.301C82.3824 268.167 83.7251 265.455 84.6382 261.587L75.9639 228.34C75.1045 225.145 73.7349 223.479 71.2911 223.426V222.942H86.1958V223.426C82.9463 223.426 81.6841 224.419 81.6841 226.299C81.6841 226.917 81.7915 227.562 81.9527 228.233L87.4043 250.604H87.646L93.232 228.34C93.4737 227.481 93.5811 226.756 93.5811 226.165C93.5811 224.366 92.3995 223.426 89.1768 223.426V222.942H99.0865V223.426C96.7232 223.479 95.2461 225.359 94.4136 228.34L86.4913 258.768C85.3633 263.064 84.5845 269.349 78.4078 269.349ZM109.453 259.144C101.772 259.144 97.3677 252.215 97.3677 240.586C97.3677 228.958 101.799 222.137 109.453 222.137C117.053 222.137 121.511 228.958 121.511 240.586C121.511 252.215 117.08 259.144 109.453 259.144ZM103.706 240.586C103.706 252.242 105.693 258.23 109.453 258.23C113.159 258.23 115.146 252.242 115.146 240.586C115.146 228.904 113.159 222.996 109.453 222.996C105.693 222.996 103.706 228.904 103.706 240.586ZM141.142 228.448C141.142 225.574 140.148 225.037 137.114 225.252V224.795C140.122 224.366 143.21 223.453 146.701 221.949H147.023V253.665C149.602 253.638 151.589 250.254 151.669 246.736H152.045C152.019 254.498 149.602 258.875 145.52 258.875C142.915 258.875 141.652 256.539 141.733 253.45C141.733 251.839 141.787 250.684 142.055 247.649H141.76C140.981 255.088 137.356 259.17 132.468 259.17C128.09 259.17 125.808 255.975 125.808 251.087L125.781 228.448C125.781 225.574 124.787 225.037 121.726 225.252V224.795C124.787 224.366 127.902 223.453 131.34 221.949H131.662V250.926C131.662 253.692 132.844 255.572 135.341 255.572C138.269 255.572 141.142 252.725 141.142 245.582V228.448ZM151.616 258.445V257.962C154.624 257.962 155.671 256.512 155.671 253.611L155.698 228.501C155.698 225.735 154.892 225.064 151.643 225.279V224.795C154.704 224.366 157.793 223.453 161.176 221.949H161.499V222.459C161.499 225.923 161.311 228.045 160.666 233.953H160.961C161.66 227.374 165.044 222.298 169.877 222.298C172.832 222.298 174.926 224.419 174.899 227.347C174.899 229.629 173.342 231.294 171.247 231.294C168.991 231.294 167.46 229.603 167.46 226.783V224.393C164.345 225.279 161.579 230.408 161.579 235.94V253.289C161.579 256.136 162.6 257.693 165.419 257.908H167.541V258.445H151.616ZM185.83 258.445V257.962C188.837 257.962 189.885 256.512 189.885 253.611V228.501C189.885 225.735 189.052 225.064 185.83 225.279V224.795C188.784 224.393 191.872 223.506 195.39 221.949H195.739V223.479C195.739 227.696 195.336 230.301 194.88 233.523H195.202C196.035 226.326 199.419 222.137 204.36 222.137C208.979 222.137 211.047 226.111 210.134 233.282H210.456C211.154 226.192 214.592 222.137 219.748 222.137C224.018 222.137 226.355 225.064 226.355 230.22V253.611C226.355 256.512 227.402 257.962 230.41 257.962V258.445H216.901V257.962C219.56 257.962 220.5 256.512 220.5 253.611V230.408C220.5 227.427 219.184 225.708 216.821 225.708C213.249 225.708 211.02 229.522 211.02 235.699V253.611C211.02 256.512 211.96 257.962 214.619 257.962V258.445H201.648V257.962C204.306 257.962 205.246 256.512 205.246 253.611V230.408C205.246 227.427 203.93 225.708 201.594 225.708C198.103 225.708 195.793 229.817 195.793 236.048V253.611C195.793 256.512 196.733 257.962 199.392 257.962V258.445H185.83ZM230.437 258.445V257.962C233.418 257.962 234.492 256.512 234.492 253.611V228.636C234.492 225.735 233.498 225.225 230.463 225.413V224.983C233.498 224.554 236.801 223.587 240.051 222.137H240.373V253.611C240.373 256.512 241.42 257.962 244.428 257.962V258.445H230.437ZM232.988 215.638C232.988 213.113 234.76 211.368 237.285 211.368C239.809 211.368 241.582 213.113 241.582 215.638C241.582 218.162 239.809 219.935 237.285 219.935C234.76 219.935 232.988 218.162 232.988 215.638ZM244.482 258.445V257.962C247.49 257.962 248.537 256.512 248.537 253.611L248.564 228.501C248.564 225.628 247.544 225.064 244.509 225.279V224.795C247.57 224.366 250.659 223.453 254.043 221.949H254.392V222.593C254.392 225.843 254.231 227.588 253.532 233.523H253.855C254.768 225.977 258.366 222.137 263.308 222.137C267.819 222.137 270.156 225.333 270.156 230.22V253.611C270.156 256.512 271.203 257.962 274.184 257.962V258.445H260.595V257.962C263.308 257.962 264.274 256.512 264.274 253.611V230.408C264.274 227.642 263.039 225.708 260.407 225.708C257.399 225.708 254.445 228.636 254.445 235.887V253.611C254.445 256.512 255.385 257.962 258.098 257.962V258.445H244.482ZM284.067 259.117C277.944 259.117 274.399 252.833 274.399 241.607C274.399 229.495 278.508 222.19 284.873 222.19C289.143 222.19 291.721 225.44 292.607 232.127H292.983C292.446 228.072 292.07 224.151 292.07 221.143V219.559C292.07 216.819 291.237 216.175 287.854 216.363V215.879C291.049 215.477 294.299 214.537 297.548 213.033H297.871V253.665C300.314 253.638 302.436 250.469 302.517 246.736H302.893C302.839 254.39 300.476 258.902 296.367 258.902C293.896 258.902 292.446 256.78 292.607 253.396C292.714 251.463 292.822 249.905 292.956 248.187H292.607C291.721 255.169 288.74 259.144 284.067 259.117ZM280.441 240.022C280.441 249.69 282.751 255.652 286.618 255.652C289.975 255.652 292.07 251.248 292.07 244.749V235.887C292.07 229.925 289.76 225.816 286.35 225.816C282.644 225.816 280.441 231.106 280.441 240.022ZM308.398 258.982C305.927 258.982 304.209 257.291 304.209 254.82C304.209 252.349 305.927 250.684 308.398 250.684C310.869 250.684 312.561 252.349 312.561 254.82C312.561 257.291 310.869 258.982 308.398 258.982Z" fill="black"/>
</svg>
