<svg width="385" height="344" viewBox="0 0 385 344" fill="none" xmlns="http://www.w3.org/2000/svg">
<rect x="1.02976" y="0.77707" width="383.01" height="342.785" rx="25.7964" fill="#FFD23F"/>
<rect x="1.02976" y="0.77707" width="383.01" height="342.785" rx="25.7964" stroke="black" stroke-width="0.874453"/>
<path d="M78.1445 103.065C79.4336 99.0366 78.9502 97.3984 76.0498 97.3984V96.8882H84.8853V97.3984C82.334 97.3984 80.6152 99.0366 79.2993 103.065L76.4258 112.008L80.7227 126.375H80.9644L88.1616 103.092C89.4238 99.0635 88.7524 97.3984 85.3955 97.3984V96.8882H93.9893V97.3984C92.0288 97.3984 90.5786 99.0635 89.3164 103.092L78.5742 137.279H78.064L72.3169 118.883L66.3281 137.279H65.8447L55.0757 103.092C53.8135 99.0635 52.3364 97.3984 50.4028 97.3984V96.8882H62.7832V97.3984C60.5005 97.3984 60.2588 99.0635 61.4941 103.092L68.6108 126.51H68.8525L71.7529 117.083L67.3755 103.092C66.1133 99.0635 64.8779 97.3984 63.4277 97.3984V96.8882H75.9155V97.3984C73.042 97.3984 72.5586 99.0635 73.7671 103.119L75.8618 110.128L78.1445 103.065ZM113.97 122.481C113.97 131.773 110.21 137.145 103.577 137.145C96.272 137.145 91.438 130.619 91.438 119.339C91.438 107.523 96.5942 100.191 104.221 100.191C109.216 100.191 113.997 103.521 113.997 113.163H96.9971C96.9702 113.834 96.9434 114.505 96.9434 115.23C96.9434 126.214 100.461 132.311 105.994 132.311C110.344 132.311 113.486 128.47 113.486 122.481H113.97ZM97.0239 112.223H108.115C108.142 111.9 108.142 111.578 108.142 111.256C108.142 105.106 105.967 101.239 102.825 101.239C99.6289 101.239 97.4805 105.133 97.0239 112.223ZM134.111 111.605C135.105 104.032 138.059 100.245 142.651 100.245C148.828 100.245 152.319 106.878 152.319 118.158C152.319 130.028 148.452 137.198 142.061 137.198C137.603 137.198 134.89 133.6 134.031 126.832H133.816C131.829 130.001 130.298 133.224 129.25 136.715H128.821L128.875 97.6133C128.875 94.874 127.988 94.2026 124.604 94.4175V93.9341C127.8 93.5312 131.05 92.5913 134.299 91.0874H134.622V98.6338C134.622 102.232 134.434 105.589 133.816 111.605H134.111ZM134.622 123.448C134.622 129.464 136.958 133.546 140.315 133.546C144.128 133.546 146.25 128.094 146.25 118.99C146.25 109.564 143.94 103.736 140.073 103.736C136.689 103.736 134.622 108.248 134.622 115.526V123.448ZM177.832 122.481C177.832 131.773 174.072 137.145 167.439 137.145C160.134 137.145 155.3 130.619 155.3 119.339C155.3 107.523 160.457 100.191 168.083 100.191C173.079 100.191 177.859 103.521 177.859 113.163H160.859C160.833 113.834 160.806 114.505 160.806 115.23C160.806 126.214 164.324 132.311 169.856 132.311C174.207 132.311 177.349 128.47 177.349 122.481H177.832ZM160.886 112.223H171.978C172.004 111.9 172.004 111.578 172.004 111.256C172.004 105.106 169.829 101.239 166.687 101.239C163.491 101.239 161.343 105.133 160.886 112.223ZM178.02 136.5V136.017C181.135 136.017 182.209 134.566 182.209 131.666L182.236 97.6133C182.236 94.7129 181.162 94.2295 177.966 94.4175V93.9341C181.162 93.5312 184.385 92.5645 187.661 91.0874H187.983V131.666C187.983 134.566 189.058 136.017 192.173 136.017V136.5H178.02ZM192.495 136.5V136.017C195.476 136.017 196.55 134.566 196.55 131.666V106.69C196.55 103.79 195.557 103.28 192.522 103.468V103.038C195.557 102.608 198.86 101.642 202.109 100.191H202.432V131.666C202.432 134.566 203.479 136.017 206.487 136.017V136.5H192.495ZM195.046 93.6924C195.046 91.168 196.819 89.4224 199.343 89.4224C201.868 89.4224 203.64 91.168 203.64 93.6924C203.64 96.2168 201.868 97.9893 199.343 97.9893C196.819 97.9893 195.046 96.2168 195.046 93.6924ZM229.072 122.481C229.072 131.773 225.312 137.145 218.679 137.145C211.375 137.145 206.541 130.619 206.541 119.339C206.541 107.523 211.697 100.191 219.324 100.191C224.319 100.191 229.099 103.521 229.099 113.163H212.1C212.073 113.834 212.046 114.505 212.046 115.23C212.046 126.214 215.564 132.311 221.096 132.311C225.447 132.311 228.589 128.47 228.589 122.481H229.072ZM212.126 112.223H223.218C223.245 111.9 223.245 111.578 223.245 111.256C223.245 105.106 221.069 101.239 217.927 101.239C214.731 101.239 212.583 105.133 212.126 112.223ZM249.832 106.368C250.798 103.119 249.939 101.48 245.83 101.48V100.997H255.74V101.48C253.43 101.534 251.926 103.307 251.013 106.395L242.017 137.494H241.533L232.805 106.395C231.812 103.119 230.496 101.534 228.105 101.48V100.997H242.903V101.48C238.74 101.48 237.827 103.172 238.767 106.261L244.138 126.026H244.353L249.832 106.368ZM276.23 122.481C276.23 131.773 272.471 137.145 265.837 137.145C258.533 137.145 253.699 130.619 253.699 119.339C253.699 107.523 258.855 100.191 266.482 100.191C271.477 100.191 276.257 103.521 276.257 113.163H259.258C259.231 113.834 259.204 114.505 259.204 115.23C259.204 126.214 262.722 132.311 268.254 132.311C272.605 132.311 275.747 128.47 275.747 122.481H276.23ZM259.285 112.223H270.376C270.403 111.9 270.403 111.578 270.403 111.256C270.403 105.106 268.228 101.239 265.085 101.239C261.89 101.239 259.741 105.133 259.285 112.223ZM288.584 136.5V136.017C291.565 136.017 292.639 134.566 292.639 131.666V106.69C292.639 103.79 291.646 103.28 288.611 103.468V103.038C291.646 102.608 294.949 101.642 298.198 100.191H298.521V131.666C298.521 134.566 299.568 136.017 302.576 136.017V136.5H288.584ZM291.135 93.6924C291.135 91.168 292.908 89.4224 295.432 89.4224C297.957 89.4224 299.729 91.168 299.729 93.6924C299.729 96.2168 297.957 97.9893 295.432 97.9893C292.908 97.9893 291.135 96.2168 291.135 93.6924ZM302.629 136.5V136.017C305.637 136.017 306.685 134.566 306.685 131.666L306.711 106.556C306.711 103.683 305.691 103.119 302.656 103.333V102.85C305.718 102.42 308.806 101.507 312.19 100.003H312.539V100.648C312.539 103.897 312.378 105.643 311.68 111.578H312.002C312.915 104.032 316.514 100.191 321.455 100.191C325.967 100.191 328.303 103.387 328.303 108.275V131.666C328.303 134.566 329.351 136.017 332.332 136.017V136.5H318.743V136.017C321.455 136.017 322.422 134.566 322.422 131.666V108.463C322.422 105.697 321.187 103.763 318.555 103.763C315.547 103.763 312.593 106.69 312.593 113.941V131.666C312.593 134.566 313.533 136.017 316.245 136.017V136.5H302.629ZM49.7046 206.947V206.463C52.9004 206.463 54.0283 205.013 54.0283 202.113V166.556C54.0283 163.763 53.1958 163.092 49.7852 163.333V162.85C53.0078 162.42 56.2305 161.507 59.5068 160.003H59.8291V160.97C59.8291 163.468 59.5337 166.744 58.9697 171.605H59.3188C60.3125 164.005 63.2397 160.245 67.8589 160.245C74.0088 160.245 77.5 166.852 77.5 178.158C77.5269 190.028 73.6597 197.198 67.2949 197.198C62.9443 197.198 60.3931 194.002 59.3188 187.289H58.9966C59.6948 194.19 59.8291 195.99 59.8291 199.051V202.113C59.8291 205.013 61.1182 206.463 64.8242 206.463V206.947H49.7046ZM59.8291 175.499L59.856 183.985C59.856 189.732 62.1387 194.002 65.5225 194.002C69.3359 194.002 71.4575 188.363 71.4307 178.99C71.4307 169.457 69.1211 163.575 65.2539 163.575C61.9507 163.575 59.8022 168.141 59.8291 175.499ZM103.013 182.481C103.013 191.773 99.2529 197.145 92.6196 197.145C85.3149 197.145 80.481 190.619 80.481 179.339C80.481 167.523 85.6372 160.191 93.2642 160.191C98.2593 160.191 103.04 163.521 103.04 173.163H86.04C86.0132 173.834 85.9863 174.505 85.9863 175.23C85.9863 186.214 89.5044 192.311 95.0366 192.311C99.3872 192.311 102.529 188.47 102.529 182.481H103.013ZM86.0669 172.223H97.1582C97.1851 171.9 97.1851 171.578 97.1851 171.256C97.1851 165.106 95.0098 161.239 91.8677 161.239C88.6719 161.239 86.5234 165.133 86.0669 172.223ZM103.523 196.5V196.017C106.531 196.017 107.578 194.566 107.578 191.666L107.605 166.556C107.605 163.79 106.799 163.119 103.55 163.333V162.85C106.611 162.42 109.7 161.507 113.083 160.003H113.406V160.514C113.406 163.978 113.218 166.1 112.573 172.008H112.869C113.567 165.428 116.951 160.353 121.785 160.353C124.739 160.353 126.833 162.474 126.807 165.401C126.807 167.684 125.249 169.349 123.154 169.349C120.898 169.349 119.368 167.657 119.368 164.837V162.447C116.252 163.333 113.486 168.463 113.486 173.995V191.344C113.486 194.19 114.507 195.748 117.327 195.963H119.448V196.5H103.523ZM136.716 197.198C133.843 197.198 130.969 196.581 128.767 195.56V182.857H129.25C129.438 189.974 134.219 196.124 138.784 196.124C141.282 196.124 143 194.459 143 191.344C143 182.508 128.149 180.064 128.149 169.564C128.149 164.059 132.151 160.245 139.187 160.245C142.087 160.245 144.773 160.89 147.029 162.044V174.129H146.545C146.438 166.502 141.738 161.319 137.522 161.319C134.648 161.319 132.849 163.414 132.849 166.502C132.849 174.854 147.781 177.003 147.781 187.826C147.781 193.626 143.511 197.198 136.716 197.198ZM162.551 197.198C154.871 197.198 150.466 190.27 150.466 178.641C150.466 167.013 154.897 160.191 162.551 160.191C170.151 160.191 174.609 167.013 174.609 178.641C174.609 190.27 170.178 197.198 162.551 197.198ZM156.804 178.641C156.804 190.296 158.792 196.285 162.551 196.285C166.257 196.285 168.245 190.296 168.245 178.641C168.245 166.959 166.257 161.051 162.551 161.051C158.792 161.051 156.804 166.959 156.804 178.641ZM175.066 196.5V196.017C178.074 196.017 179.121 194.566 179.121 191.666L179.148 166.556C179.148 163.683 178.127 163.119 175.093 163.333V162.85C178.154 162.42 181.243 161.507 184.626 160.003H184.976V160.648C184.976 163.897 184.814 165.643 184.116 171.578H184.438C185.352 164.032 188.95 160.191 193.892 160.191C198.403 160.191 200.74 163.387 200.74 168.275V191.666C200.74 194.566 201.787 196.017 204.768 196.017V196.5H191.179V196.017C193.892 196.017 194.858 194.566 194.858 191.666V168.463C194.858 165.697 193.623 163.763 190.991 163.763C187.983 163.763 185.029 166.69 185.029 173.941V191.666C185.029 194.566 185.969 196.017 188.682 196.017V196.5H175.066ZM220.667 174.962C214.302 180.494 211.562 184.281 211.562 188.041C211.562 190.86 213.04 193.062 215.51 193.062C218.733 193.062 220.908 189.33 220.908 184.469V174.962H220.667ZM204.714 171.283C204.714 164.945 209.763 160.084 216.343 160.084C222.493 160.084 226.655 164.273 226.655 170.477V191.72C229.207 191.612 231.328 188.497 231.409 184.791H231.812C231.758 192.364 229.341 196.957 225.42 196.957C222.815 196.957 221.445 194.916 221.58 191.505L221.794 186.026H221.526C220.828 193.009 217.578 197.225 212.798 197.225C208.958 197.225 206.084 194.432 206.084 190.35C206.084 187.154 207.964 183.663 213.496 179.339L220.908 173.565V171.175C220.908 166.771 217.847 163.736 213.416 163.736C209.226 163.736 206.218 166.449 205.654 170.558H208.044C211.643 170.558 213.604 171.847 213.604 174.237C213.604 176.358 211.965 177.916 209.709 177.916C206.755 177.916 204.714 175.23 204.714 171.283ZM230.764 196.5V196.017C233.879 196.017 234.954 194.566 234.954 191.666L234.98 157.613C234.98 154.713 233.906 154.229 230.71 154.417V153.934C233.906 153.531 237.129 152.564 240.405 151.087H240.728V191.666C240.728 194.566 241.802 196.017 244.917 196.017V196.5H230.764ZM60.4468 268.43C54.2969 268.43 51.2622 266.577 51.2622 263.489C51.2622 261.394 52.9541 259.648 55.2905 258.655V258.359C53.0347 258.118 51.5039 256.775 51.5039 254.412C51.5039 251.538 53.7061 248.289 57.1167 246.462V246.221C53.7329 244.045 51.6382 239.829 51.6382 234.485C51.6382 226.643 56.1499 221.245 62.7026 221.245C63.9917 221.245 65.1733 221.46 66.2744 221.836H76.748V225.542H70.7056C72.666 227.744 73.7671 230.859 73.7671 234.592C73.7671 242.327 69.1479 247.778 62.6489 247.778C60.957 247.778 59.4263 247.402 58.0566 246.731C56.2842 247.913 55.2905 250.33 55.3442 253.176H70.8398C74.6533 253.176 76.936 254.573 76.936 257.742C76.936 263.784 70.0879 268.43 60.4468 268.43ZM55.1562 262.092C55.1562 265.342 57.627 267.463 61.897 267.463C67.6172 267.463 72.3706 264.241 72.3706 260.964C72.3706 259.46 71.2158 258.386 68.96 258.386H56.3647C55.4785 259.487 55.1562 260.803 55.1562 262.092ZM57.5195 234.485C57.5195 242.058 59.5605 246.865 62.7026 246.865C65.8179 246.865 67.8589 242.058 67.8589 234.485C67.8589 226.938 65.8179 222.158 62.7026 222.158C59.5605 222.158 57.5195 226.938 57.5195 234.485ZM77.9028 257.5V257.017C80.9106 257.017 81.958 255.566 81.958 252.666L81.9849 227.556C81.9849 224.79 81.1792 224.119 77.9297 224.333V223.85C80.9912 223.42 84.0796 222.507 87.4634 221.003H87.7856V221.514C87.7856 224.978 87.5977 227.1 86.9531 233.008H87.2485C87.9468 226.428 91.3306 221.353 96.1646 221.353C99.1187 221.353 101.213 223.474 101.187 226.401C101.187 228.684 99.6289 230.349 97.5342 230.349C95.2783 230.349 93.7476 228.657 93.7476 225.837V223.447C90.6323 224.333 87.8662 229.463 87.8662 234.995V252.344C87.8662 255.19 88.8867 256.748 91.7065 256.963H93.8281V257.5H77.9028ZM113.245 258.198C105.564 258.198 101.16 251.27 101.16 239.641C101.16 228.013 105.591 221.191 113.245 221.191C120.845 221.191 125.303 228.013 125.303 239.641C125.303 251.27 120.872 258.198 113.245 258.198ZM107.498 239.641C107.498 251.296 109.485 257.285 113.245 257.285C116.951 257.285 118.938 251.296 118.938 239.641C118.938 227.959 116.951 222.051 113.245 222.051C109.485 222.051 107.498 227.959 107.498 239.641ZM138.354 226.509C137.603 223.931 136.636 222.48 135.212 222.48V221.997H152.534V222.48C150.762 222.48 149.5 224.038 148.667 226.831L146.25 234.968L149.688 247.483H149.902L155.273 227.502C156.16 224.387 155.784 222.48 153.394 222.48V221.997H160.886V222.48C158.792 222.48 157.288 224.387 156.401 227.476L147.834 258.467H147.351L142.463 241.091L137.468 258.467H136.985L127.72 226.482C126.968 223.877 125.679 222.48 123.53 222.48V221.997H134.407V222.48C132.822 222.48 132.742 223.796 133.547 226.509L139.429 247.698H139.67L141.926 239.238L138.354 226.509ZM143.887 226.375L145.74 233.088L147.727 226.375C148.452 223.796 148.076 222.48 145.82 222.48C143.538 222.48 143.188 223.796 143.887 226.375ZM169.775 249.98C169.775 252.263 170.823 253.445 172.864 253.445C175.872 253.445 177.698 250.625 177.698 245.872H178.127C178.127 253.875 175.334 258.145 170.259 258.145C166.257 258.145 163.948 255.566 163.948 251.162V225.676H159.329V225.327C165.156 222.856 168.486 218.774 169.131 214.048H169.695V221.997H177.698V225.676H169.775V249.98ZM177.778 257.5V257.017C180.786 257.017 181.833 255.566 181.833 252.666L181.86 218.64C181.86 215.74 180.813 215.229 177.725 215.417V214.934C180.786 214.531 183.821 213.618 187.312 212.087H187.634V221.003C187.634 225.193 187.5 226.643 186.829 232.578H187.124C188.037 225.032 191.636 221.191 196.577 221.191C201.089 221.191 203.398 224.387 203.398 229.275V252.666C203.398 255.566 204.446 257.017 207.454 257.017V257.5H193.892V257.017C196.604 257.017 197.544 255.566 197.544 252.666L197.571 229.463C197.571 226.697 196.309 224.871 193.677 224.871C190.669 224.871 187.715 227.69 187.715 234.941V252.666C187.715 255.566 188.655 257.017 191.367 257.017V257.5H177.778ZM212.18 258.037C209.709 258.037 207.991 256.345 207.991 253.875C207.991 251.404 209.709 249.739 212.18 249.739C214.651 249.739 216.343 251.404 216.343 253.875C216.343 256.345 214.651 258.037 212.18 258.037Z" fill="black"/>
</svg>
