<svg width="32" height="33" viewBox="0 0 32 33" fill="none" xmlns="http://www.w3.org/2000/svg">
<g clip-path="url(#clip0_766_17069)">
<path fill-rule="evenodd" clip-rule="evenodd" d="M0 16.6486C0 12.4186 1.68037 8.36177 4.67146 5.37068C7.66255 2.37959 11.7193 0.699219 15.9494 0.699219C20.1794 0.699219 24.2362 2.37959 27.2273 5.37068C30.2184 8.36177 31.8987 12.4186 31.8987 16.6486C31.8987 20.8786 30.2184 24.9354 27.2273 27.9265C24.2362 30.9176 20.1794 32.598 15.9494 32.598C11.7193 32.598 7.66255 30.9176 4.67146 27.9265C1.68037 24.9354 0 20.8786 0 16.6486ZM15.0392 23.4749L24.2218 11.9956L22.563 10.6686L14.733 20.453L9.18684 15.832L7.82582 17.4652L15.0392 23.4749Z" fill="#D43525"/>
</g>
<defs>
<clipPath id="clip0_766_17069">
<rect width="31.8987" height="31.8987" fill="white" transform="translate(0 0.699219)"/>
</clipPath>
</defs>
</svg>
