<svg preserveAspectRatio="none" width="100%" height="100%" overflow="visible" style="display: block;" viewBox="0 0 20 20" fill="none" xmlns="http://www.w3.org/2000/svg">
<g id="Group 62">
<path id="Vector" d="M0 10C0 4.47059 4.47059 0 10 0C15.5294 0 20 4.47059 20 10C20 15.5294 15.5294 20 10 20C4.47059 20 0 15.5294 0 10ZM18.8235 10C18.8235 5.11765 14.8824 1.17647 10 1.17647C5.11765 1.17647 1.17647 5.11765 1.17647 10C1.17647 14.8824 5.11765 18.8235 10 18.8235C14.8824 18.8235 18.8235 14.8824 18.8235 10Z" fill="var(--fill-0, white)"/>
<path id="Vector_2" d="M9.00419 14.8847L13.8865 10.0023L9.00419 5.11997L9.82772 4.29644L15.5336 10.0023L9.82772 15.7082L9.00419 14.8847Z" fill="var(--fill-0, white)"/>
<path id="Vector_3" d="M14.7115 9.41502V10.5915L4.71146 10.5915V9.41502L14.7115 9.41502Z" fill="var(--fill-0, white)"/>
</g>
</svg>
