<svg preserveAspectRatio="none" width="100%" height="100%" overflow="visible" style="display: block;" viewBox="0 0 64 64" fill="none" xmlns="http://www.w3.org/2000/svg">
<g id="Icon" clip-path="url(#clip0_0_25)">
<path id="Vector" d="M0.0209898 5.51373C0.290944 3.26561 2.35021 0.944515 4.49192 0.300489C10.4343 -1.48642 15.0838 5.06792 11.6944 10.1377L14.8926 13.3313C15.0785 13.4231 15.9968 12.9426 16.3365 12.8975C19.9938 12.4122 22.5443 15.9465 20.7949 19.1997L22.4462 20.8547C25.7072 18.1086 29.808 16.215 34.1305 16.1369L34.1137 12.7786C29.8638 11.9164 27.5346 7.40129 29.5297 3.4743C31.8025 -0.999477 38.3644 -1.07631 40.7726 3.30598C42.9429 7.25546 40.5889 11.9226 36.2701 12.7786L36.2533 16.1369C39.4408 16.1988 42.6738 17.2711 45.3641 18.9586C46.2991 19.5451 47.0977 20.307 48.0431 20.8719L51.691 17.2574C51.7742 17.0888 51.3502 16.2165 51.2815 15.9141C50.2227 11.2488 56.477 8.73382 59.0177 12.675C61.4353 16.425 57.1333 20.8134 53.2437 18.6941L49.5202 22.4459C55.3985 29.09 55.8783 38.988 50.8907 46.2984C50.9209 46.4548 52.976 48.5109 53.1237 48.5704C53.3208 48.6498 53.5527 48.4818 53.7902 48.5099C54.383 48.5802 54.7934 48.8293 55.2465 49.1895C56.5471 50.2233 62.6993 56.3337 63.3901 57.5401C64.9403 60.2476 63.3764 63.2579 60.4925 64H58.9932C58.5052 63.7807 58.0068 63.669 57.5325 63.3991C56.2501 62.6691 50.3832 56.6971 49.2449 55.3175C48.9646 54.9778 48.6461 54.5776 48.5537 54.1349C48.4757 53.7612 48.6005 53.2454 48.555 53.121C48.5006 52.972 46.4492 50.9268 46.2935 50.8967C38.9525 55.9216 29.1309 55.4268 22.4462 49.5338L18.6956 53.2503C20.531 56.8911 17.2741 60.8456 13.3436 59.3597C9.60692 57.9472 9.97023 52.2301 13.9892 51.2901C15.3109 50.981 16.0205 51.337 17.2593 51.6972L20.8668 48.0482C20.9027 47.8638 19.4559 46.1156 19.21 45.7437C17.3847 42.9827 16.2184 39.5757 16.139 36.2559L12.7815 36.2727C11.7384 42.3361 3.2307 43.5914 0.663509 37.9258C0.32543 37.1797 0.2166 36.4136 0.0209881 35.6317V34.7569C0.216601 33.975 0.325428 33.2088 0.663509 32.4627C1.25905 31.1484 2.56329 29.8755 3.89668 29.3232C7.80044 27.7059 11.95 30.034 12.7815 34.1158L16.139 34.1326C16.2292 29.8002 18.1164 25.7208 20.8557 22.4455L19.2011 20.7939C15.9529 22.5279 12.4163 19.9854 12.9005 16.3343C12.9455 15.9947 13.4259 15.0761 13.3341 14.8901L10.1412 11.6912C6.04906 14.3634 0.83781 12.0614 0.0209898 7.26332C0.0682785 6.70416 -0.0444083 6.05836 0.0209898 5.51373ZM6.24598 2.16864C0.302391 2.40944 1.29327 11.9106 7.42334 10.6056C12.3109 9.56506 11.4859 1.95636 6.24598 2.16864ZM35.1077 2.16942C29.0098 2.33133 30.0286 11.9104 36.1598 10.6056C41.0651 9.56162 40.1866 2.03457 35.1077 2.16942ZM54.8362 12.9157C53.0119 13.2917 52.7057 16.1977 54.6217 16.9469C58.0845 18.3009 58.6836 12.123 54.8362 12.9157ZM15.5571 18.5925C17.4495 20.6132 20.5824 17.6284 18.6874 15.6487C16.7102 13.5832 13.6174 16.5212 15.5571 18.5925ZM34.2292 18.1726C20.931 18.9884 13.5684 34.0677 21.2841 45.0439C28.9224 55.9099 45.7627 54.0715 50.8947 41.8404C55.7593 30.2465 46.755 17.4041 34.2292 18.1726ZM6.45546 30.954C0.762357 30.954 0.95479 39.5044 6.45546 39.5044C11.9561 39.5044 12.1486 30.954 6.45546 30.954ZM49.4524 48.0128L48.0074 49.5487L49.9178 51.3689L51.3628 49.833L49.4524 48.0128ZM61.1987 61.2068C61.9469 60.4967 61.9828 59.1345 61.3465 58.3345L53.6832 50.6304L50.7427 53.6899L58.2025 61.2292C59.0251 61.9522 60.3932 61.9711 61.1987 61.2068ZM13.4335 53.9209C12.5103 54.8931 12.7195 56.6262 13.9265 57.277C15.7145 58.2412 17.6882 56.5238 16.9488 54.6287C16.4035 53.2309 14.4708 52.8285 13.4335 53.9209Z" fill="var(--fill-0, #E5FF7D)"/>
<path id="Vector_2" d="M34.3556 20.2971C45.8931 19.6446 53.8612 31.9444 48.3961 42.2141C43.3264 51.7408 29.8956 52.8612 23.3348 44.2439C16.0959 34.7359 22.5108 20.967 34.3556 20.2971ZM34.1314 22.5098C31.531 22.6496 28.9389 23.709 27.0122 25.4467L31.569 29.9868C32.2934 29.3805 33.22 29.0878 34.1314 28.8833V22.5098ZM36.2554 28.8833L39.0066 29.9491L43.3679 25.5543C43.4507 25.0798 40.8156 23.6927 40.3377 23.4879C39.0746 22.9465 37.6368 22.5395 36.2554 22.5098V28.8833ZM28.8839 34.1321C29.0884 33.2204 29.381 32.2936 29.9871 31.569L25.4481 27.0112C23.7014 28.9272 22.7015 31.5516 22.5119 34.1321H28.8839ZM44.9388 27.0112L40.52 31.4712C40.7605 32.1933 41.1404 32.7091 41.3417 33.4811C42.8718 39.3505 36.4985 43.8175 31.569 40.4019L27.0682 44.8796C26.9495 45.1492 28.7495 46.2357 29.0499 46.4006C35.0651 49.704 42.7018 47.6269 46.1782 41.7453C48.9103 37.123 48.503 31.0571 44.9388 27.0112ZM35.2145 30.9312C29.5259 30.9372 29.6968 39.5045 35.1934 39.5045C40.7285 39.5045 40.8516 30.9253 35.2145 30.9312ZM28.8839 36.2566H22.5119C22.6918 38.8239 23.6965 41.4874 25.4654 43.3707L29.9954 38.9257C29.4691 38.1056 29.0624 37.2274 28.8839 36.2566Z" fill="var(--fill-0, #E5FF7D)"/>
</g>
<defs>
<clipPath id="clip0_0_25">
<rect width="64" height="64" fill="white"/>
</clipPath>
</defs>
</svg>
