<svg preserveAspectRatio="none" width="100%" height="100%" overflow="visible" style="display: block;" viewBox="0 0 41.1123 53.7725" fill="none" xmlns="http://www.w3.org/2000/svg">
<g id="Group 22">
<path id="Vector" d="M24.3166 37.0023L22.8911 30.4557C22.7893 29.9904 22.5148 29.5809 22.1237 29.311C21.7327 29.0411 21.2546 28.9312 20.7873 29.0037C20.4216 29.0594 20.068 29.1759 19.7408 29.3484C19.4535 29.5069 19.1833 29.6364 18.9563 29.7516C18.6052 29.9215 18.2026 29.9516 17.829 29.8359C17.4554 29.7202 17.1382 29.4672 16.9408 29.1275C16.2706 27.9683 15.4942 25.7584 15.7095 22.0026C15.9694 17.6074 16.2498 15.7415 16.7224 14.8513C16.8422 14.628 17.0227 14.4437 17.2428 14.3197C17.463 14.1958 17.7139 14.1374 17.9665 14.1511C18.6229 14.189 19.281 14.1732 19.9343 14.1038C20.3857 14.0506 20.8014 13.8336 21.1036 13.4933C21.4058 13.1531 21.5736 12.713 21.5756 12.2557L21.5952 4.85312C21.5985 4.38156 21.4243 3.92534 21.1075 3.57615C20.7907 3.22697 20.3548 3.01071 19.8874 2.97085C17.85 2.80386 14.1045 3.00606 11.6912 6.88094C8.05133 12.7294 8.48518 28.0392 11.041 34.4033C12.6069 38.3022 18.6903 41.1646 23.2629 39.1181C23.6545 38.9426 23.9733 38.6362 24.1653 38.2507C24.3573 37.8652 24.4107 37.4242 24.3166 37.0023Z" fill="var(--fill-0, #96ADF0)"/>
<path id="Vector_2" d="M18.896 14.3241C18.8459 14.324 18.7977 14.3042 18.7616 14.269C18.7255 14.2338 18.7044 14.1859 18.7028 14.1355L18.5001 2.83432C18.5 2.78289 18.5202 2.73362 18.5562 2.69735C18.5923 2.66107 18.6413 2.64077 18.6924 2.64089C18.7436 2.64101 18.7926 2.66156 18.8289 2.69801C18.8651 2.73446 18.8855 2.78383 18.8857 2.83525L19.0883 14.122C19.0884 14.1729 19.0686 14.2217 19.0332 14.2579C18.9978 14.2941 18.9495 14.3147 18.8989 14.3154L18.896 14.3241Z" fill="var(--fill-0, #412945)"/>
<path id="Vector_3" d="M22.0332 39.8607C21.9898 39.8604 21.9476 39.8454 21.9136 39.818C21.8796 39.7906 21.8557 39.7525 21.8459 39.7098L19.5538 29.373C19.5483 29.3483 19.5477 29.3227 19.552 29.2978C19.5564 29.2729 19.5657 29.2491 19.5793 29.2279C19.5929 29.2067 19.6105 29.1884 19.6313 29.1741C19.652 29.1598 19.6754 29.1499 19.7 29.1448C19.7247 29.1393 19.7503 29.1388 19.7753 29.1433C19.8003 29.1477 19.8242 29.1571 19.8456 29.1709C19.867 29.1846 19.8855 29.2025 19.9001 29.2234C19.9147 29.2444 19.925 29.268 19.9305 29.2929L22.2225 39.621C22.2281 39.6459 22.2288 39.6717 22.2244 39.6968C22.2201 39.7219 22.2109 39.7458 22.1973 39.7673C22.1837 39.7888 22.166 39.8073 22.1453 39.8219C22.1245 39.8365 22.1011 39.8467 22.0764 39.8522L22.0332 39.8607Z" fill="var(--fill-0, #412945)"/>
<path id="Vector_4" d="M11.2796 32.7414C11.3811 33.361 11.5766 33.9618 11.8593 34.5225C12.0447 34.9582 12.3684 35.3204 12.7796 35.5521C13.203 35.7499 13.7954 35.6414 13.9958 35.2194C14.082 35.0079 14.1015 34.7746 14.0518 34.551C13.9613 34.0328 13.707 33.5547 13.5878 33.0422C13.539 32.6625 13.4543 32.2883 13.3348 31.9245C13.1063 31.4117 12.3713 30.8543 11.7819 31.0526C11.1523 31.2507 11.1892 32.2174 11.2796 32.7414Z" fill="var(--fill-0, #F7EDE5)"/>
<path id="Vector_5" d="M12.6055 28.4119C12.6967 28.5816 12.7359 28.7744 12.7182 28.966C12.7005 29.1575 12.6266 29.3392 12.5059 29.488C12.3852 29.6368 12.2232 29.746 12.0403 29.8018C11.8574 29.8576 11.6619 29.8575 11.4786 29.8014C11.2953 29.7454 11.1323 29.6359 11.0104 29.4869C10.8885 29.338 10.8132 29.1562 10.7938 28.9646C10.7745 28.773 10.8122 28.5802 10.902 28.4107C10.9918 28.2412 11.1297 28.1025 11.2983 28.0123C11.4097 27.9518 11.532 27.9142 11.6582 27.9015C11.7843 27.8889 11.9119 27.9015 12.0334 27.9387C12.1549 27.9758 12.268 28.0368 12.3662 28.118C12.4644 28.1992 12.5458 28.2991 12.6055 28.4119Z" fill="var(--fill-0, #F7EDE5)"/>
<path id="Vector_6" d="M20.0537 6.76765C20.0299 7.0381 20.0305 7.31028 20.0556 7.58084C20.0703 7.71598 20.1299 7.84242 20.2246 7.93977C20.3193 8.03712 20.4436 8.09972 20.5777 8.11747C20.8941 8.11824 21.089 7.77145 21.1688 7.46199C21.4019 6.49125 21.3311 5.47034 20.9661 4.53866C20.8215 4.21709 20.389 3.84562 20.0357 4.08785C19.6824 4.33009 19.7501 4.95534 19.7999 5.32009C19.9257 5.79457 20.0106 6.27889 20.0537 6.76765Z" fill="var(--fill-0, #F7EDE5)"/>
<path id="Vector_7" d="M21.081 9.02231C21.1209 9.10142 21.1369 9.19048 21.1269 9.27839C21.1169 9.3663 21.0814 9.44919 21.0248 9.51675C20.9683 9.58431 20.8931 9.63355 20.8087 9.65835C20.7244 9.68315 20.6345 9.68241 20.5503 9.65622C20.4661 9.63004 20.3912 9.57956 20.3351 9.51108C20.279 9.44259 20.2441 9.35912 20.2347 9.27105C20.2253 9.18298 20.2418 9.09419 20.2822 9.01574C20.3226 8.93729 20.3851 8.87263 20.462 8.82982C20.5147 8.80042 20.5729 8.78207 20.633 8.77587C20.693 8.76967 20.7538 8.77573 20.8116 8.79371C20.8694 8.81169 20.9231 8.8412 20.9694 8.88048C21.0157 8.91976 21.0537 8.968 21.081 9.02231Z" fill="var(--fill-0, #F7EDE5)"/>
<path id="Vector_8" d="M36.5357 50.2495C35.8683 49.6914 35.0919 49.281 34.2573 49.045C33.4228 48.8091 32.5489 48.7531 31.693 48.8806C31.6077 48.746 31.5111 48.6189 31.4044 48.5008C30.7966 47.8926 30.0104 47.4978 29.1633 47.3754C28.2178 47.2173 27.2495 47.2874 26.3384 47.5798C25.983 46.9464 25.4739 46.4134 24.8587 46.0309C23.7466 45.3766 22.4505 45.1147 21.1771 45.287C21.0735 45.2867 20.97 45.3125 20.8664 45.3325C20.7702 45.0026 20.6522 44.6794 20.5131 44.3651C20.2925 43.8567 20.0111 43.3769 19.6753 42.9364C19.8477 42.4884 19.9513 42.0164 19.9827 41.5365C20.0179 40.9489 19.9412 40.3594 19.757 39.7996C19.5151 39.0434 19.0868 38.3603 18.5121 37.8143C18.4944 37.7962 18.4733 37.7818 18.4501 37.772C18.4269 37.7622 18.4019 37.7571 18.3768 37.757C18.3516 37.757 18.3267 37.7619 18.3035 37.7716C18.2803 37.7814 18.2593 37.7956 18.2417 37.8136C18.2238 37.8313 18.2096 37.8525 18.2 37.8758C18.1903 37.8991 18.1854 37.9242 18.1854 37.9495C18.1855 37.9748 18.1906 37.9999 18.2003 38.0232C18.2101 38.0466 18.2244 38.0678 18.2423 38.0856C18.701 38.5225 19.0594 39.0547 19.2924 39.6447C19.5255 40.2347 19.6275 40.8682 19.5913 41.5008C19.5691 41.8704 19.4984 42.2351 19.381 42.5855C19.068 42.2403 18.7032 41.9464 18.3 41.7147C17.1764 41.0782 15.8156 41.1097 14.9109 41.7962C14.6517 42.0016 14.4378 42.2588 14.2825 42.5517C14.1273 42.8447 14.0341 43.167 14.0087 43.4986C13.9778 43.7787 14.0066 44.0624 14.093 44.3311C14.1795 44.5997 14.3217 44.8471 14.5102 45.0567C15.4044 46.0138 17.0237 45.7978 18.0692 45.0335C18.6763 44.5931 19.1683 44.0116 19.5037 43.3382C19.7644 43.7088 19.9871 44.1049 20.1682 44.5205C20.2956 44.8089 20.4049 45.1049 20.4955 45.4069C18.9743 45.7649 17.4461 46.7538 17.0155 48.3705C16.8949 48.7283 16.9101 49.1189 17.0584 49.4674C17.3475 50.0295 18.0269 50.2077 18.5849 50.1367C19.7038 49.9918 20.6883 49.0189 20.9845 47.7695C21.1349 47.09 21.1283 46.3841 20.9652 45.7061L21.2269 45.672C22.4137 45.5082 23.6229 45.7495 24.661 46.3575C25.2017 46.693 25.6532 47.1561 25.9762 47.7063C24.9414 48.0986 24.0346 48.769 23.354 49.6447C22.8607 50.2859 22.4948 51.2747 23.0719 51.9591C23.5191 52.484 24.2815 52.4742 24.799 52.3076C26.0036 51.917 26.8722 50.5966 26.8229 49.2363C26.8076 48.7879 26.709 48.346 26.532 47.9334C27.3691 47.6744 28.2557 47.6161 29.1211 47.7631C29.8829 47.87 30.5906 48.2232 31.1375 48.7693C31.1932 48.8288 31.2452 48.8918 31.2933 48.9577C30.0395 49.2123 28.5452 49.9871 28.0941 51.4156C27.9341 51.9159 27.9272 52.5988 28.3856 53.008C28.6948 53.2551 29.0882 53.3695 29.4797 53.326C29.9462 53.3021 30.3992 53.1635 30.7991 52.9224C31.1989 52.6813 31.5335 52.345 31.7736 51.943C32.0136 51.541 32.1518 51.0855 32.176 50.6163C32.2002 50.1471 32.1098 49.6785 31.9126 49.2515C32.6884 49.1553 33.4763 49.2198 34.2279 49.4411C34.9796 49.6624 35.679 50.0358 36.2832 50.5383C36.7374 50.9497 37.1063 51.4474 37.3684 52.0024C37.6305 52.5575 37.7806 53.1588 37.8101 53.7716L38.1954 53.6741C38.1565 53.0225 37.9899 52.3844 37.705 51.7966C37.4202 51.2089 37.0227 50.6831 36.5357 50.2495ZM17.8497 44.7059C16.9393 45.3722 15.5501 45.5685 14.7972 44.7767C14.6458 44.6074 14.532 44.4076 14.4635 44.1908C14.395 43.974 14.3734 43.7452 14.4001 43.5198C14.4206 43.2415 14.4981 42.9708 14.6277 42.7246C14.7573 42.4784 14.9363 42.262 15.1533 42.0891C15.5797 41.7822 16.0941 41.623 16.6195 41.6354C17.1455 41.6382 17.6628 41.7759 18.1224 42.0355C18.545 42.2823 18.9209 42.6027 19.2323 42.9816C18.9285 43.668 18.452 44.2622 17.8497 44.7059ZM20.6074 47.6615C20.3453 48.7605 19.49 49.6151 18.5293 49.7372C18.118 49.7912 17.5883 49.6712 17.3946 49.283C17.2949 49.0168 17.2942 48.7239 17.3926 48.4582C17.7833 46.9919 19.1938 46.0954 20.597 45.766C20.744 46.3895 20.7475 47.0378 20.6074 47.6615ZM24.6715 51.9196C24.2316 52.0603 23.6562 52.0444 23.3532 51.6877C22.9522 51.2209 23.215 50.4344 23.6365 49.8653C24.285 49.0363 25.1484 48.4037 26.1324 48.0366C26.3048 48.411 26.4034 48.8152 26.4229 49.2267C26.4747 50.422 25.718 51.5806 24.6715 51.9196ZM31.5926 51.3778C31.4084 51.8093 31.1099 52.1812 30.7297 52.4532C30.3494 52.7252 29.9019 52.8869 29.4356 52.9208C29.1458 52.9546 28.8535 52.8763 28.6179 52.7018C28.3007 52.4116 28.3282 51.8821 28.4424 51.5149C28.845 50.2396 30.2158 49.5426 31.3661 49.311L31.4897 49.2881C31.6495 49.6111 31.7411 49.9635 31.7588 50.3232C31.7765 50.6828 31.7199 51.0419 31.5926 51.3778Z" fill="var(--fill-0, #412945)"/>
<path id="Vector_9" d="M24.3166 37.0023L22.8911 30.4557C22.7893 29.9904 22.5148 29.5809 22.1237 29.311C21.7327 29.0411 21.2546 28.9312 20.7873 29.0037C20.4216 29.0594 20.068 29.1759 19.7408 29.3484C19.4535 29.5069 19.1833 29.6364 18.9563 29.7516C18.6052 29.9215 18.2026 29.9516 17.829 29.8359C17.4554 29.7202 17.1382 29.4672 16.9408 29.1275C16.2706 27.9683 15.4942 25.7584 15.7095 22.0026C15.9694 17.6074 16.2498 15.7415 16.7224 14.8513C16.8422 14.628 17.0227 14.4437 17.2428 14.3197C17.463 14.1958 17.7139 14.1374 17.9665 14.1511C18.6229 14.189 19.281 14.1732 19.9343 14.1038C20.3857 14.0506 20.8014 13.8336 21.1036 13.4933C21.4058 13.1531 21.5736 12.713 21.5756 12.2557L21.5952 4.85312C21.5985 4.38156 21.4243 3.92534 21.1075 3.57615C20.7907 3.22697 20.3548 3.01071 19.8874 2.97085C17.85 2.80386 14.1045 3.00606 11.6912 6.88094C8.05133 12.7294 8.48518 28.0392 11.041 34.4033C12.6069 38.3022 18.6903 41.1646 23.2629 39.1181C23.6545 38.9426 23.9733 38.6362 24.1653 38.2507C24.3573 37.8652 24.4107 37.4242 24.3166 37.0023Z" fill="var(--fill-0, #96ADF0)"/>
<path id="Vector_10" d="M18.8962 14.3241C18.846 14.324 18.7978 14.3042 18.7617 14.269C18.7256 14.2338 18.7046 14.1859 18.703 14.1355L18.5003 2.83432C18.5001 2.78312 18.5198 2.73397 18.5552 2.69731C18.5906 2.66065 18.6388 2.63938 18.6897 2.63799C18.7406 2.63809 18.7895 2.65815 18.8262 2.6939C18.8628 2.72965 18.8842 2.77828 18.8858 2.82947L19.0884 14.1162C19.0886 14.1671 19.0688 14.2159 19.0333 14.2521C18.9979 14.2883 18.9496 14.309 18.899 14.3096L18.8962 14.3241Z" fill="var(--fill-0, #412945)"/>
<path id="Vector_11" d="M22.0332 39.8607C21.9898 39.8604 21.9476 39.8454 21.9136 39.818C21.8796 39.7906 21.8557 39.7525 21.8459 39.7098L19.5538 29.373C19.5483 29.3483 19.5477 29.3227 19.552 29.2978C19.5564 29.2729 19.5657 29.2491 19.5793 29.2279C19.5929 29.2067 19.6105 29.1884 19.6313 29.1741C19.652 29.1598 19.6754 29.1499 19.7 29.1448C19.7247 29.1393 19.7503 29.1388 19.7753 29.1433C19.8003 29.1477 19.8242 29.1571 19.8456 29.1709C19.867 29.1846 19.8855 29.2025 19.9001 29.2234C19.9147 29.2444 19.925 29.268 19.9305 29.2929L22.2225 39.621C22.2281 39.6459 22.2288 39.6717 22.2244 39.6968C22.2201 39.7219 22.2109 39.7458 22.1973 39.7673C22.1837 39.7888 22.166 39.8073 22.1453 39.8219C22.1245 39.8365 22.1011 39.8467 22.0764 39.8522L22.0332 39.8607Z" fill="var(--fill-0, #412945)"/>
<path id="Vector_12" d="M11.2796 32.7414C11.3811 33.361 11.5766 33.9618 11.8593 34.5225C12.0447 34.9582 12.3684 35.3204 12.7796 35.5521C13.203 35.7499 13.7954 35.6414 13.9958 35.2194C14.082 35.0079 14.1015 34.7746 14.0518 34.551C13.9613 34.0328 13.707 33.5547 13.5878 33.0422C13.539 32.6625 13.4543 32.2883 13.3348 31.9245C13.1063 31.4117 12.3713 30.8543 11.7819 31.0526C11.1523 31.2507 11.1892 32.2174 11.2796 32.7414Z" fill="var(--fill-0, #F7EDE5)"/>
<path id="Vector_13" d="M12.6055 28.4119C12.6967 28.5816 12.7359 28.7744 12.7182 28.966C12.7005 29.1575 12.6266 29.3392 12.5059 29.488C12.3852 29.6368 12.2232 29.746 12.0403 29.8018C11.8574 29.8576 11.6619 29.8575 11.4786 29.8014C11.2953 29.7454 11.1323 29.6359 11.0104 29.4869C10.8885 29.338 10.8132 29.1562 10.7938 28.9646C10.7745 28.773 10.8122 28.5802 10.902 28.4107C10.9918 28.2412 11.1297 28.1025 11.2983 28.0123C11.4097 27.9518 11.532 27.9142 11.6582 27.9015C11.7843 27.8889 11.9119 27.9015 12.0334 27.9387C12.1549 27.9758 12.268 28.0368 12.3662 28.118C12.4644 28.1992 12.5458 28.2991 12.6055 28.4119Z" fill="var(--fill-0, #F7EDE5)"/>
<path id="Vector_14" d="M20.0537 6.76765C20.0299 7.0381 20.0305 7.31028 20.0556 7.58084C20.0703 7.71598 20.1299 7.84242 20.2246 7.93977C20.3193 8.03712 20.4436 8.09972 20.5777 8.11747C20.8941 8.11824 21.089 7.77145 21.1688 7.46199C21.4019 6.49125 21.3311 5.47034 20.9661 4.53866C20.8215 4.21709 20.389 3.84562 20.0357 4.08785C19.6824 4.33009 19.7501 4.95534 19.7999 5.32009C19.9257 5.79457 20.0106 6.27889 20.0537 6.76765Z" fill="var(--fill-0, #F7EDE5)"/>
<path id="Vector_15" d="M21.081 9.02231C21.1209 9.10142 21.1369 9.19048 21.1269 9.27839C21.1169 9.3663 21.0814 9.44919 21.0248 9.51675C20.9683 9.58431 20.8931 9.63355 20.8087 9.65835C20.7244 9.68315 20.6345 9.68241 20.5503 9.65622C20.4661 9.63004 20.3912 9.57956 20.3351 9.51108C20.279 9.44259 20.2441 9.35912 20.2347 9.27105C20.2253 9.18298 20.2418 9.09419 20.2822 9.01574C20.3226 8.93729 20.3851 8.87263 20.462 8.82982C20.5147 8.80042 20.5729 8.78207 20.633 8.77587C20.693 8.76967 20.7538 8.77573 20.8116 8.79371C20.8694 8.81169 20.9231 8.8412 20.9694 8.88048C21.0157 8.91976 21.0537 8.968 21.081 9.02231Z" fill="var(--fill-0, #F7EDE5)"/>
<path id="Vector_16" d="M22.9343 3.93308L28.0205 0.108069C28.063 0.0724008 28.1123 0.0458452 28.1655 0.0300226C28.2186 0.0142 28.2744 0.00944224 28.3295 0.0160375C28.3846 0.0226327 28.4379 0.0404441 28.4861 0.068385C28.5342 0.096326 28.5763 0.133812 28.6096 0.178556C28.643 0.223301 28.667 0.274367 28.6801 0.328641C28.6933 0.382916 28.6953 0.43926 28.6861 0.494242C28.6769 0.549224 28.6566 0.60169 28.6266 0.648441C28.5965 0.695192 28.5573 0.735252 28.5112 0.766173L28.4883 0.78348L23.1537 4.24326C23.1332 4.25765 23.11 4.26781 23.0855 4.27317C23.061 4.27852 23.0356 4.27897 23.0109 4.27447C22.961 4.2654 22.9166 4.23676 22.8875 4.19486C22.8584 4.15296 22.847 4.10123 22.8557 4.05105C22.8645 4.00087 22.8928 3.95635 22.9343 3.92729L22.9343 3.93308Z" fill="var(--fill-0, #412945)"/>
<path id="Vector_17" d="M23.5948 5.85077L30.8494 3.97861C30.9196 3.95978 30.9929 3.95506 31.0651 3.96473C31.1372 3.9744 31.2069 3.99827 31.27 4.03497C31.3332 4.07167 31.3886 4.12048 31.4331 4.17862C31.4775 4.23676 31.5103 4.30309 31.5293 4.37382C31.5484 4.44455 31.5534 4.51831 31.5442 4.59086C31.5349 4.66342 31.5115 4.73335 31.4753 4.79668C31.4391 4.86002 31.3909 4.9155 31.3333 4.95997C31.2757 5.00443 31.2099 5.03701 31.1397 5.05584L31.0879 5.05572L23.6735 6.23296C23.6236 6.24038 23.5727 6.22781 23.5317 6.19795C23.4908 6.1681 23.463 6.12333 23.4544 6.07327C23.4461 6.02513 23.4559 5.97571 23.4819 5.93459C23.5078 5.89348 23.5481 5.8636 23.5948 5.85077Z" fill="var(--fill-0, #412945)"/>
<path id="Vector_18" d="M23.6409 7.61552L29.2133 7.33961C29.3536 7.33266 29.4913 7.3821 29.5959 7.47705C29.7006 7.57201 29.7636 7.7047 29.7712 7.84594C29.7788 7.98718 29.7303 8.1254 29.6364 8.23019C29.5425 8.33497 29.4109 8.39775 29.2705 8.4047L29.2072 8.40455L23.6246 8.00037C23.5994 7.99884 23.5747 7.99227 23.552 7.98105C23.5293 7.96982 23.509 7.95417 23.4923 7.93499C23.4757 7.91582 23.463 7.89352 23.455 7.86939C23.4469 7.84526 23.4438 7.81979 23.4457 7.79446C23.4499 7.74535 23.4723 7.69971 23.5084 7.66656C23.5446 7.63342 23.5919 7.61521 23.6409 7.61552Z" fill="var(--fill-0, #412945)"/>
<path id="Vector_19" d="M40.8644 3.82511L39.0903 4.27515L38.6429 6.05672C38.6252 6.1271 38.5847 6.18943 38.5278 6.23389C38.4708 6.27834 38.4007 6.30238 38.3285 6.30221C38.2562 6.30203 38.1859 6.27765 38.1288 6.23292C38.0716 6.18819 38.0308 6.12566 38.0128 6.05519L37.5539 4.27144L35.7805 3.81281C35.711 3.79363 35.6496 3.75201 35.6058 3.69438C35.5619 3.63675 35.538 3.56629 35.5379 3.49389C35.5377 3.42149 35.5612 3.35115 35.6048 3.29373C35.6484 3.23631 35.7096 3.19499 35.779 3.17615L37.5502 2.72609L38.0005 0.944532C38.0182 0.874153 38.0587 0.811815 38.1156 0.76736C38.1726 0.722905 38.2427 0.698866 38.315 0.699041C38.3872 0.699215 38.4575 0.723594 38.5146 0.768325C38.5718 0.813057 38.6126 0.875591 38.6306 0.946057L39.0866 2.7298L40.8629 3.18845C40.9324 3.20762 40.9938 3.24924 41.0377 3.30687C41.0815 3.3645 41.1054 3.43495 41.1056 3.50736C41.1057 3.57976 41.0822 3.6501 41.0386 3.70752C40.9951 3.76494 40.9339 3.80626 40.8644 3.82511Z" fill="var(--fill-0, #E5FF7D)"/>
<path id="Vector_20" d="M5.33626 33.631L3.56504 34.084L3.12048 35.8598C3.1028 35.9301 3.0623 35.9925 3.00536 36.0369C2.94841 36.0814 2.87828 36.1054 2.80603 36.1053C2.73378 36.1051 2.66352 36.0807 2.60636 36.036C2.5492 35.9912 2.50839 35.9287 2.49038 35.8582L2.0315 34.0745L0.252336 33.6187C0.182278 33.6006 0.120114 33.5596 0.0756409 33.5021C0.0311679 33.4446 0.00691641 33.3739 0.00674162 33.3013C0.00656683 33.2286 0.0304787 33.158 0.0746757 33.1008C0.118873 33.0435 0.18084 33.0027 0.250811 32.985L2.02205 32.532L2.47234 30.7505C2.49001 30.6801 2.53052 30.6177 2.58746 30.5733C2.6444 30.5288 2.71455 30.5048 2.7868 30.505C2.85905 30.5051 2.9293 30.5295 2.98646 30.5743C3.04362 30.619 3.08442 30.6815 3.10243 30.752L3.56132 32.5357L5.33473 32.9973C5.40479 33.0154 5.46697 33.0564 5.51145 33.1139C5.55592 33.1714 5.58015 33.2421 5.58033 33.3147C5.5805 33.3874 5.55661 33.458 5.51241 33.5152C5.46821 33.5725 5.40623 33.6133 5.33626 33.631Z" fill="var(--fill-0, white)"/>
<path id="Vector_21" d="M28.745 22.834L26.9738 23.2841L26.5264 25.0656C26.5077 25.1354 26.4666 25.197 26.4095 25.2408C26.3524 25.2847 26.2825 25.3083 26.2105 25.3081C26.1385 25.308 26.0685 25.284 26.0112 25.2399C25.9539 25.1958 25.9125 25.134 25.8934 25.0641L25.4374 23.2804L23.664 22.8217C23.5939 22.8036 23.5318 22.7626 23.4873 22.7051C23.4428 22.6476 23.4186 22.5769 23.4184 22.5042C23.4182 22.4316 23.4421 22.361 23.4863 22.3037C23.5305 22.2465 23.5925 22.2057 23.6625 22.1879L25.4337 21.735L25.8811 19.9534C25.8999 19.8836 25.9409 19.822 25.998 19.7782C26.0551 19.7344 26.1251 19.7107 26.197 19.7109C26.269 19.7111 26.3391 19.7351 26.3964 19.7792C26.4537 19.8233 26.495 19.8851 26.5141 19.955L26.9701 21.7387L28.7435 22.2002C28.8136 22.2184 28.8758 22.2594 28.9202 22.3169C28.9647 22.3744 28.9889 22.445 28.9891 22.5177C28.9893 22.5904 28.9654 22.6609 28.9212 22.7182C28.877 22.7755 28.815 22.8162 28.745 22.834Z" fill="var(--fill-0, #E5FF7D)"/>
</g>
</svg>
