<svg preserveAspectRatio="none" width="100%" height="100%" overflow="visible" style="display: block;" viewBox="0 0 68.7694 48" fill="none" xmlns="http://www.w3.org/2000/svg">
<g id="Group 19">
<path id="Vector" d="M62.6083 28.0157C63.75 27.4996 64.7198 26.667 65.4027 25.6165C66.0855 24.566 66.4529 23.3418 66.4611 22.0889C66.4406 21.1269 66.2134 20.1806 65.7949 19.3142C65.3764 18.4478 64.7764 17.6816 64.0356 17.0675C63.2948 16.4535 62.4305 16.006 61.5015 15.7555C60.5725 15.5049 59.6004 15.4572 58.6514 15.6155C59.3802 14.5597 59.7679 13.3059 59.7621 12.023C59.7621 8.7776 57.4018 6.13961 54.4775 6.13961C53.3021 6.15011 52.1693 6.58109 51.2841 7.35448C51.2841 7.28506 51.2841 7.22431 51.2841 7.15489C51.2841 3.20662 47.2231 0.00461765 42.2161 0.00461765C40.7304 -0.0411752 39.2539 0.254133 37.9001 0.867868C36.5463 1.4816 35.3511 2.39743 34.4064 3.54504C33.5165 2.607 32.4374 1.86889 31.2405 1.37968C30.0437 0.89047 28.7565 0.661352 27.4643 0.707495C23.6115 0.707495 20.3922 2.6773 19.5071 5.32394C18.7542 5.08809 17.9704 4.96525 17.1815 4.95948C13.2592 4.95948 10.0833 7.74497 10.0833 11.1813C10.0848 11.9815 10.2594 12.7718 10.5952 13.4982C6.25646 14.0188 2.92432 17.1774 2.92432 20.9955C2.94678 22.0952 3.22415 23.1746 3.73461 24.1488C4.24507 25.1231 4.97468 25.9655 5.86601 26.6099C4.27232 26.8589 2.81508 27.6551 1.74461 28.8618C0.674153 30.0684 0.057284 31.6102 0 33.2222C0 36.9709 3.34083 40.008 7.47134 40.008C8.27421 40.0068 9.07247 39.8869 9.84028 39.6522C10.2177 41.4769 11.2163 43.1142 12.6657 44.2851C14.1151 45.456 15.9257 46.0881 17.7889 46.0736C19.8716 46.0795 21.8775 45.2877 23.3946 43.8608C24.5834 46.2298 28.9569 48 34.1721 48C39.5695 48 44.0645 46.1083 45.0624 43.6092C46.6373 45.0447 48.6933 45.8374 50.8243 45.8306C52.6464 45.8502 54.4249 45.2731 55.8883 44.1873C57.3517 43.1015 58.4196 41.5667 58.929 39.8171C59.5254 39.9183 60.1291 39.9706 60.734 39.9733C65.1682 39.9733 68.7694 37.2485 68.7694 33.899C68.7347 31.0528 66.1227 28.6665 62.6083 28.0157Z" fill="var(--fill-0, #F097DD)"/>
<path id="Vector_2" d="M22.8825 44.7803C25.0345 43.4526 25.4858 40.0337 24.1321 37.9945C23.8284 37.5259 23.0734 37.9945 23.3858 38.4283C24.4792 40.0684 24.2015 42.9406 22.4399 44.034C21.9714 44.3204 22.44 45.0753 22.8825 44.7803Z" fill="var(--fill-0, #0F2436)"/>
<path id="Vector_3" d="M24.7735 41.2661C24.8444 41.1894 24.9197 41.117 24.9991 41.0491L25.1206 40.945L25.1813 40.9016C25.2681 40.8235 25.1379 40.9016 25.1813 40.9016C25.3522 40.7785 25.5321 40.6683 25.7194 40.5718L25.8582 40.5371H25.9277L26.2227 40.4417H26.3789H26.457C26.5726 40.4328 26.6886 40.4328 26.8042 40.4417C26.9185 40.4394 27.0276 40.393 27.1085 40.3121C27.1894 40.2312 27.2358 40.1221 27.2381 40.0078C27.2358 39.8934 27.1894 39.7843 27.1085 39.7034C27.0276 39.6225 26.9185 39.5761 26.8042 39.5739C25.7891 39.6129 24.831 40.0529 24.14 40.7974C24.0599 40.88 24.0151 40.9905 24.0151 41.1055C24.0151 41.2205 24.0599 41.331 24.14 41.4136C24.2236 41.4917 24.3337 41.5351 24.448 41.5351C24.5624 41.5351 24.6725 41.4917 24.7561 41.4136L24.7735 41.2661Z" fill="var(--fill-0, #0F2436)"/>
<path id="Vector_4" d="M11.1856 35.3824C9.52817 36.3629 9.09426 38.6104 9.52814 40.3546C9.6583 40.9013 10.5 40.667 10.3959 40.129C10.0575 38.7492 10.3959 36.9009 11.6541 36.1286C11.741 36.0655 11.8014 35.9723 11.8235 35.8672C11.8457 35.7621 11.828 35.6525 11.774 35.5597C11.7201 35.4668 11.6336 35.3973 11.5313 35.3645C11.429 35.3318 11.3181 35.3381 11.2203 35.3824H11.1856Z" fill="var(--fill-0, #0F2436)"/>
<path id="Vector_5" d="M45.2517 44.1386C45.8722 42.7351 45.9251 41.1458 45.3993 39.7042C45.2257 39.1749 44.384 39.4005 44.5315 39.9298C44.9954 41.1501 44.9705 42.5023 44.462 43.7047C44.4073 43.8043 44.393 43.9211 44.4221 44.031C44.4512 44.1408 44.5214 44.2353 44.6182 44.2948C44.7187 44.3521 44.8376 44.3679 44.9495 44.3387C45.0614 44.3095 45.1574 44.2377 45.217 44.1386H45.2517Z" fill="var(--fill-0, #0F2436)"/>
<path id="Vector_6" d="M59.1882 39.4263H58.7717C58.8325 39.4263 58.8238 39.4263 58.7717 39.4263L58.5721 39.3742H58.4767H58.4159H58.3552L58.2511 39.3222L58.0862 39.218L58.008 39.1573L57.8605 39.0184L57.7216 38.8622L57.6523 38.7841C57.5655 38.6713 57.4874 38.5498 57.4092 38.4283C57.2539 38.1756 57.112 37.9149 56.984 37.6473C56.9562 37.5977 56.9186 37.5541 56.8736 37.5192C56.8286 37.4844 56.777 37.4589 56.722 37.4443C56.667 37.4298 56.6096 37.4264 56.5533 37.4344C56.4969 37.4425 56.4427 37.4617 56.3939 37.4911C56.2971 37.5506 56.2269 37.645 56.1978 37.7549C56.1687 37.8648 56.183 37.9816 56.2377 38.0812C56.4975 38.679 56.8619 39.2256 57.3138 39.6953C57.5616 39.94 57.8581 40.1298 58.184 40.2524C58.5099 40.375 58.858 40.4277 59.2056 40.4069C59.32 40.4047 59.4291 40.3583 59.51 40.2774C59.5909 40.1965 59.6373 40.0874 59.6395 39.973C59.6373 39.8586 59.5909 39.7495 59.51 39.6686C59.4291 39.5878 59.32 39.5413 59.2056 39.5391L59.1882 39.4263Z" fill="var(--fill-0, #0F2436)"/>
<path id="Vector_7" d="M63.8389 27.9208C62.6625 27.4627 61.3787 27.3542 60.1421 27.6084C60.0271 27.6395 59.929 27.715 59.8696 27.8183C59.8102 27.9217 59.7943 28.0443 59.8254 28.1594C59.8565 28.2745 59.932 28.3725 60.0353 28.4319C60.1386 28.4913 60.2614 28.5073 60.3765 28.4762C61.3835 28.2642 62.4299 28.3393 63.3963 28.6931C63.4972 28.7483 63.6154 28.7629 63.7267 28.7338C63.8379 28.7048 63.934 28.6344 63.9951 28.5369C64.052 28.4378 64.0676 28.3203 64.0383 28.2098C64.0091 28.0993 63.9374 28.0048 63.8389 27.9468V27.9208Z" fill="var(--fill-0, #0F2436)"/>
<path id="Vector_8" d="M58.627 15.1903C57.5436 15.425 56.5607 15.9923 55.8155 16.813C55.0954 17.6766 54.6085 18.7102 54.401 19.8154C54.3741 19.9257 54.3905 20.0422 54.4471 20.1408C54.5036 20.2393 54.5959 20.3123 54.7047 20.3447C54.8163 20.3743 54.935 20.359 55.0355 20.3023C55.136 20.2455 55.2104 20.1518 55.2427 20.041C55.406 19.0847 55.8157 18.1874 56.4316 17.4378C57.0652 16.7213 57.9152 16.2308 58.8526 16.0407C59.3993 15.9105 59.165 15.0775 58.627 15.1729V15.1903Z" fill="var(--fill-0, #0F2436)"/>
<path id="Vector_9" d="M52.3167 15.2948C52.6747 15.9588 53.1857 16.5279 53.8074 16.955C54.4292 17.3821 55.1438 17.6548 55.892 17.7506C56.007 17.7506 56.1174 17.7049 56.1988 17.6236C56.2802 17.5422 56.3259 17.4318 56.3259 17.3167C56.3236 17.2024 56.2772 17.0933 56.1963 17.0124C56.1154 16.9315 56.0063 16.8851 55.892 16.8829C55.4568 16.8486 55.0352 16.715 54.6597 16.4924C54.515 16.4089 54.3759 16.3162 54.2432 16.2147C53.7726 15.837 53.373 15.3786 53.063 14.8609C53.005 14.7624 52.9106 14.6908 52.8001 14.6615C52.6896 14.6323 52.572 14.6478 52.4729 14.7047C52.4233 14.7326 52.3798 14.7701 52.3449 14.8152C52.31 14.8602 52.2846 14.9117 52.27 14.9667C52.2554 15.0218 52.2521 15.0792 52.2601 15.1355C52.2681 15.1919 52.2874 15.2461 52.3167 15.2948Z" fill="var(--fill-0, #0F2436)"/>
<path id="Vector_10" d="M50.8306 6.98933C50.645 8.40575 49.9474 9.70526 48.8694 10.6427C48.4789 11.0419 49.095 11.658 49.4855 11.2588C50.0691 10.6903 50.5766 10.0485 50.9955 9.34969C51.4045 8.62589 51.6449 7.81902 51.6984 6.98933C51.6984 6.87426 51.6527 6.7639 51.5713 6.68253C51.4899 6.60116 51.3796 6.55544 51.2645 6.55544C51.1494 6.55544 51.0391 6.60116 50.9577 6.68253C50.8763 6.7639 50.8306 6.87426 50.8306 6.98933Z" fill="var(--fill-0, #0F2436)"/>
<path id="Vector_11" d="M34.2661 3.0242C33.8326 3.6649 33.5782 4.40986 33.5294 5.18189C33.4806 5.95393 33.639 6.72496 33.9884 7.41517C34.0162 7.46481 34.0538 7.50837 34.0988 7.54324C34.1438 7.5781 34.1954 7.60356 34.2504 7.61813C34.3054 7.6327 34.3628 7.63606 34.4191 7.62803C34.4755 7.62 34.5297 7.60074 34.5785 7.57139C34.677 7.51343 34.7486 7.41893 34.7779 7.30844C34.8071 7.19795 34.7916 7.08038 34.7347 6.98128C34.4641 6.42329 34.348 5.80303 34.3983 5.18497C34.4487 4.5669 34.6637 3.9736 35.021 3.46678C35.078 3.36768 35.0935 3.2501 35.0643 3.13961C35.035 3.02913 34.9634 2.93466 34.8648 2.8767C34.765 2.82073 34.6475 2.80481 34.5363 2.83221C34.4251 2.8596 34.3285 2.92823 34.2661 3.0242Z" fill="var(--fill-0, #0F2436)"/>
<path id="Vector_12" d="M18.9163 5.56668C19.2362 5.63939 19.5339 5.78823 19.7841 6.00057C20.0432 6.18621 20.2741 6.40833 20.4696 6.66006C20.5824 6.80758 20.7039 6.94644 20.7907 7.0766C20.8704 7.19651 20.9374 7.32449 20.9903 7.45843C21.1008 7.78911 21.1821 8.12883 21.2332 8.47372C21.2632 8.58879 21.3376 8.68728 21.4401 8.74749C21.5426 8.80771 21.6649 8.82474 21.7799 8.79482C21.895 8.7649 21.9935 8.69049 22.0537 8.58796C22.1139 8.48544 22.1309 8.36319 22.101 8.24811C22.0392 7.87085 21.9463 7.49933 21.8233 7.13736C21.6384 6.74873 21.402 6.38677 21.1204 6.06129C20.8612 5.72558 20.5508 5.43274 20.2006 5.19351C19.8253 4.91077 19.3825 4.73128 18.9163 4.67286C18.8012 4.67286 18.6908 4.71856 18.6094 4.79993C18.5281 4.8813 18.4824 4.99168 18.4824 5.10675C18.4846 5.22113 18.531 5.3302 18.6119 5.41109C18.6928 5.49198 18.8019 5.53842 18.9163 5.54064V5.56668Z" fill="var(--fill-0, #0F2436)"/>
<path id="Vector_13" d="M9.91897 12.9508C10.0755 13.5503 10.373 14.1037 10.7868 14.5649C11.241 14.9885 11.797 15.2875 12.4009 15.4327C12.4579 15.4481 12.5173 15.4521 12.5758 15.4445C12.6344 15.4369 12.6909 15.4179 12.7421 15.3884C12.7932 15.359 12.8381 15.3198 12.8741 15.2731C12.9101 15.2263 12.9366 15.1729 12.952 15.1159C12.9673 15.059 12.9714 14.9995 12.9638 14.941C12.9562 14.8825 12.9371 14.826 12.9077 14.7748C12.8783 14.7237 12.8391 14.6788 12.7923 14.6428C12.7456 14.6067 12.6922 14.5803 12.6352 14.5649L12.2187 14.426H12.1579H12.0798L11.8976 14.3306C11.7854 14.2693 11.6781 14.1997 11.5765 14.1223C11.6546 14.183 11.5157 14.0789 11.5765 14.1223L11.5071 14.0615L11.3682 13.9314L11.2554 13.8099L11.186 13.7231C11.2467 13.8099 11.1252 13.6537 11.186 13.7231L10.9777 13.3933L10.8909 13.2198C10.8876 13.1938 10.8876 13.1676 10.8909 13.1417C10.8909 12.9941 10.8909 13.1417 10.8909 13.1417C10.8909 13.0028 10.7868 12.8727 10.7434 12.7338C10.7135 12.6187 10.639 12.5203 10.5365 12.46C10.434 12.3998 10.3118 12.3828 10.1967 12.4127C10.0816 12.4426 9.98311 12.517 9.92289 12.6196C9.86268 12.7221 9.84567 12.8444 9.87559 12.9594L9.91897 12.9508Z" fill="var(--fill-0, #0F2436)"/>
<path id="Vector_14" d="M5.10067 26.6008C5.64724 27.0647 6.30639 27.3763 7.01176 27.5043C7.71713 27.6323 8.44381 27.5721 9.1185 27.3298C9.22928 27.2974 9.32303 27.223 9.37977 27.1225C9.43651 27.022 9.45172 26.9033 9.4222 26.7917C9.39173 26.6816 9.31903 26.5879 9.21992 26.5311C9.12082 26.4742 9.00331 26.4587 8.89286 26.488C8.36674 26.6953 7.79468 26.7579 7.23617 26.6694C6.67766 26.5809 6.15303 26.3445 5.71676 25.9847C5.63318 25.9066 5.52309 25.8632 5.40872 25.8632C5.29434 25.8632 5.18425 25.9066 5.10067 25.9847C5.06 26.025 5.02773 26.073 5.0057 26.1259C4.98368 26.1788 4.97234 26.2355 4.97234 26.2928C4.97234 26.35 4.98368 26.4068 5.0057 26.4596C5.02773 26.5125 5.06 26.5605 5.10067 26.6008Z" fill="var(--fill-0, #0F2436)"/>
<path id="Vector_15" d="M10.8908 27.5206C12.0802 28.0324 13.095 28.8792 13.8115 29.9578C14.528 31.0364 14.9152 32.3001 14.9259 33.5949C14.9259 33.7099 14.9716 33.8203 15.053 33.9017C15.1343 33.983 15.2447 34.0287 15.3598 34.0287C15.4749 34.0287 15.5852 33.983 15.6666 33.9017C15.7479 33.8203 15.7937 33.7099 15.7937 33.5949C15.7955 32.1393 15.3751 30.7145 14.5834 29.4931C13.7918 28.2718 12.6628 27.3062 11.3334 26.7136C10.8301 26.4793 10.3875 27.2256 10.8908 27.4599V27.5206Z" fill="var(--fill-0, #0F2436)"/>
<path id="Vector_16" d="M14.6297 29.8298V29.7083C14.6297 29.7083 14.6991 29.5781 14.7425 29.5174V29.4566C14.7425 29.5 14.7425 29.5 14.7425 29.4566L14.8206 29.3698L14.9941 29.2137L15.0636 29.1529L15.1677 29.0748L15.3846 28.9446C15.5582 28.8405 15.7317 28.7537 15.914 28.6669H16.0008L16.1223 28.6149L16.3913 28.5194L16.9293 28.3545C17.237 28.2673 17.55 28.2007 17.8665 28.155C17.9216 28.1409 17.9734 28.1159 18.0188 28.0815C18.0641 28.0471 18.102 28.0039 18.1303 27.9545C18.1586 27.9051 18.1768 27.8506 18.1836 27.7941C18.1905 27.7376 18.1859 27.6803 18.1702 27.6256C18.1398 27.5155 18.0671 27.4218 17.968 27.365C17.8689 27.3081 17.7514 27.2926 17.6409 27.3219C16.8626 27.4314 16.105 27.6566 15.3933 27.9901C15.0053 28.1299 14.6527 28.3531 14.3604 28.644C14.068 28.9348 13.843 29.2863 13.7012 29.6736C13.6701 29.7886 13.686 29.9114 13.7454 30.0147C13.8048 30.118 13.9028 30.1935 14.0179 30.2246C14.133 30.2557 14.2557 30.2398 14.359 30.1804C14.4624 30.121 14.5379 30.0229 14.5689 29.9079L14.6297 29.8298Z" fill="var(--fill-0, #0F2436)"/>
<path id="Vector_17" d="M15.3151 18.6877C18.0832 19.1996 21.6758 17.1778 21.589 14.0973C21.589 13.5419 20.7212 13.5332 20.7212 14.0973C20.7906 16.579 17.7795 18.2625 15.5147 17.8546C14.968 17.7505 14.7337 18.5835 15.2804 18.7224L15.3151 18.6877Z" fill="var(--fill-0, #0F2436)"/>
<path id="Vector_18" d="M20.0012 17.3077C21.5198 17.811 22.2313 19.7113 22.24 21.1691C22.24 21.2842 22.2857 21.3946 22.3671 21.4759C22.4484 21.5573 22.5588 21.603 22.6739 21.603C22.7889 21.603 22.8993 21.5573 22.9806 21.4759C23.062 21.3946 23.1078 21.2842 23.1078 21.1691C23.1078 19.2861 22.1359 17.0994 20.2355 16.4746C19.6975 16.301 19.4719 17.1341 20.0012 17.3423V17.3077Z" fill="var(--fill-0, #0F2436)"/>
<path id="Vector_19" d="M31.8542 12.5612C29.9625 10.9559 26.3961 11.5026 25.2767 13.8021C25.0337 14.3054 25.78 14.748 26.023 14.2447C26.2839 13.8205 26.6291 13.4543 27.0371 13.1687C27.4451 12.8831 27.9073 12.6841 28.3952 12.5841C28.8831 12.4841 29.3863 12.4851 29.8738 12.5871C30.3612 12.6892 30.8227 12.8901 31.2295 13.1773C31.646 13.5418 32.2708 12.9257 31.8369 12.5612H31.8542Z" fill="var(--fill-0, #0F2436)"/>
<path id="Vector_20" d="M38.6268 16.7437C40.5532 15.0082 43.9807 14.9127 45.3605 17.3772C45.6295 17.8631 46.3845 17.4205 46.1068 16.9346C44.4407 13.9669 40.3449 14.0276 38.0106 16.1276C37.5941 16.5007 38.2102 17.1168 38.6268 16.7437Z" fill="var(--fill-0, #0F2436)"/>
<path id="Vector_21" d="M43.8566 15.208C43.8566 15.208 43.8566 15.0431 43.8566 15.1646C43.8566 15.1646 43.8566 15.1038 43.8566 15.0691C43.8728 14.9872 43.8931 14.9061 43.9174 14.8261C43.9174 14.748 43.9694 14.6612 44.0042 14.5831V14.5137C44.0208 14.4687 44.0411 14.4252 44.0649 14.3835C44.1457 14.2151 44.2385 14.0527 44.3426 13.8976C44.3426 13.8195 44.4381 13.7501 44.4901 13.672V13.6286L44.5856 13.5244C44.7046 13.3809 44.8353 13.2474 44.9762 13.1252L45.0976 13.0211L45.3319 12.8736L45.5663 12.7521L45.7051 12.7H45.8092H46.113C46.2281 12.7 46.3384 12.6543 46.4198 12.5729C46.5011 12.4915 46.5469 12.3812 46.5469 12.2661C46.5469 12.151 46.5011 12.0406 46.4198 11.9593C46.3384 11.8779 46.2281 11.8322 46.113 11.8322C45.6821 11.8506 45.2605 11.9635 44.8781 12.163C44.4956 12.3624 44.1617 12.6435 43.9 12.9864C43.3085 13.6197 42.9345 14.4254 42.8326 15.2861C42.8349 15.4005 42.8813 15.5095 42.9622 15.5904C43.0431 15.6713 43.1522 15.7178 43.2665 15.72C43.3816 15.72 43.492 15.6743 43.5734 15.5929C43.6548 15.5115 43.7004 15.4011 43.7004 15.2861L43.8566 15.208Z" fill="var(--fill-0, #0F2436)"/>
<path id="Vector_22" d="M28.0378 28.2322C29.9728 26.4966 33.3918 26.4099 34.7715 28.8656C34.8312 28.9624 34.9266 29.0319 35.0371 29.0592C35.1475 29.0864 35.2643 29.0691 35.3621 29.0111C35.46 28.953 35.5311 28.8589 35.5602 28.7489C35.5894 28.6389 35.5741 28.5219 35.5178 28.4231C33.8604 25.464 29.7646 25.5161 27.4303 27.616C27.0138 27.9892 27.6299 28.6053 28.0378 28.2322Z" fill="var(--fill-0, #0F2436)"/>
<path id="Vector_23" d="M33.2812 26.705C33.2812 26.705 33.2812 26.5315 33.2812 26.6616C33.2812 26.6616 33.2812 26.5922 33.2812 26.5575L33.3332 26.3232C33.3569 26.2404 33.3859 26.1593 33.42 26.0802V26.0021C33.42 26.0455 33.42 26.0455 33.42 26.0021L33.4808 25.8806C33.5597 25.7084 33.6525 25.543 33.7585 25.386L33.9147 25.169V25.1169L34.0102 25.0041C34.1315 24.8654 34.262 24.735 34.4007 24.6136L34.5221 24.5095L34.7478 24.3619L34.9821 24.2405L35.1209 24.1971H35.2251C35.2251 24.1971 35.3986 24.1971 35.2858 24.1971H35.5288C35.6439 24.1971 35.7542 24.1514 35.8356 24.07C35.917 23.9886 35.9627 23.8782 35.9627 23.7632C35.9605 23.6488 35.9141 23.5397 35.8332 23.4588C35.7523 23.3779 35.6432 23.3315 35.5288 23.3293C35.0983 23.3494 34.6773 23.4631 34.2951 23.6624C33.913 23.8617 33.5788 24.1419 33.3159 24.4834C32.7263 25.1206 32.3554 25.9293 32.2572 26.7918C32.2572 26.9069 32.3029 27.0173 32.3842 27.0986C32.4656 27.18 32.576 27.2257 32.6911 27.2257C32.8054 27.2235 32.9145 27.1771 32.9954 27.0962C33.0763 27.0153 33.1227 26.9062 33.125 26.7918L33.2812 26.705Z" fill="var(--fill-0, #0F2436)"/>
<path id="Vector_24" d="M46.685 23.9716C47.3705 23.2947 48.6027 23.2774 49.4965 23.3034C50.0698 23.2957 50.6383 23.4092 51.1647 23.6365C51.6911 23.8638 52.1635 24.1998 52.551 24.6224C52.9155 25.0389 53.5316 24.4228 53.1585 24.0063C52.691 23.504 52.1239 23.1049 51.4933 22.8344C50.8627 22.564 50.1826 22.4282 49.4965 22.4357C48.3511 22.4357 46.8933 22.5051 46.0255 23.3555C45.9438 23.4372 45.8979 23.548 45.8979 23.6635C45.8979 23.779 45.9438 23.8899 46.0255 23.9716C46.1072 24.0533 46.218 24.0992 46.3335 24.0992C46.4491 24.0992 46.5599 24.0533 46.6416 23.9716H46.685Z" fill="var(--fill-0, #0F2436)"/>
<path id="Vector_25" d="M47.3954 28.3372C47.0068 29.334 46.9164 30.4224 47.1351 31.4697C47.1904 32.2905 47.5603 33.0583 48.1677 33.6131C48.2681 33.6704 48.387 33.6862 48.4989 33.657C48.6108 33.6278 48.7069 33.556 48.7665 33.4569C48.8234 33.3578 48.8389 33.2402 48.8096 33.1297C48.7804 33.0192 48.7087 32.9248 48.6102 32.8668C48.3933 32.6713 48.2419 32.4138 48.1763 32.1292C48.0834 31.8102 48.011 31.4856 47.9594 31.1573C47.7961 30.2818 47.8895 29.3777 48.2285 28.5541C48.2607 28.4436 48.2477 28.3249 48.1923 28.224C48.137 28.1231 48.0439 28.0483 47.9334 28.0161C47.8219 27.9888 47.7042 28.005 47.6043 28.0614C47.5043 28.1178 47.4296 28.2103 47.3954 28.3198V28.3372Z" fill="var(--fill-0, #0F2436)"/>
<path id="Vector_26" d="M46.1973 37.0664C46.4621 35.8413 47.1775 34.7604 48.2018 34.038C48.6767 33.6699 49.222 33.403 49.8041 33.2538C50.3861 33.1045 50.9926 33.0761 51.586 33.1702C52.1327 33.2657 52.3669 32.4327 51.8116 32.3025C51.082 32.1821 50.3354 32.2156 49.6195 32.4009C48.9037 32.5862 48.2346 32.9192 47.6551 33.3785C46.4262 34.2591 45.5913 35.5862 45.3295 37.0751C45.2774 37.6305 46.1452 37.6305 46.1973 37.0751V37.0664Z" fill="var(--fill-0, #0F2436)"/>
<path id="Vector_27" d="M57.5575 27.0961C56.4469 27.477 55.5125 28.2485 54.9282 29.2669C54.344 30.2853 54.1497 31.4814 54.3815 32.6324C54.4857 33.1791 55.3274 32.9448 55.2493 32.4068C55.0749 31.4735 55.2418 30.5085 55.7198 29.6881C56.1977 28.8677 56.9547 28.2465 57.8525 27.9378C57.9095 27.9225 57.9629 27.896 58.0097 27.86C58.0564 27.824 58.0956 27.7791 58.125 27.7279C58.1545 27.6768 58.1735 27.6203 58.1811 27.5618C58.1887 27.5032 58.1846 27.4438 58.1693 27.3868C58.1539 27.3298 58.1274 27.2764 58.0914 27.2297C58.0554 27.1829 58.0105 27.1437 57.9594 27.1143C57.9082 27.0849 57.8518 27.0659 57.7932 27.0583C57.7347 27.0507 57.6752 27.0547 57.6182 27.0701L57.5575 27.0961Z" fill="var(--fill-0, #0F2436)"/>
<path id="Vector_28" d="M36.5315 40.9021C37.4773 39.5223 39.881 38.3595 41.3562 39.5831C41.4397 39.6611 41.5499 39.7046 41.6643 39.7046C41.7786 39.7046 41.8887 39.6611 41.9723 39.5831C42.013 39.5427 42.0452 39.4947 42.0672 39.4419C42.0893 39.389 42.1006 39.3323 42.1006 39.275C42.1006 39.2177 42.0893 39.161 42.0672 39.1082C42.0452 39.0553 42.013 39.0073 41.9723 38.967C40.0285 37.3703 37.0695 38.5765 35.7852 40.4595C35.4728 40.9281 36.2191 41.3273 36.5315 40.9021Z" fill="var(--fill-0, #0F2436)"/>
<path id="Vector_29" d="M33.5584 37.0057C36.6389 38.9929 36.4654 44.2081 33.4456 46.1431C32.2907 46.8284 30.9603 47.1602 29.6188 47.0977C29.5038 47.0977 29.3934 47.1434 29.312 47.2248C29.2307 47.3061 29.185 47.4165 29.185 47.5316C29.185 47.6466 29.2307 47.757 29.312 47.8383C29.3934 47.9197 29.5038 47.9654 29.6188 47.9654C32.0833 47.9654 34.565 47.0977 35.8319 44.8415C36.3319 43.9145 36.6144 42.8858 36.658 41.8334C36.7016 40.781 36.5052 39.7325 36.0836 38.7672C35.6538 37.7336 34.9257 36.8514 33.9923 36.2334C33.5237 35.9297 33.1245 36.676 33.5584 36.9797V37.0057Z" fill="var(--fill-0, #0F2436)"/>
</g>
</svg>
