<svg xmlns="http://www.w3.org/2000/svg" width="113" height="58" viewBox="0 0 113 58" fill="none">
  <g clip-path="url(#clip0_234_312)">
    <mask id="mask0_234_312" style="mask-type:luminance" maskUnits="userSpaceOnUse" x="0" y="0" width="59" height="58">
      <path d="M58.5133 0.174316H0.862061V57.8256H58.5133V0.174316Z" fill="white"/>
    </mask>
    <g mask="url(#mask0_234_312)">
      <g style="mix-blend-mode:luminosity">
        <path d="M0.85791 34.5422L24.1418 57.8261C12.3775 55.5779 3.10603 46.3066 0.85791 34.5422Z" fill="url(#paint0_radial_234_312)"/>
        <path d="M24.1415 0.174316L0.857666 23.4579C3.10603 11.6939 12.3772 2.42243 24.1415 0.174316Z" fill="url(#paint1_radial_234_312)"/>
        <path d="M56.6975 28.9991L29.6876 56.009L2.67773 28.9991L29.6876 1.98926L56.6975 28.9991Z" fill="url(#paint2_radial_234_312)"/>
        <path d="M58.516 23.4579L35.2324 0.174316C46.9965 2.42243 56.2676 11.6939 58.516 23.4579Z" fill="url(#paint3_radial_234_312)"/>
        <path d="M35.2324 57.8258L58.5163 34.542C56.2681 46.3063 46.9965 55.5778 35.2324 57.8258Z" fill="url(#paint4_radial_234_312)"/>
        <path d="M29.4112 47.1316C29.4112 47.1316 29.2708 28.5032 25.2627 24.4955C21.2548 20.4874 15.6299 19.1182 15.6299 19.1182C15.6299 19.1182 29.4687 21.0522 29.4112 24.8604C29.4112 27.6197 29.4112 47.1316 29.4112 47.1316Z" fill="url(#paint5_radial_234_312)"/>
        <path d="M29.9709 47.1316C29.9709 47.1316 30.1112 28.5032 34.1193 24.4955C38.1273 20.4874 43.7522 19.1182 43.7522 19.1182C43.7522 19.1182 29.9134 21.0522 29.9709 24.8604C29.9709 27.6197 29.9709 47.1316 29.9709 47.1316Z" fill="url(#paint6_radial_234_312)"/>
        <path d="M29.6857 22.7094C31.4229 22.7094 32.8313 21.301 32.8313 19.5638C32.8313 17.8266 31.4229 16.4182 29.6857 16.4182C27.9484 16.4182 26.54 17.8266 26.54 19.5638C26.54 21.301 27.9484 22.7094 29.6857 22.7094Z" fill="url(#paint7_radial_234_312)"/>
      </g>
    </g>
    <path d="M76.6336 18.3082V26.694H75.1022L71.454 21.4161H71.3926V26.694H69.6196V18.3082H71.1755L74.7951 23.582H74.8688V18.3082H76.6336ZM78.0984 26.694V18.3082H81.4068C82.0428 18.3082 82.5843 18.4297 83.0323 18.6727C83.4804 18.9129 83.8213 19.2473 84.0561 19.6758C84.2933 20.1017 84.4119 20.593 84.4119 21.1499C84.4119 21.7068 84.2924 22.1981 84.0519 22.6239C83.8115 23.0497 83.4639 23.3814 83.0076 23.6189C82.5547 23.8564 82.006 23.9751 81.3618 23.9751H79.2531V22.5543H81.0752C81.4164 22.5543 81.6975 22.4956 81.9186 22.3783C82.1425 22.2582 82.309 22.093 82.4182 21.8828C82.53 21.6699 82.586 21.4256 82.586 21.1499C82.586 20.8714 82.53 20.6285 82.4182 20.4211C82.309 20.2109 82.1425 20.0485 81.9186 19.9338C81.6948 19.8164 81.4109 19.7578 81.067 19.7578H79.8713V26.694H78.0984ZM93.2696 22.5011C93.2696 23.4156 93.0966 24.1935 92.7499 24.8349C92.4056 25.4764 91.9362 25.9665 91.3415 26.305C90.7486 26.6407 90.0831 26.8086 89.3427 26.8086C88.5982 26.8086 87.9294 26.6393 87.3364 26.3009C86.7443 25.9624 86.2765 25.4724 85.9322 24.8309C85.5888 24.1894 85.4166 23.4128 85.4166 22.5011C85.4166 21.5866 85.5888 20.8087 85.9322 20.1672C86.2765 19.5258 86.7443 19.0371 87.3364 18.7013C87.9294 18.3629 88.5982 18.1936 89.3427 18.1936C90.0831 18.1936 90.7486 18.3629 91.3415 18.7013C91.9362 19.0371 92.4056 19.5258 92.7499 20.1672C93.0966 20.8087 93.2696 21.5866 93.2696 22.5011ZM91.4725 22.5011C91.4725 21.9087 91.3835 21.4092 91.2065 21.0025C91.031 20.5958 90.784 20.2873 90.4652 20.0772C90.1457 19.867 89.7718 19.7618 89.3427 19.7618C88.9144 19.7618 88.5405 19.867 88.221 20.0772C87.9014 20.2873 87.6535 20.5958 87.4756 21.0025C87.301 21.4092 87.2137 21.9087 87.2137 22.5011C87.2137 23.0935 87.301 23.593 87.4756 23.9997C87.6535 24.4064 87.9014 24.7149 88.221 24.925C88.5405 25.1352 88.9144 25.2403 89.3427 25.2403C89.7718 25.2403 90.1457 25.1352 90.4652 24.925C90.784 24.7149 91.031 24.4064 91.2065 23.9997C91.3835 23.593 91.4725 23.0935 91.4725 22.5011ZM99.7833 22.1981L98.1864 22.2964C98.1592 22.1598 98.0999 22.037 98.0101 21.9278C97.9204 21.8159 97.8018 21.7272 97.6543 21.6617C97.5094 21.5935 97.3356 21.5594 97.1338 21.5594C96.8637 21.5594 96.6356 21.6167 96.4503 21.7313C96.265 21.8433 96.1719 21.9934 96.1719 22.1818C96.1719 22.3318 96.232 22.4588 96.3523 22.5625C96.4717 22.6663 96.6784 22.7495 96.9699 22.8123L98.1081 23.0416C98.7201 23.1672 99.1755 23.3691 99.4761 23.6476C99.7767 23.926 99.9266 24.2918 99.9266 24.7449C99.9266 25.1571 99.8047 25.5188 99.5618 25.8299C99.3221 26.1412 98.9919 26.3841 98.571 26.5588C98.1534 26.7308 97.6716 26.8167 97.1256 26.8167C96.293 26.8167 95.63 26.6434 95.1358 26.2967C94.6441 25.9474 94.3567 25.4724 94.2719 24.8718L95.9874 24.7817C96.0393 25.0357 96.1653 25.2294 96.3646 25.3632C96.5631 25.4942 96.8184 25.5597 97.1297 25.5597C97.4353 25.5597 97.6815 25.5011 97.8668 25.3836C98.0554 25.2635 98.151 25.1093 98.1534 24.921C98.151 24.7626 98.0843 24.633 97.9525 24.532C97.8215 24.4283 97.6198 24.3491 97.3472 24.2945L96.2575 24.0775C95.644 23.9547 95.186 23.7417 94.8863 23.4387C94.5889 23.1357 94.4399 22.7495 94.4399 22.28C94.4399 21.876 94.5486 21.528 94.7677 21.2359C94.9884 20.9438 95.2981 20.7186 95.6967 20.5603C96.0978 20.402 96.5672 20.3228 97.105 20.3228C97.8998 20.3228 98.5249 20.4907 98.9803 20.8265C99.4391 21.1621 99.7067 21.6194 99.7833 22.1981ZM72.1582 40.8178C71.5796 40.8178 71.08 40.7141 70.6596 40.5066C70.2393 40.2992 69.9158 40.018 69.6892 39.6631C69.4654 39.3055 69.3535 38.907 69.3535 38.4675C69.3535 38.1399 69.419 37.8492 69.55 37.5954C69.6811 37.3415 69.864 37.1081 70.0987 36.8952C70.3334 36.6796 70.6064 36.4653 70.9176 36.2524L72.5431 35.1837C72.7534 35.0499 72.9075 34.9093 73.0058 34.7619C73.1041 34.6118 73.1532 34.4494 73.1532 34.2747C73.1532 34.1081 73.0863 33.954 72.9526 33.812C72.8188 33.6701 72.6291 33.6004 72.3834 33.6032C72.2197 33.6032 72.0777 33.64 71.9576 33.7137C71.8375 33.7847 71.7433 33.8789 71.6751 33.9962C71.6096 34.1109 71.5768 34.2392 71.5768 34.3812C71.5768 34.5559 71.626 34.7333 71.7242 34.9135C71.8225 35.0936 71.9535 35.2846 72.1173 35.4867C72.2811 35.6859 72.4599 35.9016 72.6537 36.1336L76.6295 40.695H74.8115L71.4949 37.0017C71.2766 36.7533 71.0582 36.4939 70.8398 36.2237C70.6241 35.9507 70.444 35.6614 70.2993 35.3556C70.1546 35.0472 70.0823 34.7128 70.0823 34.3525C70.0823 33.9457 70.1765 33.58 70.3649 33.2552C70.556 32.9303 70.8235 32.6737 71.1674 32.4853C71.5113 32.2943 71.9126 32.1987 72.3711 32.1987C72.8188 32.1987 73.2051 32.2902 73.5299 32.4731C73.8575 32.6532 74.1086 32.8934 74.2834 33.1937C74.4608 33.4913 74.5495 33.8188 74.5495 34.1764C74.5495 34.5722 74.4512 34.9312 74.2547 35.2533C74.0608 35.5727 73.7879 35.8593 73.4357 36.1131L71.7242 37.3456C71.4922 37.5148 71.3202 37.6881 71.2083 37.8656C71.0991 38.0403 71.0445 38.2081 71.0445 38.3692C71.0445 38.5685 71.0937 38.7473 71.1919 38.9056C71.2902 39.0639 71.4295 39.1895 71.6096 39.2823C71.7898 39.3724 72.0013 39.4174 72.2442 39.4174C72.5391 39.4174 72.8298 39.3505 73.1164 39.2168C73.4057 39.0803 73.6678 38.8879 73.9025 38.6395C74.1401 38.3883 74.3297 38.0908 74.4717 37.7469C74.6136 37.4029 74.6846 37.0221 74.6846 36.6044H76.13C76.13 37.1176 76.074 37.5803 75.9621 37.9925C75.8501 38.402 75.6946 38.7595 75.4953 39.0653C75.296 39.3683 75.0682 39.6167 74.8115 39.8105C74.7297 39.8624 74.6505 39.9115 74.5741 39.9579C74.4976 40.0043 74.4184 40.0535 74.3366 40.1053C74.0254 40.3565 73.6774 40.538 73.2924 40.6499C72.9103 40.7618 72.5322 40.8178 72.1582 40.8178ZM87.0712 32.3093V40.695H85.5402L81.892 35.4171H81.8306V40.695H80.0577V32.3093H81.6136L85.233 37.583H85.3071V32.3093H87.0712ZM94.0964 35.0199C94.0396 34.8206 93.9589 34.6446 93.8551 34.4917C93.7514 34.3361 93.6245 34.2051 93.4746 34.0986C93.3272 33.9894 93.1576 33.9062 92.9665 33.8489C92.7787 33.7915 92.5695 33.7628 92.3405 33.7628C91.9115 33.7628 91.5351 33.8693 91.2106 34.0822C90.8877 34.2952 90.6374 34.6049 90.457 35.0117C90.2766 35.4157 90.1869 35.9097 90.1869 36.4939C90.1869 37.0781 90.275 37.5749 90.4529 37.9844C90.63 38.3938 90.8812 38.7063 91.2065 38.922C91.531 39.1349 91.9148 39.2413 92.357 39.2413C92.7581 39.2413 93.1007 39.1704 93.384 39.0284C93.6706 38.8838 93.8897 38.6804 94.0396 38.4183C94.1928 38.1563 94.2686 37.8465 94.2686 37.4889L94.6293 37.5421H92.4674V36.2073H95.9759V37.2637C95.9759 38.0007 95.821 38.634 95.5097 39.1636C95.1984 39.6904 94.7693 40.0971 94.2241 40.3837C93.6781 40.6676 93.053 40.8096 92.3488 40.8096C91.5623 40.8096 90.8721 40.6363 90.2766 40.2896C89.6812 39.9402 89.2175 39.4448 88.8848 38.8033C88.5545 38.1591 88.389 37.3947 88.389 36.5103C88.389 35.8306 88.487 35.2246 88.6838 34.6923C88.8831 34.1573 89.1615 33.7042 89.5189 33.3329C89.8764 32.9617 90.2931 32.6791 90.7683 32.4853C91.2427 32.2916 91.7574 32.1946 92.3117 32.1946C92.7869 32.1946 93.2292 32.2642 93.6385 32.4035C94.0478 32.54 94.4111 32.7337 94.7273 32.9849C95.0469 33.2361 95.3071 33.5349 95.5097 33.8816C95.7115 34.2255 95.8408 34.6049 95.8985 35.0199H94.0964ZM105.014 36.5021C105.014 37.4166 104.841 38.1946 104.494 38.836C104.15 39.4775 103.681 39.9675 103.085 40.306C102.493 40.6417 101.827 40.8096 101.087 40.8096C100.342 40.8096 99.673 40.6404 99.0808 40.3019C98.4886 39.9634 98.0208 39.4734 97.6766 38.8319C97.3323 38.1904 97.1602 37.4138 97.1602 36.5021C97.1602 35.5876 97.3323 34.8097 97.6766 34.1682C98.0208 33.5268 98.4886 33.0381 99.0808 32.7024C99.673 32.3639 100.342 32.1946 101.087 32.1946C101.827 32.1946 102.493 32.3639 103.085 32.7024C103.681 33.0381 104.15 33.5268 104.494 34.1682C104.841 34.8097 105.014 35.5876 105.014 36.5021ZM103.216 36.5021C103.216 35.9098 103.128 35.4102 102.95 35.0035C102.775 34.5968 102.528 34.2884 102.209 34.0782C101.89 33.868 101.516 33.7628 101.087 33.7628C100.659 33.7628 100.285 33.868 99.9653 34.0782C99.6458 34.2884 99.3979 34.5968 99.22 35.0035C99.0454 35.4102 98.9581 35.9098 98.9581 36.5021C98.9581 37.0945 99.0454 37.594 99.22 38.0007C99.3979 38.4075 99.6458 38.7159 99.9653 38.9261C100.285 39.1362 100.659 39.2413 101.087 39.2413C101.516 39.2413 101.89 39.1362 102.209 38.9261C102.528 38.7159 102.775 38.4075 102.95 38.0007C103.128 37.594 103.216 37.0945 103.216 36.5021ZM111.528 36.1991L109.931 36.2974C109.903 36.1609 109.844 36.0381 109.755 35.9289C109.664 35.8169 109.545 35.7282 109.398 35.6628C109.254 35.5945 109.08 35.5604 108.878 35.5604C108.608 35.5604 108.38 35.6177 108.195 35.7324C108.009 35.8443 107.916 35.9944 107.916 36.1828C107.916 36.3328 107.976 36.4598 108.096 36.5635C108.216 36.6673 108.422 36.7506 108.714 36.8133L109.853 37.0426C110.464 37.1682 110.92 37.3701 111.221 37.6486C111.52 37.9271 111.671 38.2928 111.671 38.7459C111.671 39.1581 111.549 39.5198 111.306 39.8309C111.066 40.1422 110.735 40.3851 110.315 40.5598C109.898 40.7318 109.416 40.8178 108.87 40.8178C108.037 40.8178 107.374 40.6444 106.88 40.2978C106.389 39.9484 106.101 39.4734 106.016 38.8729L107.732 38.7828C107.784 39.0367 107.909 39.2305 108.108 39.3642C108.307 39.4953 108.563 39.5607 108.874 39.5607C109.18 39.5607 109.425 39.5021 109.611 39.3846C109.8 39.2646 109.895 39.1103 109.898 38.922C109.895 38.7637 109.828 38.634 109.697 38.533C109.566 38.4293 109.364 38.3501 109.091 38.2955L108.002 38.0785C107.388 37.9557 106.93 37.7427 106.631 37.4397C106.333 37.1367 106.184 36.7506 106.184 36.281C106.184 35.877 106.293 35.529 106.511 35.2369C106.733 34.9448 107.042 34.7196 107.441 34.5613C107.842 34.403 108.312 34.3238 108.849 34.3238C109.644 34.3238 110.269 34.4917 110.725 34.8275C111.183 35.1632 111.451 35.6204 111.528 36.1991Z" fill="black"/>
  </g>
  <defs>
    <radialGradient id="paint0_radial_234_312" cx="0" cy="0" r="1" gradientUnits="userSpaceOnUse" gradientTransform="translate(12.4998 46.1842) scale(11.6419 11.6419)">
      <stop stop-color="#27AAE1"/>
      <stop offset="0.0001" stop-color="#505355"/>
      <stop offset="1" stop-color="#1F242F"/>
    </radialGradient>
    <radialGradient id="paint1_radial_234_312" cx="0" cy="0" r="1" gradientUnits="userSpaceOnUse" gradientTransform="translate(12.4996 11.8161) scale(11.6418)">
      <stop stop-color="#04161E"/>
      <stop offset="1" stop-color="#626262"/>
    </radialGradient>
    <radialGradient id="paint2_radial_234_312" cx="0" cy="0" r="1" gradientUnits="userSpaceOnUse" gradientTransform="translate(29.6876 28.9992) scale(27.0099 27.0099)">
      <stop stop-color="#4A494F"/>
      <stop offset="1" stop-color="#080809"/>
    </radialGradient>
    <radialGradient id="paint3_radial_234_312" cx="0" cy="0" r="1" gradientUnits="userSpaceOnUse" gradientTransform="translate(46.8743 11.8161) scale(11.6418 11.6418)">
      <stop stop-color="#021B25"/>
      <stop offset="1" stop-color="#18191B"/>
    </radialGradient>
    <radialGradient id="paint4_radial_234_312" cx="0" cy="0" r="1" gradientUnits="userSpaceOnUse" gradientTransform="translate(46.8744 46.1839) scale(11.6419 11.6419)">
      <stop stop-color="#4B4B4B"/>
      <stop offset="1" stop-color="#030C20"/>
    </radialGradient>
    <radialGradient id="paint5_radial_234_312" cx="0" cy="0" r="1" gradientUnits="userSpaceOnUse" gradientTransform="translate(22.5206 33.1248) scale(11.0379)">
      <stop stop-color="#22221C"/>
      <stop offset="1" stop-color="#AEADAA"/>
    </radialGradient>
    <radialGradient id="paint6_radial_234_312" cx="0" cy="0" r="1" gradientUnits="userSpaceOnUse" gradientTransform="translate(36.8614 33.1248) scale(11.0379)">
      <stop stop-color="white"/>
      <stop offset="1" stop-color="#B0B0B0"/>
    </radialGradient>
    <radialGradient id="paint7_radial_234_312" cx="0" cy="0" r="1" gradientUnits="userSpaceOnUse" gradientTransform="translate(29.6855 19.5637) scale(3.1455)">
      <stop stop-color="#FEFEFE"/>
      <stop offset="1" stop-color="#979592"/>
    </radialGradient>
    <clipPath id="clip0_234_312">
      <rect width="112.832" height="57.6513" fill="white" transform="translate(0.168457 0.174316)"/>
    </clipPath>
  </defs>
</svg>