<svg width="100" height="100" viewBox="0 0 100 100" fill="none" xmlns="http://www.w3.org/2000/svg">
<circle cx="50" cy="50" r="49.5" fill="white" stroke="black"/>
<path d="M33.887 32.2242C36.7149 32.2132 38.775 32.8837 40.7607 33.8251C43.9808 35.3525 46.4064 37.746 48.2103 40.7815C48.7191 41.6402 49.1581 42.5375 49.6458 43.4092C49.7321 43.5083 49.8387 43.5736 49.9663 43.6048C49.9856 43.613 50.083 43.4762 50.1069 43.3945C50.2676 42.9233 50.4173 42.4466 50.5716 41.9736C51.5911 38.8426 52.9522 35.8889 55.0739 33.3319C56.7822 31.2709 58.8037 29.6333 61.3551 28.7103C61.9402 28.4907 62.539 28.3217 63.1526 28.2033C63.7661 28.0848 64.3851 28.0177 65.0097 28.003C65.6342 27.9883 66.2551 28.0269 66.8732 28.1169C67.4913 28.2069 68.0975 28.3475 68.6917 28.5394C69.4807 28.7801 70.2109 29.1401 70.8813 29.6195C71.5527 30.099 72.1295 30.6721 72.6135 31.3407C74.3145 33.6763 74.9739 36.3132 74.7599 39.1824C74.6194 41.0129 74.0876 42.7396 73.3593 44.4139C71.8035 47.9582 69.8471 51.2766 67.6961 54.4967C64.1032 59.8522 60.3265 65.0708 56.0548 69.9166C55.6901 70.3189 55.2906 70.6835 54.8562 71.0105C54.0397 71.6414 53.2011 71.6203 52.336 71.0536C51.5387 70.5329 50.7213 70.0443 49.8993 69.5639C47.0016 67.8666 44.0662 66.2281 41.2052 64.472C38.2579 62.6663 35.4622 60.6512 32.8179 58.4249C31.342 57.1988 30.0378 55.811 28.9044 54.2634C27.772 52.7149 26.8434 51.0525 26.1206 49.2753C24.8155 46.0644 24.6593 42.7451 25.6053 39.4065C26.3272 36.8578 27.862 34.885 30.0947 33.4605C31.4421 32.6027 32.9043 32.2105 33.887 32.2242ZM72.5015 38.1143C72.5015 37.8342 72.5217 37.5081 72.5015 37.1931C72.2783 34.4001 71.0108 32.2022 68.4676 31.0082C65.1924 29.468 62.0265 29.8418 59.1426 32.1048C57.9256 33.0729 56.8841 34.2035 56.0189 35.4967C54.2362 38.117 53.0643 41.0074 52.2505 44.0521C51.8051 45.6327 51.5718 47.2437 51.5498 48.8859C51.5498 49.786 51.2953 50.0652 50.5404 50.2865C50.454 50.3177 50.365 50.3324 50.2731 50.3297C50.1813 50.3278 50.0922 50.3104 50.0068 50.2755C49.9223 50.2406 49.846 50.1919 49.779 50.1295C49.7119 50.0661 49.6577 49.9935 49.6173 49.9109C49.497 49.6675 49.3896 49.4186 49.2959 49.1633C48.8835 48.1548 48.4794 47.1436 48.0661 46.1351C47.2854 44.1852 46.2521 42.3786 44.9681 40.7163C42.4479 37.5053 39.1341 35.5849 35.1655 34.7867C34.011 34.5544 32.8143 34.5378 31.6892 35.0375C30.0295 35.7741 28.8695 37.0222 28.188 38.6782C26.9775 41.5833 26.7653 44.5646 27.8739 47.5596C29.0955 50.8605 31.0949 53.6582 33.729 55.9616C37.0437 58.8685 40.6927 61.3438 44.4997 63.5682C47.3185 65.2178 50.1482 66.848 52.977 68.4829C53.1763 68.5913 53.383 68.684 53.5961 68.763C53.6585 68.7924 53.7228 68.8108 53.7917 68.8181C53.8597 68.8255 53.9276 68.8218 53.9947 68.8062C54.0617 68.7896 54.1233 68.763 54.1811 68.7263C54.239 68.6886 54.2895 68.6436 54.3317 68.5885C54.4796 68.4177 54.6367 68.2542 54.7827 68.0806C59.4549 62.5102 63.7826 56.6854 67.6153 50.5033C69.0747 48.1493 70.4313 45.742 71.4884 43.1676C72.1506 41.5631 72.6135 39.9108 72.5015 38.1143Z" fill="black"/>
</svg>
