<svg width="100" height="100" viewBox="0 0 100 100" fill="none" xmlns="http://www.w3.org/2000/svg">
<path d="M61.4562 42.0352C68.8212 43.7129 74.2598 49.2464 74.2598 55.8884C74.2598 57.5967 73.8905 59.2643 73.202 60.7829L77.3931 66.7452C77.8925 67.4642 77.2535 68.423 76.3956 68.2333L68.5813 66.4857C65.8173 68.7029 61.366 70.2709 56.7555 70.2709C48.8917 70.2709 42.1955 66.0161 40 60.0937C40.7488 60.2835 41.507 60.423 42.2754 60.5132C44.5705 65.0871 50.169 68.3532 56.7555 68.3532C60.9371 68.3532 64.8592 67.0251 67.7634 64.7076C67.983 64.5281 68.2818 64.4583 68.5617 64.5179L74.3892 65.8264L71.3257 61.4618C71.1163 61.1718 71.0865 60.7923 71.2457 60.4827C71.9647 59.0244 72.3435 57.4768 72.3435 55.8884C72.3435 50.5251 68.0623 45.9003 62.045 44.1629C61.9149 43.4338 61.7157 42.7243 61.4562 42.0352Z" fill="black"/>
<path d="M26.8584 51.9135C26.1503 50.4953 25.6611 48.4374 25.6611 46.3001C25.6611 37.2607 34.3136 30 44.9116 30C55.5001 30 64.1519 37.2607 64.1519 46.3001C64.1519 55.3389 55.5001 62.6003 44.9116 62.6003C40.0015 62.6003 35.3714 61.0424 31.8484 58.2757L23.1762 60.2733C22.3279 60.4732 21.6794 59.5239 22.1686 58.8049L26.8584 51.9135ZM44.9116 31.9177C35.3016 31.9177 27.5774 38.3998 27.5774 46.3001C27.5774 48.148 27.9962 49.9356 28.8046 51.6134C28.9543 51.923 28.9245 52.293 28.7246 52.5722L25.1522 57.8461L31.8688 56.2977C32.1581 56.2381 32.4569 56.3079 32.6866 56.4976C35.9101 59.1546 40.2611 60.6826 44.9116 60.6826C54.5121 60.6826 62.2363 54.2005 62.2363 46.3001C62.2363 38.3998 54.5121 31.9177 44.9116 31.9177Z" fill="black"/>
<path fill-rule="evenodd" clip-rule="evenodd" d="M38.2851 46.3005C38.2851 47.3589 37.4272 48.2181 36.3694 48.2181C35.311 48.2181 34.4531 47.3589 34.4531 46.3005C34.4531 45.242 35.311 44.3828 36.3694 44.3828C37.4272 44.3828 38.2851 45.242 38.2851 46.3005Z" fill="black"/>
<path fill-rule="evenodd" clip-rule="evenodd" d="M46.9107 46.3005C46.9107 47.3589 46.0522 48.2181 44.9944 48.2181C43.9367 48.2181 43.0781 47.3589 43.0781 46.3005C43.0781 45.242 43.9367 44.3828 44.9944 44.3828C46.0522 44.3828 46.9107 45.242 46.9107 46.3005Z" fill="black"/>
<path fill-rule="evenodd" clip-rule="evenodd" d="M55.5273 46.3005C55.5273 47.3589 54.6687 48.2181 53.6109 48.2181C52.5532 48.2181 51.6953 47.3589 51.6953 46.3005C51.6953 45.242 52.5532 44.3828 53.6109 44.3828C54.6687 44.3828 55.5273 45.242 55.5273 46.3005Z" fill="black"/>
<circle cx="50" cy="50" r="49.5" fill="white" stroke="black"/>
<path d="M61.4562 42.0352C68.8212 43.7129 74.2598 49.2464 74.2598 55.8884C74.2598 57.5967 73.8905 59.2643 73.202 60.7829L77.3931 66.7452C77.8925 67.4642 77.2535 68.423 76.3956 68.2333L68.5813 66.4857C65.8173 68.7029 61.366 70.2709 56.7555 70.2709C48.8917 70.2709 42.1955 66.0161 40 60.0937C40.7488 60.2835 41.507 60.423 42.2754 60.5132C44.5705 65.0871 50.169 68.3532 56.7555 68.3532C60.9371 68.3532 64.8592 67.0251 67.7634 64.7076C67.983 64.5281 68.2818 64.4583 68.5617 64.5179L74.3892 65.8264L71.3257 61.4618C71.1163 61.1718 71.0865 60.7923 71.2457 60.4827C71.9647 59.0244 72.3435 57.4768 72.3435 55.8884C72.3435 50.5251 68.0623 45.9003 62.045 44.1629C61.9149 43.4338 61.7157 42.7243 61.4562 42.0352Z" fill="black"/>
<path d="M26.8584 51.9135C26.1503 50.4953 25.6611 48.4374 25.6611 46.3001C25.6611 37.2607 34.3136 30 44.9116 30C55.5001 30 64.1519 37.2607 64.1519 46.3001C64.1519 55.3389 55.5001 62.6003 44.9116 62.6003C40.0015 62.6003 35.3714 61.0424 31.8484 58.2757L23.1762 60.2733C22.3279 60.4732 21.6794 59.5239 22.1686 58.8049L26.8584 51.9135ZM44.9116 31.9177C35.3016 31.9177 27.5774 38.3998 27.5774 46.3001C27.5774 48.148 27.9962 49.9356 28.8046 51.6134C28.9543 51.923 28.9245 52.293 28.7246 52.5722L25.1522 57.8461L31.8688 56.2977C32.1581 56.2381 32.4569 56.3079 32.6866 56.4976C35.9101 59.1546 40.2611 60.6826 44.9116 60.6826C54.5121 60.6826 62.2363 54.2005 62.2363 46.3001C62.2363 38.3998 54.5121 31.9177 44.9116 31.9177Z" fill="black"/>
<path fill-rule="evenodd" clip-rule="evenodd" d="M38.2851 46.3005C38.2851 47.3589 37.4272 48.2181 36.3694 48.2181C35.311 48.2181 34.4531 47.3589 34.4531 46.3005C34.4531 45.242 35.311 44.3828 36.3694 44.3828C37.4272 44.3828 38.2851 45.242 38.2851 46.3005Z" fill="black"/>
<path fill-rule="evenodd" clip-rule="evenodd" d="M46.9107 46.3005C46.9107 47.3589 46.0522 48.2181 44.9944 48.2181C43.9367 48.2181 43.0781 47.3589 43.0781 46.3005C43.0781 45.242 43.9367 44.3828 44.9944 44.3828C46.0522 44.3828 46.9107 45.242 46.9107 46.3005Z" fill="black"/>
<path fill-rule="evenodd" clip-rule="evenodd" d="M55.5273 46.3005C55.5273 47.3589 54.6687 48.2181 53.6109 48.2181C52.5532 48.2181 51.6953 47.3589 51.6953 46.3005C51.6953 45.242 52.5532 44.3828 53.6109 44.3828C54.6687 44.3828 55.5273 45.242 55.5273 46.3005Z" fill="black"/>
</svg>
