<svg width="241" height="218" viewBox="0 0 241 218" fill="none" xmlns="http://www.w3.org/2000/svg">
<g clip-path="url(#clip0_5_463)">
<path fill-rule="evenodd" clip-rule="evenodd" d="M173.73 171.1C167.462 171.126 161.243 169.989 155.389 167.746C149.784 165.591 146.915 160.325 148.379 154.938C149.013 152.733 150.332 150.787 152.145 149.381C153.958 147.975 156.171 147.182 158.464 147.117C159.548 147.115 160.623 147.312 161.636 147.698C163.043 148.264 164.487 148.733 165.958 149.103C166.708 149.284 167.435 149.466 168.161 149.599L168.779 149.684L169.481 149.793H169.771C171.2 149.926 172.604 149.999 173.96 149.999C175.316 149.999 176.381 149.938 177.592 149.829L178.197 149.756C178.839 149.672 179.154 149.623 179.408 149.611L180.945 149.321C182.482 149.016 184.001 148.633 185.497 148.171C187.988 147.495 190.396 146.545 192.676 145.338C195.022 144.161 197.287 142.831 199.456 141.355C199.964 141.016 200.436 140.689 200.897 140.35L201.139 140.156L201.792 139.672C202.47 139.127 203.342 138.461 204.214 137.662C206.147 135.942 207.963 134.094 209.649 132.13L209.734 132.033C210.109 131.597 210.461 131.185 210.787 130.822L210.957 130.604L211.126 130.374C211.683 129.599 212.422 128.57 213.088 127.505C214.307 125.594 215.384 123.595 216.308 121.525L216.514 121.004L216.671 120.617C216.841 120.144 217.046 119.575 217.216 119.031C217.579 117.929 217.821 117.094 218.003 116.331C218.257 115.266 218.451 114.333 218.596 113.474C218.596 113.28 218.596 113.05 218.656 112.929C218.656 112.372 218.753 111.912 218.778 111.464C218.838 110.254 218.838 109.358 218.778 108.547C218.778 108.038 218.778 107.566 218.693 107.106V106.597C218.693 106.464 218.693 106.343 218.693 106.234C218.523 105.351 218.366 104.636 218.172 103.983V103.922C218.039 103.498 217.918 103.087 217.785 102.711V102.615C217.456 101.928 217.08 101.264 216.659 100.629V100.556C216.441 100.314 216.235 100.084 216.029 99.8906L215.594 99.5274C215.473 99.4306 215.291 99.2853 215.109 99.1158L214.795 98.9221C214.48 98.7405 214.201 98.5952 213.959 98.4742L213.511 98.2805C212.979 98.111 212.555 97.9778 212.155 97.881L211.695 97.8204L211.284 97.7599H210.182H209.383H208.826L207.749 97.8689L207.155 97.9899C206.099 98.2125 205.056 98.4954 204.032 98.8374C203.693 98.9584 203.366 99.0674 203.039 99.2006L202.555 99.4185L202.156 99.5879C201.21 100.051 200.293 100.568 199.407 101.138L198.984 101.44C198.645 101.694 198.366 101.9 198.088 102.082C197.809 102.263 197.725 102.397 197.567 102.542C197.204 102.881 196.877 103.196 196.599 103.498L196.163 103.874L195.812 104.309C195.563 104.67 195.337 105.046 195.134 105.435L195.001 105.762C194.892 106.162 194.783 106.573 194.698 106.973C194.145 109.268 192.822 111.305 190.95 112.744C189.077 114.182 186.768 114.936 184.408 114.878C183.472 114.892 182.538 114.774 181.635 114.527C179.005 113.765 176.769 112.019 175.392 109.652C174.014 107.285 173.601 104.479 174.238 101.815C176.89 89.0918 189.287 80.6658 200.4 77.954C203.37 77.2134 206.419 76.8353 209.48 76.8281C219.794 76.8281 228.499 81.1985 234.019 89.1281C239.709 97.3241 241.283 108.995 238.378 121.137C235.481 132.343 229.515 142.519 221.15 150.519C207.942 163.412 190.195 171.1 173.682 171.1H173.73Z" fill="#7BEFE5"/>
<path fill-rule="evenodd" clip-rule="evenodd" d="M192.626 145.383C190.345 146.591 187.938 147.541 185.447 148.216C183.951 148.678 182.431 149.062 180.895 149.366L179.358 149.657C179.14 149.657 178.825 149.718 178.147 149.802L177.542 149.875C176.331 149.984 175.12 150.044 173.91 150.044C172.699 150.044 171.149 149.972 169.721 149.839H169.43L168.728 149.73L168.111 149.645C167.384 149.512 166.658 149.33 165.907 149.149C164.437 148.779 162.993 148.31 161.585 147.744C160.573 147.358 159.498 147.161 158.414 147.163C156.12 147.228 153.907 148.021 152.094 149.427C150.281 150.833 148.963 152.779 148.329 154.984C146.852 160.371 149.733 165.637 155.339 167.792C161.192 170.035 167.411 171.172 173.68 171.146C178.822 171.11 183.937 170.406 188.897 169.051C193.23 160.387 196.545 151.251 198.776 141.824C196.797 143.129 194.743 144.317 192.626 145.383Z" fill="#074785"/>
<path fill-rule="evenodd" clip-rule="evenodd" d="M181.626 114.524C182.502 114.764 183.406 114.882 184.314 114.875C186.675 114.933 188.984 114.179 190.856 112.741C192.729 111.302 194.051 109.265 194.604 106.97C194.689 106.558 194.798 106.147 194.907 105.759L195.04 105.432C195.243 105.044 195.469 104.668 195.718 104.306L196.154 103.871L196.384 103.58C196.662 103.277 196.989 102.963 197.353 102.624C197.51 102.478 197.679 102.321 197.873 102.164C198.067 102.006 198.43 101.776 198.769 101.522L199.193 101.219C200.078 100.65 200.995 100.132 201.941 99.6698L202.34 99.5003L202.825 99.2824C203.151 99.1492 203.478 99.0403 203.817 98.9192C203.852 91.7924 203.273 84.6758 202.086 77.6484C201.529 77.7574 200.96 77.8785 200.391 78.0237C189.278 80.7355 176.881 89.1615 174.23 101.885C173.613 104.538 174.036 107.327 175.412 109.677C176.788 112.028 179.012 113.762 181.626 114.524Z" fill="#074785"/>
<path fill-rule="evenodd" clip-rule="evenodd" d="M30.3004 42.3463C-4.32357 96.6188 28.6782 204.946 93.2532 211.495C157.816 217.113 189.631 176.884 196.157 116.994C199.897 84.3067 196.447 50.6149 169.317 26.2812" fill="#29AEFD"/>
<path fill-rule="evenodd" clip-rule="evenodd" d="M70.5192 212.38C54.89 204.79 45.5076 194.064 32.9897 182.018C18.7043 166.837 7.09434 186.473 22.7236 198.531C19.927 197.538 15.9319 197.223 13.4259 199.064C10.1935 201.424 11.1863 205.613 13.0506 208.373C18.4985 216.472 30.399 216.993 39.1639 217.405C42.4433 217.582 45.7305 217.554 49.0063 217.32C52.9038 217.019 56.7752 216.445 60.592 215.601C63.9883 214.832 67.3072 213.754 70.5071 212.38" fill="#FFA4AC"/>
<path fill-rule="evenodd" clip-rule="evenodd" d="M204.079 69.5262C199.636 52.7347 190.92 41.4759 181.489 26.8878C169.382 9.93899 190.847 2.32411 199.648 19.9872C199.2 17.0454 199.648 13.0624 201.948 10.9559C204.902 8.23199 208.813 10.0116 211.173 12.3724C218.074 19.2851 216.282 31.0523 215.011 39.7326C214.573 42.9882 213.938 46.2143 213.11 49.3934C212.064 53.1614 210.754 56.8509 209.188 60.4343C207.784 63.6179 206.09 66.6655 204.128 69.5383" fill="#FFA4AC"/>
<path fill-rule="evenodd" clip-rule="evenodd" d="M191.11 74.6353C191.11 115.797 152.951 149.271 105.87 149.271C58.7882 149.271 20.6171 115.857 20.6171 74.6353C20.6171 33.4134 58.7761 0 105.857 0C152.939 0 191.11 33.4134 191.11 74.6353Z" fill="#7BEFE5"/>
<path fill-rule="evenodd" clip-rule="evenodd" d="M176.644 74.6609C176.644 108.631 145.168 136.173 106.427 136.173C67.6873 136.173 36.2109 108.631 36.2109 74.6609C36.2109 40.6907 67.6873 13.1367 106.427 13.1367C145.168 13.1367 176.644 40.6785 176.644 74.6609Z" fill="#F1854F"/>
<path fill-rule="evenodd" clip-rule="evenodd" d="M106.391 24.0414C142.843 24.0414 172.806 48.3509 176.305 79.4641C176.526 77.4539 176.639 75.4332 176.644 73.4109C176.644 39.4285 145.168 11.8867 106.427 11.8867C67.6873 11.8867 36.2109 39.4285 36.2109 73.4109C36.2156 75.4332 36.3288 77.4539 36.5499 79.4641C39.9881 48.3509 69.9391 24.0414 106.391 24.0414Z" fill="#29AEFD"/>
<path d="M32.9885 45.6637C29.1211 53.5379 26.6977 62.0421 25.8337 70.7722C25.0347 78.496 25.1315 87.043 29.1266 94.0405C30.192 95.9169 33.2064 94.2463 32.1411 92.3698C28.4366 85.8929 28.6303 77.9028 29.3203 70.7722C30.1258 62.6223 32.3893 54.6835 36.003 47.3344C36.9594 45.4216 33.9449 43.7025 32.9885 45.6637Z" fill="white"/>
<path d="M157.874 129.102C165.524 124.208 172.233 117.98 177.68 110.713C183.038 103.224 185.935 94.2551 185.973 85.0472C185.973 82.9165 182.498 82.9165 182.486 85.0472C182.429 93.5205 179.794 101.776 174.932 108.715C170.089 115.761 163.31 121.487 156.119 126.305C154.29 127.516 156.034 130.397 157.874 129.163V129.102Z" fill="white"/>
<path fill-rule="evenodd" clip-rule="evenodd" d="M159.196 89.0786C159.16 88.6076 159.099 88.1389 159.014 87.6743C159.014 87.3958 158.942 87.0932 158.857 86.8268C158.627 86.0278 158.53 85.2046 158.324 84.4056C158.118 83.6066 157.9 82.7591 157.622 81.9843C157.13 80.5797 156.556 79.2053 155.903 77.8682C155.394 76.8633 154.862 75.8706 154.269 74.9021C153.675 73.9336 153.143 73.1588 152.513 72.3235C151.572 71.0439 150.545 69.8304 149.438 68.6916C148.804 68.0051 148.12 67.3658 147.392 66.7788C146.678 66.2098 145.988 65.5682 145.274 65.0476C143.756 63.8994 142.149 62.8751 140.467 61.9847C139.295 61.3414 138.082 60.7752 136.835 60.2898C136.024 59.9751 135.213 59.6845 134.414 59.4061C133.615 59.1276 132.889 58.9097 132.114 58.7281C131.073 58.486 130.056 58.2318 128.991 58.0744C127.925 57.917 126.775 57.7233 125.649 57.6749C125.52 57.6869 125.391 57.6869 125.262 57.6749C123.057 57.4932 120.84 57.5175 118.64 57.7475C118.216 57.7475 117.792 57.8322 117.369 57.8928C116.545 58.0017 115.722 58.1712 114.947 58.3044C114.446 58.3876 113.949 58.4968 113.458 58.6313L111.654 59.1518C110.662 59.4424 109.717 59.8298 108.749 60.1567C108.156 60.3504 107.611 60.6409 107.042 60.883C106.043 61.3029 105.069 61.7799 104.124 62.3116C102.873 63.0165 101.661 63.7884 100.492 64.6239C99.4567 65.3767 98.4626 66.185 97.5142 67.0451C96.4176 68.0046 95.39 69.0402 94.4392 70.1444C93.507 71.246 92.599 72.3719 91.7758 73.5583C91.0535 74.5968 90.3984 75.6806 89.8146 76.8028C89.0389 78.2202 88.379 79.698 87.8413 81.2216C87.5915 81.8178 87.3772 82.4282 87.1996 83.0496C87.0059 83.9818 86.7033 84.9019 86.5217 85.8462C86.3401 86.7905 86.098 87.8196 86.0011 88.8244C85.9285 89.6355 85.8074 90.4466 85.8074 91.2456C85.8074 91.7057 85.8074 92.1657 85.8074 92.6257C85.7849 94.5043 85.9022 96.3819 86.1585 98.2431C86.1526 98.2792 86.1526 98.3159 86.1585 98.352C86.3379 98.9325 86.4635 99.5282 86.5338 100.132C86.645 100.724 86.7864 101.31 86.9575 101.887C87.236 102.868 87.5507 103.86 87.9139 104.829C88.2674 105.802 88.6715 106.755 89.1245 107.686C89.5846 108.63 90.0809 109.55 90.6136 110.458C91.1463 111.366 91.8242 112.371 92.4901 113.291C93.4578 114.619 94.522 115.873 95.674 117.044C96.5709 117.977 97.5165 118.862 98.5069 119.695C99.4391 120.47 100.432 121.184 101.437 121.875C102.115 122.335 102.793 122.795 103.507 123.194C104.475 123.739 105.468 124.272 106.497 124.732C107.015 124.916 107.514 125.151 107.986 125.434C108.107 125.543 108.289 125.434 108.41 125.579L108.737 125.724C108.828 125.815 108.94 125.882 109.064 125.918C109.766 126.136 110.432 126.439 111.146 126.644C112.357 126.996 113.567 127.322 114.85 127.589C115.118 127.669 115.395 127.714 115.674 127.722C115.839 127.69 116.009 127.716 116.158 127.795H116.267C116.521 127.795 116.787 127.795 117.017 127.94C117.247 128.085 117.344 127.94 117.502 128C118.455 128.182 119.425 128.267 120.395 128.255H125.08C125.548 128.258 126.014 128.214 126.472 128.121C127.248 128.067 128.02 127.97 128.785 127.831C129.451 127.686 130.141 127.613 130.819 127.492C131.497 127.371 132.368 127.044 133.143 126.85C133.918 126.657 134.463 126.414 135.128 126.233C135.554 126.099 135.96 125.912 136.339 125.676L138.288 124.816C139.247 124.394 140.18 123.917 141.085 123.388L142.792 122.347C143.596 121.861 144.376 121.336 145.128 120.773C146.198 119.988 147.214 119.13 148.167 118.206C149.161 117.295 150.099 116.325 150.976 115.301C151.775 114.332 152.574 113.364 153.276 112.335C153.76 111.608 154.184 110.834 154.632 110.095C155.249 109.078 155.745 108.013 156.254 106.96C156.786 105.82 157.243 104.648 157.622 103.449C157.912 102.589 158.143 101.718 158.373 100.846C158.603 99.9743 158.675 99.2358 158.845 98.4247C159.069 97.2869 159.202 96.1332 159.244 94.9744C159.367 93.0104 159.35 91.0403 159.196 89.0786Z" fill="#074785"/>
<path fill-rule="evenodd" clip-rule="evenodd" d="M106.096 121.232C105.629 120.948 105.134 120.712 104.619 120.53C103.59 120.058 102.597 119.538 101.616 118.981C100.908 118.577 100.221 118.136 99.5583 117.661C98.5535 116.971 97.5608 116.269 96.6165 115.494C95.6722 114.719 94.6916 113.763 93.7836 112.843C92.6324 111.67 91.5721 110.411 90.6118 109.078C89.9391 108.165 89.3128 107.22 88.7353 106.245C88.1916 105.351 87.6945 104.43 87.2462 103.485C86.7933 102.55 86.3892 101.592 86.0356 100.615C85.6885 99.6469 85.3738 98.6663 85.0913 97.6735C84.9131 97.102 84.7716 96.5197 84.6676 95.9302C84.5932 95.3224 84.4636 94.7227 84.2802 94.1385C84.2743 94.1024 84.2743 94.0656 84.2802 94.0295C84.0283 92.1721 83.915 90.2985 83.9412 88.4243C83.9412 87.9643 83.9412 87.5043 83.9412 87.0442C83.9644 86.2344 84.029 85.4262 84.1349 84.623C84.2318 83.6302 84.4497 82.6375 84.6434 81.6448C84.8371 80.6521 85.1276 79.7925 85.3334 78.8603C85.5069 78.2391 85.7171 77.6286 85.963 77.0323C86.5035 75.5098 87.1634 74.0323 87.9363 72.6135C88.52 71.4873 89.1751 70.3996 89.8975 69.3569C90.7207 68.1463 91.6408 67.0567 92.573 65.943C93.5175 64.833 94.5455 63.7969 95.648 62.8437C96.5964 61.9836 97.5905 61.1753 98.6261 60.4224C99.7711 59.5873 100.964 58.8192 102.197 58.1223C103.141 57.5882 104.115 57.1112 105.115 56.6937C105.684 56.4516 106.217 56.161 106.81 55.9673C107.778 55.6405 108.735 55.241 109.716 54.9625L111.519 54.442C112.009 54.303 112.506 54.1938 113.008 54.1151C113.844 53.9698 114.655 53.8124 115.49 53.6914L116.701 53.5461C118.901 53.3141 121.119 53.2938 123.323 53.4856H123.698C124.823 53.5623 125.942 53.6997 127.052 53.8972C128.105 54.0425 129.134 54.3088 130.163 54.5509C130.945 54.7361 131.717 54.9624 132.475 55.2289C133.299 55.4952 134.122 55.7857 134.897 56.1126C136.144 56.5956 137.357 57.1619 138.528 57.8075C140.201 58.6981 141.797 59.7266 143.298 60.8825C144.013 61.4515 144.703 62.0931 145.417 62.6016C146.133 63.2014 146.816 63.84 147.463 64.5144C148.57 65.6535 149.597 66.8669 150.538 68.1463C151.167 68.9816 151.749 69.8412 152.293 70.7249C152.884 71.6856 153.425 72.6756 153.916 73.691C154.581 75.0184 155.156 76.3895 155.635 77.795C155.925 78.594 156.119 79.4293 156.337 80.2162C156.555 81.0032 156.639 81.8385 156.882 82.6375C156.966 82.916 156.966 83.2065 157.027 83.4971C157.122 83.9605 157.187 84.4296 157.221 84.9014C157.404 86.8651 157.449 88.8393 157.354 90.8093C157.306 91.9683 157.169 93.1219 156.942 94.2596C156.785 95.0586 156.688 95.8697 156.482 96.6808C156.276 97.4919 156.01 98.412 155.732 99.2716C155.345 100.469 154.884 101.642 154.351 102.782C153.868 103.858 153.331 104.909 152.741 105.93C152.281 106.669 151.87 107.443 151.373 108.158C150.671 109.187 149.884 110.167 149.085 111.124C148.198 112.146 147.256 113.12 146.264 114.041C145.315 114.961 144.304 115.814 143.238 116.596C142.475 117.153 141.7 117.685 140.901 118.182C140.32 118.533 139.763 118.884 139.182 119.223C138.279 119.75 137.345 120.223 136.386 120.639L134.437 121.511C134.056 121.74 133.65 121.923 133.226 122.056C132.56 122.237 131.918 122.504 131.253 122.673C130.587 122.843 129.715 123.181 128.928 123.315C128.141 123.448 127.56 123.508 126.882 123.654C126.118 123.797 125.346 123.898 124.57 123.956C124.116 124.049 123.653 124.094 123.19 124.089C121.628 124.089 120.066 124.089 118.505 124.089C117.529 124.104 116.556 124.014 115.599 123.823C115.44 123.815 115.283 123.795 115.127 123.763C114.897 123.605 114.619 123.666 114.364 123.617H114.255C114.108 123.535 113.937 123.505 113.771 123.533C113.495 123.537 113.22 123.492 112.96 123.399C111.749 123.145 110.539 122.818 109.243 122.455C108.541 122.249 107.863 121.947 107.161 121.741C107.043 121.7 106.936 121.634 106.846 121.547L106.519 121.402C106.41 121.269 106.217 121.341 106.096 121.232Z" fill="#F9D555"/>
<path fill-rule="evenodd" clip-rule="evenodd" d="M120.671 57.5162C127.763 57.3978 134.691 59.6519 140.356 63.9204C148.758 70.2036 153.092 78.5448 153.177 88.7746C153.271 95.927 150.723 102.863 146.022 108.254C142.952 111.966 139.088 114.943 134.716 116.965C130.343 118.987 125.573 120.002 120.756 119.936C112.447 120.104 104.398 117.035 98.3108 111.377C95.0832 108.558 92.5066 105.071 90.7591 101.158C89.0116 97.2451 88.135 92.9992 88.1899 88.7141C88.1484 84.5706 88.9783 80.4646 90.626 76.6626C92.2736 72.8605 94.7021 69.4473 97.7539 66.6443C103.887 60.694 112.126 57.4123 120.671 57.5162Z" fill="white"/>
<path fill-rule="evenodd" clip-rule="evenodd" d="M144.222 99.9741C143.388 99.4864 142.527 99.0459 141.644 98.6546C140.958 98.2409 140.237 97.8885 139.489 97.6013C139.071 97.4295 138.666 97.2272 138.278 96.996L137.068 96.4391L135.167 95.5432C134.428 95.2043 133.666 94.8774 132.927 94.5263C132.189 94.1752 131.487 93.8241 130.748 93.5336C129.719 93.122 128.726 92.6498 127.685 92.2503C126.935 91.9477 126.196 91.6208 125.434 91.3303C125.21 91.2128 124.958 91.1623 124.707 91.185C124.474 91.2148 124.25 91.2953 124.052 91.4207C123.853 91.5462 123.684 91.7137 123.557 91.9113C123.446 92.0532 123.372 92.2206 123.343 92.3982C123.313 92.5759 123.329 92.7581 123.388 92.9283C123.545 93.3762 123.714 93.7999 123.908 94.2236C124.102 94.6474 124.308 95.2769 124.574 95.7611C124.84 96.2454 125.179 97.0928 125.53 97.7345C126.027 98.6424 126.45 99.5988 126.91 100.543C127.274 101.282 127.649 102.008 128.024 102.746L128.993 104.671C129.32 105.301 129.695 105.882 130.046 106.548C130.53 107.383 130.942 108.243 131.426 109.078C131.91 109.913 132.31 110.591 132.746 111.366C132.976 111.778 133.157 112.238 133.666 112.432C134.016 112.586 134.398 112.652 134.78 112.625C135.669 112.607 136.546 112.409 137.358 112.044C138.196 111.704 139.005 111.3 139.779 110.833C140.465 110.41 141.113 109.928 141.716 109.393C142.295 108.849 142.821 108.253 143.29 107.613C144.025 106.642 144.646 105.59 145.143 104.478C145.427 103.83 145.619 103.145 145.712 102.444C145.775 102.101 145.756 101.748 145.658 101.413C145.559 101.079 145.382 100.772 145.143 100.519C144.853 100.311 144.545 100.128 144.222 99.9741Z" fill="#F9D555"/>
<path fill-rule="evenodd" clip-rule="evenodd" d="M112.623 65.6403C112.877 66.5119 113.204 67.3472 113.458 68.2189C113.615 68.7637 113.857 69.2964 114.015 69.8412C114.172 70.3859 114.378 70.6402 114.463 71.0518C114.62 71.7782 114.971 72.444 115.153 73.1704C115.353 73.8001 115.587 74.4185 115.855 75.0226C116.194 75.9185 116.521 76.8144 116.896 77.686C117.271 78.5577 117.526 79.2356 117.804 80.0104C118.083 80.7852 118.518 81.7295 118.857 82.5891C118.993 82.8744 119.107 83.1698 119.196 83.4728C119.292 83.8113 119.501 84.1064 119.79 84.3082C119.984 84.4452 120.208 84.5356 120.443 84.5722C120.679 84.6088 120.919 84.5907 121.146 84.5193C121.373 84.4478 121.581 84.325 121.753 84.1603C121.925 83.9956 122.057 83.7935 122.138 83.5697C122.32 83.1096 122.465 82.6254 122.695 82.1654C123.036 81.4975 123.327 80.8056 123.567 80.0951C123.809 79.3082 124.208 78.594 124.414 77.8071C124.62 77.0202 124.935 76.4512 125.165 75.7611C125.395 75.0711 125.734 74.0904 126.061 73.2672C126.387 72.444 126.605 71.5724 126.92 70.7491C127.235 69.9259 127.32 69.3085 127.586 68.6184C127.852 67.9283 127.998 67.1899 128.276 66.5119C128.372 66.3486 128.434 66.1673 128.458 65.9792C128.513 65.5026 128.653 65.0395 128.869 64.6112C129.061 64.2104 129.118 63.7586 129.033 63.3226C128.948 62.8866 128.725 62.4895 128.397 62.19C127.98 61.8546 127.525 61.5701 127.041 61.3425C125.848 60.736 124.564 60.3271 123.24 60.1319C122.353 59.9437 121.447 59.8584 120.54 59.8777C119.878 59.8882 119.218 59.9529 118.567 60.0714L116.472 60.5193C115.594 60.7449 114.742 61.0614 113.93 61.4636C113.323 61.79 112.797 62.2493 112.393 62.8074C112.265 62.9479 112.172 63.1164 112.122 63.2994C112.071 63.4823 112.065 63.6746 112.102 63.8606C112.247 64.4417 112.417 65.0471 112.623 65.6403Z" fill="#F9D555"/>
<path fill-rule="evenodd" clip-rule="evenodd" d="M150.714 88.0474C150.593 87.1757 150.448 86.292 150.29 85.4203C150.243 85.1501 150.178 84.8832 150.097 84.6213C149.838 83.8621 149.518 83.1253 149.14 82.418C148.808 81.7458 148.312 81.1674 147.7 80.7352C147.351 80.4788 146.919 80.3622 146.489 80.4083C145.98 80.5052 145.484 80.711 144.976 80.8442C144.152 81.0621 143.353 81.3405 142.554 81.5826C141.755 81.8248 141.162 82.0185 140.472 82.2606C139.031 82.769 137.542 83.1443 136.102 83.7012C135.17 84.0523 134.201 84.3065 133.245 84.6334C131.889 85.1055 130.545 85.6504 129.165 86.0983C128.547 86.3041 127.954 86.5583 127.349 86.8247C126.8 87.0017 126.266 87.2202 125.751 87.4784C125.522 87.586 125.329 87.7577 125.196 87.9725C125.063 88.1874 124.995 88.4363 125 88.689C125.006 88.9659 125.091 89.2353 125.245 89.465C125.4 89.6948 125.618 89.8751 125.872 89.9844C126.816 90.3597 127.736 90.7471 128.705 91.0619C129.915 91.4614 131.126 91.9577 132.337 92.3572C133.547 92.7567 134.455 93.0957 135.521 93.4468C136.586 93.7979 137.373 94.1005 138.329 94.3427C139.286 94.5848 140.145 94.9117 141.077 95.1538C142.01 95.3959 142.881 95.6986 143.789 95.9649C144.697 96.2313 145.484 96.4855 146.356 96.6913C146.734 96.7896 147.134 96.7598 147.494 96.6065C148.031 96.3147 148.491 95.8998 148.838 95.3959C149.071 95.1522 149.259 94.8695 149.394 94.5606C149.757 93.7024 150.06 92.8207 150.302 91.9214C150.539 90.8984 150.693 89.8579 150.762 88.8101C150.77 88.5549 150.754 88.2996 150.714 88.0474Z" fill="#F9D555"/>
<path fill-rule="evenodd" clip-rule="evenodd" d="M98.6151 95.9184C99.281 95.7368 99.9589 95.4825 100.625 95.2767C101.642 94.9741 102.647 94.6593 103.639 94.3203L107.211 93.1097C108.421 92.6981 109.632 92.1775 110.843 91.8991C111.496 91.7175 112.126 91.3906 112.78 91.1485C113.615 90.8579 114.438 90.5311 115.201 90.18C115.963 89.8289 116.254 89.611 116.29 88.7393C116.319 88.5059 116.273 88.2695 116.16 88.0632C116.047 87.8569 115.873 87.6912 115.661 87.5892C114.704 87.1655 113.724 86.7781 112.743 86.3786C111.763 85.9791 110.927 85.7491 110.019 85.4101C109.111 85.0711 108.409 84.8653 107.598 84.5748C107.235 84.4537 106.86 84.369 106.508 84.2358C105.685 83.9331 104.85 83.7031 104.015 83.4247C103.619 83.2706 103.215 83.1413 102.804 83.0373C102.441 82.9646 102.138 82.7831 101.787 82.6983C101.17 82.553 100.576 82.3472 99.9589 82.1656L98.3972 81.7056C97.574 81.4756 96.7387 81.2819 95.976 81.0276C95.5169 80.8576 95.0426 80.7319 94.5595 80.6523C94.1084 80.6919 93.6829 80.8791 93.3489 81.185C92.7806 81.6212 92.3344 82.1967 92.0535 82.8557C91.7946 83.3566 91.5799 83.8791 91.4119 84.4174C91.1847 85.1307 91.0067 85.8588 90.8792 86.5965C90.8187 87.4319 90.6734 88.2551 90.625 89.0904C90.625 89.4536 90.8187 89.7805 90.7703 90.1558C90.7666 90.5881 90.8361 91.0179 90.9761 91.4269C91.0915 92.0632 91.2658 92.6873 91.4967 93.2913C91.8311 94.6363 92.6016 95.8325 93.6879 96.6932C93.8883 96.8422 94.121 96.9418 94.3671 96.9839C94.6132 97.0259 94.8658 97.0093 95.1043 96.9353C95.528 96.8263 95.9397 96.6569 96.315 96.5842C97.1261 96.4511 97.8524 96.1242 98.6151 95.9184Z" fill="#F9D555"/>
<path fill-rule="evenodd" clip-rule="evenodd" d="M127.399 75.5291C127.145 76.1707 126.83 76.7398 126.539 77.4056C125.934 78.701 125.329 79.9721 124.723 81.2796C124.312 82.2602 123.876 83.2287 123.404 84.1851C123.307 84.4054 123.266 84.6466 123.286 84.8866C123.306 85.1266 123.386 85.3576 123.519 85.5587C123.651 85.7598 123.832 85.9246 124.045 86.0378C124.257 86.151 124.495 86.2091 124.735 86.2069C125.203 86.1566 125.656 86.0125 126.067 85.7831C126.83 85.4563 127.641 85.202 128.391 84.8389C130.038 84.0519 131.745 83.3861 133.391 82.575C135.462 81.5459 137.592 80.6138 139.638 79.5242C140.389 79.1247 141.176 78.7978 141.914 78.3862C142.931 77.8414 143.972 77.3572 144.953 76.7519C145.058 76.6909 145.149 76.6083 145.219 76.5097C145.49 75.995 145.627 75.4206 145.619 74.839C145.691 74.609 145.449 74.2701 145.389 73.9069C145.372 73.6818 145.319 73.461 145.231 73.2531C144.856 72.6236 144.614 71.9335 144.239 71.3161C143.624 70.3589 142.944 69.4448 142.205 68.5801C141.643 68.0168 141.031 67.5061 140.377 67.0547C139.567 66.4538 138.694 65.9423 137.774 65.5293C137.479 65.3622 137.166 65.2282 136.842 65.1298C136.212 64.9724 135.631 64.8514 134.941 64.7061C134.564 64.6591 134.181 64.7015 133.824 64.8298C133.466 64.9581 133.144 65.1687 132.883 65.4446C132.641 65.7883 132.43 66.1529 132.253 66.5341C131.842 67.2847 131.418 68.0232 131.043 68.7738C130.873 69.1007 130.716 69.4518 130.522 69.7544C130.111 70.4324 129.772 71.1466 129.408 71.8488L128.295 73.9916C127.944 74.4638 127.629 74.9843 127.399 75.5291Z" fill="#F9D555"/>
<path fill-rule="evenodd" clip-rule="evenodd" d="M129.068 112.756C128.911 112.127 128.657 111.546 128.487 110.904C128.318 110.262 128.1 109.887 127.979 109.366C127.818 108.784 127.628 108.21 127.41 107.647C127.192 107.006 126.95 106.376 126.756 105.722C126.562 105.069 126.417 104.705 126.223 104.209C126.03 103.713 125.787 103.071 125.557 102.502C125.231 101.703 124.928 100.892 124.662 100.081C124.485 99.7112 124.332 99.3311 124.202 98.9429C124.009 98.3011 123.77 97.674 123.487 97.0664C123.064 96.0495 122.7 95.0083 122.204 94.0156C121.962 93.5556 121.756 93.1198 121.175 92.9503C120.909 92.8717 120.628 92.8616 120.357 92.9208C120.086 92.9801 119.834 93.1068 119.625 93.2893C119.372 93.6201 119.18 93.9931 119.056 94.3909C118.802 94.972 118.487 95.541 118.294 96.1342C118.015 96.9695 117.64 97.7686 117.337 98.5555C117.156 99.0518 116.962 99.5482 116.78 100.057C116.514 100.759 116.211 101.461 116.006 102.175C115.8 102.89 115.449 103.81 115.17 104.597C114.892 105.383 114.625 106.34 114.286 107.199C114.069 107.756 113.911 108.337 113.742 108.906C113.572 109.475 113.378 109.875 113.27 110.383C113.161 110.892 112.81 111.667 112.688 112.332C112.616 112.732 112.41 113.095 112.337 113.543C112.302 113.901 112.368 114.261 112.526 114.584C112.684 114.907 112.929 115.18 113.233 115.371C113.889 115.911 114.641 116.321 115.449 116.582C116.417 116.931 117.413 117.199 118.427 117.381C119.225 117.532 120.036 117.596 120.848 117.574C121.387 117.559 121.925 117.511 122.458 117.429C122.909 117.401 123.356 117.324 123.79 117.199C124.565 117.054 125.303 116.788 126.066 116.57C126.758 116.326 127.417 115.997 128.027 115.589C128.595 115.253 129.024 114.725 129.238 114.1C129.276 114.018 129.295 113.93 129.295 113.84C129.295 113.75 129.276 113.661 129.238 113.579C129.153 113.311 129.097 113.036 129.068 112.756Z" fill="#F9D555"/>
<path fill-rule="evenodd" clip-rule="evenodd" d="M96.3922 77.0809C96.749 77.3154 97.1258 77.518 97.5181 77.6862C99.1968 78.4933 100.892 79.3246 102.603 80.1801C103.499 80.616 104.394 81.0518 105.315 81.4513C106.67 82.0687 108.014 82.6619 109.382 83.3157C110.29 83.7152 111.198 84.1268 112.118 84.5263L115.024 85.7369C115.537 85.9818 116.084 86.1491 116.646 86.2333C116.86 86.2319 117.07 86.1835 117.263 86.0914C117.456 85.9993 117.626 85.8658 117.761 85.7005C117.896 85.5352 117.993 85.3421 118.046 85.1349C118.098 84.9278 118.103 84.7117 118.062 84.5021C117.866 83.9695 117.631 83.4516 117.36 82.9525C116.985 82.2261 116.694 81.4513 116.331 80.7128C115.968 79.9743 115.774 79.4296 115.46 78.8242C114.915 77.7831 114.443 76.7056 113.862 75.6887C113.535 75.1318 113.293 74.4781 112.99 73.9575C112.469 72.9648 111.925 71.9721 111.392 70.9794C110.859 69.9866 110.266 68.885 109.661 67.8681C109.282 67.1009 108.857 66.3571 108.39 65.6405C108.21 65.3227 107.929 65.0751 107.591 64.9383C106.573 64.7139 105.511 64.8112 104.552 65.2168C103.633 65.5093 102.754 65.9161 101.937 66.4274L100.121 67.7349C99.3558 68.3203 98.6755 69.0088 98.0992 69.7808C97.5036 70.5248 96.9995 71.3378 96.598 72.2021C96.4043 72.6016 96.2106 72.989 96.0411 73.4127C95.8704 73.9254 95.7449 74.452 95.6658 74.9866C95.5666 75.3684 95.5826 75.771 95.7118 76.1437C95.8411 76.5165 96.0778 76.8426 96.3922 77.0809Z" fill="#F9D555"/>
<path fill-rule="evenodd" clip-rule="evenodd" d="M114.116 101.583C114.504 100.772 114.939 99.9605 115.327 99.1615C115.714 98.3624 116.114 97.515 116.465 96.7402C116.913 95.6749 117.409 94.6337 117.881 93.5926C118.232 92.8178 118.293 92.2367 117.53 91.6314C117.373 91.4779 117.179 91.3672 116.967 91.31C116.755 91.2528 116.532 91.2509 116.319 91.3045C115.69 91.4861 115.109 91.813 114.504 92.043C113.366 92.4546 112.264 92.9873 111.162 93.4836C109.746 94.1011 108.329 94.6942 106.925 95.3843C105.969 95.8201 105.036 96.2923 104.104 96.7644C103.668 96.9824 103.233 97.2245 102.809 97.4545C101.961 97.9145 101.041 98.2777 100.194 98.7378C99.1043 99.331 98.0027 99.8878 96.8889 100.457C96.6025 100.58 96.3515 100.773 96.1591 101.019C95.9666 101.264 95.8388 101.554 95.7872 101.861C95.6974 102.64 95.8143 103.43 96.1262 104.149C96.487 105.105 96.9583 106.015 97.5305 106.861C98.2304 107.917 99.0647 108.877 100.012 109.718C100.512 110.163 101.046 110.568 101.61 110.929C102.412 111.456 103.263 111.902 104.153 112.26C105.004 112.642 105.92 112.855 106.852 112.89C107.174 112.929 107.501 112.883 107.8 112.758C108.099 112.633 108.361 112.432 108.559 112.176C108.705 111.982 108.753 111.764 108.886 111.583C109.192 111.127 109.471 110.654 109.722 110.166C110.121 109.307 110.63 108.495 111.065 107.672C111.332 107.188 111.562 106.692 111.828 106.207C112.094 105.723 112.47 104.997 112.748 104.404C113.172 103.374 113.668 102.491 114.116 101.583Z" fill="#F9D555"/>
<path d="M168.204 165.034C167.744 164.586 166.836 158.448 166.013 158.496C165.189 158.545 164.463 164.634 164.076 165.046C163.313 165.845 157.647 166.414 157.696 167.201C157.744 167.988 163.301 168.339 164.088 169.102C164.524 169.525 165.444 175.687 166.267 175.639C167.09 175.59 167.804 169.513 168.204 169.102C168.954 168.327 174.657 167.721 174.608 166.947C174.56 166.172 168.954 165.76 168.204 165.034Z" fill="white"/>
<path d="M53.3053 156.92C52.8574 156.485 51.9494 150.335 51.1262 150.383C50.3029 150.432 49.5766 156.533 49.1892 156.933C48.4144 157.732 42.7607 158.301 42.797 159.087C42.8334 159.874 48.4144 160.225 49.2013 160.988C49.6371 161.412 50.5572 167.574 51.3804 167.526C52.2036 167.477 52.9179 161.4 53.3174 160.988C54.0559 160.213 59.7701 159.608 59.7216 158.833C59.6732 158.058 54.0075 157.647 53.3053 156.92Z" fill="#074785"/>
<path d="M14.0679 153.738C13.4626 153.144 12.2519 144.924 11.1381 144.985C10.0244 145.045 9.06796 153.217 8.5595 153.75C7.51836 154.827 -0.0601708 155.59 0.000360622 156.631C0.0608921 157.672 7.50625 158.168 8.5595 159.185C9.15271 159.754 10.3876 168.011 11.4892 167.938C12.5909 167.866 13.5352 159.742 14.08 159.185C15.0727 158.144 22.7118 157.345 22.6512 156.292C22.5907 155.239 15.0848 154.718 14.0679 153.738Z" fill="#FD6085"/>
<path d="M232.478 60.6048C231.861 60.0115 230.65 51.7914 229.549 51.8519C228.447 51.9124 227.479 60.0842 226.958 60.6168C225.929 61.6943 218.338 62.457 218.399 63.5103C218.459 64.5635 225.917 65.0356 226.958 66.0647C227.551 66.6337 228.786 74.8781 229.888 74.8054C230.989 74.7328 231.946 66.6095 232.478 66.0526C233.483 65.0114 241.122 64.2124 241.062 63.1592C241.001 62.1059 233.423 61.5854 232.478 60.6048Z" fill="#FD6085"/>
<path fill-rule="evenodd" clip-rule="evenodd" d="M147.609 42.6631C138.529 36.6968 128.437 32.4382 117.828 30.0968C115.527 29.6125 114.389 33.0992 116.714 33.5955C127.001 35.8326 136.791 39.9358 145.599 45.7018C146 45.8912 146.455 45.93 146.881 45.8109C147.308 45.6918 147.677 45.4229 147.921 45.0536C148.166 44.6842 148.269 44.2392 148.211 43.8001C148.154 43.361 147.94 42.9573 147.609 42.6631Z" fill="#FFA4AC"/>
<path fill-rule="evenodd" clip-rule="evenodd" d="M156.621 50.3605C156.016 49.684 155.314 49.1006 154.539 48.6293C154.13 48.3669 153.634 48.2757 153.159 48.3753C152.683 48.475 152.266 48.7575 151.996 49.162C151.734 49.5709 151.643 50.0666 151.742 50.5421C151.842 51.0177 152.125 51.4351 152.529 51.7043L153.316 52.237L153.51 52.4064C153.64 52.5265 153.762 52.656 153.873 52.7938C154.2 53.1516 154.653 53.368 155.136 53.3974C155.62 53.4268 156.096 53.2668 156.464 52.9512C156.821 52.6245 157.038 52.1713 157.067 51.6877C157.097 51.2041 156.937 50.7281 156.621 50.3605Z" fill="#FFA4AC"/>
<path fill-rule="evenodd" clip-rule="evenodd" d="M85.891 199.512C85.4522 199.548 85.0431 199.748 84.7449 200.072C84.4467 200.396 84.2812 200.821 84.2812 201.261C84.2812 201.701 84.4467 202.126 84.7449 202.45C85.0431 202.774 85.4522 202.974 85.891 203.01C86.3298 202.974 86.7389 202.774 87.0371 202.45C87.3353 202.126 87.5008 201.701 87.5008 201.261C87.5008 200.821 87.3353 200.396 87.0371 200.072C86.7389 199.748 86.3298 199.548 85.891 199.512Z" fill="white"/>
<path fill-rule="evenodd" clip-rule="evenodd" d="M147.985 187.648C147.523 187.648 147.08 187.832 146.753 188.159C146.426 188.486 146.242 188.929 146.242 189.392C146.242 189.854 146.426 190.297 146.753 190.624C147.08 190.951 147.523 191.135 147.985 191.135C148.448 191.135 148.891 190.951 149.218 190.624C149.545 190.297 149.729 189.854 149.729 189.392C149.729 188.929 149.545 188.486 149.218 188.159C148.891 187.832 148.448 187.648 147.985 187.648Z" fill="white"/>
<path fill-rule="evenodd" clip-rule="evenodd" d="M30.8129 131.535C30.374 131.572 29.965 131.772 29.6668 132.096C29.3686 132.42 29.2031 132.844 29.2031 133.285C29.2031 133.725 29.3686 134.149 29.6668 134.473C29.965 134.797 30.374 134.997 30.8129 135.034C31.2517 134.997 31.6608 134.797 31.959 134.473C32.2571 134.149 32.4226 133.725 32.4226 133.285C32.4226 132.844 32.2571 132.42 31.959 132.096C31.6608 131.772 31.2517 131.572 30.8129 131.535Z" fill="white"/>
<path fill-rule="evenodd" clip-rule="evenodd" d="M64.3449 185.906C63.8825 185.906 63.4391 186.09 63.1122 186.417C62.7852 186.744 62.6016 187.187 62.6016 187.65C62.6016 188.112 62.7852 188.555 63.1122 188.882C63.4391 189.209 63.8825 189.393 64.3449 189.393C64.8072 189.393 65.2506 189.209 65.5776 188.882C65.9045 188.555 66.0882 188.112 66.0882 187.65C66.0882 187.187 65.9045 186.744 65.5776 186.417C65.2506 186.09 64.8072 185.906 64.3449 185.906Z" fill="white"/>
<path fill-rule="evenodd" clip-rule="evenodd" d="M185.977 129.031C185.538 129.068 185.129 129.268 184.831 129.592C184.533 129.916 184.367 130.34 184.367 130.781C184.367 131.221 184.533 131.645 184.831 131.969C185.129 132.293 185.538 132.493 185.977 132.53C186.416 132.493 186.825 132.293 187.123 131.969C187.421 131.645 187.587 131.221 187.587 130.781C187.587 130.34 187.421 129.916 187.123 129.592C186.825 129.268 186.416 129.068 185.977 129.031Z" fill="white"/>
<path fill-rule="evenodd" clip-rule="evenodd" d="M164.461 141.824C164.022 141.861 163.613 142.061 163.315 142.385C163.017 142.709 162.852 143.133 162.852 143.574C162.852 144.014 163.017 144.438 163.315 144.762C163.613 145.086 164.022 145.286 164.461 145.323C164.9 145.286 165.309 145.086 165.607 144.762C165.906 144.438 166.071 144.014 166.071 143.574C166.071 143.133 165.906 142.709 165.607 142.385C165.309 142.061 164.9 141.861 164.461 141.824Z" fill="white"/>
<path fill-rule="evenodd" clip-rule="evenodd" d="M110.421 185.201C110.414 185.157 110.414 185.112 110.421 185.068C110.421 184.571 110.953 184.087 111.28 183.76C112.022 183.13 112.547 182.283 112.781 181.339C112.86 180.922 112.837 180.492 112.715 180.085C112.593 179.679 112.375 179.307 112.079 179.003C111.7 178.614 111.184 178.389 110.641 178.375C110.099 178.362 109.572 178.561 109.174 178.93C108.677 179.245 106.752 181.036 106.268 180.141C105.929 179.596 107.188 178.361 107.576 178.046C108.545 177.224 109.767 176.758 111.038 176.727C111.549 176.756 112.049 176.89 112.506 177.12C112.964 177.349 113.37 177.67 113.698 178.063C114.027 178.455 114.272 178.91 114.419 179.401C114.565 179.892 114.609 180.407 114.549 180.915C114.438 182.107 113.91 183.221 113.06 184.063C112.682 184.466 112.255 184.82 111.789 185.116C111.554 185.274 111.283 185.37 111.002 185.395C110.896 185.417 110.787 185.411 110.685 185.377C110.583 185.343 110.492 185.282 110.421 185.201Z" fill="#074785"/>
<path fill-rule="evenodd" clip-rule="evenodd" d="M93.0466 160.843C94.7549 161.393 96.3372 162.276 97.702 163.441C99.0668 164.606 100.187 166.031 100.998 167.632C101.808 169.233 102.293 170.979 102.425 172.768C102.556 174.558 102.331 176.356 101.763 178.058C100.646 181.518 98.2083 184.397 94.9804 186.07C91.7524 187.743 87.9948 188.075 84.5238 186.993C82.8153 186.443 81.2327 185.56 79.8675 184.395C78.5023 183.23 77.3815 181.806 76.5699 180.205C75.7582 178.605 75.2719 176.859 75.1389 175.069C75.0059 173.279 75.229 171.481 75.7951 169.778C76.9124 166.315 79.3518 163.434 82.5825 161.761C85.8132 160.088 89.574 159.758 93.0466 160.843Z" fill="white"/>
<path fill-rule="evenodd" clip-rule="evenodd" d="M78.8217 164.635C78.3749 166.734 78.4742 168.913 79.1101 170.963C79.746 173.012 80.8972 174.865 82.4535 176.342C83.6383 177.463 85.0339 178.337 86.5592 178.914C88.0845 179.49 89.7092 179.758 91.339 179.702C92.9688 179.646 94.5711 179.266 96.053 178.585C97.5349 177.905 98.8668 176.936 99.9714 175.737C100.983 174.675 101.802 173.447 102.393 172.105C102.077 169.543 101.033 167.125 99.3854 165.138C97.7375 163.151 95.5544 161.679 93.095 160.895C90.607 160.09 87.9407 160.015 85.4113 160.678C82.8819 161.341 80.5953 162.714 78.8217 164.635Z" fill="#074785"/>
<path fill-rule="evenodd" clip-rule="evenodd" d="M136.078 161.463C137.742 162.134 139.257 163.128 140.535 164.388C141.813 165.648 142.828 167.149 143.523 168.803C144.217 170.458 144.577 172.234 144.581 174.029C144.586 175.823 144.234 177.601 143.547 179.259C142.187 182.634 139.548 185.334 136.206 186.772C132.863 188.21 129.088 188.268 125.703 186.934C124.04 186.263 122.526 185.269 121.249 184.01C119.972 182.751 118.957 181.252 118.263 179.598C117.568 177.945 117.208 176.17 117.203 174.377C117.198 172.584 117.548 170.807 118.233 169.15C119.593 165.775 122.231 163.074 125.573 161.634C128.915 160.194 132.691 160.133 136.078 161.463Z" fill="white"/>
<path fill-rule="evenodd" clip-rule="evenodd" d="M121.606 164.232C121.013 166.295 120.959 168.475 121.448 170.565C121.938 172.655 122.955 174.584 124.403 176.169C125.506 177.37 126.836 178.34 128.316 179.023C129.797 179.705 131.398 180.088 133.028 180.148C134.657 180.207 136.282 179.943 137.808 179.37C139.335 178.797 140.733 177.927 141.92 176.811C142.994 175.807 143.883 174.622 144.548 173.312C144.412 170.734 143.543 168.248 142.041 166.148C140.54 164.048 138.469 162.421 136.073 161.46C133.647 160.503 130.999 160.255 128.437 160.746C125.876 161.237 123.506 162.446 121.606 164.232Z" fill="#074785"/>
<path fill-rule="evenodd" clip-rule="evenodd" d="M118.755 199.513C116.076 197.765 112.956 196.812 109.758 196.763C106.559 196.714 103.412 197.57 100.68 199.234C99.4744 197.677 98.4012 196.02 97.4722 194.283C96.3826 191.862 98.247 189.549 100.983 189.683C104.821 193.956 112.896 194.356 117.072 190.445C117.52 190.022 117.569 189.235 117.799 188.617" fill="#074785"/>
<path fill-rule="evenodd" clip-rule="evenodd" d="M117.787 200.951C119.603 198.301 120.841 195.298 121.418 192.138C121.939 187.755 118.101 188.506 118.101 188.506L114.203 189.813" fill="#074785"/>
<path fill-rule="evenodd" clip-rule="evenodd" d="M118.107 188.617C117.934 189.324 117.574 189.972 117.066 190.494C112.925 194.44 104.814 194.005 100.977 189.731C106.57 189.319 112.502 188.908 118.107 188.617Z" fill="white"/>
<path fill-rule="evenodd" clip-rule="evenodd" d="M100.672 199.22C103.404 197.556 106.551 196.699 109.749 196.748C112.948 196.797 116.067 197.751 118.747 199.498C117.233 202.561 113.589 204.232 109.062 203.614C105.796 203.31 102.782 201.731 100.672 199.22Z" fill="#FFA4AC"/>
<path fill-rule="evenodd" clip-rule="evenodd" d="M135.916 153.797C134.51 152.824 132.866 152.252 131.16 152.141C129.454 152.03 127.75 152.385 126.231 153.168C124.632 153.991 126.025 156.4 127.623 155.589C128.719 155.042 129.944 154.809 131.165 154.916C132.385 155.023 133.551 155.465 134.535 156.194C136 157.139 137.405 154.778 135.916 153.797Z" fill="#074785"/>
<path fill-rule="evenodd" clip-rule="evenodd" d="M94.0275 152.818C92.493 152.058 90.7804 151.731 89.074 151.872C87.3675 152.013 85.7317 152.616 84.3424 153.617C82.8655 154.658 84.6088 156.849 86.0615 155.808C87.0665 155.109 88.2454 154.702 89.4676 154.631C90.6897 154.561 91.9076 154.83 92.9863 155.409C94.6086 156.171 95.6739 153.58 94.0275 152.818Z" fill="#074785"/>
<path fill-rule="evenodd" clip-rule="evenodd" d="M221.821 134.475C216.603 142.296 211.167 149.886 202.451 154.136C199.412 155.625 202.076 160.189 205.09 158.663C214.545 154.015 220.586 145.661 226.288 137.114C228.225 134.305 223.685 131.715 221.821 134.475Z" fill="white"/>
<path fill-rule="evenodd" clip-rule="evenodd" d="M232.165 127.224C232.51 126.614 232.606 125.894 232.431 125.215C232.242 124.555 231.81 123.993 231.221 123.641C230.921 123.461 230.589 123.343 230.243 123.293C229.897 123.243 229.545 123.262 229.206 123.35C228.868 123.438 228.551 123.593 228.273 123.805C227.995 124.017 227.763 124.282 227.589 124.585C227.114 125.416 226.833 126.343 226.766 127.297C226.769 127.991 227.045 128.655 227.534 129.147C228.024 129.639 228.687 129.918 229.381 129.924C230.038 129.917 230.669 129.665 231.151 129.217C231.632 128.77 231.929 128.158 231.983 127.503V127.418L232.165 127.224Z" fill="white"/>
<path fill-rule="evenodd" clip-rule="evenodd" d="M75.4385 117.333C67.8963 113.52 60.5719 108.52 56.0684 101.159C54.3372 98.2661 49.7974 100.905 51.5528 103.799C56.3953 111.922 64.3975 117.648 72.7388 121.849C75.8017 123.362 78.4529 118.847 75.4385 117.333Z" fill="white"/>
<path fill-rule="evenodd" clip-rule="evenodd" d="M86.8266 122.226L86.3666 122.081C85.9027 121.943 85.422 121.87 84.938 121.863C84.2569 121.879 83.6082 122.157 83.1276 122.64C82.647 123.123 82.3717 123.773 82.3594 124.454C82.3686 125.112 82.6211 125.743 83.0682 126.226C83.5153 126.709 84.1253 127.009 84.7806 127.069L85.2528 127.202C85.7166 127.34 86.1974 127.414 86.6813 127.42C87.3739 127.417 88.0372 127.14 88.5269 126.651C89.0166 126.161 89.2931 125.498 89.2963 124.805C89.2853 124.143 89.0247 123.51 88.5668 123.032C88.1089 122.554 87.4874 122.266 86.8266 122.226Z" fill="white"/>
<path d="M57.2615 74.0897C58.2728 74.4624 59.164 75.1026 59.8401 75.942C60.5089 76.7877 61.0102 77.7533 61.3171 78.7869C61.8405 78.6696 62.3699 78.5807 62.903 78.5206C63.5139 78.4515 64.1284 78.4192 64.7432 78.4238C65.3589 78.4251 65.9738 78.4696 66.5833 78.5569C67.1262 78.6187 67.6591 78.7488 68.1693 78.9443C68.6479 79.113 69.0681 79.4156 69.3799 79.816C69.5288 80.0226 69.6187 80.2658 69.6401 80.5195C69.6614 80.7733 69.6133 81.0281 69.501 81.2566C69.396 81.5063 69.2303 81.7257 69.0188 81.8949C68.8074 82.064 68.5569 82.1776 68.2903 82.2251C67.6354 82.4048 66.9598 82.4984 66.2807 82.5036C65.5301 82.5036 64.7916 82.5036 64.041 82.5036C63.4282 82.4659 62.8137 82.4659 62.2009 82.5036C62.1827 82.8141 62.1827 83.1253 62.2009 83.4358C62.2009 83.7384 62.2009 84.0532 62.2009 84.38L63.5689 84.9975C64.1514 85.2646 64.7103 85.5805 65.2395 85.9418C65.7383 86.2671 66.1766 86.6768 66.5349 87.1524C66.6897 87.333 66.7928 87.5521 66.8333 87.7866C66.8738 88.021 66.8502 88.262 66.7649 88.4841C66.6816 88.7217 66.5369 88.9331 66.3456 89.0968C66.1542 89.2605 65.923 89.3707 65.6754 89.4163C65.1117 89.526 64.5321 89.526 63.9684 89.4163C63.3499 89.309 62.7422 89.147 62.1524 88.932L60.7481 88.4115C60.0217 88.133 59.3195 87.8303 58.6295 87.5277C57.9394 87.225 57.2252 86.9345 56.5109 86.656C55.7966 86.3776 55.1792 86.1476 54.5013 85.9176C53.8233 85.6876 53.1575 85.4333 52.4795 85.167L51.8863 84.9369C51.6563 84.8522 51.4141 84.7433 51.1599 84.6222L50.4699 84.259C50.2828 84.1653 50.1146 84.0381 49.9735 83.8837C49.6629 83.4748 49.4854 82.9804 49.465 82.4673C49.3787 81.7686 49.3544 81.0637 49.3924 80.3608C49.416 79.6509 49.4848 78.9433 49.5982 78.2421C49.6669 77.7396 49.7845 77.2449 49.9493 76.7652C50.2029 76.0477 50.617 75.3977 51.1599 74.8645C51.6603 74.3851 52.2655 74.0286 52.9274 73.8234C53.6 73.6124 54.3073 73.5343 55.0097 73.5933C55.7815 73.641 56.5412 73.8085 57.2615 74.0897ZM55.9177 78.4964C55.6004 78.3433 55.2366 78.3173 54.9008 78.4238C54.74 78.4966 54.5971 78.6036 54.4821 78.7375C54.3671 78.8713 54.2827 79.0287 54.2349 79.1986C54.1194 79.5175 54.0541 79.8524 54.0412 80.1913C54.0162 80.5298 54.0162 80.8697 54.0412 81.2082C55.2518 81.6198 56.4625 82.0678 57.6731 82.5399C57.7028 82.1571 57.7028 81.7726 57.6731 81.3898C57.6405 80.977 57.555 80.5702 57.4189 80.1792C57.2863 79.8075 57.0942 79.4599 56.8499 79.1501C56.6115 78.8329 56.2883 78.5896 55.9177 78.448V78.4964Z" fill="white"/>
<path d="M71.7183 67.4321C71.9944 67.5977 72.2236 67.831 72.3841 68.1101C72.5782 68.5899 72.665 69.1064 72.6383 69.6234C72.6481 70.3875 72.6117 71.1517 72.5294 71.9115C72.4446 72.7226 72.3236 73.4974 72.1783 74.2116C72.0891 74.7364 71.926 75.2459 71.694 75.7249C71.5452 75.9575 71.3615 76.1658 71.1493 76.3424C70.8853 76.5633 70.6061 76.7656 70.3139 76.9477C70.0191 77.1247 69.7067 77.2707 69.3817 77.3835C69.1224 77.4838 68.8484 77.541 68.5706 77.553C68.3326 77.5213 68.1003 77.4561 67.8806 77.3593C67.5416 77.2261 67.1784 77.0687 66.7547 76.8629L65.4351 76.2092L64.1034 75.5191C63.6918 75.3012 63.3165 75.1075 63.0017 74.9259L62.3117 74.5264C61.7911 74.2238 61.1979 73.8363 60.532 73.4005C59.8662 72.9647 59.2246 72.4805 58.595 71.9841C57.9849 71.484 57.4105 70.942 56.8759 70.3619C56.3971 69.8542 56.0082 69.2688 55.7258 68.6307C55.6643 68.3556 55.6643 68.0704 55.7258 67.7953C55.7699 67.3592 55.8427 66.9265 55.9437 66.4999C56.0527 66.0157 56.198 65.5072 56.3675 64.9745C56.537 64.4419 56.6943 63.9213 56.8759 63.4491C57.0575 62.977 57.227 62.5291 57.3844 62.1538C57.5056 61.8599 57.643 61.5729 57.796 61.2942C57.9156 61.0821 58.0862 60.9032 58.2924 60.7737C58.493 60.6363 58.7196 60.5416 58.9582 60.4952C59.195 60.4599 59.4357 60.4599 59.6725 60.4952C59.9128 60.5282 60.1436 60.6107 60.3505 60.7373C60.5136 60.825 60.6577 60.9444 60.7742 61.0884C60.8871 61.2353 60.9845 61.3935 61.0647 61.5606C61.1833 61.9815 61.2283 62.4197 61.1979 62.8559C61.1979 63.4613 61.1979 64.0666 61.0768 64.7808C60.9558 65.4951 60.9194 66.1125 60.8347 66.7178C60.75 67.3232 60.6773 67.759 60.641 68.0011L61.5248 68.7759C61.8274 69.0302 62.1301 69.2844 62.4569 69.5144C62.5004 68.884 62.5853 68.2572 62.7112 67.6379C62.8171 67.0206 63.0302 66.4265 63.3407 65.8825C63.4325 65.6576 63.5755 65.4573 63.7582 65.2974C63.941 65.1374 64.1586 65.0223 64.3936 64.9612C64.6287 64.9001 64.8748 64.8947 65.1123 64.9453C65.3498 64.996 65.5723 65.1013 65.762 65.253C65.983 65.3843 66.173 65.5618 66.3189 65.7736C66.4413 65.9777 66.5349 66.1976 66.5973 66.4273C66.648 66.67 66.6683 66.9181 66.6578 67.1658C66.6578 67.42 66.6578 67.6621 66.6578 67.9164C66.633 68.5185 66.5602 69.1176 66.4399 69.7081L66.0767 71.5119L66.3915 71.8267C66.5056 71.9301 66.6315 72.0195 66.7668 72.093C66.965 72.2123 67.1713 72.3175 67.3842 72.4078L68.0379 72.6742C68.0379 72.4805 68.1469 72.1415 68.2437 71.6936C68.3406 71.2456 68.4496 70.7735 68.5706 70.2892C68.6917 69.805 68.8127 69.3328 68.9459 68.897C69.0357 68.5711 69.1574 68.2548 69.3091 67.9527C69.4359 67.7493 69.6052 67.5759 69.8055 67.4442C69.9986 67.3144 70.2175 67.2278 70.4471 67.19C70.6797 67.1537 70.9166 67.1537 71.1493 67.19C71.3518 67.2364 71.5444 67.3184 71.7183 67.4321Z" fill="white"/>
<path d="M80.4818 58.0145C80.8014 58.3145 80.9923 58.7268 81.0145 59.1646C81.0609 59.7164 81.0201 60.272 80.8934 60.811C80.7495 61.4484 80.5511 62.0722 80.3002 62.6754C80.0217 63.3171 79.7433 63.886 79.4285 64.5156C79.1462 65.0682 78.8351 65.6057 78.4964 66.1257C78.2536 66.5095 77.9867 66.8775 77.6973 67.2274C77.4728 67.4753 77.23 67.7059 76.971 67.9174C76.7231 68.1312 76.4218 68.2735 76.0993 68.3291C75.8456 68.3319 75.5954 68.2694 75.3729 68.1475C75.0461 67.9901 74.6708 67.7843 74.247 67.5421C73.8233 67.3 73.3875 67.0095 72.9275 66.6947C72.4674 66.38 72.0316 66.0652 71.6079 65.7383L70.3972 64.8545C70.034 64.5761 69.7677 64.3582 69.5861 64.1887C69.4045 64.0192 68.9082 63.5713 68.4844 63.1718C68.0607 62.7723 67.6128 62.3243 67.1406 61.8401C66.6685 61.3558 66.2085 60.8595 65.7363 60.3389C65.2642 59.8184 64.8405 59.322 64.4409 58.8256C64.0786 58.3806 63.7469 57.9114 63.4482 57.4213C63.2171 57.0651 63.0377 56.6779 62.9156 56.2712C62.8442 56.0439 62.8323 55.8022 62.881 55.569C62.9298 55.3359 63.0375 55.1191 63.194 54.9395C63.2931 54.8182 63.4165 54.719 63.5561 54.6481C63.6958 54.5773 63.8487 54.5363 64.0051 54.5279C64.3515 54.5069 64.6983 54.5605 65.022 54.6853C65.4136 54.8221 65.7875 55.005 66.1358 55.2301C66.5111 55.4601 66.8743 55.7022 67.2133 55.9565L68.1455 56.707L68.7871 57.2881C69.7556 58.1356 70.6999 58.9951 71.6079 59.8789C72.5158 60.7626 73.4601 61.6222 74.4286 62.4696L75.155 63.1112C75.4698 62.397 75.8451 61.6464 76.2688 60.8595C76.6612 60.1107 77.1364 59.4081 77.6852 58.7651C77.8747 58.5514 78.0769 58.3493 78.2905 58.1598C78.4869 57.9788 78.7119 57.8315 78.9564 57.724C79.1807 57.6254 79.4282 57.5918 79.6707 57.6271C79.9757 57.6656 80.2601 57.8014 80.4818 58.0145Z" fill="white"/>
<path d="M90.8328 50.1917C91.062 50.5159 91.2683 50.8557 91.4503 51.2086C91.6754 51.6079 91.8463 52.0353 91.9587 52.4797C92.06 52.8749 92.0847 53.2859 92.0314 53.6904C91.9966 53.8936 91.9207 54.0875 91.8082 54.2603C91.6958 54.4331 91.5493 54.5811 91.3776 54.6952C91.1699 54.8622 90.9229 54.9732 90.6601 55.0177C90.3974 55.0622 90.1276 55.0387 89.8765 54.9494C89.3334 54.7456 88.8357 54.4371 88.4116 54.0415C87.9395 53.6122 87.506 53.1423 87.1162 52.6371C86.7167 52.1287 86.4019 51.717 86.1598 51.4265C85.3124 52.2739 84.4649 53.1093 83.6054 53.8478C83.7991 54.1706 84.017 54.5943 84.2591 55.1189C84.5 55.6338 84.6827 56.1738 84.8039 56.7291C84.9275 57.2565 84.9562 57.8017 84.8886 58.3392C84.8617 58.5814 84.7829 58.8148 84.6575 59.0237C84.5322 59.2327 84.3633 59.4121 84.1623 59.5498C84.0224 59.6599 83.8576 59.734 83.6825 59.7656C83.5073 59.7973 83.327 59.7855 83.1575 59.7314C82.7894 59.6249 82.4474 59.4436 82.1526 59.1988C81.8193 58.9462 81.5184 58.6534 81.2568 58.3271C80.9904 57.9881 80.7725 57.7218 80.6151 57.4918C80.0658 56.7256 79.5799 55.9158 79.1624 55.0705C78.7508 54.2352 78.3634 53.3998 77.9517 52.5403C77.758 52.0883 77.5401 51.5556 77.298 50.9423C77.0559 50.3248 76.8259 49.659 76.62 48.9689C76.4119 48.2652 76.2461 47.5497 76.1237 46.8261C75.9957 46.1316 75.943 45.4254 75.9663 44.7196C75.9873 44.0766 76.1183 43.4419 76.3537 42.8431C76.5941 42.2677 76.9929 41.7723 77.5038 41.4146C77.9608 41.0684 78.5064 40.8586 79.0776 40.8093C79.6298 40.767 80.185 40.8328 80.712 41.003C81.2854 41.1863 81.8312 41.447 82.3342 41.7778C82.863 42.1104 83.3685 42.4785 83.8475 42.8795C84.3318 43.279 84.7797 43.6785 85.2034 44.0901L86.3414 45.1676C87.1404 45.9182 87.9152 46.6929 88.6779 47.5041C89.4566 48.3498 90.1766 49.2478 90.8328 50.1917ZM83.4238 48.0973C83.3148 47.9278 83.109 47.6736 82.8306 47.3225C82.5424 46.9635 82.231 46.6238 81.8984 46.3056C81.5944 46.0077 81.2525 45.7513 80.8815 45.5429C80.7499 45.4574 80.5964 45.4119 80.4396 45.4119C80.2827 45.4119 80.1292 45.4574 79.9977 45.5429C79.9224 45.6128 79.8654 45.7002 79.8316 45.7972C79.7979 45.8943 79.7884 45.9982 79.804 46.0997C79.8257 46.4079 79.8826 46.7125 79.9735 47.0077C80.09 47.3824 80.2274 47.7502 80.3851 48.1094C80.5546 48.4968 80.7241 48.86 80.8936 49.2111C81.0631 49.5621 81.2204 49.8648 81.3657 50.1311C81.511 50.3975 81.6321 50.5912 81.6926 50.7122C82.4432 50.0585 83.1696 49.3926 83.8475 48.7026L83.4238 48.0973Z" fill="white"/>
<path d="M97.8752 32.1902C98.0316 32.5554 98.1257 32.9441 98.1537 33.3403C98.1906 33.7875 98.1906 34.237 98.1537 34.6841C98.1537 35.1442 98.1537 35.6042 98.0689 36.0642C97.9842 36.5243 97.9721 36.9117 97.9236 37.2749C97.9236 38.086 97.7905 38.885 97.7299 39.6961C97.6694 40.5072 97.5726 41.3305 97.4636 42.1174C97.8026 42.3595 98.2505 42.7106 98.8195 43.1464C99.3885 43.5822 99.9454 44.0665 100.514 44.5749C101.083 45.0834 101.604 45.604 102.088 46.1125C102.489 46.5064 102.82 46.9648 103.069 47.4684C103.202 47.7728 103.24 48.1104 103.178 48.4369C103.157 48.6014 103.09 48.7568 102.985 48.8852C102.881 49.0137 102.742 49.11 102.585 49.1632C102.111 49.3353 101.593 49.3353 101.12 49.1632C100.527 48.992 99.9544 48.7566 99.4127 48.4611C98.8316 48.1463 98.2868 47.8073 97.7663 47.4563L96.5556 46.5725C96.4467 47.0204 96.3256 47.4563 96.1924 47.8921C96.0593 48.3279 95.9382 48.7637 95.8293 49.2117C95.7203 49.6596 95.6598 49.8412 95.5508 50.2286C95.4493 50.6405 95.3199 51.045 95.1634 51.4392C95.0221 51.8272 94.8352 52.1971 94.6065 52.5409C94.438 52.8318 94.1846 53.0642 93.8801 53.2067C93.712 53.2916 93.5214 53.3212 93.3354 53.2915C93.1683 53.2661 93.0102 53.1996 92.8753 53.0978C92.7271 52.9982 92.5997 52.8707 92.5 52.7225C92.3887 52.5768 92.2952 52.4183 92.2216 52.2503C92.0184 51.765 91.8958 51.2498 91.8584 50.725C91.8164 50.2012 91.8164 49.6749 91.8584 49.1511C91.923 47.2464 92.0319 45.3457 92.1853 43.4491C91.8705 43.1706 91.4468 42.7832 90.9746 42.2384C90.5025 41.6937 89.9335 41.1731 89.3887 40.6041C88.8439 40.0351 88.3597 39.454 87.9117 38.8729C87.5402 38.4349 87.2269 37.9507 86.9796 37.4322C86.795 37.0228 86.7279 36.5701 86.7859 36.1248C86.8208 35.9015 86.9176 35.6924 87.0652 35.5212C87.2128 35.35 87.4054 35.2236 87.6212 35.1563C87.8864 35.0358 88.1816 34.9979 88.4686 35.0473C88.7753 35.0894 89.0735 35.1793 89.3524 35.3136C89.6463 35.4468 89.9261 35.609 90.1877 35.7979C90.417 35.9611 90.6353 36.139 90.8415 36.3306L92.3184 37.6259C92.8148 38.0497 93.299 38.5097 93.7712 38.9818C93.7712 38.7155 93.8438 38.3523 93.9043 37.9044C93.9649 37.4565 94.0375 36.9601 94.1223 36.4274C94.207 35.8948 94.3402 35.35 94.4733 34.7931C94.6005 34.2585 94.7623 33.7329 94.9576 33.2193C95.1337 32.7715 95.3526 32.3417 95.6113 31.936C95.8053 31.6127 96.0922 31.3554 96.4346 31.1975C96.5835 31.1244 96.751 31.098 96.9152 31.1218C97.0794 31.1455 97.2326 31.2183 97.3546 31.3307C97.5954 31.5707 97.774 31.8657 97.8752 32.1902Z" fill="white"/>
</g>
<defs>
<clipPath id="clip0_5_463">
<rect width="241" height="217.514" fill="white"/>
</clipPath>
</defs>
</svg>
