<svg width="385" height="344" viewBox="0 0 385 344" fill="none" xmlns="http://www.w3.org/2000/svg">
<rect x="0.960176" y="0.77707" width="383.01" height="342.785" rx="25.7964" fill="#E5FF7D"/>
<rect x="0.960176" y="0.77707" width="383.01" height="342.785" rx="25.7964" stroke="black" stroke-width="0.874453"/>
<path d="M193.354 161.001C193.354 165.217 194.697 166.99 198.054 166.99V167.5H182.263V166.99C185.62 166.99 186.963 165.217 186.963 161.001V128.748H186.104C181.377 128.748 176.65 133.689 174.314 141.692H173.857L177.026 127.888H203.291L206.46 141.692H206.003C203.694 133.689 198.914 128.748 194.187 128.748H193.354V161.001ZM224.158 145.962C217.793 151.494 215.054 155.281 215.054 159.041C215.054 161.86 216.531 164.062 219.001 164.062C222.224 164.062 224.399 160.33 224.399 155.469V145.962H224.158ZM208.206 142.283C208.206 135.945 213.254 131.084 219.834 131.084C225.984 131.084 230.146 135.273 230.146 141.477V162.72C232.698 162.612 234.819 159.497 234.9 155.791H235.303C235.249 163.364 232.832 167.957 228.911 167.957C226.306 167.957 224.937 165.916 225.071 162.505L225.286 157.026H225.017C224.319 164.009 221.069 168.225 216.289 168.225C212.449 168.225 209.575 165.432 209.575 161.35C209.575 158.154 211.455 154.663 216.987 150.339L224.399 144.565V142.175C224.399 137.771 221.338 134.736 216.907 134.736C212.717 134.736 209.709 137.449 209.146 141.558H211.536C215.134 141.558 217.095 142.847 217.095 145.237C217.095 147.358 215.457 148.916 213.201 148.916C210.247 148.916 208.206 146.23 208.206 142.283ZM234.255 167.5V167.017C237.371 167.017 238.445 165.566 238.445 162.666V128.613C238.445 125.713 237.397 125.229 234.202 125.417V124.934C237.397 124.531 240.674 123.564 243.923 122.087H244.246V147.251L252.651 138.201C255.659 135.005 253.779 132.507 249.375 132.507V131.997H262.212V132.507C259.795 132.937 257.029 134.978 254.021 138.12L250.906 141.477L260.439 163.284C261.567 165.835 262.4 167.017 263.313 167.017V167.5H250.664V167.017C254.29 167.017 255.015 165.728 254.021 163.284L246.797 145.908L244.246 148.674V162.666C244.246 165.566 245.266 167.017 248.167 167.017V167.5H234.255ZM284.502 153.481C284.502 162.773 280.742 168.145 274.109 168.145C266.804 168.145 261.97 161.619 261.97 150.339C261.97 138.523 267.126 131.191 274.753 131.191C279.749 131.191 284.529 134.521 284.529 144.163H267.529C267.502 144.834 267.476 145.505 267.476 146.23C267.476 157.214 270.994 163.311 276.526 163.311C280.876 163.311 284.019 159.47 284.019 153.481H284.502ZM267.556 143.223H278.647C278.674 142.9 278.674 142.578 278.674 142.256C278.674 136.106 276.499 132.239 273.357 132.239C270.161 132.239 268.013 136.133 267.556 143.223ZM313.372 145.962C307.007 151.494 304.268 155.281 304.268 159.041C304.268 161.86 305.745 164.062 308.215 164.062C311.438 164.062 313.613 160.33 313.613 155.469V145.962H313.372ZM297.419 142.283C297.419 135.945 302.468 131.084 309.048 131.084C315.198 131.084 319.36 135.273 319.36 141.477V162.72C321.912 162.612 324.033 159.497 324.114 155.791H324.517C324.463 163.364 322.046 167.957 318.125 167.957C315.52 167.957 314.15 165.916 314.285 162.505L314.5 157.026H314.231C313.533 164.009 310.283 168.225 305.503 168.225C301.663 168.225 298.789 165.432 298.789 161.35C298.789 158.154 300.669 154.663 306.201 150.339L313.613 144.565V142.175C313.613 137.771 310.552 134.736 306.121 134.736C301.931 134.736 298.923 137.449 298.359 141.558H300.75C304.348 141.558 306.309 142.847 306.309 145.237C306.309 147.358 304.67 148.916 302.415 148.916C299.46 148.916 297.419 146.23 297.419 142.283ZM29.1333 227.5V227.017C32.1411 227.017 33.1885 225.566 33.1885 222.666V197.556C33.1885 194.79 32.356 194.119 29.1333 194.333V193.85C32.0874 193.447 35.1758 192.561 38.6938 191.003H39.043V192.534C39.043 196.75 38.6401 199.355 38.1836 202.578H38.5059C39.3384 195.381 42.7222 191.191 47.6636 191.191C52.2827 191.191 54.3506 195.166 53.4375 202.336H53.7598C54.458 195.247 57.8955 191.191 63.0518 191.191C67.3218 191.191 69.6582 194.119 69.6582 199.275V222.666C69.6582 225.566 70.7056 227.017 73.7134 227.017V227.5H60.2051V227.017C62.8638 227.017 63.8037 225.566 63.8037 222.666V199.463C63.8037 196.482 62.4878 194.763 60.1245 194.763C56.5527 194.763 54.3237 198.577 54.3237 204.753V222.666C54.3237 225.566 55.2637 227.017 57.9224 227.017V227.5H44.9512V227.017C47.6099 227.017 48.5498 225.566 48.5498 222.666V199.463C48.5498 196.482 47.2339 194.763 44.8975 194.763C41.4062 194.763 39.0967 198.872 39.0967 205.103V222.666C39.0967 225.566 40.0366 227.017 42.6953 227.017V227.5H29.1333ZM96.1914 213.481C96.1914 222.773 92.4316 228.145 85.7983 228.145C78.4937 228.145 73.6597 221.619 73.6597 210.339C73.6597 198.523 78.8159 191.191 86.4429 191.191C91.438 191.191 96.2183 194.521 96.2183 204.163H79.2188C79.1919 204.834 79.165 205.505 79.165 206.23C79.165 217.214 82.6831 223.311 88.2153 223.311C92.5659 223.311 95.708 219.47 95.708 213.481H96.1914ZM79.2456 203.223H90.3369C90.3638 202.9 90.3638 202.578 90.3638 202.256C90.3638 196.106 88.1885 192.239 85.0464 192.239C81.8506 192.239 79.7021 196.133 79.2456 203.223ZM96.7017 227.5V227.017C99.7095 227.017 100.757 225.566 100.757 222.666L100.784 197.556C100.784 194.683 99.7632 194.119 96.7285 194.333V193.85C99.79 193.42 102.878 192.507 106.262 191.003H106.611V191.648C106.611 194.897 106.45 196.643 105.752 202.578H106.074C106.987 195.032 110.586 191.191 115.527 191.191C120.039 191.191 122.375 194.387 122.375 199.275V222.666C122.375 225.566 123.423 227.017 126.404 227.017V227.5H112.815V227.017C115.527 227.017 116.494 225.566 116.494 222.666V199.463C116.494 196.697 115.259 194.763 112.627 194.763C109.619 194.763 106.665 197.69 106.665 204.941V222.666C106.665 225.566 107.605 227.017 110.317 227.017V227.5H96.7017ZM134.702 219.98C134.702 222.263 135.75 223.445 137.791 223.445C140.798 223.445 142.625 220.625 142.625 215.872H143.054C143.054 223.875 140.261 228.145 135.186 228.145C131.184 228.145 128.875 225.566 128.875 221.162V195.676H124.255V195.327C130.083 192.856 133.413 188.774 134.058 184.048H134.622V191.997H142.625V195.676H134.702V219.98ZM160.188 205.962C153.823 211.494 151.084 215.281 151.084 219.041C151.084 221.86 152.561 224.062 155.032 224.062C158.254 224.062 160.43 220.33 160.43 215.469V205.962H160.188ZM144.236 202.283C144.236 195.945 149.285 191.084 155.864 191.084C162.014 191.084 166.177 195.273 166.177 201.477V222.72C168.728 222.612 170.85 219.497 170.93 215.791H171.333C171.279 223.364 168.862 227.957 164.941 227.957C162.336 227.957 160.967 225.916 161.101 222.505L161.316 217.026H161.047C160.349 224.009 157.1 228.225 152.319 228.225C148.479 228.225 145.605 225.432 145.605 221.35C145.605 218.154 147.485 214.663 153.018 210.339L160.43 204.565V202.175C160.43 197.771 157.368 194.736 152.937 194.736C148.748 194.736 145.74 197.449 145.176 201.558H147.566C151.165 201.558 153.125 202.847 153.125 205.237C153.125 207.358 151.487 208.916 149.231 208.916C146.277 208.916 144.236 206.23 144.236 202.283ZM170.286 227.5V227.017C173.401 227.017 174.475 225.566 174.475 222.666L174.502 188.613C174.502 185.713 173.428 185.229 170.232 185.417V184.934C173.428 184.531 176.65 183.564 179.927 182.087H180.249V222.666C180.249 225.566 181.323 227.017 184.438 227.017V227.5H170.286ZM203.237 202.605C204.231 195.032 207.185 191.245 211.777 191.245C217.954 191.245 221.445 197.878 221.445 209.158C221.445 221.028 217.578 228.198 211.187 228.198C206.729 228.198 204.016 224.6 203.157 217.832H202.942C200.955 221.001 199.424 224.224 198.376 227.715H197.947L198 188.613C198 185.874 197.114 185.203 193.73 185.417V184.934C196.926 184.531 200.176 183.591 203.425 182.087H203.748V189.634C203.748 193.232 203.56 196.589 202.942 202.605H203.237ZM203.748 214.448C203.748 220.464 206.084 224.546 209.441 224.546C213.254 224.546 215.376 219.094 215.376 209.99C215.376 200.564 213.066 194.736 209.199 194.736C205.815 194.736 203.748 199.248 203.748 206.526V214.448ZM222.224 227.5V227.017C225.232 227.017 226.279 225.566 226.279 222.666L226.306 197.556C226.306 194.79 225.5 194.119 222.251 194.333V193.85C225.312 193.42 228.401 192.507 231.785 191.003H232.107V191.514C232.107 194.978 231.919 197.1 231.274 203.008H231.57C232.268 196.428 235.652 191.353 240.486 191.353C243.44 191.353 245.535 193.474 245.508 196.401C245.508 198.684 243.95 200.349 241.855 200.349C239.6 200.349 238.069 198.657 238.069 195.837V193.447C234.954 194.333 232.188 199.463 232.188 204.995V222.344C232.188 225.19 233.208 226.748 236.028 226.963H238.149V227.5H222.224ZM267.744 213.481C267.744 222.773 263.984 228.145 257.351 228.145C250.046 228.145 245.212 221.619 245.212 210.339C245.212 198.523 250.369 191.191 257.996 191.191C262.991 191.191 267.771 194.521 267.771 204.163H250.771C250.745 204.834 250.718 205.505 250.718 206.23C250.718 217.214 254.236 223.311 259.768 223.311C264.119 223.311 267.261 219.47 267.261 213.481H267.744ZM250.798 203.223H261.89C261.917 202.9 261.917 202.578 261.917 202.256C261.917 196.106 259.741 192.239 256.599 192.239C253.403 192.239 251.255 196.133 250.798 203.223ZM285.979 205.962C279.614 211.494 276.875 215.281 276.875 219.041C276.875 221.86 278.352 224.062 280.823 224.062C284.045 224.062 286.221 220.33 286.221 215.469V205.962H285.979ZM270.027 202.283C270.027 195.945 275.076 191.084 281.655 191.084C287.805 191.084 291.968 195.273 291.968 201.477V222.72C294.519 222.612 296.641 219.497 296.721 215.791H297.124C297.07 223.364 294.653 227.957 290.732 227.957C288.127 227.957 286.758 225.916 286.892 222.505L287.107 217.026H286.838C286.14 224.009 282.891 228.225 278.11 228.225C274.27 228.225 271.396 225.432 271.396 221.35C271.396 218.154 273.276 214.663 278.809 210.339L286.221 204.565V202.175C286.221 197.771 283.159 194.736 278.728 194.736C274.539 194.736 271.531 197.449 270.967 201.558H273.357C276.956 201.558 278.916 202.847 278.916 205.237C278.916 207.358 277.278 208.916 275.022 208.916C272.068 208.916 270.027 206.23 270.027 202.283ZM296.077 227.5V227.017C299.192 227.017 300.266 225.566 300.266 222.666V188.613C300.266 185.713 299.219 185.229 296.023 185.417V184.934C299.219 184.531 302.495 183.564 305.745 182.087H306.067V207.251L314.473 198.201C317.48 195.005 315.601 192.507 311.196 192.507V191.997H324.033V192.507C321.616 192.937 318.85 194.978 315.842 198.12L312.727 201.477L322.261 223.284C323.389 225.835 324.221 227.017 325.134 227.017V227.5H312.485V227.017C316.111 227.017 316.836 225.728 315.842 223.284L308.618 205.908L306.067 208.674V222.666C306.067 225.566 307.087 227.017 309.988 227.017V227.5H296.077Z" fill="black"/>
</svg>
