<svg xmlns="http://www.w3.org/2000/svg" width="109" height="72" viewBox="0 0 109 72" fill="none">
  <mask id="mask0_5_948" style="mask-type:luminance" maskUnits="userSpaceOnUse" x="0" y="0" width="109" height="72">
    <path d="M0.9375 0.169922H108.502V71.1699H0.9375V0.169922Z" fill="white"/>
  </mask>
  <g mask="url(#mask0_5_948)">
    <path d="M101.758 38.9168C103.279 40.4409 104.591 41.757 104.591 44.4515C104.591 46.7155 103.117 48.4034 102.238 49.2072C100.894 50.4362 99.1634 51.2312 97.8277 51.2312C97.1679 51.2312 96.6344 51.7665 96.6344 52.4281C96.6344 53.088 97.1679 53.6233 97.8277 53.6233C98.4929 53.6233 99.1901 53.5095 99.8944 53.2943C99.9335 53.9772 99.9353 55.0977 99.6809 56.2822C99.1705 58.6458 97.8846 60.186 95.8589 60.8636C92.3464 62.0374 89.0881 59.5191 89.0241 59.4675C88.5101 59.0566 87.7614 59.1402 87.3487 59.6542C86.9361 60.17 87.0179 60.9223 87.5319 61.3367C87.5835 61.3776 87.9783 61.6888 88.6275 62.0659C88.4728 62.6635 88.0512 64.0578 87.2242 65.4219C85.8744 67.6486 84.0887 68.778 81.9136 68.778C79.132 68.778 77.1596 67.6806 76.0534 65.518C75.1784 63.8088 75.1517 62.0356 75.1499 61.9947V58.8076C75.1499 58.1478 74.6164 57.6125 73.9565 57.6125C73.2985 57.6125 72.7632 58.1478 72.7632 58.8076V61.9947C72.7632 62.0125 72.7418 63.7982 71.8614 65.518C70.7534 67.6806 68.7828 68.778 65.9995 68.778C64.4753 68.778 63.1859 68.3689 62.1703 67.5633C61.3398 66.907 60.6657 65.9715 60.1642 64.7852C59.2945 62.731 59.2393 60.6128 59.2376 60.419C59.2411 60.1095 59.1273 59.7965 58.8925 59.56C58.4817 59.1438 57.8432 59.0922 57.3772 59.4106C57.3755 59.4123 57.3737 59.4123 57.3719 59.4141C57.3434 59.4337 57.315 59.455 57.2883 59.4781C57.2723 59.4888 57.2599 59.503 57.2456 59.5155C57.2332 59.5262 57.219 59.5368 57.2065 59.5493C57.1816 59.5742 54.697 61.9627 52.136 60.8938C49.052 59.6062 49.1747 56.6343 49.5642 53.7015C49.5678 53.6749 49.5713 53.65 49.5749 53.6233H59.3674C60.2371 54.0234 63.0863 55.2186 65.9995 55.2186C69.0389 55.2186 70.8406 54.0519 71.817 53.0737C73.1011 51.7861 73.5581 50.2477 73.5581 49.2375V44.4515C73.5581 43.7917 73.0246 43.2546 72.3648 43.2546H68.8006C68.9625 42.9469 69.0763 42.6178 69.1119 42.2764C69.1866 41.5881 68.9447 40.9265 68.436 40.416C66.9741 38.9488 64.3117 40.1688 62.4371 41.2128C61.0623 41.9776 59.8156 42.8437 59.2447 43.2546H38.9465C38.9323 43.2546 38.9181 43.2563 38.9038 43.2581C38.886 43.2581 38.87 43.2581 38.8522 43.2599C38.8291 43.2617 38.806 43.2652 38.7847 43.267C38.7687 43.2706 38.7527 43.2723 38.7366 43.2741C38.7117 43.2795 38.6886 43.2848 38.6655 43.2901C38.6513 43.2937 38.6371 43.2972 38.6228 43.3008C38.5979 43.3079 38.573 43.3168 38.5481 43.3239C38.5357 43.3293 38.5232 43.3328 38.5108 43.3381C38.4859 43.3488 38.4628 43.3595 38.4379 43.3702C38.4307 43.3737 38.4218 43.3773 38.4147 43.3808C38.3845 43.3951 35.4322 44.8499 32.5812 44.8499C30.8436 44.8499 29.5737 44.3483 28.6987 43.3168C27.3097 41.677 27.2243 39.0857 27.299 37.6718H32.5812C33.1112 37.6718 33.5772 37.3232 33.7266 36.8128C33.876 36.3041 33.6732 35.7581 33.2268 35.47C32.6506 35.0983 32.0352 34.4883 31.8787 34.1575C32.1615 34.1415 33.0863 34.2286 35.2952 35.5038C36.855 36.4037 38.2066 37.4139 38.2298 37.4335C38.2369 37.4388 38.2458 37.4424 38.2529 37.4477C38.2707 37.4619 38.2902 37.4744 38.308 37.4851C38.324 37.4957 38.3383 37.5046 38.3525 37.5135C38.3721 37.5242 38.3916 37.5331 38.4094 37.5438C38.4272 37.5509 38.4432 37.5598 38.4592 37.5669C38.477 37.5758 38.4965 37.5829 38.5161 37.59C38.5339 37.5971 38.5517 37.6042 38.5695 37.6096C38.5872 37.6167 38.6068 37.622 38.6246 37.6273C38.6442 37.6327 38.6637 37.638 38.6833 37.6416C38.7011 37.6451 38.7189 37.6487 38.7384 37.6522C38.758 37.6558 38.7793 37.6594 38.8007 37.6629C38.8167 37.6647 38.8345 37.6665 38.854 37.6682C38.8754 37.6682 38.8967 37.67 38.9181 37.67C38.9287 37.67 38.9376 37.6718 38.9465 37.6718H51.6771C52.3369 37.6718 52.8705 37.1365 52.8705 36.4766C52.8705 35.815 52.3369 35.2797 51.6771 35.2797H39.336C38.7651 34.8689 37.5184 34.0027 36.1454 33.2362C34.269 32.1922 31.6084 30.9739 30.1464 32.4394C29.636 32.9499 29.3959 33.6115 29.4688 34.2997C29.5062 34.643 29.62 34.972 29.7801 35.2797H26.2159C25.6326 35.2797 25.1346 35.703 25.0385 36.2792C25.0296 36.3344 24.818 37.6345 24.9212 39.3045C25.0634 41.6254 25.7215 43.4947 26.8722 44.857C28.2096 46.4399 30.1304 47.2438 32.5812 47.2438C35.4962 47.2438 38.3436 46.0486 39.2151 45.6484H59.6342C59.6431 45.6484 59.652 45.6467 59.6608 45.6467C59.684 45.6467 59.7071 45.6449 59.7302 45.6431C59.7462 45.6413 59.764 45.6395 59.78 45.6378C59.8013 45.636 59.8227 45.6324 59.844 45.6289C59.8618 45.6253 59.8796 45.6218 59.8974 45.6182C59.917 45.6129 59.9365 45.6075 59.9579 45.6022C59.9756 45.5969 59.9934 45.5915 60.0112 45.5862C60.0308 45.5791 60.0486 45.5737 60.0663 45.5666C60.0841 45.5595 60.1037 45.5506 60.1215 45.5435C60.1393 45.5364 60.1553 45.5275 60.1713 45.5186C60.1908 45.5097 60.2086 45.499 60.2282 45.4884C60.2424 45.4795 60.2584 45.4706 60.2727 45.4617C60.2922 45.4492 60.31 45.4368 60.3278 45.4243C60.3367 45.419 60.3438 45.4137 60.3509 45.4083C60.3634 45.3994 61.7026 44.3946 63.2677 43.4893C65.4908 42.2052 66.4192 42.1163 66.7038 42.1341C66.549 42.4631 65.9408 43.0625 65.3539 43.4466C64.9092 43.733 64.7065 44.2808 64.8559 44.7894C65.0053 45.2981 65.4712 45.6484 65.9995 45.6484H71.1714V49.2375C71.1714 49.9951 70.2946 52.8265 65.9995 52.8265C63.1485 52.8265 60.1962 51.3717 60.1677 51.3575C60.1606 51.3539 60.1517 51.3503 60.1428 51.3468C60.1197 51.3361 60.0966 51.3254 60.0735 51.3148C60.0592 51.3094 60.0432 51.3041 60.029 51.2988C60.0077 51.2917 59.9863 51.2845 59.9632 51.2774C59.9454 51.2721 59.9276 51.2685 59.9098 51.2632C59.8903 51.2596 59.8707 51.2561 59.8529 51.2525C59.8298 51.2472 59.8085 51.2436 59.7853 51.2419C59.7693 51.2401 59.7551 51.2383 59.7373 51.2365C59.7124 51.2347 59.6875 51.233 59.6626 51.233C59.6537 51.233 59.6448 51.2312 59.6342 51.2312H48.4953C48.49 51.2312 48.4847 51.2312 48.4776 51.2312C48.4562 51.2312 48.4331 51.233 48.41 51.2347C48.394 51.2365 48.3762 51.2365 48.3602 51.2383C48.3388 51.2419 48.3175 51.2454 48.2962 51.249C48.2784 51.2525 48.2606 51.2543 48.2428 51.2579C48.2232 51.2632 48.2037 51.2685 48.1841 51.2739C48.1663 51.2774 48.1485 51.2828 48.1308 51.2881C48.1112 51.2952 48.0934 51.3023 48.0756 51.3094C48.0578 51.3148 48.0383 51.3219 48.0205 51.329C48.0045 51.3361 47.9867 51.345 47.9707 51.3539C47.9511 51.3628 47.9333 51.3717 47.9156 51.3806C47.9013 51.3895 47.8853 51.4001 47.8711 51.409C47.8515 51.4197 47.8337 51.4322 47.816 51.4446C47.8017 51.4535 47.7893 51.4642 47.775 51.4748C47.7573 51.4891 47.7395 51.5015 47.7217 51.5175C47.7181 51.5211 47.7128 51.5229 47.7092 51.5264L35.7327 62.0321C32.5741 59.4675 20.4322 49.5042 11.1359 40.4054C7.64824 36.9924 5.28815 33.3642 4.12323 29.624C3.10948 26.3747 3.05968 23.1325 3.97917 20.2477C4.68702 18.0192 5.96221 16.0558 7.66603 14.5707C9.37696 13.0785 11.4827 12.1021 13.7592 11.7429C16.7507 11.2733 19.9804 11.8745 23.1 13.4858C26.7246 15.3568 30.1233 18.4959 33.2019 22.8141C33.4331 23.1396 33.8102 23.3263 34.2086 23.3157C34.6069 23.3032 34.9733 23.0916 35.185 22.7536C37.2125 19.5007 39.6455 16.9006 42.4182 15.026C44.8796 13.3595 47.5936 12.3067 50.265 11.9794C54.2222 11.4939 57.9143 12.5966 60.3954 15.0029C60.4167 15.0242 60.4345 15.0402 60.4576 15.0598C60.4861 15.0829 63.2926 17.5159 63.4615 21.6652C63.6198 25.5495 61.5141 29.7112 57.1994 34.0347C56.7334 34.5025 56.7334 35.2601 57.1994 35.7261C57.6654 36.1939 58.4212 36.1939 58.8872 35.7261C63.7123 30.8903 66.0528 26.1097 65.8447 21.514C65.6189 16.5395 62.4424 13.6174 62.0298 13.2582C61.1904 12.4489 60.2424 11.7624 59.2091 11.204C59.2518 11.0012 59.2465 10.786 59.1753 10.5744C58.5777 8.77453 58.9459 6.81639 60.1908 5.19795C61.5603 3.4141 63.7034 2.43414 65.9248 2.57642C65.9497 2.5782 65.9746 2.5782 65.9995 2.5782C67.6766 2.5782 69.3484 3.36252 70.588 4.72842C71.5804 5.82398 72.7632 7.7928 72.7632 10.9532V17.3345C72.7632 17.9943 73.2985 18.5297 73.9565 18.5297C74.6164 18.5297 75.1499 17.9943 75.1499 17.3345V10.9532C75.1499 7.7928 76.3344 5.82398 77.3268 4.72842C78.5664 3.36252 80.2382 2.5782 81.9136 2.5782C86.1233 2.5782 88.5083 5.3509 88.6684 10.4019C88.2736 10.6509 87.8823 10.9336 87.4928 11.2502C85.3781 12.9772 84.1207 15.1025 84.0674 15.1914C83.7348 15.7605 83.9233 16.4933 84.4924 16.8294C85.0598 17.1638 85.7925 16.9735 86.1251 16.4026C86.1376 16.3848 87.2153 14.5636 89.001 13.107C91.2223 11.2947 93.4561 10.9301 95.6366 12.0239C97.8224 13.1177 98.9375 15.0171 98.9553 17.6689C98.9695 19.812 98.2528 21.6581 98.2457 21.6759C98.0981 22.044 98.1443 22.462 98.3666 22.7892C98.5872 23.1182 98.9589 23.3157 99.3537 23.3157C101.879 23.3157 106.117 24.196 106.117 30.0953C106.117 32.3541 105.178 34.113 103.327 35.3242C101.842 36.2952 99.761 36.875 97.7619 36.875C97.1039 36.875 96.5685 37.4104 96.5685 38.0702C96.5685 38.7318 97.1039 39.2671 97.7619 39.2671C99.0638 39.2671 100.371 39.0715 101.593 38.7087C101.639 38.7834 101.694 38.8527 101.758 38.9168ZM104.631 37.3286C107.165 35.671 108.504 33.1704 108.504 30.0953C108.504 26.9669 107.522 24.5606 105.589 22.9457C104.35 21.9106 102.76 21.2561 100.931 21.0214C101.143 20.1552 101.344 18.9974 101.344 17.7329C101.344 14.119 99.7396 11.4032 96.7055 9.88255C94.8238 8.94171 92.8941 8.75853 90.9947 9.32409C90.7653 6.68834 89.956 4.56124 88.5812 2.98725C86.9806 1.15539 84.6756 0.186097 81.9136 0.186097C79.5677 0.186097 77.2521 1.25498 75.5608 3.11886C74.9223 3.82493 74.3852 4.62882 73.9565 5.51096C73.5297 4.62882 72.9926 3.82493 72.3541 3.11886C70.6716 1.26565 68.372 0.198547 66.0386 0.186097C63.0382 0.00646725 60.1482 1.33146 58.2985 3.73779C57.4822 4.79956 56.9184 6.02851 56.6641 7.29303C56.4738 8.24632 56.4577 9.19604 56.6125 10.128C54.5601 9.50906 52.3014 9.31876 49.9751 9.6051C46.9303 9.97681 43.8552 11.1666 41.0825 13.043C38.4592 14.8179 36.1222 17.1656 34.1161 20.0379C31.0837 16.1109 27.7508 13.1959 24.1937 11.3587C20.6189 9.5144 16.8841 8.82967 13.3875 9.37923C10.6682 9.80785 8.148 10.9781 6.09916 12.7655C4.06632 14.5387 2.54569 16.8739 1.70445 19.5203C0.635565 22.8764 0.685363 26.6166 1.84495 30.339C3.12904 34.4616 5.69366 38.4241 9.46766 42.1181C20.2775 52.6949 34.8719 64.41 35.0196 64.5273C35.2365 64.7034 35.4998 64.7906 35.763 64.7906C36.044 64.7906 36.325 64.691 36.5491 64.4936L46.9961 55.3307C46.9445 56.2359 46.964 57.2408 47.1757 58.2385C47.6648 60.5488 49.0253 62.1868 51.2183 63.1028C51.9599 63.4122 52.7353 63.5669 53.5285 63.5669C54.5494 63.5669 55.5987 63.3108 56.6409 62.8004C56.7886 62.7293 56.9308 62.6528 57.066 62.5781C57.219 63.4762 57.484 64.5594 57.9357 65.6478C58.592 67.2253 59.5061 68.4917 60.655 69.4129C62.1081 70.5796 63.9079 71.1701 65.9995 71.1701C70.6147 71.1701 72.8699 68.7531 73.9565 66.6633C75.045 68.7531 77.2984 71.1701 81.9136 71.1701C84.9584 71.1701 87.5141 69.5908 89.3033 66.6011C90.1161 65.2441 90.5892 63.8924 90.8311 63.0583C91.731 63.3571 92.7714 63.5741 93.899 63.5741C94.7616 63.5741 95.6757 63.446 96.6148 63.133C99.48 62.1762 101.353 59.9548 102.029 56.7108C102.516 54.3792 102.203 52.3267 102.189 52.2414C102.189 52.2378 102.189 52.236 102.189 52.2343C102.765 51.875 103.325 51.4535 103.846 50.9751C105.867 49.1272 106.978 46.8098 106.978 44.4515C106.978 41.1363 105.461 39.2814 103.951 37.7358C104.186 37.606 104.412 37.4708 104.631 37.3286Z" fill="#A3CB03"/>
  </g>
  <path d="M79.8283 26.603C79.2289 25.2264 77.9164 24.3638 76.3993 24.3496C76.3868 24.3496 76.3744 24.3496 76.362 24.3496C74.8395 24.3496 73.5057 25.2015 72.8743 26.5816C72.6004 27.1828 72.8618 27.8924 73.4612 28.1681C74.0623 28.4437 74.7702 28.1805 75.0441 27.5794C75.4051 26.7951 76.1539 26.7399 76.3762 26.7417C76.5914 26.7453 77.3135 26.8093 77.6407 27.5598C77.8363 28.0098 78.2739 28.2783 78.7345 28.2783C78.8946 28.2783 79.0564 28.2463 79.2111 28.177C79.8158 27.9137 80.0915 27.2077 79.8283 26.603Z" fill="#A3CB03"/>
  <path d="M90.3298 24.3371C88.971 24.4207 87.8008 25.2602 87.1943 26.5816C86.9204 27.1827 87.1836 27.8924 87.783 28.168C87.943 28.2427 88.112 28.2783 88.2792 28.2783C88.7309 28.2783 89.1631 28.0186 89.3641 27.5794C89.6042 27.0582 89.999 26.7541 90.4756 26.7239C91.0537 26.6883 91.637 27.0565 92.039 27.7092C92.384 28.2712 93.1185 28.4455 93.6805 28.0987C94.2425 27.7519 94.415 27.0156 94.07 26.4536C93.1985 25.0361 91.7989 24.2464 90.3298 24.3371Z" fill="#A3CB03"/>
  <path d="M85.8454 31.0207C85.1607 31.7072 84.4546 32.0594 83.7076 32.0843C82.9607 32.0594 82.2528 31.7072 81.5681 31.0207C81.1021 30.553 80.348 30.553 79.8821 31.0207C79.4143 31.4885 79.4143 32.2443 79.8821 32.7121C80.9901 33.8237 82.2724 34.4212 83.6116 34.4728V34.4782C83.6436 34.4782 83.6756 34.4764 83.7076 34.4746C83.7397 34.4764 83.7717 34.4782 83.8037 34.4782V34.4728C85.1411 34.4212 86.4234 33.8237 87.5332 32.7121C87.9992 32.2443 87.9992 31.4885 87.5332 31.0207C87.0673 30.553 86.3114 30.553 85.8454 31.0207Z" fill="#A3CB03"/>
  <path d="M57.2962 20.1748C56.19 19.0668 54.4826 18.7307 52.9442 19.3194C51.509 19.8689 50.5681 21.1068 50.4863 22.5492C50.449 23.209 50.9541 23.7728 51.6121 23.8101C51.6352 23.8119 51.6566 23.8119 51.6797 23.8119C52.3075 23.8119 52.834 23.3193 52.8695 22.6825C52.9104 21.9694 53.5311 21.6563 53.7961 21.555C54.2977 21.3629 55.0731 21.3291 55.6084 21.8662C56.0744 22.334 56.8303 22.334 57.2962 21.8662C57.7622 21.4002 57.7622 20.6426 57.2962 20.1748Z" fill="#A3CB03"/>
  <path d="M39.0089 23.9455C37.5505 24.3866 36.4941 25.5924 36.1793 27.1664C36.0513 27.8155 36.4692 28.4451 37.1166 28.5749C37.1948 28.591 37.2731 28.5981 37.3514 28.5981C37.908 28.5981 38.406 28.205 38.5198 27.6359C38.6621 26.9298 39.0907 26.4194 39.7008 26.2344C40.2592 26.0655 40.8497 26.222 41.2801 26.6524C41.7461 27.1201 42.5019 27.1201 42.9679 26.6524C43.4339 26.1846 43.4339 25.427 42.9679 24.961C41.9204 23.9117 40.4033 23.5222 39.0089 23.9455Z" fill="#A3CB03"/>
  <path d="M52.2715 26.3168C51.3751 25.7833 50.5446 27.0247 50.5446 27.0247L50.5463 27.0175C50.541 27.03 50.0448 28.4261 48.9297 28.8014C48.1525 29.0628 47.1583 28.7943 45.972 28.0028C45.4242 27.6347 44.6826 27.7841 44.318 28.3336C43.9516 28.8832 44.101 29.6266 44.6488 29.993C45.9435 30.8591 47.1707 31.2931 48.3143 31.2931C48.7963 31.2931 49.264 31.2166 49.7158 31.0601C51.9514 30.2918 52.7748 27.8837 52.8086 27.7805C52.8086 27.7805 53.1696 26.8504 52.2715 26.3168Z" fill="#A3CB03"/>
</svg>