<svg width="41" height="40" viewBox="0 0 41 40" fill="none" xmlns="http://www.w3.org/2000/svg">
<g clip-path="url(#clip0_5_928)">
<path fill-rule="evenodd" clip-rule="evenodd" d="M0.34375 20C0.34375 14.6957 2.45089 9.60859 6.20161 5.85786C9.95234 2.10714 15.0394 0 20.3438 0C25.6481 0 30.7352 2.10714 34.4859 5.85786C38.2366 9.60859 40.3438 14.6957 40.3438 20C40.3438 25.3043 38.2366 30.3914 34.4859 34.1421C30.7352 37.8929 25.6481 40 20.3438 40C15.0394 40 9.95234 37.8929 6.20161 34.1421C2.45089 30.3914 0.34375 25.3043 0.34375 20ZM19.2024 28.56L30.7171 14.1653L28.6371 12.5013L18.8184 24.7707L11.8638 18.976L10.1571 21.024L19.2024 28.56Z" fill="#5200FF"/>
</g>
<defs>
<clipPath id="clip0_5_928">
<rect width="40" height="40" fill="white" transform="translate(0.34375)"/>
</clipPath>
</defs>
</svg>
