<svg width="68" height="68" viewBox="0 0 68 68" fill="none" xmlns="http://www.w3.org/2000/svg">
<circle cx="33.9221" cy="33.9455" r="32.9506" fill="white" stroke="black" stroke-width="0.665668"/>
<path d="M42.628 27.8662C47.826 29.0503 51.6644 32.9557 51.6644 37.6434C51.6644 38.8491 51.4038 40.026 50.9179 41.0978L53.8758 45.3059C54.2283 45.8133 53.7773 46.49 53.1718 46.3561L47.6567 45.1227C45.706 46.6875 42.5644 47.7942 39.3104 47.7942C33.7604 47.7942 29.0344 44.7913 27.4849 40.6114C28.0133 40.7453 28.5485 40.8438 29.0908 40.9075C30.7106 44.1356 34.6619 46.4407 39.3104 46.4407C42.2617 46.4407 45.0297 45.5034 47.0795 43.8678C47.2344 43.741 47.4453 43.6918 47.6429 43.7339L51.7558 44.6574L49.5936 41.577C49.4458 41.3723 49.4248 41.1045 49.5372 40.8859C50.0446 39.8568 50.3119 38.7644 50.3119 37.6434C50.3119 33.8581 47.2904 30.5941 43.0436 29.3679C42.9518 28.8533 42.8112 28.3526 42.628 27.8662Z" fill="black"/>
<path d="M18.2102 34.838C17.7104 33.837 17.3651 32.3846 17.3651 30.8762C17.3651 24.4965 23.4718 19.3721 30.9516 19.3721C38.4246 19.3721 44.5308 24.4965 44.5308 30.8762C44.5308 37.2555 38.4246 42.3804 30.9516 42.3804C27.4862 42.3804 24.2184 41.2809 21.732 39.3282L15.6114 40.7381C15.0126 40.8792 14.555 40.2092 14.9003 39.7018L18.2102 34.838ZM30.9516 20.7255C24.1691 20.7255 18.7176 25.3004 18.7176 30.8762C18.7176 32.1804 19.0132 33.442 19.5837 34.6261C19.6894 34.8447 19.6684 35.1058 19.5273 35.3029L17.006 39.025L21.7463 37.9323C21.9505 37.8902 22.1614 37.9394 22.3236 38.0733C24.5986 39.9485 27.6694 41.027 30.9516 41.027C37.7273 41.027 43.1788 36.4521 43.1788 30.8762C43.1788 25.3004 37.7273 20.7255 30.9516 20.7255Z" fill="black"/>
<path fill-rule="evenodd" clip-rule="evenodd" d="M26.2748 30.8769C26.2748 31.6239 25.6693 32.2303 24.9228 32.2303C24.1758 32.2303 23.5703 31.6239 23.5703 30.8769C23.5703 30.1299 24.1758 29.5234 24.9228 29.5234C25.6693 29.5234 26.2748 30.1299 26.2748 30.8769Z" fill="black"/>
<path fill-rule="evenodd" clip-rule="evenodd" d="M32.3627 30.8769C32.3627 31.6239 31.7567 32.2303 31.0102 32.2303C30.2637 32.2303 29.6577 31.6239 29.6577 30.8769C29.6577 30.1299 30.2637 29.5234 31.0102 29.5234C31.7567 29.5234 32.3627 30.1299 32.3627 30.8769Z" fill="black"/>
<path fill-rule="evenodd" clip-rule="evenodd" d="M38.4437 30.8769C38.4437 31.6239 37.8378 32.2303 37.0913 32.2303C36.3447 32.2303 35.7393 31.6239 35.7393 30.8769C35.7393 30.1299 36.3447 29.5234 37.0913 29.5234C37.8378 29.5234 38.4437 30.1299 38.4437 30.8769Z" fill="black"/>
</svg>
