<svg width="103" height="38" viewBox="0 0 103 38" fill="none" xmlns="http://www.w3.org/2000/svg">
<path d="M7.99799 24.0003L7.0665 21.5913H2.37691L1.47754 24.0003H0L4.2399 13.7539H5.23563L9.47553 24.0003H7.99799ZM2.79448 20.5313H6.68106L4.75383 15.3921L2.79448 20.5313Z" fill="#303030"/>
<path d="M13.1372 22.7476H19.1438V24.0003H11.8203V13.7539H13.1372V22.7476Z" fill="#303030"/>
<path d="M21.4887 13.7539H25.4716C27.8164 13.7539 28.6194 14.6854 28.6194 16.3557C28.6194 17.1266 28.2018 17.9938 27.5915 18.315C28.523 18.7005 29.1012 19.8568 29.1012 20.9489C29.1012 22.6834 28.2982 24.0003 25.7928 24.0003H21.4565V13.7539H21.4887ZM25.7607 17.8332C27.0776 17.8332 27.3025 17.1908 27.3025 16.3878C27.3025 15.5527 27.0455 15.0066 25.6643 15.0066H22.8377V17.8653H25.7607V17.8332ZM25.6964 19.0538H22.8056V22.7476H25.6964C27.3667 22.7476 27.6558 21.9125 27.6558 20.9489C27.6879 19.9532 27.3667 19.0538 25.6964 19.0538Z" fill="#303030"/>
<path d="M38.4481 19.3429H33.1482V22.7476H39.1548V24.0003H31.8313V13.7539H39.1548V14.9745H33.1482V18.1223H38.4481V19.3429Z" fill="#303030"/>
<path d="M43.459 19.8247V24.0003H42.1421V13.7539H46.4462C48.9516 13.7539 49.7546 15.0708 49.7546 16.8053C49.7546 18.1544 49.2407 19.2465 47.8595 19.6641L50.2686 24.0003H48.6947L46.5426 19.8247H43.459ZM48.3413 16.7732C48.3413 15.8096 47.988 14.9745 46.3177 14.9745H43.4911V18.6041H46.3177C47.9559 18.6041 48.3413 17.7368 48.3413 16.7732Z" fill="#303030"/>
<path d="M56.4035 14.9745V24.0003H54.9581V14.9745H51.5854V13.7539H59.744V14.9745H56.4035Z" fill="#303030"/>
<path d="M67.7421 24.0003L66.8106 21.5913H62.1211L61.2217 24.0003H59.7441L63.984 13.7539H64.9798L69.2197 24.0003H67.7421ZM62.5386 20.5313H66.4252L64.498 15.3921L62.5386 20.5313Z" fill="#303030"/>
<path d="M84.7537 2.42497C84.5502 3.17127 84.6859 3.91758 85.059 4.56212L95.643 22.5413C96.1518 23.3893 97.0677 23.9321 98.0854 23.9321C98.5943 23.9321 99.0692 23.7964 99.5102 23.5589L99.612 23.4911C100.256 23.1179 100.731 22.5073 100.901 21.761C101.105 21.0147 100.969 20.2684 100.596 19.6239L90.0118 1.64475C89.6386 1.00021 89.028 0.525285 88.2817 0.355671C88.0442 0.287825 87.8068 0.253906 87.5693 0.253906C87.0605 0.253906 86.5856 0.3896 86.1446 0.62706L86.0428 0.6949C85.3983 1.10197 84.9573 1.71259 84.7537 2.42497ZM86.1446 2.79812C86.2463 2.42497 86.4499 2.11967 86.7891 1.95005L86.8909 1.8822C87.0944 1.74651 87.3319 1.67867 87.5693 1.67867C87.705 1.67867 87.8068 1.67866 87.9425 1.71259C88.3156 1.81436 88.6209 2.0179 88.7905 2.35713L99.3406 20.3363C99.5441 20.6416 99.578 21.0147 99.4763 21.3879C99.3745 21.761 99.171 22.0663 98.8317 22.2359L98.73 22.3038C98.4925 22.4395 98.255 22.5073 98.0176 22.5073C97.5427 22.5073 97.0677 22.2699 96.8303 21.8289L86.2803 3.84974C86.1106 3.54443 86.0428 3.17128 86.1446 2.79812Z" fill="#9C9C9C"/>
<path d="M85.0595 1.67894L74.5095 19.6242C74.1363 20.3026 74.0006 21.0489 74.2042 21.7952C74.4077 22.5415 74.8826 23.1861 75.5272 23.5592C75.9682 23.8306 76.477 23.9663 76.9519 23.9663C77.9696 23.9663 78.9534 23.4235 79.4622 22.5415L90.0122 4.5963C90.3854 3.91785 90.5211 3.17154 90.3175 2.42524C90.114 1.67894 89.6391 1.03441 88.9945 0.661255C87.6376 -0.152895 85.8736 0.322026 85.0595 1.67894ZM87.5359 1.71286C87.8072 1.71286 88.0447 1.7807 88.2822 1.9164C88.6214 2.11993 88.8589 2.42524 88.9606 2.79839C89.0624 3.17155 88.9945 3.57863 88.8249 3.88393L78.2749 21.8291C78.0714 22.1684 77.7661 22.4058 77.3929 22.5076C77.2572 22.5415 77.1555 22.5415 77.0198 22.5415C76.7823 22.5415 76.5448 22.4737 76.3074 22.338H76.2735C75.9342 22.1345 75.6968 21.8291 75.595 21.456C75.4932 21.0828 75.5611 20.6758 75.7307 20.3705L86.2807 2.42524C86.5521 1.98424 87.027 1.71286 87.5359 1.71286Z" fill="#9C9C9C"/>
<path d="M87.5355 15.3496C83.363 15.3496 79.2583 16.4351 75.7303 18.4705C74.7466 18.9794 74.1021 19.9631 74.1021 21.0826C74.1021 22.677 75.425 23.9999 77.0194 23.9999C77.5961 23.9999 78.1389 23.8303 78.6138 23.525C81.2598 21.9985 84.4146 21.1504 87.5355 21.1504H87.5694C90.6903 21.1504 93.8452 21.9985 96.4912 23.525C96.9661 23.8303 97.5089 23.9999 98.0855 23.9999C99.6799 23.9999 101.003 22.677 101.003 21.0826C101.003 19.9631 100.392 18.9794 99.3746 18.4705C95.8127 16.4351 91.742 15.3496 87.5355 15.3496ZM87.5694 16.7744C91.5045 16.7744 95.3039 17.7921 98.6283 19.7257L98.6962 19.7596C99.205 19.997 99.5103 20.5059 99.5103 21.0826C99.5103 21.8967 98.8658 22.5413 98.0516 22.5413C97.7802 22.5413 97.5089 22.4734 97.2714 22.3038L97.2035 22.2699C94.354 20.6077 90.9278 19.6917 87.5694 19.6917H87.5355C84.1772 19.6917 80.7509 20.6077 77.9014 22.2699L77.8336 22.3038C77.5961 22.4734 77.3247 22.5413 77.0533 22.5413C76.2392 22.5413 75.5947 21.8967 75.5947 21.0826C75.5947 20.5398 75.9 20.031 76.4088 19.7596L76.4767 19.7257C79.8011 17.7921 83.6005 16.7744 87.5355 16.7744H87.5694Z" fill="#303030"/>
<path d="M17.4413 27.3379H15.4819V37.5843H17.4413V27.3379Z" fill="#303030"/>
<path d="M28.1695 37.5843L22.9338 31.1281V37.5843H20.9424V27.3379H22.3557L27.5913 33.7941L27.5592 27.3379H29.5507V37.5843H28.1695Z" fill="#303030"/>
<path d="M40.2147 37.5843L34.9469 31.1281L34.979 37.5843H32.9875V27.3379H34.3687L39.6365 33.7941L39.6044 27.3379H41.5958V37.5843H40.2147Z" fill="#303030"/>
<path d="M48.8873 37.7443C45.4183 37.7443 44.1978 35.528 44.1978 32.4444C44.1978 29.3608 45.4183 27.1445 48.8873 27.1445C52.3885 27.1445 53.5769 29.3608 53.5769 32.4444C53.5769 35.528 52.3885 37.7443 48.8873 37.7443ZM48.8873 29.0718C46.671 29.0718 46.2213 30.5493 46.2213 32.4444C46.2213 34.3716 46.671 35.8171 48.8873 35.8171C51.0715 35.8171 51.5533 34.3395 51.5533 32.4444C51.5533 30.5493 51.0715 29.0718 48.8873 29.0718Z" fill="#303030"/>
<path d="M64.7224 27.2402L60.4825 37.583H59.0692L54.8293 27.2402H57.0457L59.7759 34.5316L62.5061 27.2402H64.7224Z" fill="#303030"/>
<path d="M72.014 37.583L71.1468 35.3988H67.2602L66.3929 37.583H64.2087L68.5129 27.2402H69.9262L74.2303 37.583H72.014ZM67.9026 33.6643H70.4401L69.1874 30.2917L67.9026 33.6643Z" fill="#303030"/>
<path d="M91.3825 33.1825H86.468V35.6879H92.057V37.583H84.4766V27.2402H92.057V29.1353H86.468V31.2874H91.3825V33.1825Z" fill="#303030"/>
<path d="M98.5135 31.3836C101.404 31.6405 102.432 32.4435 102.432 34.4029C102.432 36.2016 101.308 37.7434 97.9996 37.7434C97.0039 37.7434 95.173 37.4864 94.5627 37.2295V35.3344C95.2372 35.5913 96.7148 35.8483 98.0317 35.8483C99.8305 35.8483 100.441 35.3344 100.441 34.435C100.441 33.6641 99.9268 33.375 98.3529 33.2144C95.3978 32.9575 94.4021 32.2829 94.4021 30.4521C94.4021 28.5248 95.5584 27.1758 98.642 27.1758C99.6377 27.1758 100.955 27.24 102.015 27.6897V29.5527C101.019 29.2315 99.8947 29.103 98.642 29.103C96.9717 29.103 96.3936 29.5206 96.3936 30.3557C96.2972 31.0624 96.9396 31.2551 98.5135 31.3836Z" fill="#303030"/>
<path d="M79.3053 29.1353V37.5509H77.2175V29.1353H74.1018V27.2402H82.421V29.1353H79.3053Z" fill="#303030"/>
</svg>
