<svg width="114" height="58" viewBox="0 0 114 58" fill="none" xmlns="http://www.w3.org/2000/svg">
<g clip-path="url(#clip0_537_580)">
<mask id="mask0_537_580" style="mask-type:luminance" maskUnits="userSpaceOnUse" x="1" y="0" width="58" height="58">
<path d="M58.9672 0.173828H1.31592V57.8251H58.9672V0.173828Z" fill="white"/>
</mask>
<g mask="url(#mask0_537_580)">
<g style="mix-blend-mode:luminosity">
<path d="M1.31177 34.541L24.5956 57.8249C12.8313 55.5767 3.55988 46.3053 1.31177 34.541Z" fill="url(#paint0_radial_537_580)"/>
<path d="M24.5954 0.173828L1.31152 23.4574C3.55989 11.6934 12.8311 2.42194 24.5954 0.173828Z" fill="url(#paint1_radial_537_580)"/>
<path d="M57.1513 28.9982L30.1415 56.008L3.13159 28.9982L30.1415 1.98828L57.1513 28.9982Z" fill="url(#paint2_radial_537_580)"/>
<path d="M58.9699 23.4574L35.6863 0.173828C47.4503 2.42194 56.7215 11.6934 58.9699 23.4574Z" fill="url(#paint3_radial_537_580)"/>
<path d="M35.6863 57.8249L58.9701 34.541C56.722 46.3053 47.4503 55.5768 35.6863 57.8249Z" fill="url(#paint4_radial_537_580)"/>
<path d="M29.865 47.1306C29.865 47.1306 29.7247 28.5022 25.7166 24.4945C21.7086 20.4864 16.0837 19.1172 16.0837 19.1172C16.0837 19.1172 29.9225 21.0512 29.865 24.8594C29.865 27.6187 29.865 47.1306 29.865 47.1306Z" fill="url(#paint5_radial_537_580)"/>
<path d="M30.4247 47.1306C30.4247 47.1306 30.5651 28.5022 34.5732 24.4945C38.5812 20.4864 44.206 19.1172 44.206 19.1172C44.206 19.1172 30.3673 21.0512 30.4247 24.8594C30.4247 27.6187 30.4247 47.1306 30.4247 47.1306Z" fill="url(#paint6_radial_537_580)"/>
<path d="M30.1395 22.7091C31.8768 22.7091 33.2851 21.3008 33.2851 19.5636C33.2851 17.8263 31.8768 16.418 30.1395 16.418C28.4022 16.418 26.9939 17.8263 26.9939 19.5636C26.9939 21.3008 28.4022 22.7091 30.1395 22.7091Z" fill="url(#paint7_radial_537_580)"/>
</g>
</g>
<path d="M77.0875 18.308V26.6937H75.5561L71.9079 21.4158H71.8464V26.6937H70.0735V18.308H71.6294L75.249 23.5818H75.3227V18.308H77.0875ZM78.5522 26.6937V18.308H81.8607C82.4967 18.308 83.0382 18.4295 83.4862 18.6724C83.9342 18.9127 84.2752 19.2471 84.5099 19.6756C84.7471 20.1015 84.8657 20.5928 84.8657 21.1496C84.8657 21.7065 84.7463 22.1978 84.5058 22.6237C84.2653 23.0495 83.9178 23.3811 83.4615 23.6187C83.0085 23.8561 82.4598 23.9749 81.8156 23.9749H79.7069V22.5541H81.529C81.8702 22.5541 82.1514 22.4954 82.3725 22.378C82.5963 22.2579 82.7628 22.0927 82.8721 21.8825C82.9838 21.6696 83.0398 21.4254 83.0398 21.1496C83.0398 20.8712 82.9838 20.6283 82.8721 20.4208C82.7628 20.2107 82.5963 20.0482 82.3725 19.9336C82.1487 19.8162 81.8648 19.7575 81.5209 19.7575H80.3252V26.6937H78.5522ZM93.7234 22.5008C93.7234 23.4153 93.5505 24.1933 93.2037 24.8347C92.8595 25.4762 92.39 25.9662 91.7954 26.3047C91.2024 26.6404 90.5369 26.8084 89.7965 26.8084C89.052 26.8084 88.3833 26.6391 87.7903 26.3006C87.1981 25.9621 86.7303 25.4722 86.3861 24.8307C86.0426 24.1892 85.8705 23.4125 85.8705 22.5008C85.8705 21.5864 86.0426 20.8084 86.3861 20.1669C86.7303 19.5255 87.1981 19.0369 87.7903 18.7011C88.3833 18.3626 89.052 18.1934 89.7965 18.1934C90.5369 18.1934 91.2024 18.3626 91.7954 18.7011C92.39 19.0369 92.8595 19.5255 93.2037 20.1669C93.5505 20.8084 93.7234 21.5864 93.7234 22.5008ZM91.9263 22.5008C91.9263 21.9085 91.8374 21.409 91.6603 21.0022C91.4849 20.5955 91.2378 20.2871 90.9191 20.0769C90.5995 19.8667 90.2256 19.7616 89.7965 19.7616C89.3683 19.7616 88.9944 19.8667 88.6748 20.0769C88.3553 20.2871 88.1074 20.5955 87.9295 21.0022C87.7549 21.409 87.6676 21.9085 87.6676 22.5008C87.6676 23.0932 87.7549 23.5927 87.9295 23.9994C88.1074 24.4062 88.3553 24.7146 88.6748 24.9248C88.9944 25.135 89.3683 25.2401 89.7965 25.2401C90.2256 25.2401 90.5995 25.135 90.9191 24.9248C91.2378 24.7146 91.4849 24.4062 91.6603 23.9994C91.8374 23.5927 91.9263 23.0932 91.9263 22.5008ZM100.237 22.1978L98.6402 22.2962C98.6131 22.1596 98.5538 22.0368 98.464 21.9276C98.3742 21.8157 98.2556 21.727 98.1082 21.6615C97.9633 21.5932 97.7895 21.5591 97.5877 21.5591C97.3176 21.5591 97.0894 21.6164 96.9041 21.7311C96.7188 21.843 96.6257 21.9932 96.6257 22.1815C96.6257 22.3316 96.6859 22.4586 96.8061 22.5623C96.9255 22.666 97.1323 22.7493 97.4238 22.812L98.562 23.0413C99.1739 23.1669 99.6294 23.3689 99.93 23.6473C100.231 23.9258 100.38 24.2915 100.38 24.7447C100.38 25.1568 100.259 25.5185 100.016 25.8297C99.776 26.1409 99.4457 26.3839 99.0249 26.5586C98.6073 26.7305 98.1255 26.8165 97.5795 26.8165C96.7468 26.8165 96.0838 26.6431 95.5897 26.2965C95.098 25.9471 94.8106 25.4722 94.7257 24.8716L96.4413 24.7815C96.4931 25.0354 96.6192 25.2292 96.8185 25.363C97.017 25.494 97.2723 25.5595 97.5836 25.5595C97.8891 25.5595 98.1354 25.5008 98.3207 25.3834C98.5093 25.2633 98.6048 25.109 98.6073 24.9208C98.6048 24.7624 98.5381 24.6328 98.4063 24.5318C98.2754 24.428 98.0736 24.3489 97.801 24.2943L96.7114 24.0772C96.0978 23.9544 95.6399 23.7415 95.3401 23.4385C95.0428 23.1355 94.8937 22.7493 94.8937 22.2798C94.8937 21.8757 95.0024 21.5277 95.2215 21.2356C95.4422 20.9436 95.7519 20.7183 96.1505 20.56C96.5516 20.4017 97.0211 20.3226 97.5589 20.3226C98.3536 20.3226 98.9787 20.4904 99.4342 20.8262C99.8929 21.1619 100.161 21.6192 100.237 22.1978ZM72.6121 40.8175C72.0334 40.8175 71.5339 40.7138 71.1135 40.5064C70.6931 40.2989 70.3696 40.0177 70.1431 39.6629C69.9193 39.3053 69.8074 38.9067 69.8074 38.4672C69.8074 38.1397 69.8728 37.849 70.0039 37.5951C70.1349 37.3412 70.3178 37.1078 70.5526 36.8949C70.7873 36.6793 71.0603 36.465 71.3714 36.2521L72.997 35.1834C73.2072 35.0497 73.3614 34.9091 73.4597 34.7617C73.558 34.6115 73.6071 34.4491 73.6071 34.2744C73.6071 34.1079 73.5402 33.9537 73.4065 33.8117C73.2727 33.6698 73.0829 33.6002 72.8373 33.603C72.6735 33.603 72.5316 33.6398 72.4115 33.7135C72.2914 33.7845 72.1972 33.8786 72.129 33.996C72.0634 34.1106 72.0306 34.2389 72.0306 34.3809C72.0306 34.5556 72.0798 34.733 72.1781 34.9132C72.2763 35.0933 72.4074 35.2844 72.5712 35.4864C72.735 35.6857 72.9138 35.9014 73.1076 36.1334L77.0834 40.6947H75.2654L71.9488 37.0014C71.7305 36.753 71.512 36.4937 71.2937 36.2235C71.078 35.9504 70.8979 35.6611 70.7532 35.3554C70.6085 35.047 70.5362 34.7126 70.5362 34.3523C70.5362 33.9455 70.6304 33.5797 70.8187 33.2549C71.0098 32.9301 71.2773 32.6735 71.6212 32.4851C71.9652 32.294 72.3664 32.1985 72.825 32.1985C73.2727 32.1985 73.659 32.2899 73.9838 32.4728C74.3113 32.653 74.5624 32.8932 74.7372 33.1935C74.9146 33.491 75.0033 33.8186 75.0033 34.1762C75.0033 34.572 74.9051 34.9309 74.7085 35.253C74.5147 35.5724 74.2417 35.859 73.8896 36.1129L72.1781 37.3454C71.9461 37.5146 71.7741 37.6879 71.6622 37.8654C71.553 38.0401 71.4984 38.2079 71.4984 38.369C71.4984 38.5682 71.5475 38.747 71.6458 38.9054C71.744 39.0637 71.8833 39.1893 72.0634 39.2821C72.2436 39.3721 72.4551 39.4172 72.6981 39.4172C72.9929 39.4172 73.2837 39.3503 73.5703 39.2165C73.8596 39.0801 74.1217 38.8876 74.3564 38.6392C74.5939 38.3881 74.7836 38.0905 74.9256 37.7466C75.0675 37.4027 75.1385 37.0218 75.1385 36.6042H76.5839C76.5839 37.1174 76.5279 37.5801 76.4159 37.9923C76.304 38.4018 76.1484 38.7593 75.9492 39.0651C75.7499 39.3681 75.522 39.6165 75.2654 39.8103C75.1835 39.8622 75.1044 39.9112 75.0279 39.9577C74.9514 40.0041 74.8723 40.0532 74.7904 40.105C74.4793 40.3562 74.1312 40.5378 73.7463 40.6497C73.3641 40.7616 72.9861 40.8175 72.6121 40.8175ZM87.5251 32.309V40.6947H85.994L82.3459 35.4168H82.2845V40.6947H80.5116V32.309H82.0675L85.6868 37.5828H85.761V32.309H87.5251ZM94.5503 35.0196C94.4935 34.8204 94.4128 34.6443 94.309 34.4915C94.2052 34.3359 94.0784 34.2048 93.9285 34.0984C93.7811 33.9891 93.6114 33.906 93.4203 33.8486C93.2326 33.7912 93.0234 33.7626 92.7944 33.7626C92.3653 33.7626 91.9889 33.8691 91.6644 34.082C91.3416 34.2949 91.0912 34.6047 90.9109 35.0115C90.7305 35.4154 90.6407 35.9095 90.6407 36.4937C90.6407 37.0779 90.7288 37.5746 90.9067 37.9841C91.0838 38.3935 91.335 38.7061 91.6603 38.9218C91.9848 39.1347 92.3686 39.2411 92.8109 39.2411C93.212 39.2411 93.5546 39.1702 93.8379 39.0282C94.1245 38.8836 94.3436 38.6801 94.4935 38.4181C94.6467 38.1561 94.7224 37.8463 94.7224 37.4887L95.0832 37.5419H92.9212V36.2071H96.4297V37.2635C96.4297 38.0004 96.2749 38.6338 95.9636 39.1633C95.6523 39.6902 95.2232 40.0969 94.678 40.3835C94.1319 40.6674 93.5068 40.8094 92.8026 40.8094C92.0161 40.8094 91.3259 40.636 90.7305 40.2894C90.135 39.9399 89.6714 39.4445 89.3386 38.803C89.0084 38.1588 88.8428 37.3944 88.8428 36.5101C88.8428 35.8304 88.9408 35.2244 89.1377 34.6921C89.337 34.1571 89.6154 33.7039 89.9728 33.3327C90.3302 32.9615 90.747 32.6789 91.2222 32.4851C91.6966 32.2913 92.2113 32.1944 92.7656 32.1944C93.2408 32.1944 93.6831 32.264 94.0924 32.4032C94.5017 32.5397 94.8649 32.7335 95.1812 32.9846C95.5007 33.2358 95.761 33.5347 95.9636 33.8813C96.1654 34.2253 96.2947 34.6047 96.3523 35.0196H94.5503ZM105.468 36.5018C105.468 37.4163 105.295 38.1943 104.948 38.8357C104.604 39.4772 104.134 39.9672 103.539 40.3057C102.947 40.6414 102.281 40.8094 101.541 40.8094C100.796 40.8094 100.127 40.6401 99.5347 40.3016C98.9425 39.9631 98.4747 39.4732 98.1304 38.8317C97.7862 38.1902 97.614 37.4135 97.614 36.5018C97.614 35.5874 97.7862 34.8094 98.1304 34.1679C98.4747 33.5265 98.9425 33.0379 99.5347 32.7021C100.127 32.3636 100.796 32.1944 101.541 32.1944C102.281 32.1944 102.947 32.3636 103.539 32.7021C104.134 33.0379 104.604 33.5265 104.948 34.1679C105.295 34.8094 105.468 35.5874 105.468 36.5018ZM103.67 36.5018C103.67 35.9095 103.582 35.41 103.404 35.0032C103.229 34.5965 102.982 34.2881 102.663 34.0779C102.344 33.8677 101.97 33.7626 101.541 33.7626C101.113 33.7626 100.739 33.8677 100.419 34.0779C100.1 34.2881 99.8517 34.5965 99.6738 35.0032C99.4992 35.41 99.4119 35.9095 99.4119 36.5018C99.4119 37.0942 99.4992 37.5937 99.6738 38.0004C99.8517 38.4072 100.1 38.7156 100.419 38.9258C100.739 39.136 101.113 39.2411 101.541 39.2411C101.97 39.2411 102.344 39.136 102.663 38.9258C102.982 38.7156 103.229 38.4072 103.404 38.0004C103.582 37.5937 103.67 37.0942 103.67 36.5018ZM111.982 36.1988L110.385 36.2972C110.357 36.1606 110.298 36.0378 110.208 35.9286C110.118 35.8167 109.999 35.728 109.852 35.6625C109.708 35.5942 109.534 35.5601 109.332 35.5601C109.062 35.5601 108.834 35.6175 108.648 35.7321C108.462 35.844 108.37 35.9942 108.37 36.1825C108.37 36.3326 108.43 36.4596 108.55 36.5633C108.67 36.667 108.876 36.7503 109.168 36.8131L110.306 37.0424C110.918 37.168 111.374 37.3699 111.674 37.6484C111.974 37.9268 112.125 38.2926 112.125 38.7457C112.125 39.1578 112.003 39.5195 111.76 39.8307C111.52 40.1419 111.189 40.3849 110.769 40.5596C110.352 40.7315 109.87 40.8175 109.324 40.8175C108.491 40.8175 107.828 40.6442 107.334 40.2975C106.842 39.9481 106.555 39.4732 106.47 38.8726L108.186 38.7825C108.238 39.0364 108.363 39.2302 108.562 39.364C108.761 39.495 109.017 39.5605 109.328 39.5605C109.634 39.5605 109.879 39.5018 110.065 39.3844C110.254 39.2643 110.349 39.1101 110.352 38.9218C110.349 38.7634 110.282 38.6338 110.151 38.5328C110.02 38.429 109.818 38.3499 109.545 38.2953L108.456 38.0783C107.841 37.9555 107.384 37.7425 107.085 37.4395C106.786 37.1365 106.638 36.7503 106.638 36.2808C106.638 35.8767 106.747 35.5288 106.965 35.2366C107.187 34.9446 107.496 34.7193 107.895 34.561C108.296 34.4028 108.765 34.3236 109.303 34.3236C110.098 34.3236 110.723 34.4915 111.179 34.8272C111.637 35.1629 111.905 35.6202 111.982 36.1988Z" fill="black"/>
</g>
<defs>
<radialGradient id="paint0_radial_537_580" cx="0" cy="0" r="1" gradientUnits="userSpaceOnUse" gradientTransform="translate(12.9537 46.1829) scale(11.6419 11.6419)">
<stop stop-color="#27AAE1"/>
<stop offset="0.0001" stop-color="#505355"/>
<stop offset="1" stop-color="#1F242F"/>
</radialGradient>
<radialGradient id="paint1_radial_537_580" cx="0" cy="0" r="1" gradientUnits="userSpaceOnUse" gradientTransform="translate(12.9535 11.8156) scale(11.6418)">
<stop stop-color="#04161E"/>
<stop offset="1" stop-color="#626262"/>
</radialGradient>
<radialGradient id="paint2_radial_537_580" cx="0" cy="0" r="1" gradientUnits="userSpaceOnUse" gradientTransform="translate(30.1415 28.9982) scale(27.0099 27.0099)">
<stop stop-color="#4A494F"/>
<stop offset="1" stop-color="#080809"/>
</radialGradient>
<radialGradient id="paint3_radial_537_580" cx="0" cy="0" r="1" gradientUnits="userSpaceOnUse" gradientTransform="translate(47.3281 11.8156) scale(11.6418 11.6418)">
<stop stop-color="#021B25"/>
<stop offset="1" stop-color="#18191B"/>
</radialGradient>
<radialGradient id="paint4_radial_537_580" cx="0" cy="0" r="1" gradientUnits="userSpaceOnUse" gradientTransform="translate(47.3282 46.1829) scale(11.6419 11.6419)">
<stop stop-color="#4B4B4B"/>
<stop offset="1" stop-color="#030C20"/>
</radialGradient>
<radialGradient id="paint5_radial_537_580" cx="0" cy="0" r="1" gradientUnits="userSpaceOnUse" gradientTransform="translate(22.9745 33.1238) scale(11.0379)">
<stop stop-color="#22221C"/>
<stop offset="1" stop-color="#AEADAA"/>
</radialGradient>
<radialGradient id="paint6_radial_537_580" cx="0" cy="0" r="1" gradientUnits="userSpaceOnUse" gradientTransform="translate(37.3153 33.1238) scale(11.0379)">
<stop stop-color="white"/>
<stop offset="1" stop-color="#B0B0B0"/>
</radialGradient>
<radialGradient id="paint7_radial_537_580" cx="0" cy="0" r="1" gradientUnits="userSpaceOnUse" gradientTransform="translate(30.1393 19.5635) scale(3.1455)">
<stop stop-color="#FEFEFE"/>
<stop offset="1" stop-color="#979592"/>
</radialGradient>
<clipPath id="clip0_537_580">
<rect width="112.832" height="57.6513" fill="white" transform="translate(0.622314 0.173828)"/>
</clipPath>
</defs>
</svg>
