<svg width="138" height="58" viewBox="0 0 138 58" fill="none" xmlns="http://www.w3.org/2000/svg">
<g clip-path="url(#clip0_537_522)">
<mask id="mask0_537_522" style="mask-type:luminance" maskUnits="userSpaceOnUse" x="0" y="0" width="57" height="58">
<path d="M56.9643 0.658203H0.821289V57.3404H56.9643V0.658203Z" fill="white"/>
</mask>
<g mask="url(#mask0_537_522)">
<path d="M47.1618 14.7241L46.8655 17.3467L48.3467 15.1917C48.5051 14.9611 48.415 14.6436 48.1589 14.5312L47.784 14.3664C47.5093 14.2451 47.1957 14.4252 47.1618 14.7241Z" fill="#949494"/>
<path d="M49.3233 17.2471L46.6885 17.0977L48.9228 18.4562C49.1617 18.6013 49.4734 18.4939 49.5717 18.232L49.7155 17.8488C49.8209 17.5671 49.6228 17.2644 49.3233 17.2471Z" fill="#949494"/>
<path d="M48.9382 15.6406L46.8655 17.2738L49.4389 16.8114C49.7142 16.7622 49.8764 16.4748 49.7762 16.2136L49.63 15.831C49.5232 15.5512 49.1745 15.4547 48.9382 15.6406Z" fill="#949494"/>
<path d="M48.641 19.1199L46.8328 17.1973L47.5181 19.7209C47.5916 19.9905 47.8918 20.1272 48.1434 20.0052L48.5119 19.8263C48.7815 19.6941 48.8467 19.3383 48.641 19.1199Z" fill="#949494"/>
<path d="M35.667 39.6439C36.7484 38.9279 37.8323 38.217 38.9252 37.5189C43.9649 34.3002 49.2836 31.2911 55.0016 29.4848C54.7557 29.495 54.4938 29.5065 54.2229 29.52C52.1803 29.6209 50.1209 29.755 48.0655 29.9517L46.8225 17.7857L46.9196 17.366L46.9395 17.3922L46.9292 17.3252L46.9375 17.2894L47.0812 17.2006L46.9561 17.2083L46.9694 17.1514L46.9177 17.2109L46.9119 17.2115L46.5441 14.7837C46.4987 14.4866 46.1787 14.318 45.9085 14.4495L45.54 14.6284C45.2889 14.7505 45.2104 15.071 45.3777 15.2952L46.613 16.9534L44.815 15.5546C44.578 15.37 44.2299 15.4684 44.1239 15.7501L43.9802 16.1333C43.8818 16.3952 44.0459 16.6813 44.3212 16.7292L46.7606 17.1514L46.8097 17.2178L46.7657 17.2204L46.7625 17.191L46.7606 17.2211L44.4483 17.3667C44.1482 17.3858 43.9527 17.6899 44.06 17.971L44.2062 18.3536C44.3059 18.6148 44.6189 18.7201 44.8565 18.5739L46.7465 17.4082L45.2359 19.1417C45.0386 19.3685 45.1171 19.7217 45.3924 19.8425L45.7673 20.0072C46.0228 20.1196 46.318 19.9721 46.3811 19.7L46.6699 18.4519L45.8018 30.1963C45.1408 30.2762 44.4816 30.3637 43.8231 30.4602L43.6869 27.0302L39.6828 23.8333L36.0803 27.2192V32.1069C34.7792 32.4869 33.4959 32.9263 32.2395 33.4354C31.7145 33.6481 31.2073 33.8864 30.6982 34.1284C30.5385 34.2083 29.3741 34.9537 29.2815 34.8962C30.2543 35.496 31.2009 36.1379 32.122 36.8124C33.3413 37.7067 34.5224 38.6539 35.667 39.6439ZM38.8077 26.9528L39.8948 26.0752L41.1033 26.9037L41.1672 28.3453L38.8077 28.3632V26.9528Z" fill="#949494"/>
<path d="M36.9509 40.7887C38.7746 42.4571 40.5017 44.2321 42.1413 46.0781C42.2857 46.2409 42.4294 46.4045 42.5725 46.5686C43.9304 45.4349 45.1958 44.19 46.4049 42.901C47.7782 41.4364 49.0799 39.906 50.3676 38.366C51.7102 36.7602 52.8313 35.0318 53.8947 33.2318C54.2914 32.5605 54.6906 31.886 55.0847 31.207C54.7979 31.3002 54.5112 31.3955 54.2262 31.4957C48.026 33.6655 42.4153 37.1728 36.9509 40.7887Z" fill="#949494"/>
<path d="M51.0985 40.0809C48.7888 42.8288 46.3967 45.5178 43.647 47.823C44.5655 48.9166 45.4565 50.035 46.3156 51.1771C52.0885 46.5347 55.9758 39.6491 56.6651 31.8438C55.0382 34.7398 53.2382 37.5355 51.0985 40.0809Z" fill="#949494"/>
<path d="M31.158 37.8903C27.7715 35.4937 24.1 33.7359 20.1763 32.3927C17.956 31.6326 15.6865 31.0162 13.3871 30.5493V28.2773C14.153 28.3118 14.7751 28.3731 15.1953 28.5277C14.7948 28.179 14.3209 27.6993 13.8694 27.0656C13.8623 27.056 13.8559 27.0465 13.8495 27.0369C14.4053 27.1052 14.8632 27.24 15.1953 27.362C14.7948 27.0133 14.3209 26.5336 13.8694 25.8999C13.8393 25.8578 13.8112 25.8162 13.7825 25.7748C14.3675 25.8399 14.8498 25.9798 15.1953 26.1069C14.8115 25.7722 14.3593 25.3155 13.9249 24.7196C14.4462 24.7904 14.8786 24.9176 15.1953 25.0344C14.7948 24.6857 14.3209 24.206 13.8694 23.5724C13.5327 23.0997 13.2843 22.6481 13.1003 22.2559C12.8902 22.6724 12.6161 23.1438 12.2597 23.6369C11.8452 24.2111 11.4204 24.6729 11.0435 25.0344C11.3367 24.9271 11.7462 24.8026 12.245 24.7291C11.835 25.2938 11.4159 25.7498 11.0435 26.1069C11.3642 25.9893 11.8241 25.8514 12.3888 25.7818C12.3472 25.8424 12.3045 25.9031 12.2597 25.9645C11.8452 26.5387 11.4204 27.0005 11.0435 27.362C11.3508 27.249 11.7864 27.118 12.3191 27.0458C12.2994 27.0739 12.2802 27.1014 12.2597 27.1301C11.8452 27.7044 11.4204 28.1662 11.0435 28.5277C11.4479 28.3795 12.0732 28.3118 12.8519 28.2767V30.4471C12.2597 30.3327 11.667 30.2254 11.0717 30.1316C9.95961 29.9553 8.84249 29.7802 7.72087 29.6321V27.5217C8.81374 27.5587 9.69774 27.4815 10.2905 27.7108C9.74438 27.2099 9.09731 26.5214 8.48094 25.6131C8.47138 25.5991 8.46247 25.585 8.45349 25.5709C9.21165 25.6687 9.83637 25.8622 10.2905 26.0379C9.74438 25.5371 9.09731 24.8486 8.48094 23.9403C8.44004 23.8796 8.40045 23.8195 8.36152 23.7589C9.1612 23.8522 9.81847 24.0546 10.2905 24.2366C9.76608 23.7563 9.14906 23.1003 8.55568 22.2451C9.26785 22.3466 9.85678 22.5306 10.2905 22.698C9.74438 22.1971 9.09731 21.5086 8.48094 20.6003C8.02171 19.9226 7.68254 19.2736 7.43215 18.7109C7.14473 19.3088 6.7717 19.9852 6.28562 20.6923C5.7197 21.5163 5.14036 22.1793 4.62618 22.698C5.02604 22.5434 5.58429 22.3652 6.26582 22.2597C5.70629 23.0703 5.13461 23.7244 4.62618 24.2366C5.06372 24.0674 5.69096 23.87 6.46128 23.7704C6.40442 23.8573 6.34566 23.9441 6.28562 24.0323C5.7197 24.8563 5.14036 25.5193 4.62618 26.0379C5.04583 25.8756 5.63986 25.6879 6.36674 25.5844C6.33991 25.6246 6.31373 25.6642 6.28562 25.7051C5.7197 26.5291 5.14036 27.1921 4.62618 27.7108C5.19594 27.491 6.0857 27.5593 7.19582 27.5217V29.5657C5.37989 29.3408 3.55438 29.199 1.7244 29.2578C1.51617 29.2642 1.35266 29.282 1.22363 29.3197C2.63396 29.6646 4.00086 30.1807 5.36904 30.6854C7.35487 31.4179 9.38283 32.0254 11.3597 32.7862C18.5692 35.5608 25.2466 39.6156 31.3465 44.3339C34.2853 46.6072 36.9942 49.1302 39.6085 51.7675C40.3661 52.5321 41.1179 53.3152 41.8435 54.1226C43.0194 53.501 44.1467 52.7997 45.2167 52.0236C43.623 49.9011 41.9157 47.8636 40.1151 45.916C37.3915 42.9708 34.4354 40.209 31.158 37.8903Z" fill="#949494"/>
<path d="M37.4112 51.9421C34.8148 49.391 32.1302 46.9676 29.2061 44.794C26.2238 42.5775 23.0978 40.5048 19.8734 38.6576C16.6133 36.7899 13.1942 35.2129 9.66329 33.9297C7.93483 33.3012 6.17766 32.7608 4.45179 32.1226C3.27141 31.6851 2.06803 31.2227 0.833984 30.9219C0.836539 30.9646 0.839733 31.0075 0.842288 31.0502C3.39532 32.7071 5.98604 34.3065 8.49499 36.0305C13.9492 39.7786 18.7097 44.3577 23.329 49.0716C25.5365 51.3244 27.8226 53.5306 29.9157 55.8907C30.3111 56.3365 30.6943 56.7907 31.0641 57.255C34.3255 56.992 37.4291 56.1686 40.2785 54.8835C39.3511 53.871 38.3828 52.8963 37.4112 51.9421Z" fill="#949494"/>
<path d="M4.77776 39.7912C3.74173 38.5903 2.70953 37.385 1.63965 36.2148C3.13109 42.1244 6.58667 47.4592 11.3536 51.2572C13.2104 52.7364 15.2467 53.9647 17.3999 54.9216C15.1387 51.5823 12.6406 48.4084 9.92786 45.4217C8.21672 43.5361 6.44295 41.7201 4.77776 39.7912Z" fill="#949494"/>
<path d="M21.1032 49.1906C18.8133 46.8746 16.4819 44.5969 14.0324 42.4488C11.6345 40.346 9.11097 38.4331 6.45825 36.6637C4.67171 35.4725 2.85387 34.3279 1.04688 33.168C1.04751 33.1731 1.04815 33.1782 1.04943 33.1833C3.02505 35.15 4.8084 37.2942 6.63774 39.395C8.34253 41.3521 10.1821 43.1802 11.9003 45.1244C13.5508 46.9909 15.1195 48.9294 16.6072 50.928C17.8208 52.5593 18.973 54.2348 20.0659 55.9472C22.8674 56.8651 25.8133 57.3448 28.7834 57.3448C28.8447 57.3448 28.906 57.3428 28.9667 57.3423C28.5407 56.8504 28.1025 56.3694 27.6567 55.8981C25.5092 53.6293 23.2992 51.4122 21.1032 49.1906Z" fill="#949494"/>
<path d="M27.4163 0.810222C27.4176 0.810222 27.4182 0.810222 27.4195 0.810222C27.8628 0.786589 28.3137 0.773815 28.7589 0.77126C28.7902 0.77126 28.8151 0.74571 28.8151 0.714412C28.8151 0.683753 28.7896 0.658203 28.7589 0.658203C28.3118 0.660758 27.8583 0.673533 27.4137 0.697166C27.3824 0.699082 27.3588 0.725271 27.3607 0.756569C27.3614 0.787228 27.3863 0.810222 27.4163 0.810222Z" fill="#949494"/>
<path d="M17.0551 3.40111C17.0627 3.40111 17.0711 3.3992 17.0787 3.396C17.4824 3.20693 17.8963 3.02489 18.3076 2.85627C18.3364 2.84413 18.3498 2.81156 18.3383 2.78281C18.3268 2.75407 18.2936 2.74065 18.2649 2.75215C17.8516 2.92205 17.4364 3.10473 17.0308 3.29444C17.0027 3.30786 16.9906 3.34106 17.004 3.36917C17.0136 3.38898 17.0333 3.40111 17.0551 3.40111Z" fill="#949494"/>
<path d="M12.4315 6.13836C12.443 6.13836 12.4545 6.13453 12.4647 6.1275C12.825 5.86434 13.1961 5.60757 13.5665 5.36293C13.5928 5.34568 13.5997 5.31055 13.5825 5.28501C13.5652 5.25945 13.5307 5.25179 13.5046 5.26904C13.1322 5.51431 12.7599 5.77236 12.3983 6.0368C12.3734 6.05532 12.3676 6.09045 12.3862 6.11536C12.397 6.13069 12.4143 6.13836 12.4315 6.13836Z" fill="#949494"/>
<path d="M10.333 7.82153C10.3463 7.82153 10.3598 7.81706 10.37 7.80748C10.7034 7.51174 11.0477 7.22048 11.3939 6.94199C11.4182 6.92219 11.422 6.88706 11.4022 6.86279C11.383 6.83852 11.3472 6.83468 11.3229 6.85449C10.9761 7.13425 10.63 7.42679 10.2952 7.72381C10.2722 7.74424 10.2697 7.78002 10.2908 7.80301C10.3023 7.81514 10.3176 7.82153 10.333 7.82153Z" fill="#949494"/>
<path d="M22.1121 1.60406C22.1165 1.60406 22.121 1.60343 22.1255 1.60215C22.5573 1.4942 22.9967 1.39583 23.433 1.30897C23.4636 1.30322 23.4834 1.2732 23.4771 1.24254C23.4707 1.21188 23.4419 1.19208 23.4107 1.19846C22.9731 1.28533 22.5311 1.38434 22.098 1.49292C22.068 1.50059 22.0495 1.53124 22.0572 1.56127C22.0641 1.58682 22.0871 1.60406 22.1121 1.60406Z" fill="#949494"/>
<path d="M24.7504 1.07957C24.7529 1.07957 24.7561 1.07957 24.7587 1.07893C25.1988 1.01314 25.6459 0.957568 26.0885 0.912857C26.1192 0.909663 26.1422 0.882197 26.139 0.851538C26.1358 0.820878 26.109 0.797884 26.0777 0.801078C25.6338 0.845789 25.1841 0.901998 24.7427 0.967788C24.712 0.97226 24.691 1.001 24.6954 1.03166C24.6987 1.05977 24.7229 1.07957 24.7504 1.07957Z" fill="#949494"/>
<path d="M14.6811 4.6576C14.6906 4.6576 14.7009 4.65505 14.7098 4.64994C15.0924 4.42319 15.4859 4.20283 15.8806 3.9946C15.9081 3.9799 15.9183 3.94606 15.9043 3.91859C15.8895 3.89112 15.8557 3.8809 15.8282 3.89495C15.4322 4.10446 15.0369 4.3261 14.653 4.5535C14.6262 4.56946 14.6172 4.60395 14.6331 4.63078C14.6428 4.64739 14.6619 4.6576 14.6811 4.6576Z" fill="#949494"/>
<path d="M8.41945 9.69769C8.43475 9.69769 8.44949 9.69194 8.46034 9.67979C8.76375 9.35403 9.07866 9.03151 9.39673 8.72106C9.41908 8.69934 9.41908 8.66357 9.39737 8.64185C9.37567 8.62013 9.34053 8.61886 9.31818 8.64121C8.99882 8.95288 8.68261 9.27678 8.37855 9.60376C8.35749 9.62675 8.35876 9.6619 8.38114 9.68303C8.39199 9.69259 8.40536 9.69769 8.41945 9.69769Z" fill="#949494"/>
<path d="M1.91285 21.2946C1.91796 21.2958 1.92307 21.2964 1.92818 21.2964C1.95309 21.2964 1.97545 21.2798 1.98248 21.2549C2.10064 20.8264 2.23159 20.3945 2.37019 19.9723C2.37977 19.943 2.3638 19.911 2.33442 19.9015C2.30504 19.8912 2.2731 19.9078 2.26352 19.9372C2.12428 20.3614 1.9927 20.7944 1.87389 21.2256C1.86495 21.2549 1.88283 21.2856 1.91285 21.2946Z" fill="#949494"/>
<path d="M1.33318 23.9145C1.33638 23.9152 1.33957 23.9152 1.34277 23.9152C1.36959 23.9152 1.39322 23.896 1.39833 23.8685C1.47498 23.4304 1.56313 22.9883 1.66085 22.5546C1.66788 22.5247 1.64872 22.494 1.61806 22.4876C1.58804 22.4812 1.55738 22.4997 1.55099 22.5304C1.45327 22.966 1.36448 23.41 1.28783 23.8501C1.28208 23.88 1.30252 23.9094 1.33318 23.9145Z" fill="#949494"/>
<path d="M2.74905 18.7404C2.75544 18.743 2.76246 18.7443 2.76949 18.7443C2.79184 18.7443 2.81356 18.7308 2.82187 18.7078C2.98091 18.2933 3.15209 17.8775 3.3303 17.4713C3.34308 17.4425 3.32966 17.4099 3.30156 17.3972C3.27345 17.385 3.24024 17.3978 3.22746 17.4259C3.04798 17.8334 2.87616 18.2511 2.71647 18.6676C2.70561 18.6963 2.72031 18.7289 2.74905 18.7404Z" fill="#949494"/>
<path d="M6.68359 11.7491C6.7002 11.7491 6.71745 11.7414 6.7283 11.7274C6.99976 11.3735 7.28209 11.0228 7.56825 10.6843C7.58804 10.6607 7.58549 10.6249 7.56186 10.605C7.53822 10.5853 7.50245 10.5878 7.48265 10.6114C7.19522 10.9513 6.91162 11.3039 6.63888 11.659C6.61972 11.6839 6.62483 11.719 6.6491 11.7376C6.65932 11.7452 6.67145 11.7491 6.68359 11.7491Z" fill="#949494"/>
<path d="M5.12168 13.9438C5.13127 13.9495 5.14149 13.9521 5.15171 13.9521C5.17022 13.9521 5.18875 13.9425 5.19961 13.9259C5.4353 13.549 5.68313 13.1728 5.93607 12.8075C5.95396 12.782 5.94757 12.7468 5.92202 12.7289C5.89647 12.711 5.86134 12.7174 5.84345 12.7429C5.58924 13.1096 5.34077 13.4871 5.1038 13.8659C5.08719 13.8927 5.09549 13.9272 5.12168 13.9438Z" fill="#949494"/>
<path d="M3.82437 16.2866C3.83268 16.2904 3.84098 16.2923 3.84928 16.2923C3.86972 16.2923 3.88952 16.2808 3.89974 16.261C4.09775 15.8644 4.30789 15.4664 4.52507 15.078C4.54039 15.0512 4.53081 15.0167 4.50335 15.0014C4.47588 14.9861 4.44203 14.9957 4.4267 15.0231C4.20825 15.4128 3.99747 15.8126 3.79882 16.2105C3.7854 16.2386 3.7969 16.2725 3.82437 16.2866Z" fill="#949494"/>
<path d="M40.4662 3.26156C40.8692 3.44487 41.2742 3.64097 41.6702 3.84408C41.6785 3.84855 41.6875 3.85047 41.6958 3.85047C41.7162 3.85047 41.736 3.83961 41.7456 3.81981C41.7596 3.79235 41.7487 3.75849 41.7213 3.74444C41.324 3.54005 40.9171 3.34331 40.5122 3.15936C40.4841 3.14658 40.4509 3.15872 40.4374 3.18746C40.4253 3.21557 40.4381 3.24878 40.4662 3.26156Z" fill="#949494"/>
<path d="M54.3704 17.1793C54.3799 17.1997 54.4004 17.2125 54.4215 17.2125C54.4292 17.2125 54.4374 17.2106 54.4445 17.2074C54.4726 17.1946 54.4854 17.1614 54.4726 17.1326C54.2879 16.7264 54.0913 16.3183 53.8862 15.9191C53.8721 15.8916 53.8383 15.8808 53.8102 15.8948C53.7827 15.9089 53.7719 15.9427 53.7859 15.9708C53.9904 16.3687 54.1864 16.775 54.3704 17.1793Z" fill="#949494"/>
<path d="M53.1495 14.7938C53.1597 14.8117 53.1789 14.8219 53.198 14.8219C53.2077 14.8219 53.2172 14.8193 53.2261 14.8142C53.253 14.7989 53.2626 14.7644 53.2466 14.7376C53.0237 14.3505 52.7886 13.9634 52.5465 13.5866C52.5299 13.5604 52.4948 13.5527 52.4686 13.5693C52.4425 13.5859 52.4348 13.621 52.4514 13.6473C52.6928 14.0222 52.9273 14.408 53.1495 14.7938Z" fill="#949494"/>
<path d="M51.6986 12.5322C51.7095 12.5476 51.7267 12.5558 51.7446 12.5558C51.7561 12.5558 51.7676 12.5527 51.7772 12.5456C51.8027 12.5277 51.8085 12.4926 51.7906 12.4671C51.5306 12.1017 51.2591 11.7389 50.9845 11.3889C50.9654 11.364 50.9296 11.3602 50.9053 11.3793C50.8811 11.3985 50.8765 11.4336 50.8957 11.4579C51.1691 11.8072 51.4393 12.1681 51.6986 12.5322Z" fill="#949494"/>
<path d="M55.3639 19.675C55.3722 19.6986 55.3939 19.7133 55.4169 19.7133C55.4227 19.7133 55.4291 19.712 55.4348 19.7101C55.4642 19.6999 55.4802 19.6679 55.4699 19.6385C55.3256 19.215 55.1684 18.7897 55.0037 18.3732C54.9922 18.3445 54.9596 18.3304 54.9309 18.3419C54.9021 18.3534 54.888 18.386 54.8995 18.4148C55.0637 18.8293 55.2202 19.2534 55.3639 19.675Z" fill="#949494"/>
<path d="M56.8807 27.6069H56.8833C56.9139 27.6057 56.9382 27.5795 56.9369 27.5482C56.9183 27.1011 56.8897 26.6495 56.85 26.2056C56.8475 26.1749 56.8174 26.1519 56.7893 26.1545C56.7586 26.157 56.7356 26.1845 56.7382 26.2151C56.7772 26.6572 56.8066 27.1075 56.8245 27.5527C56.8258 27.5833 56.8506 27.6069 56.8807 27.6069Z" fill="#949494"/>
<path d="M50.0463 10.4263C50.0571 10.4391 50.0732 10.4455 50.0891 10.4455C50.1019 10.4455 50.1153 10.4411 50.1261 10.4321C50.1498 10.4117 50.1524 10.3759 50.1319 10.3529C49.8394 10.015 49.5347 9.6803 49.2268 9.35714C49.2051 9.33471 49.17 9.33414 49.1476 9.35519C49.1253 9.37689 49.124 9.41204 49.1457 9.43438C49.4517 9.75634 49.755 10.0897 50.0463 10.4263Z" fill="#949494"/>
<path d="M56.6455 24.9323C56.6481 24.9323 56.6506 24.9323 56.6532 24.9317C56.6839 24.9272 56.7056 24.8991 56.7011 24.8685C56.6404 24.4245 56.5682 23.9781 56.4864 23.5398C56.4807 23.5092 56.4507 23.4894 56.4207 23.4951C56.39 23.5009 56.3702 23.5303 56.376 23.561C56.457 23.9965 56.5293 24.4417 56.5893 24.8838C56.5937 24.9119 56.618 24.9323 56.6455 24.9323Z" fill="#949494"/>
<path d="M56.0977 22.2508C56.104 22.2764 56.127 22.2943 56.1526 22.2943C56.1571 22.2943 56.161 22.2936 56.1654 22.293C56.1955 22.2859 56.2146 22.2553 56.2069 22.2253C56.104 21.7903 55.9891 21.3521 55.8652 20.9235C55.8563 20.8935 55.8249 20.8763 55.7956 20.8852C55.7656 20.8935 55.7483 20.9248 55.7572 20.9548C55.8806 21.3815 55.9949 21.8177 56.0977 22.2508Z" fill="#949494"/>
<path d="M32.7674 1.03347C33.2075 1.09414 33.6527 1.16632 34.0903 1.24872C34.0941 1.24936 34.0974 1.25 34.1005 1.25C34.1273 1.25 34.151 1.23083 34.1554 1.20401C34.1612 1.17335 34.1414 1.14397 34.1107 1.13822C33.6719 1.05582 33.2248 0.983005 32.7828 0.922324C32.7508 0.918493 32.7234 0.93957 32.7196 0.97023C32.7151 1.00089 32.7368 1.02963 32.7674 1.03347Z" fill="#949494"/>
<path d="M48.1921 8.48634C48.203 8.49656 48.2171 8.50167 48.2311 8.50167C48.2458 8.50167 48.2605 8.49592 48.272 8.48442C48.2937 8.46206 48.2924 8.4263 48.27 8.40458C47.9462 8.09543 47.6109 7.79139 47.2749 7.50013C47.2513 7.47969 47.2161 7.48225 47.1956 7.50587C47.1752 7.52951 47.1778 7.56464 47.2014 7.58508C47.5355 7.87571 47.8695 8.17847 48.1921 8.48634Z" fill="#949494"/>
<path d="M30.1065 0.794697C30.5524 0.813221 31.002 0.842602 31.444 0.882204C31.4459 0.882204 31.4472 0.882204 31.4492 0.882204C31.4779 0.882204 31.5021 0.860487 31.5054 0.831105C31.5079 0.800445 31.4855 0.77298 31.4543 0.769786C31.0109 0.730185 30.5593 0.700164 30.1116 0.681641C30.0816 0.682918 30.0541 0.704635 30.0528 0.735295C30.0509 0.767231 30.0752 0.793419 30.1065 0.794697Z" fill="#949494"/>
<path d="M37.9821 2.27383C38.4017 2.41754 38.8245 2.57403 39.2391 2.73882C39.2461 2.74138 39.2531 2.74266 39.2595 2.74266C39.2819 2.74266 39.303 2.72924 39.3119 2.70689C39.3234 2.67815 39.3093 2.64557 39.2806 2.63408C38.8648 2.46864 38.4401 2.31151 38.0185 2.16716C37.9891 2.15693 37.9571 2.1729 37.9469 2.20229C37.9374 2.23167 37.9527 2.26361 37.9821 2.27383Z" fill="#949494"/>
<path d="M35.4012 1.52952C35.8336 1.63236 36.2698 1.74733 36.6972 1.87125C36.7023 1.87253 36.7074 1.87316 36.7125 1.87316C36.7368 1.87316 36.7591 1.85719 36.7667 1.83228C36.7751 1.80227 36.7585 1.7716 36.7284 1.76266C36.2992 1.63875 35.8617 1.52314 35.4273 1.41966C35.3973 1.412 35.3667 1.43116 35.3596 1.46118C35.352 1.49184 35.3705 1.5225 35.4012 1.52952Z" fill="#949494"/>
<path d="M46.1702 6.73209C46.1804 6.74039 46.1926 6.74423 46.2047 6.74423C46.2213 6.74423 46.2379 6.73656 46.2488 6.72251C46.268 6.69823 46.2641 6.66247 46.2392 6.64394C45.8879 6.36801 45.5257 6.09654 45.1629 5.8385C45.138 5.82061 45.1029 5.82636 45.0844 5.85191C45.0665 5.87746 45.0722 5.91259 45.0977 5.93047C45.4599 6.18724 45.8208 6.45679 46.1702 6.73209Z" fill="#949494"/>
<path d="M42.8434 4.48606C43.2273 4.70707 43.6125 4.94148 43.9868 5.18164C43.9964 5.18739 44.0066 5.19059 44.0174 5.19059C44.0359 5.19059 44.0538 5.18164 44.0647 5.16504C44.0813 5.13885 44.0737 5.10436 44.0481 5.08711C43.6719 4.84567 43.2855 4.61062 42.9003 4.38834C42.8735 4.37301 42.839 4.38195 42.8237 4.40877C42.807 4.4356 42.8166 4.4701 42.8434 4.48606Z" fill="#949494"/>
<path d="M1.00107 26.5795H1.00554C1.03493 26.5795 1.0592 26.5571 1.06175 26.5278C1.09625 26.0832 1.1416 25.6348 1.19716 25.1941C1.20099 25.1634 1.17928 25.1353 1.14862 25.1314C1.11732 25.127 1.08986 25.1493 1.08603 25.18C1.03046 25.622 0.985105 26.073 0.950613 26.5188C0.946781 26.5501 0.969775 26.5769 1.00107 26.5795Z" fill="#949494"/>
<path d="M19.5435 2.38018C19.5499 2.38018 19.5563 2.3789 19.5621 2.37698C19.9823 2.22752 20.4122 2.08699 20.8383 1.95797C20.8683 1.94903 20.8849 1.91773 20.876 1.88771C20.8671 1.85833 20.8357 1.84108 20.8057 1.85002C20.3777 1.97905 19.9466 2.12085 19.5244 2.27095C19.495 2.28117 19.4797 2.31375 19.4906 2.34249C19.4988 2.36612 19.5205 2.38018 19.5435 2.38018Z" fill="#949494"/>
<path d="M56.9213 30.2399C56.9201 30.2699 56.8952 30.2929 56.8651 30.2929C56.8638 30.2929 56.8632 30.2929 56.862 30.2929C56.8306 30.291 56.807 30.2648 56.8089 30.2335C56.8326 29.7902 56.846 29.3393 56.8492 28.8941C56.8492 28.8634 56.8747 28.8379 56.9054 28.8379C56.9366 28.8379 56.9622 28.8634 56.9622 28.8947C56.9591 29.3419 56.9456 29.7947 56.9213 30.2399Z" fill="#949494"/>
<path d="M56.906 28.8379C56.8747 28.8379 56.8498 28.8628 56.8492 28.8941C56.8466 29.3399 56.8326 29.7902 56.8089 30.2335C56.807 30.2648 56.8313 30.291 56.862 30.2929H56.8651C56.8952 30.2929 56.9195 30.2699 56.9213 30.2399C56.945 29.7947 56.9591 29.3419 56.9616 28.8947C56.9622 28.8634 56.9367 28.8385 56.906 28.8379Z" fill="#949494"/>
</g>
<path d="M61.5967 26.5205V17.6562H65.0939C65.7633 17.6562 66.3346 17.776 66.8078 18.0155C67.2839 18.2522 67.646 18.5883 67.8942 19.024C68.1452 19.4568 68.2708 19.9661 68.2708 20.5518C68.2708 21.1405 68.1438 21.6468 67.8899 22.0711C67.6359 22.4924 67.2681 22.8155 66.7862 23.0406C66.3072 23.2656 65.7272 23.3782 65.0463 23.3782H62.7047V21.872H64.7433C65.101 21.872 65.3983 21.8229 65.6349 21.7248C65.8715 21.6266 66.0475 21.4795 66.1629 21.2833C66.2812 21.0871 66.3404 20.8433 66.3404 20.5518C66.3404 20.2576 66.2812 20.0094 66.1629 19.8074C66.0475 19.6054 65.87 19.4524 65.6305 19.3486C65.394 19.2418 65.0953 19.1885 64.7346 19.1885H63.4708V26.5205H61.5967ZM66.3837 22.4865L68.5867 26.5205H66.5178L64.3624 22.4865H66.3837ZM73.8239 23.6898V19.8723H75.6677V26.5205H73.8974V25.3129H73.8281C73.6781 25.7024 73.4285 26.0154 73.0793 26.2521C72.7331 26.4887 72.3104 26.607 71.8112 26.607C71.3669 26.607 70.9759 26.506 70.6383 26.304C70.3007 26.1021 70.0367 25.8149 69.8463 25.4427C69.6586 25.0705 69.5635 24.6247 69.5605 24.1053V19.8723H71.4043V23.7764C71.4073 24.1688 71.5126 24.4789 71.7204 24.7069C71.9281 24.9349 72.2065 25.0488 72.5557 25.0488C72.7779 25.0488 72.9856 24.9983 73.1789 24.8973C73.3723 24.7935 73.528 24.6405 73.6464 24.4385C73.7675 24.2366 73.8267 23.987 73.8239 23.6898ZM77.1425 26.5205V19.8723H78.93V21.0323H78.9997C79.1207 20.6196 79.3235 20.3081 79.61 20.0974C79.8955 19.8838 80.2237 19.7771 80.5963 19.7771C80.6886 19.7771 80.7879 19.7828 80.8949 19.7944C81.002 19.806 81.0952 19.8218 81.1761 19.842V21.478C81.09 21.4521 80.9698 21.429 80.8175 21.4088C80.6642 21.3886 80.5241 21.3785 80.397 21.3785C80.1262 21.3785 79.8833 21.4376 79.67 21.556C79.4593 21.6714 79.2922 21.833 79.1677 22.0408C79.0467 22.2485 78.9866 22.488 78.9866 22.7592V26.5205H77.1425ZM83.8349 26.6459C83.4109 26.6459 83.0331 26.5724 82.7005 26.4252C82.3688 26.2751 82.1068 26.0544 81.9135 25.763C81.7229 25.4687 81.628 25.1022 81.628 24.6636C81.628 24.2943 81.695 23.9841 81.8308 23.733C81.9666 23.482 82.1512 23.2801 82.3854 23.1271C82.6187 22.9742 82.8842 22.8588 83.1811 22.7809C83.4815 22.7029 83.7957 22.6481 84.1248 22.6164C84.5114 22.576 84.823 22.5385 85.0598 22.5038C85.2966 22.4663 85.4681 22.4116 85.5752 22.3394C85.6814 22.2672 85.7354 22.1605 85.7354 22.0191V21.9932C85.7354 21.719 85.6483 21.5069 85.4751 21.3568C85.3053 21.2068 85.0624 21.1318 84.7482 21.1318C84.4165 21.1318 84.1527 21.2054 83.9559 21.3526C83.76 21.4968 83.6303 21.6786 83.5668 21.8979L81.8613 21.7594C81.9475 21.3555 82.1181 21.0063 82.3723 20.712C82.6257 20.4148 82.9539 20.1869 83.3543 20.0282C83.7583 19.8666 84.2258 19.7858 84.7569 19.7858C85.126 19.7858 85.4795 19.8291 85.8172 19.9156C86.1576 20.0021 86.4589 20.1364 86.7218 20.3182C86.9873 20.4999 87.1962 20.7336 87.3495 21.0193C87.5027 21.3021 87.5784 21.6411 87.5784 22.0364V26.5205H85.8303V25.5985H85.7781C85.6718 25.8062 85.5291 25.9895 85.3497 26.1482C85.1713 26.304 84.9562 26.4266 84.7046 26.5161C84.4539 26.6027 84.164 26.6459 83.8349 26.6459ZM84.3634 25.3735C84.6341 25.3735 84.8735 25.3201 85.0816 25.2133C85.2897 25.1037 85.4525 24.9565 85.5709 24.7718C85.6893 24.5872 85.7476 24.378 85.7476 24.1442V23.4388C85.6901 23.4763 85.6109 23.5109 85.5099 23.5426C85.4115 23.5714 85.301 23.5989 85.1765 23.6249C85.0529 23.648 84.9284 23.6696 84.8047 23.6898C84.6803 23.7071 84.5679 23.7229 84.467 23.7374C84.2502 23.7692 84.0613 23.8196 83.9002 23.8889C83.7383 23.9582 83.6129 24.0519 83.5232 24.1702C83.4336 24.2857 83.3892 24.4299 83.3892 24.603C83.3892 24.8541 83.4797 25.046 83.6617 25.1787C83.8462 25.3085 84.0804 25.3735 84.3634 25.3735ZM90.8527 17.6562V26.5205H89.0097V17.6562H90.8527ZM64.5658 41.4502C63.8848 41.4502 63.2991 41.306 62.8086 41.0174C62.3209 40.726 61.9459 40.322 61.6832 39.8055C61.4235 39.289 61.2937 38.6947 61.2937 38.0223C61.2937 37.3413 61.425 36.744 61.6876 36.2305C61.953 35.7139 62.3296 35.3114 62.8172 35.0229C63.3048 34.7314 63.8848 34.5857 64.5572 34.5857C65.1372 34.5857 65.645 34.691 66.0807 34.9017C66.5164 35.1123 66.8612 35.4081 67.1151 35.789C67.3691 36.1699 67.509 36.6171 67.5349 37.1307H65.7951C65.746 36.7989 65.6162 36.5319 65.4055 36.33C65.1978 36.1251 64.9251 36.0227 64.5875 36.0227C64.3018 36.0227 64.0522 36.1006 63.8387 36.2564C63.628 36.4094 63.4636 36.6329 63.3452 36.9273C63.2269 37.2216 63.1678 37.578 63.1678 37.9964C63.1678 38.4205 63.2255 38.7812 63.341 39.0784C63.4593 39.3755 63.6251 39.6021 63.8387 39.7579C64.0522 39.9137 64.3018 39.9917 64.5875 39.9917C64.7981 39.9917 64.9871 39.9484 65.1545 39.8618C65.3247 39.7752 65.4647 39.6497 65.5743 39.4852C65.6869 39.3179 65.7604 39.1173 65.7951 38.8836H67.5349C67.5061 39.3915 67.3676 39.8387 67.1195 40.2253C66.8742 40.6092 66.5352 40.9093 66.1023 41.1256C65.6695 41.342 65.1574 41.4502 64.5658 41.4502ZM71.7192 41.4502C71.047 41.4502 70.4655 41.3074 69.975 41.0217C69.4873 40.7332 69.1108 40.3321 68.8453 39.8185C68.5799 39.302 68.4471 38.7033 68.4471 38.0223C68.4471 37.3356 68.5799 36.7354 68.8453 36.2218C69.1108 35.7052 69.4873 35.3042 69.975 35.0185C70.4655 34.73 71.047 34.5857 71.7192 34.5857C72.3916 34.5857 72.9716 34.73 73.4592 35.0185C73.9497 35.3042 74.3277 35.7052 74.5932 36.2218C74.8587 36.7354 74.9913 37.3356 74.9913 38.0223C74.9913 38.7033 74.8587 39.302 74.5932 39.8185C74.3277 40.3321 73.9497 40.7332 73.4592 41.0217C72.9716 41.3074 72.3916 41.4502 71.7192 41.4502ZM71.7279 40.0219C72.0338 40.0219 72.2891 39.9353 72.494 39.7623C72.6989 39.5862 72.8533 39.3467 72.9571 39.0438C73.0638 38.7408 73.1172 38.396 73.1172 38.0093C73.1172 37.6227 73.0638 37.2779 72.9571 36.9749C72.8533 36.6719 72.6989 36.4324 72.494 36.2564C72.2891 36.0804 72.0338 35.9924 71.7279 35.9924C71.4191 35.9924 71.1594 36.0804 70.9488 36.2564C70.741 36.4324 70.5838 36.6719 70.4771 36.9749C70.3732 37.2779 70.3212 37.6227 70.3212 38.0093C70.3212 38.396 70.3732 38.7408 70.4771 39.0438C70.5838 39.3467 70.741 39.5862 70.9488 39.7623C71.1594 39.9353 71.4191 40.0219 71.7279 40.0219ZM76.1903 41.3204V34.6723H77.9475V35.8452H78.0254C78.1639 35.4556 78.3948 35.1484 78.718 34.9233C79.0415 34.6982 79.428 34.5857 79.8781 34.5857C80.3334 34.5857 80.7217 34.6997 81.0421 34.9276C81.3624 35.1527 81.5757 35.4586 81.6828 35.8452H81.7516C81.8874 35.4643 82.1329 35.1599 82.4881 34.932C82.8459 34.7011 83.2682 34.5857 83.7557 34.5857C84.3764 34.5857 84.8796 34.7834 85.2662 35.1787C85.6562 35.5711 85.8512 36.128 85.8512 36.8494V41.3204H84.0116V37.2129C84.0116 36.8436 83.9133 36.5666 83.7174 36.3819C83.5206 36.1972 83.2751 36.1049 82.9809 36.1049C82.6466 36.1049 82.3854 36.2117 82.1982 36.4252C82.0102 36.6358 81.9161 36.9143 81.9161 37.2605V41.3204H80.1288V37.174C80.1288 36.8479 80.0348 36.5882 79.8476 36.3949C79.6631 36.2016 79.4193 36.1049 79.1163 36.1049C78.9109 36.1049 78.7266 36.1568 78.5621 36.2608C78.4005 36.3617 78.2721 36.5045 78.1769 36.6892C78.0817 36.871 78.0341 37.0845 78.0341 37.3298V41.3204H76.1903ZM87.3077 41.3204V34.6723H89.0645V35.8452H89.142C89.2813 35.4556 89.512 35.1484 89.835 34.9233C90.158 34.6982 90.5445 34.5857 90.9946 34.5857C91.4508 34.5857 91.8391 34.6997 92.1595 34.9276C92.4798 35.1527 92.6931 35.4586 92.7993 35.8452H92.869C93.0048 35.4643 93.2503 35.1599 93.6046 34.932C93.9624 34.7011 94.3855 34.5857 94.8731 34.5857C95.4929 34.5857 95.997 34.7834 96.3835 35.1787C96.7727 35.5711 96.9677 36.128 96.9677 36.8494V41.3204H95.1282V37.2129C95.1282 36.8436 95.0298 36.5666 94.8339 36.3819C94.638 36.1972 94.3925 36.1049 94.0982 36.1049C93.7631 36.1049 93.5028 36.2117 93.3147 36.4252C93.1275 36.6358 93.0335 36.9143 93.0335 37.2605V41.3204H91.2462V37.174C91.2462 36.8479 91.1522 36.5882 90.965 36.3949C90.7796 36.2016 90.5358 36.1049 90.2328 36.1049C90.0283 36.1049 89.8437 36.1568 89.6792 36.2608C89.5172 36.3617 89.3892 36.5045 89.2935 36.6892C89.1986 36.871 89.1507 37.0845 89.1507 37.3298V41.3204H87.3077ZM102.687 38.4897V34.6723H104.531V41.3204H102.761V40.1128H102.692C102.542 40.5023 102.292 40.8154 101.943 41.052C101.597 41.2887 101.174 41.407 100.675 41.407C100.231 41.407 99.8398 41.306 99.502 41.104C99.1642 40.902 98.9004 40.6149 98.7097 40.2426C98.5226 39.8705 98.4268 39.4246 98.4242 38.9052V34.6723H100.268V38.5763C100.271 38.9687 100.376 39.2789 100.584 39.5069C100.791 39.7348 101.07 39.8488 101.419 39.8488C101.642 39.8488 101.849 39.7983 102.042 39.6973C102.236 39.5934 102.391 39.4405 102.51 39.2385C102.631 39.0365 102.69 38.7869 102.687 38.4897ZM107.85 37.477V41.3204H106.006V34.6723H107.763V35.8452H107.841C107.988 35.4586 108.235 35.1527 108.581 34.9276C108.928 34.6997 109.347 34.5857 109.841 34.5857C110.302 34.5857 110.706 34.6867 111.049 34.8887C111.392 35.0907 111.659 35.3792 111.849 35.7543C112.039 36.1265 112.135 36.5709 112.135 37.0874V41.3204H110.291V37.4164C110.294 37.0095 110.19 36.6921 109.979 36.4641C109.769 36.2333 109.479 36.1179 109.11 36.1179C108.862 36.1179 108.642 36.1713 108.452 36.278C108.264 36.3848 108.117 36.5406 108.01 36.7455C107.907 36.9475 107.853 37.1913 107.85 37.477ZM113.588 41.3204V34.6723H115.432V41.3204H113.588ZM114.514 33.8153C114.24 33.8153 114.005 33.7244 113.809 33.5426C113.615 33.358 113.518 33.1372 113.518 32.8804C113.518 32.6265 113.615 32.4086 113.809 32.2268C114.005 32.0422 114.24 31.9499 114.514 31.9499C114.789 31.9499 115.022 32.0422 115.215 32.2268C115.412 32.4086 115.509 32.6265 115.509 32.8804C115.509 33.1372 115.412 33.358 115.215 33.5426C115.022 33.7244 114.789 33.8153 114.514 33.8153ZM120.445 34.6723V36.0573H116.442V34.6723H120.445ZM117.351 33.0795H119.194V39.2775C119.194 39.4477 119.22 39.5805 119.272 39.6756C119.324 39.768 119.396 39.8329 119.489 39.8705C119.584 39.908 119.693 39.9267 119.817 39.9267C119.904 39.9267 119.99 39.9195 120.077 39.905C120.164 39.8878 120.23 39.8747 120.276 39.8661L120.566 41.2382C120.474 41.267 120.344 41.3002 120.177 41.3377C120.009 41.3781 119.806 41.4026 119.566 41.4113C119.122 41.4286 118.732 41.3694 118.398 41.2338C118.066 41.0982 117.808 40.8876 117.623 40.6019C117.439 40.3162 117.347 39.9555 117.351 39.5199V33.0795ZM121.646 41.3204V34.6723H123.49V41.3204H121.646ZM122.572 33.8153C122.298 33.8153 122.063 33.7244 121.866 33.5426C121.673 33.358 121.577 33.1372 121.577 32.8804C121.577 32.6265 121.673 32.4086 121.866 32.2268C122.063 32.0422 122.298 31.9499 122.572 31.9499C122.847 31.9499 123.08 32.0422 123.273 32.2268C123.47 32.4086 123.568 32.6265 123.568 32.8804C123.568 33.1372 123.47 33.358 123.273 33.5426C123.08 33.7244 122.847 33.8153 122.572 33.8153ZM127.996 41.4502C127.313 41.4502 126.724 41.3117 126.231 41.0347C125.741 40.7548 125.362 40.3596 125.096 39.8488C124.832 39.3351 124.698 38.7278 124.698 38.0267C124.698 37.3428 124.832 36.7426 125.096 36.2261C125.362 35.7096 125.736 35.3071 126.218 35.0185C126.703 34.73 127.271 34.5857 127.923 34.5857C128.362 34.5857 128.77 34.6564 129.148 34.7978C129.528 34.9363 129.861 35.1455 130.143 35.4253C130.429 35.7052 130.652 36.0573 130.81 36.4815C130.968 36.9027 131.048 37.3962 131.048 37.9617V38.4681H125.434V37.3255H129.313C129.313 37.06 129.255 36.8248 129.139 36.62C129.024 36.4151 128.863 36.2549 128.659 36.1396C128.457 36.0213 128.222 35.9621 127.954 35.9621C127.673 35.9621 127.425 36.027 127.209 36.1568C126.995 36.2838 126.828 36.4555 126.707 36.6719C126.586 36.8854 126.523 37.1235 126.521 37.3861V38.4724C126.521 38.8014 126.582 39.0856 126.703 39.325C126.826 39.5645 127.001 39.7493 127.226 39.8791C127.451 40.009 127.719 40.0738 128.027 40.0738C128.232 40.0738 128.419 40.045 128.59 39.9873C128.76 39.9296 128.905 39.843 129.027 39.7276C129.148 39.6122 129.24 39.4708 129.304 39.3035L131.009 39.416C130.922 39.8257 130.745 40.1835 130.477 40.4894C130.211 40.7923 129.868 41.029 129.447 41.1992C129.028 41.3666 128.545 41.4502 127.996 41.4502ZM137.783 36.568L136.094 36.6719C136.066 36.5276 136.004 36.3978 135.909 36.2823C135.813 36.164 135.688 36.0703 135.532 36.0011C135.379 35.9289 135.196 35.8928 134.983 35.8928C134.696 35.8928 134.456 35.9534 134.259 36.0746C134.063 36.1929 133.965 36.3516 133.965 36.5507C133.965 36.7094 134.029 36.8436 134.156 36.9532C134.283 37.0629 134.5 37.1509 134.809 37.2173L136.013 37.4596C136.659 37.5924 137.141 37.8059 137.458 38.1002C137.776 38.3946 137.934 38.7812 137.934 39.2602C137.934 39.6958 137.806 40.0782 137.549 40.4071C137.295 40.7361 136.946 40.9929 136.502 41.1776C136.06 41.3593 135.551 41.4502 134.974 41.4502C134.094 41.4502 133.392 41.267 132.87 40.9005C132.351 40.5312 132.046 40.0292 131.957 39.3943L133.771 39.2991C133.826 39.5675 133.958 39.7724 134.169 39.9137C134.379 40.0522 134.649 40.1215 134.978 40.1215C135.301 40.1215 135.561 40.0595 135.757 39.9353C135.956 39.8084 136.057 39.6453 136.06 39.4463C136.057 39.2789 135.986 39.1419 135.848 39.0351C135.71 38.9254 135.496 38.8418 135.207 38.7841L134.056 38.5547C133.407 38.4249 132.924 38.1997 132.606 37.8794C132.292 37.5591 132.134 37.1509 132.134 36.6546C132.134 36.2275 132.25 35.8597 132.481 35.5509C132.714 35.2422 133.042 35.0041 133.464 34.8367C133.888 34.6694 134.384 34.5857 134.952 34.5857C135.791 34.5857 136.452 34.7632 136.935 35.1181C137.419 35.473 137.702 35.9563 137.783 36.568Z" fill="black"/>
</g>
<defs>
<clipPath id="clip0_537_522">
<rect width="137.657" height="56.6822" fill="white" transform="translate(0.277344 0.658203)"/>
</clipPath>
</defs>
</svg>
