<svg width="104" height="31" viewBox="0 0 104 31" fill="none" xmlns="http://www.w3.org/2000/svg">
<path d="M0.234668 18.7896V18.5869C1.52534 18.5869 2.03734 17.8829 2.03734 16.2082V5.6375C2.03734 3.95216 1.52534 3.25883 0.234668 3.25883V3.05616H11.6267L11.6694 8.48551H11.4987C11.2107 5.23217 9.90937 3.44016 7.7867 3.44016H4.57602V9.74418L6.97603 9.72285C8.37336 9.71218 9.14137 8.78418 9.3547 6.84284H9.52537V13.2962H9.3547C9.14137 11.1415 8.38403 10.1389 6.97603 10.1282L4.57602 10.1175V16.2082C4.57602 17.8829 5.13069 18.5869 6.49602 18.5869V18.7896H0.234668ZM21.1414 13.2215C21.1414 16.9122 19.6481 19.0456 17.0134 19.0456C14.1121 19.0456 12.192 16.4535 12.192 11.9735C12.192 7.28018 14.2401 4.36816 17.2694 4.36816C19.2534 4.36816 21.1521 5.69084 21.1521 9.52018H14.4001C14.3894 9.78685 14.3787 10.0535 14.3787 10.3415C14.3787 14.7042 15.7761 17.1255 17.9734 17.1255C19.7014 17.1255 20.9494 15.6002 20.9494 13.2215H21.1414ZM14.4107 9.14685H18.8161C18.8267 9.01885 18.8267 8.89085 18.8267 8.76285C18.8267 6.32017 17.9627 4.78417 16.7147 4.78417C15.4454 4.78417 14.5921 6.33084 14.4107 9.14685ZM31.1681 13.2215C31.1681 16.9122 29.6748 19.0456 27.0401 19.0456C24.1388 19.0456 22.2187 16.4535 22.2187 11.9735C22.2187 7.28018 24.2668 4.36816 27.2961 4.36816C29.2801 4.36816 31.1788 5.69084 31.1788 9.52018H24.4268C24.4161 9.78685 24.4054 10.0535 24.4054 10.3415C24.4054 14.7042 25.8028 17.1255 28.0001 17.1255C29.7281 17.1255 30.9761 15.6002 30.9761 13.2215H31.1681ZM24.4374 9.14685H28.8428C28.8534 9.01885 28.8534 8.89085 28.8534 8.76285C28.8534 6.32017 27.9894 4.78417 26.7414 4.78417C25.4721 4.78417 24.6188 6.33084 24.4374 9.14685ZM31.2428 18.7896V18.5976C32.4801 18.5976 32.9068 18.0215 32.9068 16.8695L32.9175 3.34416C32.9175 2.19216 32.4908 2.00016 31.2214 2.07482V1.88282C32.4908 1.72282 33.7708 1.33882 35.0721 0.752151H35.2001V16.8695C35.2001 18.0215 35.6268 18.5976 36.8641 18.5976V18.7896H31.2428ZM48.1282 18.7896V18.5869C50.1335 18.5869 50.6882 17.9255 50.2189 16.3149L49.0028 12.1122H44.7682L43.5948 16.1015C43.0935 17.8295 43.6482 18.5869 45.5895 18.5869V18.7896H41.2482V18.5869C42.0375 18.5762 42.5815 17.9895 43.0615 16.3789L46.6348 4.2295C46.2508 3.44016 45.8135 3.08816 45.2482 3.08816V2.88549H48.9388L52.8749 16.3149C53.3442 17.9255 53.8882 18.5869 54.6242 18.5869V18.7896H48.1282ZM44.8855 11.7069H48.8855L47.0508 5.37084C46.9975 5.1895 46.9442 5.0295 46.8908 4.8695L44.8855 11.7069ZM57.4935 15.8029C57.4935 16.7095 57.9095 17.1789 58.7202 17.1789C59.9149 17.1789 60.6402 16.0589 60.6402 14.1709H60.8109C60.8109 17.3495 59.7016 19.0456 57.6855 19.0456C56.0962 19.0456 55.1789 18.0215 55.1789 16.2722V6.1495H53.3442V6.01084C55.6589 5.0295 56.9815 3.40816 57.2375 1.53082H57.4615V4.68817H60.6402V6.1495H57.4935V15.8029ZM65.1522 15.8029C65.1522 16.7095 65.5682 17.1789 66.3789 17.1789C67.5736 17.1789 68.2989 16.0589 68.2989 14.1709H68.4696C68.4696 17.3495 67.3602 19.0456 65.3442 19.0456C63.7549 19.0456 62.8376 18.0215 62.8376 16.2722V6.1495H61.0029V6.01084C63.3176 5.0295 64.6402 3.40816 64.8962 1.53082H65.1202V4.68817H68.2989V6.1495H65.1522V15.8029ZM71.8296 19.0456C69.9629 19.0456 69.1309 17.6269 69.7496 15.4295L72.2883 6.48017C71.3283 6.49084 70.2189 7.66418 69.8136 9.13618L69.6643 9.10418C70.5389 5.96817 71.8083 4.44283 73.3549 4.44283C74.5496 4.44283 74.9336 5.5095 74.4749 7.10951L72.0643 15.5255C71.6696 16.8802 72.0749 17.7015 73.1096 17.7015C74.3149 17.7015 75.6909 16.4962 76.4696 13.5949L78.8696 4.62417H81.227L77.8776 16.9762C78.8696 17.0295 80.0216 15.8455 80.4376 14.3309L80.5976 14.3629C79.723 17.4882 78.4109 19.0136 76.9389 19.0136C75.7763 19.0136 75.4456 18.0642 75.8509 16.6882C76.0109 16.1655 76.2563 15.5575 76.6616 14.4269H76.5229C75.3603 17.5202 73.7389 19.0456 71.8296 19.0456ZM88.8963 18.9816C87.659 18.9816 87.2963 17.9255 87.7443 16.3362L90.1657 7.88818C90.5497 6.54417 90.155 5.72284 89.1097 5.72284C87.915 5.72284 86.5283 6.92817 85.7496 9.82952L83.3496 18.7896H81.003L84.3416 6.44817C83.3496 6.39484 82.1976 7.57884 81.7816 9.08285L81.6323 9.06152C82.4643 6.0535 83.755 4.40016 85.259 4.40016C86.4963 4.40016 86.763 5.4135 86.3683 6.72551C86.219 7.24818 85.9736 7.86684 85.5576 8.98685H85.6963C86.859 5.90417 88.4697 4.36816 90.3897 4.36816C92.267 4.36816 93.0883 5.7975 92.4697 7.98418L89.931 16.9549C90.9017 16.9442 92.011 15.7709 92.4163 14.2989L92.5657 14.3415C91.691 17.4669 90.3897 18.9816 88.8963 18.9816ZM96.9497 19.0456C94.6883 19.0456 93.419 17.4349 93.419 14.3415C93.419 9.28552 96.7364 4.36816 100.544 4.36816C102.272 4.36816 103.574 5.3815 103.574 7.04551C103.574 9.36018 101.067 11.0349 97.611 11.0349C97.1097 11.0349 96.619 11.0029 96.1604 10.9389C96.0004 11.7815 95.9044 12.6349 95.9044 13.4775C95.9044 15.9522 96.7044 17.1789 98.3257 17.1789C100.096 17.1789 101.515 15.6962 102.091 13.2215H102.283C101.419 16.9762 99.531 19.0456 96.9497 19.0456ZM96.235 10.5975C96.5764 10.6402 96.8857 10.6615 97.1737 10.6615C99.6377 10.6615 101.451 8.92285 101.451 6.61884C101.451 5.48817 100.96 4.78417 100.16 4.78417C98.603 4.78417 96.9284 7.48284 96.235 10.5975Z" fill="black"/>
<path d="M60.6136 28.2524V23.1084H62.412C62.7703 23.1084 63.0659 23.1704 63.2986 23.2943C63.5314 23.4165 63.7047 23.5814 63.8185 23.7891C63.9324 23.995 63.9893 24.2236 63.9893 24.4748C63.9893 24.6958 63.95 24.8783 63.8713 25.0223C63.7943 25.1663 63.6921 25.2802 63.5649 25.3639C63.4393 25.4477 63.3028 25.5096 63.1554 25.5498V25.6C63.3128 25.6101 63.4711 25.6653 63.6302 25.7658C63.7892 25.8663 63.9224 26.0103 64.0295 26.1978C64.1367 26.3854 64.1903 26.6148 64.1903 26.8861C64.1903 27.1439 64.1317 27.3758 64.0145 27.5818C63.8972 27.7878 63.7122 27.951 63.4594 28.0716C63.2065 28.1922 62.8775 28.2524 62.4723 28.2524H60.6136ZM61.2365 27.6999H62.4723C62.8792 27.6999 63.168 27.6212 63.3388 27.4638C63.5113 27.3047 63.5975 27.1121 63.5975 26.8861C63.5975 26.7119 63.5531 26.5512 63.4644 26.4038C63.3756 26.2548 63.2492 26.1359 63.0851 26.0471C62.921 25.9567 62.7268 25.9115 62.5024 25.9115H61.2365V27.6999ZM61.2365 25.369H62.3919C62.5794 25.369 62.7485 25.3321 62.8992 25.2584C63.0516 25.1848 63.1722 25.081 63.2609 24.947C63.3514 24.813 63.3966 24.6556 63.3966 24.4748C63.3966 24.2487 63.3179 24.057 63.1605 23.8996C63.0031 23.7405 62.7536 23.661 62.412 23.661H61.2365V25.369ZM65.5152 29.6992C65.4148 29.6992 65.3252 29.6908 65.2465 29.6741C65.1678 29.659 65.1133 29.6439 65.0832 29.6289L65.2339 29.1064C65.3779 29.1433 65.5052 29.1567 65.6157 29.1466C65.7262 29.1366 65.8242 29.0872 65.9096 28.9984C65.9966 28.9114 66.0762 28.7699 66.1482 28.5739L66.2587 28.2725L64.832 24.3944H65.475L66.54 27.4688H66.5802L67.6452 24.3944H68.2882L66.6505 28.8151C66.5769 29.0143 66.4856 29.1793 66.3768 29.3099C66.2679 29.4422 66.1415 29.5401 65.9975 29.6038C65.8551 29.6674 65.6944 29.6992 65.5152 29.6992ZM71.1403 28.2524V23.1084H74.2448V23.661H71.7632V25.3991H74.084V25.9517H71.7632V27.6999H74.285V28.2524H71.1403ZM76.4225 28.3429C76.178 28.3429 75.9561 28.2968 75.7568 28.2047C75.5576 28.1109 75.3993 27.9761 75.2821 27.8003C75.1649 27.6228 75.1063 27.4085 75.1063 27.1573C75.1063 26.9363 75.1498 26.7571 75.2369 26.6198C75.324 26.4808 75.4404 26.372 75.5861 26.2933C75.7317 26.2146 75.8925 26.156 76.0683 26.1175C76.2458 26.0773 76.4241 26.0455 76.6033 26.022C76.8377 25.9919 77.0278 25.9693 77.1735 25.9542C77.3208 25.9375 77.428 25.9098 77.495 25.8713C77.5636 25.8328 77.598 25.7658 77.598 25.6704V25.6503C77.598 25.4025 77.5301 25.2099 77.3945 25.0726C77.2605 24.9353 77.0571 24.8666 76.7842 24.8666C76.5012 24.8666 76.2793 24.9286 76.1185 25.0525C75.9578 25.1764 75.8448 25.3087 75.7795 25.4493L75.2168 25.2484C75.3173 25.014 75.4513 24.8315 75.6187 24.7008C75.7878 24.5686 75.972 24.4765 76.1713 24.4245C76.3722 24.371 76.5698 24.3442 76.7641 24.3442C76.888 24.3442 77.0303 24.3592 77.1911 24.3894C77.3535 24.4179 77.51 24.4773 77.6607 24.5677C77.8131 24.6581 77.9396 24.7946 78.04 24.9771C78.1405 25.1597 78.1907 25.4041 78.1907 25.7106V28.2524H77.598V27.73H77.5678C77.5276 27.8137 77.4606 27.9033 77.3669 27.9988C77.2731 28.0942 77.1484 28.1754 76.9926 28.2424C76.8369 28.3094 76.6468 28.3429 76.4225 28.3429ZM76.5129 27.8104C76.7473 27.8104 76.9449 27.7643 77.1057 27.6722C77.2681 27.5801 77.3903 27.4612 77.4724 27.3156C77.5561 27.1699 77.598 27.0167 77.598 26.8559V26.3134C77.5728 26.3435 77.5176 26.3711 77.4322 26.3963C77.3485 26.4197 77.2513 26.4406 77.1408 26.4591C77.032 26.4758 76.9256 26.4909 76.8218 26.5043C76.7197 26.516 76.6368 26.526 76.5732 26.5344C76.4191 26.5545 76.2751 26.5872 76.1411 26.6324C76.0089 26.6759 75.9017 26.742 75.8196 26.8308C75.7393 26.9179 75.6991 27.0368 75.6991 27.1875C75.6991 27.3934 75.7753 27.5492 75.9276 27.6546C76.0817 27.7585 76.2768 27.8104 76.5129 27.8104ZM82.0054 25.2584L81.4729 25.4092C81.4395 25.3204 81.3901 25.2342 81.3247 25.1504C81.2611 25.065 81.174 24.9947 81.0635 24.9395C80.953 24.8842 80.8115 24.8566 80.639 24.8566C80.4029 24.8566 80.2062 24.911 80.0488 25.0198C79.8931 25.127 79.8152 25.2635 79.8152 25.4292C79.8152 25.5766 79.8688 25.693 79.9759 25.7784C80.0831 25.8638 80.2506 25.9349 80.4783 25.9919L81.051 26.1325C81.3959 26.2163 81.653 26.3444 81.8221 26.5168C81.9912 26.6876 82.0758 26.9078 82.0758 27.1774C82.0758 27.3984 82.0121 27.596 81.8849 27.7702C81.7593 27.9443 81.5835 28.0816 81.3574 28.1821C81.1313 28.2826 80.8684 28.3328 80.5687 28.3328C80.1752 28.3328 79.8495 28.2474 79.5916 28.0766C79.3338 27.9058 79.1705 27.6563 79.1019 27.3281L79.6645 27.1875C79.7181 27.3951 79.8194 27.5508 79.9684 27.6546C80.1191 27.7585 80.3159 27.8104 80.5587 27.8104C80.835 27.8104 81.0543 27.7518 81.2167 27.6346C81.3808 27.5157 81.4629 27.3733 81.4629 27.2076C81.4629 27.0736 81.416 26.9614 81.3222 26.871C81.2285 26.7789 81.0845 26.7102 80.8902 26.665L80.2472 26.5143C79.8939 26.4306 79.6343 26.3008 79.4686 26.125C79.3045 25.9475 79.2224 25.7256 79.2224 25.4594C79.2224 25.2417 79.2835 25.0491 79.4058 24.8817C79.5297 24.7142 79.698 24.5828 79.9106 24.4873C80.125 24.3919 80.3678 24.3442 80.639 24.3442C81.0208 24.3442 81.3206 24.4279 81.5382 24.5953C81.7576 24.7628 81.9133 24.9838 82.0054 25.2584ZM84.5856 28.3328C84.2139 28.3328 83.8932 28.2508 83.6236 28.0867C83.3557 27.9209 83.1489 27.6898 83.0032 27.3934C82.8592 27.0954 82.7872 26.7487 82.7872 26.3536C82.7872 25.9584 82.8592 25.6101 83.0032 25.3087C83.1489 25.0056 83.3515 24.7695 83.6111 24.6004C83.8723 24.4296 84.177 24.3442 84.5253 24.3442C84.7263 24.3442 84.9247 24.3777 85.1206 24.4446C85.3165 24.5116 85.4949 24.6205 85.6556 24.7712C85.8164 24.9202 85.9445 25.1178 86.0399 25.3639C86.1354 25.6101 86.1831 25.9132 86.1831 26.2732V26.5244H83.2092V26.012H85.5803C85.5803 25.7943 85.5367 25.6 85.4497 25.4292C85.3643 25.2584 85.242 25.1236 85.0829 25.0249C84.9255 24.9261 84.7397 24.8767 84.5253 24.8767C84.2892 24.8767 84.0849 24.9353 83.9125 25.0525C83.7417 25.168 83.6102 25.3187 83.5181 25.5046C83.426 25.6905 83.38 25.8897 83.38 26.1024V26.444C83.38 26.7354 83.4302 26.9823 83.5307 27.185C83.6328 27.3859 83.7743 27.5391 83.9552 27.6446C84.136 27.7484 84.3462 27.8003 84.5856 27.8003C84.7413 27.8003 84.882 27.7786 85.0076 27.735C85.1349 27.6898 85.2445 27.6228 85.3366 27.5341C85.4287 27.4437 85.4999 27.3315 85.5501 27.1975L86.1228 27.3583C86.0625 27.5525 85.9612 27.7233 85.8189 27.8707C85.6765 28.0163 85.5007 28.1302 85.2914 28.2123C85.0821 28.2926 84.8468 28.3328 84.5856 28.3328ZM91.3045 24.7159H90.6816C90.6448 24.5367 90.5803 24.3793 90.4882 24.2437C90.3978 24.1081 90.2873 23.9942 90.1567 23.9021C90.0277 23.8083 89.8846 23.738 89.7271 23.6911C89.5697 23.6442 89.4056 23.6208 89.2348 23.6208C88.9234 23.6208 88.6412 23.6995 88.3884 23.8569C88.1372 24.0143 87.9371 24.2462 87.7881 24.5526C87.6407 24.8591 87.5671 25.235 87.5671 25.6804C87.5671 26.1258 87.6407 26.5018 87.7881 26.8082C87.9371 27.1146 88.1372 27.3465 88.3884 27.5039C88.6412 27.6613 88.9234 27.74 89.2348 27.74C89.4056 27.74 89.5697 27.7166 89.7271 27.6697C89.8846 27.6228 90.0277 27.5533 90.1567 27.4612C90.2873 27.3675 90.3978 27.2528 90.4882 27.1171C90.5803 26.9798 90.6448 26.8224 90.6816 26.6449H91.3045C91.2576 26.9078 91.1722 27.1431 91.0483 27.3507C90.9244 27.5584 90.7704 27.735 90.5862 27.8807C90.402 28.0247 90.1952 28.1344 89.9658 28.2097C89.738 28.2851 89.4944 28.3228 89.2348 28.3228C88.7961 28.3228 88.406 28.2156 88.0644 28.0013C87.7228 27.7869 87.454 27.4822 87.2581 27.087C87.0622 26.6918 86.9642 26.223 86.9642 25.6804C86.9642 25.1379 87.0622 24.669 87.2581 24.2738C87.454 23.8787 87.7228 23.5739 88.0644 23.3596C88.406 23.1452 88.7961 23.0381 89.2348 23.0381C89.4944 23.0381 89.738 23.0757 89.9658 23.1511C90.1952 23.2264 90.402 23.337 90.5862 23.4826C90.7704 23.6267 90.9244 23.8025 91.0483 24.0101C91.1722 24.2161 91.2576 24.4513 91.3045 24.7159ZM93.366 28.3429C93.1216 28.3429 92.8997 28.2968 92.7004 28.2047C92.5012 28.1109 92.3429 27.9761 92.2257 27.8003C92.1085 27.6228 92.0499 27.4085 92.0499 27.1573C92.0499 26.9363 92.0934 26.7571 92.1805 26.6198C92.2676 26.4808 92.3839 26.372 92.5296 26.2933C92.6753 26.2146 92.8361 26.156 93.0119 26.1175C93.1894 26.0773 93.3677 26.0455 93.5469 26.022C93.7813 25.9919 93.9714 25.9693 94.117 25.9542C94.2644 25.9375 94.3716 25.9098 94.4385 25.8713C94.5072 25.8328 94.5415 25.7658 94.5415 25.6704V25.6503C94.5415 25.4025 94.4737 25.2099 94.3381 25.0726C94.2041 24.9353 94.0007 24.8666 93.7277 24.8666C93.4447 24.8666 93.2229 24.9286 93.0621 25.0525C92.9014 25.1764 92.7883 25.3087 92.723 25.4493L92.1604 25.2484C92.2609 25.014 92.3948 24.8315 92.5623 24.7008C92.7314 24.5686 92.9156 24.4765 93.1149 24.4245C93.3158 24.371 93.5134 24.3442 93.7076 24.3442C93.8315 24.3442 93.9739 24.3592 94.1346 24.3894C94.2971 24.4179 94.4536 24.4773 94.6043 24.5677C94.7567 24.6581 94.8831 24.7946 94.9836 24.9771C95.0841 25.1597 95.1343 25.4041 95.1343 25.7106V28.2524H94.5415V27.73H94.5114C94.4712 27.8137 94.4042 27.9033 94.3104 27.9988C94.2167 28.0942 94.0919 28.1754 93.9362 28.2424C93.7805 28.3094 93.5904 28.3429 93.366 28.3429ZM93.4565 27.8104C93.6909 27.8104 93.8885 27.7643 94.0492 27.6722C94.2117 27.5801 94.3339 27.4612 94.4159 27.3156C94.4997 27.1699 94.5415 27.0167 94.5415 26.8559V26.3134C94.5164 26.3435 94.4612 26.3711 94.3758 26.3963C94.292 26.4197 94.1949 26.4406 94.0844 26.4591C93.9755 26.4758 93.8692 26.4909 93.7654 26.5043C93.6633 26.516 93.5804 26.526 93.5167 26.5344C93.3627 26.5545 93.2187 26.5872 93.0847 26.6324C92.9524 26.6759 92.8453 26.742 92.7632 26.8308C92.6828 26.9179 92.6427 27.0368 92.6427 27.1875C92.6427 27.3934 92.7188 27.5492 92.8712 27.6546C93.0253 27.7585 93.2204 27.8104 93.4565 27.8104ZM96.2162 28.2524V24.3944H96.7889V24.9771H96.8291C96.8994 24.7862 97.0267 24.6313 97.2109 24.5125C97.3951 24.3936 97.6027 24.3341 97.8338 24.3341C97.8773 24.3341 97.9317 24.335 97.9971 24.3366C98.0624 24.3383 98.1118 24.3408 98.1452 24.3442V24.947C98.1252 24.942 98.0791 24.9344 98.0071 24.9244C97.9368 24.9127 97.8623 24.9068 97.7836 24.9068C97.596 24.9068 97.4286 24.9462 97.2812 25.0249C97.1355 25.1019 97.02 25.209 96.9346 25.3464C96.8509 25.482 96.809 25.6369 96.809 25.811V28.2524H96.2162ZM100.348 28.3328C99.9763 28.3328 99.6556 28.2508 99.386 28.0867C99.1181 27.9209 98.9113 27.6898 98.7656 27.3934C98.6216 27.0954 98.5496 26.7487 98.5496 26.3536C98.5496 25.9584 98.6216 25.6101 98.7656 25.3087C98.9113 25.0056 99.1139 24.7695 99.3735 24.6004C99.6347 24.4296 99.9395 24.3442 100.288 24.3442C100.489 24.3442 100.687 24.3777 100.883 24.4446C101.079 24.5116 101.257 24.6205 101.418 24.7712C101.579 24.9202 101.707 25.1178 101.802 25.3639C101.898 25.6101 101.946 25.9132 101.946 26.2732V26.5244H98.9716V26.012H101.343C101.343 25.7943 101.299 25.6 101.212 25.4292C101.127 25.2584 101.004 25.1236 100.845 25.0249C100.688 24.9261 100.502 24.8767 100.288 24.8767C100.052 24.8767 99.8474 24.9353 99.6749 25.0525C99.5041 25.168 99.3727 25.3187 99.2806 25.5046C99.1885 25.6905 99.1424 25.8897 99.1424 26.1024V26.444C99.1424 26.7354 99.1926 26.9823 99.2931 27.185C99.3953 27.3859 99.5368 27.5391 99.7176 27.6446C99.8984 27.7484 100.109 27.8003 100.348 27.8003C100.504 27.8003 100.644 27.7786 100.77 27.735C100.897 27.6898 101.007 27.6228 101.099 27.5341C101.191 27.4437 101.262 27.3315 101.313 27.1975L101.885 27.3583C101.825 27.5525 101.724 27.7233 101.581 27.8707C101.439 28.0163 101.263 28.1302 101.054 28.2123C100.845 28.2926 100.609 28.3328 100.348 28.3328Z" fill="black"/>
</svg>
