<svg xmlns="http://www.w3.org/2000/svg" width="93" height="70" viewBox="0 0 93 70" fill="none">
  <path d="M43.8945 17.9453C43.6738 17.9453 43.457 18.0156 43.2793 18.1484L39.4531 21.0156V18.9688C39.4531 18.4023 38.9941 17.9453 38.4277 17.9453H35.6953C34.7539 17.9453 33.9863 17.1797 33.9863 16.2383V5.31641C33.9863 4.375 34.7539 3.60938 35.6953 3.60938H54.8281C55.7695 3.60938 56.5371 4.375 56.5371 5.31641V16.2383C56.5371 17.1797 55.7695 17.9453 54.8281 17.9453H43.8945ZM58.5859 16.2383V5.31641C58.5859 3.24609 56.9004 1.56055 54.8281 1.56055H35.6953C33.623 1.56055 31.9375 3.24609 31.9375 5.31641V16.2383C31.9375 18.3086 33.623 19.9922 35.6953 19.9922H37.4043V23.0645C37.4043 23.4512 37.623 23.8066 37.9707 23.9805C38.1152 24.0527 38.2715 24.0879 38.4277 24.0879C38.6465 24.0879 38.8633 24.0195 39.043 23.8828L44.2363 19.9922H54.8281C56.9004 19.9922 58.5859 18.3086 58.5859 16.2383Z" fill="#A3CB03"/>
  <mask id="mask0_5_966" style="mask-type:luminance" maskUnits="userSpaceOnUse" x="47" y="0" width="46" height="70">
    <path d="M47.8516 0.169922H92.748V69.1699H47.8516V0.169922Z" fill="white"/>
  </mask>
  <g mask="url(#mask0_5_966)">
    <path d="M90.6953 54.4648C90.6953 56.9121 88.7031 58.9023 86.2539 58.9023H69.8535C67.4043 58.9023 65.4121 56.9121 65.4121 54.4648V49.0039C65.4121 46.5586 67.4043 44.5664 69.8535 44.5664H76.6875C80.2656 44.5664 83.1797 41.6582 83.1797 38.082V22.7227H86.2539C88.7031 22.7227 90.6953 24.7129 90.6953 27.1602V54.4648ZM66.7793 9.41211C66.7793 5.45898 69.998 2.24414 73.9531 2.24414C77.9102 2.24414 81.1289 5.45898 81.1289 9.41211C81.1289 13.3633 77.9102 16.5781 73.9531 16.5781C69.998 16.5781 66.7793 13.3633 66.7793 9.41211ZM59.2617 39.7891H50.3789V28.1836H59.2617V39.7891ZM86.2539 20.6758H82.7227C82.0664 19.0293 80.7559 17.7129 79.1113 17.0488C81.5645 15.3906 83.1797 12.5859 83.1797 9.41211C83.1797 4.33008 79.041 0.195312 73.9531 0.195312C68.8672 0.195312 64.7285 4.33008 64.7285 9.41211C64.7285 12.5859 66.3438 15.3906 68.7969 17.0488C66.4141 18.0098 64.7285 20.3438 64.7285 23.0645V32.9629H61.3125V27.1602C61.3125 26.5938 60.8535 26.1367 60.2871 26.1367H49.3535C48.7871 26.1367 48.3281 26.5938 48.3281 27.1602V40.8125C48.3281 41.3789 48.7871 41.8359 49.3535 41.8359H51.7617C49.6699 43.5273 48.3281 46.1113 48.3281 49.0039V55.8301C48.3281 56.3965 48.7871 56.8555 49.3535 56.8555H55.1621V68.1191C55.1621 68.6836 55.6211 69.1426 56.1875 69.1426H61.6543C62.2207 69.1426 62.6797 68.6836 62.6797 68.1191C62.6797 67.5527 62.2207 67.0938 61.6543 67.0938H57.2129V56.8555H61.6543C62.2207 56.8555 62.6797 56.3965 62.6797 55.8301C62.6797 55.2656 62.2207 54.8066 61.6543 54.8066H50.3789V49.0039C50.3789 45.0527 53.5977 41.8359 57.5547 41.8359H60.2871C60.8535 41.8359 61.3125 41.3789 61.3125 40.8125V35.0098H65.7539C66.3203 35.0098 66.7793 34.5527 66.7793 33.9863V23.0645C66.7793 20.6172 68.7715 18.627 71.2207 18.627H76.6875C79.1367 18.627 81.1289 20.6172 81.1289 23.0645V38.082C81.1289 40.5293 79.1367 42.5195 76.6875 42.5195H69.8535C66.2734 42.5195 63.3613 45.4277 63.3613 49.0039V54.4648C63.3613 58.041 66.2734 60.9512 69.8535 60.9512H70.9297L67.5703 67.6602C67.3164 68.166 67.5234 68.7812 68.0293 69.0352C68.1758 69.1074 68.332 69.1426 68.4863 69.1426C68.8613 69.1426 69.2246 68.9355 69.4043 68.5762L73.2207 60.9512H84.2539L88.0703 68.5762C88.25 68.9355 88.6113 69.1426 88.9883 69.1426C89.1426 69.1426 89.2988 69.1074 89.4453 69.0352C89.9512 68.7812 90.1562 68.166 89.9043 67.6602L86.543 60.9434C89.9883 60.793 92.7461 57.9453 92.7461 54.4648V27.1602C92.7461 23.584 89.834 20.6758 86.2539 20.6758Z" fill="#A3CB03"/>
  </g>
  <mask id="mask1_5_966" style="mask-type:luminance" maskUnits="userSpaceOnUse" x="0" y="0" width="41" height="70">
    <path d="M0.5 0.169922H40.8535V69.1699H0.5V0.169922Z" fill="white"/>
  </mask>
  <g mask="url(#mask1_5_966)">
    <path d="M12.1151 9.41211C12.1151 5.45898 15.3339 2.24414 19.2909 2.24414C23.2479 2.24414 26.4667 5.45898 26.4667 9.41211C26.4667 13.3633 23.2479 16.5781 19.2909 16.5781C15.3339 16.5781 12.1151 13.3633 12.1151 9.41211ZM16.5585 44.5664H23.3905C25.8397 44.5664 27.8319 46.5586 27.8319 49.0039V54.4648C27.8319 56.9121 25.8397 58.9023 23.3905 58.9023H6.99011C4.54285 58.9023 2.54871 56.9121 2.54871 54.4648V27.1602C2.54871 24.7129 4.54285 22.7227 6.99011 22.7227H10.0663V38.082C10.0663 41.6582 12.9784 44.5664 16.5585 44.5664ZM34.3241 41.1543C32.0721 41.1543 30.4725 40.7129 29.5702 39.8418C28.8514 39.1484 28.5155 38.1562 28.5155 36.7168V23.0645C28.5155 20.3438 26.83 18.0098 24.4491 17.0488C26.9003 15.3906 28.5155 12.5859 28.5155 9.41211C28.5155 4.33008 24.3768 0.195312 19.2909 0.195312C14.205 0.195312 10.0663 4.33008 10.0663 9.41211C10.0663 12.5859 11.6815 15.3906 14.1327 17.0488C12.4901 17.7129 11.1776 19.0293 10.5233 20.6758H6.99011C3.41199 20.6758 0.499878 23.584 0.499878 27.1602V54.4648C0.499878 57.9453 3.25574 60.793 6.703 60.9434L3.34168 67.6602C3.08777 68.166 3.29285 68.7812 3.79871 69.0352C3.94714 69.1074 4.10339 69.1426 4.25769 69.1426C4.63269 69.1426 4.99402 68.9355 5.17371 68.5762L8.99011 60.9512H20.0233L23.8417 68.5762C24.0214 68.9355 24.3827 69.1426 24.7577 69.1426C24.912 69.1426 25.0682 69.1074 25.2167 69.0352C25.7225 68.7812 25.9276 68.166 25.6737 67.6602L22.3163 60.9512H23.3905C26.9706 60.9512 29.8827 58.041 29.8827 54.4648V49.0039C29.8827 45.4277 26.9706 42.5195 23.3905 42.5195H16.5585C14.1093 42.5195 12.1151 40.5293 12.1151 38.082V23.0645C12.1151 20.6172 14.1093 18.627 16.5585 18.627H22.0253C24.4725 18.627 26.4667 20.6172 26.4667 23.0645V36.7168C26.4667 41.0195 29.1093 43.2012 34.3241 43.2012C35.9296 43.2012 37.1054 43.6211 37.8182 44.4473C38.4471 45.1738 38.7655 46.248 38.7655 47.6387V67.0938H35.3495V57.1953C35.3495 56.6309 34.8905 56.1719 34.3241 56.1719C33.7577 56.1719 33.2987 56.6309 33.2987 57.1953V68.1191C33.2987 68.6836 33.7577 69.1426 34.3241 69.1426H39.7909C40.3573 69.1426 40.8163 68.6836 40.8163 68.1191V47.6387C40.8163 45.7422 40.33 44.2188 39.371 43.1094C38.2499 41.8125 36.5526 41.1543 34.3241 41.1543Z" fill="#A3CB03"/>
  </g>
  <path d="M45.3145 9.62891C44.6914 9.62891 44.1875 10.1328 44.1875 10.7559C44.1875 11.377 44.6914 11.8809 45.3145 11.8809C45.9375 11.8809 46.4414 11.377 46.4414 10.7559C46.4414 10.1328 45.9375 9.62891 45.3145 9.62891Z" fill="#A3CB03"/>
  <path d="M52.0801 9.62891C51.457 9.62891 50.9531 10.1328 50.9531 10.7559C50.9531 11.377 51.457 11.8809 52.0801 11.8809C52.7031 11.8809 53.207 11.377 53.207 10.7559C53.207 10.1328 52.7031 9.62891 52.0801 9.62891Z" fill="#A3CB03"/>
  <path d="M38.4629 9.62891C37.8418 9.62891 37.3359 10.1328 37.3359 10.7559C37.3359 11.377 37.8418 11.8809 38.4629 11.8809C39.0859 11.8809 39.5898 11.377 39.5898 10.7559C39.5898 10.1328 39.0859 9.62891 38.4629 9.62891Z" fill="#A3CB03"/>
</svg>