<svg width="114" height="58" viewBox="0 0 114 58" fill="none" xmlns="http://www.w3.org/2000/svg">
<g clip-path="url(#clip0_423_931)">
<mask id="mask0_423_931" style="mask-type:luminance" maskUnits="userSpaceOnUse" x="1" y="0" width="58" height="58">
<path d="M58.8954 0.174316H1.24414V57.8256H58.8954V0.174316Z" fill="white"/>
</mask>
<g mask="url(#mask0_423_931)">
<g style="mix-blend-mode:luminosity">
<path d="M1.24023 34.5422L24.5241 57.8261C12.7598 55.5779 3.48835 46.3066 1.24023 34.5422Z" fill="url(#paint0_radial_423_931)"/>
<path d="M24.5241 0.174316L1.24023 23.4579C3.4886 11.6939 12.7598 2.42243 24.5241 0.174316Z" fill="url(#paint1_radial_423_931)"/>
<path d="M57.0803 28.9991L30.0704 56.009L3.06055 28.9991L30.0704 1.98926L57.0803 28.9991Z" fill="url(#paint2_radial_423_931)"/>
<path d="M58.8988 23.4579L35.6152 0.174316C47.3793 2.42243 56.6504 11.6939 58.8988 23.4579Z" fill="url(#paint3_radial_423_931)"/>
<path d="M35.6152 57.8258L58.8991 34.542C56.6509 46.3063 47.3793 55.5778 35.6152 57.8258Z" fill="url(#paint4_radial_423_931)"/>
<path d="M29.793 47.1316C29.793 47.1316 29.6527 28.5032 25.6446 24.4955C21.6366 20.4874 16.0117 19.1182 16.0117 19.1182C16.0117 19.1182 29.8505 21.0522 29.793 24.8604C29.793 27.6197 29.793 47.1316 29.793 47.1316Z" fill="url(#paint5_radial_423_931)"/>
<path d="M30.3537 47.1316C30.3537 47.1316 30.494 28.5032 34.5021 24.4955C38.5101 20.4874 44.135 19.1182 44.135 19.1182C44.135 19.1182 30.2962 21.0522 30.3537 24.8604C30.3537 27.6197 30.3537 47.1316 30.3537 47.1316Z" fill="url(#paint6_radial_423_931)"/>
<path d="M30.0675 22.7094C31.8048 22.7094 33.2131 21.301 33.2131 19.5638C33.2131 17.8266 31.8048 16.4182 30.0675 16.4182C28.3302 16.4182 26.9219 17.8266 26.9219 19.5638C26.9219 21.301 28.3302 22.7094 30.0675 22.7094Z" fill="url(#paint7_radial_423_931)"/>
</g>
</g>
<path d="M77.0164 18.3082V26.694H75.4851L71.8368 21.4161H71.7754V26.694H70.0024V18.3082H71.5584L75.1779 23.582H75.2517V18.3082H77.0164ZM78.4812 26.694V18.3082H81.7896C82.4256 18.3082 82.9671 18.4297 83.4152 18.6727C83.8632 18.9129 84.2042 19.2473 84.4389 19.6758C84.6761 20.1017 84.7947 20.593 84.7947 21.1499C84.7947 21.7068 84.6752 22.1981 84.4348 22.6239C84.1943 23.0497 83.8467 23.3814 83.3904 23.6189C82.9375 23.8564 82.3888 23.9751 81.7446 23.9751H79.6359V22.5543H81.458C81.7992 22.5543 82.0804 22.4956 82.3014 22.3783C82.5253 22.2582 82.6918 22.093 82.801 21.8828C82.9128 21.6699 82.9688 21.4256 82.9688 21.1499C82.9688 20.8714 82.9128 20.6285 82.801 20.4211C82.6918 20.2109 82.5253 20.0485 82.3014 19.9338C82.0776 19.8164 81.7938 19.7578 81.4498 19.7578H80.2541V26.694H78.4812ZM93.6524 22.5011C93.6524 23.4156 93.4794 24.1935 93.1327 24.8349C92.7884 25.4764 92.319 25.9665 91.7244 26.305C91.1314 26.6407 90.4659 26.8086 89.7255 26.8086C88.981 26.8086 88.3122 26.6393 87.7192 26.3009C87.1271 25.9624 86.6593 25.4724 86.315 24.8309C85.9716 24.1894 85.7994 23.4128 85.7994 22.5011C85.7994 21.5866 85.9716 20.8087 86.315 20.1672C86.6593 19.5258 87.1271 19.0371 87.7192 18.7013C88.3122 18.3629 88.981 18.1936 89.7255 18.1936C90.4659 18.1936 91.1314 18.3629 91.7244 18.7013C92.319 19.0371 92.7884 19.5258 93.1327 20.1672C93.4794 20.8087 93.6524 21.5866 93.6524 22.5011ZM91.8553 22.5011C91.8553 21.9087 91.7664 21.4092 91.5893 21.0025C91.4139 20.5958 91.1668 20.2873 90.848 20.0772C90.5285 19.867 90.1546 19.7618 89.7255 19.7618C89.2972 19.7618 88.9233 19.867 88.6038 20.0772C88.2842 20.2873 88.0363 20.5958 87.8584 21.0025C87.6838 21.4092 87.5965 21.9087 87.5965 22.5011C87.5965 23.0935 87.6838 23.593 87.8584 23.9997C88.0363 24.4064 88.2842 24.7149 88.6038 24.925C88.9233 25.1352 89.2972 25.2403 89.7255 25.2403C90.1546 25.2403 90.5285 25.1352 90.848 24.925C91.1668 24.7149 91.4139 24.4064 91.5893 23.9997C91.7664 23.593 91.8553 23.0935 91.8553 22.5011ZM100.166 22.1981L98.5692 22.2964C98.542 22.1598 98.4827 22.037 98.393 21.9278C98.3032 21.8159 98.1846 21.7272 98.0372 21.6617C97.8922 21.5935 97.7184 21.5594 97.5167 21.5594C97.2465 21.5594 97.0184 21.6167 96.8331 21.7313C96.6478 21.8433 96.5547 21.9934 96.5547 22.1818C96.5547 22.3318 96.6148 22.4588 96.7351 22.5625C96.8545 22.6663 97.0612 22.7495 97.3528 22.8123L98.491 23.0416C99.1029 23.1672 99.5583 23.3691 99.8589 23.6476C100.16 23.926 100.309 24.2918 100.309 24.7449C100.309 25.1571 100.188 25.5188 99.9446 25.8299C99.7049 26.1412 99.3747 26.3841 98.9538 26.5588C98.5363 26.7308 98.0545 26.8167 97.5084 26.8167C96.6758 26.8167 96.0128 26.6434 95.5186 26.2967C95.0269 25.9474 94.7395 25.4724 94.6547 24.8718L96.3702 24.7817C96.4221 25.0357 96.5481 25.2294 96.7474 25.3632C96.9459 25.4942 97.2012 25.5597 97.5125 25.5597C97.8181 25.5597 98.0643 25.5011 98.2496 25.3836C98.4382 25.2635 98.5338 25.1093 98.5363 24.921C98.5338 24.7626 98.4671 24.633 98.3353 24.532C98.2043 24.4283 98.0026 24.3491 97.73 24.2945L96.6404 24.0775C96.0268 23.9547 95.5689 23.7417 95.2691 23.4387C94.9718 23.1357 94.8227 22.7495 94.8227 22.28C94.8227 21.876 94.9314 21.528 95.1505 21.2359C95.3712 20.9438 95.6809 20.7186 96.0795 20.5603C96.4806 20.402 96.95 20.3228 97.4878 20.3228C98.2826 20.3228 98.9077 20.4907 99.3631 20.8265C99.8219 21.1621 100.09 21.6194 100.166 22.1981ZM72.5411 40.8178C71.9624 40.8178 71.4628 40.7141 71.0425 40.5066C70.6221 40.2992 70.2986 40.018 70.072 39.6631C69.8482 39.3055 69.7363 38.907 69.7363 38.4675C69.7363 38.1399 69.8018 37.8492 69.9328 37.5954C70.0639 37.3415 70.2468 37.1081 70.4815 36.8952C70.7162 36.6796 70.9892 36.4653 71.3004 36.2524L72.9259 35.1837C73.1362 35.0499 73.2904 34.9093 73.3886 34.7619C73.4869 34.6118 73.536 34.4494 73.536 34.2747C73.536 34.1081 73.4692 33.954 73.3354 33.812C73.2017 33.6701 73.0119 33.6004 72.7662 33.6032C72.6025 33.6032 72.4605 33.64 72.3404 33.7137C72.2204 33.7847 72.1261 33.8789 72.0579 33.9962C71.9924 34.1109 71.9596 34.2392 71.9596 34.3812C71.9596 34.5559 72.0088 34.7333 72.107 34.9135C72.2053 35.0936 72.3363 35.2846 72.5001 35.4867C72.6639 35.6859 72.8427 35.9016 73.0365 36.1336L77.0123 40.695H75.1943L71.8777 37.0017C71.6594 36.7533 71.441 36.4939 71.2227 36.2237C71.007 35.9507 70.8268 35.6614 70.6821 35.3556C70.5374 35.0472 70.4651 34.7128 70.4651 34.3525C70.4651 33.9457 70.5593 33.58 70.7477 33.2552C70.9388 32.9303 71.2063 32.6737 71.5502 32.4853C71.8941 32.2943 72.2954 32.1987 72.754 32.1987C73.2017 32.1987 73.5879 32.2902 73.9127 32.4731C74.2403 32.6532 74.4914 32.8934 74.6662 33.1937C74.8436 33.4913 74.9323 33.8188 74.9323 34.1764C74.9323 34.5722 74.834 34.9312 74.6375 35.2533C74.4436 35.5727 74.1707 35.8593 73.8185 36.1131L72.107 37.3456C71.875 37.5148 71.7031 37.6881 71.5911 37.8656C71.4819 38.0403 71.4273 38.2081 71.4273 38.3692C71.4273 38.5685 71.4765 38.7473 71.5747 38.9056C71.673 39.0639 71.8123 39.1895 71.9924 39.2823C72.1726 39.3724 72.3841 39.4174 72.627 39.4174C72.9219 39.4174 73.2126 39.3505 73.4992 39.2168C73.7885 39.0803 74.0506 38.8879 74.2853 38.6395C74.5229 38.3883 74.7125 38.0908 74.8545 37.7469C74.9964 37.4029 75.0674 37.0221 75.0674 36.6044H76.5128C76.5128 37.1176 76.4568 37.5803 76.3449 37.9925C76.233 38.402 76.0774 38.7595 75.8782 39.0653C75.6789 39.3683 75.451 39.6167 75.1943 39.8105C75.1125 39.8624 75.0333 39.9115 74.9569 39.9579C74.8804 40.0043 74.8012 40.0535 74.7194 40.1053C74.4082 40.3565 74.0602 40.538 73.6752 40.6499C73.2931 40.7618 72.915 40.8178 72.5411 40.8178ZM87.454 32.3093V40.695H85.923L82.2748 35.4171H82.2135V40.695H80.4405V32.3093H81.9964L85.6158 37.583H85.6899V32.3093H87.454ZM94.4793 35.0199C94.4224 34.8206 94.3417 34.6446 94.2379 34.4917C94.1342 34.3361 94.0073 34.2051 93.8574 34.0986C93.71 33.9894 93.5404 33.9062 93.3493 33.8489C93.1615 33.7915 92.9523 33.7628 92.7234 33.7628C92.2943 33.7628 91.9179 33.8693 91.5934 34.0822C91.2705 34.2952 91.0202 34.6049 90.8398 35.0117C90.6594 35.4157 90.5697 35.9097 90.5697 36.4939C90.5697 37.0781 90.6578 37.5749 90.8357 37.9844C91.0128 38.3938 91.264 38.7063 91.5893 38.922C91.9138 39.1349 92.2976 39.2413 92.7398 39.2413C93.1409 39.2413 93.4835 39.1704 93.7668 39.0284C94.0535 38.8838 94.2725 38.6804 94.4224 38.4183C94.5756 38.1563 94.6514 37.8465 94.6514 37.4889L95.0121 37.5421H92.8502V36.2073H96.3587V37.2637C96.3587 38.0007 96.2039 38.634 95.8925 39.1636C95.5812 39.6904 95.1521 40.0971 94.6069 40.3837C94.0609 40.6676 93.4358 40.8096 92.7316 40.8096C91.9451 40.8096 91.2549 40.6363 90.6594 40.2896C90.064 39.9402 89.6003 39.4448 89.2676 38.8033C88.9373 38.1591 88.7718 37.3947 88.7718 36.5103C88.7718 35.8306 88.8698 35.2246 89.0666 34.6923C89.2659 34.1573 89.5443 33.7042 89.9017 33.3329C90.2592 32.9617 90.6759 32.6791 91.1511 32.4853C91.6255 32.2916 92.1403 32.1946 92.6945 32.1946C93.1697 32.1946 93.612 32.2642 94.0213 32.4035C94.4307 32.54 94.7939 32.7337 95.1101 32.9849C95.4297 33.2361 95.6899 33.5349 95.8925 33.8816C96.0943 34.2255 96.2236 34.6049 96.2813 35.0199H94.4793ZM105.397 36.5021C105.397 37.4166 105.224 38.1946 104.877 38.836C104.533 39.4775 104.063 39.9675 103.468 40.306C102.876 40.6417 102.209 40.8096 101.47 40.8096C100.725 40.8096 100.056 40.6404 99.4636 40.3019C98.8715 39.9634 98.4037 39.4734 98.0594 38.8319C97.7151 38.1904 97.543 37.4138 97.543 36.5021C97.543 35.5876 97.7151 34.8097 98.0594 34.1682C98.4037 33.5268 98.8715 33.0381 99.4636 32.7024C100.056 32.3639 100.725 32.1946 101.47 32.1946C102.209 32.1946 102.876 32.3639 103.468 32.7024C104.063 33.0381 104.533 33.5268 104.877 34.1682C105.224 34.8097 105.397 35.5876 105.397 36.5021ZM103.599 36.5021C103.599 35.9098 103.511 35.4102 103.333 35.0035C103.158 34.5968 102.911 34.2884 102.592 34.0782C102.273 33.868 101.899 33.7628 101.47 33.7628C101.042 33.7628 100.668 33.868 100.348 34.0782C100.029 34.2884 99.7807 34.5968 99.6028 35.0035C99.4282 35.4102 99.3409 35.9098 99.3409 36.5021C99.3409 37.0945 99.4282 37.594 99.6028 38.0007C99.7807 38.4075 100.029 38.7159 100.348 38.9261C100.668 39.1362 101.042 39.2413 101.47 39.2413C101.899 39.2413 102.273 39.1362 102.592 38.9261C102.911 38.7159 103.158 38.4075 103.333 38.0007C103.511 37.594 103.599 37.0945 103.599 36.5021ZM111.911 36.1991L110.314 36.2974C110.286 36.1609 110.227 36.0381 110.137 35.9289C110.047 35.8169 109.928 35.7282 109.781 35.6628C109.637 35.5945 109.463 35.5604 109.261 35.5604C108.991 35.5604 108.763 35.6177 108.577 35.7324C108.391 35.8443 108.299 35.9944 108.299 36.1828C108.299 36.3328 108.359 36.4598 108.479 36.5635C108.599 36.6673 108.805 36.7506 109.097 36.8133L110.235 37.0426C110.847 37.1682 111.303 37.3701 111.603 37.6486C111.903 37.9271 112.054 38.2928 112.054 38.7459C112.054 39.1581 111.932 39.5198 111.689 39.8309C111.448 40.1422 111.118 40.3851 110.698 40.5598C110.281 40.7318 109.799 40.8178 109.253 40.8178C108.42 40.8178 107.757 40.6444 107.263 40.2978C106.771 39.9484 106.484 39.4734 106.399 38.8729L108.115 38.7828C108.166 39.0367 108.292 39.2305 108.491 39.3642C108.69 39.4953 108.946 39.5607 109.257 39.5607C109.562 39.5607 109.808 39.5021 109.994 39.3846C110.183 39.2646 110.278 39.1103 110.281 38.922C110.278 38.7637 110.211 38.634 110.08 38.533C109.949 38.4293 109.747 38.3501 109.474 38.2955L108.385 38.0785C107.77 37.9557 107.313 37.7427 107.013 37.4397C106.715 37.1367 106.567 36.7506 106.567 36.281C106.567 35.877 106.676 35.529 106.894 35.2369C107.116 34.9448 107.425 34.7196 107.824 34.5613C108.225 34.403 108.694 34.3238 109.232 34.3238C110.027 34.3238 110.652 34.4917 111.108 34.8275C111.566 35.1632 111.834 35.6204 111.911 36.1991Z" fill="black"/>
</g>
<defs>
<radialGradient id="paint0_radial_423_931" cx="0" cy="0" r="1" gradientUnits="userSpaceOnUse" gradientTransform="translate(12.8822 46.1842) scale(11.6419 11.6419)">
<stop stop-color="#27AAE1"/>
<stop offset="0.0001" stop-color="#505355"/>
<stop offset="1" stop-color="#1F242F"/>
</radialGradient>
<radialGradient id="paint1_radial_423_931" cx="0" cy="0" r="1" gradientUnits="userSpaceOnUse" gradientTransform="translate(12.8822 11.8161) scale(11.6418)">
<stop stop-color="#04161E"/>
<stop offset="1" stop-color="#626262"/>
</radialGradient>
<radialGradient id="paint2_radial_423_931" cx="0" cy="0" r="1" gradientUnits="userSpaceOnUse" gradientTransform="translate(30.0704 28.9992) scale(27.0099 27.0099)">
<stop stop-color="#4A494F"/>
<stop offset="1" stop-color="#080809"/>
</radialGradient>
<radialGradient id="paint3_radial_423_931" cx="0" cy="0" r="1" gradientUnits="userSpaceOnUse" gradientTransform="translate(47.2571 11.8161) scale(11.6418 11.6418)">
<stop stop-color="#021B25"/>
<stop offset="1" stop-color="#18191B"/>
</radialGradient>
<radialGradient id="paint4_radial_423_931" cx="0" cy="0" r="1" gradientUnits="userSpaceOnUse" gradientTransform="translate(47.2572 46.1839) scale(11.6419 11.6419)">
<stop stop-color="#4B4B4B"/>
<stop offset="1" stop-color="#030C20"/>
</radialGradient>
<radialGradient id="paint5_radial_423_931" cx="0" cy="0" r="1" gradientUnits="userSpaceOnUse" gradientTransform="translate(22.9024 33.1248) scale(11.0379)">
<stop stop-color="#22221C"/>
<stop offset="1" stop-color="#AEADAA"/>
</radialGradient>
<radialGradient id="paint6_radial_423_931" cx="0" cy="0" r="1" gradientUnits="userSpaceOnUse" gradientTransform="translate(37.2443 33.1248) scale(11.0379)">
<stop stop-color="white"/>
<stop offset="1" stop-color="#B0B0B0"/>
</radialGradient>
<radialGradient id="paint7_radial_423_931" cx="0" cy="0" r="1" gradientUnits="userSpaceOnUse" gradientTransform="translate(30.0673 19.5637) scale(3.1455)">
<stop stop-color="#FEFEFE"/>
<stop offset="1" stop-color="#979592"/>
</radialGradient>
<clipPath id="clip0_423_931">
<rect width="112.832" height="57.6513" fill="white" transform="translate(0.550781 0.174316)"/>
</clipPath>
</defs>
</svg>
