<svg width="44" height="47" viewBox="0 0 44 47" fill="none" xmlns="http://www.w3.org/2000/svg">
            <path d="M42.1741 37.4793C41.8197 38.3904 40.9421 39.0075 39.9595 39.2557C39.4972 39.3725 38.999 39.3859 38.5276 39.3121C38.1669 39.2557 37.5041 38.8829 37.2678 39.3423C36.3579 41.1126 34.2535 42.1685 32.1587 41.7677C31.1381 41.5727 30.2293 41.0483 29.5426 40.3306C29.279 40.055 29.0865 39.5313 28.5918 39.657C28.3384 39.7219 28.0846 39.9035 27.8517 40.0165C27.5393 40.1679 27.2206 40.3049 26.8906 40.42C25.9205 40.7588 24.7982 40.808 23.9638 40.1679C24.2961 39.6179 24.4222 38.9617 24.3455 38.3356C24.2319 37.4055 23.6696 36.6039 22.8085 36.1204C22.4121 35.8973 21.9401 35.7665 21.4805 35.7229C21.2414 35.7006 21.0091 35.7 20.7706 35.7229C20.6547 35.7341 20.5405 35.7526 20.4264 35.7727C20.3713 35.7822 20.302 35.8101 20.2332 35.8359C20.2185 35.8029 20.2048 35.7721 20.1918 35.7509C20.1123 35.6218 20.0174 35.501 19.9209 35.382C19.7289 35.1461 19.5113 34.9365 19.2694 34.7442C18.815 34.3836 18.2833 34.1276 17.7159 33.9588C16.7401 33.6676 15.6757 33.7861 14.7567 34.1813C14.8487 33.6229 15.1265 33.0829 15.6081 32.6446C15.9466 32.3372 16.3743 32.1153 16.8202 31.975C17.0429 31.9051 17.2746 31.8637 17.508 31.8447C17.7489 31.8257 18.0243 31.8967 18.2441 31.7777C18.4435 31.6692 18.4645 31.4674 18.502 31.2785C18.5463 31.0566 18.6361 30.8475 18.7468 30.6474C18.9922 30.2075 19.3921 29.8755 19.8629 29.6519C20.3593 29.4165 20.9631 29.4109 21.4936 29.5255C22.0201 29.6396 22.3655 29.8833 22.8977 29.6194C23.0914 29.5233 23.2123 29.3355 23.3106 29.1622C23.4395 28.9341 23.6077 28.7279 23.7883 28.5328C24.1791 28.113 24.6641 27.7793 25.1708 27.4897C27.0497 26.4182 29.5522 26.1292 31.5572 27.0688C32.4569 27.4908 33.2016 28.1616 33.7264 28.9548C33.9774 29.3327 34.1558 29.7419 34.2802 30.1689C34.3427 30.3824 34.3807 30.5999 34.4034 30.8196C34.4284 31.0644 34.3909 31.288 34.5068 31.5155C34.7232 31.9398 35.5814 31.5736 35.9262 31.539C36.5323 31.4775 37.1497 31.5753 37.6154 31.9582C37.8029 32.1125 37.9346 32.3109 38.0124 32.5306C38.0823 32.7268 38.0176 32.9303 38.1346 33.1153C38.2459 33.2914 38.4714 33.3367 38.6724 33.3109C38.9485 33.2752 39.2279 33.283 39.5046 33.3076C40.4963 33.397 41.4306 33.9784 41.956 34.7486C42.5121 35.5631 42.5189 36.5949 42.1741 37.4793ZM22.3257 40.6101C21.9082 40.8359 21.4266 40.9181 20.9489 40.8991C20.7382 40.8913 20.5371 40.846 20.3684 41.0025C20.1782 41.1786 20.2656 41.4257 20.1679 41.6358C19.9373 42.1311 19.3415 42.2557 18.8172 42.2418C18.393 42.23 17.6506 41.8527 17.4774 42.4374C17.416 42.6425 17.4575 42.8874 17.4194 43.1004C17.3797 43.3189 17.307 43.5308 17.2246 43.7381C17.0411 44.1999 16.7123 44.6118 16.3459 44.9606C14.7294 46.5017 12.0991 46.2754 10.298 45.1608C9.85722 44.888 9.47837 44.5313 9.20914 44.1082C8.9615 43.7186 8.5872 43.4833 8.08623 43.6414C7.5012 43.8259 6.97922 43.9036 6.40782 43.618C5.93014 43.3787 5.64331 42.922 5.53709 42.443C5.40419 41.8432 4.72941 42.0461 4.22845 41.9136C3.64115 41.7588 3.1612 41.3541 2.86982 40.8683C2.28706 39.8985 2.88799 38.6369 3.88481 38.15C4.03363 38.0774 4.09383 37.9617 4.09213 37.8443C4.09383 37.8046 4.08872 37.7621 4.07509 37.7163C4.01545 37.5217 4.2063 37.401 4.38464 37.3362C4.63683 37.245 4.88845 37.3317 5.11337 37.4429C5.46553 37.6173 5.96536 38.3412 6.41237 37.9471C6.58276 37.7973 6.61343 37.5748 6.70488 37.3809C6.81166 37.1556 6.9565 36.9521 7.13655 36.7721C7.52051 36.3881 8.13735 36.2825 8.6031 36.591C9.07339 36.9024 9.28355 36.311 9.44997 36.0539C9.70386 35.6609 10.2775 35.4876 10.741 35.4664C11.3476 35.439 11.948 35.6894 12.4756 35.9359C12.9533 36.1589 13.3577 36.4658 13.723 35.9443C14.2995 35.122 15.3661 34.6245 16.4044 34.5681C17.4444 34.5122 18.4276 34.9767 19.116 35.6754C19.2824 35.8442 19.4148 36.0376 19.5358 36.2355C19.6374 36.4021 19.7044 36.586 19.926 36.6425C20.135 36.6956 20.3366 36.5894 20.532 36.5379C20.8029 36.4669 21.0835 36.4636 21.3624 36.4798C22.4314 36.5407 23.2498 37.2825 23.4907 38.2171C23.7377 39.1808 23.2237 40.1238 22.3257 40.6101ZM41.9253 33.5317C41.463 33.1399 40.9007 32.8666 40.3077 32.6882C40.0101 32.5988 39.6971 32.5574 39.3864 32.5295C39.2524 32.5172 39.0206 32.5379 38.8411 32.5496C38.8349 32.4719 38.8292 32.3942 38.8116 32.3266C38.7667 32.155 38.6702 31.9878 38.5742 31.8369C38.3538 31.4903 37.9954 31.2198 37.6177 31.0325C37.2309 30.8408 36.7856 30.7765 36.3528 30.7575C36.1267 30.7469 35.8973 30.7698 35.6735 30.7989C35.5303 30.8179 35.3895 30.8408 35.248 30.8671C35.2514 30.8665 35.2458 30.8676 35.2355 30.8693C35.2316 30.8168 35.2259 30.7637 35.2208 30.7106C35.1986 30.4954 35.1577 30.2818 35.1072 30.0711C35.0066 29.6479 34.8249 29.241 34.6153 28.8553C34.1882 28.0683 33.531 27.4115 32.783 26.8782C31.1347 25.7043 28.9064 25.5165 26.9395 25.9732C25.9557 26.2018 25.0146 26.6244 24.1933 27.1728C23.7593 27.4623 23.3668 27.7972 23.0295 28.1817C22.8664 28.3679 22.7233 28.5669 22.5949 28.7748C22.4399 29.0264 22.3751 29.0023 22.0957 28.9028C21.1176 28.5546 20.0248 28.634 19.1348 29.1527C18.736 29.3852 18.4168 29.7122 18.1538 30.0705C18.0209 30.2505 17.9289 30.4512 17.8392 30.6519C17.7818 30.7788 17.7704 30.9493 17.7352 31.094C17.6177 31.0929 17.4893 31.0789 17.3922 31.0868C17.1616 31.1052 16.9349 31.1483 16.7117 31.2036C16.2653 31.3143 15.841 31.5183 15.4655 31.7648C14.7385 32.2411 14.2074 32.937 13.9734 33.7324C13.8803 34.0488 13.8456 34.373 13.8593 34.6955C13.7519 34.7766 13.6491 34.8627 13.5491 34.9499C13.4293 35.0555 13.3225 35.1735 13.2186 35.2931C13.1907 35.3261 13.1646 35.359 13.1374 35.392C12.5449 35.0958 11.9287 34.8342 11.2596 34.7358C10.6587 34.6475 10.0838 34.7408 9.54142 34.9896C9.31195 35.0952 9.10577 35.2562 8.9314 35.4278C8.83314 35.5245 8.75191 35.6391 8.67864 35.7526L8.67807 35.7537C8.65819 35.7442 8.63775 35.7358 8.61844 35.7296C8.431 35.6726 8.24356 35.6475 8.04704 35.6374C7.69318 35.6201 7.33762 35.7358 7.0292 35.8834C6.70374 36.0399 6.4561 36.3121 6.24367 36.5793C6.14144 36.7073 6.06419 36.851 5.98978 36.9935C5.98126 37.0097 5.97047 37.0337 5.95911 37.0623L5.94661 37.0528C5.78076 36.9253 5.60412 36.8163 5.41441 36.7224C5.05544 36.5441 4.66637 36.5016 4.26991 36.5681C3.71328 36.6615 3.26684 37.107 3.23958 37.6101C2.16267 38.2557 1.63558 39.4905 1.90594 40.6571C2.05021 41.2809 2.51653 41.851 3.06861 42.2172C3.35886 42.4095 3.67011 42.5498 4.00807 42.6543C4.15745 42.7001 4.31365 42.7247 4.46928 42.7448C4.55959 42.7566 4.67659 42.7482 4.78565 42.7476C4.79928 42.8259 4.8095 42.9103 4.82995 42.9673C4.89016 43.1378 4.98103 43.3016 5.0793 43.4559C5.25367 43.7303 5.50983 43.978 5.79099 44.1596C6.45724 44.5906 7.26833 44.6806 8.04363 44.4771C8.12656 44.4553 8.3742 44.3066 8.43441 44.3916C8.55084 44.5576 8.6474 44.727 8.77861 44.8852C9.01205 45.1669 9.28525 45.4056 9.58629 45.6236C10.2361 46.0926 10.9875 46.4229 11.7776 46.632C13.2936 47.0317 14.9941 46.845 16.2942 46.0009C16.8832 45.6186 17.3655 45.1116 17.7261 44.5369C17.9039 44.253 18.0357 43.9405 18.1368 43.6275C18.193 43.4536 18.2265 43.2731 18.2527 43.0931C18.2606 43.0411 18.2663 42.9891 18.272 42.9371C18.339 42.9522 18.3981 42.9645 18.418 42.9679C18.598 42.9958 18.7798 43.0081 18.9615 43.0132C19.354 43.0238 19.7402 42.9282 20.0895 42.7694C20.3537 42.6498 20.6041 42.4324 20.7649 42.206C20.8467 42.0903 20.9239 41.9673 20.9699 41.8348C20.9915 41.7728 21 41.7035 21.008 41.6342C21.1505 41.6431 21.3079 41.666 21.4192 41.6571C21.6521 41.6381 21.8804 41.5917 22.1042 41.5296C22.5893 41.3943 23.0232 41.1389 23.3981 40.8281C23.4191 40.8108 23.4384 40.7923 23.4589 40.7744C23.6139 40.8924 23.7815 40.9964 23.9604 41.0864C24.6215 41.4206 25.4054 41.505 26.1415 41.3932C27.0338 41.2585 27.8488 40.8935 28.6378 40.4977C28.6702 40.5386 28.7031 40.5794 28.7366 40.6202C28.857 40.7672 28.986 40.9064 29.1211 41.0411C29.3955 41.3133 29.717 41.5464 30.047 41.7571C31.3255 42.5744 32.9687 42.8175 34.4619 42.4542C35.2071 42.2731 35.8825 41.9176 36.4868 41.4821C36.8094 41.2496 37.0923 40.9729 37.3462 40.6772C37.47 40.533 37.5842 40.3832 37.6915 40.2283C37.7472 40.1484 37.7949 40.0282 37.8506 39.9242C37.9307 39.9539 38.013 39.9891 38.0749 40.0047C38.2277 40.0439 38.385 40.0662 38.5418 40.0858C38.8565 40.1255 39.1672 40.1305 39.4835 40.1059C40.1134 40.0567 40.7178 39.8689 41.267 39.5821C42.4087 38.9851 43.0511 37.8856 43.2147 36.7101C43.3794 35.5273 42.8659 34.3294 41.9253 33.5317Z" fill="#FF6A01"/>
            <path d="M38.6537 23.8209V23.8187C38.6532 19.2345 36.7623 15.0796 33.7071 12.0762C30.653 9.07115 26.4278 7.21143 21.7668 7.21143H21.7651C17.1037 7.21143 12.8784 9.07115 9.8243 12.0762C6.76909 15.0796 4.87825 19.2351 4.87769 23.8193V23.8198H4.87825L4.87769 23.8215C4.87769 28.3928 6.7583 32.5377 9.79818 35.5394L9.8527 35.5936L9.91461 35.5467C10.1611 35.3583 10.4559 35.2308 10.7745 35.1861L10.9535 35.161L10.8234 35.0386C10.7444 34.9642 10.6661 34.8893 10.5888 34.8133C7.72785 31.9983 5.9597 28.1156 5.95914 23.8209C5.9597 19.5263 7.72785 15.6431 10.5888 12.8281C13.4509 10.0141 17.399 8.27516 21.7657 8.27461C26.1324 8.27516 30.0805 10.0141 32.9426 12.8281C35.8036 15.6431 37.5717 19.5263 37.5723 23.8209C37.5723 26.4526 36.9072 28.9289 35.7343 31.1005L35.6604 31.2375L35.8178 31.2269C35.9041 31.2218 35.9904 31.2185 36.0762 31.2185C36.313 31.2185 36.5459 31.2431 36.7629 31.3062L36.8339 31.3269L36.8668 31.2621C38.0079 29.0256 38.652 26.5001 38.6537 23.8288V23.8209Z" fill="#FF6A01"/>
            <path d="M0.705146 31.1145C1.74116 30.8093 2.76013 30.4549 3.7615 30.0518C4.25962 29.8517 4.04151 29.0462 3.536 29.2497C2.53521 29.6522 1.51623 30.0066 0.479654 30.3123C-0.0417595 30.4655 0.180324 31.2687 0.705146 31.1145Z" fill="#FF6A01"/>
            <path d="M0.843216 21.0423C1.49186 21.0423 2.1405 21.0423 2.78971 21.0423C3.33555 21.0423 3.33555 20.21 2.78971 20.21C2.1405 20.21 1.49186 20.21 0.843216 20.21C0.297379 20.21 0.297379 21.0423 0.843216 21.0423Z" fill="#FF6A01"/>
            <path d="M0.192618 9.18722C2.05278 10.4097 3.81809 11.7596 5.48287 13.2298C5.88784 13.5869 6.48821 13.0006 6.08096 12.6412C4.36393 11.1246 2.53841 9.72999 0.619746 8.46837C0.164786 8.16876 -0.258366 8.8904 0.192618 9.18722Z" fill="#FF6A01"/>
            <path d="M10.0242 7.43411C10.3315 7.76894 10.6393 8.10488 10.9466 8.43971C11.313 8.83938 11.9094 8.24854 11.5447 7.85111C11.2374 7.51628 10.9302 7.18033 10.6223 6.8455C10.2559 6.44583 9.65956 7.03611 10.0242 7.43411Z" fill="#FF6A01"/>
            <path d="M21.3933 1.23429C21.4893 2.61944 21.5217 4.00683 21.4887 5.39477C21.4762 5.93195 22.3225 5.93083 22.335 5.39477C22.368 4.00683 22.3356 2.61944 22.2396 1.23429C22.2027 0.701578 21.3558 0.698224 21.3933 1.23429Z" fill="#FF6A01"/>
            <path d="M32.0877 8.34339C32.5319 7.7559 32.9766 7.16841 33.4214 6.58037C33.7474 6.14939 33.0124 5.73519 32.6904 6.16057C32.2462 6.74806 31.8015 7.33555 31.3567 7.9236C31.0307 8.35457 31.7657 8.76877 32.0877 8.34339Z" fill="#FF6A01"/>
            <path d="M36.8231 12.7861C38.9218 11.4725 41.0211 10.1584 43.1198 8.84422C43.5787 8.5569 43.1544 7.83638 42.6927 8.12593C40.5939 9.43953 38.4952 10.7537 36.3959 12.0679C35.937 12.3552 36.3613 13.0757 36.8231 12.7861Z" fill="#FF6A01"/>
            <path d="M39.2646 20.0316C39.9132 20.068 40.5613 20.1049 41.2094 20.1412C41.7546 20.1719 41.7518 19.3396 41.2094 19.3089C40.5613 19.272 39.9132 19.2357 39.2646 19.1993C38.7193 19.1686 38.7221 20.0009 39.2646 20.0316Z" fill="#FF6A01"/>
            <path d="M39.5413 27.5012C40.5296 28.0283 41.4719 28.632 42.3518 29.3196C42.7743 29.6499 43.3775 29.0647 42.9504 28.731C42.0127 27.9981 41.0221 27.3447 39.9685 26.7824C39.4885 26.5269 39.062 27.2452 39.5413 27.5012Z" fill="#FF6A01"/>
            <path d="M22.3802 10.0755C25.6359 10.2399 28.7104 11.8 30.754 14.2936C30.9318 14.5105 31.2402 14.203 31.0642 13.9884C28.9484 11.4059 25.7449 9.81335 22.3802 9.64342C22.0973 9.62889 22.0985 10.061 22.3802 10.0755Z" fill="#FF6A01"/>
            <path d="M31.8839 15.8564C32.5491 16.5595 33.0415 17.3757 33.3488 18.2874C33.4368 18.5501 33.8611 18.4377 33.7719 18.1728C33.4408 17.1906 32.9109 16.3086 32.1946 15.5511C32.0015 15.3471 31.6914 15.6534 31.8839 15.8564Z" fill="#FF6A01"/>
            <path d="M26.8709 28.6654C27.8728 28.2215 29.0235 28.2556 30.0283 28.6743C31.2364 29.1785 31.8368 30.1981 32.3491 31.3272C32.4644 31.581 32.8427 31.3613 32.728 31.1098C32.1571 29.8504 31.4699 28.8107 30.1391 28.2556C29.0224 27.79 27.7524 27.804 26.6488 28.2925C26.3915 28.4071 26.6147 28.7788 26.8709 28.6654Z" fill="#FF6A01"/>
            <path d="M35.1763 32.8688C35.5375 32.761 35.9033 32.9236 36.0703 33.254C36.1964 33.5033 36.5747 33.2842 36.4497 33.036C36.1981 32.5396 35.5972 32.292 35.0599 32.4524C34.7895 32.5329 34.9054 32.9499 35.1763 32.8688Z" fill="#FF6A01"/>
            <path d="M14.7938 36.56C16.0473 35.9776 17.678 36.0894 18.4067 37.3912C18.5431 37.6349 18.9225 37.4169 18.7856 37.1732C17.9359 35.6545 16.0365 35.5069 14.5722 36.1872C14.3167 36.3062 14.5399 36.6785 14.7938 36.56Z" fill="#FF6A01"/>
            <path d="M20.6 37.9522C21.0556 37.8314 21.5202 38.036 21.7417 38.4424C21.8757 38.6883 22.2546 38.4703 22.1205 38.2249C21.807 37.6498 21.122 37.3669 20.4836 37.5357C20.211 37.6084 20.3268 38.0248 20.6 37.9522Z" fill="#FF6A01"/>
        </svg>