<svg width="1319" height="372" viewBox="0 0 1319 372" fill="none" xmlns="http://www.w3.org/2000/svg">
<g opacity="0.03">
<path d="M145.892 366V361.714C188.304 361.714 200.034 347.727 190.108 313.662L164.391 224.778H74.8299L50.0146 309.15C39.4116 345.697 51.1425 361.714 92.2006 361.714V366H0.383908V361.714C17.0779 361.488 28.5831 349.08 38.7349 315.016L114.309 58.0644C106.187 41.3705 96.9381 33.9259 84.9816 33.9259V29.6396H163.037L246.281 313.662C256.207 347.727 267.713 361.714 283.279 361.714V366H145.892ZM77.3114 216.206H161.909L123.107 82.203C121.979 78.3679 120.851 74.984 119.723 71.6L77.3114 216.206ZM343.963 302.834C343.963 322.009 352.761 331.935 369.907 331.935C395.173 331.935 410.513 308.248 410.513 268.318H414.123C414.123 335.545 390.661 371.414 348.024 371.414C314.411 371.414 295.009 349.757 295.009 312.76V98.6713H256.207V95.7386C305.161 74.984 333.135 40.6937 338.549 0.989175H343.287V67.7649H410.513V98.6713H343.963V302.834ZM505.94 302.834C505.94 322.009 514.738 331.935 531.883 331.935C557.149 331.935 572.49 308.248 572.49 268.318H576.099C576.099 335.545 552.638 371.414 510 371.414C476.387 371.414 456.986 349.757 456.986 312.76V98.6713H418.184V95.7386C467.138 74.984 495.111 40.6937 500.525 0.989175H505.263V67.7649H572.49V98.6713H505.94V302.834ZM647.161 371.414C607.683 371.414 590.086 341.41 603.171 294.938L656.862 105.665C636.559 105.89 613.097 130.706 604.524 161.838L601.366 161.161C619.865 94.8362 646.71 62.5763 679.421 62.5763C704.688 62.5763 712.809 85.1357 703.109 118.975L652.124 296.968C643.778 325.619 652.35 342.989 674.233 342.989C699.725 342.989 728.826 317.497 745.295 256.136L796.053 66.4114H845.91L775.073 327.649C796.053 328.777 820.417 303.736 829.216 271.702L832.6 272.379C814.101 338.478 786.353 370.737 755.221 370.737C730.631 370.737 723.638 350.66 732.21 321.558C735.594 310.504 740.783 297.645 749.355 273.732H746.423C721.833 339.154 687.543 371.414 647.161 371.414ZM1008.11 370.061C981.943 370.061 974.273 347.727 983.747 314.113L1034.96 135.443C1043.08 107.018 1034.73 89.6476 1012.62 89.6476C987.357 89.6476 958.03 115.14 941.561 176.501L890.803 366H841.172L911.783 104.988C890.803 103.86 866.439 128.901 857.641 160.71L854.482 160.258C872.079 96.641 899.375 61.6739 931.184 61.6739C957.353 61.6739 962.993 83.1053 954.646 110.853C951.488 121.907 946.299 134.992 937.501 158.679H940.433C965.023 93.4826 999.088 60.9971 1039.69 60.9971C1079.4 60.9971 1096.77 91.2267 1083.69 137.473L1029.99 327.198C1050.52 326.972 1073.99 302.157 1082.56 271.025L1085.72 271.927C1067.22 338.026 1039.69 370.061 1008.11 370.061ZM1178.43 371.414C1130.61 371.414 1103.76 337.35 1103.76 271.927C1103.76 164.996 1173.92 60.9971 1254.46 60.9971C1291.01 60.9971 1318.53 82.4285 1318.53 117.621C1318.53 166.575 1265.51 201.993 1192.42 201.993C1181.82 201.993 1171.44 201.317 1161.74 199.963C1158.36 217.785 1156.33 235.832 1156.33 253.654C1156.33 305.992 1173.25 331.935 1207.54 331.935C1244.99 331.935 1274.99 300.578 1287.17 248.24H1291.23C1272.96 327.649 1233.03 371.414 1178.43 371.414ZM1163.32 192.744C1170.54 193.646 1177.08 194.097 1183.17 194.097C1235.28 194.097 1273.64 157.326 1273.64 108.597C1273.64 84.6845 1263.26 69.7953 1246.34 69.7953C1213.4 69.7953 1177.98 126.871 1163.32 192.744Z" fill="black"/>
</g>
</svg>
