<svg width="44" height="43" viewBox="0 0 44 43" fill="none" xmlns="http://www.w3.org/2000/svg">
<circle cx="22.1653" cy="21.3884" r="21.3884" fill="#F2D035"/>
<path d="M27.1907 29.1885H17.14C15.7511 29.1885 14.6165 28.0539 14.6165 26.665V16.6143C14.6165 15.2255 15.7511 14.0908 17.14 14.0908H27.1907C28.5795 14.0908 29.7142 15.2255 29.7142 16.6143V26.665C29.7142 28.0601 28.5857 29.1885 27.1907 29.1885Z" fill="black"/>
<path d="M22.1684 25.5179C21.1329 25.5179 20.1595 25.1149 19.4279 24.3833C18.6962 23.6517 18.2932 22.6782 18.2932 21.6428C18.2932 20.6073 18.6962 19.6339 19.4279 18.9022C20.1595 18.1706 21.1329 17.7676 22.1684 17.7676C23.2038 17.7676 24.1773 18.1706 24.9089 18.9022C25.6406 19.6339 26.0436 20.6073 26.0436 21.6428C26.0436 22.6782 25.6406 23.6517 24.9089 24.3833C24.1711 25.1149 23.2038 25.5179 22.1684 25.5179ZM22.1684 18.5922C20.4881 18.5922 19.1179 19.9563 19.1179 21.6428C19.1179 23.323 20.4819 24.6933 22.1684 24.6933C23.8487 24.6933 25.2189 23.3292 25.2189 21.6428C25.2127 19.9625 23.8487 18.5922 22.1684 18.5922Z" fill="#F2D035"/>
<path d="M26.799 17.6405C27.2099 17.6405 27.543 17.3073 27.543 16.8964C27.543 16.4855 27.2099 16.1523 26.799 16.1523C26.3881 16.1523 26.0549 16.4855 26.0549 16.8964C26.0549 17.3073 26.3881 17.6405 26.799 17.6405Z" fill="#F2D035"/>
</svg>
