<svg xmlns="http://www.w3.org/2000/svg" width="68" height="27" viewBox="0 0 68 27" fill="none">
  <g clip-path="url(#clip0_234_1555)">
    <path d="M18.7978 26.4249C13.5571 26.3961 8.87604 24.897 4.90941 21.4734C2.24984 19.1772 0.721837 16.2637 1.01092 12.6502C1.28348 9.25756 3.08612 6.67443 5.70023 4.65496C8.64271 2.38359 12.0373 1.22107 15.7046 0.64084C18.9237 0.130815 22.0809 0.434352 25.1204 1.29747C29.246 2.46826 32.8596 4.55791 35.1784 8.41511C37.4188 12.1422 36.7601 17.1723 33.7764 20.3459C31.1622 23.1253 27.9638 24.7916 24.3668 25.7105C22.5703 26.171 20.6582 26.1999 18.7978 26.4249ZM18.5789 24.4963C20.1461 24.356 21.7588 24.4014 23.2724 24.038C26.1136 23.3545 28.7938 22.2457 31.0797 20.3109C33.1776 18.5351 34.5817 16.3628 34.6437 13.6041C34.7283 9.80681 32.459 7.32072 29.5062 5.3591C27.0883 3.75261 24.3853 2.93079 21.5172 2.51575C18.2588 2.04289 15.0872 2.42076 12.0105 3.42842C9.57811 4.2234 7.35833 5.47471 5.55985 7.37645C4.29201 8.71449 3.32565 10.1909 3.03863 12.0472C2.36548 16.4103 4.68227 19.3156 7.99642 21.4816C11.1577 23.5445 14.7444 24.5211 18.5789 24.4963Z" fill="#868383"/>
    <path d="M60.4282 13.484C59.753 13.484 59.2449 13.484 58.5862 13.484C58.5452 14.2191 58.5594 14.9273 58.4437 15.6149C58.3945 15.9081 58.0763 16.1559 57.8782 16.4223C57.6304 16.1663 57.1965 15.9309 57.1698 15.6542C57.0813 14.7373 57.0895 13.8019 57.1741 12.8852C57.1948 12.6539 57.6157 12.307 57.8803 12.2801C58.6712 12.1996 59.4763 12.2513 59.9555 12.2513C60.4632 11.7619 60.7649 11.4749 61.0641 11.1858C61.2812 11.4686 61.498 11.7515 61.6547 11.9601C62.0656 12.2781 62.427 12.5589 62.7904 12.8397C62.4416 13.1206 62.0924 13.4014 61.5618 13.8309C61.5804 14.2645 61.4505 14.9996 62.3281 15.4022C62.4995 15.4807 62.6605 15.8668 62.613 16.0589C62.5737 16.2179 62.2245 16.3769 62.0017 16.3954C60.9216 16.4842 60.4779 16.0837 60.4343 15.0141C60.414 14.5412 60.4282 14.0663 60.4282 13.484Z" fill="black"/>
    <path d="M48.1627 16.3955C48.1627 14.6321 48.1338 12.9947 48.1981 11.3613C48.2063 11.1425 48.6648 10.8554 48.9601 10.7729C49.0758 10.7419 49.4082 11.1631 49.4906 11.4274C49.596 11.764 49.5506 12.1481 49.5567 12.2699C50.234 12.3587 51.0249 12.241 51.2377 12.5383C51.6875 13.166 52.1089 14.0312 52.0553 14.7622C51.9457 16.2303 51.3884 16.4885 49.8705 16.3212C49.3482 16.2634 48.809 16.3625 48.1627 16.3955ZM51.1116 14.246C50.6571 13.8702 50.4075 13.4902 50.108 13.4489C49.4267 13.3519 49.4535 13.9838 49.5278 14.3637C49.6085 14.7705 49.9223 15.1297 50.1347 15.5097C50.4093 15.1545 50.6843 14.7994 51.1116 14.246Z" fill="black"/>
    <path d="M45.1649 16.5488C44.7932 16.3134 44.3658 16.1337 44.0645 15.8302C43.5791 15.3429 42.5239 15.3904 42.0407 15.8901C41.7455 16.1957 41.2809 16.334 40.8906 16.5467C40.808 16.4559 40.7275 16.365 40.647 16.2742C40.8121 15.6815 40.9608 15.0827 41.1446 14.4942C41.4564 13.4948 41.7599 12.4872 42.1399 11.5146C42.2348 11.2709 42.6107 10.9901 42.8626 10.986C43.2157 10.9798 43.8042 11.1285 43.8931 11.3639C44.4979 12.9518 44.9978 14.581 45.5322 16.1978C45.4105 16.3134 45.2888 16.4311 45.1649 16.5488ZM43.7711 14.2815C43.5295 13.7013 43.3499 13.2656 43.0732 12.5966C42.8089 13.3069 42.6437 13.7488 42.4434 14.2815C42.8997 14.2815 43.2219 14.2815 43.7711 14.2815Z" fill="black"/>
    <path d="M66.7325 16.2702C65.8713 16.3508 65.1508 16.452 64.4282 16.4747C63.6084 16.4994 63.1046 15.9522 63.1335 15.1139C63.1603 14.3003 63.5587 13.844 64.42 13.877C64.7234 13.8894 65.0291 13.8791 65.475 13.8791C64.8987 12.8508 64.1471 13.4723 63.4823 13.4227C63.2121 12.6112 63.472 12.2644 64.3643 12.2148C66.2452 12.1116 66.8772 12.826 66.7386 14.4986C66.6889 15.1036 66.7325 15.7189 66.7325 16.2702Z" fill="black"/>
    <path d="M56.3499 14.7274C55.5241 14.7274 54.7829 14.7274 54.0248 14.7274C54.2191 15.6566 54.6301 15.7537 56.034 15.2725C56.4985 15.7722 56.2714 16.1357 55.7551 16.3586C54.7104 16.8109 53.2689 16.3814 52.8252 15.5286C52.2657 14.4487 52.6352 13.0962 53.676 12.423C54.6197 11.8118 56.1829 12.5139 56.3439 13.633C56.3871 13.9366 56.3499 14.2504 56.3499 14.7274Z" fill="black"/>
    <path d="M47.3205 13.5878C47.3205 14.2754 47.3784 14.9691 47.2916 15.6443C47.2567 15.9169 46.9096 16.1482 46.7032 16.4001C46.4697 16.1771 46.0423 15.9603 46.0319 15.727C45.9702 14.2877 45.9741 12.8423 46.0259 11.4031C46.0341 11.1698 46.3976 10.9509 46.5979 10.7258C46.8375 10.9592 47.2463 11.1677 47.2813 11.4279C47.3762 12.1361 47.3145 12.8651 47.3145 13.5878C47.3184 13.5878 47.3184 13.5878 47.3205 13.5878Z" fill="black"/>
    <path d="M10.501 11.064C9.66468 9.26757 10.6723 7.57438 12.6278 7.46287C14.0298 7.38232 15.3286 7.53721 16.0452 8.91859C16.7927 10.3578 16.549 11.8239 15.8614 13.2218C15.3534 14.2543 14.7835 15.2536 14.1063 16.5215C14.8124 16.5215 15.3658 16.5586 15.913 16.5132C16.6935 16.4471 16.9227 16.7982 16.933 17.5333C16.9578 19.3648 16.9847 19.3648 15.1779 19.3648C13.8048 19.3648 12.4296 19.3793 11.0564 19.3504C10.7838 19.3441 10.3936 19.243 10.2779 19.053C10.1768 18.8858 10.3254 18.4976 10.4596 18.2642C11.5169 16.4244 12.6732 14.6363 13.6313 12.7489C13.939 12.1419 13.8791 11.256 13.7263 10.5561C13.6664 10.2773 12.8343 9.91594 12.4626 10.013C11.7833 10.1823 11.1865 10.6717 10.501 11.064Z" fill="black"/>
    <path d="M21.9166 19.1692C21.6792 19.2435 21.6172 19.2745 21.5491 19.2827C19.4594 19.5842 19.3975 19.5326 19.3975 17.4388C19.3975 14.1763 19.3975 10.9159 19.3975 7.49023C20.083 7.49023 20.6942 7.43031 21.2848 7.51911C21.5222 7.5542 21.8877 7.91972 21.8898 8.13859C21.927 11.812 21.9166 15.4875 21.9166 19.1692Z" fill="black"/>
    <path d="M26.7863 19.2122C26.6686 19.2556 26.5757 19.3093 26.4766 19.3237C24.6202 19.5922 24.4695 19.4538 24.4716 17.6243C24.4736 14.6365 24.4571 11.6486 24.4592 8.66069C24.4592 8.29521 24.5294 7.92767 24.5707 7.5271C25.3285 7.5271 26.0058 7.5271 26.7842 7.5271C26.7863 11.4318 26.7863 15.322 26.7863 19.2122Z" fill="black"/>
  </g>
  <defs>
    <clipPath id="clip0_234_1555">
      <rect width="66.481" height="26.3334" fill="white" transform="translate(0.611328 0.392578)"/>
    </clipPath>
  </defs>
</svg>