<svg xmlns="http://www.w3.org/2000/svg" width="60" height="31" viewBox="0 0 60 31" fill="none">
  <g clip-path="url(#clip0_234_1566)">
    <mask id="mask0_234_1566" style="mask-type:luminance" maskUnits="userSpaceOnUse" x="0" y="0" width="32" height="31">
      <path d="M31.1937 0.392578H0.975098V30.6112H31.1937V0.392578Z" fill="white"/>
    </mask>
    <g mask="url(#mask0_234_1566)">
      <g style="mix-blend-mode:luminosity">
        <path d="M0.972656 18.407L13.1772 30.6115C7.01077 29.4331 2.15104 24.5734 0.972656 18.407Z" fill="url(#paint0_radial_234_1566)"/>
        <path d="M13.1772 0.392578L0.972656 12.597C2.15117 6.43069 7.01077 1.57095 13.1772 0.392578Z" fill="url(#paint1_radial_234_1566)"/>
        <path d="M30.2419 15.5016L16.0843 29.6591L1.92676 15.5016L16.0843 1.34399L30.2419 15.5016Z" fill="url(#paint2_radial_234_1566)"/>
        <path d="M31.1951 12.597L18.9907 0.392578C25.157 1.57095 30.0166 6.43069 31.1951 12.597Z" fill="url(#paint3_radial_234_1566)"/>
        <path d="M18.9907 30.6115L31.1953 18.407C30.0169 24.5734 25.157 29.4332 18.9907 30.6115Z" fill="url(#paint4_radial_234_1566)"/>
        <path d="M15.9395 25.0058C15.9395 25.0058 15.8659 15.2416 13.765 13.1408C11.6642 11.04 8.71582 10.3223 8.71582 10.3223C8.71582 10.3223 15.9696 11.336 15.9395 13.3321C15.9395 14.7784 15.9395 25.0058 15.9395 25.0058Z" fill="url(#paint5_radial_234_1566)"/>
        <path d="M16.2325 25.0058C16.2325 25.0058 16.3061 15.2416 18.407 13.1408C20.5078 11.04 23.4562 10.3223 23.4562 10.3223C23.4562 10.3223 16.2024 11.336 16.2325 13.3321C16.2325 14.7784 16.2325 25.0058 16.2325 25.0058Z" fill="url(#paint6_radial_234_1566)"/>
        <path d="M16.0834 12.2046C16.994 12.2046 17.7322 11.4664 17.7322 10.5558C17.7322 9.64518 16.994 8.90698 16.0834 8.90698C15.1728 8.90698 14.4346 9.64518 14.4346 10.5558C14.4346 11.4664 15.1728 12.2046 16.0834 12.2046Z" fill="url(#paint7_radial_234_1566)"/>
      </g>
    </g>
    <path d="M40.6915 9.89774V14.2932H39.8888L37.9765 11.5267H37.9443V14.2932H37.015V9.89774H37.8305L39.7278 12.6621H39.7664V9.89774H40.6915ZM41.4592 14.2932V9.89774H43.1934C43.5267 9.89774 43.8106 9.96141 44.0454 10.0888C44.2803 10.2147 44.459 10.39 44.582 10.6146C44.7063 10.8378 44.7685 11.0953 44.7685 11.3872C44.7685 11.6791 44.7059 11.9366 44.5799 12.1599C44.4538 12.383 44.2716 12.5569 44.0325 12.6814C43.795 12.8059 43.5074 12.8681 43.1698 12.8681H42.0645V12.1234H43.0195C43.1984 12.1234 43.3458 12.0926 43.4616 12.0311C43.579 11.9681 43.6663 11.8815 43.7235 11.7714C43.7821 11.6598 43.8114 11.5317 43.8114 11.3872C43.8114 11.2413 43.7821 11.114 43.7235 11.0052C43.6663 10.895 43.579 10.8099 43.4616 10.7498C43.3443 10.6883 43.1955 10.6575 43.0153 10.6575H42.3885V14.2932H41.4592ZM49.4114 12.0955C49.4114 12.5748 49.3207 12.9826 49.139 13.3188C48.9585 13.655 48.7125 13.9119 48.4008 14.0893C48.09 14.2653 47.7412 14.3533 47.3531 14.3533C46.9628 14.3533 46.6123 14.2646 46.3015 14.0872C45.9911 13.9097 45.7459 13.6529 45.5654 13.3167C45.3854 12.9804 45.2952 12.5733 45.2952 12.0955C45.2952 11.6161 45.3854 11.2084 45.5654 10.8721C45.7459 10.5359 45.9911 10.2798 46.3015 10.1038C46.6123 9.92636 46.9628 9.83765 47.3531 9.83765C47.7412 9.83765 48.09 9.92636 48.4008 10.1038C48.7125 10.2798 48.9585 10.5359 49.139 10.8721C49.3207 11.2084 49.4114 11.6161 49.4114 12.0955ZM48.4694 12.0955C48.4694 11.785 48.4228 11.5232 48.33 11.3099C48.238 11.0968 48.1085 10.9351 47.9415 10.8249C47.774 10.7148 47.578 10.6596 47.3531 10.6596C47.1286 10.6596 46.9326 10.7148 46.7651 10.8249C46.5976 10.9351 46.4677 11.0968 46.3744 11.3099C46.2829 11.5232 46.2371 11.785 46.2371 12.0955C46.2371 12.406 46.2829 12.6678 46.3744 12.881C46.4677 13.0942 46.5976 13.2558 46.7651 13.366C46.9326 13.4762 47.1286 13.5313 47.3531 13.5313C47.578 13.5313 47.774 13.4762 47.9415 13.366C48.1085 13.2558 48.238 13.0942 48.33 12.881C48.4228 12.6678 48.4694 12.406 48.4694 12.0955ZM52.8257 11.9366L51.9886 11.9882C51.9744 11.9166 51.9433 11.8522 51.8962 11.795C51.8492 11.7363 51.787 11.6898 51.7097 11.6555C51.6337 11.6197 51.5427 11.6019 51.4369 11.6019C51.2953 11.6019 51.1757 11.6319 51.0786 11.692C50.9815 11.7507 50.9327 11.8294 50.9327 11.9281C50.9327 12.0067 50.9642 12.0733 51.0272 12.1277C51.0898 12.1821 51.1982 12.2257 51.351 12.2586L51.9476 12.3788C52.2683 12.4446 52.5071 12.5505 52.6646 12.6964C52.8222 12.8424 52.9008 13.0341 52.9008 13.2716C52.9008 13.4876 52.8369 13.6772 52.7095 13.8403C52.5839 14.0035 52.4108 14.1308 52.1902 14.2224C51.9713 14.3125 51.7188 14.3576 51.4326 14.3576C50.9961 14.3576 50.6486 14.2667 50.3896 14.085C50.1319 13.9019 49.9812 13.6529 49.9368 13.3381L50.836 13.2909C50.8632 13.424 50.9292 13.5256 51.0337 13.5957C51.1377 13.6644 51.2716 13.6987 51.4347 13.6987C51.5949 13.6987 51.724 13.6679 51.8211 13.6064C51.92 13.5434 51.97 13.4626 51.9713 13.3639C51.97 13.2809 51.9351 13.2129 51.866 13.16C51.7974 13.1056 51.6916 13.0641 51.5487 13.0355L50.9776 12.9218C50.656 12.8574 50.4159 12.7458 50.2588 12.5869C50.103 12.4281 50.0248 12.2257 50.0248 11.9796C50.0248 11.7678 50.0818 11.5854 50.1966 11.4323C50.3123 11.2792 50.4747 11.1611 50.6836 11.0782C50.8938 10.9952 51.1399 10.9537 51.4218 10.9537C51.8384 10.9537 52.166 11.0417 52.4048 11.2177C52.6452 11.3936 52.7855 11.6333 52.8257 11.9366ZM38.3456 21.6964C38.0423 21.6964 37.7804 21.642 37.5601 21.5333C37.3398 21.4246 37.1702 21.2772 37.0514 21.0912C36.9342 20.9037 36.8755 20.6948 36.8755 20.4645C36.8755 20.2928 36.9098 20.1404 36.9785 20.0073C37.0472 19.8742 37.143 19.7519 37.2661 19.6403C37.3891 19.5273 37.5322 19.415 37.6953 19.3034L38.5474 18.7432C38.6576 18.6731 38.7384 18.5994 38.7899 18.5221C38.8414 18.4434 38.8672 18.3583 38.8672 18.2667C38.8672 18.1795 38.8321 18.0986 38.762 18.0242C38.6919 17.9498 38.5924 17.9133 38.4636 17.9148C38.3778 17.9148 38.3034 17.9341 38.2405 17.9727C38.1775 18.0099 38.1281 18.0593 38.0924 18.1208C38.058 18.1809 38.0408 18.2481 38.0408 18.3226C38.0408 18.4141 38.0666 18.5071 38.1181 18.6016C38.1696 18.696 38.2383 18.7961 38.3242 18.902C38.41 19.0065 38.5038 19.1195 38.6053 19.2411L40.6893 21.632H39.7364L37.9979 19.6961C37.8835 19.5659 37.769 19.43 37.6546 19.2884C37.5415 19.1452 37.4471 18.9936 37.3712 18.8333C37.2954 18.6717 37.2575 18.4964 37.2575 18.3075C37.2575 18.0943 37.3069 17.9026 37.4056 17.7324C37.5058 17.5621 37.646 17.4276 37.8262 17.3288C38.0065 17.2287 38.2168 17.1786 38.4572 17.1786C38.6919 17.1786 38.8944 17.2265 39.0646 17.3224C39.2363 17.4168 39.3679 17.5428 39.4595 17.7001C39.5525 17.8561 39.599 18.0278 39.599 18.2152C39.599 18.4227 39.5475 18.6109 39.4445 18.7797C39.3429 18.9471 39.1998 19.0973 39.0152 19.2304L38.1181 19.8764C37.9965 19.9651 37.9064 20.0559 37.8477 20.149C37.7905 20.2405 37.7618 20.3285 37.7618 20.413C37.7618 20.5174 37.7876 20.6111 37.8391 20.6941C37.8906 20.7771 37.9636 20.8429 38.058 20.8916C38.1525 20.9388 38.2633 20.9624 38.3907 20.9624C38.5452 20.9624 38.6976 20.9273 38.8479 20.8572C38.9995 20.7857 39.1369 20.6848 39.2599 20.5546C39.3844 20.423 39.4838 20.267 39.5583 20.0867C39.6326 19.9065 39.6698 19.7068 39.6698 19.4879H40.4275C40.4275 19.7569 40.3981 19.9994 40.3394 20.2155C40.2808 20.4301 40.1992 20.6175 40.0948 20.7778C39.9903 20.9367 39.8709 21.0668 39.7364 21.1684C39.6935 21.1956 39.652 21.2214 39.6119 21.2457C39.5718 21.27 39.5303 21.2958 39.4874 21.3229C39.3243 21.4546 39.1419 21.5497 38.9401 21.6084C38.7398 21.6671 38.5417 21.6964 38.3456 21.6964ZM46.1625 17.2366V21.632H45.3599L43.4477 18.8656H43.4155V21.632H42.4862V17.2366H43.3018L45.1989 20.0009H45.2378V17.2366H46.1625ZM49.8448 18.6573C49.815 18.5529 49.7727 18.4606 49.7183 18.3805C49.6639 18.299 49.5974 18.2303 49.5189 18.1745C49.4416 18.1172 49.3527 18.0736 49.2525 18.0436C49.1541 18.0135 49.0444 17.9984 48.9244 17.9984C48.6995 17.9984 48.5022 18.0543 48.3321 18.1659C48.1629 18.2775 48.0317 18.4399 47.9371 18.6531C47.8426 18.8648 47.7956 19.1238 47.7956 19.43C47.7956 19.7362 47.8417 19.9966 47.935 20.2112C48.0278 20.4258 48.1595 20.5897 48.33 20.7027C48.5001 20.8143 48.7012 20.8701 48.9331 20.8701C49.1433 20.8701 49.3229 20.8329 49.4714 20.7585C49.6216 20.6827 49.7365 20.5761 49.815 20.4387C49.8953 20.3014 49.935 20.139 49.935 19.9515L50.1241 19.9794H48.9909V19.2798H50.8299V19.8335C50.8299 20.2198 50.7488 20.5518 50.5856 20.8293C50.4224 21.1055 50.1975 21.3187 49.9117 21.4689C49.6255 21.6177 49.2979 21.6921 48.9288 21.6921C48.5165 21.6921 48.1547 21.6012 47.8426 21.4195C47.5305 21.2364 47.2874 20.9767 47.113 20.6405C46.9399 20.3028 46.8532 19.9021 46.8532 19.4386C46.8532 19.0823 46.9045 18.7647 47.0077 18.4857C47.1122 18.2052 47.2581 17.9677 47.4454 17.7731C47.6328 17.5785 47.8512 17.4304 48.1003 17.3288C48.349 17.2273 48.6188 17.1765 48.9093 17.1765C49.1584 17.1765 49.3902 17.2129 49.6048 17.2859C49.8193 17.3575 50.0097 17.459 50.1755 17.5907C50.343 17.7223 50.4794 17.879 50.5856 18.0607C50.6914 18.241 50.7591 18.4399 50.7894 18.6573H49.8448ZM55.5674 19.4343C55.5674 19.9136 55.4767 20.3214 55.295 20.6576C55.1145 20.9938 54.8684 21.2507 54.5563 21.4281C54.2459 21.6041 53.8967 21.6921 53.509 21.6921C53.1184 21.6921 52.7678 21.6034 52.4574 21.426C52.147 21.2485 51.9018 20.9917 51.7214 20.6555C51.5409 20.3192 51.4507 19.9122 51.4507 19.4343C51.4507 18.955 51.5409 18.5472 51.7214 18.2109C51.9018 17.8747 52.147 17.6186 52.4574 17.4426C52.7678 17.2652 53.1184 17.1765 53.509 17.1765C53.8967 17.1765 54.2459 17.2652 54.5563 17.4426C54.8684 17.6186 55.1145 17.8747 55.295 18.2109C55.4767 18.5472 55.5674 18.955 55.5674 19.4343ZM54.625 19.4343C54.625 19.1238 54.5788 18.862 54.4855 18.6488C54.394 18.4356 54.2645 18.2739 54.097 18.1637C53.9299 18.0536 53.7339 17.9984 53.509 17.9984C53.2846 17.9984 53.0886 18.0536 52.9211 18.1637C52.7536 18.2739 52.6236 18.4356 52.5304 18.6488C52.4389 18.862 52.3931 19.1238 52.3931 19.4343C52.3931 19.7448 52.4389 20.0066 52.5304 20.2198C52.6236 20.433 52.7536 20.5947 52.9211 20.7048C53.0886 20.815 53.2846 20.8701 53.509 20.8701C53.7339 20.8701 53.9299 20.815 54.097 20.7048C54.2645 20.5947 54.394 20.433 54.4855 20.2198C54.5788 20.0066 54.625 19.7448 54.625 19.4343ZM58.9816 19.2754L58.1446 19.327C58.1299 19.2554 58.0992 19.191 58.0522 19.1338C58.0047 19.0751 57.9425 19.0286 57.8653 18.9943C57.7897 18.9585 57.6986 18.9407 57.5929 18.9407C57.4513 18.9407 57.3317 18.9707 57.2346 19.0308C57.137 19.0895 57.0886 19.1682 57.0886 19.2669C57.0886 19.3456 57.1202 19.4121 57.1828 19.4665C57.2458 19.5209 57.3537 19.5645 57.507 19.5974L58.1036 19.7176C58.4243 19.7834 58.663 19.8893 58.8206 20.0352C58.9777 20.1812 59.0567 20.3729 59.0567 20.6104C59.0567 20.8264 58.9929 21.016 58.8655 21.1791C58.7394 21.3423 58.5663 21.4696 58.3462 21.5612C58.1273 21.6513 57.8748 21.6964 57.5886 21.6964C57.1521 21.6964 56.8046 21.6055 56.5456 21.4238C56.2879 21.2407 56.1372 20.9917 56.0927 20.6769L56.9919 20.6297C57.0191 20.7628 57.0848 20.8644 57.1892 20.9345C57.2937 21.0032 57.4275 21.0375 57.5907 21.0375C57.7509 21.0375 57.8795 21.0068 57.9771 20.9452C58.0759 20.8823 58.126 20.8014 58.1273 20.7027C58.126 20.6197 58.0906 20.5518 58.022 20.4988C57.9533 20.4444 57.8476 20.4029 57.7042 20.3743L57.1335 20.2606C56.8115 20.1962 56.5719 20.0846 56.4148 19.9258C56.2585 19.7669 56.1808 19.5645 56.1808 19.3184C56.1808 19.1066 56.2378 18.9242 56.3522 18.7711C56.4683 18.618 56.6306 18.4999 56.8396 18.417C57.0498 18.334 57.2959 18.2925 57.5778 18.2925C57.9943 18.2925 58.322 18.3805 58.5607 18.5565C58.8012 18.7325 58.9415 18.9721 58.9816 19.2754Z" fill="black"/>
  </g>
  <defs>
    <radialGradient id="paint0_radial_234_1566" cx="0" cy="0" r="1" gradientUnits="userSpaceOnUse" gradientTransform="translate(7.07492 24.5092) scale(6.10227)">
      <stop stop-color="#27AAE1"/>
      <stop offset="0.0001" stop-color="#505355"/>
      <stop offset="1" stop-color="#1F242F"/>
    </radialGradient>
    <radialGradient id="paint1_radial_234_1566" cx="0" cy="0" r="1" gradientUnits="userSpaceOnUse" gradientTransform="translate(7.07492 6.49476) scale(6.10222)">
      <stop stop-color="#04161E"/>
      <stop offset="1" stop-color="#626262"/>
    </radialGradient>
    <radialGradient id="paint2_radial_234_1566" cx="0" cy="0" r="1" gradientUnits="userSpaceOnUse" gradientTransform="translate(16.0843 15.5016) scale(14.1576 14.1576)">
      <stop stop-color="#4A494F"/>
      <stop offset="1" stop-color="#080809"/>
    </radialGradient>
    <radialGradient id="paint3_radial_234_1566" cx="0" cy="0" r="1" gradientUnits="userSpaceOnUse" gradientTransform="translate(25.0929 6.49476) scale(6.10218)">
      <stop stop-color="#021B25"/>
      <stop offset="1" stop-color="#18191B"/>
    </radialGradient>
    <radialGradient id="paint4_radial_234_1566" cx="0" cy="0" r="1" gradientUnits="userSpaceOnUse" gradientTransform="translate(25.093 24.5092) scale(6.10227)">
      <stop stop-color="#4B4B4B"/>
      <stop offset="1" stop-color="#030C20"/>
    </radialGradient>
    <radialGradient id="paint5_radial_234_1566" cx="0" cy="0" r="1" gradientUnits="userSpaceOnUse" gradientTransform="translate(12.3277 17.664) scale(5.78566)">
      <stop stop-color="#22221C"/>
      <stop offset="1" stop-color="#AEADAA"/>
    </radialGradient>
    <radialGradient id="paint6_radial_234_1566" cx="0" cy="0" r="1" gradientUnits="userSpaceOnUse" gradientTransform="translate(19.8443 17.664) scale(5.78566)">
      <stop stop-color="white"/>
      <stop offset="1" stop-color="#B0B0B0"/>
    </radialGradient>
    <radialGradient id="paint7_radial_234_1566" cx="0" cy="0" r="1" gradientUnits="userSpaceOnUse" gradientTransform="translate(16.0833 10.5558) scale(1.64876)">
      <stop stop-color="#FEFEFE"/>
      <stop offset="1" stop-color="#979592"/>
    </radialGradient>
    <clipPath id="clip0_234_1566">
      <rect width="59.1422" height="30.2186" fill="white" transform="translate(0.611328 0.392578)"/>
    </clipPath>
  </defs>
</svg>