<svg width="160" height="53" viewBox="0 0 160 53" fill="none" xmlns="http://www.w3.org/2000/svg">
<path d="M14.4624 13.1256H11.7815L11.3379 14.4082H9.92027L12.3408 7.6673H13.9127L16.3333 14.4082H14.906L14.4624 13.1256ZM14.096 12.0455L13.122 9.22957L12.1479 12.0455H14.096ZM16.8909 11.7176C16.8909 11.1776 16.997 10.6986 17.2091 10.2807C17.4277 9.86284 17.7234 9.54138 18.0963 9.31637C18.4692 9.09135 18.8839 8.97884 19.3404 8.97884C19.6875 8.97884 20.0186 9.05599 20.3337 9.21029C20.6487 9.35815 20.8994 9.55746 21.0859 9.80819V7.27192H22.4553V14.4082H21.0859V13.6174C20.9187 13.881 20.684 14.0932 20.3819 14.2539C20.0797 14.4146 19.7293 14.495 19.3307 14.495C18.8807 14.495 18.4692 14.3793 18.0963 14.1478C17.7234 13.9164 17.4277 13.5917 17.2091 13.1738C16.997 12.7495 16.8909 12.2641 16.8909 11.7176ZM21.0955 11.7369C21.0955 11.409 21.0312 11.1294 20.9026 10.8979C20.774 10.66 20.6005 10.48 20.3819 10.3579C20.1633 10.2293 19.9286 10.165 19.6779 10.165C19.4272 10.165 19.1957 10.2261 18.9835 10.3482C18.7714 10.4704 18.5978 10.6504 18.4628 10.8883C18.3342 11.1197 18.2699 11.3962 18.2699 11.7176C18.2699 12.0391 18.3342 12.322 18.4628 12.5663C18.5978 12.8041 18.7714 12.9874 18.9835 13.116C19.2021 13.2445 19.4336 13.3088 19.6779 13.3088C19.9286 13.3088 20.1633 13.2478 20.3819 13.1256C20.6005 12.997 20.774 12.817 20.9026 12.5856C21.0312 12.3477 21.0955 12.0648 21.0955 11.7369ZM23.4267 11.7176C23.4267 11.1776 23.5328 10.6986 23.7449 10.2807C23.9635 9.86284 24.2593 9.54138 24.6322 9.31637C25.005 9.09135 25.4197 8.97884 25.8762 8.97884C26.2234 8.97884 26.5545 9.05599 26.8695 9.21029C27.1845 9.35815 27.4352 9.55746 27.6217 9.80819V7.27192H28.9911V14.4082H27.6217V13.6174C27.4545 13.881 27.2199 14.0932 26.9177 14.2539C26.6155 14.4146 26.2651 14.495 25.8665 14.495C25.4165 14.495 25.005 14.3793 24.6322 14.1478C24.2593 13.9164 23.9635 13.5917 23.7449 13.1738C23.5328 12.7495 23.4267 12.2641 23.4267 11.7176ZM27.6313 11.7369C27.6313 11.409 27.567 11.1294 27.4385 10.8979C27.3099 10.66 27.1363 10.48 26.9177 10.3579C26.6991 10.2293 26.4644 10.165 26.2137 10.165C25.963 10.165 25.7315 10.2261 25.5194 10.3482C25.3072 10.4704 25.1336 10.6504 24.9986 10.8883C24.87 11.1197 24.8057 11.3962 24.8057 11.7176C24.8057 12.0391 24.87 12.322 24.9986 12.5663C25.1336 12.8041 25.3072 12.9874 25.5194 13.116C25.738 13.2445 25.9694 13.3088 26.2137 13.3088C26.4644 13.3088 26.6991 13.2478 26.9177 13.1256C27.1363 12.997 27.3099 12.817 27.4385 12.5856C27.567 12.3477 27.6313 12.0648 27.6313 11.7369ZM30.9944 8.42915C30.7565 8.42915 30.5572 8.35522 30.3965 8.20735C30.2422 8.05305 30.165 7.86339 30.165 7.63837C30.165 7.41336 30.2422 7.22691 30.3965 7.07904C30.5572 6.92474 30.7565 6.8476 30.9944 6.8476C31.2323 6.8476 31.4284 6.92474 31.5827 7.07904C31.7434 7.22691 31.8237 7.41336 31.8237 7.63837C31.8237 7.86339 31.7434 8.05305 31.5827 8.20735C31.4284 8.35522 31.2323 8.42915 30.9944 8.42915ZM31.6598 9.06563V14.4082H30.3097V9.06563H31.6598ZM32.6465 11.7369C32.6465 11.184 32.759 10.7018 32.9841 10.2904C33.2091 9.87248 33.5209 9.55103 33.9195 9.32601C34.3181 9.09456 34.7746 8.97884 35.2889 8.97884C35.9511 8.97884 36.4976 9.14599 36.9283 9.48031C37.3655 9.80819 37.658 10.2711 37.8059 10.869H36.3497C36.2725 10.6375 36.1407 10.4575 35.9543 10.3289C35.7743 10.1939 35.5493 10.1264 35.2793 10.1264C34.8935 10.1264 34.5881 10.2679 34.3631 10.5508C34.1381 10.8272 34.0256 11.2226 34.0256 11.7369C34.0256 12.2448 34.1381 12.6402 34.3631 12.9231C34.5881 13.1995 34.8935 13.3378 35.2793 13.3378C35.8257 13.3378 36.1825 13.0935 36.3497 12.6048H37.8059C37.658 13.1835 37.3655 13.6431 36.9283 13.9839C36.4911 14.3246 35.9447 14.495 35.2889 14.495C34.7746 14.495 34.3181 14.3825 33.9195 14.1575C33.5209 13.926 33.2091 13.6046 32.9841 13.1931C32.759 12.7752 32.6465 12.2898 32.6465 11.7369ZM40.3669 10.1746V12.7591C40.3669 12.9392 40.4087 13.071 40.4922 13.1545C40.5822 13.2317 40.7301 13.2703 40.9358 13.2703H41.5627V14.4082H40.714C39.5761 14.4082 39.0071 13.8553 39.0071 12.7495V10.1746H38.3706V9.06563H39.0071V7.74445H40.3669V9.06563H41.5627V10.1746H40.3669ZM43.2184 8.42915C42.9806 8.42915 42.7813 8.35522 42.6205 8.20735C42.4662 8.05305 42.3891 7.86339 42.3891 7.63837C42.3891 7.41336 42.4662 7.22691 42.6205 7.07904C42.7813 6.92474 42.9806 6.8476 43.2184 6.8476C43.4563 6.8476 43.6524 6.92474 43.8067 7.07904C43.9674 7.22691 44.0478 7.41336 44.0478 7.63837C44.0478 7.86339 43.9674 8.05305 43.8067 8.20735C43.6524 8.35522 43.4563 8.42915 43.2184 8.42915ZM43.8839 9.06563V14.4082H42.5338V9.06563H43.8839ZM47.5901 14.495C47.0758 14.495 46.6129 14.3825 46.2014 14.1575C45.79 13.926 45.4653 13.6014 45.2274 13.1835C44.996 12.7656 44.8802 12.2834 44.8802 11.7369C44.8802 11.1904 44.9992 10.7083 45.2371 10.2904C45.4814 9.87248 45.8125 9.55103 46.2303 9.32601C46.6482 9.09456 47.1143 8.97884 47.6287 8.97884C48.143 8.97884 48.6091 9.09456 49.027 9.32601C49.4449 9.55103 49.7728 9.87248 50.0107 10.2904C50.255 10.7083 50.3771 11.1904 50.3771 11.7369C50.3771 12.2834 50.2517 12.7656 50.001 13.1835C49.7567 13.6014 49.4224 13.926 48.9981 14.1575C48.5802 14.3825 48.1109 14.495 47.5901 14.495ZM47.5901 13.3185C47.8344 13.3185 48.0626 13.2606 48.2748 13.1449C48.4934 13.0227 48.667 12.8427 48.7956 12.6048C48.9241 12.367 48.9884 12.0777 48.9884 11.7369C48.9884 11.229 48.8534 10.8401 48.5834 10.57C48.3198 10.2936 47.9951 10.1554 47.6094 10.1554C47.2236 10.1554 46.899 10.2936 46.6354 10.57C46.3782 10.8401 46.2496 11.229 46.2496 11.7369C46.2496 12.2448 46.375 12.637 46.6257 12.9134C46.8829 13.1835 47.2044 13.3185 47.5901 13.3185ZM54.3281 8.98848C54.9645 8.98848 55.4789 9.191 55.871 9.59603C56.2632 9.99463 56.4593 10.554 56.4593 11.274V14.4082H55.1092V11.4573C55.1092 11.0329 55.0031 10.7083 54.791 10.4832C54.5788 10.2518 54.2895 10.1361 53.923 10.1361C53.5501 10.1361 53.2544 10.2518 53.0358 10.4832C52.8237 10.7083 52.7176 11.0329 52.7176 11.4573V14.4082H51.3675V9.06563H52.7176V9.73104C52.8976 9.49959 53.1258 9.31958 53.4023 9.191C53.6852 9.05599 53.9937 8.98848 54.3281 8.98848ZM59.6939 11.7176C59.6939 11.1776 59.8 10.6986 60.0122 10.2807C60.2307 9.86284 60.5233 9.54138 60.8897 9.31637C61.2626 9.09135 61.6773 8.97884 62.1338 8.97884C62.5324 8.97884 62.8795 9.0592 63.1753 9.21993C63.4774 9.38066 63.7185 9.58317 63.8985 9.82748V9.06563H65.2583V14.4082H63.8985V13.6271C63.725 13.8778 63.4839 14.0867 63.1753 14.2539C62.8731 14.4146 62.5227 14.495 62.1241 14.495C61.6741 14.495 61.2626 14.3793 60.8897 14.1478C60.5233 13.9164 60.2307 13.5917 60.0122 13.1738C59.8 12.7495 59.6939 12.2641 59.6939 11.7176ZM63.8985 11.7369C63.8985 11.409 63.8342 11.1294 63.7057 10.8979C63.5771 10.66 63.4035 10.48 63.1849 10.3579C62.9663 10.2293 62.7317 10.165 62.4809 10.165C62.2302 10.165 61.9987 10.2261 61.7866 10.3482C61.5744 10.4704 61.4008 10.6504 61.2658 10.8883C61.1372 11.1197 61.073 11.3962 61.073 11.7176C61.073 12.0391 61.1372 12.322 61.2658 12.5663C61.4008 12.8041 61.5744 12.9874 61.7866 13.116C62.0052 13.2445 62.2366 13.3088 62.4809 13.3088C62.7317 13.3088 62.9663 13.2478 63.1849 13.1256C63.4035 12.997 63.5771 12.817 63.7057 12.5856C63.8342 12.3477 63.8985 12.0648 63.8985 11.7369ZM69.5375 8.98848C70.174 8.98848 70.6883 9.191 71.0805 9.59603C71.4727 9.99463 71.6687 10.554 71.6687 11.274V14.4082H70.3186V11.4573C70.3186 11.0329 70.2126 10.7083 70.0004 10.4832C69.7882 10.2518 69.4989 10.1361 69.1325 10.1361C68.7596 10.1361 68.4638 10.2518 68.2453 10.4832C68.0331 10.7083 67.927 11.0329 67.927 11.4573V14.4082H66.5769V9.06563H67.927V9.73104C68.107 9.49959 68.3353 9.31958 68.6117 9.191C68.8946 9.05599 69.2032 8.98848 69.5375 8.98848ZM72.6055 11.7176C72.6055 11.1776 72.7115 10.6986 72.9237 10.2807C73.1423 9.86284 73.438 9.54138 73.8109 9.31637C74.1838 9.09135 74.5985 8.97884 75.0549 8.97884C75.4021 8.97884 75.7332 9.05599 76.0482 9.21029C76.3633 9.35815 76.614 9.55746 76.8004 9.80819V7.27192H78.1698V14.4082H76.8004V13.6174C76.6333 13.881 76.3986 14.0932 76.0965 14.2539C75.7943 14.4146 75.4439 14.495 75.0453 14.495C74.5953 14.495 74.1838 14.3793 73.8109 14.1478C73.438 13.9164 73.1423 13.5917 72.9237 13.1738C72.7115 12.7495 72.6055 12.2641 72.6055 11.7176ZM76.8101 11.7369C76.8101 11.409 76.7458 11.1294 76.6172 10.8979C76.4886 10.66 76.315 10.48 76.0965 10.3579C75.8779 10.2293 75.6432 10.165 75.3925 10.165C75.1417 10.165 74.9103 10.2261 74.6981 10.3482C74.486 10.4704 74.3124 10.6504 74.1774 10.8883C74.0488 11.1197 73.9845 11.3962 73.9845 11.7176C73.9845 12.0391 74.0488 12.322 74.1774 12.5663C74.3124 12.8041 74.486 12.9874 74.6981 13.116C74.9167 13.2445 75.1482 13.3088 75.3925 13.3088C75.6432 13.3088 75.8779 13.2478 76.0965 13.1256C76.315 12.997 76.4886 12.817 76.6172 12.5856C76.7458 12.3477 76.8101 12.0648 76.8101 11.7369ZM89.1251 7.67695V14.4082H87.775V10.03L85.9717 14.4082H84.9495L83.1365 10.03V14.4082H81.7863V7.67695H83.3197L85.4606 12.682L87.6015 7.67695H89.1251ZM95.4264 11.6212C95.4264 11.8141 95.4136 11.9877 95.3879 12.1419H91.4822C91.5143 12.5277 91.6493 12.8299 91.8872 13.0485C92.1251 13.267 92.4176 13.3763 92.7648 13.3763C93.2663 13.3763 93.6231 13.161 93.8352 12.7302H95.2914C95.1371 13.2445 94.8414 13.6689 94.4042 14.0032C93.967 14.3311 93.4302 14.495 92.7937 14.495C92.2794 14.495 91.8165 14.3825 91.405 14.1575C91 13.926 90.6818 13.6014 90.4503 13.1835C90.2253 12.7656 90.1128 12.2834 90.1128 11.7369C90.1128 11.184 90.2253 10.6986 90.4503 10.2807C90.6753 9.86284 90.9904 9.54138 91.3954 9.31637C91.8004 9.09135 92.2665 8.97884 92.7937 8.97884C93.3016 8.97884 93.7549 9.08813 94.1535 9.30672C94.5585 9.52531 94.8703 9.83712 95.0889 10.2422C95.3139 10.6408 95.4264 11.1004 95.4264 11.6212ZM94.0281 11.2354C94.0217 10.8883 93.8963 10.6118 93.652 10.4061C93.4077 10.1939 93.1088 10.0879 92.7552 10.0879C92.4208 10.0879 92.138 10.1907 91.9065 10.3965C91.6815 10.5958 91.5433 10.8754 91.4918 11.2354H94.0281ZM99.3725 8.98848C100.009 8.98848 100.523 9.191 100.915 9.59603C101.308 9.99463 101.504 10.554 101.504 11.274V14.4082H100.154V11.4573C100.154 11.0329 100.048 10.7083 99.8354 10.4832C99.6232 10.2518 99.3339 10.1361 98.9675 10.1361C98.5946 10.1361 98.2988 10.2518 98.0802 10.4832C97.8681 10.7083 97.762 11.0329 97.762 11.4573V14.4082H96.4119V9.06563H97.762V9.73104C97.942 9.49959 98.1702 9.31958 98.4467 9.191C98.7296 9.05599 99.0382 8.98848 99.3725 8.98848ZM104.36 10.1746V12.7591C104.36 12.9392 104.401 13.071 104.485 13.1545C104.575 13.2317 104.723 13.2703 104.928 13.2703H105.555V14.4082H104.707C103.569 14.4082 103 13.8553 103 12.7495V10.1746H102.363V9.06563H103V7.74445H104.36V9.06563H105.555V10.1746H104.36ZM106.179 11.7176C106.179 11.1776 106.285 10.6986 106.497 10.2807C106.716 9.86284 107.009 9.54138 107.375 9.31637C107.748 9.09135 108.163 8.97884 108.619 8.97884C109.018 8.97884 109.365 9.0592 109.661 9.21993C109.963 9.38066 110.204 9.58317 110.384 9.82748V9.06563H111.744V14.4082H110.384V13.6271C110.21 13.8778 109.969 14.0867 109.661 14.2539C109.358 14.4146 109.008 14.495 108.609 14.495C108.159 14.495 107.748 14.3793 107.375 14.1478C107.009 13.9164 106.716 13.5917 106.497 13.1738C106.285 12.7495 106.179 12.2641 106.179 11.7176ZM110.384 11.7369C110.384 11.409 110.32 11.1294 110.191 10.8979C110.062 10.66 109.889 10.48 109.67 10.3579C109.452 10.2293 109.217 10.165 108.966 10.165C108.716 10.165 108.484 10.2261 108.272 10.3482C108.06 10.4704 107.886 10.6504 107.751 10.8883C107.623 11.1197 107.558 11.3962 107.558 11.7176C107.558 12.0391 107.623 12.322 107.751 12.5663C107.886 12.8041 108.06 12.9874 108.272 13.116C108.49 13.2445 108.722 13.3088 108.966 13.3088C109.217 13.3088 109.452 13.2478 109.67 13.1256C109.889 12.997 110.062 12.817 110.191 12.5856C110.32 12.3477 110.384 12.0648 110.384 11.7369ZM114.412 7.27192V14.4082H113.062V7.27192H114.412ZM123.628 7.67695V14.4082H122.278V11.544H119.394V14.4082H118.044V7.67695H119.394V10.4447H122.278V7.67695H123.628ZM129.923 11.6212C129.923 11.8141 129.91 11.9877 129.885 12.1419H125.979C126.011 12.5277 126.146 12.8299 126.384 13.0485C126.622 13.267 126.914 13.3763 127.261 13.3763C127.763 13.3763 128.12 13.161 128.332 12.7302H129.788C129.634 13.2445 129.338 13.6689 128.901 14.0032C128.464 14.3311 127.927 14.495 127.29 14.495C126.776 14.495 126.313 14.3825 125.902 14.1575C125.497 13.926 125.178 13.6014 124.947 13.1835C124.722 12.7656 124.609 12.2834 124.609 11.7369C124.609 11.184 124.722 10.6986 124.947 10.2807C125.172 9.86284 125.487 9.54138 125.892 9.31637C126.297 9.09135 126.763 8.97884 127.29 8.97884C127.798 8.97884 128.252 9.08813 128.65 9.30672C129.055 9.52531 129.367 9.83712 129.586 10.2422C129.811 10.6408 129.923 11.1004 129.923 11.6212ZM128.525 11.2354C128.518 10.8883 128.393 10.6118 128.149 10.4061C127.904 10.1939 127.605 10.0879 127.252 10.0879C126.918 10.0879 126.635 10.1907 126.403 10.3965C126.178 10.5958 126.04 10.8754 125.989 11.2354H128.525ZM130.561 11.7176C130.561 11.1776 130.668 10.6986 130.88 10.2807C131.098 9.86284 131.391 9.54138 131.757 9.31637C132.13 9.09135 132.545 8.97884 133.001 8.97884C133.4 8.97884 133.747 9.0592 134.043 9.21993C134.345 9.38066 134.586 9.58317 134.766 9.82748V9.06563H136.126V14.4082H134.766V13.6271C134.592 13.8778 134.351 14.0867 134.043 14.2539C133.741 14.4146 133.39 14.495 132.992 14.495C132.542 14.495 132.13 14.3793 131.757 14.1478C131.391 13.9164 131.098 13.5917 130.88 13.1738C130.668 12.7495 130.561 12.2641 130.561 11.7176ZM134.766 11.7369C134.766 11.409 134.702 11.1294 134.573 10.8979C134.445 10.66 134.271 10.48 134.052 10.3579C133.834 10.2293 133.599 10.165 133.348 10.165C133.098 10.165 132.866 10.2261 132.654 10.3482C132.442 10.4704 132.268 10.6504 132.133 10.8883C132.005 11.1197 131.94 11.3962 131.94 11.7176C131.94 12.0391 132.005 12.322 132.133 12.5663C132.268 12.8041 132.442 12.9874 132.654 13.116C132.873 13.2445 133.104 13.3088 133.348 13.3088C133.599 13.3088 133.834 13.2478 134.052 13.1256C134.271 12.997 134.445 12.817 134.573 12.5856C134.702 12.3477 134.766 12.0648 134.766 11.7369ZM138.795 7.27192V14.4082H137.444V7.27192H138.795ZM141.7 10.1746V12.7591C141.7 12.9392 141.742 13.071 141.826 13.1545C141.916 13.2317 142.064 13.2703 142.269 13.2703H142.896V14.4082H142.048C140.91 14.4082 140.341 13.8553 140.341 12.7495V10.1746H139.704V9.06563H140.341V7.74445H141.7V9.06563H142.896V10.1746H141.7ZM146.876 8.98848C147.281 8.98848 147.641 9.07849 147.956 9.2585C148.271 9.43209 148.515 9.69247 148.689 10.0396C148.869 10.3804 148.959 10.7918 148.959 11.274V14.4082H147.609V11.4573C147.609 11.0329 147.503 10.7083 147.291 10.4832C147.079 10.2518 146.789 10.1361 146.423 10.1361C146.05 10.1361 145.754 10.2518 145.536 10.4832C145.323 10.7083 145.217 11.0329 145.217 11.4573V14.4082H143.867V7.27192H145.217V9.73104C145.391 9.49959 145.622 9.31958 145.912 9.191C146.201 9.05599 146.522 8.98848 146.876 8.98848Z" fill="#656565"/>
<path d="M55.1097 27.3385H52.4288L51.9852 28.6211H50.5676L52.9881 21.8802H54.56L56.9806 28.6211H55.5533L55.1097 27.3385ZM54.7432 26.2584L53.7692 23.4425L52.7952 26.2584H54.7432ZM57.5382 25.9498C57.5382 25.3969 57.6507 24.9147 57.8757 24.5033C58.1007 24.0854 58.4125 23.7639 58.8111 23.5389C59.2097 23.3075 59.6662 23.1917 60.1805 23.1917C60.8427 23.1917 61.3892 23.3589 61.8199 23.6932C62.2571 24.0211 62.5496 24.484 62.6975 25.0819H61.2413C61.1642 24.8504 61.0324 24.6704 60.8459 24.5418C60.6659 24.4068 60.4409 24.3393 60.1709 24.3393C59.7851 24.3393 59.4798 24.4808 59.2547 24.7636C59.0297 25.0401 58.9172 25.4355 58.9172 25.9498C58.9172 26.4577 59.0297 26.8531 59.2547 27.136C59.4798 27.4124 59.7851 27.5507 60.1709 27.5507C60.7174 27.5507 61.0742 27.3063 61.2413 26.8177H62.6975C62.5496 27.3964 62.2571 27.856 61.8199 28.1968C61.3828 28.5375 60.8363 28.7079 60.1805 28.7079C59.6662 28.7079 59.2097 28.5954 58.8111 28.3704C58.4125 28.1389 58.1007 27.8175 57.8757 27.406C57.6507 26.9881 57.5382 26.5027 57.5382 25.9498ZM63.3394 25.9498C63.3394 25.3969 63.4519 24.9147 63.6769 24.5033C63.902 24.0854 64.2138 23.7639 64.6124 23.5389C65.011 23.3075 65.4674 23.1917 65.9818 23.1917C66.644 23.1917 67.1904 23.3589 67.6212 23.6932C68.0584 24.0211 68.3509 24.484 68.4988 25.0819H67.0426C66.9654 24.8504 66.8336 24.6704 66.6472 24.5418C66.4672 24.4068 66.2421 24.3393 65.9721 24.3393C65.5864 24.3393 65.281 24.4808 65.056 24.7636C64.831 25.0401 64.7185 25.4355 64.7185 25.9498C64.7185 26.4577 64.831 26.8531 65.056 27.136C65.281 27.4124 65.5864 27.5507 65.9721 27.5507C66.5186 27.5507 66.8754 27.3063 67.0426 26.8177H68.4988C68.3509 27.3964 68.0584 27.856 67.6212 28.1968C67.184 28.5375 66.6375 28.7079 65.9818 28.7079C65.4674 28.7079 65.011 28.5954 64.6124 28.3704C64.2138 28.1389 63.902 27.8175 63.6769 27.406C63.4519 26.9881 63.3394 26.5027 63.3394 25.9498ZM74.4543 25.8341C74.4543 26.027 74.4414 26.2005 74.4157 26.3548H70.5101C70.5422 26.7406 70.6772 27.0428 70.9151 27.2613C71.153 27.4799 71.4455 27.5892 71.7927 27.5892C72.2941 27.5892 72.6509 27.3739 72.8631 26.9431H74.3193C74.165 27.4574 73.8693 27.8817 73.4321 28.2161C72.9949 28.5439 72.4581 28.7079 71.8216 28.7079C71.3073 28.7079 70.8444 28.5954 70.4329 28.3704C70.0279 28.1389 69.7096 27.8142 69.4782 27.3964C69.2532 26.9785 69.1407 26.4963 69.1407 25.9498C69.1407 25.3969 69.2532 24.9115 69.4782 24.4936C69.7032 24.0757 70.0182 23.7543 70.4233 23.5293C70.8283 23.3042 71.2944 23.1917 71.8216 23.1917C72.3295 23.1917 72.7827 23.301 73.1813 23.5196C73.5864 23.7382 73.8982 24.05 74.1168 24.455C74.3418 24.8536 74.4543 25.3133 74.4543 25.8341ZM73.056 25.4483C73.0495 25.1012 72.9242 24.8247 72.6799 24.619C72.4356 24.4068 72.1366 24.3007 71.783 24.3007C71.4487 24.3007 71.1658 24.4036 70.9344 24.6093C70.7094 24.8086 70.5711 25.0883 70.5197 25.4483H73.056ZM77.4842 28.7079C77.047 28.7079 76.6549 28.6307 76.3077 28.4764C75.9605 28.3157 75.6841 28.1003 75.4783 27.8303C75.279 27.5603 75.1697 27.2613 75.1505 26.9335H76.5102C76.5359 27.1392 76.6356 27.3096 76.8092 27.4446C76.9892 27.5796 77.211 27.6471 77.4746 27.6471C77.7317 27.6471 77.931 27.5957 78.0725 27.4928C78.2203 27.3899 78.2943 27.2581 78.2943 27.0974C78.2943 26.9238 78.2043 26.7952 78.0243 26.7117C77.8507 26.6216 77.571 26.5252 77.1853 26.4223C76.7867 26.3259 76.4588 26.2263 76.2016 26.1234C75.9509 26.0205 75.7323 25.863 75.5458 25.6509C75.3658 25.4387 75.2758 25.1526 75.2758 24.7926C75.2758 24.4968 75.3594 24.2268 75.5266 23.9825C75.7001 23.7382 75.9444 23.5453 76.2595 23.4039C76.5809 23.2624 76.957 23.1917 77.3878 23.1917C78.0243 23.1917 78.5322 23.3525 78.9115 23.6739C79.2908 23.9889 79.4997 24.4165 79.5383 24.9565H78.2461C78.2268 24.7444 78.1368 24.5772 77.976 24.455C77.8217 24.3265 77.6128 24.2622 77.3492 24.2622C77.1049 24.2622 76.9152 24.3072 76.7802 24.3972C76.6516 24.4872 76.5874 24.6126 76.5874 24.7733C76.5874 24.9533 76.6774 25.0915 76.8574 25.188C77.0374 25.278 77.3171 25.3712 77.6964 25.4676C78.0821 25.5641 78.4004 25.6637 78.6511 25.7666C78.9018 25.8694 79.1172 26.0302 79.2972 26.2488C79.4837 26.4609 79.5801 26.7438 79.5865 27.0974C79.5865 27.406 79.4997 27.6824 79.3261 27.9268C79.159 28.1711 78.9147 28.3639 78.5932 28.5054C78.2782 28.6404 77.9085 28.7079 77.4842 28.7079ZM82.7392 28.7079C82.3021 28.7079 81.9099 28.6307 81.5627 28.4764C81.2155 28.3157 80.9391 28.1003 80.7334 27.8303C80.5341 27.5603 80.4248 27.2613 80.4055 26.9335H81.7652C81.7909 27.1392 81.8906 27.3096 82.0642 27.4446C82.2442 27.5796 82.466 27.6471 82.7296 27.6471C82.9868 27.6471 83.1861 27.5957 83.3275 27.4928C83.4754 27.3899 83.5493 27.2581 83.5493 27.0974C83.5493 26.9238 83.4593 26.7952 83.2793 26.7117C83.1057 26.6216 82.826 26.5252 82.4403 26.4223C82.0417 26.3259 81.7138 26.2263 81.4566 26.1234C81.2059 26.0205 80.9873 25.863 80.8009 25.6509C80.6209 25.4387 80.5308 25.1526 80.5308 24.7926C80.5308 24.4968 80.6144 24.2268 80.7816 23.9825C80.9552 23.7382 81.1995 23.5453 81.5145 23.4039C81.836 23.2624 82.2121 23.1917 82.6428 23.1917C83.2793 23.1917 83.7872 23.3525 84.1665 23.6739C84.5458 23.9889 84.7548 24.4165 84.7933 24.9565H83.5011C83.4818 24.7444 83.3918 24.5772 83.2311 24.455C83.0768 24.3265 82.8678 24.2622 82.6042 24.2622C82.3599 24.2622 82.1703 24.3072 82.0353 24.3972C81.9067 24.4872 81.8424 24.6126 81.8424 24.7733C81.8424 24.9533 81.9324 25.0915 82.1124 25.188C82.2924 25.278 82.5721 25.3712 82.9514 25.4676C83.3371 25.5641 83.6554 25.6637 83.9061 25.7666C84.1569 25.8694 84.3722 26.0302 84.5522 26.2488C84.7387 26.4609 84.8351 26.7438 84.8415 27.0974C84.8415 27.406 84.7548 27.6824 84.5812 27.9268C84.414 28.1711 84.1697 28.3639 83.8483 28.5054C83.5332 28.6404 83.1636 28.7079 82.7392 28.7079ZM88.5177 27.0974C89.1349 26.5831 89.6267 26.1555 89.9932 25.8148C90.3597 25.4676 90.665 25.1076 90.9094 24.7347C91.1537 24.3618 91.2758 23.9954 91.2758 23.6353C91.2758 23.3075 91.1987 23.0503 91.0444 22.8638C90.8901 22.6774 90.6522 22.5842 90.3307 22.5842C90.0093 22.5842 89.7618 22.6935 89.5882 22.9121C89.4146 23.1242 89.3246 23.4167 89.3182 23.7896H88.0066C88.0323 23.0181 88.2606 22.4331 88.6913 22.0345C89.1285 21.6359 89.6814 21.4366 90.35 21.4366C91.0829 21.4366 91.6455 21.6327 92.0377 22.0248C92.4298 22.4106 92.6259 22.9217 92.6259 23.5582C92.6259 24.0597 92.4909 24.5386 92.2209 24.9951C91.9509 25.4516 91.6423 25.8502 91.2951 26.1909C90.9479 26.5252 90.4947 26.9302 89.9353 27.406H92.7802V28.5247H88.0163V27.5217L88.5177 27.0974ZM93.5731 27.2517V26.1909L96.7266 21.6777H98.2985V26.0752H99.1471V27.2517H98.2985V28.6211H96.9484V27.2517H93.5731ZM97.0352 23.1242L95.0582 26.0752H97.0352V23.1242ZM103.777 19.4886L101.174 30.3666H99.8524L102.456 19.4886H103.777ZM109.171 22.6131L106.606 28.6211H105.237L107.821 22.7674H104.523V21.6102H109.171V22.6131Z" fill="#656565"/>
<path d="M132.826 41.3103C133.443 40.796 133.935 40.3684 134.301 40.0277C134.668 39.6805 134.973 39.3205 135.218 38.9476C135.462 38.5747 135.584 38.2083 135.584 37.8482C135.584 37.5203 135.507 37.2632 135.353 37.0767C135.198 36.8903 134.96 36.7971 134.639 36.7971C134.317 36.7971 134.07 36.9064 133.896 37.125C133.723 37.3371 133.633 37.6296 133.626 38.0025H132.315C132.341 37.231 132.569 36.646 132.999 36.2474C133.437 35.8488 133.99 35.6495 134.658 35.6495C135.391 35.6495 135.954 35.8456 136.346 36.2377C136.738 36.6235 136.934 37.1346 136.934 37.7711C136.934 38.2725 136.799 38.7515 136.529 39.208C136.259 39.6644 135.95 40.063 135.603 40.4038C135.256 40.7381 134.803 41.1431 134.244 41.6189H137.088V42.7375H132.324V41.7346L132.826 41.3103ZM137.881 41.4646V40.4038L141.035 35.8906H142.607V40.2881H143.455V41.4646H142.607V42.834H141.257V41.4646H137.881ZM141.343 37.3371L139.366 40.2881H141.343V37.3371ZM148.086 33.7015L145.482 44.5795H144.161L146.764 33.7015H148.086ZM153.479 36.826L150.914 42.834H149.545L152.129 36.9803H148.831V35.8231H153.479V36.826Z" fill="#656565"/>
<path d="M48.8271 38.4061L46.2619 44.4141H44.8925L47.477 38.5604H44.1788V37.4031H48.8271V38.4061ZM50.8122 40.6916C50.1693 40.3573 49.8479 39.8398 49.8479 39.139C49.8479 38.7918 49.9347 38.4768 50.1082 38.1939C50.2883 37.9046 50.5551 37.6764 50.9087 37.5092C51.2687 37.3356 51.7059 37.2488 52.2202 37.2488C52.7345 37.2488 53.1685 37.3356 53.5221 37.5092C53.8821 37.6764 54.1489 37.9046 54.3225 38.1939C54.5025 38.4768 54.5925 38.7918 54.5925 39.139C54.5925 39.4926 54.5057 39.8044 54.3322 40.0744C54.1586 40.338 53.9271 40.5438 53.6378 40.6916C53.9914 40.8459 54.2679 41.0709 54.4672 41.3667C54.6665 41.6624 54.7661 42.0128 54.7661 42.4178C54.7661 42.855 54.6536 43.2375 54.4286 43.5654C54.21 43.8869 53.9078 44.1344 53.5221 44.308C53.1363 44.4816 52.7024 44.5684 52.2202 44.5684C51.738 44.5684 51.3041 44.4816 50.9183 44.308C50.539 44.1344 50.2368 43.8869 50.0118 43.5654C49.7932 43.2375 49.6839 42.855 49.6839 42.4178C49.6839 42.0128 49.7836 41.6624 49.9829 41.3667C50.1822 41.0645 50.4586 40.8395 50.8122 40.6916ZM53.281 39.3319C53.281 39.0168 53.1846 38.7725 52.9917 38.599C52.8052 38.4254 52.5481 38.3386 52.2202 38.3386C51.8987 38.3386 51.6416 38.4254 51.4487 38.599C51.2623 38.7725 51.169 39.0201 51.169 39.3415C51.169 39.6308 51.2655 39.8623 51.4584 40.0359C51.6577 40.2094 51.9116 40.2962 52.2202 40.2962C52.5288 40.2962 52.7827 40.2094 52.982 40.0359C53.1813 39.8558 53.281 39.6212 53.281 39.3319ZM52.2202 41.2799C51.8537 41.2799 51.5548 41.3731 51.3233 41.5595C51.0983 41.746 50.9858 42.0128 50.9858 42.36C50.9858 42.6814 51.0951 42.945 51.3137 43.1507C51.5387 43.35 51.8409 43.4497 52.2202 43.4497C52.5995 43.4497 52.8985 43.3468 53.1171 43.1411C53.3356 42.9354 53.4449 42.675 53.4449 42.36C53.4449 42.0192 53.3324 41.7556 53.1074 41.5692C52.8824 41.3763 52.5867 41.2799 52.2202 41.2799ZM55.8325 40.8073C55.8325 39.6951 56.0318 38.824 56.4304 38.1939C56.8354 37.5639 57.5041 37.2488 58.4363 37.2488C59.3685 37.2488 60.0339 37.5639 60.4325 38.1939C60.8375 38.824 61.0401 39.6951 61.0401 40.8073C61.0401 41.926 60.8375 42.8036 60.4325 43.4401C60.0339 44.0765 59.3685 44.3948 58.4363 44.3948C57.5041 44.3948 56.8354 44.0765 56.4304 43.4401C56.0318 42.8036 55.8325 41.926 55.8325 40.8073ZM59.7092 40.8073C59.7092 40.3316 59.6771 39.933 59.6128 39.6115C59.5549 39.2837 59.4328 39.0168 59.2463 38.8111C59.0663 38.6054 58.7963 38.5025 58.4363 38.5025C58.0762 38.5025 57.803 38.6054 57.6166 38.8111C57.4365 39.0168 57.3144 39.2837 57.2501 39.6115C57.1922 39.933 57.1633 40.3316 57.1633 40.8073C57.1633 41.296 57.1922 41.7074 57.2501 42.0417C57.308 42.3696 57.4301 42.6364 57.6166 42.8422C57.803 43.0415 58.0762 43.1411 58.4363 43.1411C58.7963 43.1411 59.0695 43.0415 59.256 42.8422C59.4424 42.6364 59.5646 42.3696 59.6224 42.0417C59.6803 41.7074 59.7092 41.296 59.7092 40.8073ZM66.3294 40.4023V41.5403H62.2405V40.4023H66.3294ZM67.6314 43.0447V41.9839L70.7849 37.4706H72.3568V41.8681H73.2054V43.0447H72.3568V44.4141H71.0067V43.0447H67.6314ZM71.0935 38.9172L69.1165 41.8681H71.0935V38.9172ZM74.4893 42.8904C75.1065 42.376 75.5983 41.9485 75.9648 41.6078C76.3312 41.2606 76.6366 40.9006 76.8809 40.5277C77.1252 40.1548 77.2474 39.7883 77.2474 39.4283C77.2474 39.1004 77.1702 38.8433 77.0159 38.6568C76.8616 38.4704 76.6238 38.3771 76.3023 38.3771C75.9809 38.3771 75.7333 38.4864 75.5597 38.705C75.3862 38.9172 75.2962 39.2097 75.2897 39.5826H73.9782C74.0039 38.8111 74.2321 38.2261 74.6629 37.8275C75.1001 37.4289 75.653 37.2296 76.3216 37.2296C77.0545 37.2296 77.6171 37.4256 78.0092 37.8178C78.4014 38.2036 78.5975 38.7147 78.5975 39.3512C78.5975 39.8526 78.4625 40.3316 78.1925 40.7881C77.9224 41.2445 77.6138 41.6431 77.2667 41.9839C76.9195 42.3182 76.4662 42.7232 75.9069 43.199H78.7518V44.3176H73.9878V43.3147L74.4893 42.8904ZM79.5447 43.0447V41.9839L82.6981 37.4706H84.2701V41.8681H85.1187V43.0447H84.2701V44.4141H82.9199V43.0447H79.5447ZM83.0067 38.9172L81.0298 41.8681H83.0067V38.9172ZM90.2407 40.4023V41.5403H86.1518V40.4023H90.2407ZM92.0249 42.8904C92.6421 42.376 93.1339 41.9485 93.5004 41.6078C93.8668 41.2606 94.1722 40.9006 94.4165 40.5277C94.6608 40.1548 94.783 39.7883 94.783 39.4283C94.783 39.1004 94.7058 38.8433 94.5515 38.6568C94.3972 38.4704 94.1593 38.3771 93.8379 38.3771C93.5164 38.3771 93.2689 38.4864 93.0953 38.705C92.9217 38.9172 92.8317 39.2097 92.8253 39.5826H91.5138C91.5395 38.8111 91.7677 38.2261 92.1985 37.8275C92.6357 37.4289 93.1886 37.2296 93.8572 37.2296C94.5901 37.2296 95.1526 37.4256 95.5448 37.8178C95.937 38.2036 96.1331 38.7147 96.1331 39.3512C96.1331 39.8526 95.9981 40.3316 95.728 40.7881C95.458 41.2445 95.1494 41.6431 94.8023 41.9839C94.4551 42.3182 94.0018 42.7232 93.4425 43.199H96.2874V44.3176H91.5234V43.3147L92.0249 42.8904ZM97.0803 43.0447V41.9839L100.234 37.4706H101.806V41.8681H102.654V43.0447H101.806V44.4141H100.456V43.0447H97.0803ZM100.542 38.9172L98.5654 41.8681H100.542V38.9172ZM103.938 42.8904C104.555 42.376 105.047 41.9485 105.414 41.6078C105.78 41.2606 106.085 40.9006 106.33 40.5277C106.574 40.1548 106.696 39.7883 106.696 39.4283C106.696 39.1004 106.619 38.8433 106.465 38.6568C106.311 38.4704 106.073 38.3771 105.751 38.3771C105.43 38.3771 105.182 38.4864 105.009 38.705C104.835 38.9172 104.745 39.2097 104.739 39.5826H103.427C103.453 38.8111 103.681 38.2261 104.112 37.8275C104.549 37.4289 105.102 37.2296 105.77 37.2296C106.503 37.2296 107.066 37.4256 107.458 37.8178C107.85 38.2036 108.046 38.7147 108.046 39.3512C108.046 39.8526 107.911 40.3316 107.641 40.7881C107.371 41.2445 107.063 41.6431 106.716 41.9839C106.368 42.3182 105.915 42.7232 105.356 43.199H108.201V44.3176H103.437V43.3147L103.938 42.8904ZM108.994 43.0447V41.9839L112.147 37.4706H113.719V41.8681H114.568V43.0447H113.719V44.4141H112.369V43.0447H108.994ZM112.456 38.9172L110.479 41.8681H112.456V38.9172Z" fill="#656565"/>
<path d="M159.015 31.0145C153.294 22.4765 141.735 20.1931 133.197 25.9143C124.659 31.6355 122.375 43.1948 128.097 51.7328" stroke="#656565" stroke-width="1.18439"/>
</svg>
