<svg width="130" height="38" viewBox="0 0 130 38" fill="none" xmlns="http://www.w3.org/2000/svg">
<path d="M45.491 23.4245L48.1917 12.1094H51.0431L53.6078 23.4245H51.3449L50.7864 20.5578H48.3123L47.754 23.4245H45.491ZM48.6442 18.8983H50.4548L49.8816 15.6846C49.7765 15.1566 49.7305 14.6433 49.6702 14.1159C49.6554 13.8592 49.6251 13.6031 49.5947 13.3614H49.5646C49.5341 13.6031 49.5045 13.8592 49.4888 14.1159C49.4287 14.6435 49.3839 15.1566 49.278 15.6846L48.6442 18.8983Z" fill="#757575"/>
<path d="M56.5194 12.1094H54.5583V23.4247H56.5194V12.1094Z" fill="#757575"/>
<path d="M57.998 12.1094H59.9591V14.8249C59.9591 15.0967 59.929 15.368 59.9142 15.7758H59.9439C60.3362 14.9606 60.8641 14.674 61.6943 14.6895C62.9614 14.7191 63.6859 15.368 63.7311 17.7066V20.7847C63.6859 22.1421 63.3538 23.6511 61.6943 23.6511C60.8797 23.6059 60.3362 23.3646 59.8988 22.5195H59.8687V23.4251H57.998V12.1094ZM59.9593 20.6334C59.9593 21.6137 60.2761 22.1419 60.9098 22.1419C61.5134 22.1419 61.7246 21.4933 61.7699 20.6784V17.8418C61.7094 16.9972 61.7999 16.1978 60.8799 16.1978C59.9595 16.1978 59.9295 17.4048 59.9595 18.084V20.6334H59.9593Z" fill="#757575"/>
<path d="M64.7565 17.8425C64.6657 15.8359 65.692 14.6895 67.623 14.6895C70.354 14.6895 70.6407 16.1077 70.6407 18.4312V19.5771H66.7176V20.8145C66.733 21.9311 67.1555 22.1426 67.7436 22.1426C68.4678 22.1426 68.6791 21.6143 68.6488 20.5434H70.6105C70.686 22.4448 69.9011 23.6513 67.8947 23.6513C65.6319 23.6513 64.7115 22.58 64.7567 20.0755V17.8425H64.7565ZM68.6793 18.0691V17.3294C68.6642 16.4696 68.438 16.1982 67.6532 16.1982C66.6729 16.1982 66.7178 16.9525 66.7178 17.722V18.0691H68.6793Z" fill="#757575"/>
<path d="M74.0046 16.4233H74.0348C74.2763 15.8049 74.5176 15.4579 74.8044 15.2164C75.3625 14.7489 75.7398 14.7785 76.0259 14.7637V17.0873C74.94 16.9812 74.1098 17.2532 74.0801 18.5055V23.424H72.1187V14.9146H74.0046V16.4233Z" fill="#757575"/>
<path d="M80.9437 23.4558C79.7827 23.5914 78.1526 23.697 78.1526 22.1129V16.35H77.3533V14.9167H78.1376V12.5781H80.1143V14.917H80.9435V16.3502H80.1143V21.6304C80.1596 21.9925 80.7023 21.9478 80.9435 21.9167L80.9437 23.4558Z" fill="#757575"/>
<path d="M85.8169 23.4244C85.6809 23.1523 85.6661 22.8511 85.6961 22.5493H85.666C85.2136 23.2585 84.61 23.6507 83.9461 23.6507C82.3619 23.6507 81.668 22.8511 81.668 21.1006C81.668 19.1548 83.0409 18.6869 84.5799 18.053C85.4091 17.7068 85.7113 17.3294 85.5456 16.6353C85.4542 16.2581 85.153 16.1978 84.6252 16.1978C83.7351 16.1978 83.5837 16.6657 83.5992 17.4348H81.7285C81.7133 15.8209 82.2409 14.6895 84.7006 14.6895C87.3708 14.6895 87.5367 16.0922 87.5067 17.2088V22.2325C87.5067 22.6397 87.5666 23.0325 87.6722 23.4247H85.8169V23.4244ZM85.5458 18.9434C85.0625 19.2755 84.4741 19.6071 83.9609 20.03C83.6747 20.2712 83.6294 20.6937 83.6294 21.0553C83.6294 21.7042 83.8252 22.1419 84.5497 22.1419C85.7113 22.1419 85.5001 20.6784 85.5458 19.8643V18.9434Z" fill="#757575"/>
<path d="M93.073 23.4247V12.1094H95.1852V16.59H98.1424V12.1094H100.255V23.4247H98.1424V18.2497H95.1852V23.4247H93.073Z" fill="#757575"/>
<path d="M101.747 17.8425C101.657 15.8359 102.683 14.6895 104.614 14.6895C107.345 14.6895 107.631 16.1077 107.631 18.4312V19.5771H103.709V20.8145C103.724 21.9311 104.146 22.1426 104.735 22.1426C105.459 22.1426 105.67 21.6143 105.64 20.5434H107.602C107.677 22.4448 106.892 23.6513 104.886 23.6513C102.623 23.6513 101.702 22.58 101.748 20.0755V17.8425H101.747ZM105.67 18.0691V17.3294C105.655 16.4696 105.429 16.1982 104.644 16.1982C103.664 16.1982 103.709 16.9525 103.709 17.722V18.0691H105.67Z" fill="#757575"/>
<path d="M112.987 23.4244C112.852 23.1523 112.836 22.8511 112.866 22.5493H112.836C112.384 23.2585 111.78 23.6507 111.116 23.6507C109.532 23.6507 108.838 22.8511 108.838 21.1006C108.838 19.1548 110.211 18.6869 111.75 18.053C112.579 17.7068 112.881 17.3294 112.716 16.6353C112.625 16.2581 112.323 16.1978 111.795 16.1978C110.905 16.1978 110.754 16.6657 110.769 17.4348H108.898C108.884 15.8209 109.411 14.6895 111.871 14.6895C114.541 14.6895 114.707 16.0922 114.677 17.2088V22.2325C114.677 22.6397 114.737 23.0325 114.843 23.4247H112.987V23.4244ZM112.716 18.9434C112.233 19.2755 111.644 19.6071 111.131 20.03C110.845 20.2712 110.799 20.6937 110.799 21.0553C110.799 21.7042 110.995 22.1419 111.719 22.1419C112.881 22.1419 112.67 20.6784 112.716 19.8643V18.9434Z" fill="#757575"/>
<path d="M118.222 12.1094H116.26V23.4247H118.222V12.1094Z" fill="#757575"/>
<path d="M122.838 23.4558C121.676 23.5914 120.047 23.697 120.047 22.1129V16.35H119.247V14.9167H120.032V12.5781H122.008V14.917H122.838V16.3502H122.008V21.6304C122.053 21.9925 122.596 21.9478 122.838 21.9167L122.838 23.4558Z" fill="#757575"/>
<path d="M123.849 23.4247V12.1094H125.81V15.7904H125.841C126.399 14.7949 127.183 14.6895 127.606 14.6895C128.722 14.6895 129.628 15.3379 129.567 16.8617V23.4247H127.606V17.6008C127.606 16.7714 127.515 16.2279 126.776 16.1974C126.037 16.1676 125.781 16.8617 125.81 17.7671V23.4247H123.849Z" fill="#757575"/>
<path d="M50.6964 29.4869C50.7116 28.4759 50.6208 27.4801 49.4591 27.4801C48.7499 27.4801 48.2977 27.7661 48.2977 28.5364C48.2977 29.3961 48.8405 29.7284 49.5044 30.1506C50.1986 30.5879 51.4809 31.4334 52.0691 32.0065C52.7935 32.7157 53.02 33.3942 53.02 34.3749C53.02 36.5169 51.6016 37.6336 49.5347 37.6336C47.0001 37.6336 46.0945 36.2154 46.0945 34.1942V33.3646H48.2069V34.0283C48.1618 35.1297 48.4934 35.929 49.5347 35.929C50.4246 35.929 50.8473 35.4609 50.8473 34.6012C50.8473 33.9371 50.5453 33.485 50.0022 33.1081C48.9013 32.248 47.5279 31.6291 46.6678 30.4975C46.3209 29.9847 46.125 29.3661 46.125 28.7627C46.125 26.8317 47.2113 25.7754 49.4439 25.7754C52.8083 25.7754 52.7177 28.3703 52.733 29.4869H50.6964Z" fill="#949494"/>
<path d="M54.2262 31.7802C54.1356 29.773 55.1619 28.627 57.0927 28.627C59.8235 28.627 60.1102 30.0445 60.1102 32.369V33.5154H56.1873V34.752C56.2027 35.8688 56.625 36.0801 57.2135 36.0801C57.9375 36.0801 58.1492 35.552 58.1185 34.4807H60.08C60.1553 36.3816 59.3708 37.5886 57.364 37.5886C55.1011 37.5886 54.1807 36.5177 54.2262 34.0132V31.7802ZM58.1492 32.0066V31.2672C58.1339 30.4073 57.9075 30.1357 57.1229 30.1357C56.1424 30.1357 56.1873 30.8898 56.1873 31.6593V32.0066H58.1492Z" fill="#949494"/>
<path d="M63.4741 30.3611H63.5045C63.746 29.7422 63.9873 29.3956 64.2738 29.1539C64.8324 28.6861 65.2095 28.7166 65.4959 28.7012V31.025C64.4097 30.9194 63.5794 31.1907 63.5496 32.4427V37.3617H61.5881V28.8523H63.4741V30.3611Z" fill="#949494"/>
<path d="M66.7322 28.8535H68.8448L69.6742 33.6211C69.8403 34.3902 69.9157 35.7331 69.9459 36.1403H69.976C70.0065 35.7331 70.0818 34.3902 70.2477 33.6211L71.093 28.8535H73.1294L71.1681 37.3625H68.7241L66.7322 28.8535Z" fill="#949494"/>
<path d="M74.3962 26.0469H76.3575V27.827H74.3962V26.0469ZM74.3962 28.853H76.3575V37.3622H74.3962V28.853Z" fill="#949494"/>
<path d="M81.2756 31.8111V30.8606C81.2456 30.3925 81.0191 30.1357 80.5969 30.1357C79.8424 30.1357 79.8424 30.9958 79.8576 32.0369V34.0432C79.8126 35.7033 80.0085 36.0051 80.5969 36.0801C81.2005 36.0652 81.2155 35.5072 81.2756 34.828V34.0432H83.2367V34.828C83.2367 36.6085 82.4976 37.5886 80.5516 37.5886C78.8168 37.5886 77.8206 36.6686 77.8964 34.4058V31.6449C77.8813 29.2608 79.0581 28.627 80.5516 28.627C82.5281 28.627 83.2525 29.8644 83.2367 31.1313V31.8109L81.2756 31.8111Z" fill="#949494"/>
<path d="M84.6539 31.7802C84.5638 29.773 85.5892 28.627 87.5206 28.627C90.2511 28.627 90.5379 30.0445 90.5379 32.369V33.5154H86.6156V34.752C86.6306 35.8688 87.0531 36.0801 87.6414 36.0801C88.3654 36.0801 88.5767 35.552 88.5468 34.4807H90.5081C90.5836 36.3816 89.7989 37.5886 87.7925 37.5886C85.5293 37.5886 84.6088 36.5177 84.6541 34.0132V31.7802H84.6539ZM88.5769 32.0066V31.2672C88.5621 30.4073 88.3356 30.1357 87.5513 30.1357C86.5703 30.1357 86.6158 30.8898 86.6158 31.6593V32.0066H88.5769Z" fill="#949494"/>
<path d="M93.7971 34.556C93.6458 36.1253 94.2492 36.0798 94.7021 36.0798C95.2608 36.0798 95.6526 35.6729 95.5167 35.1296C95.4864 34.6473 94.9285 34.3751 94.5512 34.1186L93.4803 33.3795C92.4998 32.7004 91.8659 31.916 91.8659 30.694C91.8659 29.3815 92.9074 28.627 94.7927 28.627C96.694 28.627 97.569 29.6229 97.5237 31.4481H95.5626C95.6079 30.4976 95.3364 30.1355 94.6572 30.1355C94.1891 30.1355 93.8274 30.3472 93.8274 30.8297C93.8274 31.3277 94.1893 31.5541 94.5662 31.8107L96.1656 32.8966C96.6636 33.1831 97.4481 33.9979 97.5086 34.5715C97.6743 36.0498 97.3122 37.589 94.5969 37.589C93.5561 37.589 91.6094 37.1512 91.8361 34.5562H93.7971V34.556Z" fill="#949494"/>
<path d="M11.9158 12.1328H0.139893V24.6356H11.9158V12.1328Z" fill="#757575"/>
<path d="M38.3423 12.1328H26.5642V24.6356H38.3423V12.1328Z" fill="#757575"/>
<path d="M25.4454 25.7832H12.9429V37.5596H25.4454V25.7832Z" fill="#757575"/>
<path d="M13.0571 0.367188V16.7311L19.4211 24.6536H25.4341V0.367188H13.0571Z" fill="#949494"/>
</svg>
