<svg width="55" height="55" viewBox="0 0 55 55" fill="none" xmlns="http://www.w3.org/2000/svg">
<circle cx="27.5" cy="27.5" r="27.5" fill="#FFD23F"/>
<mask id="mask0_0_1" style="mask-type:luminance" maskUnits="userSpaceOnUse" x="18" y="16" width="21" height="11">
<path d="M18.2734 16H38.6386V26.9614H18.2734V16Z" fill="white"/>
</mask>
<g mask="url(#mask0_0_1)">
<path d="M18.6839 26.8546C18.4919 26.8546 18.3274 26.7086 18.3088 26.5142C18.2975 26.4012 18.2969 26.2881 18.2969 26.1757C18.2969 20.5951 22.8439 16.0547 28.4328 16.0547C34.0218 16.0547 38.5688 20.5951 38.5688 26.1757C38.5688 26.3838 38.4001 26.5525 38.1914 26.5525C37.9832 26.5525 37.8139 26.3838 37.8139 26.1757C37.8139 21.0108 33.6055 16.8089 28.4328 16.8089C23.2602 16.8089 19.0523 21.0108 19.0523 26.1757C19.0523 26.2636 19.0517 26.3521 19.0601 26.4407C19.0804 26.6476 18.9285 26.8324 18.721 26.8528C18.7084 26.854 18.6964 26.8546 18.6839 26.8546Z" fill="black"/>
</g>
<path d="M29.6682 36.2239C29.4594 36.2239 29.2656 36.0564 29.2656 35.8483C29.2656 35.6401 29.4098 35.4727 29.6185 35.4727H29.6233C32.4549 35.1329 35.0543 33.4312 36.5335 30.9221C36.6394 30.7426 36.8697 30.6828 37.0509 30.7887C37.2304 30.8945 37.2908 31.1254 37.1849 31.3049C35.5867 34.0156 32.7767 35.8543 29.6682 36.2239Z" fill="black"/>
<path d="M24.0907 35.2825C24.0243 35.2825 23.9615 35.2657 23.9071 35.2352C23.7863 35.1724 23.7031 35.0462 23.7031 34.9003C23.7031 34.6921 23.8724 34.5234 24.0811 34.5234C24.2893 34.5234 24.4687 34.6975 24.4687 34.9056C24.4687 35.1138 24.2995 35.2825 24.0907 35.2825Z" fill="black"/>
<path d="M28.4393 32.6557C24.8624 32.6557 21.9531 29.7505 21.9531 26.1797C21.9531 22.6083 24.8624 19.7031 28.4393 19.7031C32.0161 19.7031 34.9254 22.6083 34.9254 26.1797C34.9254 29.7505 32.0161 32.6557 28.4393 32.6557ZM28.4393 20.4574C25.2793 20.4574 22.7086 23.0246 22.7086 26.1797C22.7086 29.3348 25.2793 31.9014 28.4393 31.9014C31.5992 31.9014 34.17 29.3348 34.17 26.1797C34.17 23.0246 31.5992 20.4574 28.4393 20.4574Z" fill="black"/>
<path d="M28.4399 21.2607C28.2318 21.2607 28.0625 21.0914 28.0625 20.8832V20.0805C28.0625 19.8724 28.2318 19.7031 28.4399 19.7031C28.6487 19.7031 28.8179 19.8724 28.8179 20.0805V20.8832C28.8179 21.0914 28.6487 21.2607 28.4399 21.2607Z" fill="black"/>
<path d="M28.4399 32.6552C28.2318 32.6552 28.0625 32.4859 28.0625 32.2778V31.4751C28.0625 31.2669 28.2318 31.0977 28.4399 31.0977C28.6487 31.0977 28.8179 31.2669 28.8179 31.4751V32.2778C28.8179 32.4859 28.6487 32.6552 28.4399 32.6552Z" fill="black"/>
<path d="M25.7956 21.969C25.6646 21.969 25.5378 21.9014 25.4678 21.7806L25.0665 21.085C24.9618 20.9049 25.024 20.6741 25.2046 20.57C25.3859 20.4659 25.6162 20.5281 25.7202 20.7082L26.1222 21.4038C26.2263 21.5838 26.164 21.8147 25.984 21.9188C25.9242 21.9529 25.8596 21.969 25.7956 21.969Z" fill="black"/>
<path d="M23.8467 23.9095C23.7827 23.9095 23.7181 23.8934 23.6589 23.8587L22.9621 23.4573C22.782 23.3533 22.7198 23.123 22.8239 22.9423C22.928 22.7623 23.1588 22.7001 23.3401 22.8048L24.0363 23.2061C24.2169 23.3102 24.2785 23.5405 24.1745 23.7211C24.1045 23.8419 23.9777 23.9095 23.8467 23.9095Z" fill="black"/>
<path d="M23.1344 26.555H22.3305C22.1224 26.555 21.9531 26.3864 21.9531 26.1782C21.9531 25.9701 22.1224 25.8008 22.3305 25.8008H23.1344C23.3432 25.8008 23.5125 25.9701 23.5125 26.1782C23.5125 26.3864 23.3432 26.555 23.1344 26.555Z" fill="black"/>
<path d="M23.1517 29.6053C23.0207 29.6053 22.8939 29.5377 22.8239 29.4163C22.7198 29.2362 22.782 29.0054 22.9621 28.9013L23.6589 28.4999C23.8401 28.3953 24.0704 28.4581 24.1745 28.6381C24.2785 28.8187 24.2169 29.049 24.0363 29.1531L23.3401 29.5544C23.2803 29.5885 23.2157 29.6053 23.1517 29.6053Z" fill="black"/>
<path d="M25.3925 31.8383C25.3291 31.8383 25.2639 31.8222 25.2046 31.7881C25.024 31.684 24.9618 31.4531 25.0665 31.2731L25.4678 30.5775C25.5719 30.3974 25.8022 30.3352 25.984 30.4387C26.164 30.5434 26.2263 30.7737 26.1222 30.9543L25.7202 31.6493C25.6503 31.7707 25.5234 31.8383 25.3925 31.8383Z" fill="black"/>
<path d="M31.4989 31.8384C31.3685 31.8384 31.2417 31.7708 31.1717 31.65L30.7692 30.9544C30.6651 30.7743 30.7273 30.5435 30.9074 30.4394C31.0886 30.3347 31.3195 30.3975 31.4236 30.5776L31.8255 31.2726C31.9302 31.4532 31.868 31.6835 31.6873 31.7876C31.6281 31.8223 31.5629 31.8384 31.4989 31.8384Z" fill="black"/>
<path d="M33.7302 29.6053C33.6662 29.6053 33.601 29.5885 33.5418 29.5544L32.845 29.1531C32.6644 29.049 32.6028 28.8187 32.7068 28.6381C32.8109 28.4581 33.0418 28.3953 33.2224 28.4999L33.9192 28.9013C34.0999 29.0054 34.1621 29.2362 34.0574 29.4163C33.988 29.5377 33.8612 29.6053 33.7302 29.6053Z" fill="black"/>
<path d="M34.5419 26.555H33.7374C33.5286 26.555 33.3594 26.3864 33.3594 26.1782C33.3594 25.9701 33.5286 25.8008 33.7374 25.8008H34.5419C34.75 25.8008 34.9193 25.9701 34.9193 26.1782C34.9193 26.3864 34.75 26.555 34.5419 26.555Z" fill="black"/>
<path d="M33.0346 23.9095C32.9036 23.9095 32.7768 23.8419 32.7068 23.7211C32.6028 23.5405 32.6644 23.3096 32.845 23.2061L33.5418 22.8048C33.7231 22.7001 33.9533 22.7623 34.0574 22.9423C34.1621 23.123 34.0999 23.3539 33.9192 23.4573L33.2224 23.8587C33.1632 23.8934 33.098 23.9095 33.0346 23.9095Z" fill="black"/>
<path d="M31.0958 21.9693C31.0318 21.9693 30.9672 21.9531 30.9074 21.919C30.7273 21.815 30.6651 21.5841 30.7692 21.404L31.1717 20.7084C31.2752 20.5284 31.5067 20.4656 31.6873 20.5702C31.868 20.6743 31.9302 20.9052 31.8255 21.0852L31.4236 21.7809C31.3536 21.9017 31.2268 21.9693 31.0958 21.9693Z" fill="black"/>
<path d="M30.7485 26.555H29.4087C29.2005 26.555 29.0312 26.3864 29.0312 26.1782C29.0312 25.9701 29.2005 25.8008 29.4087 25.8008H30.7485C30.9572 25.8008 31.1259 25.9701 31.1259 26.1782C31.1259 26.3864 30.9572 26.555 30.7485 26.555Z" fill="black"/>
<path d="M27.9441 25.7235C27.8149 25.7235 27.6893 25.6577 27.6188 25.5393L26.194 23.1462C26.0869 22.9673 26.1462 22.7359 26.325 22.6294C26.5068 22.5223 26.7365 22.5821 26.843 22.761L28.2677 25.1541C28.3748 25.3329 28.3156 25.5644 28.1367 25.6709C28.0757 25.7068 28.0093 25.7235 27.9441 25.7235Z" fill="black"/>
<path d="M28.4401 27.5204C27.6979 27.5204 27.0938 26.9174 27.0938 26.1758C27.0938 25.4371 27.6979 24.8359 28.4401 24.8359C29.183 24.8359 29.7865 25.4371 29.7865 26.1758C29.7865 26.9174 29.183 27.5204 28.4401 27.5204ZM28.4401 25.5896C28.1142 25.5896 27.8492 25.8528 27.8492 26.1758C27.8492 26.5011 28.1142 26.7661 28.4401 26.7661C28.7661 26.7661 29.0311 26.5011 29.0311 26.1758C29.0311 25.8528 28.7661 25.5896 28.4401 25.5896Z" fill="black"/>
<mask id="mask1_0_1" style="mask-type:luminance" maskUnits="userSpaceOnUse" x="36" y="24" width="4" height="3">
<path d="M36.3438 24.3594H39.9451V26.6562H36.3438V24.3594Z" fill="white"/>
</mask>
<g mask="url(#mask1_0_1)">
<path d="M38.1343 26.6518C38.0344 26.6518 37.9381 26.6117 37.8675 26.5412L36.4619 25.1379C36.3148 24.9908 36.3148 24.7522 36.4619 24.605C36.6097 24.4579 36.8483 24.4579 36.9961 24.605L38.1343 25.7409L39.2719 24.6026C39.4197 24.4555 39.6589 24.4555 39.8067 24.602C39.9538 24.7492 39.9538 24.9884 39.8067 25.1356L38.4023 26.5412C38.3311 26.6117 38.2348 26.6518 38.1343 26.6518Z" fill="black"/>
</g>
<path d="M27.4905 39.8091C25.491 39.8091 22.779 38.2575 20.6281 36.5319C16.7588 33.427 13.7592 29.1438 15.5129 26.9642L16.769 25.5029C17.0872 25.1333 17.6488 25.0896 18.0203 25.4078L21.5074 28.3979C21.6874 28.5516 21.7969 28.7669 21.8142 29.0032C21.8328 29.2389 21.7574 29.4674 21.6031 29.6468L20.5833 30.8335C20.487 30.9453 20.5324 31.1559 20.5875 31.3132C21.0032 32.4939 23.1863 34.3655 24.4179 34.5963C24.5824 34.628 24.7971 34.6406 24.8934 34.5288L25.9138 33.3421C26.2326 32.9718 26.7931 32.9288 27.1651 33.247L30.6522 36.2364C30.8323 36.3907 30.9417 36.6055 30.9591 36.8417C30.9776 37.078 30.9023 37.3065 30.7479 37.4859L29.4996 38.9376C29.0068 39.5495 28.3076 39.8091 27.4905 39.8091ZM17.4425 25.9485C17.4048 25.9485 17.3683 25.9641 17.342 25.9946L16.0943 27.4457C14.7264 29.1468 17.5633 33.1052 21.1019 35.9439C23.9807 38.2539 27.655 40.0238 28.9183 38.4555L30.1743 36.9949C30.206 36.959 30.2078 36.9195 30.2066 36.8986C30.2048 36.8782 30.1965 36.8399 30.1606 36.8088L26.6735 33.8194C26.6172 33.7721 26.5341 33.7787 26.4868 33.8331L25.4664 35.0198C25.2834 35.2322 24.9323 35.4606 24.2779 35.338C22.7706 35.0551 20.3835 33.0089 19.8751 31.5632C19.655 30.9394 19.8272 30.5548 20.0097 30.3418L21.0295 29.1563C21.0612 29.1198 21.063 29.0804 21.0618 29.06C21.06 29.0397 21.0516 29.0008 21.0157 28.9703L17.5286 25.9802C17.5035 25.9593 17.473 25.9485 17.4425 25.9485Z" fill="black"/>
<path d="M29.4983 38.7434C29.4086 38.7434 29.3206 38.7117 29.2524 38.6525L24.9914 34.9997C24.9148 34.9351 24.8681 34.8424 24.8604 34.7425C24.8532 34.6426 24.8855 34.5439 24.9501 34.468L25.9179 33.3435C26.2367 32.9732 26.7971 32.9302 27.1691 33.2484L30.6563 36.2384C30.8357 36.3916 30.9452 36.6063 30.9631 36.8425C30.9816 37.0782 30.9063 37.3079 30.752 37.4873L29.7848 38.6118C29.7196 38.6884 29.6269 38.735 29.527 38.7428C29.5174 38.7434 29.5078 38.7434 29.4983 38.7434ZM25.7695 34.6731L29.4576 37.8348L30.1784 36.9963C30.2101 36.9604 30.2118 36.9203 30.2107 36.9C30.2089 36.8796 30.2005 36.8413 30.1646 36.8108L26.6775 33.8208C26.6213 33.7735 26.5381 33.7795 26.4909 33.8351L25.7695 34.6731Z" fill="black"/>
<path d="M20.3498 30.904C20.2601 30.904 20.1728 30.8717 20.104 30.8124L15.8429 27.1603C15.7664 27.0951 15.7197 27.0023 15.7119 26.9025C15.7047 26.8026 15.737 26.7045 15.8022 26.6285L16.7694 25.5034C17.0876 25.1338 17.6493 25.0901 18.0207 25.4083L21.5078 28.3984C21.6879 28.5521 21.7973 28.7674 21.8147 29.0037C21.8332 29.2394 21.7578 29.4678 21.6035 29.6473L20.6369 30.7724C20.5711 30.8483 20.4784 30.895 20.3785 30.9028C20.369 30.9034 20.3594 30.904 20.3498 30.904ZM16.6211 26.8337L20.3092 29.9948L21.0299 29.1568C21.0616 29.1203 21.0634 29.0809 21.0622 29.0605C21.0604 29.0402 21.052 29.0013 21.0162 28.9708L17.529 25.9807C17.4734 25.9341 17.3897 25.9395 17.3424 25.9951L16.6211 26.8337Z" fill="black"/>
</svg>
