<svg width="526" height="509" viewBox="0 0 526 509" fill="none" xmlns="http://www.w3.org/2000/svg">
<g clip-path="url(#clip0_5_524)">
<path d="M63.8281 456.991C64.0658 459.326 65.167 461.487 66.9159 463.052C68.6648 464.617 70.9351 465.472 73.2817 465.45H452.572C454.824 465.474 457.01 464.687 458.73 463.233C460.451 461.779 461.591 459.755 461.942 457.53C462.509 454.213 462.081 337.812 462.081 337.812H64.2013L63.8281 456.991Z" fill="#D4D8FF"/>
<path d="M452.569 342.637H73.279C64.0465 342.637 60.2458 333.115 67.7506 328.816L109.103 305.1C115.643 301.429 123.026 299.523 130.526 299.571H395.309C402.808 299.523 410.191 301.429 416.731 305.1L458.083 328.816C465.602 333.073 461.801 342.637 452.569 342.637Z" fill="#5459BF"/>
<path d="M448.205 374.136H72.7848C72.6015 374.136 72.4258 374.063 72.2962 373.934C72.1666 373.804 72.0938 373.628 72.0938 373.445C72.0938 373.262 72.1666 373.086 72.2962 372.956C72.4258 372.827 72.6015 372.754 72.7848 372.754H448.205C448.388 372.754 448.564 372.827 448.694 372.956C448.823 373.086 448.896 373.262 448.896 373.445C448.896 373.628 448.823 373.804 448.694 373.934C448.564 374.063 448.388 374.136 448.205 374.136Z" fill="black"/>
<path d="M421.414 465.451C425.975 479.991 428.836 487.966 435.677 487.966C442.519 487.966 448.199 465.451 448.199 465.451H421.414Z" fill="#FF6145"/>
<path d="M77.7969 465.451C82.3578 479.991 85.2188 487.966 92.0602 487.966C98.9016 487.966 104.61 465.451 104.61 465.451H77.7969Z" fill="#FF6145"/>
<path d="M34.232 390.651C34.0831 390.649 33.9386 390.6 33.8194 390.51C33.7002 390.421 33.6124 390.296 33.5686 390.153L13.9843 323.522C13.9569 323.435 13.9474 323.344 13.9564 323.253C13.9654 323.162 13.9927 323.074 14.0366 322.994C14.0804 322.914 14.1401 322.843 14.2118 322.787C14.2836 322.731 14.366 322.689 14.4542 322.665C14.6283 322.614 14.8158 322.632 14.9762 322.718C15.1366 322.803 15.2569 322.948 15.3111 323.122L34.9507 389.739C35.0021 389.915 34.9814 390.104 34.8932 390.265C34.8051 390.425 34.6568 390.544 34.4808 390.596L34.232 390.651Z" fill="black"/>
<path d="M58.6405 390.65C58.5498 390.647 58.4606 390.625 58.3781 390.587C58.2956 390.549 58.2214 390.495 58.1598 390.428C58.0982 390.362 58.0504 390.283 58.019 390.198C57.9877 390.113 57.9734 390.022 57.9771 389.931L62.5933 288.195C62.5933 288.012 62.6662 287.836 62.7958 287.706C62.9254 287.577 63.1011 287.504 63.2844 287.504C63.4677 287.504 63.6435 287.577 63.773 287.706C63.9026 287.836 63.9755 288.012 63.9755 288.195L59.3178 389.931C59.3215 390.023 59.3068 390.115 59.2746 390.201C59.2424 390.287 59.1933 390.366 59.1302 390.433C59.0671 390.5 58.9913 390.554 58.9073 390.591C58.8232 390.628 58.7325 390.648 58.6405 390.65Z" fill="black"/>
<path d="M47.4962 389.227C47.32 389.224 47.1517 389.154 47.0258 389.03C46.9 388.907 46.8259 388.74 46.8189 388.564L44.8287 341.476C44.825 341.385 44.8392 341.294 44.8706 341.209C44.9019 341.124 44.9498 341.046 45.0114 340.979C45.073 340.912 45.1472 340.858 45.2297 340.82C45.3122 340.782 45.4013 340.761 45.4921 340.757C45.5822 340.752 45.6725 340.764 45.7577 340.794C45.8429 340.824 45.9212 340.87 45.9882 340.931C46.0551 340.991 46.1093 341.065 46.1476 341.146C46.1858 341.228 46.2073 341.317 46.2108 341.407L48.1872 388.509C48.1928 388.599 48.1803 388.689 48.1505 388.774C48.1207 388.86 48.0742 388.938 48.0137 389.005C47.9532 389.072 47.8799 389.126 47.7981 389.164C47.7164 389.202 47.6278 389.224 47.5376 389.227H47.4962Z" fill="black"/>
<path d="M14.6481 334.702C20.9302 334.702 26.0228 329.61 26.0228 323.328C26.0228 317.046 20.9302 311.953 14.6481 311.953C8.36606 311.953 3.27344 317.046 3.27344 323.328C3.27344 329.61 8.36606 334.702 14.6481 334.702Z" fill="#7886FF"/>
<path d="M65.7877 394.659H65.5942C65.4208 394.605 65.2758 394.484 65.1904 394.324C65.105 394.164 65.0863 393.976 65.1381 393.802L84.7087 327.143C84.76 326.96 84.882 326.805 85.0479 326.711C85.2138 326.618 85.41 326.594 85.5932 326.646C85.7765 326.697 85.9319 326.819 86.0252 326.985C86.1185 327.151 86.1421 327.347 86.0908 327.53L66.4511 394.161C66.4113 394.306 66.3246 394.433 66.2045 394.524C66.0844 394.614 65.9378 394.661 65.7877 394.659Z" fill="black"/>
<path d="M87.2321 338.567C93.433 337.56 97.6439 331.717 96.6374 325.516C95.6308 319.315 89.788 315.105 83.5871 316.111C77.3862 317.118 73.1753 322.96 74.1819 329.161C75.1884 335.362 81.0312 339.573 87.2321 338.567Z" fill="#CF4192"/>
<path d="M56.5977 344.046C58.0407 337.932 54.2541 331.806 48.14 330.362C42.0259 328.919 35.8997 332.706 34.4566 338.82C33.0136 344.934 36.8002 351.06 42.9142 352.503C49.0283 353.947 55.1546 350.16 56.5977 344.046Z" fill="#38AB9B"/>
<path d="M74.6255 289.161C75.1435 282.9 70.4881 277.405 64.2275 276.887C57.9668 276.369 52.4716 281.024 51.9536 287.285C51.4356 293.546 56.0909 299.041 62.3516 299.559C68.6122 300.077 74.1075 295.422 74.6255 289.161Z" fill="#FFBA3C"/>
<path d="M76.5269 396.649L80.4936 385.592H15.2308L20.0266 396.331C7.90561 399.689 0 407.125 0 423.13H95.2959C95.2959 407.705 87.9293 400.187 76.5269 396.649Z" fill="#FFBA3C"/>
<path d="M71.04 507.866C71.04 507.866 95.2959 443.363 95.2959 423.102H0C0 443.363 24.2559 507.866 24.2559 507.866H71.04Z" fill="#38AB9B"/>
<path d="M36.3331 508.6C36.1711 508.602 36.0137 508.546 35.8894 508.442C35.7652 508.338 35.6823 508.193 35.6559 508.033L19.3471 422.592C19.3145 422.411 19.3541 422.224 19.4574 422.072C19.5607 421.919 19.7195 421.813 19.8999 421.777C20.0795 421.744 20.2645 421.784 20.4146 421.888C20.5648 421.991 20.6679 422.15 20.7015 422.329L37.038 507.743C37.0703 507.923 37.0303 508.108 36.9267 508.258C36.8232 508.408 36.6644 508.511 36.4851 508.545L36.3331 508.6Z" fill="black"/>
<path d="M56.9126 508.599H56.7744C56.6846 508.583 56.599 508.548 56.5228 508.498C56.4466 508.447 56.3814 508.382 56.331 508.306C56.2807 508.23 56.2462 508.144 56.2298 508.055C56.2134 507.965 56.2153 507.873 56.2354 507.783L73.9954 422.909C74.0339 422.725 74.1436 422.565 74.3004 422.463C74.4572 422.36 74.6483 422.324 74.8316 422.363C75.0148 422.401 75.1753 422.511 75.2777 422.668C75.3801 422.825 75.416 423.016 75.3775 423.199L57.6175 507.949C57.6068 508.128 57.5274 508.295 57.396 508.416C57.2646 508.537 57.0913 508.603 56.9126 508.599Z" fill="black"/>
<path d="M61.0645 398.888H34.2379C34.0546 398.888 33.8789 398.815 33.7493 398.686C33.6197 398.556 33.5469 398.38 33.5469 398.197C33.5469 398.014 33.6197 397.838 33.7493 397.708C33.8789 397.579 34.0546 397.506 34.2379 397.506H61.0645C61.2478 397.506 61.4235 397.579 61.5531 397.708C61.6827 397.838 61.7556 398.014 61.7556 398.197C61.7556 398.38 61.6827 398.556 61.5531 398.686C61.4235 398.815 61.2478 398.888 61.0645 398.888Z" fill="black"/>
<path d="M46.5192 508.598C46.3359 508.598 46.1601 508.525 46.0305 508.396C45.9009 508.266 45.8281 508.09 45.8281 507.907V423.101C45.8281 422.918 45.9009 422.742 46.0305 422.613C46.1601 422.483 46.3359 422.41 46.5192 422.41C46.7025 422.41 46.8782 422.483 47.0078 422.613C47.1374 422.742 47.2102 422.918 47.2102 423.101V507.865C47.2159 507.96 47.2022 508.054 47.17 508.143C47.1378 508.231 47.0878 508.312 47.0231 508.381C46.9583 508.45 46.8802 508.504 46.7936 508.542C46.7069 508.579 46.6135 508.598 46.5192 508.598Z" fill="black"/>
<path d="M452.844 415.17C452.835 409.513 454.463 403.974 457.529 399.22C459.299 396.537 460.383 393.459 460.684 390.259C460.985 387.058 460.495 383.832 459.257 380.866C457.688 377.148 457.038 373.107 457.36 369.085C457.682 365.063 458.968 361.178 461.109 357.757C462.888 355.058 463.949 351.949 464.191 348.725C464.433 345.501 463.848 342.268 462.491 339.334C460.929 336.127 460.17 332.588 460.279 329.023C460.322 326.113 460.938 323.239 462.091 320.567C463.244 317.894 464.912 315.475 467 313.447C469.088 311.42 471.555 309.823 474.261 308.749C476.966 307.674 479.856 307.143 482.766 307.186C485.677 307.229 488.55 307.844 491.223 308.997C493.895 310.15 496.314 311.819 498.342 313.907C500.37 315.995 501.966 318.462 503.041 321.167C504.115 323.872 504.646 326.762 504.603 329.673C504.609 333.024 503.853 336.332 502.392 339.347C500.968 342.13 500.305 345.24 500.471 348.361C500.636 351.482 501.623 354.504 503.332 357.121C505.652 360.584 507.075 364.57 507.473 368.72C507.871 372.869 507.232 377.052 505.612 380.893C504.368 383.857 503.871 387.08 504.165 390.281C504.459 393.482 505.535 396.561 507.299 399.248C510.365 404.001 511.992 409.54 511.984 415.197L452.844 415.17Z" fill="#38AB9B"/>
<path d="M482.394 417.379C482.211 417.379 482.035 417.307 481.906 417.177C481.776 417.047 481.703 416.872 481.703 416.688V326.976C481.703 326.793 481.776 326.617 481.906 326.488C482.035 326.358 482.211 326.285 482.394 326.285C482.577 326.285 482.753 326.358 482.883 326.488C483.012 326.617 483.085 326.793 483.085 326.976V416.73C483.075 416.906 482.997 417.071 482.869 417.192C482.74 417.313 482.57 417.38 482.394 417.379Z" fill="black"/>
<path d="M482.399 352.325C482.303 352.326 482.208 352.306 482.12 352.268C482.032 352.23 481.952 352.174 481.887 352.104L470.043 339.402C469.915 339.271 469.844 339.095 469.844 338.912C469.844 338.729 469.915 338.553 470.043 338.421C470.107 338.356 470.183 338.305 470.267 338.27C470.352 338.235 470.442 338.217 470.533 338.217C470.624 338.217 470.715 338.235 470.799 338.27C470.883 338.305 470.96 338.356 471.024 338.421L482.868 351.123C482.996 351.254 483.067 351.43 483.067 351.613C483.067 351.797 482.996 351.972 482.868 352.104C482.747 352.236 482.578 352.315 482.399 352.325Z" fill="black"/>
<path d="M482.398 393.593C482.206 393.588 482.023 393.509 481.887 393.372L470.042 380.657C469.918 380.521 469.852 380.341 469.86 380.157C469.868 379.973 469.948 379.8 470.084 379.675C470.22 379.551 470.399 379.485 470.583 379.493C470.767 379.501 470.941 379.581 471.065 379.717L482.91 392.432C483.036 392.561 483.107 392.735 483.107 392.916C483.107 393.097 483.036 393.27 482.91 393.4C482.842 393.464 482.761 393.515 482.674 393.548C482.586 393.581 482.492 393.597 482.398 393.593Z" fill="black"/>
<path d="M482.395 352.325C482.222 352.326 482.054 352.262 481.925 352.145C481.798 352.013 481.727 351.838 481.727 351.654C481.727 351.471 481.798 351.295 481.925 351.164L493.77 338.462C493.834 338.397 493.911 338.346 493.995 338.311C494.079 338.276 494.169 338.258 494.261 338.258C494.352 338.258 494.442 338.276 494.526 338.311C494.611 338.346 494.687 338.397 494.751 338.462C494.879 338.594 494.95 338.77 494.95 338.953C494.95 339.136 494.879 339.312 494.751 339.443L482.907 352.145C482.838 352.208 482.757 352.256 482.669 352.287C482.581 352.318 482.488 352.331 482.395 352.325Z" fill="black"/>
<path d="M482.394 393.593C482.219 393.589 482.051 393.52 481.924 393.4C481.797 393.27 481.727 393.097 481.727 392.916C481.727 392.735 481.797 392.561 481.924 392.432L493.769 379.717C493.893 379.581 494.067 379.501 494.251 379.493C494.435 379.485 494.614 379.551 494.75 379.675C494.886 379.8 494.966 379.973 494.974 380.157C494.982 380.341 494.916 380.521 494.791 380.657L482.947 393.372C482.875 393.445 482.789 393.502 482.693 393.54C482.598 393.578 482.496 393.596 482.394 393.593Z" fill="black"/>
<path d="M520.75 431.2L520.529 431.518C517.74 435.359 516.238 439.984 516.238 444.731C516.238 449.478 517.74 454.103 520.529 457.944C524.057 462.655 525.993 468.367 526.057 474.252C526.057 492.786 506.597 507.824 482.576 507.824C458.556 507.824 439.109 492.786 439.109 474.252C439.149 468.374 441.061 462.661 444.569 457.944C447.364 454.105 448.87 449.479 448.87 444.731C448.87 439.982 447.364 435.356 444.569 431.518L444.348 431.2C443.302 429.656 442.698 427.857 442.599 425.995C442.5 424.134 442.91 422.28 443.785 420.634C444.661 418.988 445.969 417.612 447.568 416.654C449.167 415.696 450.997 415.191 452.861 415.195H512.292C514.153 415.197 515.979 415.705 517.573 416.667C519.167 417.628 520.469 419.006 521.339 420.651C522.209 422.297 522.613 424.149 522.51 426.007C522.406 427.866 521.798 429.661 520.75 431.2Z" fill="#7886FF"/>
<path d="M505.093 449.17C501.942 449.17 500.338 447.235 498.915 445.535C497.491 443.835 496.303 442.398 493.801 442.398C491.299 442.398 490.097 443.849 488.687 445.535C487.278 447.221 485.66 449.17 482.523 449.17C479.386 449.17 477.769 447.235 476.345 445.535C474.922 443.835 473.733 442.398 471.231 442.398C468.73 442.398 467.527 443.849 466.118 445.535C464.708 447.221 463.091 449.17 459.953 449.17C456.816 449.17 455.199 447.235 453.775 445.535C452.352 443.835 451.163 442.398 448.675 442.398C448.492 442.398 448.316 442.325 448.187 442.195C448.057 442.066 447.984 441.89 447.984 441.707C447.984 441.523 448.057 441.348 448.187 441.218C448.316 441.088 448.492 441.016 448.675 441.016C451.813 441.016 453.43 442.951 454.84 444.651C456.249 446.351 457.452 447.788 459.953 447.788C462.455 447.788 463.657 446.337 465.067 444.651C466.477 442.964 468.094 441.016 471.231 441.016C474.369 441.016 475.986 442.951 477.409 444.651C478.833 446.351 479.994 447.788 482.523 447.788C485.052 447.788 486.227 446.337 487.637 444.651C489.047 442.964 490.664 441.016 493.801 441.016C496.938 441.016 498.555 442.951 499.979 444.651C501.403 446.351 502.591 447.788 505.093 447.788C507.594 447.788 508.811 446.337 510.207 444.651C511.602 442.964 513.233 441.016 516.385 441.016C516.568 441.016 516.744 441.088 516.873 441.218C517.003 441.348 517.076 441.523 517.076 441.707C517.076 441.89 517.003 442.066 516.873 442.195C516.744 442.325 516.568 442.398 516.385 442.398C513.883 442.398 512.667 443.849 511.271 445.535C509.875 447.221 508.244 449.17 505.093 449.17Z" fill="black"/>
<path d="M376.148 147.775C357.932 128.425 346.751 114.936 352.846 89.3672C362.382 49.383 341.457 13.172 301.003 23.6898C263.438 7.10454 248.29 37.3587 263.286 54.096C258.061 67.5162 256.61 72.8096 260.522 90.5143C266.216 115.959 238.505 115.033 239.61 147.706C240.992 190.33 256.279 191.753 251.676 233.907L390.992 237.363C390.992 237.363 406.734 180.296 376.148 147.775Z" fill="#101229"/>
<path d="M272.398 111.052C258.024 106.905 248.681 117.893 245.226 133.345C241.77 148.797 242.061 198.746 242.061 198.746L274.872 220.044C274.872 220.044 289.398 115.917 272.398 111.052Z" fill="white"/>
<path d="M285.028 359.887C300.121 360.633 299.692 285.834 288.912 285.088C278.131 284.341 272.022 359.237 285.028 359.887Z" fill="#101229"/>
<path d="M266.98 288.21H302.293C310.295 287.436 313.239 294.885 317.828 301.506C334.261 325.278 345.677 357.757 345.677 357.757C346.152 358.517 346.406 359.393 346.414 360.288C346.421 361.184 346.18 362.064 345.718 362.831C345.255 363.598 344.59 364.222 343.795 364.634C343 365.046 342.106 365.23 341.213 365.165C336.003 364.806 331.303 361.392 322.997 355.629L263 351.607L266.98 288.21Z" fill="#F4A65B"/>
<path d="M290.1 353.402L288.276 348.233L317.88 330.473L276.68 347.32L276.928 352.531L290.1 353.402Z" fill="#101229"/>
<path d="M341.215 365.108C336.005 364.763 331.306 361.335 323.013 355.558C325.777 342.677 308.183 303.246 291.75 288.181H302.282C310.298 287.407 313.256 294.856 317.816 301.476C334.277 325.249 345.68 357.728 345.68 357.728C346.152 358.486 346.404 359.36 346.41 360.253C346.416 361.146 346.174 362.024 345.712 362.788C345.25 363.552 344.585 364.173 343.791 364.583C342.998 364.992 342.106 365.174 341.215 365.108Z" fill="#FFBA3C"/>
<path d="M345.745 231.807L277.041 230.176C277.041 230.176 273.365 238.081 255.508 243.361C228.336 247.12 177.184 245.199 149.224 262.379C134.934 271.155 126.959 283.235 125.093 295.038C121.79 336.915 161.332 351.58 183.625 353.915C219.104 357.619 271.651 359.706 285.03 359.886C276.461 359.25 281.229 306.675 281.229 306.675C302.831 303.261 335.78 244.024 345.745 231.807Z" fill="#7886FF"/>
<path d="M192.829 290.394C192.679 290.397 192.533 290.348 192.414 290.256C191.889 289.882 187.314 286.496 187.149 283.953C187.122 283.652 187.163 283.349 187.271 283.066C187.379 282.783 187.55 282.529 187.771 282.322C188.014 282.08 188.311 281.899 188.638 281.794C188.964 281.688 189.311 281.661 189.65 281.714C191.765 282.074 193.617 285.556 193.797 285.943C193.879 286.109 193.894 286.3 193.837 286.475C193.78 286.651 193.656 286.798 193.492 286.883C193.329 286.965 193.14 286.979 192.967 286.922C192.793 286.865 192.649 286.742 192.566 286.579C191.917 285.321 190.479 283.262 189.401 283.082C189.272 283.06 189.14 283.071 189.016 283.114C188.893 283.158 188.783 283.233 188.697 283.331C188.622 283.398 188.564 283.482 188.528 283.576C188.492 283.67 188.479 283.77 188.489 283.87C188.586 285.252 191.253 287.685 193.009 289.012L266.965 287.464C267.148 287.464 267.324 287.537 267.454 287.666C267.583 287.796 267.656 287.972 267.656 288.155C267.656 288.338 267.583 288.514 267.454 288.643C267.324 288.773 267.148 288.846 266.965 288.846L192.815 290.338L192.829 290.394Z" fill="black"/>
<path d="M138.315 461.042C136.158 464.912 206.037 469.335 209.202 463.806C212.202 458.527 141.797 454.698 138.315 461.042Z" fill="#101229"/>
<path d="M148.524 453.08C149.505 453.08 134.703 486.126 134.703 486.126C128.511 489.526 126.41 488.794 118.118 492.332C106.176 497.39 107.614 505.669 111.871 506.899C121.075 509.58 167.514 506.042 179.829 503.955C193.442 501.647 197.284 491.945 197.561 482.519L210.843 453.965L148.524 453.08Z" fill="#F4A65B"/>
<path d="M197.576 482.52C197.3 491.945 193.43 501.648 179.844 503.956C167.53 506.043 121.091 509.581 111.886 506.9C107.629 505.67 106.192 497.391 118.133 492.332C126.426 488.794 128.485 489.568 134.719 486.127C140.51 490.909 197.576 482.52 197.576 482.52Z" fill="#FFBA3C"/>
<path d="M143.656 463.183L203.695 469.361L210.854 453.964L148.521 453.094L143.656 463.183Z" fill="#101229"/>
<path d="M209.204 463.804L231.318 365.882L342.522 320.397C374.642 303.453 357.725 252.287 345.77 231.805C345.77 231.805 221.615 293.363 200.248 306.176C192.26 310.654 185.266 314.717 183.843 316.735C172.592 332.587 138.344 461.04 138.344 461.04C139.988 457.764 211.706 459.409 209.204 463.804Z" fill="#7886FF"/>
<path d="M186.988 462.769H186.85C186.761 462.751 186.676 462.716 186.601 462.665C186.526 462.614 186.462 462.549 186.411 462.473C186.361 462.398 186.327 462.313 186.309 462.224C186.292 462.134 186.293 462.043 186.311 461.954C187.14 457.932 206.02 365.691 209.309 355.988C208.051 355.256 205.163 353.362 204.817 351.33C204.749 350.957 204.771 350.573 204.882 350.21C204.992 349.847 205.188 349.515 205.453 349.244C205.71 348.949 206.029 348.715 206.388 348.56C206.747 348.405 207.135 348.331 207.526 348.345C208.284 348.396 209.019 348.628 209.668 349.022C209.155 348.077 208.974 346.987 209.157 345.926C209.253 345.598 209.429 345.3 209.671 345.058C209.913 344.817 210.211 344.64 210.539 344.544C213.607 343.618 215.943 347.474 216.745 349.022C225.037 345.622 315.745 308.472 332.772 300.511C334.666 299.64 336.393 297.083 337.665 293.31C341.811 280.954 340.609 257.983 330.146 238.026C330.103 237.946 330.077 237.859 330.068 237.769C330.059 237.679 330.069 237.588 330.096 237.502C330.123 237.415 330.167 237.335 330.225 237.266C330.284 237.197 330.356 237.141 330.436 237.1C330.598 237.017 330.786 237.001 330.959 237.055C331.132 237.109 331.277 237.23 331.362 237.39C342.005 257.707 343.248 281.134 338.978 293.78C337.596 297.926 335.619 300.69 333.366 301.796C315.565 310.089 217.657 350.17 216.662 350.57C216.58 350.606 216.492 350.626 216.403 350.627C216.314 350.629 216.226 350.612 216.143 350.578C216.061 350.545 215.986 350.495 215.923 350.432C215.86 350.369 215.81 350.294 215.777 350.211C215.777 350.211 213.455 345.125 210.94 345.899C210.581 345.996 210.484 346.175 210.442 346.327C210.083 347.488 211.824 350.474 213.207 352.16C213.32 352.303 213.371 352.485 213.351 352.666C213.33 352.848 213.238 353.013 213.096 353.127C212.954 353.242 212.774 353.296 212.592 353.278C212.411 353.26 212.245 353.171 212.129 353.03C211.382 352.118 209.06 349.755 207.402 349.713C207.21 349.698 207.018 349.73 206.841 349.807C206.665 349.884 206.511 350.004 206.393 350.156C206.272 350.272 206.182 350.416 206.129 350.574C206.076 350.733 206.062 350.903 206.089 351.068C206.338 352.45 208.853 354.233 210.401 355.048C210.56 355.131 210.681 355.273 210.738 355.443C210.794 355.613 210.783 355.799 210.705 355.961C208.3 360.991 187.79 461.208 187.582 462.216C187.554 462.36 187.482 462.49 187.375 462.589C187.268 462.689 187.133 462.752 186.988 462.769Z" fill="black"/>
<path d="M170.406 351.467H170.226C170.049 351.416 169.9 351.297 169.81 351.137C169.719 350.977 169.695 350.788 169.742 350.61C170.088 349.394 178.187 320.688 183.411 316.237C188.645 312.292 194.161 308.735 199.913 305.595C219.373 293.93 260.187 273.807 266.904 270.559L258.349 263.206C258.28 263.148 258.223 263.076 258.182 262.996C258.141 262.915 258.117 262.827 258.11 262.737C258.104 262.647 258.115 262.556 258.144 262.471C258.174 262.385 258.22 262.306 258.28 262.239C258.398 262.1 258.565 262.014 258.746 261.999C258.927 261.983 259.107 262.04 259.247 262.156L268.604 270.2C268.691 270.273 268.758 270.367 268.799 270.473C268.84 270.58 268.854 270.695 268.839 270.808C268.822 270.922 268.779 271.031 268.711 271.125C268.644 271.218 268.555 271.295 268.452 271.347C267.982 271.568 221.709 294.151 200.618 306.784C194.931 309.879 189.48 313.39 184.31 317.288C179.403 321.434 171.152 350.693 171.069 350.983C171.025 351.124 170.936 351.247 170.817 351.334C170.698 351.421 170.553 351.468 170.406 351.467Z" fill="black"/>
<path d="M210.85 454.699C210.763 454.718 210.674 454.718 210.587 454.699C202.53 451.313 164.287 445.646 141.137 452.045C140.953 452.095 140.758 452.069 140.593 451.975C140.429 451.88 140.309 451.724 140.259 451.541C140.21 451.357 140.235 451.162 140.33 450.997C140.424 450.833 140.58 450.713 140.764 450.663C164.259 444.195 202.958 449.944 211.126 453.427C211.31 453.464 211.471 453.572 211.575 453.727C211.678 453.883 211.716 454.073 211.679 454.257C211.643 454.44 211.535 454.601 211.379 454.705C211.224 454.808 211.033 454.846 210.85 454.809V454.699Z" fill="black"/>
<path d="M249.183 359.07C249.045 359.071 248.909 359.03 248.794 358.954C248.678 358.878 248.588 358.769 248.534 358.642C248.5 358.557 248.483 358.467 248.484 358.376C248.486 358.286 248.505 358.196 248.541 358.112C248.577 358.029 248.629 357.953 248.694 357.89C248.759 357.827 248.836 357.777 248.921 357.744L279.949 345.042C280.121 344.974 280.314 344.976 280.484 345.048C280.655 345.121 280.79 345.257 280.861 345.429C280.895 345.513 280.911 345.604 280.91 345.694C280.909 345.785 280.89 345.875 280.854 345.958C280.818 346.042 280.766 346.117 280.701 346.181C280.635 346.244 280.558 346.294 280.474 346.327L249.446 359.015C249.363 359.052 249.274 359.071 249.183 359.07Z" fill="black"/>
<path d="M269.749 360.135C269.635 360.135 269.523 360.108 269.422 360.055C269.32 360.002 269.234 359.925 269.169 359.831C267.262 356.984 267.123 351.041 267.11 350.792C267.108 350.701 267.124 350.611 267.157 350.527C267.19 350.442 267.239 350.365 267.302 350.299C267.365 350.234 267.44 350.182 267.523 350.145C267.606 350.109 267.696 350.089 267.787 350.087C267.877 350.082 267.968 350.095 268.053 350.125C268.139 350.156 268.217 350.204 268.283 350.266C268.349 350.328 268.402 350.404 268.437 350.487C268.473 350.57 268.492 350.66 268.492 350.751C268.492 350.751 268.644 356.555 270.316 359.043C270.416 359.196 270.452 359.381 270.416 359.56C270.379 359.739 270.274 359.896 270.122 359.997C270.016 360.082 269.885 360.13 269.749 360.135Z" fill="black"/>
<path d="M333.1 301.864C332.941 301.862 332.788 301.806 332.665 301.706C332.542 301.605 332.457 301.466 332.423 301.312C332.423 301.173 329.05 286.744 309.314 279.267C309.142 279.201 309.003 279.069 308.928 278.901C308.852 278.732 308.847 278.541 308.913 278.369C308.979 278.196 309.111 278.057 309.279 277.982C309.448 277.907 309.639 277.902 309.812 277.968C330.28 285.721 333.653 300.399 333.777 301.021C333.797 301.109 333.8 301.201 333.784 301.29C333.769 301.379 333.735 301.464 333.687 301.54C333.638 301.616 333.574 301.681 333.499 301.732C333.425 301.783 333.341 301.819 333.252 301.837L333.1 301.864Z" fill="black"/>
<path d="M316.083 248.362C290.224 248.362 271.745 241.535 270.156 234.113C270.117 233.93 270.153 233.739 270.255 233.582C270.358 233.425 270.518 233.315 270.702 233.277C270.885 233.238 271.076 233.274 271.233 233.377C271.39 233.479 271.499 233.639 271.538 233.823C273.431 242.613 306.906 252.453 349.627 243.359C349.807 243.326 349.994 243.363 350.149 243.463C350.303 243.564 350.413 243.719 350.456 243.898C350.474 243.987 350.474 244.079 350.457 244.168C350.44 244.257 350.405 244.342 350.355 244.418C350.305 244.493 350.241 244.558 350.165 244.609C350.09 244.66 350.006 244.696 349.917 244.714C338.798 247.11 327.457 248.333 316.083 248.362Z" fill="black"/>
<path d="M274.612 259.323C274.479 259.327 274.348 259.289 274.238 259.213C274.085 259.114 273.977 258.958 273.938 258.779C273.899 258.6 273.932 258.413 274.031 258.259L283.236 244.01C283.339 243.866 283.494 243.768 283.668 243.735C283.842 243.702 284.021 243.737 284.17 243.832C284.319 243.928 284.426 244.077 284.468 244.249C284.51 244.421 284.485 244.602 284.397 244.756L275.192 259.006C275.132 259.105 275.046 259.186 274.944 259.242C274.842 259.298 274.728 259.326 274.612 259.323Z" fill="black"/>
<path d="M356.806 258.743C355.839 266.11 287.079 256.103 264.745 242.849C260.764 240.472 271.296 226.153 271.296 226.153C263.819 214.419 252.306 193.135 248.118 171.781C246.39 162.936 248.035 144.581 251.324 126.739C253.232 116.387 263.321 110.582 270.591 110.623C271.102 110.623 271.641 110.623 272.18 110.72C268.656 128.687 276.05 126.517 287.024 131.299C297.998 136.082 323.304 133.953 341.935 125.771C357.926 138.21 351.333 196.742 348.016 224.038C347.104 230.99 357.926 250.271 356.806 258.743Z" fill="white"/>
<path d="M333.021 231.806C327.725 231.749 322.462 230.972 317.375 229.498C317.202 229.444 317.057 229.323 316.972 229.163C316.886 229.003 316.868 228.815 316.919 228.641C316.945 228.554 316.987 228.473 317.044 228.403C317.101 228.333 317.172 228.274 317.252 228.232C317.331 228.189 317.419 228.163 317.509 228.155C317.599 228.147 317.69 228.157 317.776 228.185C317.97 228.185 336.766 233.921 347.505 226.803C347.582 226.752 347.667 226.717 347.757 226.699C347.847 226.681 347.939 226.681 348.029 226.699C348.119 226.717 348.204 226.753 348.28 226.804C348.357 226.855 348.422 226.92 348.473 226.996C348.524 227.072 348.559 227.158 348.577 227.248C348.594 227.338 348.594 227.43 348.576 227.52C348.558 227.61 348.523 227.695 348.472 227.771C348.421 227.848 348.356 227.913 348.279 227.964C343.829 230.908 338.231 231.806 333.021 231.806Z" fill="black"/>
<path d="M342.686 125.757C324.055 133.884 299.689 138.804 288.01 136.261C280.727 134.672 269.421 128.549 272.945 110.651C276.676 111.122 280.436 111.33 284.196 111.273L288.342 92.4485L315.072 91.0664L306.779 109.891C306.779 109.891 318.776 113.291 341.152 124.693C341.703 124.987 342.218 125.344 342.686 125.757Z" fill="#F4A65B"/>
<path d="M288.389 92.5885L284.906 108.234C288.85 108.979 292.922 108.63 296.682 107.225C303.993 104.461 311.567 99.7064 315.119 91.2617L288.389 92.5885Z" fill="black"/>
<path d="M356.809 259.433H356.726C356.544 259.409 356.38 259.314 356.269 259.169C356.157 259.024 356.108 258.84 356.131 258.659C356.698 254.347 354.017 247.022 351.418 239.945C349.069 233.505 346.844 227.423 347.272 223.982C347.296 223.799 347.392 223.632 347.538 223.52C347.684 223.407 347.87 223.357 348.053 223.381C348.236 223.405 348.403 223.5 348.515 223.647C348.628 223.793 348.678 223.978 348.654 224.162C348.267 227.258 350.437 233.187 352.8 239.462C355.454 246.704 358.191 254.195 357.583 258.811C357.574 258.903 357.547 258.993 357.503 259.074C357.459 259.156 357.399 259.228 357.327 259.286C357.255 259.344 357.172 259.387 357.083 259.412C356.994 259.437 356.9 259.444 356.809 259.433Z" fill="black"/>
<path d="M318.517 74.4405C317.84 76.036 317.651 77.7965 317.974 79.4993C318.298 81.2022 319.119 82.7709 320.334 84.007C321.549 85.2431 323.103 86.0911 324.8 86.4437C326.497 86.7964 328.261 86.6378 329.867 85.9881C331.474 85.3384 332.852 84.2267 333.827 82.7937C334.802 81.3606 335.331 79.6706 335.345 77.9374C335.359 76.2042 334.86 74.5056 333.909 73.0566C332.958 71.6075 331.598 70.4731 330.002 69.7967C328.943 69.3459 327.806 69.1085 326.655 69.098C325.504 69.0875 324.363 69.3042 323.296 69.7356C322.229 70.1669 321.258 70.8046 320.438 71.6119C319.618 72.4193 318.965 73.3805 318.517 74.4405Z" fill="#F4A65B"/>
<path d="M323.108 78.0052C323.017 78.0246 322.923 78.0246 322.832 78.0052C322.748 77.9692 322.672 77.9169 322.609 77.8515C322.545 77.786 322.496 77.7087 322.462 77.6239C322.429 77.5391 322.412 77.4486 322.414 77.3575C322.416 77.2664 322.436 77.1765 322.472 77.093C322.991 75.8419 323.985 74.8478 325.236 74.3288C325.86 74.0654 326.529 73.9297 327.206 73.9297C327.883 73.9297 328.552 74.0654 329.175 74.3288C329.262 74.3618 329.342 74.412 329.409 74.4764C329.476 74.5407 329.529 74.618 329.566 74.7035C329.603 74.789 329.621 74.8811 329.622 74.9741C329.622 75.0671 329.603 75.1591 329.567 75.2448C329.531 75.3304 329.477 75.4078 329.41 75.4724C329.343 75.537 329.264 75.5874 329.177 75.6206C329.09 75.6538 328.998 75.6691 328.905 75.6656C328.812 75.6622 328.721 75.64 328.636 75.6004C328.182 75.4067 327.693 75.3046 327.199 75.2998C326.705 75.295 326.215 75.3877 325.757 75.5725C325.299 75.7574 324.881 76.0308 324.529 76.377C324.176 76.7233 323.895 77.1357 323.702 77.5906C323.65 77.707 323.567 77.8071 323.463 77.8801C323.358 77.9532 323.235 77.9964 323.108 78.0052Z" fill="black"/>
<path d="M326.428 82.4414C326.341 82.461 326.252 82.461 326.165 82.4414C325.997 82.3711 325.864 82.2372 325.794 82.069C325.724 81.9007 325.723 81.7117 325.792 81.543C326.911 78.7788 324.59 75.6138 324.576 75.5861C324.521 75.5135 324.482 75.4309 324.459 75.343C324.437 75.2551 324.432 75.1636 324.444 75.0738C324.457 74.984 324.488 74.8975 324.534 74.8194C324.58 74.7414 324.641 74.6731 324.714 74.6187C324.787 74.5642 324.869 74.5246 324.957 74.5021C325.045 74.4796 325.136 74.4746 325.226 74.4874C325.316 74.5002 325.403 74.5307 325.481 74.5769C325.559 74.6231 325.627 74.6843 325.681 74.7569C325.792 74.9089 328.446 78.5853 327.064 82.0682C327.005 82.1852 326.914 82.2826 326.801 82.3489C326.688 82.4151 326.558 82.4472 326.428 82.4414Z" fill="black"/>
<path d="M267.749 66.1891C264.888 84.1564 272.407 100.313 289.711 103.077C307.015 105.842 319.191 92.836 322.066 74.8687C324.941 56.9014 317.408 40.7446 300.104 37.9804C282.8 35.2162 270.624 48.2218 267.749 66.1891Z" fill="#F4A65B"/>
<path d="M305.565 63.9481C305.972 63.9572 306.366 63.8044 306.66 63.5232C306.954 63.2419 307.125 62.8554 307.134 62.4485C307.143 62.0416 306.99 61.6478 306.709 61.3536C306.428 61.0594 306.041 60.889 305.634 60.8798L301.253 60.7969C300.846 60.7969 300.456 60.9585 300.168 61.2462C299.88 61.5339 299.719 61.9241 299.719 62.331C299.719 62.7379 299.88 63.1281 300.168 63.4158C300.456 63.7035 300.846 63.8651 301.253 63.8651L305.565 63.9481Z" fill="black"/>
<path d="M273.586 60.0248C273.384 59.9736 273.195 59.882 273.031 59.7557C272.866 59.6293 272.728 59.4708 272.626 59.2897C272.525 59.1087 272.461 58.9088 272.439 58.7023C272.416 58.4958 272.436 58.2869 272.497 58.0883C272.558 57.8898 272.659 57.7056 272.793 57.547C272.927 57.3885 273.092 57.2588 273.278 57.1659C273.463 57.073 273.666 57.0188 273.873 57.0066C274.081 56.9943 274.288 57.0243 274.484 57.0947L278.63 58.3801C279.001 58.5137 279.306 58.7848 279.482 59.1372C279.659 59.4896 279.692 59.8964 279.577 60.2731C279.461 60.6498 279.205 60.9677 278.862 61.1608C278.518 61.3538 278.114 61.4073 277.732 61.3101L273.586 60.0248Z" fill="black"/>
<path d="M289.593 80.0095H289.482C288.69 79.8757 287.982 79.4396 287.506 78.7932C287.272 78.4744 287.106 78.1118 287.015 77.7272C286.925 77.3425 286.913 76.9436 286.98 76.5543C287.104 75.7622 287.536 75.0514 288.183 74.5778C288.502 74.3445 288.864 74.1778 289.249 74.0876C289.634 73.9973 290.032 73.9855 290.422 74.0526C290.512 74.0661 290.598 74.0973 290.676 74.1442C290.754 74.1911 290.822 74.2529 290.876 74.3261C290.929 74.3993 290.968 74.4824 290.99 74.5706C291.012 74.6589 291.016 74.7506 291.002 74.8404C290.989 74.9299 290.958 75.0158 290.911 75.093C290.863 75.1702 290.801 75.2372 290.728 75.29C290.655 75.3428 290.571 75.3804 290.483 75.4005C290.395 75.4206 290.304 75.4229 290.214 75.4071C289.787 75.3472 289.353 75.4509 288.998 75.6973C288.739 75.8884 288.542 76.1513 288.43 76.4534C288.319 76.7556 288.299 77.0838 288.373 77.3972C288.446 77.7107 288.61 77.9956 288.844 78.2168C289.078 78.4379 289.372 78.5855 289.689 78.6412C289.873 78.6541 290.043 78.7392 290.164 78.8778C290.284 79.0165 290.345 79.1974 290.332 79.3806C290.319 79.5639 290.234 79.7346 290.095 79.8551C289.957 79.9756 289.776 80.0362 289.593 80.0233V80.0095Z" fill="black"/>
<path d="M284.77 88.553C284.576 89.7969 285.834 91.027 287.534 91.3172C289.234 91.6075 290.851 90.8059 291.058 89.562C291.266 88.3181 289.994 87.088 288.294 86.7978C286.594 86.5075 284.977 87.3092 284.77 88.553Z" fill="#CF4192"/>
<path d="M289.368 89.8222C288.85 89.8193 288.332 89.7778 287.82 89.6979C286.122 89.4811 284.538 88.7254 283.301 87.5418C283.234 87.4758 283.181 87.3968 283.145 87.3096C283.109 87.2224 283.092 87.1288 283.094 87.0346C283.096 86.9405 283.117 86.8477 283.156 86.7619C283.195 86.6762 283.251 86.5994 283.321 86.5362C283.391 86.473 283.473 86.4247 283.562 86.3943C283.651 86.364 283.746 86.3521 283.839 86.3596C283.933 86.367 284.025 86.3936 284.108 86.4377C284.191 86.4817 284.265 86.5423 284.324 86.6158C285.361 87.5494 286.658 88.1469 288.041 88.3296C289.489 88.5733 290.976 88.4155 292.34 87.8735C292.42 87.8332 292.507 87.8091 292.596 87.8026C292.685 87.7961 292.774 87.8073 292.859 87.8355C292.944 87.8638 293.022 87.9086 293.09 87.9673C293.157 88.026 293.212 88.0974 293.252 88.1775C293.334 88.3407 293.348 88.5298 293.291 88.7033C293.234 88.8768 293.111 89.0207 292.948 89.1035C291.821 89.5987 290.599 89.8439 289.368 89.8222Z" fill="black"/>
<path d="M299.974 72.3393C299.725 73.9011 299.974 75.2555 301.549 75.5043C303.125 75.7531 303.788 74.5507 304.037 72.9889C304.286 71.4271 304.037 70.0588 302.462 69.81C300.886 69.5613 300.223 70.7637 299.974 72.3393Z" fill="black"/>
<path d="M297.762 72.3803C297.666 72.3818 297.57 72.3629 297.482 72.3248C297.394 72.2866 297.315 72.2302 297.25 72.1592C297.186 72.0961 297.135 72.0209 297.1 71.9378C297.065 71.8547 297.047 71.7655 297.047 71.6754C297.047 71.5853 297.065 71.4961 297.1 71.4131C297.135 71.33 297.186 71.2548 297.25 71.1917C299.517 69.0633 305.253 68.4275 309.869 70.9567C310.03 71.0447 310.15 71.1932 310.202 71.3694C310.254 71.5457 310.233 71.7353 310.145 71.8966C310.057 72.0579 309.909 72.1776 309.733 72.2294C309.556 72.2813 309.367 72.261 309.206 72.173C304.893 69.8234 299.89 70.5974 298.149 72.173C298.046 72.2823 297.91 72.3551 297.762 72.3803Z" fill="black"/>
<path d="M274.587 68.1099C274.449 69.6993 273.883 70.8741 272.293 70.805C270.704 70.7359 270.358 69.3399 270.496 67.7505C270.635 66.1611 271.201 64.9863 272.791 64.9863C274.38 64.9863 274.726 66.5205 274.587 68.1099Z" fill="black"/>
<path d="M281.142 69.2842C280.992 69.2852 280.846 69.2366 280.727 69.146C277.866 66.9761 273.222 65.2899 269.919 66.2712C269.743 66.3188 269.556 66.2965 269.396 66.2089C269.236 66.1213 269.117 65.9752 269.062 65.8013C269.035 65.7142 269.026 65.6225 269.035 65.5317C269.044 65.4408 269.071 65.3527 269.115 65.2727C269.159 65.1926 269.218 65.1223 269.29 65.0659C269.362 65.0095 269.444 64.9682 269.532 64.9444C273.679 63.7005 279.027 66.1192 281.57 68.0403C281.715 68.1523 281.809 68.317 281.832 68.4984C281.856 68.6797 281.806 68.8629 281.695 69.0078C281.632 69.0953 281.549 69.1662 281.453 69.2143C281.356 69.2625 281.25 69.2865 281.142 69.2842Z" fill="black"/>
<path d="M289.553 104.404H289.442C285.379 103.823 281.51 102.292 278.148 99.9365C274.786 97.5809 272.027 94.4667 270.093 90.846C266.082 83.146 264.759 74.3265 266.334 65.7885C266.363 65.6052 266.464 65.4411 266.614 65.3322C266.765 65.2234 266.952 65.1787 267.135 65.208C267.318 65.2373 267.483 65.3383 267.591 65.4886C267.7 65.6389 267.745 65.8263 267.716 66.0096C266.199 74.2368 267.458 82.7349 271.295 90.1688C273.126 93.5972 275.737 96.547 278.919 98.7799C282.1 101.013 285.762 102.466 289.608 103.022C289.791 103.035 289.962 103.12 290.083 103.259C290.203 103.398 290.264 103.578 290.251 103.762C290.238 103.945 290.153 104.116 290.014 104.236C289.876 104.357 289.695 104.417 289.511 104.404H289.553Z" fill="black"/>
<path d="M269.422 59.2226C279.719 56.2234 290.153 51.856 295.336 44.4341C295.336 44.4341 303.629 70.542 322.633 68.7867C322.633 68.7867 328.272 42.2919 300.243 36.1139C272.214 29.9359 269.422 59.2226 269.422 59.2226Z" fill="#101229"/>
<path d="M331.289 156.495L329.16 120.961C354.508 121.514 362.11 136.358 365.371 156.536C368.173 173.692 370.018 190.99 370.9 208.351L326.258 196.562L331.289 156.481" fill="white"/>
<path d="M336.096 67.9298C331.383 68.5102 311.882 85.1093 310.044 86.9751C308.206 88.8409 302.995 103.989 302.954 105.73C302.912 107.472 305.497 105.799 305.497 105.799L336.843 86.2011C336.843 86.2011 339.372 72.3801 338.902 70.0997C338.763 69.4663 338.406 68.902 337.893 68.5054C337.38 68.1087 336.744 67.905 336.096 67.9298Z" fill="#FFBA3C"/>
<path d="M353.121 179.066C349.072 166.392 327.469 107.197 327.469 107.197C327.469 107.197 337.462 90.4598 338.526 88.4834C340.475 84.8485 342.189 81.407 341.498 78.2144C340.461 73.3632 332.998 69.9218 332.998 69.9218C329.791 66.9226 326.834 73.6811 326.834 73.6811C321.305 72.99 321.305 77.4819 321.305 77.4819C319.923 76.3485 312.239 75.1323 312.156 85.0281L315.832 83.1347L319.895 84.3371C319.895 84.3371 305.618 99.5402 305.439 106.451C305.287 112.85 320.531 208.422 337.877 221.981C338.891 222.832 340.129 223.374 341.442 223.542C344.413 224.685 347.643 224.98 350.772 224.394C353.9 223.809 356.805 222.365 359.161 220.225C371.489 208.975 369.775 175.625 353.121 179.066Z" fill="#F4A65B"/>
<path d="M325.811 81.1015C325.675 81.0988 325.542 81.0607 325.424 80.991L321.015 78.0886C320.939 78.0396 320.873 77.9759 320.822 77.901C320.77 77.8261 320.735 77.7417 320.717 77.6527C320.699 77.5638 320.699 77.4721 320.717 77.3831C320.735 77.2942 320.771 77.2098 320.822 77.1349C320.921 76.9812 321.077 76.873 321.256 76.8341C321.435 76.7953 321.622 76.8289 321.776 76.9276L326.184 79.83C326.338 79.9291 326.446 80.0852 326.485 80.264C326.524 80.4427 326.491 80.6296 326.392 80.7837C326.328 80.8801 326.242 80.9595 326.141 81.015C326.04 81.0704 325.927 81.1001 325.811 81.1015Z" fill="black"/>
<path d="M331.266 77.385C331.13 77.3822 330.996 77.3441 330.879 77.2744L326.47 74.372C326.316 74.2712 326.208 74.1134 326.171 73.9332C326.133 73.7531 326.169 73.5654 326.27 73.4114C326.37 73.2575 326.528 73.1499 326.708 73.1123C326.889 73.0747 327.076 73.1102 327.23 73.211L331.639 76.1134C331.793 76.2126 331.901 76.3686 331.94 76.5474C331.979 76.7262 331.945 76.913 331.846 77.0671C331.783 77.1635 331.697 77.243 331.596 77.2984C331.495 77.3538 331.381 77.3835 331.266 77.385Z" fill="black"/>
<path d="M353.125 179.064C353.125 179.064 364.887 202.56 353.512 224.411C350.25 230.644 371.41 224.77 370.899 208.351C370.387 191.931 367.153 172.457 353.125 179.064Z" fill="white"/>
<path d="M312.16 85.7588C311.977 85.7588 311.801 85.686 311.671 85.5564C311.542 85.4268 311.469 85.251 311.469 85.0677C311.469 79.7466 313.68 77.5905 315.491 76.7751C317.152 76.0134 319.044 75.9242 320.77 76.5263C320.985 75.6262 321.467 74.812 322.152 74.1906C322.744 73.7194 323.425 73.3745 324.155 73.1772C324.885 72.9799 325.647 72.9344 326.395 73.0434C326.976 71.8825 328.565 69.0492 330.708 68.6069C331.207 68.5087 331.723 68.5397 332.206 68.697C332.69 68.8542 333.126 69.1324 333.472 69.5053C333.537 69.5695 333.588 69.6459 333.623 69.7301C333.658 69.8144 333.676 69.9047 333.676 69.9959C333.676 70.0871 333.658 70.1775 333.623 70.2617C333.588 70.3459 333.537 70.4223 333.472 70.4866C333.409 70.5509 333.333 70.602 333.25 70.6369C333.167 70.6718 333.078 70.6898 332.988 70.6898C332.898 70.6898 332.809 70.6718 332.726 70.6369C332.643 70.602 332.567 70.5509 332.504 70.4866C332.315 70.2773 332.078 70.1176 331.813 70.0212C331.548 69.9248 331.263 69.8948 330.984 69.9337C329.408 70.2654 327.902 73.002 327.446 74.08C327.384 74.2149 327.281 74.3273 327.152 74.4015C327.024 74.4758 326.875 74.5083 326.727 74.4946C326.095 74.3543 325.439 74.3507 324.805 74.4842C324.171 74.6177 323.573 74.8851 323.051 75.2686C322.41 75.8836 322.025 76.7178 321.973 77.6044C321.967 77.7343 321.927 77.8604 321.857 77.9697C321.786 78.079 321.688 78.1676 321.572 78.2263C321.457 78.2819 321.328 78.3035 321.201 78.2889C321.073 78.2742 320.953 78.2237 320.853 78.1434C320.114 77.7622 319.298 77.5553 318.466 77.5385C317.635 77.5217 316.811 77.6956 316.057 78.0466C313.97 79.0556 312.851 81.5157 312.823 85.1506C312.803 85.3145 312.726 85.466 312.604 85.5775C312.482 85.689 312.325 85.7533 312.16 85.7588Z" fill="black"/>
<path d="M309.99 137.573C309.828 137.575 309.671 137.519 309.546 137.415C309.422 137.311 309.339 137.166 309.313 137.006C306.479 121.72 304.641 108.853 304.697 106.434C304.876 99.3301 318.752 84.5278 319.333 83.9058C319.464 83.7783 319.64 83.707 319.824 83.707C320.007 83.707 320.183 83.7783 320.314 83.9058C320.379 83.9701 320.43 84.0465 320.466 84.1307C320.501 84.2149 320.519 84.3052 320.519 84.3965C320.519 84.4877 320.501 84.578 320.466 84.6622C320.43 84.7464 320.379 84.8229 320.314 84.8871C320.176 85.0392 306.217 99.9382 306.051 106.517C306.051 108.507 307.613 120.435 310.64 136.799C310.672 136.978 310.632 137.163 310.528 137.314C310.425 137.464 310.266 137.567 310.087 137.6L309.99 137.573Z" fill="black"/>
<path d="M242.062 199.438C241.881 199.438 241.708 199.367 241.578 199.24C241.449 199.114 241.375 198.941 241.371 198.761C241.371 196.715 241.122 148.563 244.55 133.208C247.439 120.299 253.188 112.324 261.135 110.14C261.311 110.094 261.498 110.118 261.656 110.209C261.814 110.299 261.93 110.449 261.978 110.624C262.005 110.711 262.014 110.803 262.004 110.894C261.994 110.984 261.966 111.072 261.92 111.151C261.875 111.23 261.814 111.299 261.74 111.353C261.667 111.408 261.583 111.446 261.495 111.467C252.041 114.052 247.756 124.873 245.835 133.498C242.435 148.701 242.684 198.249 242.684 198.747C242.684 198.93 242.611 199.106 242.482 199.235C242.352 199.365 242.176 199.438 241.993 199.438H242.062Z" fill="black"/>
<path d="M166.435 249.068C162.759 250.146 156.429 253.436 155.987 255.081C155.544 256.725 159.635 256.463 159.635 256.463L166.435 249.068Z" fill="#F4A65B"/>
<path d="M157.216 267.159C157.216 267.159 157.216 272.038 161.155 269.813C161.155 269.813 163.588 273.599 165.675 270.324C168.06 267.051 170.734 263.998 173.663 261.202C175.612 259.682 181.956 258.438 181.735 260.221C181.293 262.985 172.337 268.942 176.068 270.075C179.8 271.208 188.825 264.284 188.825 264.284C188.825 264.284 199.771 263.842 202.646 258.161L265.49 228.529C267.341 227.682 269.055 226.564 270.576 225.212L263.002 211.571L248.366 202.297C232.61 213.976 196.026 240.001 191.506 241.3C186.987 242.599 170.388 245.736 165.965 249.371C160.506 253.863 155.558 261.243 154.908 263.704C154.397 265.666 155.876 267.601 157.216 267.159Z" fill="#F4A65B"/>
<path d="M157.216 267.852C157.134 267.873 157.049 267.873 156.967 267.852C156.797 267.787 156.66 267.658 156.585 267.492C156.51 267.327 156.503 267.138 156.566 266.968C161.044 255.344 165.439 253.147 169.323 251.101C169.404 251.046 169.495 251.009 169.591 250.991C169.687 250.974 169.786 250.977 169.881 251.001C169.975 251.025 170.064 251.068 170.141 251.128C170.217 251.189 170.281 251.265 170.326 251.351C170.371 251.438 170.397 251.533 170.403 251.631C170.409 251.728 170.394 251.826 170.359 251.917C170.325 252.008 170.271 252.091 170.202 252.16C170.133 252.229 170.05 252.283 169.959 252.318C166.296 254.211 162.15 256.339 157.852 267.521C157.789 267.631 157.695 267.721 157.582 267.78C157.47 267.839 157.342 267.864 157.216 267.852Z" fill="black"/>
<path d="M161.154 270.505C161.049 270.502 160.946 270.479 160.85 270.436C160.768 270.396 160.695 270.341 160.634 270.273C160.574 270.205 160.528 270.125 160.498 270.039C160.469 269.953 160.457 269.862 160.462 269.771C160.468 269.681 160.492 269.592 160.532 269.51C165.286 259.835 168.658 257.182 172.874 255.772C172.96 255.742 173.051 255.73 173.142 255.736C173.233 255.742 173.322 255.766 173.403 255.808C173.485 255.849 173.557 255.906 173.615 255.976C173.674 256.046 173.718 256.127 173.745 256.214C173.802 256.387 173.789 256.575 173.709 256.738C173.629 256.901 173.488 257.025 173.316 257.085C169.446 258.37 166.309 260.927 161.776 270.118C161.72 270.236 161.632 270.335 161.521 270.403C161.411 270.472 161.284 270.507 161.154 270.505Z" fill="black"/>
<path d="M159.422 256.946C159.265 256.949 159.113 256.895 158.993 256.794C158.851 256.68 158.76 256.515 158.739 256.333C158.718 256.152 158.77 255.97 158.883 255.827C160.838 253.269 163.062 250.929 165.517 248.847C165.66 248.753 165.833 248.715 166.002 248.74C166.171 248.766 166.325 248.853 166.433 248.986C166.542 249.118 166.597 249.286 166.589 249.457C166.58 249.628 166.509 249.79 166.388 249.911C164.013 251.932 161.863 254.202 159.975 256.684C159.907 256.765 159.823 256.83 159.727 256.875C159.632 256.921 159.528 256.945 159.422 256.946Z" fill="black"/>
<path d="M263 212.263C262.874 212.263 262.75 212.229 262.643 212.163C262.535 212.097 262.448 212.002 262.392 211.89C256.132 199.161 251.373 185.747 248.211 171.919C246.373 163.171 245.682 159.909 248.999 141.9C249.014 141.81 249.047 141.725 249.096 141.648C249.144 141.571 249.208 141.505 249.283 141.454C249.358 141.402 249.442 141.366 249.531 141.348C249.62 141.33 249.712 141.329 249.801 141.347C249.98 141.381 250.139 141.484 250.242 141.634C250.346 141.784 250.386 141.969 250.354 142.149C247.092 159.881 247.714 162.88 249.552 171.629C252.696 185.335 257.412 198.631 263.608 211.254C263.692 211.418 263.708 211.607 263.654 211.783C263.6 211.958 263.479 212.106 263.318 212.194C263.22 212.244 263.11 212.268 263 212.263Z" fill="black"/>
<path d="M246.511 35.6306C246.511 15.9494 240.043 0 197.571 0C155.099 0 148.617 15.9494 148.617 35.6306C148.617 55.3117 155.099 71.2611 197.571 71.2611C204.844 71.3627 212.109 70.733 219.256 69.3815C227.438 76.7619 237.39 84.7366 240.734 83.2025C244.079 81.6684 242.462 68.801 240.361 58.2141C245.281 52.0914 246.511 44.2134 246.511 35.6306Z" fill="white"/>
<path d="M382.539 30.6682C382.539 20.1505 386.008 11.6367 408.688 11.6367C431.369 11.6367 434.824 20.1505 434.824 30.6682C434.824 41.186 431.369 49.7412 408.688 49.7412C404.804 49.7947 400.923 49.4566 397.106 48.7323C392.725 52.6713 387.432 56.9282 385.635 56.1266C383.838 55.3249 384.709 48.4282 385.828 42.7755C383.244 39.4584 382.539 35.243 382.539 30.6682Z" fill="white"/>
</g>
<defs>
<clipPath id="clip0_5_524">
<rect width="526" height="508.558" fill="white"/>
</clipPath>
</defs>
</svg>
