<svg width="100" height="101" viewBox="0 0 100 101" fill="none" xmlns="http://www.w3.org/2000/svg">
<circle cx="50" cy="50.4707" r="49.5" fill="white" stroke="black"/>
<path d="M61.6749 42.3701C69.04 44.0479 74.4785 49.5813 74.4785 56.2234C74.4785 57.9317 74.1092 59.5993 73.4208 61.1178L77.6118 67.0802C78.1113 67.7992 77.4723 68.758 76.6144 68.5683L68.8001 66.8207C66.0361 69.0378 61.5848 70.6059 56.9743 70.6059C49.1105 70.6059 42.4142 66.3511 40.2188 60.4287C40.9675 60.6184 41.7258 60.758 42.4942 60.8481C44.7893 65.4221 50.3878 68.6882 56.9743 68.6882C61.1558 68.6882 65.0779 67.3601 67.9822 65.0426C68.2017 64.863 68.5006 64.7932 68.7804 64.8529L74.608 66.1613L71.5444 61.7968C71.3351 61.5068 71.3052 61.1273 71.4645 60.8176C72.1834 59.3594 72.5622 57.8117 72.5622 56.2234C72.5622 50.86 68.281 46.2353 62.2638 44.4978C62.1337 43.7687 61.9344 43.0593 61.6749 42.3701Z" fill="black"/>
<path d="M27.0772 52.2485C26.3691 50.8302 25.8798 48.7723 25.8798 46.6351C25.8798 37.5957 34.5324 30.335 45.1303 30.335C55.7188 30.335 64.3707 37.5957 64.3707 46.6351C64.3707 55.6739 55.7188 62.9352 45.1303 62.9352C40.2203 62.9352 35.5901 61.3774 32.0672 58.6107L23.395 60.6083C22.5466 60.8082 21.8981 59.8589 22.3874 59.1399L27.0772 52.2485ZM45.1303 32.2526C35.5203 32.2526 27.7961 38.7347 27.7961 46.6351C27.7961 48.483 28.2149 50.2705 29.0233 51.9483C29.1731 52.258 29.1432 52.628 28.9433 52.9072L25.3709 58.1811L32.0875 56.6327C32.3768 56.5731 32.6757 56.6429 32.9054 56.8326C36.1288 59.4896 40.4798 61.0176 45.1303 61.0176C54.7309 61.0176 62.455 54.5355 62.455 46.6351C62.455 38.7347 54.7309 32.2526 45.1303 32.2526Z" fill="black"/>
<path fill-rule="evenodd" clip-rule="evenodd" d="M38.5038 46.6354C38.5038 47.6939 37.6459 48.5531 36.5882 48.5531C35.5297 48.5531 34.6719 47.6939 34.6719 46.6354C34.6719 45.577 35.5297 44.7178 36.5882 44.7178C37.6459 44.7178 38.5038 45.577 38.5038 46.6354Z" fill="black"/>
<path fill-rule="evenodd" clip-rule="evenodd" d="M47.1295 46.6354C47.1295 47.6939 46.2709 48.5531 45.2132 48.5531C44.1554 48.5531 43.2969 47.6939 43.2969 46.6354C43.2969 45.577 44.1554 44.7178 45.2132 44.7178C46.2709 44.7178 47.1295 45.577 47.1295 46.6354Z" fill="black"/>
<path fill-rule="evenodd" clip-rule="evenodd" d="M55.746 46.6354C55.746 47.6939 54.8875 48.5531 53.8297 48.5531C52.7719 48.5531 51.9141 47.6939 51.9141 46.6354C51.9141 45.577 52.7719 44.7178 53.8297 44.7178C54.8875 44.7178 55.746 45.577 55.746 46.6354Z" fill="black"/>
</svg>
