<svg preserveAspectRatio="none" width="100%" height="100%" overflow="visible" style="display: block;" viewBox="0 0 84.6495 54.1967" fill="none" xmlns="http://www.w3.org/2000/svg">
<g id="Group">
<path id="Vector" d="M35.9525 12.3241C37.1795 12.5329 38.2049 11.605 39.4185 11.5134C41.5979 11.3486 43.6744 12.5268 45.8322 12.7111C47.0788 12.8161 48.1309 12.3436 49.3373 12.1764C50.4954 12.0177 51.49 11.8248 52.0546 10.4622C52.5689 9.22298 52.3642 7.67852 51.6515 6.61266C51.0344 5.69087 50.1211 5.20494 49.1646 5.03157C49.1327 3.92054 48.5495 2.83514 47.701 2.26131C46.9296 1.7412 45.9947 1.71922 45.1411 1.86696C44.7945 1.92678 43.838 2.4127 43.55 2.2955C43.3248 2.20637 43.1417 1.67405 42.9483 1.40423C41.9815 0.0538941 40.2855 -0.285521 38.9012 0.227264C37.1538 0.87435 35.9998 2.68985 35.0443 4.42966C35.033 4.45041 35.033 4.47117 35.0238 4.49315C34.9271 4.49437 34.8263 4.50414 34.7131 4.55541C32.688 5.49918 31.1617 8.38665 32.8999 10.6344C33.6476 11.6062 34.8726 12.1397 35.9525 12.3241ZM35.1873 6.59557C35.464 6.46737 35.6316 6.22929 35.717 5.96191C36.0296 6.01319 36.3639 5.8972 36.585 5.49674C37.2402 4.30513 38.0054 2.94502 39.1532 2.36265C40.2403 1.81201 41.2132 2.15753 41.8571 3.26979C42.6809 4.69582 43.515 4.45408 44.815 4.09024C45.4465 3.91443 46.3043 3.69467 46.8957 4.15007C47.2732 4.44065 47.5488 4.99739 47.2876 5.48209C46.9327 6.13772 47.3925 7.11812 48.0589 7.07416C49.0175 7.01068 50.3052 7.29759 50.5314 8.62351C50.8019 10.2156 49.4453 9.95675 48.5691 10.1753C47.5375 10.4341 46.655 10.6978 45.5854 10.5684C44.6423 10.4537 43.7228 10.1435 42.8012 9.88838C40.8893 9.3585 39.0123 9.13873 37.1425 9.99338C36.2672 10.3938 35.0505 10.1374 34.3305 9.34141C33.4275 8.34636 34.2627 7.02533 35.1873 6.59557ZM56.3692 38.2784C55.9722 36.4519 54.7544 34.9184 53.1263 34.5924C51.6576 34.2994 50.2578 35.0429 49.3415 36.32C48.3911 33.6132 46.3598 31.4473 43.8997 30.8649C41.3521 30.263 38.7603 31.3521 36.9789 33.4924C35.9011 27.8688 32.0308 23.3795 27.3419 21.8057C21.9474 19.9927 16.3123 22.7214 12.8411 27.7663C10.996 30.4486 9.82969 33.623 9.39567 37.0294C7.74802 35.6778 5.53366 35.3445 3.63917 36.1772C1.23043 37.2357 -0.176552 40.0401 0.0178334 43.0558C0.220447 46.1789 1.95141 48.9382 4.60596 49.595C5.42156 49.7953 6.3904 49.5181 7.14943 49.8722C7.80973 50.1798 8.34043 51.1248 8.92462 51.6327C9.985 52.5509 11.2418 53.132 12.5346 53.3799C15.2653 53.9036 18.1441 52.9721 20.1414 50.6987C21.6471 52.5203 23.4532 54.3261 25.7189 54.1893C28.1729 54.0379 29.9913 51.5937 32.3898 51.3361C33.807 51.1834 35.0217 52.1296 36.2322 52.8549C37.3327 53.5129 38.4528 53.9818 39.6952 54.0379C41.7429 54.1283 43.7619 53.1784 45.2223 51.496C46.871 53.3738 49.2335 54.1869 51.4992 53.7754C52.7149 53.5557 53.8473 52.9721 54.8048 52.0552C55.4857 51.4032 55.9886 50.8477 56.9174 50.8074C57.6476 50.7757 58.3696 50.7927 59.0988 50.6914C61.4016 50.3691 63.8978 49.3924 65.2389 46.9908C66.6829 44.4012 66.0453 40.9302 64.1816 38.8888C62.0177 36.519 58.8098 36.6289 56.3692 38.2784ZM60.6436 48.7868C59.2819 49.2251 57.9767 49.1653 56.5924 49.2788C55.137 49.3972 54.4346 50.6682 53.2467 51.4679C50.7772 53.1345 47.5015 52.3824 45.6749 49.8502C45.4589 49.5523 44.9734 49.5535 44.7585 49.8502C43.2918 51.8769 40.9757 52.9184 38.7438 52.3628C36.5151 51.8098 34.7872 49.584 32.3898 49.7989C30.267 49.9869 28.6358 51.7683 26.6508 52.4446C24.132 53.3042 22.2087 51.0577 20.6125 49.0664C20.3821 48.7795 19.9234 48.7599 19.6961 49.0664C17.7985 51.623 14.7418 52.5557 11.9885 51.6779C10.4396 51.1847 9.52834 50.1261 8.34454 48.9492C7.79121 48.3997 7.1916 48.2276 6.48296 48.2032C5.46167 48.1666 4.57202 48.1458 3.64431 47.55C1.2366 46.0068 0.530025 41.714 2.22704 39.1769C4.05777 36.4409 7.84367 36.7485 9.63222 39.3381C10.1619 40.1036 11.0742 39.0109 10.5496 38.2515C10.5239 38.2124 10.491 38.1843 10.4643 38.1477C10.5219 38.0464 10.5661 37.9304 10.5805 37.7863C11.1122 32.0285 14.2656 26.7358 18.6563 24.1963C23.2012 21.5701 28.5823 22.7605 32.2633 26.7859C34.2812 28.9933 35.683 31.9406 35.9576 35.2053C36.0204 35.9611 36.7897 36.2541 37.1661 35.5936C38.6009 33.0699 41.3161 31.7001 43.839 32.4167C46.2477 33.1017 48.0538 35.5288 48.5392 38.3626C48.6771 39.1635 49.5914 39.017 49.7899 38.3626C50.2455 36.8548 51.6042 35.8194 52.9577 36.1161C54.3317 36.4165 55.2378 37.9682 55.2296 39.5664C55.2265 40.0975 55.7994 40.592 56.2046 40.2294C58.7049 37.9951 62.6595 37.8229 64.268 41.5211C65.8067 45.0691 63.4 47.8992 60.6436 48.7868ZM83.4444 17.469C82.3531 16.1126 80.7692 15.4313 79.3232 15.8696C79.5813 13.0127 78.3543 9.99338 76.1081 8.73827C73.5122 7.28782 70.331 8.48554 68.7307 11.2302C67.5407 9.79681 65.8159 9.03129 64.1004 9.40978C61.9354 9.88838 60.2271 12.1117 59.9401 14.678C59.8537 15.457 59.9442 16.5338 59.2418 16.9428C58.7378 17.2383 58.1084 17.2468 57.5828 17.5264C56.6273 18.0343 55.8045 18.8963 55.2543 19.9536C54.1672 22.0426 54.5374 24.5992 56.1645 26.1144C57.7762 27.6161 60.0666 27.8114 62.0208 27.4293C63.5172 27.1363 64.8687 27.0178 66.3765 27.2925C67.5932 27.5172 68.7934 27.8481 70.0184 28.0068C71.2793 28.1716 72.4292 28.0227 73.651 27.6661C75.0374 27.262 76.3745 27.859 77.7629 27.9665C79.9783 28.1411 82.2894 26.7004 83.5997 24.6139C84.9727 22.4247 85.0776 19.5019 83.4444 17.469ZM81.6877 24.7921C80.9832 25.4905 80.1336 26.0008 79.246 26.2706C78.09 26.6198 76.9947 26.2926 75.8417 26.0936C73.8958 25.7566 72.1227 26.7151 70.1654 26.4867C68.2092 26.2596 66.3168 25.5515 64.338 25.5515C62.4887 25.5515 60.7588 26.3415 58.8962 25.8922C57.2197 25.4868 55.4446 23.9802 56.0051 21.68C56.2571 20.6459 56.9102 19.7534 57.6754 19.1954C58.4673 18.6167 59.468 18.6863 60.2199 18.0465C60.9707 17.4092 61.0766 16.3397 61.1753 15.3361C61.3029 14.0444 61.6526 12.926 62.4867 12.0335C64.3688 10.0141 67.2507 10.7796 68.4664 13.3289C68.8778 14.1897 69.9978 13.4168 69.5864 12.5536C69.5668 12.5109 69.5391 12.4767 69.5195 12.4364C69.5967 12.379 69.6687 12.3009 69.7263 12.1922C70.9512 9.93233 73.6428 8.9263 75.6905 10.2083C77.73 11.4853 78.5569 14.5279 77.7856 17.0332C77.5398 17.8304 78.4212 18.2101 78.8675 17.7816C80.1974 16.5045 82.1258 17.6754 82.9311 19.1698C83.9781 21.1062 83.035 23.454 81.6877 24.7921Z" fill="var(--fill-0, #FF6A01)"/>
</g>
</svg>
