<svg preserveAspectRatio="none" width="100%" height="100%" overflow="visible" style="display: block;" viewBox="0 0 94.0175 122.001" fill="none" xmlns="http://www.w3.org/2000/svg">
<g id="Icons Container">
<path id="Vector" d="M55.4929 84.0027L52.2734 69.1472C52.0435 68.0913 51.4189 67.1631 50.5274 66.5525C49.6359 65.9418 48.5447 65.6949 47.4771 65.862C46.6417 65.9905 45.8335 66.2569 45.0855 66.6504C44.4285 67.0118 43.8109 67.3075 43.2918 67.5703C42.4889 67.9578 41.5694 68.0283 40.7169 67.7677C39.8643 67.5071 39.1415 66.9345 38.6926 66.1642C37.1682 63.5361 35.4074 58.5229 35.9199 49.9946C36.5375 40.0143 37.1879 35.7764 38.2721 33.7527C38.5469 33.245 38.96 32.8255 39.4636 32.5429C39.9671 32.2604 40.5404 32.1263 41.117 32.1562C42.6158 32.2385 44.1187 32.199 45.6111 32.0379C46.6421 31.9147 47.5928 31.4196 48.2847 30.6454C48.9766 29.8712 49.3623 28.8712 49.3694 27.8329L49.4547 11.0259C49.465 9.95529 49.0696 8.92043 48.348 8.12938C47.6265 7.33833 46.6322 6.84973 45.5651 6.76179C40.9133 6.39386 32.3588 6.87349 26.8265 15.6843C18.4822 28.9827 19.3889 63.7398 25.1905 78.1748C28.745 87.0185 42.6216 93.4837 53.075 88.8122C53.9703 88.4117 54.7 87.7144 55.1405 86.8381C55.5811 85.9617 55.7055 84.9602 55.4929 84.0027Z" fill="var(--fill-0, #96ADF0)"/>
<path id="Vector_2" d="M43.2384 32.5436C43.1239 32.5436 43.0138 32.4991 42.9316 32.4193C42.8494 32.3396 42.8016 32.231 42.7982 32.1165L42.3973 6.45933C42.3973 6.34258 42.4437 6.23061 42.5263 6.14805C42.6088 6.06549 42.7208 6.01912 42.8376 6.01912C42.9543 6.01912 43.0663 6.06549 43.1489 6.14805C43.2314 6.23061 43.2778 6.34258 43.2778 6.45933L43.6786 32.0837C43.6786 32.1993 43.6331 32.3103 43.552 32.3926C43.4708 32.475 43.3606 32.5221 43.2449 32.5239L43.2384 32.5436Z" fill="var(--fill-0, #412945)"/>
<path id="Vector_3" d="M50.2642 90.5042C50.1649 90.5037 50.0686 90.4697 49.9911 90.4077C49.9136 90.3457 49.8593 90.2593 49.8371 90.1625L44.6597 66.7064C44.6471 66.6503 44.6459 66.5923 44.656 66.5357C44.6661 66.4791 44.6874 66.425 44.7186 66.3767C44.7497 66.3284 44.7902 66.2868 44.8376 66.2543C44.885 66.2218 44.9385 66.199 44.9947 66.1874C45.0513 66.1748 45.1097 66.1734 45.1667 66.1835C45.2238 66.1935 45.2782 66.2147 45.3271 66.2458C45.3759 66.277 45.4181 66.3174 45.4513 66.3649C45.4845 66.4123 45.5079 66.4659 45.5204 66.5224L50.6978 89.9588C50.7104 90.0154 50.7117 90.0738 50.7017 90.1308C50.6916 90.1879 50.6705 90.2423 50.6393 90.2912C50.6082 90.34 50.5677 90.3822 50.5203 90.4154C50.4728 90.4485 50.4193 90.472 50.3627 90.4845L50.2642 90.5042Z" fill="var(--fill-0, #412945)"/>
<path id="Vector_4" d="M25.7444 74.4005C25.9727 75.8068 26.4159 77.1696 27.0584 78.4412C27.4794 79.4294 28.2167 80.2498 29.1544 80.7737C30.1202 81.2205 31.4737 80.9708 31.9336 80.0115C32.1315 79.531 32.1774 79.0013 32.065 78.4938C31.8613 77.3177 31.2832 76.2336 31.0138 75.0707C30.9043 74.209 30.7129 73.3598 30.4422 72.5345C29.9231 71.3716 28.2477 70.11 26.9007 70.5634C25.4618 71.0168 25.5407 73.2112 25.7444 74.4005Z" fill="var(--fill-0, #F7EDE5)"/>
<path id="Vector_5" d="M28.7985 64.5621C29.0058 64.9468 29.0943 65.3844 29.0527 65.8194C29.0112 66.2544 28.8415 66.6673 28.5651 67.0058C28.2887 67.3443 27.918 67.5932 27.5001 67.7208C27.0821 67.8485 26.6357 67.8493 26.2173 67.723C25.7989 67.5968 25.4274 67.3492 25.1499 67.0116C24.8723 66.6741 24.7012 66.2618 24.6582 65.8269C24.6152 65.392 24.7022 64.9541 24.9082 64.5687C25.1142 64.1833 25.43 63.8678 25.8155 63.662C26.0702 63.524 26.3497 63.4379 26.6379 63.4085C26.926 63.3791 27.2172 63.4071 27.4945 63.4908C27.7718 63.5745 28.0297 63.7122 28.2535 63.8961C28.4774 64.08 28.6626 64.3063 28.7985 64.5621Z" fill="var(--fill-0, #F7EDE5)"/>
<path id="Vector_6" d="M45.9259 15.3805C45.8701 15.9946 45.8701 16.6126 45.9259 17.2267C45.9587 17.5335 46.094 17.8202 46.3097 18.0407C46.5255 18.2612 46.8091 18.4027 47.1151 18.4422C47.8378 18.4422 48.2846 17.6538 48.4686 16.9508C49.0063 14.7455 48.8503 12.428 48.0218 10.3147C47.6933 9.58542 46.7078 8.74441 45.8996 9.29632C45.0914 9.84823 45.2426 11.2674 45.3543 12.0953C45.6389 13.1719 45.8301 14.271 45.9259 15.3805Z" fill="var(--fill-0, #F7EDE5)"/>
<path id="Vector_7" d="M48.2608 20.4928C48.3514 20.6722 48.3874 20.8743 48.364 21.074C48.3407 21.2736 48.2592 21.462 48.1297 21.6157C48.0001 21.7694 47.8283 21.8816 47.6354 21.9384C47.4426 21.9952 47.2374 21.994 47.0452 21.935C46.853 21.876 46.6824 21.7618 46.5547 21.6066C46.4269 21.4515 46.3476 21.2621 46.3266 21.0622C46.3056 20.8623 46.3438 20.6606 46.4366 20.4823C46.5293 20.304 46.6724 20.1568 46.8481 20.0592C46.9688 19.9922 47.1017 19.9502 47.2389 19.9358C47.3761 19.9214 47.5149 19.9348 47.6468 19.9753C47.7787 20.0158 47.9011 20.0825 48.0066 20.1714C48.1121 20.2604 48.1985 20.3697 48.2608 20.4928Z" fill="var(--fill-0, #F7EDE5)"/>
<path id="Vector_8" d="M83.3255 114.012C81.8046 112.748 80.0338 111.82 78.1293 111.289C76.2247 110.758 74.2294 110.636 72.2742 110.93C72.0801 110.625 71.8603 110.337 71.6172 110.069C70.2326 108.692 68.4392 107.8 66.5054 107.527C64.3471 107.173 62.1356 107.337 60.0533 108.006C59.2453 106.57 58.0854 105.363 56.6827 104.498C54.1467 103.018 51.1882 102.431 48.2793 102.829C48.0428 102.829 47.8062 102.888 47.5697 102.934C47.3518 102.185 47.084 101.452 46.7681 100.74C46.267 99.5863 45.6271 98.4986 44.8627 97.5003C45.2589 96.4824 45.4981 95.4101 45.5723 94.3203C45.6559 92.986 45.4842 91.648 45.0664 90.3781C44.5182 88.6626 43.5439 87.1141 42.2346 85.8774C42.1942 85.8365 42.1461 85.804 42.0931 85.7818C42.0401 85.7596 41.9833 85.7482 41.9258 85.7482C41.8683 85.7482 41.8114 85.7596 41.7584 85.7818C41.7054 85.804 41.6573 85.8365 41.617 85.8774C41.576 85.9177 41.5435 85.9658 41.5214 86.0188C41.4992 86.0719 41.4878 86.1287 41.4878 86.1862C41.4878 86.2437 41.4992 86.3006 41.5214 86.3536C41.5435 86.4066 41.576 86.4547 41.617 86.495C42.6619 87.4844 43.4775 88.6906 44.0064 90.0289C44.5354 91.3671 44.7649 92.805 44.6788 94.2415C44.6261 95.0806 44.4626 95.9091 44.1926 96.7053C43.4796 95.9233 42.6482 95.2581 41.7287 94.7342C39.1663 93.2953 36.0585 93.3742 33.9888 94.9379C33.3958 95.4055 32.9058 95.9907 32.5497 96.6566C32.1935 97.3226 31.9788 98.055 31.9192 98.8078C31.8471 99.4439 31.9112 100.088 32.1072 100.698C32.3031 101.307 32.6265 101.868 33.0558 102.343C35.0926 104.511 38.7917 104.012 41.1833 102.27C42.5721 101.267 43.699 99.9443 44.4685 98.4136C45.0619 99.2536 45.5683 100.152 45.9797 101.094C46.269 101.748 46.517 102.42 46.7221 103.105C43.2464 103.926 39.751 106.18 38.7589 109.853C38.4813 110.666 38.5141 111.552 38.8509 112.343C39.5079 113.617 41.0585 114.018 42.3331 113.854C44.889 113.519 47.1426 111.305 47.8259 108.466C48.173 106.923 48.1618 105.32 47.7931 103.782L48.391 103.703C51.1022 103.324 53.8621 103.866 56.2294 105.24C57.4623 105.999 58.4909 107.048 59.2255 108.295C56.8603 109.192 54.7857 110.719 53.2268 112.711C52.0967 114.169 51.2557 116.416 52.5697 117.967C53.5881 119.156 55.3293 119.13 56.5119 118.749C59.2649 117.855 61.2557 114.853 61.1506 111.765C61.1182 110.747 60.8953 109.744 60.4936 108.808C62.4065 108.215 64.4315 108.078 66.4069 108.407C68.146 108.646 69.7604 109.444 71.0061 110.68C71.133 110.815 71.2515 110.958 71.3609 111.108C68.4962 111.692 65.0796 113.46 64.0415 116.705C63.6736 117.842 63.6539 119.393 64.6986 120.319C65.4034 120.879 66.3011 121.136 67.1953 121.035C68.2607 120.978 69.296 120.661 70.2105 120.112C71.125 119.562 71.891 118.797 72.4413 117.883C72.9917 116.969 73.3097 115.934 73.3677 114.868C73.4256 113.803 73.2216 112.739 72.7735 111.771C74.5457 111.548 76.3447 111.69 78.06 112.189C79.7752 112.687 81.3703 113.531 82.7473 114.669C83.7824 115.6 84.6221 116.728 85.2176 117.987C85.8131 119.246 86.1526 120.61 86.2164 122.001L87.0969 121.778C87.0117 120.298 86.6347 118.851 85.9874 117.518C85.3401 116.185 84.4354 114.993 83.3255 114.012ZM40.684 101.528C38.6012 103.046 35.4277 103.499 33.7129 101.705C33.368 101.322 33.1093 100.869 32.954 100.377C32.7988 99.8852 32.7506 99.3658 32.8127 98.8538C32.8611 98.2219 33.0396 97.6068 33.337 97.0472C33.6343 96.4875 34.0442 95.9953 34.5407 95.6015C35.5161 94.9024 36.6918 94.5382 37.8916 94.5634C39.0928 94.5669 40.2732 94.8767 41.3213 95.4635C42.2851 96.0215 43.1417 96.7468 43.8509 97.6055C43.1532 99.1654 42.0618 100.517 40.684 101.528ZM46.9652 108.223C46.3608 110.72 44.4028 112.665 42.2083 112.947C41.2687 113.072 40.0598 112.803 39.6196 111.922C39.3933 111.319 39.3933 110.653 39.6196 110.05C40.5197 106.719 43.7457 104.675 46.9521 103.92C47.2842 105.334 47.2887 106.806 46.9652 108.223ZM56.2229 117.868C55.2176 118.19 53.9035 118.157 53.2136 117.349C52.3003 116.291 52.9048 114.504 53.8707 113.21C55.3561 111.324 57.3312 109.883 59.5803 109.044C59.9719 109.894 60.1951 110.811 60.2373 111.745C60.349 114.458 58.6145 117.093 56.2229 117.868ZM72.0311 116.6C71.608 117.581 70.9245 118.427 70.0546 119.047C69.1848 119.666 68.1618 120.036 67.0968 120.115C66.4348 120.194 65.7678 120.018 65.2308 119.623C64.508 118.966 64.5737 117.763 64.8366 116.929C65.763 114.031 68.897 112.441 71.5252 111.909L71.8077 111.857C72.1708 112.589 72.3781 113.389 72.4165 114.205C72.455 115.022 72.3237 115.837 72.0311 116.6Z" fill="var(--fill-0, #412945)"/>
<path id="Vector_9" d="M43.2413 32.5424C43.1268 32.5425 43.0168 32.4979 42.9346 32.4182C42.8524 32.3384 42.8045 32.2298 42.8011 32.1153L42.4003 6.45817C42.4003 6.34192 42.4455 6.23022 42.5265 6.1468C42.6075 6.06338 42.7178 6.0148 42.834 6.01138C42.9502 6.01133 43.0619 6.0566 43.1453 6.13756C43.2287 6.21853 43.2773 6.32883 43.2807 6.44503L43.6815 32.0693C43.6815 32.185 43.6361 32.296 43.5549 32.3783C43.4738 32.4607 43.3635 32.5078 43.2479 32.5096L43.2413 32.5424Z" fill="var(--fill-0, #412945)"/>
<path id="Vector_10" d="M50.2642 90.5042C50.1649 90.5037 50.0686 90.4697 49.9911 90.4077C49.9136 90.3457 49.8593 90.2593 49.8371 90.1625L44.6597 66.7064C44.6471 66.6503 44.6459 66.5923 44.656 66.5357C44.6661 66.4791 44.6874 66.425 44.7186 66.3767C44.7497 66.3284 44.7902 66.2868 44.8376 66.2543C44.885 66.2218 44.9385 66.199 44.9947 66.1874C45.0513 66.1748 45.1097 66.1734 45.1667 66.1835C45.2238 66.1935 45.2782 66.2147 45.3271 66.2458C45.3759 66.277 45.4181 66.3174 45.4513 66.3649C45.4845 66.4123 45.5079 66.4659 45.5204 66.5224L50.6978 89.9588C50.7104 90.0154 50.7117 90.0738 50.7017 90.1308C50.6916 90.1879 50.6705 90.2423 50.6393 90.2912C50.6082 90.34 50.5677 90.3822 50.5203 90.4154C50.4728 90.4485 50.4193 90.472 50.3627 90.4845L50.2642 90.5042Z" fill="var(--fill-0, #412945)"/>
<path id="Vector_11" d="M25.7444 74.4005C25.9727 75.8068 26.4159 77.1696 27.0584 78.4412C27.4794 79.4294 28.2167 80.2498 29.1544 80.7737C30.1202 81.2205 31.4737 80.9708 31.9336 80.0115C32.1315 79.531 32.1774 79.0013 32.065 78.4938C31.8613 77.3177 31.2832 76.2336 31.0138 75.0707C30.9043 74.209 30.7129 73.3598 30.4422 72.5345C29.9231 71.3716 28.2477 70.11 26.9007 70.5634C25.4618 71.0168 25.5407 73.2112 25.7444 74.4005Z" fill="var(--fill-0, #F7EDE5)"/>
<path id="Vector_12" d="M28.7985 64.5621C29.0058 64.9468 29.0943 65.3844 29.0527 65.8194C29.0112 66.2544 28.8415 66.6673 28.5651 67.0058C28.2887 67.3443 27.918 67.5932 27.5001 67.7208C27.0821 67.8485 26.6357 67.8493 26.2173 67.723C25.7989 67.5968 25.4274 67.3492 25.1499 67.0116C24.8723 66.6741 24.7012 66.2618 24.6582 65.8269C24.6152 65.392 24.7022 64.9541 24.9082 64.5687C25.1142 64.1833 25.43 63.8678 25.8155 63.662C26.0702 63.524 26.3497 63.4379 26.6379 63.4085C26.926 63.3791 27.2172 63.4071 27.4945 63.4908C27.7718 63.5745 28.0297 63.7122 28.2535 63.8961C28.4774 64.08 28.6626 64.3063 28.7985 64.5621Z" fill="var(--fill-0, #F7EDE5)"/>
<path id="Vector_13" d="M45.9259 15.3805C45.8701 15.9946 45.8701 16.6126 45.9259 17.2267C45.9587 17.5335 46.094 17.8202 46.3097 18.0407C46.5255 18.2612 46.8091 18.4027 47.1151 18.4422C47.8378 18.4422 48.2846 17.6538 48.4686 16.9508C49.0063 14.7455 48.8503 12.428 48.0218 10.3147C47.6933 9.58542 46.7078 8.74441 45.8996 9.29632C45.0914 9.84823 45.2426 11.2674 45.3543 12.0953C45.6389 13.1719 45.8301 14.271 45.9259 15.3805Z" fill="var(--fill-0, #F7EDE5)"/>
<path id="Vector_14" d="M48.2608 20.4928C48.3514 20.6722 48.3874 20.8743 48.364 21.074C48.3407 21.2736 48.2592 21.462 48.1297 21.6157C48.0001 21.7694 47.8283 21.8816 47.6354 21.9384C47.4426 21.9952 47.2374 21.994 47.0452 21.935C46.853 21.876 46.6824 21.7618 46.5547 21.6066C46.4269 21.4515 46.3476 21.2621 46.3266 21.0622C46.3056 20.8623 46.3438 20.6606 46.4366 20.4823C46.5293 20.304 46.6724 20.1568 46.8481 20.0592C46.9688 19.9922 47.1017 19.9502 47.2389 19.9358C47.3761 19.9214 47.5149 19.9348 47.6468 19.9753C47.7787 20.0158 47.9011 20.0825 48.0066 20.1714C48.1121 20.2604 48.1985 20.3697 48.2608 20.4928Z" fill="var(--fill-0, #F7EDE5)"/>
<path id="Vector_15" d="M52.5191 8.92919L64.1552 0.216924C64.2524 0.135709 64.3651 0.0751463 64.4865 0.0389307C64.6079 0.00271517 64.7355 -0.00839364 64.8613 0.00627752C64.9871 0.0209487 65.1087 0.0610952 65.2185 0.124268C65.3283 0.187441 65.4241 0.272318 65.5 0.373724C65.576 0.475129 65.6305 0.590937 65.6602 0.714091C65.6899 0.837244 65.6942 0.965157 65.6729 1.09004C65.6516 1.21492 65.6051 1.33415 65.5362 1.44046C65.4673 1.54677 65.3774 1.63794 65.2721 1.70839L65.2196 1.74781L53.0184 9.63222C52.9714 9.66501 52.9184 9.68821 52.8624 9.7005C52.8064 9.7128 52.7485 9.71395 52.6921 9.70388C52.5781 9.68355 52.4769 9.61877 52.4107 9.5238C52.3445 9.42883 52.3187 9.31145 52.339 9.19747C52.3593 9.0835 52.4241 8.98226 52.5191 8.91605V8.92919Z" fill="var(--fill-0, #412945)"/>
<path id="Vector_16" d="M54.0156 13.2798L70.5926 8.98938C70.7531 8.94624 70.9205 8.93513 71.0852 8.95669C71.25 8.97825 71.409 9.03206 71.553 9.11503C71.6969 9.19801 71.8231 9.30853 71.9244 9.44029C72.0257 9.57205 72.1 9.72246 72.1432 9.88295C72.1863 10.0434 72.1974 10.2109 72.1759 10.3756C72.1543 10.5404 72.1005 10.6993 72.0175 10.8433C71.9346 10.9873 71.824 11.1135 71.6923 11.2148C71.5605 11.3161 71.4101 11.3904 71.2496 11.4336H71.1314L54.193 14.1471C54.079 14.1642 53.9629 14.136 53.8695 14.0684C53.7762 14.0008 53.713 13.8993 53.6937 13.7857C53.675 13.6765 53.6976 13.5642 53.7571 13.4707C53.8166 13.3773 53.9087 13.3092 54.0156 13.2798Z" fill="var(--fill-0, #412945)"/>
<path id="Vector_17" d="M54.1132 17.2855L66.8399 16.6285C67.1605 16.612 67.4746 16.7235 67.7131 16.9385C67.9515 17.1535 68.0947 17.4544 68.1113 17.775C68.1278 18.0957 68.0163 18.4097 67.8013 18.6482C67.5863 18.8866 67.2854 19.0298 66.9647 19.0464H66.8202L54.0737 18.1594C54.0162 18.1561 53.9598 18.1413 53.908 18.1159C53.8562 18.0906 53.81 18.0551 53.7721 18.0117C53.7342 17.9683 53.7053 17.9177 53.6871 17.863C53.669 17.8082 53.6619 17.7504 53.6664 17.6929C53.6763 17.5814 53.7277 17.4776 53.8104 17.4022C53.8931 17.3267 54.0012 17.2851 54.1132 17.2855Z" fill="var(--fill-0, #412945)"/>
<path id="Vector_18" d="M93.4652 8.58594L89.4113 9.61748L88.3797 13.6648C88.339 13.8247 88.2461 13.9664 88.1158 14.0677C87.9856 14.1689 87.8253 14.2239 87.6603 14.2239C87.4953 14.2239 87.335 14.1689 87.2047 14.0677C87.0744 13.9664 86.9816 13.8247 86.9408 13.6648L85.9027 9.61748L81.8554 8.58594C81.6968 8.54277 81.5567 8.44863 81.4569 8.31802C81.3571 8.1874 81.303 8.02758 81.303 7.8632C81.303 7.69881 81.3571 7.53899 81.4569 7.40838C81.5567 7.27777 81.6968 7.18363 81.8554 7.14047L85.9027 6.10892L86.9408 2.06159C86.9816 1.9017 87.0744 1.75994 87.2047 1.6587C87.335 1.55745 87.4953 1.50249 87.6603 1.50249C87.8253 1.50249 87.9856 1.55745 88.1158 1.6587C88.2461 1.75994 88.339 1.9017 88.3797 2.06159L89.4113 6.10892L93.4652 7.14047C93.6238 7.18363 93.7638 7.27777 93.8636 7.40838C93.9634 7.53899 94.0175 7.69881 94.0175 7.8632C94.0175 8.02758 93.9634 8.1874 93.8636 8.31802C93.7638 8.44863 93.6238 8.54277 93.4652 8.58594Z" fill="var(--fill-0, #F097DD)"/>
<path id="Vector_19" d="M12.1689 76.452L8.12157 77.4901L7.0966 81.5243C7.05585 81.6842 6.96301 81.8259 6.83273 81.9272C6.70244 82.0284 6.54216 82.0834 6.37717 82.0834C6.21217 82.0834 6.05185 82.0284 5.92157 81.9272C5.79128 81.8259 5.69844 81.6842 5.65769 81.5243L4.61957 77.4769L0.559104 76.452C0.399218 76.4112 0.257483 76.3184 0.156238 76.1881C0.0549935 76.0578 0 75.8975 0 75.7325C0 75.5675 0.0549935 75.4072 0.156238 75.277C0.257483 75.1467 0.399218 75.0538 0.559104 75.0131L4.60646 73.975L5.64454 69.9276C5.68529 69.7677 5.77813 69.626 5.90841 69.5247C6.0387 69.4235 6.19902 69.3685 6.36401 69.3685C6.52901 69.3685 6.68929 69.4235 6.81957 69.5247C6.94986 69.626 7.0427 69.7677 7.08345 69.9276L8.12157 73.975L12.1689 75.0131C12.3288 75.0538 12.4705 75.1467 12.5718 75.277C12.673 75.4072 12.728 75.5675 12.728 75.7325C12.728 75.8975 12.673 76.0578 12.5718 76.1881C12.4705 76.3184 12.3288 76.4112 12.1689 76.452Z" fill="var(--fill-0, white)"/>
<path id="Vector_20" d="M65.6831 51.8106L61.6358 52.8421L60.6042 56.8895C60.561 57.0481 60.4669 57.1881 60.3363 57.2879C60.2057 57.3877 60.0459 57.4418 59.8815 57.4418C59.7171 57.4418 59.5573 57.3877 59.4266 57.2879C59.296 57.1881 59.2019 57.0481 59.1587 56.8895L58.1272 52.8421L54.0799 51.8106C53.92 51.7698 53.7782 51.677 53.677 51.5467C53.5757 51.4164 53.5208 51.2561 53.5208 51.0911C53.5208 50.9261 53.5757 50.7658 53.677 50.6356C53.7782 50.5053 53.92 50.4124 54.0799 50.3717L58.1272 49.3336L59.1587 45.2862C59.2019 45.1276 59.296 44.9876 59.4266 44.8878C59.5573 44.788 59.7171 44.7339 59.8815 44.7339C60.0459 44.7339 60.2057 44.788 60.3363 44.8878C60.4669 44.9876 60.561 45.1276 60.6042 45.2862L61.6358 49.3336L65.6831 50.3717C65.8429 50.4124 65.9847 50.5053 66.086 50.6356C66.1872 50.7658 66.2422 50.9261 66.2422 51.0911C66.2422 51.2561 66.1872 51.4164 66.086 51.5467C65.9847 51.677 65.8429 51.7698 65.6831 51.8106Z" fill="var(--fill-0, #F097DD)"/>
</g>
</svg>
