<svg width="16" height="16" viewBox="0 0 16 16" fill="none" xmlns="http://www.w3.org/2000/svg">
<path d="M2.66027 13.714C1.6442 13.714 1.14423 13.173 1.14423 12.632C1.14423 12.2571 1.3969 11.9624 1.78935 11.9624C2.21943 11.9624 2.46673 12.2999 2.46673 12.857V13.5373C2.52049 13.5426 2.56888 13.548 2.61189 13.548C3.22475 13.548 3.67097 13.0498 4.02579 11.5179L5.33216 5.92023H3.92902V5.86131L5.49344 5.21316L5.5042 5.17031C5.96116 3.2098 7.16002 2.47595 8.42876 2.47595C9.57924 2.47595 10.0362 3.09731 10.0362 3.6169C10.0362 4.00258 9.78353 4.32397 9.36957 4.32397C8.90186 4.32397 8.61693 3.97044 8.61693 3.41335V2.67415H8.57929C7.83202 2.68486 7.18152 3.02768 6.77294 4.76321L6.6708 5.19174H8.40726L8.20835 5.92023H6.50414L5.31066 11.0625C4.86445 12.9802 3.87526 13.714 2.66027 13.714Z" fill="black"/>
<path d="M11.5845 11.5339V11.4321C12.5952 11.4321 12.8748 11.1 12.6382 10.2912L12.0253 8.18071H9.89105L9.29968 10.1841C9.04701 11.0518 9.32656 11.4321 10.305 11.4321V11.5339H8.11695V11.4321C8.51478 11.4268 8.78896 11.1322 9.03088 10.3233L10.8319 4.2222C10.6383 3.82581 10.4179 3.64904 10.133 3.64904V3.54727H11.9931L13.9768 10.2912C14.2134 11.1 14.4876 11.4321 14.8585 11.4321V11.5339H11.5845ZM9.95018 7.97716H11.9662L11.0415 4.79535C11.0146 4.70429 10.9878 4.62394 10.9609 4.54359L9.95018 7.97716Z" fill="black"/>
</svg>
