<svg width="16" height="16" viewBox="0 0 16 16" fill="none" xmlns="http://www.w3.org/2000/svg">
<path d="M2.65667 13.7147C1.6406 13.7147 1.14062 13.1736 1.14062 12.6326C1.14062 12.2577 1.3933 11.9631 1.78575 11.9631C2.21583 11.9631 2.46313 12.3005 2.46313 12.8576V13.5379C2.51689 13.5432 2.56528 13.5486 2.60828 13.5486C3.22115 13.5486 3.66737 13.0504 4.02218 11.5185L5.32856 5.92084H3.92542V5.86192L5.48984 5.21377L5.5006 5.17092C5.95756 3.21041 7.15642 2.47656 8.42516 2.47656C9.57564 2.47656 10.0326 3.09793 10.0326 3.61751C10.0326 4.00319 9.77993 4.32458 9.36597 4.32458C8.89825 4.32458 8.61332 3.97105 8.61332 3.41396V2.67476H8.57569C7.82842 2.68547 7.17792 3.02829 6.76934 4.76382L6.6672 5.19235H8.40366L8.20475 5.92084H6.50054L5.30706 11.0632C4.86085 12.9808 3.87165 13.7147 2.65667 13.7147Z" fill="white"/>
<path d="M11.5809 11.5345V11.4328C12.5916 11.4328 12.8712 11.1007 12.6346 10.2918L12.0217 8.18132H9.88745L9.29608 10.1847C9.04341 11.0524 9.32296 11.4328 10.3014 11.4328V11.5345H8.11335V11.4328C8.51118 11.4274 8.78536 11.1328 9.02728 10.3239L10.8283 4.22281C10.6347 3.82642 10.4143 3.64965 10.1294 3.64965V3.54788H11.9895L13.9732 10.2918C14.2098 11.1007 14.484 11.4328 14.8549 11.4328V11.5345H11.5809ZM9.94658 7.97777H11.9626L11.0379 4.79596C11.011 4.7049 10.9842 4.62455 10.9573 4.5442L9.94658 7.97777Z" fill="white"/>
</svg>
