<svg xmlns="http://www.w3.org/2000/svg" width="128" height="52" viewBox="0 0 128 52" fill="none">
  <g clip-path="url(#clip0_234_301)">
    <path d="M35.3243 50.545C25.3262 50.4899 16.3956 47.6299 8.82801 41.0984C3.75408 36.7178 0.838941 31.1594 1.39045 24.2654C1.91045 17.793 5.34953 12.8649 10.3367 9.01216C15.9504 4.67884 22.4267 2.46097 29.4231 1.35401C35.5646 0.380979 41.5879 0.960068 47.3867 2.60673C55.2575 4.84036 62.1515 8.82701 66.5754 16.1858C70.8496 23.2963 69.5929 32.8927 63.9005 38.9475C58.9133 44.2499 52.8112 47.429 45.9488 49.1821C42.5215 50.0605 38.8737 50.1157 35.3243 50.545ZM34.9067 46.8656C37.8967 46.5978 40.9734 46.6845 43.861 45.9912C49.2815 44.6872 54.3948 42.5718 58.7557 38.8805C62.7581 35.4927 65.4369 31.3485 65.5551 26.0854C65.7166 18.8409 61.3873 14.0979 55.7539 10.3555C51.1409 7.29065 45.9842 5.72278 40.5125 4.93096C34.2961 4.02885 28.2452 4.74975 22.3756 6.67217C17.735 8.18883 13.5001 10.5761 10.0689 14.2042C7.65013 16.7569 5.8065 19.5736 5.25892 23.1151C3.97468 31.4391 8.39467 36.9818 14.7174 41.1142C20.7486 45.0496 27.5913 46.9129 34.9067 46.8656Z" fill="#868383"/>
    <path d="M114.747 25.8561C113.459 25.8561 112.49 25.8561 111.233 25.8561C111.154 27.2586 111.182 28.6098 110.961 29.9216C110.867 30.481 110.26 30.9537 109.882 31.4619C109.409 30.9734 108.582 30.5243 108.531 29.9965C108.362 28.2473 108.377 26.4628 108.539 24.7137C108.578 24.2725 109.381 23.6107 109.886 23.5595C111.395 23.4059 112.931 23.5044 113.845 23.5044C114.814 22.5708 115.389 22.0232 115.96 21.4717C116.374 22.0113 116.788 22.551 117.087 22.9489C117.871 23.5556 118.56 24.0914 119.254 24.6271C118.588 25.1628 117.922 25.6986 116.91 26.518C116.945 27.3453 116.697 28.7477 118.372 29.5158C118.699 29.6656 119.006 30.4022 118.915 30.7686C118.84 31.0719 118.174 31.3753 117.749 31.4107C115.688 31.5801 114.842 30.8159 114.759 28.7753C114.72 27.8731 114.747 26.9671 114.747 25.8561Z" fill="black"/>
    <path d="M91.3464 31.4104C91.3464 28.0462 91.2912 24.9223 91.4139 21.8062C91.4295 21.3887 92.3042 20.8411 92.8675 20.6835C93.0882 20.6244 93.7224 21.428 93.8797 21.9323C94.0807 22.5744 93.9942 23.3071 94.0057 23.5395C95.2979 23.709 96.8068 23.4844 97.2128 24.0517C98.071 25.2492 98.8748 26.8999 98.7727 28.2944C98.5635 31.0953 97.5002 31.5877 94.6045 31.2686C93.6079 31.1583 92.5793 31.3474 91.3464 31.4104ZM96.9723 27.3095C96.1051 26.5926 95.629 25.8677 95.0574 25.7889C93.7578 25.6038 93.8089 26.8093 93.9505 27.5341C94.1046 28.3102 94.7033 28.9956 95.1085 29.7204C95.6323 29.0428 96.1569 28.3653 96.9723 27.3095Z" fill="black"/>
    <path d="M85.6273 31.7029C84.9182 31.2538 84.1029 30.911 83.528 30.3319C82.602 29.4023 80.5889 29.4929 79.6671 30.4462C79.1038 31.0292 78.2174 31.2932 77.4729 31.6989C77.3153 31.5256 77.1617 31.3523 77.0081 31.1789C77.3232 30.0483 77.6068 28.9059 77.9574 27.7832C78.5523 25.8765 79.1314 23.9541 79.8562 22.0987C80.0374 21.6338 80.7544 21.098 81.235 21.0902C81.9087 21.0783 83.0314 21.362 83.201 21.8111C84.3549 24.8405 85.3086 27.9486 86.3282 31.0331C86.096 31.2538 85.8637 31.4783 85.6273 31.7029ZM82.9683 27.3774C82.5074 26.2705 82.1647 25.4392 81.6368 24.1628C81.1326 25.5181 80.8174 26.3611 80.4353 27.3774C81.3059 27.3774 81.9204 27.3774 82.9683 27.3774Z" fill="black"/>
    <path d="M126.775 31.1715C125.131 31.3252 123.757 31.5182 122.378 31.5615C120.814 31.6088 119.853 30.5648 119.908 28.9655C119.959 27.4134 120.719 26.5427 122.363 26.6058C122.942 26.6294 123.525 26.6097 124.375 26.6097C123.276 24.6479 121.842 25.8336 120.574 25.7391C120.058 24.1909 120.554 23.5292 122.256 23.4346C125.845 23.2376 127.05 24.6006 126.786 27.7916C126.691 28.9457 126.775 30.1197 126.775 31.1715Z" fill="black"/>
    <path d="M106.966 28.2281C105.391 28.2281 103.977 28.2281 102.531 28.2281C102.901 30.0009 103.685 30.186 106.364 29.2681C107.25 30.2214 106.817 30.9148 105.832 31.3402C103.838 32.203 101.088 31.3836 100.242 29.7566C99.1744 27.6963 99.8794 25.116 101.865 23.8318C103.665 22.6657 106.648 24.0051 106.955 26.1402C107.037 26.7194 106.966 27.3181 106.966 28.2281Z" fill="black"/>
    <path d="M89.7402 26.054C89.7402 27.3658 89.8506 28.6894 89.6851 29.9776C89.6184 30.4976 88.9562 30.9388 88.5625 31.4194C88.1169 30.994 87.3016 30.5803 87.2818 30.1352C87.164 27.3894 87.1715 24.6318 87.2703 21.8861C87.2859 21.441 87.9794 21.0233 88.3616 20.594C88.8186 21.0391 89.5986 21.437 89.6653 21.9334C89.8465 23.2846 89.7287 24.6752 89.7287 26.054C89.7361 26.054 89.7361 26.054 89.7402 26.054Z" fill="black"/>
    <path d="M19.4951 21.2395C17.8997 17.8122 19.8221 14.5819 23.5527 14.3692C26.2276 14.2155 28.7054 14.511 30.0724 17.1464C31.4985 19.8922 31.0336 22.6892 29.7218 25.3561C28.7527 27.3258 27.6654 29.2325 26.3734 31.6513C27.7206 31.6513 28.7763 31.7222 29.8202 31.6355C31.3094 31.5094 31.7466 32.1792 31.7663 33.5816C31.8136 37.0758 31.8648 37.0758 28.4178 37.0758C25.7982 37.0758 23.1745 37.1034 20.5549 37.0482C20.0348 37.0364 19.2903 36.8434 19.0697 36.4809C18.8766 36.1619 19.1603 35.4212 19.4163 34.9761C21.4333 31.4661 23.6394 28.0546 25.4672 24.454C26.0542 23.2959 25.94 21.6058 25.6484 20.2704C25.5342 19.7386 23.9466 19.0492 23.2375 19.2343C21.9415 19.5573 20.803 20.491 19.4951 21.2395Z" fill="black"/>
    <path d="M41.2738 36.7024C40.8209 36.8442 40.7027 36.9033 40.5726 36.919C36.586 37.4942 36.4678 37.3957 36.4678 33.4011C36.4678 27.1769 36.4678 20.9567 36.4678 14.4213C37.7757 14.4213 38.9418 14.3069 40.0684 14.4764C40.5214 14.5433 41.2187 15.2406 41.2227 15.6582C41.2936 22.6664 41.2738 29.6784 41.2738 36.7024Z" fill="black"/>
    <path d="M50.5646 36.7846C50.34 36.8674 50.1627 36.9698 49.9737 36.9973C46.4321 37.5095 46.1445 37.2455 46.1485 33.7552C46.1524 28.055 46.1209 22.3547 46.1249 16.6544C46.1249 15.9571 46.2588 15.2559 46.3376 14.4917C47.7833 14.4917 49.0754 14.4917 50.5606 14.4917C50.5646 21.9411 50.5646 29.3628 50.5646 36.7846Z" fill="black"/>
  </g>
  <defs>
    <clipPath id="clip0_234_301">
      <rect width="126.833" height="50.2389" fill="white" transform="translate(0.62793 0.880371)"/>
    </clipPath>
  </defs>
</svg>