<svg xmlns="http://www.w3.org/2000/svg" width="141" height="58" viewBox="0 0 141 58" fill="none">
  <g clip-path="url(#clip0_234_249)">
    <mask id="mask0_234_249" style="mask-type:luminance" maskUnits="userSpaceOnUse" x="0" y="0" width="58" height="58">
      <path d="M57.8483 0.174316H0.745361V57.8256H57.8483V0.174316Z" fill="white"/>
    </mask>
    <g mask="url(#mask0_234_249)">
      <path d="M47.8781 14.4804L47.5767 17.1479L49.0832 14.956C49.2443 14.7214 49.1527 14.3985 48.8922 14.2841L48.5109 14.1165C48.2315 13.9932 47.9125 14.1763 47.8781 14.4804Z" fill="#949494"/>
      <path d="M50.0764 17.0471L47.3965 16.895L49.669 18.2768C49.912 18.4243 50.2291 18.3151 50.329 18.0488L50.4752 17.659C50.5825 17.3725 50.381 17.0646 50.0764 17.0471Z" fill="#949494"/>
      <path d="M49.6848 15.4137L47.5767 17.0749L50.1941 16.6045C50.4741 16.5545 50.6391 16.2622 50.5371 15.9965L50.3884 15.6073C50.2798 15.3228 49.9251 15.2246 49.6848 15.4137Z" fill="#949494"/>
      <path d="M49.3824 18.9521L47.5432 16.9966L48.2403 19.5634C48.315 19.8376 48.6203 19.9766 48.8763 19.8525L49.2511 19.6706C49.5253 19.5361 49.5916 19.1742 49.3824 18.9521Z" fill="#949494"/>
      <path d="M36.1866 39.8261C37.2865 39.0979 38.3889 38.3748 39.5004 37.6648C44.6263 34.3911 50.0359 31.3306 55.8517 29.4934C55.6016 29.5038 55.3353 29.5155 55.0598 29.5291C52.9822 29.6317 50.8876 29.7682 48.797 29.9683L47.5328 17.5942L47.6316 17.1674L47.6517 17.1941L47.6413 17.1259L47.6498 17.0895L47.796 16.9991L47.6686 17.0069L47.6822 16.9491L47.6296 17.0096L47.6237 17.0102L47.2496 14.5409C47.2035 14.2388 46.878 14.0672 46.6031 14.2011L46.2283 14.383C45.973 14.5071 45.8931 14.8332 46.0633 15.0612L47.3198 16.7478L45.491 15.325C45.2499 15.1372 44.8958 15.2373 44.788 15.5238L44.6419 15.9135C44.5418 16.18 44.7087 16.471 44.9887 16.5197L47.4698 16.9491L47.5198 17.0167L47.475 17.0193L47.4718 16.9894L47.4698 17.02L45.118 17.168C44.8127 17.1876 44.6139 17.4968 44.7231 17.7827L44.8718 18.1718C44.9732 18.4375 45.2915 18.5447 45.5331 18.3959L47.4555 17.2103L45.9191 18.9734C45.7184 19.2041 45.7983 19.5634 46.0783 19.6862L46.4596 19.8538C46.7194 19.9681 47.0196 19.818 47.0839 19.5413L47.3776 18.2718L46.4947 30.2171C45.8223 30.2983 45.1518 30.3873 44.4821 30.4854L44.3436 26.9968L40.271 23.7452L36.6069 27.1891V32.1602C35.2836 32.5468 33.9783 32.9937 32.7005 33.5115C32.1665 33.7279 31.6506 33.9702 31.1328 34.2163C30.9704 34.2976 29.7861 35.0557 29.6919 34.9973C30.6814 35.6073 31.6441 36.2602 32.581 36.9462C33.8211 37.8558 35.0224 38.8192 36.1866 39.8261ZM39.3809 26.9181L40.4867 26.0255L41.7158 26.8681L41.7808 28.3343L39.3809 28.3525V26.9181Z" fill="#949494"/>
      <path d="M37.4929 40.9911C39.3477 42.688 41.1044 44.4934 42.772 46.3709C42.9189 46.5365 43.0651 46.7029 43.2106 46.8698C44.5918 45.7167 45.8787 44.4505 47.1085 43.1395C48.5053 41.6498 49.8293 40.0933 51.139 38.527C52.5046 36.8937 53.6447 35.1357 54.7264 33.305C55.1298 32.6222 55.5359 31.9362 55.9367 31.2456C55.645 31.3404 55.3534 31.4373 55.0635 31.5392C48.7573 33.7461 43.0507 37.3134 37.4929 40.9911Z" fill="#949494"/>
      <path d="M51.8821 40.272C49.5329 43.0669 47.1 45.8019 44.3032 48.1465C45.2374 49.2588 46.1437 50.3963 47.0174 51.5579C52.8891 46.8362 56.8429 39.8329 57.5439 31.894C55.8892 34.8396 54.0585 37.6831 51.8821 40.272Z" fill="#949494"/>
      <path d="M31.601 38.0424C28.1565 35.6049 24.4223 33.817 20.4314 32.4509C18.1732 31.6777 15.865 31.0508 13.5262 30.576V28.265C14.3052 28.3001 14.9379 28.3626 15.3654 28.5198C14.958 28.1651 14.476 27.6772 14.0167 27.0327C14.0096 27.0229 14.0031 27.0132 13.9966 27.0035C14.5618 27.073 15.0275 27.21 15.3654 27.3341C14.958 26.9794 14.476 26.4915 14.0167 25.8471C13.9862 25.8042 13.9576 25.7619 13.9284 25.7197C14.5234 25.786 15.0139 25.9283 15.3654 26.0576C14.975 25.7171 14.515 25.2526 14.0732 24.6465C14.6034 24.7186 15.0432 24.8479 15.3654 24.9667C14.958 24.6121 14.476 24.1242 14.0167 23.4797C13.6743 22.9989 13.4216 22.5396 13.2345 22.1407C13.0208 22.5643 12.7421 23.0438 12.3795 23.5453C11.9579 24.1294 11.5259 24.5991 11.1426 24.9667C11.4408 24.8576 11.8572 24.7309 12.3646 24.6562C11.9476 25.2305 11.5213 25.6944 11.1426 26.0576C11.4687 25.938 11.9365 25.7976 12.5108 25.7269C12.4686 25.7886 12.4251 25.8503 12.3795 25.9127C11.9579 26.4967 11.5259 26.9664 11.1426 27.3341C11.4551 27.2192 11.8981 27.0859 12.44 27.0125C12.4199 27.0411 12.4004 27.069 12.3795 27.0983C11.9579 27.6824 11.5259 28.152 11.1426 28.5198C11.5539 28.3691 12.1899 28.3001 12.9818 28.2645V30.4719C12.3795 30.3556 11.7767 30.2465 11.1712 30.1511C10.0401 29.9718 8.9039 29.7937 7.7631 29.643V27.4965C8.87466 27.5342 9.77377 27.4556 10.3766 27.6889C9.82121 27.1795 9.16308 26.4792 8.53616 25.5554C8.52645 25.5411 8.51739 25.5268 8.50824 25.5124C9.27937 25.6118 9.91477 25.8087 10.3766 25.9874C9.82121 25.478 9.16308 24.7777 8.53616 23.8539C8.49457 23.7922 8.4543 23.7311 8.4147 23.6694C9.22806 23.7643 9.89657 23.9702 10.3766 24.1553C9.84328 23.6668 9.21571 22.9996 8.61218 22.1297C9.33653 22.233 9.93552 22.4201 10.3766 22.5903C9.82121 22.081 9.16308 21.3807 8.53616 20.4568C8.06909 19.7676 7.72412 19.1075 7.46945 18.5352C7.17711 19.1432 6.79771 19.8312 6.30331 20.5504C5.72772 21.3885 5.13848 22.0628 4.61551 22.5903C5.0222 22.4331 5.59 22.2519 6.28318 22.1446C5.71408 22.969 5.13263 23.6343 4.61551 24.1553C5.06053 23.9832 5.69849 23.7824 6.48198 23.6811C6.42415 23.7695 6.36438 23.8578 6.30331 23.9475C5.72772 24.7855 5.13848 25.4599 4.61551 25.9874C5.04233 25.8224 5.64651 25.6314 6.38582 25.5261C6.35854 25.567 6.3319 25.6073 6.30331 25.6489C5.72772 26.487 5.13848 27.1613 4.61551 27.6889C5.195 27.4653 6.09998 27.5348 7.22908 27.4965V29.5755C5.3821 29.3467 3.52538 29.2025 1.66411 29.2623C1.45232 29.2688 1.28602 29.287 1.15479 29.3253C2.58922 29.6761 3.97949 30.2011 5.37106 30.7143C7.39085 31.4594 9.45348 32.0773 11.4642 32.851C18.7969 35.6731 25.5884 39.7972 31.7926 44.5962C34.7817 46.9083 37.5369 49.4744 40.1959 52.1569C40.9665 52.9345 41.7311 53.731 42.4691 54.5522C43.6651 53.92 44.8117 53.2067 45.8999 52.4174C44.279 50.2586 42.5425 48.1862 40.7112 46.2054C37.941 43.2098 34.9343 40.4007 31.601 38.0424Z" fill="#949494"/>
      <path d="M37.9609 52.3346C35.3201 49.7399 32.5895 47.2751 29.6155 45.0643C26.5822 42.81 23.4027 40.7018 20.1233 38.8231C16.8074 36.9235 13.3298 35.3194 9.73855 34.0143C7.98055 33.375 6.19333 32.8255 4.43796 32.1764C3.2374 31.7314 2.01344 31.261 0.758301 30.9551C0.760899 30.9986 0.764147 31.0421 0.766747 31.0856C3.36343 32.7708 5.99844 34.3976 8.55028 36.151C14.0977 39.9633 18.9396 44.6206 23.6379 49.4151C25.8831 51.7064 28.2083 53.9503 30.3372 56.3508C30.7393 56.8043 31.1291 57.2662 31.5053 57.7384C34.8224 57.4709 37.9791 56.6334 40.8772 55.3263C39.934 54.2966 38.949 53.3052 37.9609 52.3346Z" fill="#949494"/>
      <path d="M4.76964 39.9771C3.7159 38.7557 2.66606 37.5298 1.57788 36.3396C3.09483 42.3502 6.60948 47.7762 11.4579 51.6391C13.3465 53.1436 15.4175 54.3929 17.6075 55.3662C15.3078 51.9698 12.7669 48.7416 10.0078 45.7038C8.2674 43.786 6.46331 41.939 4.76964 39.9771Z" fill="#949494"/>
      <path d="M21.3739 49.5373C19.0448 47.1817 16.6735 44.865 14.1821 42.6802C11.7433 40.5415 9.17658 38.5959 6.47851 36.7962C4.66142 35.5847 2.81249 34.4205 0.974609 33.2407C0.975259 33.2459 0.975909 33.2511 0.977209 33.2563C2.9866 35.2566 4.80044 37.4375 6.66106 39.5742C8.395 41.5647 10.266 43.4241 12.0136 45.4016C13.6923 47.3 15.2879 49.2716 16.801 51.3044C18.0353 52.9636 19.2072 54.6677 20.3188 56.4094C23.1682 57.343 26.1644 57.8309 29.1854 57.8309C29.2477 57.8309 29.31 57.8289 29.3718 57.8283C28.9384 57.3281 28.4928 56.8389 28.0393 56.3595C25.8552 54.0518 23.6073 51.7969 21.3739 49.5373Z" fill="#949494"/>
      <path d="M27.7951 0.328935C27.7965 0.328935 27.7971 0.328935 27.7984 0.328935C28.2493 0.304897 28.7079 0.291904 29.1607 0.289306C29.1926 0.289306 29.2179 0.263319 29.2179 0.231486C29.2179 0.200303 29.1919 0.174316 29.1607 0.174316C28.706 0.176915 28.2447 0.189908 27.7926 0.213946C27.7607 0.215894 27.7367 0.24253 27.7386 0.274364C27.7393 0.305547 27.7647 0.328935 27.7951 0.328935Z" fill="#949494"/>
      <path d="M17.2565 2.96452C17.2643 2.96452 17.2727 2.96258 17.2805 2.95932C17.6911 2.76702 18.1121 2.58187 18.5304 2.41037C18.5597 2.39802 18.5734 2.36489 18.5617 2.33565C18.55 2.30642 18.5162 2.29277 18.487 2.30447C18.0666 2.47727 17.6444 2.66308 17.2318 2.85603C17.2032 2.86967 17.1909 2.90345 17.2046 2.93204C17.2143 2.95218 17.2344 2.96452 17.2565 2.96452Z" fill="#949494"/>
      <path d="M12.5541 5.74762C12.5657 5.74762 12.5774 5.74372 12.5878 5.73657C12.9542 5.46891 13.3317 5.20775 13.7085 4.95893C13.7352 4.94139 13.7422 4.90566 13.7247 4.87968C13.7072 4.85368 13.6721 4.84589 13.6455 4.86343C13.2667 5.1129 12.888 5.37536 12.5203 5.64432C12.4949 5.66316 12.4891 5.69889 12.5079 5.72423C12.519 5.73982 12.5365 5.74762 12.5541 5.74762Z" fill="#949494"/>
      <path d="M10.4194 7.46084C10.433 7.46084 10.4466 7.4563 10.457 7.44654C10.7962 7.14575 11.1463 6.84952 11.4984 6.56626C11.5231 6.54612 11.527 6.5104 11.5069 6.4857C11.4874 6.46102 11.451 6.45712 11.4263 6.47726C11.0735 6.76181 10.7215 7.05935 10.381 7.36144C10.3576 7.38223 10.355 7.41862 10.3765 7.442C10.3882 7.45434 10.4038 7.46084 10.4194 7.46084Z" fill="#949494"/>
      <path d="M22.4001 1.13543C22.4047 1.13543 22.4092 1.13478 22.4138 1.13348C22.8529 1.02369 23.2999 0.923642 23.7437 0.835289C23.7748 0.829442 23.795 0.798908 23.7885 0.767724C23.782 0.736541 23.7527 0.716401 23.7209 0.722898C23.2759 0.811252 22.8263 0.911948 22.3858 1.02239C22.3553 1.03019 22.3365 1.06137 22.3443 1.09191C22.3514 1.11789 22.3748 1.13543 22.4001 1.13543Z" fill="#949494"/>
      <path d="M25.0834 0.602156C25.0859 0.602156 25.0892 0.602156 25.0918 0.601506C25.5394 0.534592 25.9942 0.478071 26.4444 0.432595C26.4756 0.429347 26.499 0.401411 26.4958 0.370228C26.4925 0.339044 26.4652 0.315657 26.4333 0.318905C25.9818 0.364381 25.5245 0.421551 25.0756 0.488466C25.0443 0.493013 25.0229 0.522248 25.0275 0.553431C25.0308 0.582016 25.0555 0.602156 25.0834 0.602156Z" fill="#949494"/>
      <path d="M14.8417 4.24228C14.8514 4.24228 14.8619 4.23969 14.8709 4.23449C15.2601 4.00386 15.6603 3.77973 16.0618 3.56795C16.0897 3.553 16.1001 3.51857 16.0858 3.49063C16.0708 3.4627 16.0364 3.45231 16.0085 3.46659C15.6057 3.67968 15.2036 3.90511 14.8131 4.13639C14.7859 4.15264 14.7767 4.18771 14.793 4.215C14.8028 4.23189 14.8222 4.24228 14.8417 4.24228Z" fill="#949494"/>
      <path d="M8.47314 9.36813C8.4887 9.36813 8.50369 9.36228 8.51473 9.34993C8.82333 9.0186 9.14362 8.69056 9.46713 8.3748C9.48986 8.35272 9.48986 8.31633 9.46778 8.29424C9.44571 8.27215 9.40997 8.27086 9.38724 8.29359C9.06241 8.61059 8.7408 8.94002 8.43154 9.27259C8.41012 9.29598 8.41142 9.33172 8.43418 9.35322C8.44522 9.36294 8.45881 9.36813 8.47314 9.36813Z" fill="#949494"/>
      <path d="M1.85546 21.1642C1.86065 21.1654 1.86585 21.166 1.87105 21.166C1.89638 21.166 1.91912 21.1492 1.92627 21.1238C2.04645 20.688 2.17964 20.2487 2.32061 19.8193C2.33035 19.7894 2.31411 19.757 2.28423 19.7472C2.25434 19.7368 2.22186 19.7537 2.21212 19.7836C2.07049 20.215 1.93666 20.6554 1.81582 21.094C1.80673 21.1238 1.82492 21.155 1.85546 21.1642Z" fill="#949494"/>
      <path d="M1.26586 23.8274C1.26911 23.828 1.27235 23.828 1.27561 23.828C1.30289 23.828 1.32693 23.8085 1.33212 23.7806C1.41008 23.3349 1.49974 22.8853 1.59913 22.4442C1.60628 22.4138 1.58679 22.3825 1.5556 22.376C1.52507 22.3695 1.49389 22.3884 1.48739 22.4196C1.38799 22.8626 1.2977 23.3142 1.21974 23.7618C1.21389 23.7923 1.23468 23.8222 1.26586 23.8274Z" fill="#949494"/>
      <path d="M2.70596 18.5659C2.71246 18.5685 2.71961 18.5699 2.72676 18.5699C2.74949 18.5699 2.77158 18.5562 2.78003 18.5328C2.94179 18.1112 3.1159 17.6883 3.29715 17.2751C3.31015 17.2459 3.2965 17.2127 3.26792 17.1997C3.23934 17.1874 3.20555 17.2004 3.19256 17.229C3.01001 17.6434 2.83525 18.0683 2.67283 18.4919C2.66179 18.5211 2.67673 18.5542 2.70596 18.5659Z" fill="#949494"/>
      <path d="M6.70775 11.4539C6.72464 11.4539 6.74218 11.4461 6.75323 11.4318C7.02933 11.0719 7.31648 10.7152 7.60753 10.371C7.62766 10.3469 7.62506 10.3105 7.60103 10.2903C7.57699 10.2702 7.54061 10.2728 7.52047 10.2968C7.22813 10.6425 6.93968 11.0011 6.66227 11.3623C6.64278 11.3876 6.64798 11.4233 6.67266 11.4422C6.68307 11.45 6.6954 11.4539 6.70775 11.4539Z" fill="#949494"/>
      <path d="M5.11896 13.6869C5.12871 13.6927 5.1391 13.6954 5.1495 13.6954C5.16833 13.6954 5.18718 13.6856 5.19822 13.6687C5.43794 13.2854 5.69001 12.9027 5.94728 12.5311C5.96547 12.5052 5.95897 12.4695 5.93299 12.4513C5.90699 12.4331 5.87127 12.4396 5.85307 12.4655C5.59452 12.8384 5.3418 13.2224 5.10077 13.6077C5.08388 13.6349 5.09232 13.67 5.11896 13.6869Z" fill="#949494"/>
      <path d="M3.79951 16.0706C3.80796 16.0745 3.8164 16.0765 3.82485 16.0765C3.84564 16.0765 3.86578 16.0648 3.87617 16.0446C4.07756 15.6412 4.2913 15.2364 4.51219 14.8414C4.52778 14.8142 4.51803 14.7791 4.4901 14.7635C4.46216 14.7479 4.42773 14.7577 4.41214 14.7856C4.18996 15.1819 3.97557 15.5886 3.77353 15.9933C3.75988 16.0219 3.77157 16.0563 3.79951 16.0706Z" fill="#949494"/>
      <path d="M41.0681 2.8215C41.478 3.00794 41.8899 3.20739 42.2927 3.41398C42.3012 3.41853 42.3102 3.42048 42.3187 3.42048C42.3395 3.42048 42.3596 3.40943 42.3694 3.3893C42.3836 3.36136 42.3726 3.32693 42.3446 3.31264C41.9406 3.10475 41.5267 2.90465 41.1149 2.71755C41.0863 2.70456 41.0525 2.7169 41.0388 2.74613C41.0265 2.77472 41.0395 2.8085 41.0681 2.8215Z" fill="#949494"/>
      <path d="M55.2098 16.9787C55.2195 16.9995 55.2404 17.0125 55.2618 17.0125C55.2696 17.0125 55.278 17.0106 55.2852 17.0073C55.3138 16.9943 55.3268 16.9605 55.3138 16.9313C55.126 16.5181 54.9259 16.103 54.7174 15.6969C54.7031 15.669 54.6686 15.658 54.6401 15.6722C54.6121 15.6866 54.6011 15.721 54.6154 15.7496C54.8233 16.1543 55.0227 16.5675 55.2098 16.9787Z" fill="#949494"/>
      <path d="M53.9683 14.551C53.9786 14.5692 53.9982 14.5795 54.0176 14.5795C54.0274 14.5795 54.0371 14.5769 54.0462 14.5717C54.0735 14.5562 54.0832 14.5211 54.067 14.4938C53.8403 14.1001 53.6012 13.7064 53.3549 13.3231C53.3381 13.2965 53.3023 13.2887 53.2757 13.3055C53.2491 13.3224 53.2413 13.3582 53.2582 13.3848C53.5038 13.7662 53.7422 14.1585 53.9683 14.551Z" fill="#949494"/>
      <path d="M52.4923 12.2521C52.5034 12.2677 52.5209 12.2761 52.5391 12.2761C52.5508 12.2761 52.5625 12.2729 52.5723 12.2657C52.5982 12.2475 52.6041 12.2118 52.5859 12.1858C52.3215 11.8142 52.0453 11.4452 51.766 11.0892C51.7465 11.0639 51.7101 11.06 51.6854 11.0794C51.6608 11.0989 51.6562 11.1347 51.6757 11.1594C51.9537 11.5147 52.2286 11.8818 52.4923 12.2521Z" fill="#949494"/>
      <path d="M56.2205 19.5164C56.229 19.5405 56.2511 19.5554 56.2745 19.5554C56.2803 19.5554 56.2868 19.5541 56.2927 19.5522C56.3225 19.5418 56.3388 19.5093 56.3284 19.4794C56.1816 19.0486 56.0217 18.616 55.8541 18.1924C55.8424 18.1632 55.8093 18.1489 55.7801 18.1606C55.7509 18.1723 55.7365 18.2055 55.7482 18.2347C55.9152 18.6563 56.0744 19.0877 56.2205 19.5164Z" fill="#949494"/>
      <path d="M57.7632 27.5837H57.7659C57.797 27.5824 57.8217 27.5558 57.8204 27.524C57.8015 27.0692 57.7724 26.6099 57.732 26.1584C57.7295 26.1272 57.6989 26.1038 57.6703 26.1064C57.6391 26.109 57.6157 26.1369 57.6184 26.1681C57.658 26.6177 57.6879 27.0757 57.7061 27.5285C57.7074 27.5596 57.7327 27.5837 57.7632 27.5837Z" fill="#949494"/>
      <path d="M50.812 10.1094C50.823 10.1225 50.8393 10.129 50.8555 10.129C50.8685 10.129 50.8821 10.1244 50.8932 10.1153C50.9172 10.0945 50.9198 10.0581 50.899 10.0347C50.6015 9.69107 50.2916 9.35068 49.9785 9.02198C49.9564 8.99917 49.9207 8.99859 49.8979 9.02001C49.8752 9.04208 49.8739 9.07782 49.896 9.10055C50.2072 9.42801 50.5157 9.76708 50.812 10.1094Z" fill="#949494"/>
      <path d="M57.5236 24.8643C57.5263 24.8643 57.5288 24.8643 57.5315 24.8637C57.5627 24.8591 57.5848 24.8306 57.5802 24.7994C57.5185 24.3479 57.4451 23.8938 57.3619 23.4481C57.356 23.417 57.3255 23.3968 57.295 23.4026C57.2638 23.4085 57.2437 23.4384 57.2495 23.4696C57.332 23.9126 57.4055 24.3654 57.4665 24.815C57.471 24.8436 57.4957 24.8643 57.5236 24.8643Z" fill="#949494"/>
      <path d="M56.9666 22.1355C56.9731 22.1615 56.9964 22.1797 57.0225 22.1797C57.027 22.1797 57.031 22.1791 57.0355 22.1784C57.066 22.1713 57.0855 22.1401 57.0776 22.1096C56.973 21.6671 56.8562 21.2215 56.7301 20.7856C56.721 20.755 56.6892 20.7375 56.6593 20.7465C56.6288 20.755 56.6112 20.7869 56.6203 20.8174C56.7457 21.2514 56.862 21.6951 56.9666 22.1355Z" fill="#949494"/>
      <path d="M33.2375 0.555881C33.6851 0.617598 34.1379 0.691009 34.583 0.774815C34.5869 0.775464 34.5902 0.776114 34.5934 0.776114C34.6206 0.776114 34.6447 0.756625 34.6492 0.729339C34.6551 0.698156 34.635 0.668271 34.6037 0.662424C34.1574 0.578618 33.7027 0.504558 33.2531 0.44284C33.2206 0.438943 33.1927 0.460381 33.1888 0.491564C33.1843 0.522748 33.2064 0.551983 33.2375 0.555881Z" fill="#949494"/>
      <path d="M48.9257 8.13674C48.9367 8.14713 48.9511 8.15233 48.9653 8.15233C48.9803 8.15233 48.9952 8.14648 49.0069 8.13478C49.029 8.11204 49.0277 8.07567 49.0049 8.05358C48.6756 7.73915 48.3345 7.42991 47.9928 7.13366C47.9688 7.11287 47.933 7.11548 47.9122 7.13951C47.8914 7.16355 47.8941 7.19928 47.918 7.22007C48.2579 7.51567 48.5976 7.8236 48.9257 8.13674Z" fill="#949494"/>
      <path d="M30.5313 0.313964C30.9847 0.332804 31.4421 0.362688 31.8916 0.402967C31.8936 0.402967 31.8949 0.402967 31.8969 0.402967C31.9261 0.402967 31.9507 0.380879 31.954 0.350994C31.9566 0.319811 31.9339 0.291875 31.9021 0.288627C31.4511 0.248349 30.9918 0.217815 30.5365 0.198975C30.5059 0.200274 30.478 0.222362 30.4767 0.253546C30.4747 0.286029 30.4994 0.312664 30.5313 0.313964Z" fill="#949494"/>
      <path d="M38.5416 1.81721C38.9683 1.96338 39.3984 2.12255 39.8201 2.29015C39.8272 2.29276 39.8343 2.29406 39.8409 2.29406C39.8636 2.29406 39.8851 2.28041 39.8941 2.25767C39.9058 2.22844 39.8915 2.19531 39.8623 2.18361C39.4394 2.01535 39.0074 1.85554 38.5786 1.70872C38.5487 1.69831 38.5162 1.71456 38.5058 1.74444C38.4961 1.77433 38.5117 1.80681 38.5416 1.81721Z" fill="#949494"/>
      <path d="M35.9166 1.06024C36.3564 1.16483 36.8 1.28177 37.2347 1.40781C37.2399 1.40911 37.2451 1.40975 37.2503 1.40975C37.275 1.40975 37.2977 1.39351 37.3055 1.36818C37.314 1.33765 37.2971 1.30646 37.2665 1.29736C36.8299 1.17133 36.385 1.05375 35.9432 0.948499C35.9126 0.940703 35.8815 0.960193 35.8743 0.990726C35.8665 1.02191 35.8854 1.0531 35.9166 1.06024Z" fill="#949494"/>
      <path d="M46.8694 6.35228C46.8798 6.36072 46.8921 6.36463 46.9045 6.36463C46.9214 6.36463 46.9382 6.35683 46.9493 6.34254C46.9688 6.31785 46.9648 6.28147 46.9396 6.26262C46.5822 5.98198 46.2139 5.70587 45.8448 5.44341C45.8195 5.42522 45.7838 5.43106 45.765 5.45706C45.7467 5.48304 45.7526 5.51877 45.7785 5.53696C46.1469 5.79812 46.514 6.07228 46.8694 6.35228Z" fill="#949494"/>
      <path d="M43.486 4.06696C43.8765 4.29175 44.2682 4.53017 44.6489 4.77444C44.6586 4.78028 44.669 4.78354 44.68 4.78354C44.6989 4.78354 44.7171 4.77444 44.7281 4.75754C44.745 4.73091 44.7373 4.69583 44.7113 4.67829C44.3286 4.43272 43.9356 4.19365 43.5438 3.96756C43.5166 3.95197 43.4815 3.96107 43.4659 3.98835C43.4489 4.01564 43.4587 4.05072 43.486 4.06696Z" fill="#949494"/>
      <path d="M0.928213 26.5393H0.93276C0.962645 26.5393 0.987332 26.5166 0.98993 26.4867C1.02501 26.0345 1.07114 25.5784 1.12766 25.1302C1.13155 25.099 1.10947 25.0704 1.07828 25.0665C1.04645 25.062 1.01851 25.0847 1.01462 25.1159C0.958097 25.5655 0.911971 26.0242 0.876889 26.4775C0.872992 26.5094 0.89638 26.5367 0.928213 26.5393Z" fill="#949494"/>
      <path d="M19.7877 1.92517C19.7942 1.92517 19.8007 1.92387 19.8065 1.92192C20.234 1.7699 20.6712 1.62697 21.1046 1.49574C21.1351 1.48665 21.1519 1.45482 21.1429 1.42428C21.1338 1.3944 21.102 1.37686 21.0714 1.38595C20.6361 1.51718 20.1977 1.66141 19.7682 1.81408C19.7383 1.82447 19.7227 1.8576 19.7338 1.88684C19.7422 1.91087 19.7643 1.92517 19.7877 1.92517Z" fill="#949494"/>
      <path d="M57.8044 30.2614C57.8031 30.292 57.7778 30.3154 57.7472 30.3154C57.7459 30.3154 57.7452 30.3154 57.744 30.3154C57.7121 30.3134 57.6881 30.2868 57.6901 30.2549C57.7141 29.8041 57.7278 29.3454 57.731 28.8926C57.731 28.8614 57.7569 28.8354 57.7881 28.8354C57.8199 28.8354 57.846 28.8614 57.846 28.8933C57.8427 29.348 57.8291 29.8086 57.8044 30.2614Z" fill="#949494"/>
      <path d="M57.7888 28.8354C57.7569 28.8354 57.7316 28.8608 57.731 28.8926C57.7283 29.3461 57.7141 29.8041 57.6901 30.2549C57.6881 30.2868 57.7128 30.3134 57.744 30.3154H57.7472C57.7778 30.3154 57.8025 30.292 57.8044 30.2614C57.8284 29.8086 57.8427 29.348 57.8453 28.8933C57.846 28.8614 57.82 28.8361 57.7888 28.8354Z" fill="#949494"/>
    </g>
    <path d="M66.188 26.6938V18.3081H69.4964C70.1297 18.3081 70.6701 18.4214 71.1178 18.648C71.5682 18.8719 71.9108 19.1898 72.1456 19.602C72.383 20.0115 72.5018 20.4933 72.5018 21.0474C72.5018 21.6043 72.3817 22.0833 72.1415 22.4846C71.9012 22.8831 71.5533 23.1889 71.0974 23.4018C70.6443 23.6147 70.0956 23.7211 69.4514 23.7211H67.2362V22.2963H69.1648C69.5032 22.2963 69.7843 22.2498 70.0082 22.157C70.232 22.0642 70.3986 21.925 70.5077 21.7393C70.6196 21.5537 70.6756 21.3231 70.6756 21.0474C70.6756 20.769 70.6196 20.5342 70.5077 20.3431C70.3986 20.152 70.2307 20.0073 70.0041 19.9091C69.7803 19.8081 69.4977 19.7576 69.1565 19.7576H67.9609V26.6938H66.188ZM70.7166 22.8776L72.8007 26.6938H70.8435L68.8044 22.8776H70.7166ZM77.7551 24.0159V20.4046H79.4994V26.6938H77.8247V25.5514H77.7592C77.6173 25.9199 77.3811 26.216 77.0508 26.4399C76.7233 26.6637 76.3234 26.7757 75.8512 26.7757C75.4308 26.7757 75.0609 26.6801 74.7415 26.4891C74.4221 26.298 74.1723 26.0264 73.9922 25.6742C73.8147 25.3221 73.7247 24.9004 73.7219 24.409V20.4046H75.4662V24.0979C75.469 24.469 75.5686 24.7625 75.7652 24.9782C75.9617 25.1938 76.2251 25.3016 76.5554 25.3016C76.7656 25.3016 76.9621 25.2538 77.145 25.1583C77.3279 25.0601 77.4753 24.9153 77.5872 24.7243C77.7018 24.5332 77.7578 24.2971 77.7551 24.0159ZM80.8946 26.6938V20.4046H82.5856V21.5019H82.6515C82.766 21.1115 82.9579 20.8168 83.2289 20.6174C83.499 20.4154 83.8095 20.3145 84.162 20.3145C84.2493 20.3145 84.3432 20.3199 84.4445 20.3308C84.5458 20.3418 84.6339 20.3568 84.7105 20.3759V21.9236C84.629 21.899 84.5153 21.8772 84.3712 21.8581C84.2262 21.839 84.0936 21.8294 83.9734 21.8294C83.7173 21.8294 83.4875 21.8854 83.2857 21.9973C83.0864 22.1065 82.9283 22.2594 82.8105 22.4559C82.696 22.6525 82.6392 22.879 82.6392 23.1356V26.6938H80.8946ZM87.2257 26.8125C86.8247 26.8125 86.4672 26.7429 86.1526 26.6037C85.8388 26.4617 85.5909 26.2529 85.4081 25.9772C85.2277 25.6988 85.1379 25.3521 85.1379 24.9372C85.1379 24.5878 85.2014 24.2944 85.3298 24.0568C85.4583 23.8194 85.6329 23.6283 85.8545 23.4836C86.0752 23.339 86.3264 23.2298 86.6072 23.1561C86.8914 23.0824 87.1887 23.0305 87.5 23.0005C87.8657 22.9623 88.1605 22.9268 88.3845 22.894C88.6086 22.8585 88.7708 22.8067 88.8721 22.7384C88.9726 22.6702 89.0236 22.5692 89.0236 22.4354V22.4109C89.0236 22.1515 88.9413 21.9509 88.7774 21.8089C88.6168 21.667 88.387 21.596 88.0897 21.596C87.7759 21.596 87.5264 21.6656 87.3402 21.8049C87.1549 21.9414 87.0322 22.1133 86.9721 22.3208L85.3587 22.1898C85.4402 21.8076 85.6016 21.4773 85.8421 21.1989C86.0818 20.9177 86.3923 20.7021 86.7711 20.552C87.1533 20.3991 87.5955 20.3227 88.0979 20.3227C88.4471 20.3227 88.7815 20.3636 89.1011 20.4455C89.4231 20.5273 89.708 20.6543 89.9568 20.8263C90.208 20.9983 90.4056 21.2193 90.5506 21.4896C90.6955 21.7571 90.7672 22.0778 90.7672 22.4518V26.6938H89.1134V25.8216H89.064C88.9635 26.0181 88.8284 26.1915 88.6588 26.3416C88.49 26.4891 88.2865 26.605 88.0485 26.6897C87.8113 26.7716 87.5371 26.8125 87.2257 26.8125ZM87.7257 25.6087C87.9818 25.6087 88.2083 25.5582 88.4051 25.4572C88.602 25.3535 88.756 25.2142 88.868 25.0395C88.98 24.8649 89.0352 24.667 89.0352 24.4458V23.7785C88.9808 23.814 88.9059 23.8467 88.8103 23.8767C88.7173 23.904 88.6127 23.9299 88.4949 23.9546C88.3779 23.9764 88.2602 23.9968 88.1432 24.0159C88.0255 24.0323 87.9192 24.0473 87.8237 24.061C87.6186 24.091 87.4399 24.1388 87.2875 24.2043C87.1343 24.2698 87.0157 24.3585 86.9309 24.4704C86.8461 24.5797 86.8041 24.7161 86.8041 24.8799C86.8041 25.1174 86.8897 25.2989 87.0618 25.4245C87.2365 25.5473 87.458 25.6087 87.7257 25.6087ZM93.8647 18.3081V26.6938H92.1212V18.3081H93.8647ZM68.9968 40.8176C68.3526 40.8176 67.7985 40.6812 67.3345 40.4081C66.8731 40.1325 66.5183 39.7503 66.2698 39.2617C66.0242 38.7731 65.9014 38.2108 65.9014 37.5747C65.9014 36.9305 66.0256 36.3655 66.274 35.8796C66.5251 35.391 66.8814 35.0102 67.3426 34.7372C67.8039 34.4615 68.3526 34.3237 68.9887 34.3237C69.5374 34.3237 70.0178 34.4233 70.43 34.6226C70.8422 34.8218 71.1683 35.1017 71.4085 35.462C71.6488 35.8223 71.7811 36.2454 71.8057 36.7313H70.1597C70.1133 36.4174 69.9905 36.1648 69.7912 35.9738C69.5947 35.78 69.3367 35.683 69.0173 35.683C68.7471 35.683 68.511 35.7568 68.309 35.9042C68.1097 36.0489 67.9541 36.2604 67.8422 36.5388C67.7302 36.8173 67.6743 37.1544 67.6743 37.5502C67.6743 37.9515 67.7289 38.2927 67.8381 38.5738C67.95 38.8549 68.1069 39.0692 68.309 39.2167C68.511 39.3641 68.7471 39.4378 69.0173 39.4378C69.2166 39.4378 69.3954 39.3969 69.5537 39.3149C69.7148 39.233 69.8472 39.1143 69.9509 38.9587C70.0574 38.8004 70.127 38.6107 70.1597 38.3895H71.8057C71.7784 38.87 71.6474 39.2931 71.4127 39.6588C71.1806 40.022 70.8599 40.3058 70.4504 40.5105C70.041 40.7153 69.5565 40.8176 68.9968 40.8176ZM75.7641 40.8176C75.1281 40.8176 74.578 40.6825 74.114 40.4123C73.6527 40.1393 73.2965 39.7599 73.0453 39.274C72.7942 38.7853 72.6686 38.219 72.6686 37.5747C72.6686 36.9251 72.7942 36.3573 73.0453 35.8714C73.2965 35.3828 73.6527 35.0033 74.114 34.7331C74.578 34.4602 75.1281 34.3237 75.7641 34.3237C76.4002 34.3237 76.9488 34.4602 77.4101 34.7331C77.8741 35.0033 78.2317 35.3828 78.4829 35.8714C78.734 36.3573 78.8596 36.9251 78.8596 37.5747C78.8596 38.219 78.734 38.7853 78.4829 39.274C78.2317 39.7599 77.8741 40.1393 77.4101 40.4123C76.9488 40.6825 76.4002 40.8176 75.7641 40.8176ZM75.7723 39.4664C76.0617 39.4664 76.3032 39.3845 76.497 39.2208C76.6909 39.0542 76.8369 38.8277 76.9352 38.5411C77.0361 38.2544 77.0866 37.9282 77.0866 37.5625C77.0866 37.1967 77.0361 36.8705 76.9352 36.5839C76.8369 36.2973 76.6909 36.0707 76.497 35.9042C76.3032 35.7376 76.0617 35.6544 75.7723 35.6544C75.4802 35.6544 75.2345 35.7376 75.0353 35.9042C74.8387 36.0707 74.69 36.2973 74.589 36.5839C74.4907 36.8705 74.4416 37.1967 74.4416 37.5625C74.4416 37.9282 74.4907 38.2544 74.589 38.5411C74.69 38.8277 74.8387 39.0542 75.0353 39.2208C75.2345 39.3845 75.4802 39.4664 75.7723 39.4664ZM79.9938 40.6948V34.4056H81.6561V35.5152H81.7298C81.8609 35.1466 82.0793 34.856 82.385 34.643C82.6911 34.4301 83.0567 34.3237 83.4825 34.3237C83.9133 34.3237 84.2806 34.4315 84.5837 34.6471C84.8868 34.86 85.0885 35.1494 85.1898 35.5152H85.2549C85.3834 35.1549 85.6156 34.8669 85.9517 34.6512C86.2901 34.4328 86.6896 34.3237 87.1508 34.3237C87.738 34.3237 88.2141 34.5107 88.5797 34.8847C88.9487 35.2558 89.1332 35.7827 89.1332 36.4651V40.6948H87.3929V36.809C87.3929 36.4597 87.2999 36.1976 87.1146 36.0229C86.9284 35.8482 86.6962 35.7609 86.4178 35.7609C86.1015 35.7609 85.8545 35.8618 85.6774 36.0639C85.4995 36.2631 85.4106 36.5266 85.4106 36.8541V40.6948H83.7197V36.7722C83.7197 36.4637 83.6308 36.218 83.4537 36.0352C83.2791 35.8523 83.0485 35.7609 82.7619 35.7609C82.5675 35.7609 82.3932 35.81 82.2376 35.9083C82.0847 36.0038 81.9633 36.1389 81.8732 36.3136C81.7831 36.4856 81.7381 36.6876 81.7381 36.9196V40.6948H79.9938ZM90.511 40.6948V34.4056H92.173V35.5152H92.2463C92.3781 35.1466 92.5964 34.856 92.9019 34.643C93.2075 34.4301 93.5731 34.3237 93.9989 34.3237C94.4305 34.3237 94.7978 34.4315 95.1009 34.6471C95.404 34.86 95.6058 35.1494 95.7062 35.5152H95.7721C95.9006 35.1549 96.1329 34.8669 96.4681 34.6512C96.8066 34.4328 97.2068 34.3237 97.668 34.3237C98.2544 34.3237 98.7313 34.5107 99.097 34.8847C99.4651 35.2558 99.6496 35.7827 99.6496 36.4651V40.6948H97.9093V36.809C97.9093 36.4597 97.8163 36.1976 97.631 36.0229C97.4457 35.8482 97.2134 35.7609 96.935 35.7609C96.618 35.7609 96.3717 35.8618 96.1938 36.0639C96.0167 36.2631 95.9278 36.5266 95.9278 36.8541V40.6948H94.237V36.7722C94.237 36.4637 94.148 36.218 93.9709 36.0352C93.7955 35.8523 93.5649 35.7609 93.2783 35.7609C93.0848 35.7609 92.9102 35.81 92.7545 35.9083C92.6013 36.0038 92.4802 36.1389 92.3896 36.3136C92.2999 36.4856 92.2546 36.6876 92.2546 36.9196V40.6948H90.511ZM105.061 38.0169V34.4056H106.805V40.6948H105.131V39.5524H105.065C104.923 39.9209 104.687 40.2171 104.356 40.4409C104.029 40.6648 103.629 40.7767 103.156 40.7767C102.736 40.7767 102.367 40.6812 102.047 40.4901C101.728 40.299 101.478 40.0274 101.298 39.6752C101.121 39.3231 101.03 38.9014 101.027 38.41V34.4056H102.772V38.0989C102.774 38.4701 102.874 38.7635 103.071 38.9792C103.267 39.1948 103.53 39.3026 103.861 39.3026C104.071 39.3026 104.267 39.2549 104.45 39.1593C104.633 39.0611 104.781 38.9164 104.893 38.7253C105.007 38.5342 105.063 38.2981 105.061 38.0169ZM109.944 37.0588V40.6948H108.2V34.4056H109.862V35.5152H109.936C110.075 35.1494 110.308 34.86 110.636 34.6471C110.964 34.4315 111.361 34.3237 111.828 34.3237C112.265 34.3237 112.646 34.4192 112.97 34.6103C113.295 34.8014 113.548 35.0743 113.728 35.4292C113.908 35.7813 113.998 36.2017 113.998 36.6903V40.6948H112.254V37.0015C112.256 36.6166 112.158 36.3164 111.959 36.1007C111.76 35.8823 111.485 35.7731 111.136 35.7731C110.901 35.7731 110.694 35.8236 110.514 35.9246C110.336 36.0257 110.197 36.1731 110.096 36.3669C109.998 36.5579 109.947 36.7886 109.944 37.0588ZM115.373 40.6948V34.4056H117.117V40.6948H115.373ZM116.249 33.5948C115.99 33.5948 115.767 33.5088 115.582 33.3369C115.398 33.1622 115.307 32.9533 115.307 32.7104C115.307 32.4702 115.398 32.2641 115.582 32.0921C115.767 31.9174 115.99 31.8301 116.249 31.8301C116.508 31.8301 116.729 31.9174 116.912 32.0921C117.098 32.2641 117.19 32.4702 117.19 32.7104C117.19 32.9533 117.098 33.1622 116.912 33.3369C116.729 33.5088 116.508 33.5948 116.249 33.5948ZM121.859 34.4056V35.7158H118.072V34.4056H121.859ZM118.932 32.8987H120.676V38.7622C120.676 38.9232 120.701 39.0488 120.75 39.1388C120.799 39.2262 120.867 39.2876 120.955 39.3231C121.045 39.3586 121.149 39.3763 121.266 39.3763C121.348 39.3763 121.429 39.3695 121.512 39.3558C121.593 39.3395 121.656 39.3272 121.7 39.319L121.974 40.617C121.887 40.6443 121.764 40.6757 121.606 40.7111C121.448 40.7493 121.255 40.7726 121.028 40.7808C120.608 40.7971 120.239 40.7412 119.923 40.6129C119.609 40.4846 119.365 40.2853 119.19 40.0151C119.015 39.7448 118.929 39.4036 118.932 38.9915V32.8987ZM122.996 40.6948V34.4056H124.74V40.6948H122.996ZM123.872 33.5948C123.613 33.5948 123.39 33.5088 123.204 33.3369C123.021 33.1622 122.93 32.9533 122.93 32.7104C122.93 32.4702 123.021 32.2641 123.204 32.0921C123.39 31.9174 123.613 31.8301 123.872 31.8301C124.132 31.8301 124.352 31.9174 124.535 32.0921C124.721 32.2641 124.814 32.4702 124.814 32.7104C124.814 32.9533 124.721 33.1622 124.535 33.3369C124.352 33.5088 124.132 33.5948 123.872 33.5948ZM129.003 40.8176C128.357 40.8176 127.8 40.6866 127.333 40.4245C126.869 40.1597 126.511 39.7858 126.26 39.3026C126.009 38.8167 125.883 38.2422 125.883 37.5789C125.883 36.9319 126.009 36.3641 126.26 35.8755C126.511 35.3869 126.865 35.0061 127.321 34.7331C127.779 34.4602 128.317 34.3237 128.934 34.3237C129.349 34.3237 129.735 34.3906 130.093 34.5243C130.453 34.6554 130.767 34.8532 131.034 35.118C131.304 35.3828 131.515 35.7158 131.665 36.1171C131.815 36.5156 131.89 36.9824 131.89 37.5174V37.9965H126.579V36.9155H130.248C130.248 36.6643 130.194 36.4419 130.085 36.2481C129.975 36.0543 129.823 35.9028 129.63 35.7936C129.439 35.6817 129.216 35.6257 128.963 35.6257C128.698 35.6257 128.463 35.6872 128.259 35.81C128.056 35.9301 127.898 36.0925 127.783 36.2973C127.669 36.4992 127.61 36.7245 127.607 36.9729V38.0005C127.607 38.3118 127.665 38.5807 127.779 38.8072C127.896 39.0337 128.062 39.2085 128.274 39.3313C128.488 39.4542 128.74 39.5155 129.032 39.5155C129.226 39.5155 129.403 39.4883 129.565 39.4337C129.725 39.3791 129.863 39.2972 129.978 39.188C130.093 39.0788 130.18 38.945 130.24 38.7867L131.854 38.8932C131.771 39.2808 131.603 39.6193 131.35 39.9086C131.098 40.1952 130.774 40.4191 130.375 40.5801C129.979 40.7385 129.522 40.8176 129.003 40.8176ZM138.261 36.1989L136.664 36.2973C136.637 36.1607 136.579 36.0379 136.489 35.9287C136.398 35.8168 136.28 35.7281 136.132 35.6626C135.987 35.5943 135.814 35.5602 135.612 35.5602C135.341 35.5602 135.114 35.6176 134.928 35.7322C134.743 35.8441 134.65 35.9943 134.65 36.1826C134.65 36.3327 134.71 36.4597 134.83 36.5634C134.95 36.6671 135.156 36.7504 135.449 36.8132L136.587 37.0425C137.198 37.1681 137.654 37.37 137.954 37.6485C138.255 37.9269 138.404 38.2927 138.404 38.7458C138.404 39.1579 138.283 39.5196 138.04 39.8308C137.8 40.142 137.47 40.385 137.05 40.5597C136.632 40.7316 136.15 40.8176 135.604 40.8176C134.772 40.8176 134.108 40.6443 133.614 40.2976C133.123 39.9482 132.834 39.4733 132.75 38.8727L134.466 38.7826C134.518 39.0365 134.643 39.2303 134.842 39.3641C135.042 39.4951 135.297 39.5606 135.608 39.5606C135.914 39.5606 136.159 39.5019 136.345 39.3845C136.533 39.2644 136.629 39.1102 136.632 38.9219C136.629 38.7635 136.562 38.6339 136.431 38.5329C136.3 38.4291 136.098 38.35 135.825 38.2954L134.736 38.0784C134.122 37.9556 133.665 37.7426 133.364 37.4396C133.067 37.1366 132.918 36.7504 132.918 36.2809C132.918 35.8768 133.027 35.5289 133.245 35.2367C133.466 34.9447 133.777 34.7194 134.175 34.5611C134.576 34.4029 135.046 34.3237 135.584 34.3237C136.378 34.3237 137.003 34.4916 137.459 34.8273C137.918 35.163 138.185 35.6203 138.261 36.1989Z" fill="black"/>
  </g>
  <defs>
    <clipPath id="clip0_234_249">
      <rect width="140.01" height="57.6513" fill="white" transform="translate(0.192139 0.174316)"/>
    </clipPath>
  </defs>
</svg>