<svg width="55" height="55" viewBox="0 0 55 55" fill="none" xmlns="http://www.w3.org/2000/svg">
<circle cx="27.5" cy="27.5" r="27.5" fill="#FFD23F"/>
<mask id="mask0_0_1" style="mask-type:luminance" maskUnits="userSpaceOnUse" x="15" y="17" width="24" height="22">
<path d="M15 17H38.5005V38.3662H15V17Z" fill="white"/>
</mask>
<g mask="url(#mask0_0_1)">
<path d="M36.3689 31.4313L36.3539 31.4495C36.0406 31.8186 35.4851 31.8645 35.1156 31.5516L34.9123 31.3797C34.887 31.3559 34.8617 31.332 34.835 31.3095L33.4454 30.1334C33.1246 29.8145 33.0969 29.296 33.3953 28.9443L33.4107 28.926C33.5845 28.7213 33.8323 28.6164 34.0819 28.6164C34.2824 28.6164 34.4842 28.6843 34.6491 28.8239L36.2677 30.1938C36.6373 30.5067 36.6832 31.0613 36.3689 31.4313ZM34.4496 33.1202L34.4341 33.1389C34.1217 33.5066 33.5686 33.5534 33.199 33.2429C33.1747 33.2195 33.1499 33.1965 33.1236 33.1745L31.7302 31.9952C31.4127 31.6757 31.3865 31.1601 31.6829 30.8107L31.6993 30.791C31.8511 30.6121 32.0637 30.5034 32.2974 30.4838C32.5302 30.4636 32.756 30.5372 32.9344 30.6866C32.9588 30.71 32.9836 30.7329 33.0098 30.7549L34.4018 31.9333C34.5489 32.0795 34.6383 32.271 34.6556 32.4799C34.6748 32.7136 34.6018 32.9403 34.4496 33.1202ZM32.7391 34.9847L32.7222 35.0039C32.4094 35.3725 31.8544 35.4184 31.4844 35.106L31.2216 34.8836C31.1963 34.8592 31.171 34.8358 31.1443 34.8133L30.0203 33.8621C29.8737 33.7155 29.7837 33.5239 29.7664 33.315C29.7472 33.0813 29.8198 32.8541 29.9715 32.6757L29.9879 32.6565C30.3003 32.2884 30.8535 32.2425 31.2225 32.5516C31.2474 32.575 31.2722 32.5979 31.2984 32.6204L32.6913 33.7993C32.8379 33.9459 32.9269 34.137 32.9442 34.3454C32.9634 34.5787 32.8908 34.8058 32.7391 34.9847ZM30.7598 36.6231L30.7434 36.6423C30.5917 36.8212 30.3795 36.9303 30.1453 36.9495C29.9107 36.9678 29.6844 36.8961 29.5051 36.7444L28.3623 35.7772C27.9932 35.4643 27.9468 34.9098 28.2611 34.5398L28.2765 34.5215C28.4283 34.3426 28.6405 34.2339 28.8746 34.2143C29.1065 34.1951 29.3327 34.2677 29.5116 34.4171C29.536 34.4405 29.5608 34.4634 29.587 34.4854L30.7111 35.4367C30.8577 35.5833 30.9476 35.7748 30.9649 35.9837C30.9841 36.2175 30.9111 36.4446 30.7598 36.6231ZM27.3675 37.2502C27.0092 37.6235 26.4082 37.6422 26.0265 37.2914L26.0083 37.2745C25.6237 36.9214 25.5956 36.3186 25.945 35.9303L27.1173 34.6311C27.2565 34.477 27.2438 34.2391 27.0892 34.1005C26.9352 33.9614 26.6968 33.974 26.5577 34.1281L24.8856 35.9819C24.546 36.3584 23.9615 36.3898 23.5836 36.0521L23.5634 36.0343C23.377 35.8681 23.2679 35.639 23.2562 35.3894C23.2445 35.1402 23.3316 34.9023 23.5016 34.7192L25.1568 32.9352C25.2982 32.783 25.2893 32.546 25.1376 32.4045C24.9863 32.2631 24.7484 32.271 24.6065 32.4218L22.8534 34.285C22.4239 34.7412 21.7199 34.773 21.2516 34.3557L21.2286 34.3356C20.994 34.1267 20.8577 33.8391 20.8441 33.5258C20.8315 33.2124 20.9434 32.9146 21.1598 32.6869L22.6126 31.1624C22.756 31.0116 22.7499 30.7737 22.5991 30.6308C22.4487 30.4875 22.2103 30.4936 22.0665 30.6439L20.291 32.508C19.8465 32.975 19.0966 33.0017 18.6199 32.5675L18.596 32.546C18.359 32.3296 18.2208 32.0345 18.2072 31.7141C18.1941 31.3938 18.307 31.0879 18.5252 30.8528L19.2072 30.118C19.2095 30.1152 19.2119 30.1128 19.2142 30.1105L25.0472 23.826L26.2069 24.7449C27.3323 25.6372 28.8236 25.9158 30.1964 25.491L30.2783 25.4653C30.7261 25.3271 31.0553 24.9716 31.1579 24.515C31.2614 24.0583 31.1167 23.5965 30.7715 23.2794L27.2429 20.0393L28.0489 19.2773C30.2666 17.1813 33.8042 17.2525 35.9352 19.436L36.0106 19.5133C37.8471 21.3952 38.1229 24.3487 36.6757 26.5233L35.3095 28.3967L35.1357 28.2501C34.45 27.6698 33.4178 27.7546 32.8356 28.4403L32.8201 28.459C32.5382 28.7906 32.4028 29.2126 32.4389 29.6463C32.4412 29.6749 32.4445 29.7035 32.4482 29.7316C31.9593 29.7086 31.4652 29.9039 31.1251 30.3048L31.1083 30.324C30.7977 30.6903 30.6778 31.1549 30.7378 31.5971C30.2483 31.5741 29.7542 31.7689 29.4137 32.1699L29.3973 32.1895C29.1154 32.5211 28.98 32.9431 29.0161 33.3768C29.018 33.4049 29.0212 33.4335 29.025 33.4611C28.9547 33.4583 28.884 33.4588 28.8128 33.4649C28.3782 33.501 27.9838 33.7033 27.7014 34.0363L27.6859 34.0546C27.1042 34.7398 27.189 35.7702 27.8756 36.3509L28.0714 36.5167L27.3675 37.2502ZM16.6733 26.5209C15.2284 24.3346 15.5071 21.3905 17.3394 19.5133L17.4148 19.436C19.5463 17.2525 23.0838 17.1813 25.3053 19.281L30.2619 23.833C30.4062 23.9656 30.4666 24.1585 30.4235 24.3496C30.3804 24.5407 30.2427 24.6892 30.0554 24.7473L29.9734 24.7726C28.8386 25.1238 27.6054 24.8934 26.6747 24.1562L25.242 23.0209C25.0879 22.8982 24.8655 22.915 24.732 23.0598L18.9515 29.2876L16.6733 26.5209ZM36.7548 29.6201L35.8851 28.8843L37.2935 26.9528C38.9454 24.4719 38.6325 21.1221 36.5502 18.9888L36.4743 18.911C34.0575 16.4352 30.046 16.3542 27.5314 18.7312L26.6874 19.5288L25.8186 18.7312C23.3039 16.3547 19.2924 16.4348 16.8757 18.911L16.8003 18.9888C14.7175 21.1221 14.4046 24.4719 16.057 26.9528C16.0635 26.9636 16.071 26.9739 16.0795 26.9837L18.4344 29.844L17.973 30.3418C17.6171 30.725 17.433 31.2238 17.455 31.746C17.4771 32.2678 17.7019 32.7492 18.0883 33.101L18.1122 33.123C18.6601 33.6223 19.4297 33.7482 20.0905 33.5113C20.091 33.5267 20.0915 33.5417 20.0919 33.5572C20.1135 34.0761 20.3397 34.552 20.728 34.8976L20.7509 34.9177C21.2488 35.3603 21.9064 35.4976 22.5021 35.3393C22.5021 35.3678 22.5026 35.3964 22.504 35.425C22.5255 35.8774 22.7232 36.2933 23.0613 36.595L23.0815 36.6127C23.614 37.0881 24.3709 37.1603 24.9713 36.8507C25.0313 37.2141 25.2083 37.5612 25.4996 37.8286L25.5179 37.8455C25.8434 38.1452 26.2593 38.2932 26.6752 38.2932C27.1267 38.2932 27.5777 38.1181 27.9108 37.771L28.647 37.0038L29.0184 37.3181C29.3243 37.5771 29.699 37.704 30.0718 37.704C30.535 37.704 30.9959 37.5083 31.3176 37.1284L31.334 37.1092C31.5921 36.8052 31.727 36.4259 31.7204 36.0315C31.8295 36.0535 31.9405 36.0652 32.0511 36.0652C32.5143 36.0652 32.9747 35.8699 33.2969 35.4901L33.3133 35.4709C33.5953 35.1388 33.7306 34.7173 33.695 34.2836C33.6922 34.2545 33.6889 34.2264 33.6852 34.1979C33.711 34.1993 33.7367 34.1997 33.7625 34.1997C34.2257 34.1997 34.6865 34.0044 35.0093 33.6237L35.0247 33.6054C35.2912 33.2916 35.427 32.8972 35.4102 32.4884C35.5001 32.5033 35.591 32.5108 35.6818 32.5108C36.1455 32.5108 36.6064 32.3151 36.9291 31.9347L36.9445 31.9165C37.5258 31.2313 37.441 30.2013 36.7548 29.6201Z" fill="black"/>
</g>
</svg>
