<svg width="55" height="55" viewBox="0 0 55 55" fill="none" xmlns="http://www.w3.org/2000/svg">
<circle cx="27.5" cy="27.5" r="27.5" fill="#FFD23F"/>
<mask id="mask0_0_1" style="mask-type:luminance" maskUnits="userSpaceOnUse" x="18" y="16" width="19" height="23">
<path d="M18.7812 16H36.3862V39H18.7812V16Z" fill="white"/>
</mask>
<g mask="url(#mask0_0_1)">
<path d="M23.8641 30.8316L19.83 33.1243C19.2355 33.4643 18.875 34.101 18.875 34.7803V38.5377C18.875 38.7712 19.0658 38.9625 19.2993 38.9625C19.5327 38.9625 19.7241 38.7712 19.7241 38.5377V37.0519H22.0595V38.5377C22.0595 38.7712 22.2502 38.9625 22.4837 38.9625C22.7172 38.9625 22.9085 38.7712 22.9085 38.5377V32.3601L24.2035 31.6169C24.8618 32.8487 26.1568 33.6551 27.5793 33.6551C29.0013 33.6551 30.2968 32.8487 30.9545 31.6169L32.2495 32.3601V38.5377C32.2495 38.7712 32.4409 38.9625 32.6743 38.9625C32.9078 38.9625 33.0992 38.7712 33.0992 38.5377V37.0519H35.434V38.5377C35.434 38.7712 35.6253 38.9625 35.8588 38.9625C36.0923 38.9625 36.2836 38.7712 36.2836 38.5377V34.8014C36.2836 34.122 35.9226 33.4854 35.3281 33.146L31.2945 30.8316C30.9762 30.6409 30.7638 30.3009 30.7638 29.9188V29.7064C31.2307 29.2183 31.5918 28.6027 31.8036 27.9234H32.356C33.3537 27.9234 34.1606 27.1164 34.1606 26.1187V25.8004C34.3941 25.8004 34.5849 25.6091 34.5849 25.3756C34.5849 25.1421 34.3941 24.9513 34.1606 24.9513V24.633C34.1606 23.8261 33.6299 23.1467 32.8867 22.9132V21.342C32.8867 19.3677 31.3794 17.7333 29.4472 17.542C29.2564 16.6718 28.4922 16.0352 27.5793 16.0352C26.6665 16.0352 25.9022 16.6718 25.7109 17.542C23.7787 17.7333 22.2719 19.3677 22.2719 21.342V22.9132C21.5287 23.1467 20.998 23.8261 20.998 24.633V24.9513C20.7645 24.9513 20.5732 25.1421 20.5732 25.3756C20.5732 25.6091 20.7645 25.8004 20.998 25.8004V26.1187C20.998 27.1164 21.8044 27.9234 22.8026 27.9234H23.3544C23.5668 28.6027 23.9273 29.1973 24.3948 29.7064V29.9188C24.3948 30.3009 24.1824 30.6409 23.8641 30.8316ZM22.0595 36.2029H19.7241V34.8014C19.7241 34.4193 19.9365 34.0588 20.2548 33.8886L22.0595 32.8487V36.2029ZM33.0992 32.8487L34.9032 33.8886C35.2432 34.0799 35.434 34.4409 35.434 34.8014V36.2029H33.0992V32.8487ZM27.5793 32.806C26.4113 32.806 25.3288 32.1055 24.8618 31.0441C25.0104 30.8527 25.1164 30.6192 25.1801 30.3647C25.8806 30.8316 26.6875 31.1078 27.5793 31.1078C28.4705 31.1078 29.2775 30.8316 29.9779 30.3647C30.0417 30.6192 30.1482 30.8316 30.2968 31.0441C29.8293 32.1055 28.7467 32.806 27.5793 32.806ZM32.5046 23.9958C32.5684 23.9109 32.6316 23.8261 32.6954 23.7412C33.0564 23.8688 33.311 24.2292 33.311 24.633V26.1398C33.311 26.6705 32.8867 27.0954 32.356 27.0954H32.0377V24.5265C32.0587 24.5054 32.0798 24.4844 32.1009 24.4627L32.5046 23.9958ZM27.5793 16.8842C28.0036 16.8842 28.3857 17.1388 28.5559 17.5209H26.6237C26.7724 17.1388 27.1545 16.8842 27.5793 16.8842ZM23.1209 27.0743H22.8026C22.2719 27.0743 21.8471 26.6495 21.8471 26.1187V24.6114C21.8471 24.2082 22.1016 23.8688 22.4626 23.7201C22.5054 23.805 22.5686 23.9109 22.654 23.9747L23.0572 24.4416C23.0782 24.4627 23.0993 24.4844 23.1209 24.5054V27.0743ZM23.1209 21.342C23.1209 19.7077 24.4581 18.37 26.093 18.37H29.0651C30.7 18.37 32.0377 19.7077 32.0377 21.342V22.5522C31.2729 22.0003 29.7234 21.1302 27.5793 21.1302C25.4347 21.1302 23.8852 22.0003 23.1209 22.5522V21.342ZM23.3117 23.465C23.7155 23.1256 25.2861 21.9793 27.5793 21.9793C29.872 21.9793 31.4431 23.1256 31.8463 23.465L31.4642 23.9109C31.1459 24.2719 30.6151 24.3779 30.1903 24.1444C29.6385 23.8471 28.7256 23.4866 27.5793 23.4866C26.433 23.4866 25.5412 23.8471 24.9677 24.1444C24.5435 24.3779 24.0127 24.2719 23.6938 23.9109L23.3117 23.465ZM23.97 26.4371V25.0362C24.437 25.1637 24.9256 25.121 25.3709 24.8875C25.8384 24.633 26.6237 24.3357 27.5793 24.3357C28.5343 24.3357 29.3202 24.633 29.7871 24.8875C30.0628 25.0362 30.36 25.0999 30.6573 25.0999C30.8275 25.0999 31.0183 25.0783 31.167 25.0151V26.4371C31.167 28.539 29.5537 30.2588 27.5577 30.2588C25.5623 30.2588 23.97 28.539 23.97 26.4371Z" fill="black"/>
</g>
<path d="M26.2998 27.0747C26.5333 27.0747 26.7241 26.8833 26.7241 26.6499V26.2256C26.7241 25.9916 26.5333 25.8008 26.2998 25.8008C26.0663 25.8008 25.875 25.9916 25.875 26.2256V26.6499C25.875 26.8833 26.0663 27.0747 26.2998 27.0747Z" fill="black"/>
<path d="M28.8539 27.0747C29.088 27.0747 29.2788 26.8833 29.2788 26.6499V26.2256C29.2788 25.9916 29.088 25.8008 28.8539 25.8008C28.6205 25.8008 28.4297 25.9916 28.4297 26.2256V26.6499C28.4297 26.8833 28.6205 27.0747 28.8539 27.0747Z" fill="black"/>
<path d="M26.3699 28.307C26.1996 28.4767 26.1996 28.7312 26.3699 28.9015C26.6882 29.2198 27.1125 29.3895 27.58 29.3895C28.047 29.3895 28.4502 29.2198 28.7901 28.9015C28.9598 28.7312 28.9598 28.4767 28.7901 28.307C28.6199 28.1373 28.3653 28.1373 28.1956 28.307C27.8773 28.6253 27.3249 28.6253 26.9855 28.307C26.8158 28.1373 26.5396 28.1373 26.3699 28.307Z" fill="black"/>
<path d="M16.648 28.7109C16.4993 28.8806 16.4993 29.1568 16.6696 29.3054C16.7545 29.3692 16.8604 29.4113 16.9663 29.4113C17.0728 29.4113 17.2003 29.3692 17.2852 29.2627C19.132 27.2251 19.132 23.9342 17.2852 21.8966C17.1366 21.7264 16.8604 21.7053 16.6907 21.875C16.521 22.0236 16.4993 22.2998 16.6696 22.4695C18.1981 24.1893 18.1981 26.9916 16.648 28.7109Z" fill="black"/>
<path d="M15.3933 28.0107C15.4782 28.0956 15.5841 28.1383 15.6906 28.1383C15.7965 28.1383 15.9024 28.0956 15.9878 28.0107C17.2828 26.673 17.2828 24.5079 15.9878 23.1702C15.8176 23.0005 15.563 23.0005 15.3933 23.1702C15.2231 23.3405 15.2231 23.5951 15.3933 23.7648C16.37 24.7625 16.37 26.4185 15.3933 27.4162C15.2231 27.5859 15.2231 27.8621 15.3933 28.0107Z" fill="black"/>
<path d="M14.0995 26.7777C14.1843 26.8626 14.2903 26.9047 14.4178 26.9047C14.5237 26.9047 14.6086 26.8625 14.6934 26.7988C15.0545 26.4804 15.2669 26.0556 15.2669 25.5887C15.2669 25.1217 15.0545 24.6969 14.6934 24.3785C14.5237 24.2299 14.2481 24.2515 14.0995 24.4212C13.9508 24.5909 13.9719 24.8671 14.1416 25.0158C14.3113 25.1644 14.4178 25.3762 14.4178 25.5887C14.4178 25.8011 14.3113 26.0135 14.1416 26.1621C13.9719 26.3318 13.9508 26.5864 14.0995 26.7777Z" fill="black"/>
<path d="M37.8776 21.9169C36.0303 23.9551 36.0303 27.2454 37.8776 29.2836C37.9625 29.3684 38.0684 29.4322 38.1959 29.4322C38.3019 29.4322 38.4083 29.3895 38.4716 29.3257C38.6418 29.1771 38.6629 28.9015 38.4932 28.7312C36.9431 27.012 36.9431 24.2307 38.4932 22.5115C38.6418 22.3412 38.6418 22.0656 38.4716 21.9169C38.3019 21.7256 38.0473 21.7256 37.8776 21.9169Z" fill="black"/>
<path d="M39.7689 23.1703C39.5986 23.0006 39.323 23.0217 39.1744 23.1703C37.8794 24.508 37.8794 26.6731 39.1744 28.0108C39.2592 28.0956 39.3651 28.1383 39.4716 28.1383C39.5775 28.1383 39.6835 28.0956 39.7689 28.0108C39.9386 27.8411 39.9386 27.5859 39.7689 27.4162C38.7922 26.4185 38.7922 24.7625 39.7689 23.7648C39.9386 23.5951 39.9386 23.3189 39.7689 23.1703Z" fill="black"/>
<mask id="mask1_0_1" style="mask-type:luminance" maskUnits="userSpaceOnUse" x="39" y="24" width="3" height="4">
<path d="M39.7969 24.1758H41.2127V27.0153H39.7969V24.1758Z" fill="white"/>
</mask>
<g mask="url(#mask1_0_1)">
<path d="M41.0586 24.3999C40.91 24.2297 40.6338 24.2086 40.4641 24.3572C40.103 24.6756 39.8906 25.1215 39.8906 25.5674C39.8906 26.0343 40.103 26.4591 40.4641 26.7775C40.5489 26.8413 40.6549 26.8834 40.7397 26.8834C40.8673 26.8834 40.9737 26.8413 41.0586 26.7348C41.2072 26.5651 41.1856 26.2889 41.0159 26.1402C40.8462 26.0132 40.7397 25.8008 40.7397 25.5884C40.7397 25.376 40.8462 25.1642 41.0159 25.0155C41.1856 24.8453 41.2072 24.5907 41.0586 24.3999Z" fill="black"/>
</g>
</svg>
