<svg preserveAspectRatio="none" width="100%" height="100%" overflow="visible" style="display: block;" viewBox="0 0 64 64" fill="none" xmlns="http://www.w3.org/2000/svg">
<g id="cap 1">
<path id="Vector" d="M59.9637 45.9243V33.1968C59.9674 31.9712 59.5984 30.7734 58.9057 29.7622C58.2131 28.7511 57.2295 27.9743 56.0853 27.5349L58.2187 26.5024C58.8788 26.1849 59.4343 25.6852 59.8197 25.0622C60.2051 24.4393 60.4043 23.7191 60.3938 22.9866C60.3832 22.2542 60.1634 21.54 59.7603 20.9284C59.3571 20.3168 58.7874 19.8333 58.1184 19.5349L34.784 9.0816C33.4237 8.47252 31.9501 8.15766 30.4597 8.15766C28.9693 8.15766 27.4957 8.47252 26.1355 9.0816L2.80533 19.5349C2.13634 19.8333 1.56665 20.3168 1.16348 20.9284C0.760317 21.54 0.540495 22.2542 0.529955 22.9866C0.519414 23.7191 0.718595 24.4393 1.104 25.0622C1.4894 25.6852 2.04493 26.1849 2.70507 26.5024L8.4096 29.2565V39.04C8.40578 40.1666 8.71646 41.2718 9.30667 42.2314C9.89689 43.191 10.7432 43.9668 11.7504 44.4715L27.7184 52.5397C28.5696 52.9703 29.5101 53.1947 30.464 53.1947C31.4179 53.1947 32.3584 52.9703 33.2096 52.5397L49.1776 44.4736C50.1848 43.9683 51.0311 43.1921 51.6213 42.2322C52.2114 41.2723 52.5221 40.1668 52.5184 39.04V29.9285L54.5173 30.3829C55.1565 30.5255 55.7278 30.8822 56.1364 31.394C56.5449 31.9058 56.7663 32.5419 56.7637 33.1968V45.9243C55.612 46.3046 54.6333 47.0827 54.0033 48.1192C53.3732 49.1556 53.1329 50.3826 53.3255 51.5802C53.5181 52.7777 54.131 53.8675 55.0543 54.6541C55.9775 55.4408 57.1508 55.8728 58.3637 55.8728C59.5767 55.8728 60.7499 55.4408 61.6732 54.6541C62.5965 53.8675 63.2093 52.7777 63.4019 51.5802C63.5945 50.3826 63.3543 49.1556 62.7242 48.1192C62.0941 47.0827 61.1155 46.3046 59.9637 45.9243ZM3.73333 23.04C3.73141 22.9169 3.76661 22.7962 3.83435 22.6934C3.90209 22.5907 3.99921 22.5107 4.11307 22.464L27.4496 12.0107C28.398 11.5867 29.4251 11.3675 30.464 11.3675C31.5029 11.3675 32.53 11.5867 33.4784 12.0107L56.8149 22.464C56.9274 22.5133 57.0234 22.5938 57.0914 22.6961C57.1593 22.7984 57.1964 22.9181 57.1982 23.0409C57.2 23.1637 57.1664 23.2844 57.1015 23.3887C57.0366 23.4929 56.943 23.5763 56.832 23.6288L51.2 26.3445L30.4213 21.6192C30.2164 21.5726 30.0043 21.5667 29.7971 21.6021C29.5899 21.6374 29.3917 21.7132 29.2138 21.8251C29.0359 21.937 28.8818 22.0829 28.7603 22.2544C28.6388 22.4259 28.5522 22.6196 28.5056 22.8245C28.459 23.0295 28.4531 23.2416 28.4885 23.4488C28.5238 23.6559 28.5996 23.8541 28.7115 24.032C28.8234 24.2099 28.9693 24.364 29.1408 24.4856C29.3123 24.6071 29.506 24.6936 29.7109 24.7403L46.5813 28.5803L33.6768 34.8139C32.6779 35.3003 31.5814 35.5531 30.4704 35.5531C29.3594 35.5531 28.2629 35.3003 27.264 34.8139L10.7179 26.8181C10.6688 26.7947 10.624 26.7691 10.5728 26.7499L4.096 23.6203C3.985 23.5702 3.89132 23.4883 3.82678 23.3851C3.76223 23.2818 3.72972 23.1617 3.73333 23.04ZM47.7333 41.6L31.7653 49.6747C31.3619 49.8788 30.9161 49.9852 30.464 49.9852C30.0119 49.9852 29.5661 49.8788 29.1627 49.6747L13.1925 41.6C12.7176 41.3615 12.3182 40.996 12.0388 40.544C11.7593 40.0921 11.6107 39.5714 11.6096 39.04V30.8032L25.8667 37.6896C27.2994 38.3866 28.8718 38.7488 30.4651 38.7488C32.0583 38.7488 33.6308 38.3866 35.0635 37.6896L49.3184 30.8032V39.04C49.3168 39.5716 49.1678 40.0923 48.888 40.5442C48.6082 40.9962 48.2085 41.3616 47.7333 41.6ZM58.3637 52.64C57.9874 52.64 57.6195 52.5284 57.3065 52.3193C56.9936 52.1102 56.7497 51.813 56.6057 51.4653C56.4616 51.1176 56.4239 50.735 56.4974 50.3658C56.5708 49.9967 56.752 49.6576 57.0182 49.3915C57.2843 49.1254 57.6234 48.9441 57.9925 48.8707C58.3616 48.7973 58.7442 48.835 59.092 48.979C59.4397 49.123 59.7369 49.3669 59.946 49.6799C60.1551 49.9928 60.2667 50.3607 60.2667 50.7371C60.2672 50.9874 60.2184 51.2354 60.1231 51.4669C60.0277 51.6984 59.8877 51.9088 59.711 52.0862C59.5342 52.2635 59.3243 52.4042 59.0931 52.5004C58.8619 52.5965 58.6141 52.6461 58.3637 52.6464V52.64Z" fill="var(--fill-0, black)"/>
</g>
</svg>
