<svg preserveAspectRatio="none" width="100%" height="100%" overflow="visible" style="display: block;" viewBox="0 0 49.552 64.0001" fill="none" xmlns="http://www.w3.org/2000/svg">
<g id="Group">
<g id="Group_2">
<path id="Vector" d="M21.8759 15.3899C21.1162 15.3899 20.5003 14.774 20.5003 14.0143V8.66818C20.5003 7.90846 21.1162 7.29255 21.8759 7.29255C22.6356 7.29255 23.2515 7.90846 23.2515 8.66818V14.0143C23.2515 14.774 22.6358 15.3899 21.8759 15.3899Z" fill="var(--fill-0, black)"/>
</g>
<g id="Group_3">
<path id="Vector_2" d="M9.2311 41.3822C8.02843 41.3951 7.38938 39.8895 8.25841 39.0339L12.0385 35.2536C13.3731 34.0131 15.2259 35.8614 13.984 37.199L10.2039 40.9793C9.93518 41.2479 9.58326 41.3822 9.2311 41.3822Z" fill="var(--fill-0, black)"/>
</g>
<path id="Vector_3" d="M49.413 5.3943C48.2246 -0.470765 40.4549 -1.98258 37.1535 3.00521C37.1535 3.00508 36.1747 4.41235 36.1747 4.41235C35.1464 5.95068 34.792 7.81929 35.1966 9.62599C31.8354 9.3705 28.6842 11.3639 27.1831 14.4735C26.4636 15.8448 20.0111 28.5493 19.4011 29.4216C18.2586 31.384 17.8983 33.6658 18.3713 35.8722L17.7957 41.1515C17.1914 45.8266 15.6867 53.7699 14.4901 57.7099C14.0373 59.2066 14.3112 60.7841 15.2417 62.0377C17.5537 65.2376 22.7218 64.367 23.8399 60.5678C23.8719 60.5441 25.6209 53.4963 25.6478 53.456L26.5538 59.8584C27.4565 65.7042 35.8486 65.1835 36.0145 59.265C36.0145 53.2977 34.7972 38.4691 34.5705 35.7594L36.1287 32.8567C37.6544 33.6968 40.7827 35.4122 41.3974 35.7667C42.0327 36.1325 42.7371 36.3192 43.4507 36.3192C44.9087 36.3257 46.3162 35.5234 47.0346 34.2479C48.0861 32.4177 47.6045 30.1284 45.9206 28.8767L42.0197 25.1959C41.7115 24.9818 41.5068 24.6944 41.7274 24.3286L42.3452 23.1866C43.8685 20.584 43.8686 17.4412 42.5594 14.8838C44.4745 14.6652 46.2849 13.6368 47.4318 11.9107L48.4106 10.5034C49.4208 8.99283 49.7768 7.17437 49.413 5.3943ZM21.2022 59.7845C20.696 61.4219 18.4541 61.7892 17.4511 60.3977C17.0449 59.8505 16.9256 59.1611 17.1232 58.5078C18.6193 53.4043 20.1425 45.0301 20.6657 40.212C21.7488 41.3108 22.9782 42.1798 24.1891 43.147L24.6322 46.2778L21.2022 59.7845ZM31.2662 61.2623C30.25 61.2629 29.3919 60.4938 29.2796 59.4843C28.864 56.545 27.2166 44.9084 26.8361 42.2171C26.7873 41.8708 26.6063 41.5526 26.3307 41.3335C25.9081 40.9969 25.4828 40.6649 25.0745 40.3461C23.1256 38.8253 22.2003 38.1027 21.5585 36.7541C20.6378 34.8687 20.7147 32.5885 21.7926 30.7818L22.2039 30.0529L31.8511 36.2585C32.1204 39.5132 33.2634 53.6576 33.2634 59.2652C33.2634 60.3663 32.3675 61.2623 31.2662 61.2623ZM44.0971 30.9385C45.172 31.6045 45.0569 33.1454 43.8154 33.5188C43.4606 33.6145 43.0893 33.566 42.7696 33.3819C42.237 33.0758 40.5343 32.1395 38.7315 31.1481C37.8532 30.6652 36.9732 30.1813 36.231 29.7715C35.986 29.6386 34.8007 28.9833 34.5052 28.8132C33.3696 28.1614 32.9175 26.7511 33.4669 25.5639C33.7511 24.9764 35.6792 21.0647 35.6988 21.0254C36.0348 20.3439 35.7545 19.5192 35.0731 19.1833C34.3915 18.8475 33.5669 19.1274 33.2311 19.8089C33.1535 19.9662 31.3731 23.5783 31.0157 24.3135C29.6655 27.054 30.9626 30.2785 33.72 31.5275L32.6579 33.5061L23.5167 27.6259C23.5308 27.5976 29.6387 15.716 29.651 15.6898C30.9828 12.7591 34.868 11.2146 37.4259 13.3412C37.4309 13.3452 37.4359 13.3492 37.4409 13.3532L38.5481 14.229C40.8512 16.0498 41.4474 19.3401 39.9373 21.8565L39.3153 23.0061C38.4944 24.4539 38.8727 26.2576 40.1937 27.2556L44.0971 30.9385ZM46.1422 8.94693L45.1647 10.3523C45.1585 10.3613 45.1523 10.3703 45.1463 10.3795C43.2163 13.3423 38.5467 12.44 37.8682 8.97082C37.4917 7.05219 38.3986 6.01734 39.421 4.56355C40.0115 3.6565 40.9226 3.03334 41.9836 2.81724C45.4567 2.10104 48.0918 5.98457 46.1422 8.94693Z" fill="var(--fill-0, black)"/>
<g id="Group_4">
<path id="Vector_4" d="M18.5718 19.4594L15.3806 12.0809C14.9787 11.1254 13.6426 10.9627 13.0233 11.7936L10.5551 15.0354L8.30105 9.80895C7.51944 8.16395 5.11459 9.19592 5.77477 10.8986L8.96085 18.286C9.1742 18.7869 9.67981 19.1192 10.2243 19.1169C10.6504 19.1169 11.0566 18.9186 11.3186 18.5746L13.7884 15.3307L16.0465 20.5518C16.2712 21.0711 16.7778 21.3816 17.3099 21.3816C18.2721 21.4 18.9771 20.3408 18.5718 19.4594Z" fill="var(--fill-0, black)"/>
<path id="Vector_5" d="M15.1473 24.8731L7.18629 23.7557C7.10938 23.7471 7.03184 23.7401 6.95418 23.7442C6.37167 23.7512 5.82942 24.1733 5.67547 24.7343C5.58868 25.0224 5.60582 25.3383 5.71374 25.6185L7.19617 29.4137L1.56058 28.6168C-0.250873 28.4272 -0.621793 31.0183 1.17541 31.341L9.14119 32.4674C9.61941 32.5363 10.11 32.3432 10.4125 31.9589C10.7159 31.5756 10.7929 31.0601 10.6151 30.6047L9.13168 26.807L14.7649 27.5976C14.8299 27.6067 14.8942 27.6111 14.9579 27.6111C16.6519 27.5679 16.8317 25.1567 15.1473 24.8731Z" fill="var(--fill-0, black)"/>
</g>
</g>
</svg>
