<svg preserveAspectRatio="none" width="100%" height="100%" overflow="visible" style="display: block;" viewBox="0 0 64 64" fill="none" xmlns="http://www.w3.org/2000/svg">
<g id="Budget">
<path id="Vector" d="M24.3551 42.7471C23.0113 42.7471 21.9179 41.6538 21.9179 40.3099C21.9179 38.966 23.0113 37.8726 24.3551 37.8726C25.699 37.8726 26.7924 38.966 26.7924 40.3099C26.7924 41.0693 27.408 41.6849 28.1674 41.6849C28.9268 41.6849 29.5424 41.0693 29.5424 40.3099C29.5424 37.9331 27.9349 35.9259 25.7505 35.3149V32.1273C25.7505 31.3679 25.1349 30.7523 24.3755 30.7523C23.6161 30.7523 23.0005 31.3679 23.0005 32.1273V35.3034C20.7952 35.9008 19.1679 37.9184 19.1679 40.31C19.1679 43.1703 21.4949 45.4972 24.3551 45.4972C25.699 45.4972 26.7924 46.5906 26.7924 47.9345C26.7924 49.2784 25.699 50.3717 24.3551 50.3717C23.0113 50.3717 21.9179 49.2784 21.9179 47.9345C21.9179 47.1751 21.3023 46.5595 20.5429 46.5595C19.7835 46.5595 19.1679 47.1751 19.1679 47.9345C19.1679 50.3261 20.7952 52.3437 23.0005 52.9411V55.0006C23.0005 55.76 23.6161 56.3756 24.3755 56.3756C25.1349 56.3756 25.7505 55.76 25.7505 55.0006V52.9295C27.9349 52.3184 29.5424 50.3113 29.5424 47.9345C29.5424 45.0741 27.2154 42.7471 24.3551 42.7471Z" fill="var(--fill-0, black)"/>
<path id="Vector_2" d="M64 43.5639C64 42.0577 63.3542 40.7001 62.3257 39.7516C63.3542 38.8031 64 37.4455 64 35.9394C64 33.0791 61.673 30.7521 58.8128 30.7521H43.4367C43.173 30.7521 42.9139 30.7723 42.6606 30.8104C40.5958 28.2544 38.1284 26.1521 35.3949 24.6074C36.4916 23.6555 37.1872 22.2531 37.1872 20.6904C37.1872 18.4592 35.7711 16.5527 33.7906 15.8219L37.1195 5.6135C37.256 5.19475 37.1837 4.736 36.925 4.37962C36.6662 4.02325 36.2526 3.81225 35.8122 3.81225H29.3764C28.7721 1.61737 26.7596 0 24.3755 0C21.9911 0 19.9773 1.61725 19.3731 3.81225H12.9388C12.4984 3.81225 12.0846 4.02325 11.826 4.37962C11.5674 4.736 11.4951 5.19475 11.6315 5.6135L14.9602 15.8219C12.9797 16.5526 11.5638 18.4591 11.5638 20.6904C11.5638 22.2539 12.26 23.6569 13.3576 24.6087C9.9405 26.5422 6.89612 29.3581 4.59325 32.7557C1.63125 37.1255 0 42.3177 0 47.376C0 53.7224 2.51962 58.2894 7.489 60.95C11.3756 63.0308 16.7415 64 24.3755 64C30.8065 64 35.5796 63.3158 39.2412 61.858C40.1851 63.1548 41.7137 64 43.4367 64H58.8128C61.673 64 64 61.673 64 58.8128C64 57.3066 63.3542 55.949 62.3257 55.0005C63.3542 54.052 64 52.6944 64 51.1883C64 49.6823 63.3542 48.3245 62.3259 47.376C63.3542 46.4275 64 45.0699 64 43.5639ZM61.25 35.9394C61.25 37.2833 60.1566 38.3766 58.8128 38.3766H43.4367C42.0929 38.3766 40.9995 37.2833 40.9995 35.9394C40.9995 34.5955 42.0929 33.5021 43.4367 33.5021H58.8128C60.1566 33.5021 61.25 34.5955 61.25 35.9394ZM20.5632 6.56225C21.3226 6.56225 21.9382 5.94663 21.9382 5.18725C21.9382 3.84338 23.0316 2.75 24.3755 2.75C25.7194 2.75 26.8127 3.84338 26.8127 5.18725V8.9995C26.8127 9.75888 27.4284 10.3745 28.1877 10.3745C28.9471 10.3745 29.5627 9.75888 29.5627 8.9995V6.56225H33.9176L31.0021 15.503H17.7489L14.8335 6.56225H20.5632ZM16.7467 18.2533C16.748 18.2533 16.7494 18.2534 16.7506 18.2534C16.7538 18.2534 16.7569 18.253 16.76 18.253H31.9907C31.9939 18.253 31.997 18.2534 32.0001 18.2534C32.0014 18.2534 32.0028 18.2533 32.004 18.2533C33.346 18.2555 34.4371 19.3479 34.4371 20.6903C34.4371 22.0334 33.3449 23.1262 32.002 23.1274C31.987 23.1274 31.972 23.127 31.957 23.1275H16.791C16.7784 23.1271 16.7657 23.1275 16.7531 23.1275H16.751C15.4071 23.1275 14.3139 22.0341 14.3139 20.6903C14.3139 19.3479 15.4049 18.2555 16.7467 18.2533ZM24.3755 61.25C17.212 61.25 12.2586 60.3843 8.787 58.5255C4.72475 56.3506 2.75 52.7035 2.75 47.376C2.75 42.8622 4.213 38.2178 6.8695 34.2985C9.44563 30.4979 13.0422 27.5165 17.0187 25.8776H31.727C34.8769 27.174 37.7335 29.2706 40.0706 31.9975C38.9574 32.9496 38.2496 34.363 38.2496 35.9394C38.2496 37.4455 38.8954 38.8031 39.9239 39.7516C38.8954 40.7001 38.2496 42.0577 38.2496 43.5639C38.2496 45.0699 38.8954 46.4275 39.9238 47.376C38.8953 48.3245 38.2496 49.6821 38.2496 51.1883C38.2496 52.6944 38.8954 54.052 39.9239 55.0005C38.7842 56.0355 38.1104 57.6546 38.2721 59.2848C34.9436 60.6228 30.4849 61.25 24.3755 61.25ZM61.25 58.8128C61.25 60.1566 60.1566 61.25 58.8128 61.25H43.4367C42.0929 61.25 40.9995 60.1566 40.9995 58.8128C40.9995 57.4689 42.0929 56.3755 43.4367 56.3755H58.8128C60.1566 56.3755 61.25 57.4689 61.25 58.8128ZM61.25 51.1883C61.25 52.5321 60.1566 53.6255 58.8128 53.6255H43.4367C42.0929 53.6255 40.9995 52.5321 40.9995 51.1883C40.9995 49.8444 42.0929 48.751 43.4367 48.751H58.8128C60.1566 48.751 61.25 49.8444 61.25 51.1883ZM43.4367 46.001C42.0929 46.001 40.9995 44.9077 40.9995 43.5639C40.9995 42.22 42.0929 41.1266 43.4367 41.1266H58.8128C60.1566 41.1266 61.25 42.22 61.25 43.5639C61.25 44.9077 60.1566 46.001 58.8128 46.001H43.4367Z" fill="var(--fill-0, black)"/>
</g>
</svg>
