<svg preserveAspectRatio="none" width="100%" height="100%" overflow="visible" style="display: block;" viewBox="0 0 63.9989 64.0001" fill="none" xmlns="http://www.w3.org/2000/svg">
<g id="Group">
<path id="Vector" d="M49.3574 34.7602C49.2233 34.5038 49.0111 34.3128 48.7645 34.2014L49.3668 29.7163C49.6327 27.7363 48.9964 25.7696 47.621 24.3202L46.3833 23.0161C46.2732 22.9001 46.1574 22.7919 46.0368 22.6917C45.6481 18.9101 43.9168 15.4129 41.1238 12.7956C40.1837 11.9146 39.151 11.161 38.0499 10.5426C38.1089 10.1532 38.1398 9.75878 38.1398 9.36251C38.1398 5.05308 34.6338 1.54706 30.3244 1.54706C26.015 1.54706 22.5089 5.05308 22.5089 9.36251C22.5089 9.7589 22.5398 10.1532 22.5988 10.5426C21.4969 11.1615 20.4635 11.9157 19.5227 12.7978C16.7308 15.415 15.0004 18.9111 14.6119 22.6917C14.4912 22.7919 14.3755 22.9001 14.2655 23.0161L13.0278 24.3202C11.6524 25.7694 11.0161 27.7361 11.282 29.7163L11.8842 34.2014C11.6376 34.3128 11.4255 34.5038 11.2912 34.7603L0.699288 55.0049C-0.0986194 56.5297 -0.219749 58.3323 0.367025 59.9502C0.953674 61.5681 2.20197 62.8742 3.79179 63.5334C4.5432 63.8449 5.34435 64.0001 6.14526 64.0001C6.16676 64.0001 54.5457 63.9991 54.5457 63.9991C55.3324 63.9937 56.1188 63.8394 56.8568 63.5334C58.4468 62.8742 59.695 61.5681 60.2816 59.9502C60.8683 58.3324 60.7473 56.5298 59.9493 55.0049L49.3574 34.7602ZM44.57 24.7371L45.8075 26.0413C46.6594 26.9391 47.0536 28.1573 46.8888 29.3836L46.1548 34.8496L43.2909 36.0271C43.0565 35.0334 43.003 33.9994 43.1393 32.9847C43.3865 31.1435 43.214 29.2361 42.6405 27.4688L42.2095 26.1412C42.0909 25.7756 42.128 25.3723 42.3112 25.0344C42.5288 24.6339 42.9128 24.3701 43.3647 24.3105C43.8164 24.2515 44.2559 24.4065 44.57 24.7371ZM32.496 49.4403C32.496 50.6377 31.5217 51.612 30.3243 51.612C29.1268 51.612 28.1527 50.6377 28.1527 49.4403V45.5367C28.8662 45.6349 29.5912 45.6869 30.3243 45.6869C31.0574 45.6869 31.7823 45.6349 32.496 45.5367V49.4403ZM30.3243 43.1866C26.0025 43.1866 21.9988 41.1127 19.4998 37.612C20.0415 36.0231 20.2106 34.3174 19.987 32.6517C19.7892 31.179 19.9271 29.6536 20.3858 28.2405L20.8169 26.9127C21.1099 26.0096 21.0596 25.0237 20.6862 24.1567C24.2126 23.7468 27.5489 22.3522 30.3241 20.1141C33.0994 22.3523 36.4358 23.7468 39.9621 24.1567C39.5888 25.0237 39.5384 26.0097 39.8315 26.9129L40.2625 28.2404C40.7213 29.6538 40.8592 31.1793 40.6614 32.6517C40.4378 34.3173 40.6069 36.023 41.1486 37.612C38.6497 41.1128 34.6459 43.1866 30.3243 43.1866ZM25.6526 44.9833V46.6733H18.6371C17.8584 46.6733 17.0821 46.762 16.3257 46.9329L18.5324 40.4029C20.4573 42.5659 22.9197 44.1404 25.6526 44.9833ZM34.9961 44.9833C37.7288 44.1406 40.1913 42.5659 42.1162 40.4029L44.323 46.9329C43.5665 46.7619 42.7904 46.6733 42.0115 46.6733H34.9961V44.9833ZM30.3243 4.04729C33.2551 4.04729 35.6396 6.43164 35.6396 9.36263C35.6396 9.39001 35.6372 9.41714 35.6368 9.44439C33.9499 8.84274 32.1571 8.52773 30.3241 8.52773C28.4912 8.52773 26.6985 8.84274 25.0117 9.44439C25.0113 9.41714 25.0089 9.39001 25.0089 9.36263C25.0089 6.43164 27.3934 4.04729 30.3243 4.04729ZM30.3243 11.0278C36.7189 11.0278 42.1559 15.6144 43.3678 21.7381C42.9626 21.768 42.5558 21.7844 42.1504 21.7844C38.0787 21.7844 34.177 20.2783 31.1643 17.5438C30.6878 17.1112 29.9607 17.1112 29.484 17.5438C26.4715 20.2783 22.5699 21.7844 18.4981 21.7844C18.0928 21.7844 17.6859 21.768 17.2806 21.7381C18.4924 15.614 23.9286 11.0278 30.3243 11.0278ZM14.841 26.0412L16.0787 24.737C16.3926 24.4063 16.8313 24.2509 17.2837 24.3104C17.7357 24.37 18.1198 24.6338 18.3373 25.0343C18.5206 25.372 18.5578 25.7754 18.439 26.1409L18.008 27.4686C17.4343 29.2357 17.2618 31.143 17.5092 32.9846C17.6455 33.9994 17.592 35.0334 17.3576 36.027L14.4939 34.8496L13.7598 29.3836C13.5951 28.157 13.9891 26.9389 14.841 26.0412ZM7.6532 61.176C6.72354 61.5977 5.69237 61.6148 4.74945 61.2239C3.79229 60.827 3.07064 60.072 2.71737 59.0979C2.36423 58.1239 2.43423 57.0818 2.9145 56.1638L12.9779 36.9294L16.5684 38.4058L9.60153 59.0222C9.27464 59.9893 8.58274 60.7542 7.6532 61.176ZM11.091 61.5035C11.4662 60.9957 11.765 60.4295 11.97 59.8226L15.3254 49.8934C16.3638 49.4159 17.4757 49.1735 18.6371 49.1735H25.6526V49.4404C25.6526 52.0164 27.7483 54.1122 30.3243 54.1122C32.9002 54.1122 34.9961 52.0164 34.9961 49.4404V49.1735H42.0115C43.1554 49.1735 44.2913 49.4218 45.3235 49.8939L48.6786 59.8227C48.8836 60.4296 49.1824 60.9959 49.5577 61.5036H11.091V61.5035ZM57.9314 59.0979C57.5781 60.072 56.8565 60.827 55.8993 61.2239C54.9565 61.6147 53.9251 61.5977 52.9956 61.176C52.0659 60.7542 51.374 59.9893 51.0472 59.0223L44.0804 38.4058L47.6708 36.9294L57.7344 56.1638C58.2144 57.0818 58.2845 58.1239 57.9314 59.0979Z" fill="var(--fill-0, black)"/>
<path id="Vector_2" d="M27.7669 28.0164C27.4073 27.4271 26.6379 27.241 26.0487 27.6005C25.5481 27.906 24.9583 27.9983 24.3885 27.8601C23.7171 27.6974 23.042 28.11 22.8794 28.7811C22.7171 29.452 23.1293 30.1276 23.8004 30.2901C24.1699 30.3795 24.543 30.4236 24.9138 30.4236C25.7662 30.4236 26.605 30.1899 27.351 29.7345C27.9404 29.375 28.1265 28.6057 27.7669 28.0164Z" fill="var(--fill-0, black)"/>
<path id="Vector_3" d="M36.2599 27.8603C35.69 27.9981 35.1005 27.906 34.5998 27.6005C34.0105 27.241 33.2414 27.4271 32.8816 28.0164C32.522 28.6057 32.7081 29.375 33.2975 29.7346C34.0437 30.19 34.8822 30.4239 35.7347 30.4239C36.1054 30.4239 36.4788 30.3796 36.8483 30.2901C37.5192 30.1277 37.9314 29.4521 37.7689 28.7811C37.6068 28.1102 36.932 27.6981 36.2599 27.8603Z" fill="var(--fill-0, black)"/>
<path id="Vector_4" d="M32.8972 35.6297C31.214 35.1159 29.4346 35.1159 27.7514 35.6297C27.0911 35.8313 26.7192 36.53 26.9207 37.1903C27.1224 37.8506 27.8209 38.2219 28.4813 38.0209C29.6869 37.6529 30.9614 37.6527 32.1671 38.0209C32.2887 38.0581 32.4116 38.0757 32.5326 38.0757C33.0679 38.0757 33.5633 37.7291 33.7278 37.1903C33.9294 36.5301 33.5575 35.8315 32.8972 35.6297Z" fill="var(--fill-0, black)"/>
<path id="Vector_5" d="M5.22297 18.0517C5.44273 18.3975 5.81775 18.6135 6.22701 18.6303C6.63403 18.647 7.02755 18.4623 7.27481 18.1356L8.52911 16.4783L10.0289 18.6876C10.2708 19.0438 10.6639 19.2357 11.0642 19.2357C11.306 19.2357 11.5502 19.1657 11.7652 19.0197C12.3364 18.6319 12.4851 17.8545 12.0973 17.2832L9.6184 13.6318C9.39202 13.2985 9.019 13.0947 8.61624 13.0843C8.21572 13.077 7.83058 13.2584 7.58745 13.5797L6.36765 15.1915L4.40006 12.095C4.02992 11.5125 3.25739 11.3401 2.67449 11.7104C2.09185 12.0806 1.91959 12.8533 2.28985 13.4359L5.22297 18.0517Z" fill="var(--fill-0, black)"/>
<path id="Vector_6" d="M11.5662 7.07116C11.5971 7.48443 11.8306 7.85532 12.1899 8.06195C12.5493 8.26846 12.9875 8.28334 13.3598 8.10221L14.5607 7.51768L14.7166 9.92003C14.7596 10.5814 15.3094 11.0893 15.9629 11.0892C15.9902 11.0892 16.0177 11.0883 16.045 11.0866C16.7341 11.0418 17.2562 10.4471 17.2116 9.75815L16.935 5.49823C16.9081 5.08258 16.6759 4.70782 16.3158 4.49843C15.9558 4.2893 15.5154 4.27293 15.1406 4.45506L13.9223 5.04796L13.7374 2.57036C13.6859 1.88195 13.0853 1.36756 12.3978 1.41668C11.7092 1.46806 11.1928 2.06783 11.2441 2.75636L11.5662 7.07116Z" fill="var(--fill-0, black)"/>
<path id="Vector_7" d="M60.9683 5.00033V3.1255C60.9683 1.40206 59.5661 0 57.8426 0H55.6545C53.9311 0 52.5289 1.40206 52.5289 3.1255V5.00045C50.8572 5.00383 49.4983 6.36464 49.4983 8.03708V22.7399C49.4983 24.4145 50.8606 25.7767 52.5352 25.7767H60.962C62.6366 25.7767 63.9989 24.4145 63.9989 22.7399V8.03695C63.9989 6.36451 62.6398 5.00371 60.9683 5.00033ZM55.029 3.1255C55.029 2.78061 55.3097 2.5001 55.6545 2.5001H57.8426C58.1875 2.5001 58.4682 2.78061 58.4682 3.1255V5.00021H55.029V3.1255ZM61.4988 18.363H51.9984V8.03695C51.9984 7.74107 52.2393 7.50031 52.5352 7.50031H60.962C61.2579 7.50031 61.4988 7.74107 61.4988 8.03695V18.363Z" fill="var(--fill-0, black)"/>
</g>
</svg>
