<svg preserveAspectRatio="none" width="100%" height="100%" overflow="visible" style="display: block;" viewBox="0 0 52.6199 64.0001" fill="none" xmlns="http://www.w3.org/2000/svg">
<g id="Group">
<path id="Vector" d="M30.3959 26.3888C30.4579 26.0233 30.1701 25.691 29.7994 25.691H22.8204C22.4496 25.691 22.1619 26.0232 22.2239 26.3888C22.5556 28.3455 24.2588 29.8355 26.3099 29.8355C28.361 29.8355 30.0641 28.3455 30.3959 26.3888Z" fill="var(--fill-0, black)"/>
<path id="Vector_2" d="M37.4627 37.1498H31.8764V35.1996C36.2599 33.1113 39.2969 28.6378 39.2969 23.4677V23.154C41.1141 22.7775 42.4842 21.1643 42.4842 19.2371V8.77597C42.4842 4.10522 38.6844 0.305346 34.0136 0.305346H26.0083C25.0708 0.305346 24.1361 0.466221 23.2507 0.776346C22.0422 0.248721 20.7596 -0.0126542 19.4198 0.000470784C14.3004 0.0488458 10.1355 4.30372 10.1355 9.48547V19.2368C10.1355 21.1641 11.5056 22.7772 13.323 23.1537V23.4675C13.323 28.6376 16.36 33.1111 20.7435 35.1993V37.1496H15.1571C6.7995 37.1496 0 43.9491 0 52.3067V62.7501C0 63.4405 0.55975 64.0001 1.25 64.0001H51.3699C52.0601 64.0001 52.6199 63.4405 52.6199 62.7501V52.307C52.6199 43.9493 45.8204 37.1498 37.4627 37.1498ZM21.4455 39.6498L24.5361 42.7405L22.0228 45.2538L17.7 39.6498H21.4455ZM28.0838 42.7403L31.1744 39.6497H34.9199L30.5971 45.2537L28.0838 42.7403ZM12.6355 19.237V9.4856C12.6355 5.66935 15.6896 2.53585 19.4435 2.50047C20.1203 2.4956 20.7831 2.58372 21.4193 2.76747C21.4439 2.85172 21.4779 2.93472 21.5214 3.0151C21.8509 3.62185 22.6096 3.8466 23.2164 3.51722C24.0739 3.0516 25.0394 2.80547 26.0084 2.80547H34.0138C37.306 2.80547 39.9844 5.48385 39.9844 8.7761V19.2371C39.9844 20.0642 39.3115 20.7371 38.4844 20.7371C37.6572 20.7371 36.9844 20.0642 36.9844 19.2371V15.8883C36.9844 15.198 36.4246 14.6383 35.7344 14.6383H33.2472C31.6607 14.6383 30.1525 13.9946 29.0008 12.8256C26.6518 10.4413 23.1224 8.90085 20.0007 8.90097C17.5937 8.91747 15.6356 10.9066 15.6356 13.3351V19.2372C15.6356 20.0643 14.9628 20.7372 14.1356 20.7372C13.3085 20.7372 12.6355 20.0641 12.6355 19.237ZM15.823 23.4677V22.8625C17.1875 22.2248 18.1355 20.84 18.1355 19.2371V13.335C18.1355 12.2756 18.9799 11.4078 20.0091 11.4007C22.4485 11.4007 25.3461 12.6783 27.2197 14.5801C28.8451 16.2298 30.9857 17.1383 33.2471 17.1383H34.4842V19.2371C34.4842 20.84 35.4324 22.2248 36.7969 22.8625V23.4677C36.7969 29.2502 32.0924 33.9546 26.3099 33.9546C20.5274 33.9546 15.823 29.2501 15.823 23.4677ZM26.3099 36.4546C27.366 36.4546 28.3926 36.327 29.3763 36.088V37.9123L26.3099 40.9786L23.2435 37.9122V36.0878C24.2271 36.327 25.2538 36.4546 26.3099 36.4546ZM2.5 52.307C2.5 45.53 7.85388 39.9805 14.554 39.6645L20.9115 47.9065C21.131 48.191 21.4624 48.3673 21.821 48.3905C21.8479 48.3922 21.8746 48.3931 21.9014 48.3931C22.2317 48.3931 22.5499 48.2621 22.7851 48.027L23.3208 47.4913L25.0486 49.2192L22.831 58.6207C22.7818 58.8296 22.8479 59.049 23.0046 59.1957L25.465 61.5001H2.5V52.307ZM50.1199 61.5001H27.1548L29.6152 59.1956C29.7719 59.0488 29.8381 58.8296 29.7889 58.6206L27.5711 49.2191L29.299 47.4912L29.8346 48.0268C30.0699 48.262 30.3881 48.393 30.7184 48.393C30.7451 48.393 30.7719 48.3921 30.7988 48.3903C31.1574 48.3672 31.4889 48.191 31.7083 47.9063L38.0658 39.6643C44.7659 39.9802 50.1198 45.5298 50.1198 52.3068V61.5001H50.1199Z" fill="var(--fill-0, black)"/>
</g>
</svg>
