<svg preserveAspectRatio="none" width="100%" height="100%" overflow="visible" style="display: block;" viewBox="0 0 64 64" fill="none" xmlns="http://www.w3.org/2000/svg">
<g id="XMLID_42_">
<path id="XMLID_488_" d="M26.215 41.9721C26.4266 41.5486 26.381 41.042 26.097 40.6631L22.3318 35.6427C21.9175 35.0905 21.1341 34.9785 20.5818 35.3927C20.0295 35.8069 19.9175 36.5905 20.3318 37.1427L22.597 40.1631H20.0766C19.3863 40.1631 18.8266 40.7229 18.8266 41.4131C18.8266 42.1034 19.3863 42.6631 20.0766 42.6631H25.097C25.5705 42.6632 26.0031 42.3958 26.215 41.9721Z" fill="var(--fill-0, black)"/>
<path id="XMLID_487_" d="M43.9235 40.1632H41.4031L43.6684 37.1429C44.0825 36.5906 43.9706 35.807 43.4184 35.3929C42.8661 34.9785 42.0826 35.0906 41.6684 35.6429L37.9031 40.6632C37.619 41.042 37.5734 41.5488 37.7851 41.9723C37.9969 42.3959 38.4296 42.6632 38.9031 42.6632H43.9235C44.6138 42.6632 45.1735 42.1035 45.1735 41.4132C45.1735 40.7229 44.6138 40.1632 43.9235 40.1632Z" fill="var(--fill-0, black)"/>
<path id="XMLID_486_" d="M24.874 51.9006C24.3859 52.3887 24.3859 53.1803 24.874 53.6685C25.3622 54.1565 26.1535 54.1565 26.6419 53.6685C29.5962 50.7139 34.4039 50.7139 37.3581 53.6685C37.8466 54.1566 38.6376 54.1565 39.126 53.6685C39.6141 53.1804 39.6141 52.3889 39.126 51.9006C35.1967 47.9715 28.8032 47.9715 24.874 51.9006Z" fill="var(--fill-0, black)"/>
<path id="XMLID_372_" d="M64 11.5889C64 7.42613 60.4026 4.15562 56.2529 4.5565C54.9763 1.82675 52.1828 0 49.1159 0C45.3956 0 42.228 2.6175 41.4361 6.14687C37.5448 6.40175 34.8028 10.1422 35.7788 13.9482C33.8034 15.4791 31.378 16.3164 28.8622 16.3164H20.7881C14.862 16.3164 10.0407 21.1376 10.0407 27.0637V30.1565C7.22175 30.4632 5.02037 32.8572 5.02037 35.7564V35.7743C5.02037 38.8809 7.54775 41.4081 10.6543 41.4081H12.551V44.551C12.551 55.2752 21.2758 64 32 64C42.7243 64 51.449 55.2752 51.449 44.551V41.4081H53.3457C56.4524 41.4081 58.9796 38.8807 58.9796 35.7743V35.7564C58.9796 32.8571 56.7781 30.4632 53.9593 30.1565V26.3521C53.9593 23.6275 53.2185 20.9676 51.8423 18.6541H56.9349C60.8306 18.654 64 15.4846 64 11.5889ZM42.3433 8.66712C43.0555 8.76475 43.7096 8.23613 43.7578 7.51088C43.9438 4.701 46.2973 2.5 49.1159 2.5C51.4664 2.5 53.5815 4.07287 54.2595 6.32487C54.4536 6.96987 55.1244 7.34537 55.7752 7.17312C58.6582 6.41275 61.5 8.5995 61.5 11.5889C61.5 14.1061 59.452 16.1541 56.9348 16.1541H41.8436C39.7701 16.1541 38.0832 14.4673 38.0832 12.3939C38.0832 10.1378 40.0816 8.36225 42.3433 8.66712ZM10.6543 38.9082C8.92625 38.9082 7.52037 37.5024 7.52037 35.7744V35.7565C7.52037 34.0285 8.92625 32.6226 10.6543 32.6226H12.551V38.9084H10.6543V38.9082ZM48.949 44.551C48.949 53.8967 41.3458 61.5 32 61.5C22.6543 61.5 15.051 53.8967 15.051 44.551C15.051 42.665 15.051 33.4503 15.051 32.6224H48.949V44.551ZM56.4796 35.7564V35.7743C56.4796 37.5023 55.0737 38.9081 53.3457 38.9081H51.449V32.6224H53.3457C55.0737 32.6224 56.4796 34.0284 56.4796 35.7564ZM51.4593 26.352V30.1224C47.0533 30.1224 16.9037 30.1224 12.5407 30.1224V27.0636C12.5407 22.516 16.2406 18.8162 20.7881 18.8162H28.8622C31.7635 18.8162 34.5678 17.9065 36.9025 16.2311C38.049 17.704 39.8369 18.654 41.8435 18.654H48.8225C50.5266 20.8469 51.4593 23.5586 51.4593 26.352Z" fill="var(--fill-0, black)"/>
<path id="XMLID_368_" d="M20.3622 8.37575C20.3622 5.30225 17.7674 2.98212 14.8651 3.12075C13.8741 1.241 11.8877 0 9.71537 0C7.06512 0 4.79475 1.79813 4.11212 4.26463C1.76562 4.56313 0 6.56512 0 8.93038C0 11.5236 2.10987 13.6335 4.70325 13.6335H15.1044C18.0035 13.6335 20.3622 11.2749 20.3622 8.37575ZM2.5 8.93038C2.5 7.63275 3.64575 6.56475 4.99563 6.74687C5.70913 6.84425 6.362 6.31525 6.41012 5.59062C6.52475 3.8575 7.9765 2.5 9.71537 2.5C11.1654 2.5 12.4701 3.47037 12.8885 4.85962C13.0829 5.50462 13.7538 5.88037 14.4043 5.70787C16.1446 5.249 17.8622 6.5695 17.8622 8.37575C17.8622 9.89637 16.625 11.1335 15.1044 11.1335H4.70325C3.48837 11.1335 2.5 10.1453 2.5 8.93038Z" fill="var(--fill-0, black)"/>
</g>
</svg>
