<svg preserveAspectRatio="none" width="100%" height="100%" overflow="visible" style="display: block;" viewBox="0 0 64 63.9983" fill="none" xmlns="http://www.w3.org/2000/svg">
<g id="Group">
<path id="Vector" d="M35.0266 30.7952L36.2111 31.3259C36.3769 31.4002 36.5506 31.4354 36.7213 31.4354C37.1989 31.4354 37.6549 31.1601 37.8628 30.696C38.1451 30.066 37.8631 29.3265 37.2331 29.0442L36.0486 28.5136C35.4184 28.2309 34.6791 28.5134 34.3968 29.1434C34.1146 29.7735 34.3966 30.513 35.0266 30.7952Z" fill="var(--fill-0, black)"/>
<path id="Vector_2" d="M27.2788 31.4354C27.4495 31.4354 27.6231 31.4001 27.789 31.3259L28.9735 30.7952C29.6035 30.513 29.8855 29.7735 29.6033 29.1435C29.321 28.5134 28.5814 28.2314 27.9515 28.5137L26.767 29.0444C26.137 29.3266 25.855 30.0661 26.1373 30.6961C26.3451 31.1601 26.8011 31.4354 27.2788 31.4354Z" fill="var(--fill-0, black)"/>
<path id="Vector_3" d="M60.9003 48.4239C60.5569 47.8249 59.7929 47.6182 59.1942 47.9614C58.5953 48.3048 58.3883 49.0687 58.7317 49.6675L60.7649 53.2133C61.5442 54.5722 61.7127 56.143 61.2394 57.6363C60.7662 59.1297 59.7237 60.3167 58.3039 60.9787C56.8846 61.6408 55.3047 61.6764 53.8567 61.0789C52.4085 60.4816 51.3135 59.3428 50.7734 57.8723L42.5777 35.5593L48.9403 32.5923L53.1355 39.9083C53.4789 40.5071 54.2427 40.7145 54.8416 40.3708C55.4405 40.0274 55.6475 39.2635 55.3041 38.6646L50.5374 30.3522C50.2764 29.897 49.769 29.665 49.2732 29.7372L49.6915 24.9553C49.8852 22.7414 49.077 20.5888 47.4746 19.0495L46.7063 18.3115C45.1662 11.4839 39.04 6.56621 32 6.56621C24.97 6.56621 18.8332 11.4878 17.2935 18.3115L16.5254 19.0493C14.9229 20.5887 14.1148 22.7413 14.3084 24.9553L14.7267 29.7372C14.2311 29.6651 13.7236 29.8971 13.4625 30.3522L1.0665 51.9698C-0.0486094 53.9142 -0.299732 56.255 0.377386 58.3917C1.05463 60.5284 2.60811 62.2973 4.63959 63.2445C5.71146 63.7444 6.8727 63.9951 8.03519 63.9951H8.03794L8.03519 63.9983H55.9648L55.963 63.9951H55.9648C57.1272 63.9951 58.2887 63.7443 59.3604 63.2445C61.3919 62.2973 62.9454 60.5284 63.6226 58.3917C64.2998 56.2548 64.0486 53.9142 62.9335 51.9698L60.9003 48.4239ZM50.148 61.4983H13.852C14.6011 60.7107 15.1921 59.7724 15.5734 58.7344L19.3331 48.4984L22.9837 47.9287C23.4058 47.8628 23.8098 47.7517 24.1919 47.6016C26.2968 49.5788 29.0917 50.6968 32 50.6968C34.9082 50.6968 37.703 49.5788 39.808 47.6016C40.19 47.7518 40.5941 47.8629 41.0162 47.9287L44.6668 48.4984L48.4265 58.7344C48.8079 59.7724 49.3989 60.7107 50.148 61.4983ZM23.7104 28.7826L23.4815 26.167L24.967 22.2219C25.084 21.9112 25.1618 21.5892 25.2035 21.2636C26.1814 20.6412 27.2306 20.1588 28.3366 19.8263C31.719 22.6927 35.7762 24.5309 40.1466 25.1793L40.5185 26.167L40.2896 28.7826C40.1471 30.4116 40.3372 32.0592 40.8394 33.6114L40.4799 33.7791C39.8913 34.0536 39.6109 34.7332 39.8349 35.3429L40.531 37.2383C38.5781 40.0283 35.4283 41.6789 32.0001 41.6789C28.571 41.6789 25.4219 40.0285 23.4692 37.2384L24.1654 35.343C24.3894 34.7334 24.109 34.0537 23.5204 33.7792L23.1609 33.6116C23.6628 32.0592 23.8529 30.4116 23.7104 28.7826ZM38.7644 42.2747C39.7839 41.6476 40.7174 40.8764 41.5365 39.9763L43.6808 45.8143L41.4016 45.4587C40.9556 45.3891 40.547 45.2272 40.1897 44.9973C40.188 44.9962 40.1862 44.9951 40.1845 44.9941C39.3234 44.4371 38.7644 43.3646 38.7644 42.2747ZM27.6344 43.4262C29.0112 43.9178 30.4833 44.1788 32 44.1788C33.5164 44.1788 34.9887 43.9178 36.3655 43.4261C36.5557 44.4527 37.0234 45.3826 37.6948 46.1323C36.1054 47.4551 34.0907 48.1969 32 48.1969C29.9092 48.1969 27.8945 47.4551 26.305 46.1323C26.9765 45.3826 27.4441 44.4527 27.6344 43.4262ZM25.2355 42.275C25.2355 43.8185 24.1232 45.2206 22.5982 45.4586L20.3189 45.8143L22.4633 39.9763C23.2825 40.8765 24.216 41.6479 25.2355 42.275ZM47.2012 24.7374L46.6622 30.8962L43.126 32.5452C42.795 31.3982 42.6756 30.193 42.78 29.0005L43.0336 26.1016C43.05 25.9151 43.0242 25.7274 42.9581 25.5521L41.3726 21.3413C41.2017 20.8873 41.225 20.3768 41.4365 19.9403C41.6874 19.4227 42.156 19.0677 42.7222 18.9663C42.8293 18.9472 42.9365 18.9377 43.0425 18.9377C43.4962 18.9377 43.9297 19.1108 44.266 19.434L45.7424 20.8523C46.7969 21.8649 47.3284 23.281 47.2012 24.7374ZM32 9.06618C37.0078 9.06618 41.4599 12.0489 43.4596 16.4577C43.0733 16.4207 42.6782 16.4346 42.2819 16.5056C40.9189 16.7496 39.7908 17.6042 39.1869 18.8503C38.6779 19.9007 38.6218 21.1296 39.0331 22.2223L39.12 22.4529C35.546 21.6766 32.2484 19.9908 29.4884 17.514C29.1805 17.2377 28.7556 17.1315 28.3544 17.2306C27.0765 17.5456 25.8563 18.022 24.7095 18.6513C24.0854 17.5137 23.0073 16.7364 21.7182 16.5055C21.3219 16.4346 20.9267 16.4207 20.5404 16.4577C22.5417 12.0508 26.9996 9.06618 32 9.06618ZM18.2573 20.8523L19.7338 19.434C20.1486 19.0355 20.7113 18.8652 21.2776 18.9663C21.8438 19.0677 22.3124 19.4227 22.5633 19.9403C22.7747 20.3767 22.798 20.8873 22.6273 21.3411L21.0417 25.552C20.9757 25.7273 20.9499 25.915 20.9662 26.1015L21.2198 29.0004C21.3242 30.1928 21.2049 31.3981 20.8738 32.5451L17.3376 30.8961L16.7986 24.7373C16.6716 23.281 17.203 21.8649 18.2573 20.8523ZM5.69621 60.9788C4.27647 60.3168 3.23398 59.1298 2.76074 57.6365C2.28749 56.1431 2.45599 54.5724 3.23523 53.2134L15.06 32.5925L21.4226 35.5594L13.2269 57.8725C12.6868 59.3429 11.5918 60.4817 10.1435 61.0791C8.69543 61.6765 7.11595 61.6409 5.69621 60.9788Z" fill="var(--fill-0, black)"/>
<path id="Vector_4" d="M29.1254 36.7872C29.6136 37.2753 30.4051 37.2753 30.8932 36.7872C31.1887 36.4917 31.5816 36.3289 31.9995 36.3289C32.4175 36.3289 32.8102 36.4917 33.1059 36.7872C33.35 37.0313 33.6699 37.1533 33.9897 37.1533C34.3096 37.1533 34.6295 37.0312 34.8736 36.7872C35.3617 36.2991 35.3617 35.5076 34.8736 35.0194C34.1059 34.2517 33.0852 33.8289 31.9995 33.8289C30.9137 33.8289 29.8931 34.2517 29.1255 35.0194C28.6372 35.5076 28.6372 36.2989 29.1254 36.7872Z" fill="var(--fill-0, black)"/>
<path id="Vector_5" d="M55.9221 17.2875L57.9464 18.4563L53.4096 21.0394C52.8098 21.3809 52.6003 22.1442 52.9419 22.7442C53.1724 23.1489 53.5948 23.3759 54.0293 23.3759C54.239 23.3759 54.4515 23.323 54.6466 23.2119L61.0779 19.5502C61.467 19.3285 61.708 18.9155 61.7094 18.4677C61.7108 18.0198 61.4724 17.6054 61.0844 17.3814L59.231 16.3113L63.2871 14.3792C63.9104 14.0823 64.1751 13.3364 63.8783 12.713C63.5814 12.0898 62.8353 11.8254 62.2123 12.122L56.0096 15.0764C55.5904 15.276 55.3164 15.6917 55.2981 16.1555C55.2799 16.6194 55.5201 17.0554 55.9221 17.2875Z" fill="var(--fill-0, black)"/>
<path id="Vector_6" d="M48.4579 13.7114C48.6879 13.8943 48.9624 13.9831 49.2352 13.9831C49.603 13.9831 49.9675 13.8215 50.2143 13.5111L54.8209 7.71907C55.0996 7.36845 55.1696 6.89558 55.0042 6.47933C54.8389 6.06309 54.4632 5.76721 54.0199 5.70372L51.9014 5.40022L54.9472 2.0975C55.4152 1.59001 55.3831 0.799263 54.8757 0.331268C54.3681 -0.136728 53.5775 -0.104728 53.1094 0.402767L48.4518 5.45322C48.137 5.79446 48.0375 6.28208 48.193 6.71958C48.3487 7.15708 48.7339 7.4722 49.1935 7.53795L51.5074 7.86932L48.2579 11.9552C47.8279 12.4954 47.9177 13.2816 48.4579 13.7114Z" fill="var(--fill-0, black)"/>
<path id="Vector_7" d="M0.71289 14.3792L4.76902 16.3113L2.91564 17.3814C2.52764 17.6054 2.28927 18.0198 2.29064 18.4677C2.29202 18.9155 2.53289 19.3285 2.92214 19.5502L9.35339 23.2119C9.54864 23.3232 9.76114 23.3759 9.97077 23.3759C10.4054 23.3759 10.8276 23.1489 11.0581 22.7442C11.3996 22.1443 11.1903 21.381 10.5904 21.0394L6.05364 18.4563L8.07789 17.2875C8.48002 17.0554 8.72026 16.6195 8.70189 16.1555C8.68364 15.6917 8.40952 15.276 7.99039 15.0764L1.78777 12.122C1.16464 11.8252 0.41864 12.0898 0.121765 12.713C-0.17511 13.3363 0.0895151 14.0823 0.71289 14.3792Z" fill="var(--fill-0, black)"/>
<path id="Vector_8" d="M12.0988 5.40022L9.98029 5.70371C9.53692 5.76721 9.1613 6.06309 8.99593 6.47933C8.83055 6.89558 8.90043 7.36857 9.1793 7.71907L13.7859 13.5111C14.0326 13.8214 14.3971 13.9831 14.765 13.9831C15.0376 13.9831 15.3122 13.8944 15.5422 13.7114C16.0825 13.2816 16.1722 12.4953 15.7425 11.955L12.4928 7.86919L14.8066 7.53782C15.2662 7.47195 15.6515 7.15683 15.8071 6.71945C15.9626 6.28196 15.863 5.79446 15.5484 5.45309L10.8907 0.402642C10.4228 -0.104728 9.63192 -0.137103 9.1243 0.331142C8.61681 0.799138 8.58481 1.58988 9.0528 2.09738L12.0988 5.40022Z" fill="var(--fill-0, black)"/>
<path id="Vector_9" d="M57.031 45.408C57.7213 45.408 58.281 44.8483 58.281 44.158C58.281 43.4676 57.7213 42.908 57.031 42.908C56.3406 42.908 55.781 43.4676 55.781 44.158C55.781 44.8483 56.3406 45.408 57.031 45.408Z" fill="var(--fill-0, black)"/>
</g>
</svg>
