<svg preserveAspectRatio="none" width="100%" height="100%" overflow="visible" style="display: block;" viewBox="0 0 64 64" fill="none" xmlns="http://www.w3.org/2000/svg">
<g id="Group">
<path id="XMLID_1065_" d="M41.4132 13.801H21.3315V13.1264C21.3315 8.64675 24.963 5.01525 29.4427 5.01525H36.3928C38.4723 5.01525 40.158 3.3295 40.158 1.25H41.4132C44.879 1.25 47.6887 4.05962 47.6887 7.5255C47.6887 10.9914 44.879 13.801 41.4132 13.801Z" stroke="var(--stroke-0, black)" stroke-width="2.5" stroke-miterlimit="10" stroke-linecap="round" stroke-linejoin="round"/>
<path id="XMLID_1062_" d="M26.3521 19.4484H27.6072" stroke="var(--stroke-0, black)" stroke-width="2.5" stroke-miterlimit="10" stroke-linecap="round" stroke-linejoin="round"/>
<path id="XMLID_1061_" d="M36.3931 19.4484H37.6482" stroke="var(--stroke-0, black)" stroke-width="2.5" stroke-miterlimit="10" stroke-linecap="round" stroke-linejoin="round"/>
<path id="XMLID_1060_" d="M29.4897 26.9801C29.6011 26.8441 30.5239 25.6948 32.0627 25.7245C33.5269 25.7528 34.3889 26.8321 34.5102 26.9801" stroke="var(--stroke-0, black)" stroke-width="2.5" stroke-miterlimit="10" stroke-linecap="round" stroke-linejoin="round"/>
<path id="XMLID_1068_" d="M48.3162 39.5545C51.2757 40.5988 53.3366 43.4151 53.3366 46.6559V57.7296H10.6631V46.6559C10.6631 43.4153 12.724 40.5988 15.6835 39.5545" stroke="var(--stroke-0, black)" stroke-width="2.5" stroke-miterlimit="10" stroke-linecap="round" stroke-linejoin="round"/>
<path id="XMLID_1057_" d="M45.1787 21.3317H42.6685V16.3113H45.1787C46.5651 16.3113 47.689 17.4352 47.689 18.8215C47.6888 20.2078 46.565 21.3317 45.1787 21.3317Z" stroke="var(--stroke-0, black)" stroke-width="2.5" stroke-miterlimit="10" stroke-linecap="round" stroke-linejoin="round"/>
<path id="XMLID_1055_" d="M18.8213 21.3317H21.3315V16.3113H18.8213C17.4349 16.3113 16.311 17.4352 16.311 18.8215C16.3112 20.2078 17.435 21.3317 18.8213 21.3317Z" stroke="var(--stroke-0, black)" stroke-width="2.5" stroke-miterlimit="10" stroke-linecap="round" stroke-linejoin="round"/>
<path id="XMLID_1052_" d="M42.6683 13.801V21.9592C42.6683 27.8512 37.8919 32.6275 31.9999 32.6275C26.1079 32.6275 21.3315 27.8512 21.3315 21.9592V13.801" stroke="var(--stroke-0, black)" stroke-width="2.5" stroke-miterlimit="10" stroke-linecap="round" stroke-linejoin="round"/>
<path id="XMLID_1049_" d="M48.3163 57.7296H15.6836V36.3929C15.6836 34.3134 17.3693 32.6275 19.4488 32.6275H44.5508C46.6303 32.6275 48.3161 34.3133 48.3161 36.3929V57.7296H48.3163Z" stroke="var(--stroke-0, black)" stroke-width="2.5" stroke-miterlimit="10" stroke-linecap="round" stroke-linejoin="round"/>
<path id="XMLID_1047_" d="M35.7177 45.7822C36.0508 43.7295 34.6569 41.7955 32.6042 41.4623C30.5515 41.1292 28.6175 42.5231 28.2843 44.5758C27.9512 46.6285 29.3452 48.5625 31.3978 48.8957C33.4505 49.2288 35.3846 47.8349 35.7177 45.7822Z" stroke="var(--stroke-0, black)" stroke-width="2.5" stroke-miterlimit="10" stroke-linecap="round" stroke-linejoin="round"/>
<path id="XMLID_49_" d="M62.75 57.7296H1.25V62.75H62.75V57.7296Z" stroke="var(--stroke-0, black)" stroke-width="2.5" stroke-miterlimit="10" stroke-linecap="round" stroke-linejoin="round"/>
</g>
</svg>
