<svg width="32" height="35" viewBox="0 0 32 35" fill="none" xmlns="http://www.w3.org/2000/svg">
<g clip-path="url(#clip0_2334_2014)">
<path d="M13.5737 2.79248C14.6158 0.742405 17.5895 0.748527 18.6323 2.84033L18.7153 3.02588C18.8891 3.4599 18.9285 3.90801 18.9321 4.33838C18.9342 4.58274 18.9241 4.83218 18.9185 5.06787C18.9141 5.24906 18.9151 5.42531 18.9214 5.59814C22.3946 6.73793 24.931 10.1905 25.1743 13.9595L25.2075 14.6567C25.2287 15.3469 25.2183 16.0141 25.2046 16.6616C25.1863 17.5279 25.1625 18.3552 25.1997 19.1704C25.2737 20.7924 25.5877 22.3501 26.6597 23.9761L26.8735 24.2798C27.3619 24.925 27.792 25.1712 28.4653 25.8022L28.6187 25.9556C29.3438 26.7325 29.5033 27.6911 29.2075 28.4956C28.8928 29.3514 28.0744 30 26.9663 30.0591L26.9526 30.0601L20.6665 30.063C19.6243 34.9796 12.7587 34.9784 11.7261 30.063H5.0874C3.94646 30.0313 3.10326 29.3746 2.78076 28.5024C2.45761 27.6282 2.66926 26.5709 3.55615 25.7661L4.07373 25.3159C4.54404 24.9183 4.89295 24.6281 5.32275 23.9761L5.51318 23.6733C6.42712 22.163 6.71154 20.6967 6.78369 19.1724C6.82235 18.3553 6.79947 17.525 6.78076 16.6577C6.76213 15.7936 6.74748 14.8951 6.80322 13.9565L6.83252 13.5903C7.20231 9.88272 9.80651 6.56545 13.2671 5.52197C13.2811 5.15725 13.2574 4.79235 13.2563 4.38428C13.2552 3.93134 13.2883 3.45336 13.479 2.99756L13.5737 2.79248ZM13.3696 30.0601C14.3089 32.8055 18.0857 32.8034 19.0239 30.0601H13.3696ZM15.5229 6.73877L15.0396 6.77295C12.3465 7.04242 9.82342 9.20362 8.87354 11.8423L8.78662 12.0991C8.36832 13.4171 8.35029 14.868 8.38135 16.3716C8.40827 17.6747 8.47284 19.0227 8.32178 20.3101L8.24268 20.8579C7.94373 22.5975 7.10648 24.5208 5.92822 25.8628L5.68799 26.1235C5.50089 26.3164 5.17043 26.5597 4.89795 26.7729C4.75551 26.8844 4.62385 26.991 4.51807 27.0894C4.46279 27.1407 4.41965 27.1856 4.38721 27.2231L4.3208 27.3149C4.15633 27.6312 4.20356 27.9008 4.34521 28.0913C4.49355 28.2907 4.76504 28.4288 5.0874 28.4194H26.8286L26.8188 28.6636L26.8286 28.4204C27.1515 28.4323 27.4335 28.3148 27.5981 28.1333C27.7338 27.9837 27.8073 27.7729 27.7378 27.5015L27.6987 27.3813C27.6447 27.2417 27.54 27.1355 27.3843 27.021C27.3035 26.9616 27.2239 26.9104 27.1294 26.8452C27.0849 26.8145 27.0388 26.7818 26.9927 26.7466L26.855 26.6323C25.5067 25.3907 24.5823 23.9498 24.0493 22.1714L23.9478 21.811C23.3677 19.6109 23.6042 17.4075 23.5864 15.3618C23.5696 13.4287 23.3333 11.5895 22.0474 9.8374L21.7759 9.48779C20.194 7.56205 17.9341 6.63363 15.5229 6.73877ZM17.1743 3.55029C16.7649 2.77339 15.6874 2.68351 15.146 3.32764L15.0454 3.46631C15.0444 3.4681 15.0413 3.47376 15.0356 3.48486C15.0284 3.4991 15.0188 3.5176 15.0083 3.53955C14.9872 3.58349 14.962 3.63822 14.938 3.69189C14.914 3.74562 14.8923 3.7976 14.8765 3.83643C14.8726 3.84584 14.8694 3.85397 14.8667 3.86084V5.15967C15.6614 5.0904 16.5041 5.04786 17.3218 5.1958V3.85889C17.3208 3.85657 17.32 3.8538 17.3188 3.85107C17.3074 3.82351 17.29 3.78702 17.271 3.74658L17.1743 3.55029Z" fill="white" stroke="white" stroke-width="0.5"/>
<path d="M25.8692 1.51407C26.2685 1.42145 26.9688 1.82536 27.3335 2.03348C30.5647 3.87776 32.4102 8.30955 31.0461 11.9754C30.7453 12.7838 29.9359 12.6959 29.8966 12.0342C29.8798 11.7523 30.218 10.8033 30.2766 10.3885C30.6616 7.6617 29.495 4.88421 27.2996 3.35563C26.9162 3.0887 25.7942 2.63162 25.6129 2.39374C25.3763 2.08319 25.4927 1.60141 25.8692 1.51407Z" fill="white"/>
<path d="M5.73208 1.51543C6.26111 1.41259 6.72668 1.83865 6.39982 2.35394C6.23969 2.60638 5.13322 3.05237 4.7665 3.29971C2.51372 4.81918 1.31423 7.61451 1.70579 10.3885C1.76171 10.7847 2.09679 11.7533 2.07077 12.0185C2.0117 12.6205 1.2606 12.7315 0.994921 12.1289C-0.120637 9.5983 0.771968 5.95072 2.45304 3.89601C3.06953 3.1425 4.80856 1.69496 5.73208 1.51543Z" fill="white"/>
<path d="M6.83079 4.66087C7.30091 4.55866 7.73484 4.84086 7.57626 5.36244C7.46804 5.71839 6.60531 6.01254 6.2674 6.29044C5.26346 7.11607 4.7405 8.42425 4.85782 9.75499C4.8951 10.1779 5.34216 11.1442 4.79223 11.3329C3.68026 11.7146 3.69989 9.37192 3.76538 8.69243C3.91024 7.1896 5.3522 4.98236 6.83079 4.66087Z" fill="white"/>
<path d="M24.6995 4.65982C25.0752 4.54352 25.6555 4.88449 25.9778 5.0878C27.5187 6.06 28.3566 7.89772 28.2278 9.75929C28.1943 10.2437 28.0618 11.3277 27.5022 11.3691C26.5141 11.4423 27.0768 10.2947 27.1243 9.75536C27.2407 8.43479 26.7407 7.15393 25.7516 6.324C25.393 6.0231 24.4671 5.70552 24.3881 5.30718C24.3427 5.07853 24.4792 4.72803 24.6995 4.65982Z" fill="white"/>
</g>
<defs>
<clipPath id="clip0_2334_2014">
<rect width="31" height="35" fill="white" transform="translate(0.5)"/>
</clipPath>
</defs>
</svg>
