<svg width="51" height="75" viewBox="0 0 51 75" fill="none" xmlns="http://www.w3.org/2000/svg">
<path d="M8.87695 65.7483C9.50486 67.2481 10.3782 68.6324 11.4671 69.8539L13.0211 68.4725C12.085 67.4222 11.3358 66.2349 10.7949 64.9448L8.87695 65.7483Z" fill="#FF6A01"/>
<path d="M8.15479 56.5601L10.1755 57.051C10.5052 55.6925 11.0603 54.4024 11.8238 53.2194L10.0728 52.0991C9.18513 53.4748 8.54009 54.9761 8.15479 56.5601Z" fill="#FF6A01"/>
<path d="M37.1181 57.76C36.8655 56.1445 36.3489 54.599 35.5783 53.1562L33.7417 54.1281C34.3996 55.3668 34.8477 56.6954 35.0632 58.0825L37.1181 57.76Z" fill="#FF6A01"/>
<path d="M13.0815 71.4133C14.3431 72.4579 15.7573 73.2799 17.2842 73.855L18.0192 71.9142C16.7077 71.4204 15.4947 70.714 14.4087 69.8149L13.0815 71.4133Z" fill="#FF6A01"/>
<path d="M9.81064 60.0613C9.81064 59.6902 9.82491 59.3206 9.85916 58.9581L7.78564 58.7783C7.74711 59.2036 7.72998 59.6317 7.72998 60.0613C7.72998 61.2614 7.87554 62.4573 8.16381 63.6132L10.1817 63.1152C9.93479 62.1219 9.81064 61.0959 9.81064 60.0613Z" fill="#FF6A01"/>
<path d="M25.957 72.2592L26.5179 74.2585C28.0919 73.8161 29.5732 73.1211 30.9218 72.1907L29.7359 70.4854C28.5814 71.2845 27.3085 71.8824 25.957 72.2592Z" fill="#FF6A01"/>
<path d="M31.2358 69.2685L32.6643 70.7769C33.8574 69.6552 34.8463 68.3551 35.6055 66.9124L33.7646 65.9448C33.1124 67.1864 32.259 68.3038 31.2358 69.2685Z" fill="#FF6A01"/>
<mask id="mask0_5_1501" style="mask-type:luminance" maskUnits="userSpaceOnUse" x="19" y="72" width="6" height="3">
<path d="M19.1128 72.4272H24.5927V74.8062H19.1128V72.4272Z" fill="white"/>
</mask>
<g mask="url(#mask0_5_1501)">
<path d="M22.5208 72.7301C22.5208 72.7301 22.518 72.7301 22.5137 72.7301C21.6275 72.7301 20.7398 72.6373 19.8793 72.4575L19.4526 74.4868C20.4516 74.698 21.4848 74.805 22.5137 74.805H22.5251C23.1173 74.805 23.7181 74.7679 24.3075 74.698L24.0578 72.6373C23.5512 72.6987 23.0346 72.7301 22.5208 72.7301Z" fill="#FF6A01"/>
</g>
<path d="M35.2188 60.0605C35.2188 61.4675 34.9904 62.8518 34.5366 64.1733L36.506 64.8468C37.0326 63.3085 37.2994 61.7002 37.2994 60.0391V60.002H35.2188V60.0605Z" fill="#FF6A01"/>
<path d="M31.9119 48.6787C31.3568 49.1382 30.7646 49.5564 30.1438 49.9331C31.1185 50.6595 31.9776 51.5214 32.7068 52.4961L34.3736 51.2588C33.6601 50.2999 32.8338 49.4351 31.9119 48.6787Z" fill="#FF6A01"/>
<path d="M29.4615 58.6611L25.2274 60.6104L24.3555 58.7267L28.5896 56.7773L29.4615 58.6611Z" fill="#FF6A01"/>
<path d="M20.6727 58.7286L19.8122 60.618L15.7878 58.7942L16.6498 56.9048L20.6727 58.7286Z" fill="#FF6A01"/>
<path d="M22.5194 64.8044C23.3171 64.8044 23.9664 65.4523 23.9664 66.2472H26.0471C26.0471 64.3078 24.4645 62.7295 22.5194 62.7295C20.5743 62.7295 18.9917 64.3078 18.9917 66.2472H21.0724C21.0724 65.4523 21.7217 64.8044 22.5194 64.8044Z" fill="#FF6A01"/>
<path d="M22.5194 40.9377C23.3171 40.9377 23.9664 41.5856 23.9664 42.3819H26.0471C26.0471 40.4411 24.4645 38.8628 22.5194 38.8628C20.5743 38.8628 18.9917 40.4411 18.9917 42.3819H21.0724C21.0724 41.5856 21.7217 40.9377 22.5194 40.9377Z" fill="#FF6A01"/>
<path d="M19.9259 35.8067C19.9259 35.9137 19.9159 36.0193 19.8959 36.1235C19.8745 36.2276 19.8431 36.329 19.8031 36.4274C19.7618 36.5259 19.7118 36.6201 19.6519 36.7086C19.5934 36.797 19.5263 36.8798 19.4507 36.954C19.375 37.0296 19.2922 37.0967 19.2038 37.1567C19.1153 37.2152 19.0211 37.2651 18.9226 37.3065C18.8242 37.3465 18.7214 37.3779 18.6172 37.3993C18.5131 37.4192 18.406 37.4292 18.3004 37.4292C18.1934 37.4292 18.0878 37.4192 17.9822 37.3993C17.878 37.3779 17.7753 37.3465 17.6768 37.3065C17.5783 37.2651 17.4842 37.2152 17.3957 37.1567C17.3072 37.0967 17.2244 37.0296 17.1502 36.954C17.0746 36.8798 17.0061 36.797 16.9476 36.7086C16.8876 36.6201 16.8377 36.5259 16.7963 36.4274C16.7564 36.329 16.725 36.2276 16.705 36.1235C16.6836 36.0193 16.6736 35.9137 16.6736 35.8067C16.6736 35.7011 16.6836 35.5954 16.705 35.4898C16.725 35.3857 16.7564 35.2843 16.7963 35.1859C16.8377 35.0874 16.8876 34.9947 16.9476 34.9047C17.0061 34.8163 17.0746 34.7349 17.1502 34.6593C17.2244 34.5837 17.3072 34.5166 17.3957 34.4581C17.4842 34.3981 17.5783 34.3482 17.6768 34.3082C17.7753 34.2669 17.878 34.2369 17.9822 34.2155C18.0878 34.1941 18.1934 34.1841 18.3004 34.1841C18.406 34.1841 18.5131 34.1941 18.6172 34.2155C18.7214 34.2369 18.8242 34.2669 18.9226 34.3082C19.0211 34.3482 19.1153 34.3981 19.2038 34.4581C19.2922 34.5166 19.375 34.5837 19.4507 34.6593C19.5263 34.7349 19.5934 34.8163 19.6519 34.9047C19.7118 34.9947 19.7618 35.0874 19.8031 35.1859C19.8431 35.2843 19.8745 35.3857 19.8959 35.4898C19.9159 35.5954 19.9259 35.7011 19.9259 35.8067Z" fill="#FF6A01"/>
<path d="M28.3553 35.8067C28.3553 35.9137 28.3453 36.0193 28.3239 36.1235C28.3039 36.2276 28.2725 36.329 28.2311 36.4274C28.1912 36.5259 28.1412 36.6201 28.0813 36.7086C28.0213 36.797 27.9543 36.8784 27.8786 36.954C27.803 37.0296 27.7217 37.0967 27.6317 37.1567C27.5433 37.2152 27.4505 37.2651 27.3506 37.3065C27.2521 37.3465 27.1508 37.3779 27.0467 37.3978C26.941 37.4192 26.8354 37.4292 26.7284 37.4292C26.6214 37.4292 26.5158 37.4192 26.4116 37.3978C26.306 37.3779 26.2047 37.3465 26.1062 37.3065C26.0077 37.2651 25.9136 37.2152 25.8251 37.1567C25.7366 37.0967 25.6538 37.0296 25.5782 36.954C25.5026 36.8784 25.4355 36.797 25.377 36.7086C25.317 36.6201 25.2671 36.5259 25.2257 36.4274C25.1858 36.329 25.1544 36.2276 25.133 36.1235C25.113 36.0193 25.1016 35.9137 25.1016 35.8067C25.1016 35.7011 25.113 35.5954 25.133 35.4898C25.1544 35.3857 25.1858 35.2843 25.2257 35.1859C25.2671 35.0874 25.317 34.9947 25.377 34.9062C25.4355 34.8163 25.5026 34.7349 25.5782 34.6593C25.6538 34.5837 25.7366 34.5166 25.8251 34.4581C25.9136 34.3981 26.0077 34.3482 26.1062 34.3082C26.2047 34.2669 26.306 34.2369 26.4116 34.2155C26.5158 34.1941 26.6214 34.1841 26.7284 34.1841C26.8354 34.1841 26.941 34.1941 27.0467 34.2155C27.1508 34.2369 27.2521 34.2669 27.3506 34.3082C27.4505 34.3482 27.5433 34.3981 27.6317 34.4581C27.7217 34.5166 27.803 34.5837 27.8786 34.6593C27.9543 34.7349 28.0213 34.8163 28.0813 34.9062C28.1412 34.9947 28.1912 35.0874 28.2311 35.1859C28.2725 35.2843 28.3039 35.3857 28.3239 35.4898C28.3453 35.5954 28.3553 35.7011 28.3553 35.8067Z" fill="#FF6A01"/>
<path d="M13.1114 48.6814C12.5078 49.1752 11.9455 49.7189 11.4261 50.3068L12.983 51.6797C13.5581 51.0304 14.1932 50.4453 14.8796 49.9301C17.1086 51.2787 19.7202 52.0536 22.5101 52.0536C25.3014 52.0536 27.9129 51.2787 30.142 49.933C30.7628 49.5562 31.355 49.1381 31.9102 48.6786C35.1938 45.97 37.2916 41.8772 37.2916 37.3049C37.2916 33.292 35.6733 29.6458 33.0547 26.9829C32.5152 27.4296 31.9473 27.8449 31.3522 28.223C33.7325 30.5249 35.2109 33.7443 35.2109 37.3049C35.2109 44.2918 29.5141 49.9786 22.5101 49.9786C19.9556 49.9786 17.5767 49.2208 15.5831 47.9194C15.3434 47.7652 15.1079 47.6026 14.8824 47.4285C11.8042 45.1152 9.81064 41.4376 9.81064 37.3049C9.81064 33.7443 11.2891 30.5249 13.668 28.223C13.0743 27.8449 12.5049 27.4296 11.9669 26.9829C9.34827 29.6458 7.72998 33.292 7.72998 37.3049C7.72998 41.8772 9.82776 45.97 13.1114 48.6814Z" fill="#FF6A01"/>
<mask id="mask1_5_1501" style="mask-type:luminance" maskUnits="userSpaceOnUse" x="7" y="0" width="31" height="29">
<path d="M7.78467 0.00585938H37.0109V28.9539H7.78467V0.00585938Z" fill="white"/>
</mask>
<g mask="url(#mask1_5_1501)">
<path d="M13.586 25.5632C14.1611 26.0184 14.7748 26.4337 15.4198 26.7976C17.5105 27.9863 19.935 28.6656 22.5138 28.6656C25.0939 28.6656 27.517 27.9863 29.6077 26.7976C30.2527 26.4337 30.8678 26.0184 31.4429 25.5632C34.7537 22.9374 36.8786 18.8831 36.8786 14.335C36.8786 6.42194 30.4468 0.00585938 22.5138 0.00585938C14.5821 0.00585938 8.14893 6.42194 8.14893 14.335C8.14893 18.8831 10.2753 22.9374 13.586 25.5632ZM26.7264 10.9743C27.6255 10.9743 28.3533 11.7007 28.3533 12.5968C28.3533 13.493 27.6255 14.2194 26.7264 14.2194C25.8288 14.2194 25.0996 13.493 25.0996 12.5968C25.0996 11.7007 25.8288 10.9743 26.7264 10.9743ZM22.5152 19.2313C23.6426 19.2313 24.5944 18.5705 24.5944 17.7871H26.6751C26.6751 19.7279 24.8085 21.3062 22.5152 21.3062C20.2219 21.3062 18.3553 19.7279 18.3553 17.7871H20.4359C20.4359 18.5691 21.3878 19.2313 22.5152 19.2313ZM19.9293 12.5968C19.9293 13.493 19.2015 14.2194 18.3039 14.2194C17.4049 14.2194 16.6756 13.493 16.6756 12.5968C16.6756 11.7007 17.4049 10.9743 18.3039 10.9743C19.2015 10.9743 19.9293 11.7007 19.9293 12.5968ZM16.3117 3.55925L17.178 5.05767C16.3988 5.50576 15.6767 6.0509 15.0317 6.67881L13.8215 5.44012C14.5707 4.71232 15.4084 4.0787 16.3117 3.55925ZM10.0569 14.335C10.0569 12.3856 10.4979 10.5176 11.3698 8.78373C11.5682 8.38986 11.7908 8.00027 12.032 7.62638L13.4904 8.56111C13.2821 8.88505 13.0908 9.21899 12.9196 9.55863C12.1704 11.0499 11.7908 12.6568 11.7908 14.335H10.0569Z" fill="#FF6A01"/>
</g>
<path d="M44.791 45.4019H46.8717V57.4905H44.791V45.4019Z" fill="#FF6A01"/>
<mask id="mask2_5_1501" style="mask-type:luminance" maskUnits="userSpaceOnUse" x="44" y="60" width="3" height="15">
<path d="M44.6819 60.0068H46.8739V74.8069H44.6819V60.0068Z" fill="white"/>
</mask>
<g mask="url(#mask2_5_1501)">
<path d="M44.791 60.1855H46.8717V74.753H44.791V60.1855Z" fill="#FF6A01"/>
</g>
<mask id="mask3_5_1501" style="mask-type:luminance" maskUnits="userSpaceOnUse" x="0" y="0" width="8" height="8">
<path d="M0 0.00585938H7.42073V7.39948H0V0.00585938Z" fill="white"/>
</mask>
<g mask="url(#mask3_5_1501)">
<path d="M4.82752 0.0805664H2.74686V2.53369H0.0183105V4.60864H2.74686V7.33005H4.82752V4.60864H7.28492V2.53369H4.82752V0.0805664Z" fill="#FF6A01"/>
</g>
<path d="M44.791 7.79834H46.8717V42.8185H44.791V7.79834Z" fill="#FF6A01"/>
<mask id="mask4_5_1501" style="mask-type:luminance" maskUnits="userSpaceOnUse" x="41" y="0" width="10" height="7">
<path d="M41.3931 0.0922852H50.1381V6.6682H41.3931V0.0922852Z" fill="white"/>
</mask>
<g mask="url(#mask4_5_1501)">
<path d="M49.845 4.77197L46.7311 0.563562C46.537 0.300982 46.2316 0.145432 45.9048 0.142578C45.5709 0.145432 45.2684 0.289565 45.0686 0.547864L41.8263 4.75485C41.5851 5.0688 41.5437 5.49121 41.7193 5.84655C41.8934 6.20047 42.2558 6.42594 42.6526 6.42594H44.3522V6.42023H47.2977V6.42594H49.0087C49.3997 6.42594 49.7593 6.20475 49.9363 5.85512C50.1133 5.50548 50.0776 5.08736 49.845 4.77197Z" fill="#FF6A01"/>
</g>
</svg>
