<svg width="99" height="99" viewBox="0 0 99 99" fill="none" xmlns="http://www.w3.org/2000/svg">
<circle cx="49.4693" cy="49.0733" r="48.4898" fill="white" stroke="black" stroke-width="0.979592"/>
<mask id="mask0_234_124" style="mask-type:luminance" maskUnits="userSpaceOnUse" x="24" y="24" width="51" height="51">
<path d="M24.4363 24.0439H74.4957V74.1033H24.4363V24.0439Z" fill="white"/>
</mask>
<g mask="url(#mask0_234_124)">
<path d="M49.475 26.4326C36.9872 26.4326 26.8271 36.5919 26.8271 49.0797C26.8271 61.5675 36.9872 71.7268 49.475 71.7268C61.962 71.7268 72.1221 61.5675 72.1221 49.0797C72.1221 36.5919 61.962 26.4326 49.475 26.4326ZM49.475 74.1184C35.668 74.1184 24.4363 62.8859 24.4363 49.0797C24.4363 35.2736 35.668 24.041 49.475 24.041C63.2812 24.041 74.5112 35.2736 74.5112 49.0797C74.5112 62.8859 63.2812 74.1184 49.475 74.1184Z" fill="black"/>
</g>
<path d="M56.3893 57.1938C56.0835 57.1938 55.7785 57.0774 55.5456 56.8429L48.6265 49.9254C48.4019 49.7008 48.2756 49.3974 48.2756 49.0801V35.1756C48.2756 34.5147 48.8118 33.9785 49.4727 33.9785C50.1327 33.9785 50.6673 34.5147 50.6673 35.1756V48.5857L57.2354 55.1531C57.7019 55.6204 57.7019 56.3772 57.2354 56.8429C57.0001 57.0774 56.6951 57.1938 56.3893 57.1938Z" fill="black"/>
<path d="M60.2826 32.7446L60.4843 32.3978C60.8131 31.8263 60.6179 31.0949 60.0465 30.7653C59.4725 30.4341 58.7412 30.6317 58.4124 31.2032L58.2115 31.5524C57.8819 32.1239 58.0795 32.8528 58.651 33.184C58.8379 33.2931 59.0454 33.3439 59.2462 33.3439C59.6603 33.3439 60.062 33.1291 60.2826 32.7446ZM40.5314 66.9571L40.7322 66.6103C41.0618 66.0388 40.8667 65.3074 40.2928 64.9762C39.7213 64.6466 38.99 64.8417 38.6604 65.414L38.462 65.7625C38.1307 66.334 38.3275 67.0653 38.899 67.3949C39.0867 67.5031 39.2933 67.5548 39.4942 67.5548C39.9082 67.5548 40.3108 67.3416 40.5314 66.9571ZM67.0024 40.3401L67.3501 40.1384C67.9215 39.8096 68.1167 39.0782 67.7871 38.5068C67.4558 37.9345 66.7245 37.7394 66.153 38.069L65.8062 38.2698C65.2347 38.5994 65.0396 39.3308 65.3684 39.9022C65.5898 40.2868 65.9915 40.4991 66.4055 40.4991C66.6089 40.4991 66.8139 40.4483 67.0024 40.3401ZM32.7908 60.0913L33.1376 59.8904C33.709 59.5608 33.9058 58.8295 33.5746 58.258C33.2458 57.6849 32.5128 57.4914 31.943 57.8202L31.5962 58.0219C31.0239 58.3531 30.8271 59.0845 31.1583 59.6559C31.3789 60.038 31.7815 60.2528 32.1955 60.2528C32.398 60.2528 32.603 60.1995 32.7908 60.0913ZM70.6198 49.0801C70.6198 48.4201 70.086 47.8855 69.4252 47.8855H69.0235C68.3626 47.8855 67.8289 48.4201 67.8289 49.0801C67.8289 49.7401 68.3626 50.2747 69.0235 50.2747H69.4252C70.086 50.2747 70.6198 49.7401 70.6198 49.0801ZM31.1165 49.0801C31.1165 48.4201 30.5803 47.8855 29.9203 47.8855H29.5202C28.8602 47.8855 28.324 48.4201 28.324 49.0801C28.324 49.7401 28.8602 50.2747 29.5202 50.2747H29.9203C30.5803 50.2747 31.1165 49.7401 31.1165 49.0801ZM67.7871 59.6559C68.1167 59.0845 67.9215 58.3531 67.3501 58.0219L67.0024 57.8202C66.431 57.4914 65.6996 57.6865 65.3684 58.258C65.0396 58.8295 65.2347 59.5608 65.8062 59.8904L66.153 60.0913C66.3408 60.1995 66.5474 60.2528 66.7507 60.2528C67.1623 60.2528 67.5649 60.038 67.7871 59.6559ZM33.5746 39.9022C33.9058 39.3308 33.709 38.5994 33.1376 38.2698L32.7908 38.069C32.2185 37.7394 31.4871 37.9345 31.1583 38.5068C30.8271 39.0782 31.0239 39.8096 31.5962 40.1384L31.943 40.3401C32.1299 40.4483 32.3374 40.4991 32.5382 40.4991C32.9523 40.4991 33.354 40.2868 33.5746 39.9022ZM60.0465 67.3949C60.6179 67.0653 60.8131 66.334 60.4843 65.7625L60.2826 65.414C59.9538 64.8417 59.2225 64.6466 58.651 64.9762C58.0795 65.3074 57.8819 66.0388 58.2132 66.6103L58.4141 66.9571C58.6354 67.3416 59.0372 67.5548 59.4488 67.5548C59.6521 67.5548 59.8571 67.5031 60.0465 67.3949ZM40.2928 33.184C40.8667 32.8528 41.0618 32.1239 40.7322 31.5524L40.5314 31.2032C40.2001 30.6317 39.4688 30.4341 38.899 30.7653C38.3275 31.0949 38.1307 31.8263 38.4595 32.3978L38.6604 32.7446C38.8817 33.1291 39.2835 33.3439 39.6975 33.3439C39.9009 33.3439 40.1058 33.2931 40.2928 33.184ZM50.6677 69.033V68.6305C50.6677 67.9721 50.1331 67.4359 49.4731 67.4359C48.8123 67.4359 48.2761 67.9721 48.2761 68.6305V69.033C48.2761 69.6931 48.8123 70.2276 49.4731 70.2276C50.1331 70.2276 50.6677 69.6931 50.6677 69.033ZM49.4731 30.7244C48.8123 30.7244 48.2761 30.1898 48.2761 29.5298V29.1272C48.2761 28.4672 48.8123 27.9326 49.4731 27.9326C50.1331 27.9326 50.6677 28.4672 50.6677 29.1272V29.5298C50.6677 30.1898 50.1331 30.7244 49.4731 30.7244Z" fill="black"/>
</svg>
