<svg xmlns="http://www.w3.org/2000/svg" width="74" height="83" viewBox="0 0 74 83" fill="none">
  <path d="M49.6503 35.7602L31.4685 53.9722L24.3904 46.8824C24.2533 46.7452 24.096 46.6382 23.9171 46.5646C23.7381 46.491 23.5508 46.4526 23.3585 46.4526C23.1644 46.4526 22.9771 46.491 22.7982 46.5646C22.6192 46.6382 22.462 46.7452 22.3248 46.8824L14.061 55.1596C13.9238 55.2968 13.8185 55.4557 13.7449 55.6346C13.6696 55.8136 13.6328 55.9992 13.6328 56.1932C13.6328 56.3873 13.6696 56.5746 13.7449 56.7535C13.8185 56.9325 13.9238 57.0914 14.061 57.2285L30.4348 73.6325C30.572 73.7697 30.7292 73.8767 30.9082 73.9503C31.0871 74.0239 31.2728 74.0623 31.4668 74.0623C31.6608 74.0623 31.8464 74.0239 32.0254 73.9503C32.2044 73.8767 32.3633 73.7697 32.5004 73.6325L59.9797 46.1063C60.1169 45.9692 60.2223 45.8103 60.2975 45.6313C60.3711 45.4524 60.4079 45.2651 60.4079 45.0711C60.4079 44.877 60.3711 44.6914 60.2975 44.5124C60.2223 44.3318 60.1169 44.1746 59.9797 44.0374L51.7159 35.7602C51.5787 35.623 51.4215 35.5177 51.2425 35.4441C51.0636 35.3688 50.8779 35.332 50.6839 35.332C50.4899 35.332 50.3043 35.3688 50.1253 35.4441C49.9464 35.5177 49.7875 35.623 49.6503 35.7602ZM31.4685 70.53L17.1518 56.1899L23.3568 49.9899L30.4348 57.0814C30.5737 57.2135 30.7326 57.3138 30.9115 57.3857C31.0905 57.4577 31.2745 57.4928 31.4668 57.4928C31.6591 57.4928 31.8448 57.4577 32.0237 57.3857C32.201 57.3138 32.3599 57.2135 32.5004 57.0814L50.6839 38.8694L56.8873 45.0711L31.4685 70.53Z" fill="#A3CB03"/>
  <mask id="mask0_5_987" style="mask-type:luminance" maskUnits="userSpaceOnUse" x="0" y="0" width="74" height="83">
    <path d="M0.5 0.169922H73.2876V82.3286H0.5V0.169922Z" fill="white"/>
  </mask>
  <g mask="url(#mask0_5_987)">
    <path d="M65.9027 9.84894H60.0422V7.98242C60.0422 7.73489 60.0305 7.48568 60.0055 7.23815C59.982 6.99062 59.9452 6.74476 59.8967 6.50057C59.8482 6.25639 59.788 6.01555 59.7161 5.77638C59.6442 5.53888 59.5606 5.30473 59.4652 5.07392C59.3716 4.84479 59.2645 4.619 59.1475 4.3999C59.0304 4.1808 58.9033 3.96672 58.7645 3.75933C58.6273 3.55361 58.4801 3.35291 58.3212 3.16057C58.164 2.96823 57.9984 2.78426 57.8212 2.60697C57.6455 2.43136 57.4632 2.26411 57.2709 2.10689C57.0786 1.948 56.8795 1.80082 56.6721 1.662C56.4664 1.52318 56.2523 1.39607 56.0332 1.279C55.8141 1.16192 55.59 1.05488 55.3609 0.959548C55.1318 0.864215 54.8976 0.780589 54.6601 0.708671C54.4209 0.635081 54.1801 0.57487 53.9376 0.526368C53.6934 0.477865 53.4475 0.44107 53.2 0.417655C52.9525 0.392567 52.7049 0.380859 52.4574 0.380859C52.2082 0.380859 51.9607 0.392567 51.7131 0.417655C51.4656 0.44107 51.2198 0.477865 50.9772 0.526368C50.7331 0.57487 50.4922 0.635081 50.2547 0.708671C50.0155 0.780589 49.7831 0.864215 49.5523 0.959548C49.3231 1.05488 49.099 1.16192 48.8799 1.279C48.6608 1.39607 48.4484 1.52318 48.241 1.662C48.0353 1.80082 47.8346 1.948 47.6439 2.10689C47.4516 2.26411 47.2676 2.43136 47.092 2.60697C46.9164 2.78426 46.7491 2.96823 46.5919 3.16057C46.4347 3.35291 46.2859 3.55361 46.1487 3.75933C46.0099 3.96672 45.8828 4.1808 45.7657 4.3999C45.6486 4.619 45.5433 4.84479 45.4479 5.07392C45.3526 5.30473 45.269 5.53888 45.197 5.77638C45.1251 6.01555 45.0649 6.25639 45.0164 6.50057C44.9679 6.74476 44.9328 6.99062 44.9077 7.23815C44.8843 7.48568 44.8726 7.73489 44.8726 7.98242V9.84894H27.7176C27.5253 9.84894 27.338 9.88573 27.159 9.961C26.9801 10.0346 26.8229 10.14 26.6857 10.2771C26.5486 10.4142 26.4432 10.5731 26.3679 10.7521C26.2943 10.9311 26.2575 11.1184 26.2575 11.3124V14.639C26.2575 14.9467 26.2274 15.2495 26.1672 15.5505C26.1087 15.8516 26.02 16.1443 25.903 16.4269C25.7859 16.7096 25.6421 16.9788 25.4715 17.2347C25.3009 17.489 25.1085 17.7248 24.8911 17.9422C24.6753 18.1596 24.4395 18.352 24.1853 18.5226C23.9311 18.6932 23.6618 18.837 23.3792 18.9541C23.0965 19.0728 22.8038 19.1615 22.5044 19.22C22.2034 19.2802 21.9007 19.3103 21.5946 19.3103C21.2885 19.3103 20.9841 19.2802 20.6847 19.22C20.3837 19.1615 20.0927 19.0728 19.81 18.9541C19.5274 18.837 19.2581 18.6932 19.0039 18.5226C18.7496 18.352 18.5138 18.1596 18.2964 17.9422C18.0806 17.7248 17.8866 17.489 17.7177 17.2347C17.5471 16.9788 17.4033 16.7096 17.2862 16.4269C17.1691 16.1443 17.0805 15.8516 17.0203 15.5505C16.9617 15.2495 16.9316 14.9467 16.9316 14.639V7.98242C16.9316 7.50742 17.0019 7.04414 17.144 6.59089C17.2862 6.13764 17.4919 5.71617 17.7629 5.3248C18.0321 4.9351 18.3549 4.59391 18.7279 4.30122C19.1025 4.01021 19.5123 3.78107 19.9555 3.61382C20.3987 3.44657 20.8587 3.34956 21.332 3.3228C21.8053 3.29604 22.2719 3.3412 22.7319 3.45661C23.1918 3.57201 23.6233 3.75431 24.0281 4.00184C24.4328 4.25105 24.7908 4.5521 25.1035 4.91002C25.1654 4.98862 25.234 5.06054 25.3092 5.1241C25.3845 5.18933 25.4664 5.24452 25.5534 5.29302C25.6404 5.33985 25.7324 5.37832 25.8277 5.40842C25.923 5.43686 26.02 5.45693 26.1187 5.46529C26.2174 5.47532 26.3161 5.47365 26.4148 5.46195C26.5134 5.45191 26.6104 5.43017 26.7058 5.40006C26.7994 5.36996 26.8898 5.32982 26.9767 5.27964C27.062 5.23114 27.144 5.1726 27.2176 5.10737C27.2928 5.04214 27.3597 4.96855 27.4199 4.88995C27.4801 4.80967 27.5303 4.72604 27.5738 4.63573C27.6156 4.54541 27.6491 4.45175 27.6725 4.35642C27.6959 4.25941 27.7093 4.16073 27.7143 4.06205C27.7176 3.9617 27.711 3.86303 27.6942 3.76435C27.6775 3.66567 27.6507 3.57034 27.6156 3.47835C27.5788 3.38469 27.5337 3.29772 27.4801 3.21409C27.4266 3.13047 27.3647 3.05186 27.2945 2.98161C27.0419 2.69227 26.7693 2.42467 26.4766 2.17546C26.1823 1.92793 25.8729 1.70381 25.5451 1.50311C25.2172 1.30241 24.8777 1.12847 24.5231 0.979618C24.1702 0.830765 23.8073 0.708671 23.4343 0.615011C23.063 0.52135 22.6851 0.456122 22.3037 0.421C21.9224 0.384204 21.5394 0.377514 21.1564 0.399257C20.7734 0.421 20.3937 0.471175 20.0191 0.549783C19.6428 0.630063 19.2765 0.737104 18.9169 0.872577C18.5573 1.00805 18.2111 1.16861 17.8766 1.35761C17.5404 1.54493 17.2226 1.75734 16.9199 1.99316C16.6172 2.23066 16.3345 2.48822 16.0703 2.76753C15.8077 3.04684 15.5669 3.34455 15.3478 3.66065C15.1303 3.97676 14.9363 4.30791 14.7691 4.65245C14.6001 4.99866 14.4597 5.3549 14.3443 5.72118C14.2305 6.08746 14.1452 6.46043 14.0867 6.84177C14.0298 7.22143 13.9997 7.60276 14.0014 7.98744V9.85396H8.1476C7.90843 9.85396 7.67094 9.86566 7.43344 9.88908C7.19427 9.91249 6.95845 9.94762 6.7243 9.99445C6.49014 10.043 6.25767 10.0998 6.02853 10.1701C5.80107 10.2403 5.57528 10.3206 5.35451 10.4126C5.13374 10.5046 4.91798 10.6066 4.70725 10.7203C4.49651 10.8324 4.29079 10.9561 4.09176 11.0883C3.89441 11.2221 3.70207 11.3642 3.51642 11.5164C3.33245 11.6686 3.15516 11.8292 2.98624 11.9981C2.81731 12.1687 2.65675 12.346 2.50455 12.53C2.35235 12.7156 2.21019 12.908 2.07806 13.107C1.94426 13.306 1.82217 13.5117 1.70844 13.7225C1.59638 13.9332 1.49436 14.1506 1.40237 14.3714C1.31038 14.5922 1.2301 14.818 1.15985 15.0471C1.09128 15.2762 1.03274 15.5087 0.985913 15.7429C0.939083 15.977 0.903961 16.2145 0.880545 16.452C0.85713 16.6912 0.84375 16.9303 0.84375 17.1695V75.0133C0.84375 75.2524 0.85713 75.4916 0.880545 75.7291C0.903961 75.9683 0.939083 76.2041 0.985913 76.4399C1.03274 76.6741 1.09128 76.9066 1.15985 77.1357C1.2301 77.3648 1.31038 77.5906 1.40237 77.8114C1.49436 78.0322 1.59638 78.2479 1.70844 78.4603C1.82217 78.6711 1.94426 78.8768 2.07806 79.0758C2.21019 79.2748 2.35235 79.4672 2.50455 79.6511C2.65675 79.8368 2.81731 80.0141 2.98624 80.183C3.15516 80.3536 3.33245 80.5142 3.51642 80.6647C3.70207 80.8169 3.89441 80.9607 4.09176 81.0928C4.29079 81.2267 4.49651 81.3487 4.70725 81.4625C4.91798 81.5762 5.13374 81.6782 5.35451 81.7702C5.57528 81.8622 5.80107 81.9425 6.02853 82.0127C6.25767 82.0813 6.49014 82.1398 6.7243 82.1867C6.95845 82.2335 7.19427 82.2686 7.43344 82.2937C7.67094 82.3171 7.90843 82.3288 8.1476 82.3288H58.5805C58.7745 82.3288 58.9601 82.292 59.1391 82.2168C59.3181 82.1432 59.4769 82.0378 59.6141 81.9007C59.7512 81.7635 59.8566 81.6046 59.9302 81.4257C60.0055 81.2467 60.0422 81.0594 60.0422 80.8654C60.0422 80.6714 60.0055 80.4857 59.9302 80.3051C59.8566 80.1261 59.7512 79.9689 59.6141 79.8318C59.4769 79.693 59.3181 79.5876 59.1391 79.514C58.9601 79.4387 58.7745 79.4019 58.5805 79.4019H8.1476C7.85993 79.4019 7.5756 79.3735 7.29295 79.3183C7.01197 79.2615 6.73768 79.1778 6.47175 79.0674C6.20582 78.9587 5.95327 78.8232 5.7141 78.6627C5.47493 78.5021 5.25249 78.3198 5.05011 78.1175C4.84607 77.9134 4.66376 77.691 4.50487 77.4518C4.34431 77.211 4.20884 76.9584 4.10013 76.6925C3.98974 76.4265 3.90612 76.1523 3.84925 75.8696C3.79406 75.5869 3.76563 75.3009 3.76563 75.0133V29.9926H70.2847V75.0133C70.2847 75.3009 70.2579 75.5869 70.2011 75.8696C70.1442 76.1523 70.0623 76.4265 69.9519 76.6925C69.8415 76.9584 69.706 77.211 69.5471 77.4518C69.3866 77.691 69.2059 77.9134 69.0019 78.1175C68.7978 78.3198 68.5771 78.5021 68.3379 78.6627C68.0987 78.8232 67.8462 78.9587 67.5803 79.0674C67.3143 79.1778 67.04 79.2615 66.7574 79.3183C66.4747 79.3735 66.1904 79.4019 65.9027 79.4019C65.7087 79.4019 65.5231 79.4387 65.3441 79.514C65.1651 79.5876 65.0063 79.693 64.8691 79.8318C64.732 79.9689 64.6266 80.1261 64.553 80.3051C64.4794 80.4857 64.4426 80.6714 64.4426 80.8654C64.4426 81.0594 64.4794 81.2467 64.553 81.4257C64.6266 81.6046 64.732 81.7635 64.8691 81.9007C65.0063 82.0378 65.1651 82.1432 65.3441 82.2168C65.5231 82.292 65.7087 82.3288 65.9027 82.3288C66.1419 82.3288 66.3811 82.3171 66.6186 82.2937C66.8561 82.2686 67.0919 82.2335 67.3277 82.1867C67.5619 82.1398 67.7927 82.0813 68.0218 82.0127C68.2509 81.9425 68.475 81.8622 68.6958 81.7702C68.9183 81.6782 69.134 81.5762 69.3447 81.4625C69.5555 81.3487 69.7595 81.2267 69.9586 81.0928C70.1576 80.9607 70.3499 80.8169 70.5339 80.6647C70.7196 80.5142 70.8968 80.3536 71.0658 80.183C71.2347 80.0141 71.3952 79.8368 71.5458 79.6511C71.698 79.4672 71.8401 79.2748 71.9739 79.0758C72.1061 78.8768 72.2298 78.6711 72.3419 78.4603C72.4556 78.2479 72.5576 78.0322 72.648 77.8114C72.7399 77.5906 72.8202 77.3648 72.8905 77.1357C72.9607 76.9066 73.0193 76.6741 73.0661 76.4399C73.1129 76.2041 73.148 75.9683 73.1715 75.7291C73.1949 75.4916 73.2066 75.2524 73.2066 75.0133V17.1645C73.2066 16.9253 73.1949 16.6862 73.1715 16.4487C73.148 16.2095 73.1129 15.9737 73.0661 15.7378C73.0193 15.5037 72.9607 15.2712 72.8905 15.0421C72.8202 14.8129 72.7399 14.5872 72.648 14.3664C72.5576 14.1456 72.4556 13.9299 72.3419 13.7175C72.2298 13.5067 72.1061 13.301 71.9739 13.102C71.8401 12.9029 71.698 12.7106 71.5458 12.5266C71.3952 12.341 71.2347 12.1637 71.0658 11.9948C70.8968 11.8242 70.7196 11.6636 70.5339 11.5131C70.3499 11.3609 70.1576 11.2171 69.9586 11.0849C69.7595 10.9511 69.5555 10.829 69.3447 10.7153C69.134 10.6016 68.9183 10.4995 68.6958 10.4076C68.475 10.3156 68.2509 10.2353 68.0218 10.165C67.7927 10.0965 67.5619 10.0379 67.3277 9.9911C67.0919 9.94427 66.8561 9.90915 66.6186 9.88406C66.3811 9.86065 66.1419 9.84894 65.9027 9.84894ZM47.7878 7.98242C47.7878 7.67635 47.8179 7.37195 47.8764 7.0709C47.9366 6.76985 48.0253 6.47716 48.1423 6.1945C48.2577 5.91018 48.4016 5.6409 48.5722 5.38668C48.7428 5.13079 48.9351 4.89496 49.1525 4.67754C49.3683 4.46011 49.6041 4.2661 49.8583 4.0955C50.1142 3.92491 50.3818 3.78107 50.6662 3.664C50.9488 3.54692 51.2398 3.45828 51.5409 3.39807C51.8419 3.33786 52.1447 3.30775 52.4507 3.30775C52.7568 3.30775 53.0612 3.33786 53.3606 3.39807C53.6616 3.45828 53.9543 3.54692 54.237 3.664C54.5196 3.78107 54.7889 3.92491 55.0431 4.0955C55.2973 4.2661 55.5332 4.46011 55.7506 4.67754C55.9663 4.89496 56.1604 5.13079 56.3293 5.38668C56.4999 5.6409 56.6437 5.91018 56.7608 6.1945C56.8779 6.47716 56.9665 6.76985 57.025 7.0709C57.0853 7.37195 57.1137 7.67635 57.1137 7.98242V14.639C57.1137 14.9467 57.0853 15.2511 57.025 15.5522C56.9665 15.8532 56.8779 16.1443 56.7608 16.4286C56.6437 16.7112 56.4999 16.9822 56.3293 17.2364C56.1604 17.4923 55.9663 17.7281 55.7506 17.9456C55.5332 18.163 55.2973 18.357 55.0431 18.5276C54.7889 18.6982 54.5196 18.842 54.237 18.9591C53.9543 19.0762 53.6616 19.1648 53.3606 19.225C53.0612 19.2852 52.7568 19.3153 52.4507 19.3153C52.1447 19.3153 51.8419 19.2852 51.5409 19.225C51.2398 19.1648 50.9488 19.0762 50.6662 18.9591C50.3818 18.842 50.1142 18.6982 49.8583 18.5276C49.6041 18.357 49.3683 18.163 49.1525 17.9456C48.9351 17.7281 48.7428 17.4923 48.5722 17.2364C48.4016 16.9822 48.2577 16.7112 48.1423 16.4286C48.0253 16.1443 47.9366 15.8532 47.8764 15.5522C47.8179 15.2511 47.7878 14.9467 47.7878 14.639V7.98242ZM70.2847 27.0658H3.76563V17.1645C3.76563 16.8768 3.79406 16.5908 3.84925 16.3082C3.90612 16.0255 3.98974 15.7512 4.10013 15.4853C4.20884 15.2194 4.34431 14.9668 4.50487 14.726C4.66376 14.4868 4.84607 14.2644 5.05011 14.0603C5.25249 13.8579 5.47493 13.6756 5.7141 13.5151C5.95327 13.3545 6.20582 13.219 6.47175 13.1103C6.73768 12.9999 7.01197 12.9163 7.29295 12.8595C7.5756 12.8043 7.85993 12.7758 8.1476 12.7758H14.0098V14.639C14.0098 14.8882 14.0215 15.1374 14.0449 15.3849C14.07 15.6325 14.1068 15.8783 14.1536 16.1225C14.2021 16.3667 14.2623 16.6076 14.3342 16.8467C14.4061 17.0842 14.4898 17.3184 14.5851 17.5492C14.6804 17.7783 14.7858 18.0041 14.9029 18.2232C15.0199 18.4423 15.1487 18.6564 15.2859 18.8638C15.4247 19.0695 15.5719 19.2702 15.7291 19.4625C15.8863 19.6549 16.0536 19.8388 16.2292 20.0145C16.4048 20.1917 16.5888 20.359 16.7811 20.5162C16.9734 20.6734 17.1725 20.8223 17.3782 20.9611C17.5856 21.0982 17.798 21.227 18.0171 21.3441C18.2362 21.4612 18.4603 21.5682 18.6911 21.6635C18.9202 21.7589 19.1544 21.8425 19.3919 21.9144C19.6294 21.9863 19.8702 22.0482 20.1144 22.0967C20.3569 22.1452 20.6028 22.1804 20.8503 22.2054C21.0978 22.2305 21.3454 22.2422 21.5946 22.2422C21.8421 22.2422 22.0913 22.2305 22.3389 22.2054C22.5847 22.1804 22.8306 22.1452 23.0748 22.0967C23.3189 22.0482 23.5598 21.9863 23.7973 21.9144C24.0348 21.8425 24.2689 21.7589 24.4981 21.6635C24.7272 21.5682 24.9513 21.4612 25.1721 21.3441C25.3912 21.227 25.6036 21.0982 25.8093 20.9611C26.0167 20.8223 26.2157 20.6734 26.4081 20.5162C26.6004 20.359 26.7844 20.1917 26.96 20.0145C27.1356 19.8388 27.3012 19.6549 27.4601 19.4625C27.6173 19.2702 27.7645 19.0695 27.9033 18.8638C28.0404 18.6564 28.1675 18.4423 28.2846 18.2232C28.4017 18.0041 28.5087 17.7783 28.6041 17.5492C28.6977 17.3184 28.7814 17.0842 28.8533 16.8467C28.9252 16.6076 28.9854 16.3667 29.0339 16.1225C29.0824 15.8783 29.1192 15.6325 29.1426 15.3849C29.1677 15.1374 29.1794 14.8882 29.1794 14.639V12.7758H44.8726V14.639C44.8726 14.8882 44.8843 15.1374 44.9077 15.3849C44.9328 15.6325 44.9679 15.8783 45.0164 16.1225C45.0649 16.3667 45.1251 16.6076 45.197 16.8467C45.269 17.0842 45.3526 17.3184 45.4479 17.5492C45.5433 17.7783 45.6486 18.0041 45.7657 18.2232C45.8828 18.4423 46.0099 18.6564 46.1487 18.8638C46.2859 19.0695 46.4347 19.2702 46.5919 19.4625C46.7491 19.6549 46.9164 19.8388 47.092 20.0145C47.2676 20.1917 47.4516 20.359 47.6439 20.5162C47.8346 20.6734 48.0353 20.8223 48.241 20.9611C48.4484 21.0982 48.6608 21.227 48.8799 21.3441C49.099 21.4612 49.3231 21.5682 49.5523 21.6635C49.7831 21.7589 50.0155 21.8425 50.2547 21.9144C50.4922 21.9863 50.7331 22.0482 50.9772 22.0967C51.2198 22.1452 51.4656 22.1804 51.7131 22.2054C51.9607 22.2305 52.2082 22.2422 52.4574 22.2422C52.7049 22.2422 52.9525 22.2305 53.2 22.2054C53.4475 22.1804 53.6934 22.1452 53.9376 22.0967C54.1801 22.0482 54.4209 21.9863 54.6601 21.9144C54.8976 21.8425 55.1318 21.7589 55.3609 21.6635C55.59 21.5682 55.8141 21.4612 56.0332 21.3441C56.2523 21.227 56.4664 21.0982 56.6721 20.9611C56.8795 20.8223 57.0786 20.6734 57.2709 20.5162C57.4632 20.359 57.6455 20.1917 57.8212 20.0145C57.9984 19.8388 58.164 19.6549 58.3212 19.4625C58.4801 19.2702 58.6273 19.0695 58.7645 18.8638C58.9033 18.6564 59.0304 18.4423 59.1475 18.2232C59.2645 18.0041 59.3716 17.7783 59.4652 17.5492C59.5606 17.3184 59.6442 17.0842 59.7161 16.8467C59.788 16.6076 59.8482 16.3667 59.8967 16.1225C59.9452 15.8783 59.982 15.6325 60.0055 15.3849C60.0305 15.1374 60.0422 14.8882 60.0422 14.639V12.7758H65.9027C66.1904 12.7758 66.4747 12.8043 66.7574 12.8595C67.04 12.9163 67.3143 12.9999 67.5803 13.1103C67.8462 13.219 68.0987 13.3545 68.3379 13.5151C68.5771 13.6756 68.7978 13.8579 69.0019 14.0603C69.2059 14.2644 69.3866 14.4868 69.5471 14.726C69.706 14.9668 69.8415 15.2194 69.9519 15.4853C70.0623 15.7512 70.1442 16.0255 70.2011 16.3082C70.2579 16.5908 70.2847 16.8768 70.2847 17.1645V27.0658Z" fill="#A3CB03"/>
  </g>
</svg>