<svg xmlns="http://www.w3.org/2000/svg" width="75" height="31" viewBox="0 0 75 31" fill="none">
  <g clip-path="url(#clip0_234_1588)">
    <mask id="mask0_234_1588" style="mask-type:luminance" maskUnits="userSpaceOnUse" x="0" y="0" width="31" height="31">
      <path d="M30.8926 0.611084H0.961426V30.8297H30.8926V0.611084Z" fill="white"/>
    </mask>
    <g mask="url(#mask0_234_1588)">
      <path d="M25.6668 8.1098L25.5088 9.50797L26.2984 8.35906C26.3829 8.23611 26.3349 8.06689 26.1983 8.00693L25.9985 7.91908C25.852 7.85441 25.6848 7.95042 25.6668 8.1098Z" fill="#949494"/>
      <path d="M26.8188 9.45518L25.4141 9.37549L26.6052 10.0998C26.7326 10.1771 26.8988 10.1199 26.9512 9.98025L27.0278 9.77593C27.084 9.62579 26.9784 9.46437 26.8188 9.45518Z" fill="#949494"/>
      <path d="M26.6138 8.5991L25.5088 9.46983L26.8808 9.22329C27.0275 9.19704 27.114 9.04383 27.0606 8.90457L26.9826 8.70059C26.9257 8.55144 26.7398 8.49998 26.6138 8.5991Z" fill="#949494"/>
      <path d="M26.4552 10.4537L25.4912 9.42871L25.8566 10.7741C25.8958 10.9178 26.0558 10.9907 26.19 10.9257L26.3864 10.8303C26.5301 10.7598 26.5649 10.5702 26.4552 10.4537Z" fill="#949494"/>
      <path d="M19.5385 21.3953C20.1151 21.0136 20.6929 20.6346 21.2755 20.2624C23.9623 18.5464 26.7979 16.9422 29.8463 15.9792C29.7152 15.9847 29.5756 15.9908 29.4312 15.998C28.3422 16.0518 27.2443 16.1233 26.1485 16.2282L25.4858 9.74216L25.5376 9.51841L25.5482 9.5324L25.5427 9.49666L25.5471 9.47758L25.6238 9.43022L25.557 9.43432L25.5641 9.40402L25.5365 9.4357L25.5335 9.43605L25.3374 8.1417C25.3132 7.98335 25.1426 7.89343 24.9985 7.96358L24.8021 8.05894C24.6682 8.124 24.6264 8.2949 24.7156 8.41444L25.3741 9.29847L24.4156 8.55271C24.2892 8.45429 24.1036 8.50674 24.0471 8.65692L23.9705 8.8612C23.918 9.00085 24.0055 9.15337 24.1523 9.17893L25.4528 9.40402L25.479 9.43941L25.4555 9.4408L25.4538 9.42512L25.4528 9.44114L24.2201 9.51876C24.0601 9.52899 23.9559 9.69109 24.0131 9.84093L24.091 10.0449C24.1442 10.1842 24.311 10.2403 24.4377 10.1624L25.4453 9.5409L24.64 10.4651C24.5348 10.586 24.5766 10.7743 24.7234 10.8387L24.9233 10.9265C25.0595 10.9864 25.2168 10.9078 25.2505 10.7627L25.4044 10.0973L24.9417 16.3586C24.5892 16.4011 24.2378 16.4478 23.8867 16.4992L23.8142 14.6706L21.6794 12.9663L19.7589 14.7714V17.3771C19.0652 17.5797 18.3811 17.814 17.7113 18.0854C17.4313 18.1988 17.161 18.3258 16.8896 18.4548C16.8044 18.4975 16.1837 18.8948 16.1343 18.8642C16.6529 19.1839 17.1576 19.5262 17.6486 19.8857C18.2987 20.3625 18.9283 20.8675 19.5385 21.3953ZM21.2129 14.6294L21.7925 14.1615L22.4368 14.6032L22.4708 15.3717L21.2129 15.3813V14.6294Z" fill="#949494"/>
      <path d="M20.2231 22.0057C21.1954 22.8951 22.1161 23.8414 22.9903 24.8256C23.0672 24.9124 23.1439 24.9996 23.2201 25.0871C23.9441 24.4827 24.6187 23.819 25.2633 23.1318C25.9954 22.351 26.6894 21.5351 27.3759 20.7141C28.0917 19.858 28.6893 18.9365 29.2563 17.9769C29.4678 17.619 29.6806 17.2594 29.8907 16.8975C29.7378 16.9471 29.5849 16.9979 29.433 17.0514C26.1275 18.2081 23.1364 20.078 20.2231 22.0057Z" fill="#949494"/>
      <path d="M27.7656 21.629C26.5342 23.0939 25.2589 24.5275 23.793 25.7565C24.2826 26.3395 24.7577 26.9357 25.2157 27.5446C28.2933 25.0697 30.3658 21.3988 30.7332 17.2375C29.8659 18.7815 28.9063 20.272 27.7656 21.629Z" fill="#949494"/>
      <path d="M17.135 20.4601C15.3296 19.1824 13.3722 18.2453 11.2804 17.5292C10.0967 17.124 8.88679 16.7954 7.66091 16.5464V15.3352C8.06921 15.3535 8.40088 15.3863 8.62493 15.4687C8.41141 15.2827 8.15874 15.027 7.91803 14.6892C7.91427 14.6841 7.91086 14.679 7.90745 14.6739C8.20372 14.7103 8.44785 14.7822 8.62493 14.8472C8.41141 14.6613 8.15874 14.4055 7.91803 14.0677C7.90201 14.0452 7.88703 14.0231 7.87171 14.001C8.18361 14.0357 8.44072 14.1103 8.62493 14.1781C8.4203 13.9996 8.1792 13.7561 7.94764 13.4385C8.22552 13.4762 8.45605 13.544 8.62493 13.6063C8.41141 13.4204 8.15874 13.1647 7.91803 12.8269C7.73853 12.5749 7.60608 12.3341 7.508 12.125C7.39598 12.347 7.24989 12.5984 7.05986 12.8612C6.83888 13.1674 6.61241 13.4136 6.4115 13.6063C6.56781 13.5491 6.78608 13.4827 7.05205 13.4436C6.83344 13.7446 6.61003 13.9877 6.4115 14.1781C6.58245 14.1154 6.82765 14.0418 7.12867 14.0048C7.10653 14.0371 7.08373 14.0694 7.05986 14.1021C6.83888 14.4083 6.61241 14.6545 6.4115 14.8472C6.57533 14.7869 6.80754 14.7171 7.09155 14.6786C7.08101 14.6936 7.07078 14.7082 7.05986 14.7236C6.83888 15.0297 6.61241 15.2759 6.4115 15.4687C6.62709 15.3897 6.96044 15.3535 7.37556 15.3348V16.4919C7.05986 16.431 6.74386 16.3738 6.42652 16.3237C5.83363 16.2298 5.23807 16.1364 4.6401 16.0574V14.9323C5.22274 14.9521 5.69402 14.9109 6.01002 15.0331C5.71889 14.7661 5.37392 14.3991 5.04531 13.9148C5.04022 13.9074 5.03547 13.8999 5.03068 13.8923C5.43488 13.9444 5.76793 14.0476 6.01002 14.1413C5.71889 13.8743 5.37392 13.5072 5.04531 13.023C5.02351 12.9907 5.0024 12.9586 4.98165 12.9263C5.40798 12.976 5.75839 13.0839 6.01002 13.181C5.73046 12.9249 5.4015 12.5752 5.08516 12.1192C5.46483 12.1734 5.77881 12.2715 6.01002 12.3607C5.71889 12.0937 5.37392 11.7266 5.04531 11.2424C4.80049 10.8811 4.61967 10.5351 4.48618 10.2351C4.33295 10.5538 4.13408 10.9145 3.87494 11.2914C3.57323 11.7307 3.26437 12.0842 2.99025 12.3607C3.20342 12.2783 3.50104 12.1833 3.86438 12.1271C3.56608 12.5592 3.26131 12.9079 2.99025 13.181C3.22351 13.0908 3.55791 12.9855 3.96858 12.9324C3.93827 12.9787 3.90695 13.025 3.87494 13.072C3.57323 13.5113 3.26437 13.8648 2.99025 14.1413C3.21398 14.0548 3.53066 13.9547 3.91818 13.8995C3.90388 13.921 3.88992 13.9421 3.87494 13.9639C3.57323 14.4032 3.26437 14.7566 2.99025 15.0331C3.294 14.916 3.76836 14.9524 4.36019 14.9323V16.022C3.39207 15.9021 2.41885 15.8265 1.44324 15.8579C1.33223 15.8613 1.24506 15.8708 1.17627 15.8909C1.92815 16.0748 2.65688 16.3499 3.38628 16.619C4.44498 17.0095 5.52613 17.3334 6.58007 17.739C10.4236 19.2182 13.9835 21.3799 17.2355 23.8953C18.8023 25.1073 20.2464 26.4523 21.6402 27.8584C22.0441 28.266 22.4449 28.6835 22.8317 29.1139C23.4586 28.7825 24.0596 28.4086 24.63 27.9949C23.7804 26.8633 22.8702 25.7771 21.9103 24.7388C20.4582 23.1686 18.8823 21.6962 17.135 20.4601Z" fill="#949494"/>
      <path d="M20.4685 27.9517C19.0842 26.5917 17.653 25.2997 16.0941 24.1409C14.5042 22.9593 12.8376 21.8543 11.1187 20.8695C9.38061 19.8738 7.55778 19.033 5.67538 18.3489C4.75389 18.0138 3.8171 17.7257 2.897 17.3855C2.26771 17.1523 1.62616 16.9057 0.968262 16.7454C0.969624 16.7682 0.971326 16.791 0.972689 16.8138C2.33377 17.6971 3.71495 18.5498 5.05253 19.4689C7.96029 21.4671 10.4982 23.9083 12.9609 26.4214C14.1378 27.6224 15.3565 28.7986 16.4724 30.0568C16.6832 30.2945 16.8875 30.5367 17.0847 30.7842C18.8234 30.6439 20.478 30.205 21.9971 29.5199C21.5027 28.9801 20.9864 28.4605 20.4685 27.9517Z" fill="#949494"/>
      <path d="M3.07095 21.4743C2.51862 20.834 1.96833 20.1915 1.39795 19.5676C2.19307 22.7182 4.03532 25.5623 6.57668 27.5871C7.5666 28.3757 8.65218 29.0305 9.8001 29.5406C8.59464 27.7604 7.26282 26.0683 5.8166 24.476C4.90435 23.4708 3.95871 22.5026 3.07095 21.4743Z" fill="#949494"/>
      <path d="M11.7741 26.4854C10.5533 25.2507 9.31034 24.0364 8.00442 22.8912C6.72608 21.7702 5.38071 20.7503 3.96648 19.807C3.01403 19.172 2.04489 18.5618 1.08154 17.9434C1.08188 17.9461 1.08222 17.9488 1.08291 17.9515C2.13615 19 3.0869 20.1431 4.06217 21.2631C4.97103 22.3065 5.95175 23.2811 6.86777 24.3176C7.74769 25.3127 8.58401 26.3462 9.37712 27.4117C10.0241 28.2814 10.6384 29.1746 11.2211 30.0875C12.7146 30.5769 14.2851 30.8326 15.8686 30.8326C15.9012 30.8326 15.9339 30.8316 15.9663 30.8313C15.7391 30.5691 15.5055 30.3126 15.2679 30.0613C14.123 28.8518 12.9448 27.6698 11.7741 26.4854Z" fill="#949494"/>
      <path d="M15.14 0.692129C15.1407 0.692129 15.1411 0.692129 15.1418 0.692129C15.3781 0.67953 15.6185 0.672719 15.8558 0.671357C15.8725 0.671357 15.8858 0.657736 15.8858 0.64105C15.8858 0.624705 15.8722 0.611084 15.8558 0.611084C15.6175 0.612446 15.3757 0.619257 15.1387 0.631856C15.122 0.632878 15.1094 0.646839 15.1104 0.663525C15.1108 0.67987 15.1241 0.692129 15.14 0.692129Z" fill="#949494"/>
      <path d="M9.6161 2.07375C9.62016 2.07375 9.62461 2.07273 9.62866 2.07102C9.84391 1.97023 10.0645 1.87318 10.2838 1.78328C10.2992 1.77681 10.3063 1.75944 10.3002 1.74412C10.2941 1.7288 10.2764 1.72165 10.2611 1.72778C10.0407 1.81835 9.81939 1.91574 9.60315 2.01688C9.58817 2.02403 9.5817 2.04174 9.58886 2.05672C9.59396 2.06728 9.60449 2.07375 9.6161 2.07375Z" fill="#949494"/>
      <path d="M7.15109 3.53261C7.15722 3.53261 7.16335 3.53056 7.16879 3.52682C7.36085 3.38652 7.5587 3.24963 7.7562 3.11921C7.77018 3.11001 7.7739 3.09129 7.7647 3.07767C7.7555 3.06404 7.73712 3.05996 7.72317 3.06915C7.52463 3.19991 7.32614 3.33748 7.13339 3.47846C7.12009 3.48834 7.11703 3.50707 7.12691 3.52035C7.1327 3.52852 7.14189 3.53261 7.15109 3.53261Z" fill="#949494"/>
      <path d="M6.03212 4.43052C6.03924 4.43052 6.04641 4.42814 6.05185 4.42303C6.22962 4.26537 6.41318 4.11009 6.59773 3.96162C6.61068 3.95106 6.6127 3.93234 6.60217 3.91939C6.59194 3.90646 6.57286 3.90441 6.55991 3.91497C6.37501 4.06412 6.19046 4.22008 6.012 4.37842C5.99974 4.38932 5.9984 4.40839 6.00963 4.42065C6.01576 4.42712 6.02396 4.43052 6.03212 4.43052Z" fill="#949494"/>
      <path d="M12.3119 1.11482C12.3143 1.11482 12.3167 1.11448 12.3191 1.1138C12.5493 1.05625 12.7836 1.00381 13.0162 0.957499C13.0325 0.954434 13.0431 0.938429 13.0396 0.922084C13.0362 0.905739 13.0209 0.895183 13.0042 0.898588C12.771 0.9449 12.5353 0.997681 12.3044 1.05557C12.2885 1.05966 12.2786 1.076 12.2827 1.09201C12.2864 1.10563 12.2986 1.11482 12.3119 1.11482Z" fill="#949494"/>
      <path d="M13.7186 0.835395C13.7199 0.835395 13.7217 0.835395 13.723 0.835054C13.9576 0.79998 14.196 0.770355 14.432 0.746518C14.4483 0.744815 14.4606 0.730172 14.4589 0.713827C14.4572 0.697482 14.4429 0.685223 14.4262 0.686926C14.1895 0.710763 13.9498 0.740729 13.7145 0.775803C13.6981 0.778187 13.6869 0.79351 13.6893 0.809855C13.691 0.824839 13.704 0.835395 13.7186 0.835395Z" fill="#949494"/>
      <path d="M8.35057 2.74343C8.35566 2.74343 8.36115 2.74207 8.3659 2.73935C8.56987 2.61846 8.77963 2.50098 8.99008 2.38997C9.00472 2.38213 9.01016 2.36409 9.00269 2.34945C8.99483 2.3348 8.97679 2.32936 8.96215 2.33685C8.75101 2.44854 8.54026 2.5667 8.33559 2.68793C8.3213 2.69644 8.31651 2.71483 8.32501 2.72913C8.33015 2.73798 8.34034 2.74343 8.35057 2.74343Z" fill="#949494"/>
      <path d="M5.01223 5.43027C5.02039 5.43027 5.02825 5.42721 5.03403 5.42073C5.19579 5.24706 5.36368 5.07512 5.53325 4.90961C5.54516 4.89803 5.54516 4.87896 5.53359 4.86738C5.52202 4.8558 5.50329 4.85513 5.49137 4.86704C5.32111 5.0332 5.15253 5.20588 4.99043 5.3802C4.97921 5.39246 4.97988 5.41119 4.99181 5.42246C4.9976 5.42755 5.00472 5.43027 5.01223 5.43027Z" fill="#949494"/>
      <path d="M1.54349 11.6132C1.54621 11.6139 1.54894 11.6142 1.55166 11.6142C1.56494 11.6142 1.57686 11.6054 1.58061 11.5921C1.6436 11.3636 1.71341 11.1334 1.7873 10.9083C1.79241 10.8926 1.7839 10.8756 1.76824 10.8705C1.75257 10.865 1.73554 10.8739 1.73044 10.8896C1.6562 11.1157 1.58605 11.3466 1.52271 11.5764C1.51795 11.5921 1.52748 11.6084 1.54349 11.6132Z" fill="#949494"/>
      <path d="M1.23416 13.0092C1.23587 13.0096 1.23757 13.0096 1.23928 13.0096C1.25358 13.0096 1.26617 12.9993 1.2689 12.9847C1.30976 12.7511 1.35676 12.5154 1.40885 12.2842C1.4126 12.2682 1.40239 12.2519 1.38604 12.2485C1.37004 12.2451 1.35369 12.2549 1.35029 12.2713C1.29818 12.5035 1.25085 12.7402 1.20999 12.9748C1.20692 12.9908 1.21782 13.0065 1.23416 13.0092Z" fill="#949494"/>
      <path d="M1.989 10.2513C1.99241 10.2526 1.99616 10.2533 1.9999 10.2533C2.01182 10.2533 2.0234 10.2462 2.02782 10.2339C2.11261 10.0129 2.20387 9.79124 2.29888 9.57466C2.30569 9.55934 2.29854 9.54194 2.28356 9.53516C2.26858 9.52868 2.25087 9.53551 2.24406 9.55049C2.14837 9.76771 2.05677 9.99043 1.97163 10.2124C1.96585 10.2278 1.97368 10.2451 1.989 10.2513Z" fill="#949494"/>
      <path d="M4.08671 6.52346C4.09556 6.52346 4.10475 6.51935 4.11054 6.51189C4.25526 6.32324 4.40578 6.13627 4.55834 5.95582C4.56889 5.94321 4.56753 5.92413 4.55493 5.91356C4.54233 5.90302 4.52326 5.90436 4.5127 5.91697C4.35947 6.09815 4.20827 6.28611 4.06287 6.47545C4.05265 6.4887 4.05538 6.50744 4.06832 6.51733C4.07377 6.52143 4.08023 6.52346 4.08671 6.52346Z" fill="#949494"/>
      <path d="M3.25386 7.69386C3.25897 7.69693 3.26441 7.69831 3.26986 7.69831C3.27974 7.69831 3.28961 7.69317 3.2954 7.68432C3.42105 7.48341 3.55318 7.28284 3.68803 7.08806C3.69756 7.07447 3.69416 7.05573 3.68054 7.04619C3.66691 7.03665 3.64819 7.04006 3.63865 7.05366C3.50312 7.24913 3.37066 7.45039 3.24432 7.65233C3.23547 7.66662 3.23989 7.68501 3.25386 7.69386Z" fill="#949494"/>
      <path d="M2.56251 8.94342C2.56694 8.94545 2.57136 8.94649 2.57579 8.94649C2.58669 8.94649 2.59724 8.94036 2.60269 8.92978C2.70825 8.71833 2.82029 8.50616 2.93607 8.29912C2.94424 8.28483 2.93913 8.26644 2.92449 8.25828C2.90985 8.25012 2.8918 8.25521 2.88362 8.26985C2.76717 8.47758 2.65479 8.69075 2.54889 8.90288C2.54173 8.91786 2.54786 8.93591 2.56251 8.94342Z" fill="#949494"/>
      <path d="M22.0969 1.99859C22.3117 2.09632 22.5276 2.20086 22.7388 2.30915C22.7432 2.31153 22.748 2.31255 22.7524 2.31255C22.7633 2.31255 22.7739 2.30676 22.7789 2.29621C22.7864 2.28157 22.7806 2.26352 22.766 2.25603C22.5542 2.14706 22.3373 2.04217 22.1214 1.94411C22.1064 1.93729 22.0887 1.94377 22.0815 1.95909C22.0751 1.97407 22.0819 1.99178 22.0969 1.99859Z" fill="#949494"/>
      <path d="M29.5097 9.41926C29.5148 9.43014 29.5257 9.43696 29.5369 9.43696C29.541 9.43696 29.5454 9.43597 29.5492 9.43424C29.5642 9.42742 29.571 9.40972 29.5642 9.3944C29.4657 9.17781 29.3609 8.96024 29.2516 8.74741C29.2441 8.73278 29.226 8.727 29.211 8.73446C29.1964 8.74198 29.1906 8.76002 29.1981 8.775C29.3071 8.98713 29.4116 9.20372 29.5097 9.41926Z" fill="#949494"/>
      <path d="M28.8588 8.14698C28.8642 8.15652 28.8745 8.16196 28.8847 8.16196C28.8898 8.16196 28.8949 8.16058 28.8996 8.15786C28.914 8.1497 28.9191 8.13131 28.9106 8.11702C28.7917 7.91067 28.6664 7.70428 28.5373 7.50336C28.5285 7.48942 28.5097 7.48532 28.4958 7.49417C28.4819 7.50302 28.4778 7.52175 28.4866 7.53574C28.6153 7.73562 28.7403 7.94128 28.8588 8.14698Z" fill="#949494"/>
      <path d="M28.0853 6.94189C28.0911 6.95009 28.1002 6.9545 28.1098 6.9545C28.1159 6.9545 28.122 6.95281 28.1272 6.94906C28.1408 6.93952 28.1438 6.92078 28.1343 6.90718C27.9957 6.7124 27.851 6.51896 27.7045 6.33238C27.6944 6.31908 27.6753 6.31706 27.6623 6.32724C27.6494 6.33747 27.647 6.35621 27.6572 6.36916C27.803 6.55539 27.947 6.7478 28.0853 6.94189Z" fill="#949494"/>
      <path d="M30.0393 10.7497C30.0437 10.7623 30.0553 10.7701 30.0675 10.7701C30.0706 10.7701 30.074 10.7694 30.0771 10.7684C30.0927 10.763 30.1013 10.7459 30.0958 10.7303C30.0188 10.5045 29.9351 10.2777 29.8472 10.0557C29.8411 10.0404 29.8237 10.0329 29.8084 10.039C29.7931 10.0451 29.7856 10.0625 29.7917 10.0779C29.8792 10.2988 29.9626 10.525 30.0393 10.7497Z" fill="#949494"/>
      <path d="M30.848 14.9781H30.8494C30.8657 14.9774 30.8787 14.9634 30.878 14.9468C30.8681 14.7084 30.8528 14.4676 30.8317 14.231C30.8303 14.2146 30.8143 14.2023 30.7993 14.2037C30.783 14.2051 30.7707 14.2197 30.7721 14.2361C30.7928 14.4717 30.8085 14.7118 30.8181 14.9491C30.8187 14.9654 30.832 14.9781 30.848 14.9781Z" fill="#949494"/>
      <path d="M27.2043 5.81873C27.21 5.82555 27.2186 5.82896 27.2271 5.82896C27.2339 5.82896 27.241 5.82659 27.2468 5.8218C27.2594 5.81092 27.2608 5.79184 27.2499 5.77958C27.094 5.59943 26.9315 5.42101 26.7674 5.24872C26.7558 5.23676 26.7371 5.23646 26.7252 5.24768C26.7132 5.25925 26.7126 5.27799 26.7241 5.2899C26.8873 5.46155 27.049 5.63927 27.2043 5.81873Z" fill="#949494"/>
      <path d="M30.7223 13.5528C30.7237 13.5528 30.725 13.5528 30.7264 13.5525C30.7428 13.5501 30.7544 13.5351 30.752 13.5188C30.7196 13.2821 30.6811 13.0441 30.6375 12.8105C30.6345 12.7942 30.6185 12.7836 30.6025 12.7867C30.5861 12.7897 30.5756 12.8054 30.5787 12.8218C30.6219 13.054 30.6604 13.2913 30.6924 13.527C30.6947 13.542 30.7077 13.5528 30.7223 13.5528Z" fill="#949494"/>
      <path d="M30.4303 12.1224C30.4337 12.136 30.446 12.1456 30.4596 12.1456C30.462 12.1456 30.4641 12.1452 30.4664 12.1449C30.4824 12.1411 30.4926 12.1248 30.4885 12.1088C30.4337 11.8769 30.3724 11.6433 30.3064 11.4148C30.3016 11.3988 30.2849 11.3896 30.2693 11.3943C30.2533 11.3988 30.2441 11.4155 30.2488 11.4314C30.3146 11.6589 30.3755 11.8915 30.4303 12.1224Z" fill="#949494"/>
      <path d="M17.9926 0.8112C18.2272 0.84355 18.4646 0.88203 18.6979 0.925958C18.6999 0.926298 18.7016 0.926639 18.7033 0.926639C18.7176 0.926639 18.7302 0.916423 18.7326 0.902121C18.7357 0.885776 18.7251 0.870111 18.7088 0.867047C18.4748 0.823119 18.2364 0.784299 18.0008 0.751949C17.9838 0.749906 17.9691 0.761143 17.9671 0.777488C17.9647 0.793833 17.9763 0.809157 17.9926 0.8112Z" fill="#949494"/>
      <path d="M26.2158 4.78484C26.2216 4.79029 26.2291 4.79301 26.2366 4.79301C26.2444 4.79301 26.2523 4.78995 26.2584 4.78382C26.27 4.7719 26.2693 4.75283 26.2574 4.74125C26.0847 4.57644 25.906 4.41435 25.7268 4.25906C25.7142 4.24817 25.6955 4.24953 25.6846 4.26213C25.6737 4.27473 25.6751 4.29346 25.6876 4.30436C25.8658 4.4593 26.0438 4.6207 26.2158 4.78484Z" fill="#949494"/>
      <path d="M16.5741 0.684297C16.8118 0.694172 17.0515 0.709836 17.2871 0.730949C17.2882 0.730949 17.2888 0.730949 17.2899 0.730949C17.3052 0.730949 17.3181 0.719371 17.3198 0.703706C17.3212 0.687361 17.3093 0.672718 17.2926 0.671016C17.0563 0.649903 16.8155 0.633899 16.5768 0.624023C16.5608 0.624704 16.5462 0.636282 16.5455 0.652628C16.5444 0.669654 16.5574 0.683615 16.5741 0.684297Z" fill="#949494"/>
      <path d="M20.7727 1.47234C20.9964 1.54895 21.2218 1.63238 21.4429 1.72024C21.4466 1.7216 21.4503 1.72228 21.4537 1.72228C21.4656 1.72228 21.4769 1.71513 21.4817 1.70321C21.4878 1.68789 21.4803 1.67052 21.465 1.66439C21.2433 1.57619 21.0169 1.49243 20.7921 1.41547C20.7764 1.41002 20.7594 1.41853 20.754 1.4342C20.7489 1.44986 20.757 1.46689 20.7727 1.47234Z" fill="#949494"/>
      <path d="M19.3971 1.07558C19.6276 1.13041 19.8602 1.19171 20.088 1.25777C20.0907 1.25845 20.0935 1.25879 20.0962 1.25879C20.1091 1.25879 20.121 1.25027 20.1251 1.237C20.1296 1.22099 20.1207 1.20464 20.1047 1.19988C19.8758 1.13382 19.6426 1.07218 19.411 1.01702C19.395 1.01293 19.3787 1.02315 19.375 1.03915C19.3708 1.05549 19.3807 1.07184 19.3971 1.07558Z" fill="#949494"/>
      <path d="M25.1381 3.84936C25.1436 3.85378 25.1501 3.85583 25.1565 3.85583C25.1654 3.85583 25.1742 3.85174 25.18 3.84425C25.1903 3.83131 25.1882 3.81224 25.1749 3.80236C24.9876 3.65526 24.7946 3.51053 24.6011 3.37296C24.5878 3.36342 24.5691 3.36649 24.5592 3.38011C24.5497 3.39373 24.5528 3.41246 24.5664 3.422C24.7595 3.55889 24.9519 3.70259 25.1381 3.84936Z" fill="#949494"/>
      <path d="M23.3645 2.65155C23.5692 2.76937 23.7745 2.89434 23.9741 3.02238C23.9792 3.02544 23.9846 3.02715 23.9904 3.02715C24.0003 3.02715 24.0098 3.02238 24.0156 3.01352C24.0245 2.99956 24.0204 2.98118 24.0068 2.97198C23.8062 2.84326 23.6002 2.71795 23.3948 2.59944C23.3806 2.59127 23.3622 2.59604 23.354 2.61034C23.3451 2.62464 23.3503 2.64303 23.3645 2.65155Z" fill="#949494"/>
      <path d="M1.0574 14.4307H1.05978C1.07545 14.4307 1.08839 14.4188 1.08975 14.4032C1.10814 14.1662 1.13232 13.9271 1.16194 13.6922C1.16398 13.6758 1.15241 13.6608 1.13606 13.6587C1.11937 13.6564 1.10473 13.6683 1.10269 13.6847C1.07306 13.9203 1.04888 14.1607 1.0305 14.3984C1.02845 14.4151 1.04071 14.4294 1.0574 14.4307Z" fill="#949494"/>
      <path d="M10.9427 1.52877C10.9461 1.52877 10.9495 1.52809 10.9526 1.52707C11.1766 1.44739 11.4058 1.37247 11.633 1.30368C11.649 1.29892 11.6578 1.28223 11.6531 1.26622C11.6483 1.25056 11.6316 1.24137 11.6156 1.24613C11.3874 1.31492 11.1576 1.39052 10.9325 1.47054C10.9169 1.47599 10.9086 1.49336 10.9145 1.50868C10.9189 1.52128 10.9304 1.52877 10.9427 1.52877Z" fill="#949494"/>
      <path d="M30.8695 16.3817C30.8689 16.3977 30.8556 16.41 30.8396 16.41C30.8389 16.41 30.8386 16.41 30.8379 16.41C30.8212 16.409 30.8086 16.395 30.8096 16.3783C30.8222 16.142 30.8294 15.9016 30.8311 15.6642C30.8311 15.6479 30.8447 15.6343 30.861 15.6343C30.8777 15.6343 30.8913 15.6479 30.8913 15.6646C30.8897 15.903 30.8825 16.1444 30.8695 16.3817Z" fill="#949494"/>
      <path d="M30.8614 15.6343C30.8447 15.6343 30.8314 15.6476 30.8311 15.6642C30.8297 15.9019 30.8222 16.142 30.8096 16.3783C30.8086 16.395 30.8215 16.409 30.8379 16.41H30.8396C30.8556 16.41 30.8686 16.3977 30.8695 16.3817C30.8822 16.1444 30.8897 15.903 30.891 15.6646C30.8913 15.6479 30.8777 15.6346 30.8614 15.6343Z" fill="#949494"/>
    </g>
    <path d="M35.264 14.5117V10.1162H36.9982C37.3301 10.1162 37.6134 10.1756 37.848 10.2944C38.0841 10.4117 38.2637 10.5784 38.3868 10.7944C38.5112 11.009 38.5735 11.2616 38.5735 11.552C38.5735 11.8439 38.5105 12.095 38.3846 12.3054C38.2587 12.5143 38.0763 12.6745 37.8373 12.7861C37.5998 12.8977 37.3122 12.9535 36.9745 12.9535H35.8134V12.2066H36.8243C37.0017 12.2066 37.1491 12.1823 37.2664 12.1337C37.3838 12.085 37.471 12.012 37.5282 11.9147C37.5869 11.8174 37.6163 11.6966 37.6163 11.552C37.6163 11.4061 37.5869 11.283 37.5282 11.1829C37.471 11.0827 37.383 11.0069 37.2643 10.9554C37.147 10.9025 36.9989 10.876 36.82 10.876H36.1933V14.5117H35.264ZM37.6377 12.5114L38.7301 14.5117H37.7042L36.6355 12.5114H37.6377ZM41.3271 13.108V11.2151H42.2414V14.5117H41.3635V13.9129H41.3292C41.2548 14.106 41.131 14.2613 40.9579 14.3786C40.7862 14.4959 40.5766 14.5546 40.3291 14.5546C40.1087 14.5546 39.9149 14.5045 39.7475 14.4044C39.58 14.3042 39.4491 14.1618 39.3547 13.9772C39.2617 13.7927 39.2145 13.5716 39.213 13.3141V11.2151H40.1273V13.151C40.1288 13.3455 40.181 13.4994 40.284 13.6124C40.387 13.7254 40.5251 13.7819 40.6982 13.7819C40.8084 13.7819 40.9114 13.7569 41.0073 13.7068C41.1031 13.6553 41.1804 13.5795 41.239 13.4793C41.2991 13.3792 41.3285 13.2554 41.3271 13.108ZM42.9726 14.5117V11.2151H43.859V11.7903H43.8936C43.9536 11.5857 44.0542 11.4312 44.1962 11.3267C44.3378 11.2208 44.5005 11.1679 44.6853 11.1679C44.7311 11.1679 44.7803 11.1707 44.8334 11.1765C44.8865 11.1822 44.9327 11.1901 44.9728 11.2001V12.0113C44.9301 11.9984 44.8705 11.987 44.795 11.977C44.719 11.967 44.6495 11.962 44.5865 11.962C44.4522 11.962 44.3318 11.9913 44.226 12.0499C44.1215 12.1072 44.0386 12.1873 43.9769 12.2904C43.9169 12.3934 43.8871 12.5121 43.8871 12.6466V14.5117H42.9726ZM46.2912 14.5739C46.081 14.5739 45.8936 14.5374 45.7287 14.4645C45.5642 14.39 45.4343 14.2806 45.3385 14.1361C45.2439 13.9902 45.1969 13.8084 45.1969 13.5909C45.1969 13.4078 45.2301 13.254 45.2975 13.1295C45.3648 13.005 45.4563 12.9049 45.5724 12.829C45.6881 12.7532 45.8198 12.696 45.967 12.6573C46.1159 12.6187 46.2718 12.5915 46.435 12.5758C46.6266 12.5558 46.7812 12.5372 46.8986 12.52C47.016 12.5014 47.1011 12.4742 47.1542 12.4384C47.2068 12.4026 47.2336 12.3497 47.2336 12.2796V12.2667C47.2336 12.1308 47.1904 12.0256 47.1045 11.9512C47.0203 11.8768 46.8999 11.8396 46.7441 11.8396C46.5796 11.8396 46.4488 11.8761 46.3512 11.9491C46.2541 12.0206 46.1898 12.1108 46.1583 12.2195L45.3126 12.1508C45.3553 11.9505 45.4399 11.7774 45.566 11.6315C45.6916 11.4841 45.8543 11.3711 46.0529 11.2924C46.2532 11.2122 46.485 11.1722 46.7484 11.1722C46.9314 11.1722 47.1067 11.1936 47.2742 11.2365C47.443 11.2795 47.5923 11.346 47.7227 11.4362C47.8544 11.5263 47.958 11.6422 48.034 11.7838C48.1099 11.9241 48.1475 12.0922 48.1475 12.2882V14.5117H47.2807V14.0545H47.2548C47.2021 14.1575 47.1313 14.2484 47.0424 14.3271C46.9539 14.4044 46.8472 14.4651 46.7225 14.5095C46.5982 14.5524 46.4544 14.5739 46.2912 14.5739ZM46.5533 13.9429C46.6875 13.9429 46.8062 13.9165 46.9094 13.8635C47.0126 13.8091 47.0933 13.7361 47.152 13.6446C47.2107 13.553 47.2396 13.4493 47.2396 13.3334V12.9836C47.2112 13.0022 47.1719 13.0193 47.1218 13.0351C47.073 13.0494 47.0182 13.063 46.9565 13.0759C46.8952 13.0873 46.8334 13.098 46.7721 13.108C46.7104 13.1166 46.6547 13.1245 46.6046 13.1316C46.4971 13.1474 46.4035 13.1724 46.3236 13.2068C46.2433 13.2411 46.1811 13.2876 46.1367 13.3463C46.0922 13.4035 46.0702 13.4751 46.0702 13.5609C46.0702 13.6854 46.1151 13.7805 46.2053 13.8464C46.2968 13.9107 46.413 13.9429 46.5533 13.9429ZM49.7711 10.1162V14.5117H48.8572V10.1162H49.7711ZM36.7363 21.9149C36.3986 21.9149 36.1082 21.8433 35.865 21.7002C35.6231 21.5557 35.4372 21.3554 35.3069 21.0993C35.1781 20.8432 35.1138 20.5485 35.1138 20.2151C35.1138 19.8774 35.1789 19.5812 35.3091 19.3265C35.4407 19.0704 35.6274 18.8708 35.8692 18.7277C36.111 18.5832 36.3986 18.511 36.732 18.511C37.0196 18.511 37.2714 18.5632 37.4875 18.6677C37.7036 18.7721 37.8745 18.9188 38.0004 19.1076C38.1264 19.2965 38.1957 19.5183 38.2086 19.773H37.3458C37.3215 19.6084 37.2571 19.476 37.1527 19.3759C37.0497 19.2743 36.9145 19.2235 36.747 19.2235C36.6054 19.2235 36.4816 19.2621 36.3757 19.3394C36.2713 19.4153 36.1897 19.5261 36.1311 19.6721C36.0724 19.818 36.0431 19.9947 36.0431 20.2022C36.0431 20.4125 36.0717 20.5914 36.1289 20.7388C36.1876 20.8861 36.2698 20.9984 36.3757 21.0757C36.4816 21.153 36.6054 21.1916 36.747 21.1916C36.8515 21.1916 36.9452 21.1701 37.0282 21.1272C37.1126 21.0843 37.182 21.022 37.2364 20.9405C37.2922 20.8575 37.3287 20.758 37.3458 20.6421H38.2086C38.1943 20.894 38.1256 21.1158 38.0026 21.3075C37.8809 21.4978 37.7128 21.6466 37.4982 21.7539C37.2836 21.8612 37.0296 21.9149 36.7363 21.9149ZM40.2834 21.9149C39.9501 21.9149 39.6618 21.844 39.4185 21.7024C39.1767 21.5593 38.99 21.3604 38.8584 21.1057C38.7268 20.8496 38.6609 20.5527 38.6609 20.2151C38.6609 19.8745 38.7268 19.5769 38.8584 19.3222C38.99 19.0661 39.1767 18.8672 39.4185 18.7256C39.6618 18.5825 39.9501 18.511 40.2834 18.511C40.6168 18.511 40.9044 18.5825 41.1462 18.7256C41.3894 18.8672 41.5769 19.0661 41.7086 19.3222C41.8402 19.5769 41.906 19.8745 41.906 20.2151C41.906 20.5527 41.8402 20.8496 41.7086 21.1057C41.5769 21.3604 41.3894 21.5593 41.1462 21.7024C40.9044 21.844 40.6168 21.9149 40.2834 21.9149ZM40.2878 21.2066C40.4394 21.2066 40.566 21.1637 40.6676 21.0778C40.7692 20.9906 40.8458 20.8718 40.8973 20.7216C40.9502 20.5713 40.9767 20.4003 40.9767 20.2086C40.9767 20.0169 40.9502 19.8459 40.8973 19.6957C40.8458 19.5455 40.7692 19.4267 40.6676 19.3394C40.566 19.2521 40.4394 19.2085 40.2878 19.2085C40.1346 19.2085 40.0059 19.2521 39.9014 19.3394C39.7984 19.4267 39.7204 19.5455 39.6675 19.6957C39.616 19.8459 39.5902 20.0169 39.5902 20.2086C39.5902 20.4003 39.616 20.5713 39.6675 20.7216C39.7204 20.8718 39.7984 20.9906 39.9014 21.0778C40.0059 21.1637 40.1346 21.2066 40.2878 21.2066ZM42.5005 21.8505V18.5539H43.3718V19.1355H43.4105C43.4792 18.9423 43.5936 18.79 43.7539 18.6784C43.9143 18.5668 44.106 18.511 44.3292 18.511C44.5549 18.511 44.7475 18.5675 44.9063 18.6805C45.0652 18.7921 45.171 18.9438 45.2241 19.1355H45.2582C45.3255 18.9467 45.4473 18.7957 45.6234 18.6827C45.8008 18.5682 46.0102 18.511 46.2519 18.511C46.5597 18.511 46.8092 18.609 47.0009 18.805C47.1943 18.9996 47.291 19.2757 47.291 19.6334V21.8505H46.3788V19.8137C46.3788 19.6306 46.3301 19.4932 46.2329 19.4017C46.1354 19.3101 46.0136 19.2643 45.8677 19.2643C45.702 19.2643 45.5724 19.3172 45.4796 19.4231C45.3864 19.5275 45.3398 19.6656 45.3398 19.8373V21.8505H44.4535V19.7944C44.4535 19.6327 44.4069 19.5039 44.3141 19.4081C44.2225 19.3122 44.1017 19.2643 43.9514 19.2643C43.8495 19.2643 43.7582 19.29 43.6766 19.3416C43.5965 19.3916 43.5328 19.4624 43.4856 19.554C43.4384 19.6442 43.4148 19.75 43.4148 19.8717V21.8505H42.5005ZM48.0132 21.8505V18.5539H48.8844V19.1355H48.9228C48.9919 18.9423 49.1063 18.79 49.2665 18.6784C49.4266 18.5668 49.6183 18.511 49.8415 18.511C50.0677 18.511 50.2602 18.5675 50.4191 18.6805C50.5779 18.7921 50.6837 18.9438 50.7364 19.1355H50.7709C50.8383 18.9467 50.96 18.7957 51.1357 18.6827C51.3131 18.5682 51.5229 18.511 51.7647 18.511C52.072 18.511 52.322 18.609 52.5137 18.805C52.7066 18.9996 52.8033 19.2757 52.8033 19.6334V21.8505H51.8912V19.8137C51.8912 19.6306 51.8424 19.4932 51.7452 19.4017C51.6481 19.3101 51.5264 19.2643 51.3805 19.2643C51.2143 19.2643 51.0852 19.3172 50.9919 19.4231C50.8991 19.5275 50.8525 19.6656 50.8525 19.8373V21.8505H49.9662V19.7944C49.9662 19.6327 49.9196 19.5039 49.8268 19.4081C49.7348 19.3122 49.614 19.2643 49.4637 19.2643C49.3623 19.2643 49.2708 19.29 49.1892 19.3416C49.1089 19.3916 49.0454 19.4624 48.9979 19.554C48.9509 19.6442 48.9271 19.75 48.9271 19.8717V21.8505H48.0132ZM55.6396 20.4468V18.5539H56.5539V21.8505H55.6763V21.2517H55.6417C55.5675 21.4448 55.4436 21.6001 55.2705 21.7174C55.0987 21.8347 54.8893 21.8934 54.6415 21.8934C54.4213 21.8934 54.2275 21.8433 54.06 21.7432C53.8925 21.643 53.7617 21.5007 53.6672 21.3161C53.5743 21.1315 53.5269 20.9104 53.5256 20.6529V18.5539H54.4399V20.4898C54.4412 20.6844 54.4934 20.8382 54.5966 20.9512C54.6993 21.0643 54.8375 21.1208 55.0106 21.1208C55.1211 21.1208 55.2238 21.0957 55.3197 21.0456C55.4155 20.9941 55.4928 20.9183 55.5515 20.8181C55.6115 20.718 55.6409 20.5942 55.6396 20.4468ZM58.1995 19.9446V21.8505H57.2852V18.5539H58.1563V19.1355H58.1952C58.2682 18.9438 58.3903 18.7921 58.5621 18.6805C58.734 18.5675 58.942 18.511 59.1868 18.511C59.4156 18.511 59.6155 18.5611 59.7856 18.6612C59.9557 18.7614 60.0882 18.9044 60.1827 19.0905C60.2768 19.275 60.3243 19.4954 60.3243 19.7515V21.8505H59.41V19.9146C59.4113 19.7128 59.3599 19.5555 59.2554 19.4424C59.151 19.328 59.0072 19.2707 58.8242 19.2707C58.7011 19.2707 58.5924 19.2972 58.4978 19.3501C58.405 19.4031 58.3321 19.4804 58.279 19.5819C58.2276 19.6821 58.2008 19.803 58.1995 19.9446ZM61.0448 21.8505V18.5539H61.9591V21.8505H61.0448ZM61.5041 18.1289C61.3682 18.1289 61.2516 18.0839 61.1545 17.9937C61.0582 17.9022 61.0103 17.7927 61.0103 17.6653C61.0103 17.5395 61.0582 17.4314 61.1545 17.3413C61.2516 17.2497 61.3682 17.2039 61.5041 17.2039C61.6401 17.2039 61.7558 17.2497 61.8517 17.3413C61.9492 17.4314 61.9976 17.5395 61.9976 17.6653C61.9976 17.7927 61.9492 17.9022 61.8517 17.9937C61.7558 18.0839 61.6401 18.1289 61.5041 18.1289ZM64.4448 18.5539V19.2407H62.4599V18.5539H64.4448ZM62.9106 17.7641H63.8245V20.8375C63.8245 20.9219 63.8375 20.9877 63.8634 21.0349C63.8893 21.0807 63.9247 21.1129 63.9708 21.1315C64.0179 21.1501 64.0723 21.1594 64.1336 21.1594C64.1768 21.1594 64.2195 21.1558 64.2627 21.1486C64.3054 21.1401 64.3382 21.1336 64.3611 21.1293L64.5049 21.8097C64.4591 21.824 64.3948 21.8405 64.3119 21.859C64.229 21.8791 64.128 21.8912 64.0093 21.8956C63.7891 21.9041 63.5957 21.8748 63.4299 21.8075C63.2655 21.7403 63.1372 21.6359 63.0457 21.4942C62.9542 21.3525 62.9089 21.1737 62.9106 20.9577V17.7641ZM65.0406 21.8505V18.5539H65.9549V21.8505H65.0406ZM65.4999 18.1289C65.3639 18.1289 65.2474 18.0839 65.1498 17.9937C65.054 17.9022 65.0061 17.7927 65.0061 17.6653C65.0061 17.5395 65.054 17.4314 65.1498 17.3413C65.2474 17.2497 65.3639 17.2039 65.4999 17.2039C65.6359 17.2039 65.7516 17.2497 65.8474 17.3413C65.945 17.4314 65.9933 17.5395 65.9933 17.6653C65.9933 17.7927 65.945 17.9022 65.8474 17.9937C65.7516 18.0839 65.6359 18.1289 65.4999 18.1289ZM68.1894 21.9149C67.8505 21.9149 67.5587 21.8462 67.3139 21.7088C67.0708 21.57 66.8831 21.374 66.7514 21.1208C66.6202 20.8661 66.5541 20.5649 66.5541 20.2172C66.5541 19.8781 66.6202 19.5805 66.7514 19.3244C66.8831 19.0683 67.0687 18.8687 67.3074 18.7256C67.5479 18.5825 67.8298 18.511 68.1531 18.511C68.3707 18.511 68.5731 18.546 68.7605 18.6162C68.9492 18.6848 69.1141 18.7885 69.2539 18.9273C69.3955 19.0661 69.506 19.2407 69.5846 19.451C69.6632 19.6599 69.7025 19.9046 69.7025 20.185V20.4361H66.9189V19.8695H68.8421C68.8421 19.7379 68.8136 19.6213 68.7562 19.5197C68.6988 19.4181 68.6193 19.3387 68.5179 19.2815C68.4177 19.2228 68.3012 19.1935 68.1682 19.1935C68.0292 19.1935 67.9062 19.2257 67.7991 19.29C67.6929 19.353 67.61 19.4381 67.55 19.5455C67.49 19.6513 67.4589 19.7694 67.4576 19.8996V20.4383C67.4576 20.6014 67.4879 20.7423 67.5479 20.8611C67.6092 20.9798 67.6959 21.0714 67.8073 21.1358C67.9191 21.2002 68.0517 21.2324 68.2045 21.2324C68.3064 21.2324 68.3992 21.2181 68.4838 21.1894C68.568 21.1608 68.6401 21.1179 68.7005 21.0607C68.7605 21.0034 68.8063 20.9333 68.8378 20.8503L69.6835 20.9062C69.6403 21.1093 69.5522 21.2867 69.4193 21.4384C69.2876 21.5886 69.1175 21.706 68.9086 21.7904C68.7009 21.8734 68.4613 21.9149 68.1894 21.9149ZM73.0421 19.4939L72.205 19.5455C72.1907 19.4739 72.1601 19.4095 72.113 19.3523C72.0656 19.2936 72.0034 19.2471 71.9261 19.2128C71.8501 19.177 71.7595 19.1591 71.6537 19.1591C71.5117 19.1591 71.3925 19.1892 71.295 19.2493C71.1978 19.3079 71.1491 19.3866 71.1491 19.4854C71.1491 19.564 71.1806 19.6306 71.2436 19.6849C71.3066 19.7393 71.4146 19.783 71.5678 19.8159L72.1644 19.9361C72.4847 20.0019 72.7239 20.1077 72.881 20.2537C73.0386 20.3997 73.1172 20.5914 73.1172 20.8289C73.1172 21.0449 73.0537 21.2345 72.9264 21.3976C72.8003 21.5607 72.6272 21.6881 72.407 21.7797C72.1882 21.8698 71.9356 21.9149 71.6494 21.9149C71.213 21.9149 70.865 21.824 70.606 21.6423C70.3487 21.4592 70.1976 21.2102 70.1531 20.8954L71.0528 20.8482C71.08 20.9813 71.1456 21.0829 71.2501 21.153C71.3546 21.2216 71.4884 21.256 71.6516 21.256C71.8117 21.256 71.9404 21.2252 72.0375 21.1637C72.1364 21.1007 72.1864 21.0199 72.1882 20.9212C72.1864 20.8382 72.1515 20.7702 72.0828 20.7173C72.0142 20.6629 71.9084 20.6214 71.7651 20.5928L71.1944 20.479C70.8724 20.4147 70.6328 20.303 70.4752 20.1442C70.3194 19.9854 70.2412 19.783 70.2412 19.5369C70.2412 19.3251 70.2986 19.1427 70.413 18.9896C70.5287 18.8365 70.6915 18.7184 70.9004 18.6354C71.1106 18.5525 71.3567 18.511 71.6386 18.511C72.0548 18.511 72.3824 18.599 72.6216 18.775C72.862 18.9509 73.0019 19.1906 73.0421 19.4939Z" fill="black"/>
  </g>
  <defs>
    <clipPath id="clip0_234_1588">
      <rect width="73.3881" height="30.2186" fill="white" transform="translate(0.671387 0.611084)"/>
    </clipPath>
  </defs>
</svg>