<svg width="65" height="65" viewBox="0 0 65 65" fill="none" xmlns="http://www.w3.org/2000/svg">
<path d="M10.1656 29.5966H17.4559C17.7501 29.5963 18.0322 29.4793 18.2403 29.2713C18.4484 29.0633 18.5654 28.7812 18.5658 28.487V26.0223C18.5658 25.8203 18.4856 25.6266 18.3427 25.4837C18.1999 25.3409 18.0062 25.2606 17.8041 25.2606C17.6021 25.2606 17.4084 25.3409 17.2655 25.4837C17.1227 25.6266 17.0424 25.8203 17.0424 26.0223V28.0731H10.5791V21.6201H13.8107C14.0127 21.6201 14.2065 21.5399 14.3493 21.397C14.4922 21.2542 14.5724 21.0604 14.5724 20.8584C14.5724 20.6564 14.4922 20.4626 14.3493 20.3198C14.2065 20.1769 14.0127 20.0967 13.8107 20.0967H10.1656C9.87139 20.0969 9.58928 20.2139 9.38119 20.4219C9.17311 20.63 9.05603 20.912 9.05566 21.2062V28.487C9.05607 28.7812 9.17315 29.0633 9.38123 29.2713C9.58931 29.4793 9.8714 29.5963 10.1656 29.5966Z" fill="#A3CB03"/>
<path d="M19.1952 19.6694C19.1183 19.6054 19.0295 19.5572 18.934 19.5275C18.8385 19.4978 18.738 19.4872 18.6384 19.4963C18.5388 19.5055 18.442 19.5341 18.3534 19.5807C18.2649 19.6272 18.1864 19.6908 18.1224 19.7676L14.4887 24.1339L13.3228 23.1906C13.2452 23.1263 13.1556 23.078 13.0592 23.0486C12.9628 23.0192 12.8615 23.0092 12.7612 23.0192C12.6609 23.0292 12.5636 23.059 12.4749 23.1069C12.3862 23.1548 12.3079 23.2199 12.2445 23.2982C12.1812 23.3766 12.134 23.4668 12.1057 23.5636C12.0775 23.6603 12.0687 23.7617 12.0799 23.8619C12.0911 23.962 12.1221 24.059 12.171 24.1471C12.22 24.2352 12.2859 24.3127 12.3651 24.3752L13.7666 25.5091C13.9969 25.6985 14.2892 25.7961 14.5871 25.7829C14.885 25.7697 15.1675 25.6468 15.3802 25.4378L15.4108 25.4084L19.2935 20.7424C19.3576 20.6655 19.4058 20.5767 19.4355 20.4812C19.4652 20.3856 19.4758 20.2852 19.4667 20.1855C19.4575 20.0859 19.4288 19.989 19.3823 19.9004C19.3357 19.8119 19.2721 19.7334 19.1952 19.6694ZM56.1258 20.6278H26.4029C26.2009 20.6278 26.0072 20.708 25.8643 20.8509C25.7215 20.9937 25.6412 21.1875 25.6412 21.3895C25.6412 21.5915 25.7215 21.7852 25.8643 21.9281C26.0072 22.0709 26.2009 22.1512 26.4029 22.1512H56.1258C56.3278 22.1512 56.5216 22.0709 56.6644 21.9281C56.8073 21.7852 56.8875 21.5915 56.8875 21.3895C56.8875 21.1875 56.8073 20.9937 56.6644 20.8509C56.5216 20.708 56.3278 20.6278 56.1258 20.6278ZM56.1258 26.9387H26.4029C26.2009 26.9387 26.0072 27.019 25.8643 27.1618C25.7215 27.3047 25.6412 27.4984 25.6412 27.7004C25.6412 27.9025 25.7215 28.0962 25.8643 28.2391C26.0072 28.3819 26.2009 28.4622 26.4029 28.4622H56.1258C56.3278 28.4622 56.5216 28.3819 56.6644 28.2391C56.8073 28.0962 56.8875 27.9025 56.8875 27.7004C56.8875 27.4984 56.8073 27.3047 56.6644 27.1618C56.5216 27.019 56.3278 26.9387 56.1258 26.9387ZM17.8041 41.4052C17.6021 41.4052 17.4084 41.4854 17.2655 41.6283C17.1227 41.7711 17.0424 41.9649 17.0424 42.1669V44.2179H10.5791V37.7646H13.8107C14.0127 37.7646 14.2065 37.6844 14.3493 37.5415C14.4922 37.3987 14.5724 37.205 14.5724 37.0029C14.5724 36.8009 14.4922 36.6072 14.3493 36.4643C14.2065 36.3215 14.0127 36.2412 13.8107 36.2412H10.1656C9.8714 36.2415 9.58931 36.3585 9.38123 36.5665C9.17315 36.7745 9.05607 37.0566 9.05566 37.3508V44.6315C9.05603 44.9258 9.1731 45.2079 9.38118 45.4159C9.58927 45.6239 9.87137 45.7409 10.1656 45.7412H17.4559C17.7501 45.7409 18.0322 45.6239 18.2403 45.4159C18.4484 45.2079 18.5655 44.9258 18.5658 44.6315V42.1669C18.5658 41.9649 18.4856 41.7711 18.3427 41.6283C18.1999 41.4854 18.0062 41.4052 17.8041 41.4052Z" fill="#A3CB03"/>
<path d="M19.1952 35.8134C19.1183 35.7494 19.0296 35.7012 18.9341 35.6715C18.8385 35.6418 18.7381 35.6313 18.6385 35.6404C18.5389 35.6495 18.442 35.6782 18.3535 35.7248C18.265 35.7713 18.1865 35.8349 18.1225 35.9118L14.4892 40.2779L13.3233 39.3347C13.2457 39.2705 13.1561 39.2224 13.0598 39.193C12.9634 39.1637 12.8622 39.1538 12.762 39.1638C12.6618 39.1738 12.5646 39.2036 12.476 39.2515C12.3873 39.2993 12.3091 39.3643 12.2457 39.4426C12.1824 39.5209 12.1352 39.6109 12.1069 39.7076C12.0786 39.8042 12.0697 39.9055 12.0808 40.0056C12.0919 40.1057 12.1227 40.2026 12.1715 40.2907C12.2203 40.3788 12.2861 40.4564 12.365 40.5189L13.7666 41.6528C13.9969 41.8423 14.2891 41.9398 14.587 41.9266C14.8849 41.9135 15.1675 41.7906 15.3802 41.5816L15.4108 41.5522L19.2935 36.8861C19.3575 36.8092 19.4057 36.7205 19.4354 36.625C19.4651 36.5295 19.4757 36.429 19.4665 36.3294C19.4574 36.2298 19.4288 36.1329 19.3822 36.0444C19.3357 35.9559 19.2721 35.8774 19.1952 35.8134ZM56.1259 36.7719H49.9372C49.7352 36.7719 49.5414 36.8521 49.3986 36.995C49.2557 37.1378 49.1755 37.3316 49.1755 37.5336C49.1755 37.7356 49.2557 37.9294 49.3986 38.0722C49.5414 38.2151 49.7352 38.2953 49.9372 38.2953H56.1259C56.3279 38.2953 56.5217 38.2151 56.6645 38.0722C56.8074 37.9294 56.8876 37.7356 56.8876 37.5336C56.8876 37.3316 56.8074 37.1378 56.6645 36.995C56.5217 36.8521 56.3279 36.7719 56.1259 36.7719ZM36.0564 36.7719H26.403C26.201 36.7719 26.0072 36.8521 25.8644 36.995C25.7215 37.1378 25.6413 37.3316 25.6413 37.5336C25.6413 37.7356 25.7215 37.9294 25.8644 38.0722C26.0072 38.2151 26.201 38.2953 26.403 38.2953H36.0564C36.2584 38.2953 36.4522 38.2151 36.595 38.0722C36.7379 37.9294 36.8181 37.7356 36.8181 37.5336C36.8181 37.3316 36.7379 37.1378 36.595 36.995C36.4522 36.8521 36.2584 36.7719 36.0564 36.7719ZM29.0047 43.083H26.403C26.201 43.083 26.0072 43.1632 25.8644 43.3061C25.7215 43.4489 25.6413 43.6427 25.6413 43.8447C25.6413 44.0467 25.7215 44.2405 25.8644 44.3833C26.0072 44.5262 26.201 44.6064 26.403 44.6064H29.0047C29.2067 44.6064 29.4004 44.5262 29.5433 44.3833C29.6861 44.2405 29.7664 44.0467 29.7664 43.8447C29.7664 43.6427 29.6861 43.4489 29.5433 43.3061C29.4004 43.1632 29.2067 43.083 29.0047 43.083Z" fill="#A3CB03"/>
<path d="M59.9681 1.26953H5.03191C4.1018 1.27051 3.21004 1.64039 2.5523 2.29804C1.89456 2.95568 1.52455 3.84738 1.52344 4.7775V50.3029C1.52428 51.2322 1.89348 52.1232 2.55013 52.7807C3.20678 53.4383 4.09732 53.8087 5.02658 53.8107L34.0782 54.0163L35.5498 59.7992C35.5523 59.8095 35.5553 59.8198 35.5583 59.8301C35.8911 60.96 36.5819 61.9513 37.5267 62.6547C38.4715 63.3582 39.6192 63.7357 40.7971 63.7305H51.4179C52.8683 63.7285 54.2587 63.1514 55.2842 62.1256C56.3096 61.0998 56.8863 59.7092 56.8877 58.2588V53.9805L59.9903 53.8112C60.9166 53.8044 61.8026 53.4319 62.4555 52.7749C63.1085 52.1179 63.4754 51.2295 63.4766 50.3033V4.7775C63.4755 3.84738 63.1054 2.95568 62.4477 2.29804C61.79 1.64039 60.8982 1.27051 59.9681 1.26953ZM5.03191 2.79297H59.9681C60.4943 2.79347 60.9988 3.0027 61.371 3.37475C61.7431 3.7468 61.9525 4.25128 61.9531 4.7775V12.4898H3.04688V4.7775C3.04751 4.25128 3.25687 3.7468 3.62902 3.37475C4.00116 3.0027 4.50569 2.79347 5.03191 2.79297ZM55.3643 58.2588C55.3633 59.3053 54.9472 60.3087 54.2074 61.0488C53.4676 61.789 52.4644 62.2055 51.4179 62.207H40.7971C39.95 62.2108 39.1243 61.9401 38.4438 61.4354C37.7633 60.9308 37.2645 60.2194 37.0221 59.4076L35.4098 53.0712C35.0297 51.5792 34.5226 50.1224 33.8942 48.7167L33.7695 48.4209C34.5812 48.4209 35.3808 48.618 36.0995 48.9953C36.8182 49.3725 37.4345 49.9187 37.8955 50.5868L39.2054 52.4846V55.3135C39.2054 55.5155 39.2857 55.7092 39.4285 55.8521C39.5714 55.9949 39.7651 56.0752 39.9671 56.0752C40.1691 56.0752 40.3629 55.9949 40.5057 55.8521C40.6486 55.7092 40.7288 55.5155 40.7288 55.3135V34.6111C40.7288 34.2311 40.8798 33.8667 41.1485 33.598C41.4172 33.3293 41.7816 33.1783 42.1616 33.1783C42.5416 33.1783 42.9061 33.3293 43.1748 33.598C43.4435 33.8667 43.5944 34.2311 43.5944 34.6111V48.1325C43.5945 48.2069 43.6054 48.2809 43.6269 48.3521V51.4573C43.6269 51.6593 43.7072 51.853 43.85 51.9959C43.9929 52.1387 44.1866 52.219 44.3887 52.219C44.5907 52.219 44.7844 52.1387 44.9273 51.9959C45.0701 51.853 45.1504 51.6593 45.1504 51.4573V47.2029C45.1504 46.9016 45.2701 46.6126 45.4832 46.3995C45.6963 46.1864 45.9853 46.0667 46.2866 46.0667C46.5879 46.0667 46.877 46.1864 47.09 46.3995C47.3031 46.6126 47.4228 46.9016 47.4228 47.2029V48.0662C47.4031 48.1992 47.3932 48.3334 47.3931 48.4678V51.4578C47.3931 51.6598 47.4734 51.8535 47.6162 51.9964C47.7591 52.1393 47.9528 52.2195 48.1548 52.2195H48.1846C48.3866 52.2195 48.5803 52.1393 48.7232 51.9964C48.866 51.8535 48.9463 51.6598 48.9463 51.4578V48.2025C49.0111 47.908 49.1824 47.6479 49.4273 47.4721C49.6722 47.2963 49.9735 47.2173 50.2732 47.2501C50.5729 47.283 50.8499 47.4254 51.0509 47.6501C51.2519 47.8748 51.3628 48.1658 51.3623 48.4673V52.2473C51.3623 52.4493 51.4426 52.6431 51.5854 52.7859C51.7283 52.9288 51.922 53.009 52.124 53.009C52.3261 53.009 52.5198 52.9288 52.6627 52.7859C52.8055 52.6431 52.8857 52.4493 52.8857 52.2473V49.6611C52.8841 49.4974 52.9149 49.3349 52.9764 49.1831C53.038 49.0313 53.129 48.8932 53.2442 48.7768C53.3594 48.6604 53.4966 48.568 53.6478 48.5049C53.7989 48.4419 53.9611 48.4094 54.1249 48.4094C54.2887 48.4094 54.4508 48.4419 54.602 48.5049C54.7532 48.568 54.8903 48.6604 55.0055 48.7768C55.1208 48.8932 55.2118 49.0313 55.2733 49.1831C55.3348 49.3349 55.3657 49.4974 55.364 49.6611L55.3643 58.2588ZM59.9683 52.2883C59.9545 52.2883 59.9407 52.2883 59.9268 52.2896L56.8877 52.4546V49.6617C56.8883 49.1662 56.7556 48.6796 56.5034 48.2532C56.2512 47.8267 55.8888 47.4759 55.4543 47.2378C55.0198 46.9996 54.5293 46.8828 54.0341 46.8996C53.5389 46.9164 53.0573 47.0661 52.64 47.3332C52.4799 46.9793 52.2465 46.6634 51.9551 46.4064C51.6638 46.1494 51.3213 45.9573 50.9501 45.8426C50.5789 45.7279 50.1877 45.6934 49.8022 45.7413C49.4167 45.7892 49.0458 45.9184 48.7139 46.1204C48.5695 45.7935 48.3604 45.4993 48.0992 45.2554C47.8381 45.0115 47.5302 44.8229 47.1943 44.7012C46.8583 44.5794 46.5012 44.5269 46.1443 44.5468C45.7875 44.5667 45.4385 44.6586 45.1181 44.817V34.6111C45.1181 33.8271 44.8067 33.0751 44.2523 32.5207C43.6979 31.9663 42.9459 31.6549 42.1619 31.6549C41.3779 31.6549 40.6259 31.9663 40.0715 32.5207C39.5171 33.0751 39.2057 33.8271 39.2057 34.6111V49.8027L39.1496 49.7214C38.5485 48.8503 37.7449 48.1381 36.8077 47.6462C35.8705 47.1543 34.8279 46.8973 33.7695 46.8975C33.5145 46.8975 33.2635 46.9614 33.0394 47.0832C32.8154 47.2051 32.6253 47.381 32.4867 47.5951C32.348 47.8091 32.2651 48.0545 32.2454 48.3088C32.2258 48.5631 32.2701 48.8182 32.3743 49.051L32.5027 49.3382C32.9601 50.3621 33.3494 51.4151 33.6681 52.4903L5.03141 52.2872C4.50538 52.2865 4.00108 52.0773 3.62906 51.7054C3.25704 51.3335 3.04768 50.8293 3.04688 50.3033V14.0132H61.9531V50.3033C61.9525 50.8295 61.7431 51.3339 61.3709 51.7059C60.9988 52.078 60.4943 52.2872 59.9681 52.2877L59.9683 52.2883Z" fill="#A3CB03"/>
<path d="M7.89648 10.4648C8.47399 10.4648 9.03853 10.2936 9.51871 9.97275C9.99889 9.6519 10.3731 9.19587 10.5941 8.66233C10.8151 8.12878 10.873 7.54168 10.7603 6.97527C10.6476 6.40887 10.3695 5.88859 9.96118 5.48023C9.55282 5.07187 9.03254 4.79377 8.46613 4.68111C7.89972 4.56844 7.31262 4.62626 6.77908 4.84727C6.24553 5.06827 5.7895 5.44252 5.46866 5.9227C5.14781 6.40288 4.97656 6.96742 4.97656 7.54492C4.97737 8.31909 5.28526 9.06131 5.83268 9.60873C6.3801 10.1561 7.12232 10.464 7.89648 10.4648ZM7.89648 6.14945C8.17268 6.14945 8.44268 6.23136 8.67233 6.3848C8.90198 6.53825 9.08097 6.75635 9.18667 7.01153C9.29236 7.2667 9.32002 7.54749 9.26614 7.81838C9.21225 8.08927 9.07925 8.3381 8.88395 8.5334C8.68865 8.7287 8.43982 8.86171 8.16892 8.91559C7.89803 8.96947 7.61725 8.94182 7.36207 8.83612C7.1069 8.73043 6.8888 8.55143 6.73535 8.32178C6.5819 8.09213 6.5 7.82214 6.5 7.54594C6.50034 7.17567 6.64757 6.82067 6.90939 6.55885C7.17121 6.29703 7.52622 6.14979 7.89648 6.14945ZM15.594 10.4648C16.1715 10.4648 16.7361 10.2936 17.2163 9.97275C17.6964 9.6519 18.0707 9.19587 18.2917 8.66233C18.5127 8.12878 18.5705 7.54168 18.4579 6.97527C18.3452 6.40887 18.0671 5.88859 17.6587 5.48023C17.2504 5.07187 16.7301 4.79377 16.1637 4.68111C15.5973 4.56844 15.0102 4.62626 14.4766 4.84727C13.9431 5.06827 13.4871 5.44252 13.1662 5.9227C12.8454 6.40288 12.6741 6.96742 12.6741 7.54492C12.6749 8.31909 12.9828 9.06131 13.5302 9.60873C14.0776 10.1561 14.8199 10.464 15.594 10.4648ZM15.594 6.14945C15.8702 6.14945 16.1402 6.23136 16.3699 6.3848C16.5995 6.53825 16.7785 6.75635 16.8842 7.01153C16.9899 7.2667 17.0176 7.54749 16.9637 7.81838C16.9098 8.08927 16.7768 8.3381 16.5815 8.5334C16.3862 8.7287 16.1374 8.86171 15.8665 8.91559C15.5956 8.96947 15.3148 8.94182 15.0596 8.83612C14.8044 8.73043 14.5863 8.55143 14.4329 8.32178C14.2795 8.09213 14.1975 7.82214 14.1975 7.54594C14.1979 7.17567 14.3451 6.82067 14.6069 6.55885C14.8688 6.29703 15.2238 6.14979 15.594 6.14945ZM23.2917 10.4648C23.8692 10.4648 24.4338 10.2936 24.9139 9.97275C25.3941 9.6519 25.7684 9.19587 25.9894 8.66233C26.2104 8.12878 26.2682 7.54168 26.1555 6.97527C26.0429 6.40887 25.7648 5.88859 25.3564 5.48023C24.948 5.07187 24.4278 4.79377 23.8614 4.68111C23.2949 4.56844 22.7078 4.62626 22.1743 4.84727C21.6408 5.06827 21.1847 5.44252 20.8639 5.9227C20.543 6.40288 20.3718 6.96742 20.3718 7.54492C20.3726 8.31909 20.6805 9.06131 21.2279 9.60873C21.7753 10.1561 22.5175 10.464 23.2917 10.4648ZM23.2917 6.14945C23.5679 6.14945 23.8379 6.23136 24.0676 6.3848C24.2972 6.53825 24.4762 6.75635 24.5819 7.01153C24.6876 7.2667 24.7152 7.54749 24.6614 7.81838C24.6075 8.08927 24.4745 8.3381 24.2792 8.5334C24.0839 8.7287 23.835 8.86171 23.5641 8.91559C23.2933 8.96947 23.0125 8.94182 22.7573 8.83612C22.5021 8.73043 22.284 8.55143 22.1306 8.32178C21.9771 8.09213 21.8952 7.82214 21.8952 7.54594C21.8956 7.17567 22.0428 6.82067 22.3046 6.55885C22.5664 6.29703 22.9214 6.14979 23.2917 6.14945ZM34.6582 8.16306H59.4056C59.6076 8.16306 59.8013 8.08281 59.9442 7.93996C60.087 7.79711 60.1673 7.60336 60.1673 7.40134C60.1673 7.19932 60.087 7.00557 59.9442 6.86272C59.8013 6.71987 59.6076 6.63962 59.4056 6.63962H34.6582C34.4562 6.63962 34.2624 6.71987 34.1196 6.86272C33.9767 7.00557 33.8965 7.19932 33.8965 7.40134C33.8965 7.60336 33.9767 7.79711 34.1196 7.93996C34.2624 8.08281 34.4562 8.16306 34.6582 8.16306Z" fill="#A3CB03"/>
</svg>
