<svg width="92" height="69" viewBox="0 0 92 69" fill="none" xmlns="http://www.w3.org/2000/svg">
<path d="M43.6075 17.9212C43.3897 17.9212 43.1757 17.9906 43.0003 18.1217L39.2241 20.9515V18.9313C39.2241 18.3723 38.7711 17.9212 38.2121 17.9212H35.5154C34.5863 17.9212 33.8287 17.1656 33.8287 16.2365V5.45729C33.8287 4.52818 34.5863 3.77256 35.5154 3.77256H54.3983C55.3274 3.77256 56.0849 4.52818 56.0849 5.45729V16.2365C56.0849 17.1656 55.3274 17.9212 54.3983 17.9212H43.6075ZM58.107 16.2365V5.45729C58.107 3.41402 56.4435 1.75049 54.3983 1.75049H35.5154C33.4702 1.75049 31.8066 3.41402 31.8066 5.45729V16.2365C31.8066 18.2798 33.4702 19.9414 35.5154 19.9414H37.202V22.9735C37.202 23.3552 37.4179 23.706 37.761 23.8776C37.9037 23.9489 38.0579 23.9836 38.2121 23.9836C38.428 23.9836 38.642 23.9161 38.8193 23.7812L43.9448 19.9414H54.3983C56.4435 19.9414 58.107 18.2798 58.107 16.2365Z" fill="#A3CB03"/>
<mask id="mask0_1208_18424" style="mask-type:luminance" maskUnits="userSpaceOnUse" x="47" y="0" width="45" height="69">
<path d="M47.5127 0.37793H91.8228V68.4767H47.5127V0.37793Z" fill="white"/>
</mask>
<g mask="url(#mask0_1208_18424)">
<path d="M89.7972 53.9635C89.7972 56.3788 87.8311 58.3431 85.4138 58.3431H69.2276C66.8104 58.3431 64.8442 56.3788 64.8442 53.9635V48.5739C64.8442 46.1606 66.8104 44.1944 69.2276 44.1944H75.9724C79.5038 44.1944 82.3798 41.3242 82.3798 37.7947V22.6359H85.4138C87.8311 22.6359 89.7972 24.6002 89.7972 27.0155V53.9635ZM66.1936 9.49925C66.1936 5.59775 69.3703 2.4249 73.2737 2.4249C77.1791 2.4249 80.3558 5.59775 80.3558 9.49925C80.3558 13.3988 77.1791 16.5717 73.2737 16.5717C69.3703 16.5717 66.1936 13.3988 66.1936 9.49925ZM58.7742 39.4794H50.0074V28.0256H58.7742V39.4794ZM85.4138 20.6158H81.9287C81.281 18.9908 79.9876 17.6916 78.3645 17.0362C80.7856 15.3997 82.3798 12.6316 82.3798 9.49925C82.3798 4.48359 78.2951 0.402832 73.2737 0.402832C68.2542 0.402832 64.1696 4.48359 64.1696 9.49925C64.1696 12.6316 65.7637 15.3997 68.1848 17.0362C65.8331 17.9846 64.1696 20.2881 64.1696 22.9733V32.7424H60.7982V27.0155C60.7982 26.4565 60.3452 26.0054 59.7862 26.0054H48.9954C48.4364 26.0054 47.9834 26.4565 47.9834 27.0155V40.4895C47.9834 41.0485 48.4364 41.4996 48.9954 41.4996H51.3721C49.3077 43.1689 47.9834 45.7191 47.9834 48.5739V55.3109C47.9834 55.8699 48.4364 56.3229 48.9954 56.3229H54.7281V67.4395C54.7281 67.9966 55.1811 68.4496 55.7401 68.4496H61.1355C61.6945 68.4496 62.1475 67.9966 62.1475 67.4395C62.1475 66.8805 61.6945 66.4275 61.1355 66.4275H56.7521V56.3229H61.1355C61.6945 56.3229 62.1475 55.8699 62.1475 55.3109C62.1475 54.7539 61.6945 54.3009 61.1355 54.3009H50.0074V48.5739C50.0074 44.6744 53.1841 41.4996 57.0895 41.4996H59.7862C60.3452 41.4996 60.7982 41.0485 60.7982 40.4895V34.7626H65.1816C65.7406 34.7626 66.1936 34.3115 66.1936 33.7525V22.9733C66.1936 20.558 68.1597 18.5937 70.577 18.5937H75.9724C78.3896 18.5937 80.3558 20.558 80.3558 22.9733V37.7947C80.3558 40.21 78.3896 42.1742 75.9724 42.1742H69.2276C65.6943 42.1742 62.8202 45.0445 62.8202 48.5739V53.9635C62.8202 57.493 65.6943 60.3651 69.2276 60.3651H70.2898L66.9743 66.9865C66.7237 67.4858 66.928 68.093 67.4272 68.3435C67.5718 68.4149 67.726 68.4496 67.8783 68.4496C68.2484 68.4496 68.6069 68.2452 68.7843 67.8906L72.5508 60.3651H83.4399L87.2065 67.8906C87.3838 68.2452 87.7405 68.4496 88.1125 68.4496C88.2648 68.4496 88.419 68.4149 88.5635 68.3435C89.0628 68.093 89.2652 67.4858 89.0165 66.9865L85.6991 60.3574C89.0994 60.209 91.8212 57.3985 91.8212 53.9635V27.0155C91.8212 23.486 88.9471 20.6158 85.4138 20.6158Z" fill="#A3CB03"/>
</g>
<mask id="mask1_1208_18424" style="mask-type:luminance" maskUnits="userSpaceOnUse" x="0" y="0" width="41" height="69">
<path d="M0.780273 0.37793H40.6067V68.4767H0.780273V0.37793Z" fill="white"/>
</mask>
<g mask="url(#mask1_1208_18424)">
<path d="M12.2438 9.49973C12.2438 5.59824 15.4205 2.42539 19.3259 2.42539C23.2312 2.42539 26.4079 5.59824 26.4079 9.49973C26.4079 13.3993 23.2312 16.5722 19.3259 16.5722C15.4205 16.5722 12.2438 13.3993 12.2438 9.49973ZM16.6291 44.1949H23.3719C25.7892 44.1949 27.7553 46.161 27.7553 48.5744V53.964C27.7553 56.3793 25.7892 58.3436 23.3719 58.3436H7.18574C4.77044 58.3436 2.80234 56.3793 2.80234 53.964V27.016C2.80234 24.6007 4.77044 22.6364 7.18574 22.6364H10.2217V37.7952C10.2217 41.3247 13.0958 44.1949 16.6291 44.1949ZM34.1627 40.8273C31.9402 40.8273 30.3615 40.3917 29.4709 39.532C28.7615 38.8477 28.43 37.8684 28.43 36.4478V22.9738C28.43 20.2886 26.7665 17.9851 24.4167 17.0367C26.8358 15.4002 28.43 12.6321 28.43 9.49973C28.43 4.48408 24.3454 0.40332 19.3259 0.40332C14.3063 0.40332 10.2217 4.48408 10.2217 9.49973C10.2217 12.6321 11.8159 15.4002 14.235 17.0367C12.6139 17.6921 11.3185 18.9913 10.6728 20.6163H7.18574C3.65435 20.6163 0.780273 23.4865 0.780273 27.016V53.964C0.780273 57.399 3.50014 60.2095 6.90238 60.3579L3.58495 66.987C3.33436 67.4862 3.53676 68.0934 4.03602 68.344C4.18251 68.4154 4.33672 68.4501 4.489 68.4501C4.85911 68.4501 5.21572 68.2457 5.39306 67.891L9.15962 60.3656H20.0487L23.8172 67.891C23.9945 68.2457 24.3512 68.4501 24.7213 68.4501C24.8735 68.4501 25.0277 68.4154 25.1742 68.344C25.6735 68.0934 25.8759 67.4862 25.6253 66.987L22.3117 60.3656H23.3719C26.9052 60.3656 29.7793 57.4935 29.7793 53.964V48.5744C29.7793 45.045 26.9052 42.1747 23.3719 42.1747H16.6291C14.2119 42.1747 12.2438 40.2105 12.2438 37.7952V22.9738C12.2438 20.5585 14.2119 18.5942 16.6291 18.5942H22.0245C24.4398 18.5942 26.4079 20.5585 26.4079 22.9738V36.4478C26.4079 40.6943 29.016 42.8475 34.1627 42.8475C35.7472 42.8475 36.9076 43.2619 37.6112 44.0773C38.2319 44.7944 38.5461 45.8545 38.5461 47.227V66.428H35.1747V56.6588C35.1747 56.1017 34.7217 55.6488 34.1627 55.6488C33.6037 55.6488 33.1507 56.1017 33.1507 56.6588V67.44C33.1507 67.9971 33.6037 68.4501 34.1627 68.4501H39.5581C40.1171 68.4501 40.5701 67.9971 40.5701 67.44V47.227C40.5701 45.3553 40.0901 43.8518 39.1437 42.7569C38.0372 41.4769 36.3621 40.8273 34.1627 40.8273Z" fill="#A3CB03"/>
</g>
<path d="M45.0087 9.71338C44.3938 9.71338 43.8965 10.2107 43.8965 10.8256C43.8965 11.4386 44.3938 11.9359 45.0087 11.9359C45.6236 11.9359 46.121 11.4386 46.121 10.8256C46.121 10.2107 45.6236 9.71338 45.0087 9.71338Z" fill="#A3CB03"/>
<path d="M51.6855 9.71338C51.0706 9.71338 50.5732 10.2107 50.5732 10.8256C50.5732 11.4386 51.0706 11.9359 51.6855 11.9359C52.3004 11.9359 52.7977 11.4386 52.7977 10.8256C52.7977 10.2107 52.3004 9.71338 51.6855 9.71338Z" fill="#A3CB03"/>
<path d="M38.246 9.71338C37.633 9.71338 37.1338 10.2107 37.1338 10.8256C37.1338 11.4386 37.633 11.9359 38.246 11.9359C38.8609 11.9359 39.3583 11.4386 39.3583 10.8256C39.3583 10.2107 38.8609 9.71338 38.246 9.71338Z" fill="#A3CB03"/>
</svg>
