<svg width="72" height="82" viewBox="0 0 72 82" fill="none" xmlns="http://www.w3.org/2000/svg">
<path d="M48.632 35.5554L30.6877 53.5295L23.702 46.5323C23.5667 46.397 23.4115 46.2913 23.2349 46.2187C23.0583 46.146 22.8734 46.1081 22.6836 46.1081C22.4921 46.1081 22.3072 46.146 22.1306 46.2187C21.954 46.2913 21.7988 46.397 21.6635 46.5323L13.5075 54.7014C13.3722 54.8368 13.2682 54.9936 13.1956 55.1702C13.1213 55.3469 13.085 55.5301 13.085 55.7216C13.085 55.913 13.1213 56.0979 13.1956 56.2745C13.2682 56.4512 13.3722 56.608 13.5075 56.7433L29.6675 72.933C29.8029 73.0684 29.9581 73.174 30.1347 73.2467C30.3113 73.3193 30.4945 73.3573 30.686 73.3573C30.8775 73.3573 31.0607 73.3193 31.2373 73.2467C31.4139 73.174 31.5708 73.0684 31.7061 72.933L58.8265 45.7664C58.9619 45.631 59.0659 45.4742 59.1402 45.2976C59.2128 45.121 59.2491 44.9361 59.2491 44.7446C59.2491 44.5532 59.2128 44.3699 59.1402 44.1933C59.0659 44.015 58.9619 43.8599 58.8265 43.7245L50.6706 35.5554C50.5353 35.42 50.3801 35.316 50.2035 35.2434C50.0268 35.1691 49.8436 35.1328 49.6521 35.1328C49.4607 35.1328 49.2774 35.1691 49.1008 35.2434C48.9242 35.316 48.7674 35.42 48.632 35.5554ZM30.6877 69.8711L16.558 55.7183L22.6819 49.5992L29.6675 56.5981C29.8045 56.7285 29.9614 56.8275 30.138 56.8985C30.3146 56.9695 30.4962 57.0041 30.686 57.0041C30.8758 57.0041 31.0591 56.9695 31.2357 56.8985C31.4106 56.8275 31.5675 56.7285 31.7061 56.5981L49.6521 38.624L55.7745 44.7446L30.6877 69.8711Z" fill="#A3CB03"/>
<mask id="mask0_1208_18400" style="mask-type:luminance" maskUnits="userSpaceOnUse" x="0" y="0" width="72" height="82">
<path d="M0.123047 0.430176H71.96V81.5158H0.123047V0.430176Z" fill="white"/>
</mask>
<g mask="url(#mask0_1208_18400)">
<path d="M64.6711 9.98309H58.8872V8.14094C58.8872 7.89665 58.8757 7.6507 58.8509 7.4064C58.8278 7.1621 58.7915 6.91945 58.7436 6.67845C58.6957 6.43746 58.6363 6.19976 58.5653 5.96372C58.4944 5.72932 58.4118 5.49823 58.3177 5.27044C58.2253 5.0443 58.1196 4.82146 58.0041 4.60522C57.8886 4.38898 57.7631 4.1777 57.6261 3.97302C57.4907 3.76998 57.3455 3.5719 57.1887 3.38208C57.0335 3.19225 56.8701 3.01068 56.6951 2.83571C56.5218 2.66239 56.3419 2.49732 56.1521 2.34216C55.9622 2.18534 55.7658 2.04009 55.5611 1.90308C55.3581 1.76608 55.1468 1.64063 54.9306 1.52508C54.7143 1.40953 54.4931 1.30389 54.267 1.2098C54.0409 1.11571 53.8098 1.03318 53.5754 0.962202C53.3393 0.889573 53.1016 0.830149 52.8623 0.78228C52.6213 0.734411 52.3786 0.698096 52.1343 0.674987C51.89 0.650226 51.6457 0.638672 51.4014 0.638672C51.1555 0.638672 50.9112 0.650226 50.6669 0.674987C50.4226 0.698096 50.18 0.734411 49.9406 0.78228C49.6996 0.830149 49.4619 0.889573 49.2275 0.962202C48.9915 1.03318 48.762 1.11571 48.5342 1.2098C48.3081 1.30389 48.0869 1.40953 47.8707 1.52508C47.6544 1.64063 47.4448 1.76608 47.2401 1.90308C47.0371 2.04009 46.839 2.18534 46.6508 2.34216C46.461 2.49732 46.2794 2.66239 46.1061 2.83571C45.9328 3.01068 45.7677 3.19225 45.6126 3.38208C45.4574 3.5719 45.3105 3.76998 45.1751 3.97302C45.0381 4.1777 44.9127 4.38898 44.7971 4.60522C44.6816 4.82146 44.5776 5.0443 44.4835 5.27044C44.3894 5.49823 44.3069 5.72932 44.2359 5.96372C44.1649 6.19976 44.1055 6.43746 44.0576 6.67845C44.0098 6.91945 43.9751 7.1621 43.9503 7.4064C43.9272 7.6507 43.9157 7.89665 43.9157 8.14094V9.98309H26.9848C26.795 9.98309 26.6101 10.0194 26.4335 10.0937C26.2569 10.1663 26.1017 10.2703 25.9663 10.4057C25.831 10.541 25.727 10.6978 25.6527 10.8744C25.5801 11.0511 25.5438 11.2359 25.5438 11.4274V14.7106C25.5438 15.0143 25.5141 15.3131 25.4546 15.6102C25.3969 15.9073 25.3094 16.1962 25.1938 16.4752C25.0783 16.7541 24.9363 17.0199 24.768 17.2724C24.5996 17.5233 24.4098 17.7561 24.1952 17.9707C23.9822 18.1852 23.7495 18.3751 23.4986 18.5434C23.2477 18.7118 22.9819 18.8538 22.703 18.9693C22.424 19.0865 22.1351 19.174 21.8397 19.2318C21.5426 19.2912 21.2438 19.3209 20.9417 19.3209C20.6396 19.3209 20.3392 19.2912 20.0438 19.2318C19.7466 19.174 19.4594 19.0865 19.1805 18.9693C18.9015 18.8538 18.6357 18.7118 18.3848 18.5434C18.1339 18.3751 17.9012 18.1852 17.6866 17.9707C17.4737 17.7561 17.2822 17.5233 17.1155 17.2724C16.9471 17.0199 16.8051 16.7541 16.6896 16.4752C16.5741 16.1962 16.4866 15.9073 16.4271 15.6102C16.3694 15.3131 16.3397 15.0143 16.3397 14.7106V8.14094C16.3397 7.67216 16.409 7.21492 16.5493 6.76759C16.6896 6.32026 16.8926 5.90429 17.16 5.51804C17.4258 5.13343 17.7444 4.7967 18.1125 4.50783C18.4822 4.22061 18.8866 3.99447 19.3241 3.82941C19.7615 3.66434 20.2154 3.5686 20.6826 3.54219C21.1497 3.51578 21.6102 3.56035 22.0642 3.67424C22.5181 3.78814 22.944 3.96806 23.3434 4.21236C23.7429 4.45831 24.0961 4.75543 24.4048 5.10867C24.4659 5.18625 24.5336 5.25723 24.6078 5.31996C24.6821 5.38433 24.763 5.43881 24.8488 5.48667C24.9347 5.53289 25.0255 5.57086 25.1196 5.60057C25.2136 5.62863 25.3094 5.64844 25.4068 5.65669C25.5042 5.6666 25.6015 5.66495 25.6989 5.65339C25.7963 5.64349 25.8921 5.62203 25.9862 5.59232C26.0786 5.56261 26.1677 5.52299 26.2536 5.47347C26.3377 5.4256 26.4186 5.36783 26.4913 5.30345C26.5655 5.23908 26.6316 5.16645 26.691 5.08886C26.7504 5.00963 26.7999 4.9271 26.8428 4.83796C26.8841 4.74883 26.9171 4.65639 26.9402 4.5623C26.9633 4.46656 26.9765 4.36917 26.9815 4.27179C26.9848 4.17275 26.9782 4.07536 26.9617 3.97797C26.9452 3.88058 26.9188 3.78649 26.8841 3.6957C26.8478 3.60327 26.8032 3.51743 26.7504 3.4349C26.6976 3.35236 26.6365 3.27478 26.5672 3.20546C26.3179 2.91989 26.0489 2.65578 25.76 2.40984C25.4695 2.16554 25.1641 1.94435 24.8406 1.74627C24.5171 1.54819 24.182 1.37652 23.832 1.22961C23.4837 1.0827 23.1255 0.962202 22.7574 0.869765C22.391 0.777328 22.018 0.712952 21.6416 0.678288C21.2652 0.641973 20.8872 0.635371 20.5092 0.656829C20.1312 0.678288 19.7565 0.727808 19.3868 0.805389C19.0154 0.884621 18.6539 0.990264 18.299 1.12397C17.9441 1.25767 17.6024 1.41613 17.2723 1.60266C16.9405 1.78753 16.6269 1.99717 16.3281 2.22991C16.0293 2.46431 15.7504 2.71851 15.4896 2.99417C15.2304 3.26983 14.9927 3.56365 14.7765 3.87563C14.5619 4.1876 14.3704 4.51443 14.2054 4.85447C14.0386 5.19616 13.9 5.54775 13.7861 5.90925C13.6738 6.27074 13.5897 6.63884 13.5319 7.01519C13.4758 7.38989 13.446 7.76624 13.4477 8.1459V9.98804H7.67037C7.43432 9.98804 7.19993 9.99959 6.96553 10.0227C6.72949 10.0458 6.49675 10.0805 6.26565 10.1267C6.03456 10.1746 5.80512 10.2307 5.57898 10.3C5.35449 10.3693 5.13165 10.4486 4.91376 10.5394C4.69587 10.6301 4.48293 10.7308 4.27495 10.8431C4.06697 10.9537 3.86394 11.0758 3.66751 11.2062C3.47273 11.3383 3.2829 11.4786 3.09968 11.6288C2.9181 11.779 2.74313 11.9375 2.57642 12.1042C2.4097 12.2726 2.25124 12.4475 2.10102 12.6291C1.95081 12.8123 1.81051 13.0022 1.6801 13.1986C1.54805 13.395 1.42755 13.598 1.31531 13.806C1.20471 14.014 1.10402 14.2286 1.01324 14.4465C0.92245 14.6644 0.843218 14.8872 0.77389 15.1134C0.706213 15.3395 0.648439 15.5689 0.602221 15.8C0.556002 16.0311 0.521338 16.2655 0.498229 16.4999C0.47512 16.736 0.461914 16.972 0.461914 17.208V74.2963C0.461914 74.5323 0.47512 74.7684 0.498229 75.0028C0.521338 75.2388 0.556002 75.4716 0.602221 75.7043C0.648439 75.9354 0.706213 76.1648 0.77389 76.391C0.843218 76.6171 0.92245 76.84 1.01324 77.0579C1.10402 77.2757 1.20471 77.4887 1.31531 77.6983C1.42755 77.9063 1.54805 78.1093 1.6801 78.3058C1.81051 78.5022 1.95081 78.692 2.10102 78.8736C2.25124 79.0568 2.4097 79.2318 2.57642 79.3985C2.74313 79.5669 2.9181 79.7253 3.09968 79.8739C3.2829 80.0241 3.47273 80.1661 3.66751 80.2965C3.86394 80.4285 4.06697 80.549 4.27495 80.6613C4.48293 80.7735 4.69587 80.8742 4.91376 80.965C5.13165 81.0558 5.35449 81.135 5.57898 81.2043C5.80512 81.272 6.03456 81.3298 6.26565 81.376C6.49675 81.4222 6.72949 81.4569 6.96553 81.4816C7.19993 81.5047 7.43432 81.5163 7.67037 81.5163H57.4445C57.636 81.5163 57.8192 81.48 57.9958 81.4057C58.1725 81.3331 58.3293 81.2291 58.4646 81.0937C58.6 80.9584 58.704 80.8016 58.7766 80.6249C58.8509 80.4483 58.8872 80.2635 58.8872 80.072C58.8872 79.8805 58.8509 79.6973 58.7766 79.519C58.704 79.3424 58.6 79.1872 58.4646 79.0519C58.3293 78.9149 58.1725 78.8109 57.9958 78.7382C57.8192 78.664 57.636 78.6276 57.4445 78.6276H7.67037C7.38645 78.6276 7.10584 78.5996 6.82688 78.5451C6.54957 78.489 6.27886 78.4064 6.0164 78.2975C5.75395 78.1902 5.5047 78.0565 5.26865 77.898C5.03261 77.7396 4.81307 77.5597 4.61334 77.3599C4.41196 77.1585 4.23203 76.939 4.07522 76.703C3.91676 76.4653 3.78305 76.216 3.67576 75.9536C3.56682 75.6911 3.48428 75.4204 3.42816 75.1414C3.37369 74.8625 3.34563 74.5802 3.34563 74.2963V29.8637H68.9959V74.2963C68.9959 74.5802 68.9695 74.8625 68.9133 75.1414C68.8572 75.4204 68.7763 75.6911 68.6674 75.9536C68.5585 76.216 68.4248 76.4653 68.2679 76.703C68.1095 76.939 67.9312 77.1585 67.7298 77.3599C67.5284 77.5597 67.3106 77.7396 67.0745 77.898C66.8385 78.0565 66.5892 78.1902 66.3268 78.2975C66.0643 78.4064 65.7936 78.489 65.5146 78.5451C65.2357 78.5996 64.9551 78.6276 64.6711 78.6276C64.4797 78.6276 64.2964 78.664 64.1198 78.7382C63.9432 78.8109 63.7864 78.9149 63.651 79.0519C63.5157 79.1872 63.4117 79.3424 63.3391 79.519C63.2664 79.6973 63.2301 79.8805 63.2301 80.072C63.2301 80.2635 63.2664 80.4483 63.3391 80.6249C63.4117 80.8016 63.5157 80.9584 63.651 81.0937C63.7864 81.2291 63.9432 81.3331 64.1198 81.4057C64.2964 81.48 64.4797 81.5163 64.6711 81.5163C64.9072 81.5163 65.1432 81.5047 65.3776 81.4816C65.612 81.4569 65.8448 81.4222 66.0775 81.376C66.3086 81.3298 66.5364 81.272 66.7625 81.2043C66.9887 81.135 67.2099 81.0558 67.4277 80.965C67.6473 80.8742 67.8602 80.7735 68.0682 80.6613C68.2762 80.549 68.4776 80.4285 68.674 80.2965C68.8704 80.1661 69.0603 80.0241 69.2418 79.8739C69.4251 79.7253 69.6 79.5669 69.7667 79.3985C69.9335 79.2318 70.0919 79.0568 70.2405 78.8736C70.3907 78.692 70.531 78.5022 70.6631 78.3058C70.7935 78.1093 70.9156 77.9063 71.0262 77.6983C71.1384 77.4887 71.2391 77.2757 71.3283 77.0579C71.4191 76.84 71.4983 76.6171 71.5676 76.391C71.6369 76.1648 71.6947 75.9354 71.7409 75.7043C71.7872 75.4716 71.8218 75.2388 71.8449 75.0028C71.868 74.7684 71.8796 74.5323 71.8796 74.2963V17.2031C71.8796 16.967 71.868 16.731 71.8449 16.4966C71.8218 16.2606 71.7872 16.0278 71.7409 15.7951C71.6947 15.564 71.6369 15.3345 71.5676 15.1084C71.4983 14.8823 71.4191 14.6594 71.3283 14.4415C71.2391 14.2236 71.1384 14.0107 71.0262 13.8011C70.9156 13.5931 70.7935 13.3901 70.6631 13.1936C70.531 12.9972 70.3907 12.8074 70.2405 12.6258C70.0919 12.4426 69.9335 12.2676 69.7667 12.1009C69.6 11.9325 69.4251 11.7741 69.2418 11.6255C69.0603 11.4753 68.8704 11.3333 68.674 11.2029C68.4776 11.0709 68.2762 10.9504 68.0682 10.8381C67.8602 10.7259 67.6473 10.6252 67.4277 10.5344C67.2099 10.4436 66.9887 10.3644 66.7625 10.2951C66.5364 10.2274 66.3086 10.1696 66.0775 10.1234C65.8448 10.0772 65.612 10.0425 65.3776 10.0177C65.1432 9.99464 64.9072 9.98309 64.6711 9.98309ZM46.7928 8.14094C46.7928 7.83887 46.8225 7.53845 46.8803 7.24133C46.9397 6.94421 47.0272 6.65535 47.1427 6.37638C47.2566 6.09577 47.3986 5.83001 47.5669 5.57911C47.7353 5.32656 47.9251 5.09382 48.1397 4.87923C48.3527 4.66464 48.5854 4.47317 48.8363 4.3048C49.0889 4.13643 49.353 3.99447 49.6336 3.87893C49.9125 3.76338 50.1998 3.6759 50.4969 3.61647C50.794 3.55705 51.0928 3.52734 51.3948 3.52734C51.6969 3.52734 51.9973 3.55705 52.2928 3.61647C52.5899 3.6759 52.8788 3.76338 53.1577 3.87893C53.4367 3.99447 53.7025 4.13643 53.9534 4.3048C54.2043 4.47317 54.437 4.66464 54.6516 4.87923C54.8645 5.09382 55.056 5.32656 55.2227 5.57911C55.3911 5.83001 55.5331 6.09577 55.6486 6.37638C55.7641 6.65535 55.8516 6.94421 55.9094 7.24133C55.9688 7.53845 55.9969 7.83887 55.9969 8.14094V14.7106C55.9969 15.0143 55.9688 15.3147 55.9094 15.6119C55.8516 15.909 55.7641 16.1962 55.6486 16.4768C55.5331 16.7558 55.3911 17.0232 55.2227 17.2741C55.056 17.5266 54.8645 17.7594 54.6516 17.974C54.437 18.1885 54.2043 18.38 53.9534 18.5484C53.7025 18.7168 53.4367 18.8587 53.1577 18.9743C52.8788 19.0898 52.5899 19.1773 52.2928 19.2367C51.9973 19.2961 51.6969 19.3258 51.3948 19.3258C51.0928 19.3258 50.794 19.2961 50.4969 19.2367C50.1998 19.1773 49.9125 19.0898 49.6336 18.9743C49.353 18.8587 49.0889 18.7168 48.8363 18.5484C48.5854 18.38 48.3527 18.1885 48.1397 17.974C47.9251 17.7594 47.7353 17.5266 47.5669 17.2741C47.3986 17.0232 47.2566 16.7558 47.1427 16.4768C47.0272 16.1962 46.9397 15.909 46.8803 15.6119C46.8225 15.3147 46.7928 15.0143 46.7928 14.7106V8.14094ZM68.9959 26.975H3.34563V17.2031C3.34563 16.9192 3.37369 16.6369 3.42816 16.358C3.48428 16.079 3.56682 15.8083 3.67576 15.5458C3.78305 15.2834 3.91676 15.0341 4.07522 14.7964C4.23203 14.5604 4.41196 14.3408 4.61334 14.1395C4.81307 13.9397 5.03261 13.7598 5.26865 13.6013C5.5047 13.4429 5.75395 13.3092 6.0164 13.2019C6.27886 13.0929 6.54957 13.0104 6.82688 12.9543C7.10584 12.8998 7.38645 12.8717 7.67037 12.8717H13.456V14.7106C13.456 14.9565 13.4675 15.2025 13.4906 15.4468C13.5154 15.6911 13.5517 15.9337 13.5979 16.1747C13.6458 16.4157 13.7052 16.6534 13.7762 16.8895C13.8472 17.1239 13.9297 17.355 14.0238 17.5827C14.1179 17.8089 14.2219 18.0317 14.3374 18.248C14.453 18.4642 14.5801 18.6755 14.7154 18.8802C14.8524 19.0832 14.9977 19.2813 15.1528 19.4711C15.308 19.6609 15.4731 19.8425 15.6464 20.0158C15.8197 20.1908 16.0013 20.3559 16.1911 20.511C16.3809 20.6662 16.5774 20.8131 16.7804 20.9501C16.9851 21.0855 17.1947 21.2126 17.4109 21.3281C17.6272 21.4437 17.8484 21.5493 18.0762 21.6434C18.3023 21.7375 18.5334 21.82 18.7678 21.891C19.0022 21.962 19.2399 22.023 19.4809 22.0709C19.7202 22.1188 19.9629 22.1534 20.2072 22.1782C20.4515 22.203 20.6958 22.2145 20.9417 22.2145C21.186 22.2145 21.432 22.203 21.6763 22.1782C21.9189 22.1534 22.1616 22.1188 22.4026 22.0709C22.6436 22.023 22.8812 21.962 23.1156 21.891C23.35 21.82 23.5811 21.7375 23.8073 21.6434C24.0334 21.5493 24.2546 21.4437 24.4725 21.3281C24.6887 21.2126 24.8984 21.0855 25.1014 20.9501C25.3061 20.8131 25.5025 20.6662 25.6923 20.511C25.8822 20.3559 26.0637 20.1908 26.2371 20.0158C26.4104 19.8425 26.5738 19.6609 26.7306 19.4711C26.8858 19.2813 27.031 19.0832 27.168 18.8802C27.3034 18.6755 27.4288 18.4642 27.5444 18.248C27.6599 18.0317 27.7656 17.8089 27.8597 17.5827C27.9521 17.355 28.0346 17.1239 28.1056 16.8895C28.1766 16.6534 28.236 16.4157 28.2839 16.1747C28.3317 15.9337 28.3681 15.6911 28.3912 15.4468C28.4159 15.2025 28.4275 14.9565 28.4275 14.7106V12.8717H43.9157V14.7106C43.9157 14.9565 43.9272 15.2025 43.9503 15.4468C43.9751 15.6911 44.0098 15.9337 44.0576 16.1747C44.1055 16.4157 44.1649 16.6534 44.2359 16.8895C44.3069 17.1239 44.3894 17.355 44.4835 17.5827C44.5776 17.8089 44.6816 18.0317 44.7971 18.248C44.9127 18.4642 45.0381 18.6755 45.1751 18.8802C45.3105 19.0832 45.4574 19.2813 45.6126 19.4711C45.7677 19.6609 45.9328 19.8425 46.1061 20.0158C46.2794 20.1908 46.461 20.3559 46.6508 20.511C46.839 20.6662 47.0371 20.8131 47.2401 20.9501C47.4448 21.0855 47.6544 21.2126 47.8707 21.3281C48.0869 21.4437 48.3081 21.5493 48.5342 21.6434C48.762 21.7375 48.9915 21.82 49.2275 21.891C49.4619 21.962 49.6996 22.023 49.9406 22.0709C50.18 22.1188 50.4226 22.1534 50.6669 22.1782C50.9112 22.203 51.1555 22.2145 51.4014 22.2145C51.6457 22.2145 51.89 22.203 52.1343 22.1782C52.3786 22.1534 52.6213 22.1188 52.8623 22.0709C53.1016 22.023 53.3393 21.962 53.5754 21.891C53.8098 21.82 54.0409 21.7375 54.267 21.6434C54.4931 21.5493 54.7143 21.4437 54.9306 21.3281C55.1468 21.2126 55.3581 21.0855 55.5611 20.9501C55.7658 20.8131 55.9622 20.6662 56.1521 20.511C56.3419 20.3559 56.5218 20.1908 56.6951 20.0158C56.8701 19.8425 57.0335 19.6609 57.1887 19.4711C57.3455 19.2813 57.4907 19.0832 57.6261 18.8802C57.7631 18.6755 57.8886 18.4642 58.0041 18.248C58.1196 18.0317 58.2253 17.8089 58.3177 17.5827C58.4118 17.355 58.4944 17.1239 58.5653 16.8895C58.6363 16.6534 58.6957 16.4157 58.7436 16.1747C58.7915 15.9337 58.8278 15.6911 58.8509 15.4468C58.8757 15.2025 58.8872 14.9565 58.8872 14.7106V12.8717H64.6711C64.9551 12.8717 65.2357 12.8998 65.5146 12.9543C65.7936 13.0104 66.0643 13.0929 66.3268 13.2019C66.5892 13.3092 66.8385 13.4429 67.0745 13.6013C67.3106 13.7598 67.5284 13.9397 67.7298 14.1395C67.9312 14.3408 68.1095 14.5604 68.2679 14.7964C68.4248 15.0341 68.5585 15.2834 68.6674 15.5458C68.7763 15.8083 68.8572 16.079 68.9133 16.358C68.9695 16.6369 68.9959 16.9192 68.9959 17.2031V26.975Z" fill="#A3CB03"/>
</g>
</svg>
