<svg width="64" height="64" viewBox="0 0 64 64" fill="none" xmlns="http://www.w3.org/2000/svg">
<path d="M32.1004 41.0498C31.1504 41.0498 30.5004 41.7498 30.4004 42.7498C30.4004 43.7498 31.4004 44.5998 32.5004 44.2998C33.0504 44.1498 33.5004 43.6998 33.6504 43.1498C33.9504 42.0498 33.1504 41.0498 32.1004 41.0498Z" fill="#A3CB03"/>
<path d="M60.55 1H3.45C1.55 1 0 2.55 0 4.45V45.25C0 47.2 1.55 48.7 3.45 48.7H21.7V54.8H20.7C18.55 54.8 16.75 56.65 16.75 58.9V60.8C16.9 62.1 17.85 63.1 19.05 63.1H45.9C47.15 63.1 48.15 62.05 48.15 60.7V59C48.15 56.75 46.4 54.9 44.3 54.9H43.2V48.75H60.5C62.45 48.75 63.95 47.2 63.95 45.2V4.45C64 2.55 62.5 1 60.55 1ZM3.45 3H60.5C61.35 3 61.95 3.65 61.95 4.45V36.6H2V4.45C2 3.7 2.7 3 3.45 3ZM46.15 59V60.8C46.15 61 46.05 61.2 45.9 61.2H19.1C19 61.2 18.8 61 18.8 60.75V59C18.8 57.85 19.65 56.9 20.75 56.9H44.35C45.3 56.9 46.15 57.85 46.15 59ZM41.2 54.9H23.7V48.75H41.2V54.9ZM60.55 46.75H3.45C2.6 46.75 2 46.1 2 45.3V38.65H62V45.25C62 46.1 61.4 46.75 60.55 46.75Z" fill="#A3CB03"/>
<path d="M5.34983 34.4498C5.44983 34.8998 5.84983 35.2498 6.34983 35.2498H6.54984C7.09984 35.1498 7.44984 34.5998 7.29984 34.0498L6.44983 30.0498C6.34983 29.6998 6.44983 29.3998 6.59983 28.8998L8.44983 23.5998C8.74984 22.6998 9.29984 22.0498 9.99984 21.7498C10.4498 21.5498 10.9498 21.5998 11.3498 21.7998L12.8998 22.6498C14.4998 23.4998 16.2498 23.4998 17.7998 22.6498L19.3498 21.7998C19.9498 21.4498 20.6998 21.4498 21.2498 21.6998C21.8998 21.9998 22.3998 22.7498 22.6498 23.8498L23.8998 29.3498C24.0498 30.2998 24.6498 31.0998 25.5498 31.4998C26.3998 31.8998 27.3498 31.8998 28.2498 31.3498L33.4998 28.1998C33.6035 28.1425 33.734 28.0285 33.7998 27.9498L37.6498 22.6998C37.9998 22.2498 37.8998 21.6498 37.4498 21.2998C36.9998 20.9498 36.3998 21.0498 36.0498 21.4998L32.2998 26.5998L27.2498 29.6498C26.7998 29.9498 25.9998 29.6498 25.8498 28.9998L24.5998 23.4498C24.0998 21.2998 22.9998 20.3498 22.0998 19.9498C20.9998 19.4498 19.5998 19.4998 18.3998 20.0998L16.8498 20.9498C15.8998 21.4998 14.8998 21.4498 13.8998 20.9498L12.3498 20.0998C11.3998 19.5998 10.2998 19.5498 9.29984 19.9498C8.09984 20.4498 7.09983 21.5498 6.59983 22.9998L4.69983 28.2498V28.2998C4.49983 28.8998 4.29983 29.6498 4.49983 30.4998L5.34983 34.4498Z" fill="#A3CB03"/>
<path d="M12.75 27.1C12.7 26.55 12.2 26.15 11.65 26.2C11.1 26.25 10.7 26.75 10.75 27.3L11.3 32.65C11.35 33.15 11.8 33.55 12.3 33.55H12.4C12.95 33.5 13.35 33 13.3 32.45L12.75 27.1ZM19.25 26.3C18.7 26.25 18.25 26.7 18.2 27.25L17.9 32.45C17.85 33 18.3 33.45 18.85 33.5H18.9C19.4 33.5 19.85 33.1 19.9 32.55L20.2 27.35C20.2 26.8 19.8 26.3 19.25 26.3ZM33.3 12.35H54.7C55.25 12.35 55.7 11.9 55.7 11.35C55.7 10.8 55.25 10.35 54.7 10.35H33.3C32.75 10.35 32.3 10.8 32.3 11.35C32.3 11.9 32.75 12.35 33.3 12.35ZM33.3 19.45H46.5C47.05 19.45 47.5 19 47.5 18.45C47.5 17.9 47.05 17.45 46.5 17.45H33.3C32.75 17.45 32.3 17.9 32.3 18.45C32.3 19 32.75 19.45 33.3 19.45ZM15.6 18.7C18.8 18.7 21.45 16.1 21.45 12.85C21.45 9.65 18.85 7 15.6 7C12.4 7 9.75 9.6 9.75 12.85C9.75 16.1 12.35 18.7 15.6 18.7ZM15.6 9.05C17.7 9.05 19.45 10.75 19.45 12.9C19.45 15.05 17.75 16.75 15.6 16.75C13.45 16.75 11.75 15.05 11.75 12.9C11.75 10.75 13.45 9.05 15.6 9.05Z" fill="#A3CB03"/>
</svg>
