<svg preserveAspectRatio="none" width="100%" height="100%" overflow="visible" style="display: block;" viewBox="0 0 114.866 158.168" fill="none" xmlns="http://www.w3.org/2000/svg">
<g id="Group">
<path id="Vector" fill-rule="evenodd" clip-rule="evenodd" d="M35.6047 69.2219C31.7913 67.1419 27.3832 66.5165 22.4347 67.9643C7.12686 72.4438 0.934331 84.4311 0.0982475 98.6411C-1.12189 119.39 9.25097 144.925 18.5227 157.616C18.9611 158.217 19.8041 158.346 20.4022 157.908C21.0038 157.469 21.1362 156.627 20.6978 156.025C11.698 143.708 1.60393 118.935 2.78668 98.7975C3.55479 85.7499 9.13209 74.6632 23.1926 70.5508C27.3764 69.3239 31.0946 69.8642 34.3233 71.6146C33.212 73.7422 32.1753 75.8732 31.2169 78.0042C28.5727 83.8873 24.62 100.222 26.0951 112.233C27.1555 120.848 30.9994 127.235 39.401 127.01C44.0708 126.884 47.4491 123.975 49.5155 119.346C52.3602 112.984 52.6797 103.236 50.6778 93.8965C49.0125 86.1203 45.7498 78.6397 41.1208 73.6198C40.1012 72.5187 39.0203 71.5296 37.8749 70.6799C53.8488 41.4646 83.5231 14.1457 113.996 2.6241C114.689 2.359 115.043 1.58414 114.778 0.887408C114.516 0.190672 113.738 -0.159415 113.044 0.102286C82.0751 11.8142 51.9083 39.5308 35.6047 69.2219ZM36.5868 73.0964C35.5468 75.0983 34.5748 77.1035 33.6741 79.1087C31.1421 84.7472 27.3559 100.395 28.7697 111.903C29.6364 118.965 32.4439 124.502 39.3296 124.318C42.9459 124.22 45.454 121.831 47.0582 118.248C48.8188 114.306 49.4917 108.966 49.2096 103.274C48.7814 94.6307 46.1407 85.1755 41.5456 78.4834C40.091 76.3626 38.4357 74.5239 36.5868 73.0964Z" fill="var(--fill-0, #FD6085)"/>
<path id="Vector_2" fill-rule="evenodd" clip-rule="evenodd" d="M89.93 46.7044C92.6422 30.8664 102.995 14.002 114.153 2.324C114.666 1.787 114.645 0.933889 114.108 0.420684C113.571 -0.092522 112.718 -0.0754887 112.205 0.461508C100.697 12.5031 90.0727 29.9215 87.2756 46.2489C87.1498 46.9797 87.6427 47.6764 88.3768 47.8022C89.1076 47.9279 89.8042 47.4351 89.93 46.7044Z" fill="var(--fill-0, #FD6085)"/>
<path id="Vector_3" fill-rule="evenodd" clip-rule="evenodd" d="M112.032 0.178731C100.415 6.81302 82.5954 7.7307 69.6055 4.36937C68.885 4.18244 68.1474 4.61411 67.9639 5.33463C67.777 6.05516 68.2086 6.78923 68.9291 6.97616C82.5375 10.4972 101.196 9.46745 113.367 2.51709C114.013 2.15003 114.237 1.32409 113.87 0.678331C113.5 0.0325762 112.677 -0.191729 112.032 0.178731Z" fill="var(--fill-0, #FD6085)"/>
</g>
</svg>
