<svg preserveAspectRatio="none" width="100%" height="100%" overflow="visible" style="display: block;" viewBox="0 0 114.866 158.17" fill="none" xmlns="http://www.w3.org/2000/svg">
<g id="Group">
<path id="Vector" fill-rule="evenodd" clip-rule="evenodd" d="M35.6047 69.2242C31.7913 67.1442 27.3832 66.5188 22.4347 67.9666C7.12686 72.4461 0.934331 84.4334 0.0982475 98.6434C-1.12189 119.393 9.25097 144.927 18.5227 157.618C18.9611 158.219 19.8041 158.349 20.4022 157.91C21.0038 157.472 21.1362 156.629 20.6978 156.027C11.698 143.71 1.60393 118.937 2.78668 98.7998C3.55479 85.7522 9.13209 74.6655 23.1926 70.5531C27.3764 69.3262 31.0946 69.8665 34.3233 71.6168C33.212 73.7444 32.1753 75.8754 31.2169 78.0064C28.5727 83.8896 24.62 100.224 26.0951 112.235C27.1555 120.851 30.9994 127.237 39.401 127.013C44.0708 126.887 47.4491 123.977 49.5155 119.348C52.3602 112.986 52.6797 103.238 50.6778 93.8988C49.0125 86.1226 45.7498 78.642 41.1208 73.6221C40.1012 72.5209 39.0203 71.5319 37.8749 70.6822C53.8488 41.4669 83.5231 14.148 113.996 2.62639C114.689 2.36129 115.043 1.58643 114.778 0.889691C114.516 0.192955 113.738 -0.157132 113.044 0.104569C82.0751 11.8165 51.9083 39.5331 35.6047 69.2242ZM36.5868 73.0987C35.5468 75.1006 34.5748 77.1058 33.6741 79.111C31.1421 84.7495 27.3559 100.397 28.7697 111.905C29.6364 118.968 32.4439 124.504 39.3296 124.321C42.9459 124.222 45.454 121.833 47.0582 118.251C48.8188 114.308 49.4917 108.969 49.2096 103.276C48.7814 94.633 46.1407 85.1778 41.5456 78.4857C40.091 76.3649 38.4357 74.5262 36.5868 73.0987Z" fill="var(--fill-0, #FD6085)"/>
<path id="Vector_2" fill-rule="evenodd" clip-rule="evenodd" d="M89.9296 46.7062C92.6418 30.8682 102.994 14.0037 114.152 2.32577C114.665 1.78877 114.645 0.935662 114.108 0.422457C113.571 -0.0907487 112.718 -0.0737153 112.205 0.463281C100.697 12.5049 90.0723 29.9233 87.2752 46.2507C87.1494 46.9814 87.6423 47.6782 88.3764 47.804C89.1072 47.9297 89.8038 47.4369 89.9296 46.7062Z" fill="var(--fill-0, #FD6085)"/>
<path id="Vector_3" fill-rule="evenodd" clip-rule="evenodd" d="M112.034 0.178688C100.417 6.81297 82.5978 7.73065 69.608 4.36933C68.8874 4.1824 68.1499 4.61406 67.9664 5.33459C67.7794 6.05512 68.211 6.78918 68.9315 6.97611C82.54 10.4972 101.199 9.46741 113.37 2.51705C114.015 2.14998 114.24 1.32404 113.873 0.678289C113.502 0.0325336 112.68 -0.191771 112.034 0.178688Z" fill="var(--fill-0, #FD6085)"/>
</g>
</svg>
