<svg preserveAspectRatio="none" width="100%" height="100%" overflow="visible" style="display: block;" viewBox="0 0 238.58 238.58" fill="none" xmlns="http://www.w3.org/2000/svg">
<g id="Group 36">
<path id="Vector" d="M119.28 238.58C91.6822 238.578 64.9388 229.006 43.6066 211.497C22.2745 193.987 7.67331 169.623 2.29089 142.555C-3.09154 115.487 1.07783 87.3904 14.0886 63.0519C27.0994 38.7134 48.1466 19.639 73.6441 9.07869C99.1416 -1.48159 127.512 -2.87441 153.921 5.13754C180.331 13.1495 203.145 30.0705 218.477 53.0175C233.809 75.9645 240.711 103.518 238.006 130.983C235.301 158.448 223.156 184.125 203.642 203.64C192.59 214.755 179.443 223.566 164.962 229.564C150.481 235.561 134.954 238.626 119.28 238.58Z" fill="var(--fill-0, #E5FF7D)"/>
<path id="Vector_2" d="M233.985 119.29C233.993 144.973 225.384 169.917 209.537 190.129C193.69 210.341 171.521 224.654 146.578 230.776C146.291 230.845 146.762 228.259 146.475 228.328C146.187 228.396 145.245 231.086 145.003 231.143C121.453 236.551 96.7967 234.383 74.5508 224.951C52.3049 215.518 33.6056 199.302 21.1197 178.614C8.63374 157.927 2.9989 133.826 5.01881 109.747C7.03871 85.6688 16.6102 62.8429 32.3682 44.5251C32.5636 44.2838 35.2186 46.6744 35.4139 46.4445C35.6093 46.2147 33.1153 43.5942 33.2647 43.4792C43.4635 31.886 55.9032 22.4768 69.8345 15.8183C83.7659 9.15978 98.9007 5.38967 114.328 4.73499C114.603 4.73499 113.902 6.27509 114.19 6.2636C114.477 6.2521 115.764 4.67751 116.063 4.66602C117.143 4.66602 118.224 4.66602 119.316 4.66602C149.293 4.66748 178.079 16.4035 199.513 37.3622C220.946 58.3209 233.324 86.837 233.997 116.807C233.997 117.037 232.503 117.6 232.503 117.819C232.503 118.037 234.02 117.968 234.02 118.209L233.985 119.29Z" fill="var(--fill-0, #95ADF0)"/>
<path id="Vector_3" d="M40.1553 103.658C38.6045 101.119 36.4329 99.0164 33.845 97.5486C31.2572 96.0807 28.3383 95.2958 25.3633 95.2676H25.1909C21.3039 95.2598 17.5243 96.5417 14.444 98.9125C11.3638 101.283 9.15716 104.609 8.1698 108.368C7.18244 112.128 7.47019 116.109 8.98796 119.687C10.5057 123.265 13.1677 126.239 16.5569 128.142C19.946 130.045 23.8708 130.77 27.7162 130.204C31.5616 129.637 35.1104 127.811 37.8064 125.011C40.5024 122.211 42.1934 118.595 42.6143 114.731C43.0352 110.867 42.1623 106.973 40.1323 103.658H40.1553ZM25.2139 129.001C23.0532 129.058 20.9029 128.683 18.8899 127.895C16.8768 127.108 15.0418 125.926 13.4932 124.418C11.9446 122.91 10.7138 121.107 9.8734 119.116C9.03297 117.125 8.59996 114.985 8.59996 112.824C8.59996 110.662 9.03297 108.523 9.8734 106.531C10.7138 104.54 11.9446 102.737 13.4932 101.229C15.0418 99.7216 16.8768 98.5392 18.8899 97.7521C20.9029 96.9651 23.0532 96.5892 25.2139 96.6468H25.9724C30.1758 96.8696 34.1269 98.7215 36.9874 101.809C39.8479 104.897 41.3928 108.978 41.2941 113.186C41.1954 117.394 39.4609 121.398 36.4588 124.349C33.4566 127.299 29.4231 128.964 25.2139 128.989V129.001Z" fill="var(--fill-0, #412945)"/>
<path id="Vector_4" d="M196.225 147.276C192.941 147.285 189.732 148.267 187.004 150.097C184.277 151.927 182.152 154.525 180.899 157.561C179.645 160.597 179.319 163.937 179.962 167.158C180.604 170.38 182.186 173.339 184.508 175.662C186.83 177.986 189.788 179.57 193.009 180.214C196.23 180.859 199.569 180.535 202.607 179.284C205.644 178.032 208.243 175.91 210.075 173.183C211.907 170.457 212.891 167.249 212.902 163.964C212.919 161.769 212.499 159.592 211.667 157.561C210.835 155.529 209.608 153.683 208.056 152.13C206.504 150.577 204.659 149.349 202.628 148.515C200.597 147.682 198.421 147.26 196.225 147.276ZM196.225 179.147C193.206 179.149 190.253 178.255 187.742 176.577C185.231 174.9 183.274 172.514 182.12 169.724C180.966 166.933 180.666 163.863 181.259 160.901C181.852 157.94 183.31 155.222 185.45 153.09C187.589 150.959 190.313 149.511 193.277 148.929C196.24 148.347 199.31 148.659 202.096 149.823C204.882 150.988 207.26 152.953 208.928 155.471C210.596 157.988 211.479 160.944 211.466 163.964C211.473 165.965 211.084 167.947 210.32 169.797C209.556 171.646 208.433 173.325 207.016 174.737C205.598 176.15 203.914 177.266 202.062 178.023C200.21 178.78 198.226 179.162 196.225 179.147Z" fill="var(--fill-0, #412945)"/>
<path id="Vector_5" d="M233.984 118.118C231.227 118.714 228.415 119.022 225.594 119.037C225.058 119.037 224.517 119.037 223.973 119.037C220.871 118.902 217.809 118.29 214.894 117.221C211.301 115.948 208.047 113.873 205.377 111.153C199.573 105.073 197.837 96.9126 197.125 88.396C196.895 85.6261 196.768 82.8217 196.642 80.0403C196.573 78.4427 196.493 76.7876 196.401 75.1901C196.044 68.9721 194.872 60.1797 189.033 55.1916C188.959 55.1129 188.878 55.0399 188.792 54.9732C185.022 51.87 180.184 50.9045 175.172 50.7666C172.713 50.7666 170.219 50.8356 167.771 51.0195L165.162 51.2263C163.691 51.3413 162.219 51.4562 160.748 51.5482C148.967 52.2722 136.853 51.893 126.004 46.9508C122.787 45.4867 119.808 43.5497 117.165 41.2041C115.524 39.744 114.072 38.0837 112.844 36.2619C111.625 34.4166 110.673 32.4084 110.016 30.2969C108.824 26.1976 108.525 21.8905 109.137 17.6657C109.75 13.4409 111.261 9.39634 113.568 5.80443C113.798 5.43664 114.039 5.06885 114.292 4.65509L116.027 4.58613C115.568 5.20678 115.142 5.83891 114.74 6.47105C112.509 9.92175 111.055 13.8159 110.477 17.8841C109.9 21.9522 110.213 26.0973 111.396 30.0325C112.019 31.9436 112.892 33.7638 113.993 35.4459C115.383 37.5011 117.067 39.3406 118.993 40.9053C121.307 42.7909 123.857 44.3672 126.578 45.5946C137.118 50.4333 148.99 50.8126 160.553 50.1115C162.058 50.0195 163.564 49.9046 165.047 49.7897L167.564 49.5828C171.076 49.2515 174.61 49.2246 178.126 49.5023C182.305 49.7694 186.309 51.2826 189.62 53.8468L189.999 54.1686C196.136 59.5131 197.355 68.6044 197.734 75.0407C197.826 76.6382 197.906 78.3048 197.975 79.9138C198.102 82.7297 198.228 85.5571 198.47 88.35C199.171 96.5678 200.849 104.441 206.331 110.13C208.745 112.6 211.678 114.504 214.917 115.704C217.821 116.821 220.888 117.458 223.996 117.589C227.328 117.724 230.663 117.419 233.915 116.681C233.973 117.187 233.984 117.647 233.984 118.118Z" fill="var(--fill-0, #412945)"/>
<path id="Vector_6" d="M146.577 230.731L145.003 231.099C148.381 221.421 149.723 211.149 148.945 200.929C148.853 199.871 148.727 198.825 148.577 197.791C148.577 197.308 148.439 196.825 148.359 196.354C148.129 194.952 147.853 193.561 147.508 192.205C147.417 191.791 147.302 191.377 147.198 190.964C147.095 190.55 146.934 190.021 146.784 189.55C146.577 188.86 146.359 188.182 146.129 187.504C144.447 182.639 142.062 178.047 139.049 173.873C134.296 167.149 127.799 161.848 120.258 158.541C112.293 155.196 103.098 154.173 92.3862 155.484C90.0875 155.759 87.7888 156.127 85.3867 156.633C84.2373 156.863 83.088 157.116 81.9386 157.403C81.3525 157.541 80.7893 157.679 80.1457 157.84C79.1917 158.07 78.2263 158.334 77.2723 158.587C75.9046 158.943 74.5139 159.311 73.1117 159.644C70.3985 160.341 67.6295 160.798 64.8365 161.012C60.9886 161.335 57.1217 160.679 53.596 159.104C52.2186 158.469 50.9409 157.636 49.8031 156.633C41.5624 149.289 44.2058 136.232 45.7229 130.957C47.2481 126.006 49.0281 121.138 51.0559 116.372C52.3087 113.268 53.5844 110.131 54.6993 106.958C56.998 100.603 58.5841 94.0859 58.3082 87.4197C58.004 81.7188 56.5125 76.1443 53.9292 71.0531C51.9651 67.114 49.6208 63.3762 46.9298 59.893C44.6096 56.8534 42.1312 53.9377 39.505 51.1581C37.3216 48.754 34.9419 46.5358 32.3906 44.5264C32.678 44.1701 32.9882 43.8253 33.2871 43.4805C35.8735 45.5114 38.2877 47.7525 40.505 50.1811C43.3736 53.2349 46.06 56.4547 48.5503 59.8241C51.3394 63.5143 53.7354 67.4857 55.6992 71.6738C58.0124 76.5862 59.3401 81.9045 59.607 87.3278C59.607 87.5347 59.607 87.7415 59.607 87.9484C59.5838 94.4148 58.3924 100.824 56.09 106.867C54.9407 110.246 53.573 113.579 52.2397 116.866C50.2347 121.589 48.47 126.411 46.9527 131.313C45.5046 136.336 42.9645 148.76 50.6191 155.576C51.6522 156.503 52.8135 157.277 54.0672 157.874C57.3861 159.347 61.0236 159.955 64.6411 159.644C67.4 159.436 70.1348 158.982 72.8129 158.288C74.1576 157.966 75.4909 157.61 76.8126 157.265L79.6974 156.507L81.5364 156.07C82.7394 155.786 83.9347 155.522 85.1223 155.277C87.5359 154.794 89.8806 154.411 92.1563 154.127C103.109 152.783 112.534 153.84 120.74 157.288C127.925 160.419 134.192 165.332 138.946 171.563C142.646 176.292 145.522 181.611 147.451 187.297C147.681 187.975 147.899 188.642 148.106 189.332C148.244 189.803 148.371 190.263 148.497 190.734C148.623 191.205 148.704 191.504 148.796 191.883C149.125 193.255 149.413 194.645 149.658 196.055C149.738 196.527 149.807 197.009 149.876 197.492C150.026 198.549 150.163 199.63 150.255 200.71C151.068 210.863 149.816 221.075 146.577 230.731Z" fill="var(--fill-0, #412945)"/>
<path id="Vector_7" d="M184.323 195.26L93.3762 209.811L72.2169 112.83L67.5391 36.6399L157.647 23.1466C159.167 22.922 160.715 23.3068 161.952 24.2173C163.19 25.1278 164.018 26.4904 164.256 28.0083L189.197 188.629C189.313 189.384 189.278 190.155 189.096 190.897C188.914 191.64 188.587 192.339 188.135 192.955C187.682 193.57 187.113 194.091 186.459 194.487C185.805 194.882 185.079 195.145 184.323 195.26Z" fill="var(--fill-0, #412945)"/>
<path id="Vector_8" d="M93.3708 209.811L86.1185 210.961C85.3534 211.092 84.5695 211.068 83.8141 210.889C83.0587 210.709 82.3475 210.378 81.7235 209.917C81.0994 209.455 80.5754 208.871 80.183 208.201C79.7907 207.531 79.5383 206.789 79.4409 206.018L57.2815 43.9615C57.1695 43.21 57.2076 42.4439 57.3936 41.7072C57.5797 40.9706 57.9099 40.2782 58.3652 39.6701C58.8206 39.0619 59.392 38.55 60.0464 38.1641C60.7008 37.7782 61.4252 37.5259 62.1777 37.4217L67.5337 36.6172L93.3708 209.811Z" fill="var(--fill-0, #6E72FF)"/>
<path id="Vector_9" d="M77.9688 46.4219L97.634 195.215L179.272 182.228L158.491 35.6641L77.9688 46.4219Z" fill="var(--fill-0, #F7EDE5)"/>
<path id="Vector_10" d="M70.5444 72.6835L69.0042 61.4429L68.7399 59.5006L67.9928 54.0297C67.9467 53.6732 67.8292 53.3295 67.6474 53.0193C67.4657 52.7091 67.2233 52.4387 66.9348 52.2242C66.6463 52.0097 66.3175 51.8555 65.9681 51.7707C65.6187 51.686 65.2558 51.6725 64.9011 51.731C64.22 51.8417 63.6089 52.2131 63.197 52.7666C62.7851 53.3201 62.6048 54.0122 62.6944 54.6963L63.3035 59.5695L65.062 73.3616C65.1531 73.9984 65.4704 74.581 65.9558 75.0031C66.4412 75.4252 67.0622 75.6585 67.7055 75.6603H68.0158C68.7046 75.6264 69.3543 75.3303 69.8318 74.8327L69.9467 74.7063C70.1758 74.4258 70.3466 74.1024 70.4492 73.7551C70.5519 73.4078 70.5842 73.0435 70.5444 72.6835ZM68.8319 73.8328C68.722 73.9623 68.5868 74.0678 68.4346 74.1429C68.2824 74.218 68.1164 74.2612 67.9468 74.2696H67.7629C67.4587 74.2811 67.161 74.1793 66.9275 73.984C66.6939 73.7887 66.5411 73.5137 66.4987 73.2122L64.7747 59.5465L64.131 54.5124C64.131 54.5124 64.131 54.409 64.131 54.363C64.1411 54.0823 64.2488 53.814 64.4355 53.6042C64.6223 53.3944 64.8764 53.2563 65.154 53.2137C65.2224 53.2023 65.2923 53.2023 65.3608 53.2137C65.6459 53.2274 65.9172 53.3407 66.1272 53.534C66.3373 53.7272 66.4728 53.9881 66.5102 54.2711L67.2343 59.581L69.0502 72.9478C69.0935 73.2599 69.0153 73.5767 68.8319 73.8328Z" fill="var(--fill-0, #412945)"/>
<path id="Vector_11" d="M73.2708 98.8312L72.2479 91.3145L71.3859 85.0391L70.7307 80.143C70.6529 79.6129 70.4211 79.1173 70.0641 78.7178C69.944 78.5807 69.8091 78.4574 69.6619 78.35C69.2072 78.011 68.6544 77.8294 68.0873 77.8328C67.9381 77.8214 67.7882 77.8214 67.639 77.8328C66.955 77.9434 66.3409 78.3161 65.9268 78.8717C65.5127 79.4274 65.3313 80.1224 65.4208 80.8096L65.6392 82.5221L66.5932 90.0273L67.7425 99.4863C67.8339 100.125 68.1528 100.709 68.6406 101.132C69.1283 101.554 69.7522 101.786 70.3975 101.785H70.7078C70.9546 101.775 71.1985 101.728 71.4318 101.647C71.8828 101.486 72.2806 101.204 72.5812 100.831C72.827 100.563 73.0152 100.247 73.1338 99.9028C73.2524 99.5588 73.2991 99.194 73.2708 98.8312ZM71.5583 99.9805L71.3859 100.153C71.1854 100.312 70.9403 100.404 70.6848 100.417H70.5009C70.1942 100.426 69.895 100.322 69.6598 100.125C69.4247 99.9283 69.27 99.6519 69.2251 99.3484L68.0873 90.4065L67.1908 83.2577L66.8575 80.6372C66.8146 80.3236 66.8966 80.0058 67.0857 79.7521C67.2749 79.4985 67.5562 79.3293 67.8689 79.2809C68.0289 79.2501 68.1936 79.2536 68.3521 79.2912C68.5106 79.3289 68.6593 79.3998 68.7884 79.4993C68.9197 79.5957 69.0303 79.7177 69.1132 79.8579C69.1962 79.9982 69.2499 80.1538 69.2711 80.3153L69.8343 84.407L70.7307 90.9927L70.8802 92.0731L71.8226 98.9691C71.8499 99.1467 71.8384 99.328 71.7887 99.5006C71.7391 99.6733 71.6527 99.8331 71.5353 99.9691L71.5583 99.9805Z" fill="var(--fill-0, #412945)"/>
<path id="Vector_12" d="M156.455 192.697C156.252 191.69 155.685 190.793 154.862 190.178C154.04 189.563 153.019 189.273 151.995 189.364L149.214 189.674L147.835 189.835L138.824 190.824L136.629 191.065C135.633 191.174 134.71 191.643 134.035 192.384C133.36 193.124 132.979 194.086 132.962 195.088V195.823C132.956 195.834 132.953 195.846 132.953 195.858C132.953 195.87 132.956 195.882 132.962 195.892C132.958 196.481 133.082 197.064 133.326 197.6C133.571 198.136 133.929 198.612 134.376 198.996C135.055 199.597 135.918 199.949 136.824 199.995C137.122 200.03 137.423 200.03 137.721 199.995L149.145 198.191L150.513 197.973L153.099 197.57C153.65 197.489 154.178 197.297 154.653 197.005C155.128 196.714 155.539 196.33 155.861 195.876C156.183 195.421 156.41 194.907 156.528 194.362C156.646 193.818 156.652 193.255 156.547 192.709L156.455 192.697ZM154.593 194.996C154.392 195.298 154.132 195.556 153.827 195.754C153.523 195.952 153.181 196.085 152.823 196.145L150.317 196.536L148.95 196.754L137.456 198.57C137.073 198.632 136.68 198.608 136.307 198.501C135.933 198.394 135.588 198.206 135.296 197.95C135.002 197.694 134.768 197.378 134.609 197.022C134.45 196.667 134.371 196.281 134.376 195.892V195.157C134.391 194.508 134.64 193.887 135.078 193.407C135.515 192.928 136.111 192.622 136.755 192.548L137.686 192.456L148.111 191.306L149.49 191.157L152.133 190.858C152.798 190.789 153.464 190.971 154 191.369C154.536 191.767 154.904 192.352 155.03 193.007C155.094 193.351 155.088 193.704 155.013 194.046C154.938 194.388 154.795 194.711 154.593 194.996Z" fill="var(--fill-0, #E5FF7D)"/>
<path id="Vector_13" d="M119.472 30.9746C118.801 30.9724 118.144 31.1696 117.584 31.5412C117.025 31.9129 116.589 32.4424 116.331 33.0624C116.073 33.6824 116.004 34.365 116.135 35.0238C116.265 35.6826 116.589 36.2878 117.063 36.7626C117.538 37.2375 118.143 37.5607 118.802 37.6911C119.461 37.8216 120.144 37.7535 120.764 37.4954C121.384 37.2374 121.913 36.801 122.285 36.2417C122.656 35.6824 122.854 35.0253 122.851 34.3537C122.848 33.4584 122.491 32.6007 121.858 31.9677C121.225 31.3347 120.368 30.9777 119.472 30.9746ZM119.472 36.2961C119.088 36.2984 118.711 36.1864 118.39 35.9743C118.069 35.7623 117.818 35.4597 117.67 35.105C117.521 34.7503 117.481 34.3594 117.554 33.9818C117.628 33.6043 117.812 33.2571 118.083 32.9843C118.355 32.7115 118.701 32.5254 119.078 32.4495C119.455 32.3736 119.846 32.4114 120.202 32.5581C120.557 32.7048 120.861 32.9537 121.075 33.2734C121.289 33.593 121.403 33.969 121.403 34.3537C121.403 34.8669 121.2 35.3592 120.838 35.7231C120.477 36.0871 119.986 36.293 119.472 36.2961Z" fill="var(--fill-0, #E5FF7D)"/>
<path id="Vector_14" d="M102.297 58.9372L40.164 59.9486C33.4863 60.0521 28.3488 65.8677 28.6706 72.9132L29.728 95.061C30.0728 102.244 35.9574 107.888 42.7385 107.543L64.5759 106.393L80.6667 118.933L77.8048 105.658L103.539 105.773C110.159 105.773 115.388 100.199 115.273 93.2105L114.894 71.7983C114.802 64.6609 109.09 58.8223 102.297 58.9372Z" fill="var(--fill-0, #E5FF7D)"/>
<path id="Vector_15" d="M88.9033 89.3733L82.0072 84.8564C81.5138 84.5299 80.9135 84.4062 80.3312 84.5111C79.7489 84.616 79.2295 84.9414 78.8811 85.4196C78.6031 85.7871 78.3893 86.199 78.2489 86.6379C78.134 87.0402 78.019 87.385 77.9156 87.6838C77.7532 88.1368 77.4274 88.5128 77.0022 88.7382C76.577 88.9635 76.083 89.022 75.6169 88.9021C74.0078 88.4653 71.4103 87.2125 68.3416 83.7071C64.7441 79.6039 63.3765 77.7075 63.0202 76.5122C62.9306 76.2103 62.9284 75.8892 63.0139 75.5861C63.0993 75.2831 63.2689 75.0104 63.5029 74.7997C64.117 74.2569 64.6859 73.6649 65.2039 73.0297C65.5605 72.5885 65.7413 72.031 65.7116 71.4645C65.6819 70.898 65.4437 70.3625 65.043 69.961L58.6297 63.4097C58.2242 62.9865 57.6724 62.7341 57.087 62.7042C56.5017 62.6743 55.927 62.8691 55.4805 63.2488C53.9624 64.4964 52.8362 66.1552 52.2368 68.0266C51.6375 69.8979 51.5905 71.9024 52.1015 73.7998C53.9749 82.1555 71.0655 93.8787 76.6513 96.9475C77.8154 97.6041 79.1074 98.0017 80.4392 98.1132C81.7709 98.2247 83.1111 98.0474 84.3681 97.5935C85.6251 97.1396 86.7693 96.4197 87.7226 95.4831C88.6759 94.5464 89.4157 93.415 89.8917 92.1662C90.0827 91.6589 90.0883 91.1003 89.9075 90.5893C89.7266 90.0782 89.3709 89.6475 88.9033 89.3733Z" fill="var(--fill-0, #5459BF)"/>
<path id="Vector_16" d="M142.018 87.4646L204.163 88.476C210.829 88.5794 215.978 94.3951 215.656 101.441L214.599 123.588C214.254 130.772 208.369 136.415 201.588 136.07L179.751 134.921L163.66 147.46L166.533 134.185L140.8 134.3C134.179 134.3 128.938 128.726 129.065 121.738L129.444 100.326C129.513 93.1883 135.237 87.3496 142.018 87.4646Z" fill="var(--fill-0, #FFA8ED)"/>
<path id="Vector_17" d="M151.218 95.5452L194.319 96.2348C194.645 96.2405 194.957 96.3712 195.19 96.6C195.423 96.8287 195.56 97.1382 195.571 97.4646L196.491 125.221C196.497 125.394 196.468 125.566 196.405 125.727C196.342 125.888 196.247 126.035 196.125 126.158C196.004 126.28 195.858 126.377 195.697 126.441C195.537 126.506 195.365 126.536 195.192 126.531L148.264 125.382C148.088 125.38 147.914 125.341 147.754 125.267C147.593 125.194 147.45 125.088 147.333 124.956C147.216 124.824 147.128 124.669 147.075 124.501C147.022 124.333 147.004 124.155 147.023 123.98L149.931 96.6256C149.978 96.3201 150.135 96.0422 150.372 95.8435C150.608 95.6448 150.909 95.5388 151.218 95.5452Z" fill="var(--fill-0, #F7EDE5)"/>
<path id="Vector_18" d="M197.032 126.541L181.091 109.301L195.664 96.9111C195.801 96.7951 195.887 96.6296 195.902 96.4507C195.917 96.2719 195.86 96.0945 195.745 95.9572C195.626 95.8245 195.46 95.7433 195.282 95.7304C195.104 95.7176 194.928 95.7741 194.791 95.8882L172.011 115.278L150.495 95.325C150.434 95.2618 150.361 95.2114 150.28 95.1771C150.199 95.1427 150.112 95.125 150.024 95.125C149.936 95.125 149.849 95.1427 149.768 95.1771C149.687 95.2114 149.614 95.2618 149.553 95.325C149.427 95.452 149.357 95.6234 149.357 95.802C149.357 95.9806 149.427 96.152 149.553 96.279L163.621 109.324L146.668 124.587C146.545 124.716 146.477 124.886 146.477 125.064C146.477 125.242 146.545 125.413 146.668 125.541C146.801 125.678 146.983 125.756 147.174 125.76C147.339 125.756 147.497 125.695 147.622 125.587L164.632 110.278L171.528 116.668C171.655 116.78 171.819 116.842 171.988 116.841C172.149 116.843 172.304 116.786 172.425 116.68L180.056 110.186L196.032 127.426C196.094 127.496 196.171 127.551 196.256 127.589C196.341 127.626 196.433 127.645 196.527 127.644C196.696 127.645 196.859 127.584 196.986 127.472C197.111 127.352 197.186 127.189 197.195 127.016C197.203 126.843 197.145 126.673 197.032 126.541Z" fill="var(--fill-0, #412945)"/>
<path id="Vector_19" d="M126.235 150.633L64.1014 151.644C57.4353 151.747 52.2862 157.563 52.608 164.609L53.6654 186.756C54.0102 193.94 59.8949 199.583 66.676 199.238L88.5134 198.089L104.604 210.628L101.731 197.353L127.464 197.468C134.085 197.468 139.314 191.894 139.199 184.906L138.82 163.494C138.74 156.356 133.027 150.518 126.235 150.633Z" fill="var(--fill-0, #3FDAC4)"/>
<path id="Vector_20" d="M81.4191 174.526C81.4303 175.128 81.2628 175.72 80.9375 176.227C80.6123 176.734 80.1441 177.133 79.5921 177.374C79.04 177.615 78.4289 177.687 77.836 177.581C77.2431 177.474 76.6951 177.195 76.2612 176.777C75.8273 176.359 75.5271 175.822 75.3984 175.233C75.2698 174.645 75.3185 174.032 75.5384 173.471C75.7583 172.91 76.1395 172.427 76.6339 172.083C77.1283 171.739 77.7137 171.549 78.3159 171.538C78.7159 171.53 79.1134 171.601 79.4859 171.747C79.8583 171.893 80.1984 172.111 80.4866 172.389C80.7747 172.666 81.0054 172.998 81.1654 173.365C81.3254 173.731 81.4116 174.126 81.4191 174.526Z" fill="var(--fill-0, #E5FF7D)"/>
<path id="Vector_21" d="M100.169 174.147C100.182 174.75 100.017 175.343 99.693 175.852C99.3692 176.36 98.9018 176.761 98.35 177.004C97.7982 177.246 97.1867 177.32 96.5931 177.215C95.9995 177.11 95.4505 176.831 95.0154 176.414C94.5804 175.996 94.279 175.459 94.1494 174.871C94.0197 174.282 94.0678 173.668 94.2873 173.107C94.5068 172.545 94.888 172.061 95.3826 171.717C95.8772 171.372 96.4629 171.182 97.0656 171.17C97.8715 171.155 98.6506 171.46 99.2323 172.018C99.814 172.576 100.151 173.341 100.169 174.147Z" fill="var(--fill-0, #E5FF7D)"/>
<path id="Vector_22" d="M118.903 173.768C118.917 174.371 118.751 174.964 118.427 175.473C118.104 175.981 117.636 176.382 117.084 176.625C116.533 176.867 115.921 176.941 115.328 176.836C114.734 176.731 114.185 176.452 113.75 176.035C113.315 175.617 113.013 175.08 112.884 174.492C112.754 173.903 112.802 173.289 113.022 172.728C113.241 172.166 113.622 171.683 114.117 171.338C114.612 170.993 115.197 170.803 115.8 170.792C116.606 170.776 117.385 171.081 117.967 171.639C118.548 172.197 118.885 172.963 118.903 173.768Z" fill="var(--fill-0, #E5FF7D)"/>
<path id="Vector_23" d="M196.31 52.5941L189.23 54.41L187.414 61.49C187.343 61.7697 187.181 62.0176 186.953 62.1948C186.725 62.3719 186.444 62.468 186.156 62.468C185.867 62.468 185.587 62.3719 185.359 62.1948C185.131 62.0176 184.969 61.7697 184.897 61.49L183.081 54.41L176.001 52.5941C175.722 52.5228 175.474 52.3604 175.297 52.1325C175.12 51.9046 175.023 51.6242 175.023 51.3356C175.023 51.0469 175.12 50.7665 175.297 50.5386C175.474 50.3107 175.722 50.1483 176.001 50.077L183.081 48.2611L184.897 41.1811C184.969 40.9015 185.131 40.6535 185.359 40.4764C185.587 40.2993 185.867 40.2031 186.156 40.2031C186.444 40.2031 186.725 40.2993 186.953 40.4764C187.181 40.6535 187.343 40.9015 187.414 41.1811L189.23 48.2611L196.31 50.077C196.59 50.1483 196.838 50.3107 197.015 50.5386C197.192 50.7665 197.288 51.0469 197.288 51.3356C197.288 51.6242 197.192 51.9046 197.015 52.1325C196.838 52.3604 196.59 52.5228 196.31 52.5941Z" fill="var(--fill-0, #E5FF7D)"/>
<path id="Vector_24" d="M183.197 199.111L176.129 200.927L174.313 208.007C174.242 208.287 174.079 208.535 173.851 208.712C173.623 208.889 173.343 208.985 173.054 208.985C172.766 208.985 172.485 208.889 172.257 208.712C172.029 208.535 171.867 208.287 171.796 208.007L169.98 200.927L162.9 199.111C162.62 199.04 162.372 198.878 162.195 198.65C162.018 198.422 161.922 198.142 161.922 197.853C161.922 197.564 162.018 197.284 162.195 197.056C162.372 196.828 162.62 196.666 162.9 196.594L169.98 194.778L171.796 187.699C171.867 187.419 172.029 187.171 172.257 186.994C172.485 186.817 172.766 186.721 173.054 186.721C173.343 186.721 173.623 186.817 173.851 186.994C174.079 187.171 174.242 187.419 174.313 187.699L176.129 194.778L183.209 196.594C183.488 196.667 183.735 196.831 183.911 197.059C184.087 197.288 184.182 197.569 184.181 197.857C184.18 198.146 184.082 198.426 183.904 198.653C183.726 198.88 183.477 199.041 183.197 199.111Z" fill="var(--fill-0, #E5FF7D)"/>
<path id="Vector_25" d="M46.8259 168.182L39.746 169.998L37.93 177.078C37.8588 177.358 37.6963 177.606 37.4684 177.783C37.2405 177.96 36.9601 178.056 36.6715 178.056C36.3828 178.056 36.1025 177.96 35.8746 177.783C35.6467 177.606 35.4843 177.358 35.413 177.078L33.6085 169.998L26.5171 168.182C26.2374 168.111 25.9894 167.948 25.8123 167.72C25.6352 167.492 25.5391 167.212 25.5391 166.923C25.5391 166.635 25.6352 166.354 25.8123 166.127C25.9894 165.899 26.2374 165.736 26.5171 165.665L33.6085 163.849L35.413 156.769C35.4843 156.489 35.6467 156.241 35.8746 156.064C36.1025 155.887 36.3828 155.791 36.6715 155.791C36.9601 155.791 37.2405 155.887 37.4684 156.064C37.6963 156.241 37.8588 156.489 37.93 156.769L39.746 163.849L46.8259 165.665C47.1056 165.736 47.3536 165.899 47.5307 166.127C47.7078 166.354 47.8039 166.635 47.8039 166.923C47.8039 167.212 47.7078 167.492 47.5307 167.72C47.3536 167.948 47.1056 168.111 46.8259 168.182Z" fill="var(--fill-0, #E5FF7D)"/>
</g>
</svg>
