<svg preserveAspectRatio="none" width="100%" height="100%" overflow="visible" style="display: block;" viewBox="0 0 144.562 129.455" fill="none" xmlns="http://www.w3.org/2000/svg">
<g id="Frame 70">
<path id="Rectangle 2622" d="M15.1052 36.2048C15.1052 16.2099 31.3143 0.000764185 51.3092 0.000764185L108.355 0.000764185C128.35 0.000764185 144.559 16.2098 144.559 36.2048V93.2507C144.559 113.246 128.35 129.455 108.355 129.455H22.6908C18.5014 129.455 15.1052 126.059 15.1052 121.869L15.1052 36.2048Z" fill="var(--fill-0, #FFD23F)"/>
<path id="Rectangle 2625" d="M24.0698 49.073C24.0698 31.8712 38.0146 17.9264 55.2164 17.9264L104.294 17.9264C121.495 17.9264 135.44 31.8712 135.44 49.073V98.1502C135.44 115.352 121.495 129.297 104.294 129.297H30.5957C26.9915 129.297 24.0698 126.375 24.0698 122.771L24.0698 49.073Z" fill="var(--fill-0, #FFC70F)"/>
<path id="Rectangle 2624" d="M38.897 70.4346C38.897 57.8129 49.129 47.5809 61.7507 47.5809H97.7609C110.383 47.5809 120.615 57.8128 120.615 70.4346V106.445C120.615 119.067 110.383 129.298 97.7609 129.298H43.6854C41.0409 129.298 38.897 127.155 38.897 124.51L38.897 70.4346Z" fill="var(--fill-0, #F4BD08)"/>
<g id="Frame 62">
<circle id="Ellipse 8" cx="44.5227" cy="24.839" r="4.5898" fill="var(--fill-0, black)"/>
<path id="Vector 4" d="M65.2294 29.4288C62.8291 26.9379 58.8985 22.164 54.2845 29.4288" stroke="var(--stroke-0, black)" stroke-width="2.11837" stroke-linecap="round"/>
<circle id="Ellipse 9" cx="74.991" cy="24.8389" r="4.5898" fill="var(--fill-0, black)"/>
</g>
<g id="Group 1707478263">
<path id="Vector 9" d="M38.6321 98.4988C31.6548 108.521 14.9981 124.112 4.1896 106.301C-6.61888 88.4896 11.1573 63.5913 22.0038 53.4425" stroke="var(--stroke-0, black)" stroke-width="1.65573" stroke-linecap="round"/>
<rect id="Rectangle 2623" x="19.5967" y="40.7194" width="30.827" height="44.5917" rx="6.46987" transform="rotate(-9.72308 19.5967 40.7194)" fill="var(--fill-0, #E5FF7D)"/>
<path id="Vector 10" d="M23.3763 57.2333C28.5141 53.5543 39.0441 48.4506 40.7187 59.1068C41.2511 62.4949 41.0795 65.2802 40.5059 67.5362C38.8243 74.1512 32.0367 78.4053 28.5101 84.249C25.7025 88.9013 23.212 93.7203 23.212 96.023" stroke="var(--stroke-0, black)" stroke-width="1.65573" stroke-linecap="round"/>
<path id="Vector 11" d="M39.7721 56.8266C37.8692 57.1437 33.6067 58.2728 31.7799 60.2518" stroke="var(--stroke-0, black)" stroke-width="1.14174" stroke-linecap="round"/>
<path id="Vector 12" d="M40.5386 62.1554C38.6357 62.4726 34.3732 63.6017 32.5464 65.5807" stroke="var(--stroke-0, black)" stroke-width="1.14174" stroke-linecap="round"/>
</g>
</g>
</svg>
