<svg preserveAspectRatio="none" width="100%" height="100%" overflow="visible" style="display: block;" viewBox="0 0 159.549 124.353" fill="none" xmlns="http://www.w3.org/2000/svg">
<g id="Frame 64">
<path id="Rectangle 2622" d="M0.000775475 34.7791C0.000775475 15.5724 15.5709 0.00231497 34.7775 0.00231497L89.5746 0.00231497C108.781 0.00231497 124.351 15.5724 124.351 34.7791V89.5762C124.351 108.783 108.781 124.353 89.5747 124.353H7.28734C3.26308 124.353 0.000775475 121.091 0.000775475 117.066L0.000775475 34.7791Z" fill="var(--fill-0, #38AB9B)"/>
<path id="Rectangle 2623" d="M8.61188 47.1417C8.61188 30.618 22.007 17.2229 38.5306 17.2229L85.673 17.2229C102.197 17.2229 115.592 30.618 115.592 47.1416V94.2841C115.592 110.808 102.197 124.203 85.6731 124.203H14.8806C11.4185 124.203 8.61188 121.396 8.61188 117.934L8.61188 47.1417Z" fill="var(--fill-0, #37BBA9)"/>
<path id="Rectangle 2624" d="M22.8575 67.658C22.8575 55.5338 32.6861 45.7052 44.8103 45.7052H79.4009C91.525 45.7052 101.354 55.5338 101.354 67.658V102.249C101.354 114.373 91.5251 124.201 79.4009 124.201H27.4572C24.9169 124.201 22.8575 122.142 22.8575 119.602L22.8575 67.658Z" fill="var(--fill-0, #3CC9B6)"/>
<g id="Frame 64_2">
<circle id="Ellipse 8" cx="4.5898" cy="4.5898" r="4.5898" transform="matrix(-0.99908 0.0428882 0.0428882 0.99908 85.2199 20.9878)" fill="var(--fill-0, black)"/>
<path id="Vector 4" d="M60.3403 31.2438C62.6316 28.6522 66.3538 23.7142 71.2752 30.7744" stroke="var(--stroke-0, black)" stroke-width="2.11837" stroke-linecap="round"/>
<circle id="Ellipse 9" cx="4.5898" cy="4.5898" r="4.5898" transform="matrix(-0.99908 0.0428882 0.0428882 0.99908 54.7796 22.2944)" fill="var(--fill-0, black)"/>
</g>
</g>
</svg>
