<svg preserveAspectRatio="none" width="100%" height="100%" overflow="visible" style="display: block;" viewBox="0 0 162.747 133.571" fill="none" xmlns="http://www.w3.org/2000/svg">
<g id="Frame 79">
<path id="Rectangle 2622" d="M29.1755 37.3554C29.1755 16.7246 45.9001 0 66.5309 0H125.391C146.022 0 162.747 16.7246 162.747 37.3554V96.2156C162.747 116.846 146.022 133.571 125.391 133.571H37.0024C32.6797 133.571 29.1755 130.067 29.1755 125.744V37.3554Z" fill="var(--fill-0, #F097DD)"/>
<path id="Rectangle 2623" d="M38.4235 50.6387C38.4235 32.8898 52.8118 18.5015 70.5606 18.5015H121.199C138.947 18.5015 153.336 32.8898 153.336 50.6387V101.277C153.336 119.025 138.947 133.414 121.199 133.414H45.157C41.4382 133.414 38.4235 130.399 38.4235 126.68V50.6387Z" fill="var(--fill-0, #FB79DF)"/>
<path id="Rectangle 2624" d="M53.7206 72.6773C53.7206 59.6541 64.278 49.0968 77.3011 49.0968H114.457C127.48 49.0968 138.037 59.6541 138.037 72.6773V109.833C138.037 122.856 127.48 133.413 114.457 133.413H58.6613C55.9326 133.413 53.7206 131.201 53.7206 128.473V72.6773Z" fill="var(--fill-0, #FF62DD)"/>
<g id="Frame 62">
<circle id="Ellipse 8" cx="4.5898" cy="4.5898" r="4.5898" transform="matrix(-0.99946 -0.0328663 -0.0328663 0.99946 115.885 25.5026)" fill="var(--fill-0, black)"/>
<path id="Vector 4" d="M90.0295 33.9137C92.5104 31.503 96.5957 26.8609 100.968 34.2734" stroke="var(--stroke-0, black)" stroke-width="2.11837" stroke-linecap="round"/>
<circle id="Ellipse 9" cx="4.5898" cy="4.5898" r="4.5898" transform="matrix(-0.99946 -0.0328663 -0.0328663 0.99946 86.305 21.6305)" fill="var(--fill-0, black)"/>
</g>
<g id="Group 1707478263">
<path id="Vector 9" d="M39.8286 95.167C32.7084 105.088 15.8298 120.439 5.27781 102.474C-5.27418 84.5099 12.8572 59.8691 23.8481 49.8769" stroke="var(--stroke-0, black)" stroke-width="1.65573" stroke-linecap="round"/>
<rect id="Rectangle 2623_2" x="21.6237" y="37.1206" width="30.827" height="44.5917" rx="6.46987" transform="rotate(-8.90151 21.6237 37.1206)" fill="var(--fill-0, #FFC70F)"/>
<path id="Vector 10" d="M25.1661 53.6869C30.3562 50.082 40.9582 45.1298 42.4798 55.8089C42.9636 59.2042 42.7521 61.9868 42.1463 64.2343C40.3699 70.8246 33.5221 74.9809 29.912 80.7735C27.038 85.385 24.4786 90.1678 24.4456 92.4703" stroke="var(--stroke-0, black)" stroke-width="1.65573" stroke-linecap="round"/>
<path id="Vector 11" d="M41.5661 53.5153C39.6588 53.8051 35.3806 54.873 33.5256 56.8256" stroke="var(--stroke-0, black)" stroke-width="1.14174" stroke-linecap="round"/>
<path id="Vector 12" d="M42.2561 58.8547C40.3488 59.1445 36.0705 60.2123 34.2156 62.1649" stroke="var(--stroke-0, black)" stroke-width="1.14174" stroke-linecap="round"/>
</g>
</g>
</svg>
