<svg preserveAspectRatio="none" width="100%" height="100%" overflow="visible" style="display: block;" viewBox="0 0 148.344 121.782" fill="none" xmlns="http://www.w3.org/2000/svg">
<g id="Frame 75">
<path id="Rectangle 2622" d="M26.5625 34.0588C26.5625 15.249 41.8109 0.000594757 60.6207 0.000594757H114.285C133.095 0.000594757 148.344 15.2489 148.344 34.0587V87.7235C148.344 106.533 133.095 121.782 114.285 121.782H33.6985C29.7574 121.782 26.5625 118.587 26.5625 114.646V34.0588Z" fill="var(--fill-0, #E5FF7D)"/>
<path id="Rectangle 2623" d="M34.9936 46.1681C34.9936 29.9859 48.1119 16.8676 64.2941 16.8676H110.462C126.645 16.8676 139.763 29.9859 139.763 46.1681V92.3363C139.763 108.519 126.645 121.637 110.462 121.637H41.1327C37.7422 121.637 34.9936 118.888 34.9936 115.498V46.1681Z" fill="var(--fill-0, #DAFA5C)"/>
<path id="Rectangle 2624" d="M48.9399 66.2609C48.9399 54.3872 58.5654 44.7617 70.439 44.7617H104.315C116.188 44.7617 125.814 54.3872 125.814 66.2609V100.137C125.814 112.01 116.188 121.636 104.315 121.636H53.4445C50.9567 121.636 48.9399 119.619 48.9399 117.131V66.2609Z" fill="var(--fill-0, #CEF143)"/>
<g id="Frame 62">
<circle id="Ellipse 8" cx="4.5898" cy="4.5898" r="4.5898" transform="matrix(-0.971363 0.2376 0.2376 0.971363 105.195 15.9833)" fill="var(--fill-0, black)"/>
<path id="Vector 4" d="M82.8041 30.9104C84.5438 27.9205 87.2276 22.3495 93.4356 28.3099" stroke="var(--stroke-0, black)" stroke-width="2.11837" stroke-linecap="round"/>
<circle id="Ellipse 9" cx="4.5898" cy="4.5898" r="4.5898" transform="matrix(-0.971363 0.2376 0.2376 0.971363 75.5993 23.2225)" fill="var(--fill-0, black)"/>
</g>
</g>
</svg>
