<svg preserveAspectRatio="none" width="100%" height="100%" overflow="visible" style="display: block;" viewBox="0 0 47.0006 51" fill="none" xmlns="http://www.w3.org/2000/svg">
<g id="Highlight_05">
<path id="Vector" fill-rule="evenodd" clip-rule="evenodd" d="M15.7256 47.592C11.2377 46.3447 6.53913 45.7155 1.98119 45.139C0.999481 45.0182 0.0880296 45.6925 0.0179074 46.6426C-0.122337 47.5934 0.579296 48.4629 1.49088 48.5838C5.90858 49.1387 10.4661 49.7325 14.7436 50.9333C15.6552 51.1937 16.6373 50.6576 16.9178 49.7353C17.1983 48.8136 16.6371 47.8531 15.7256 47.592Z" fill="var(--fill-0, #0F2436)"/>
<path id="Vector_2" fill-rule="evenodd" clip-rule="evenodd" d="M29.3286 29.9098C22.106 22.6099 13.9718 16.2496 6.88947 8.75377C6.25837 8.0537 5.13641 8.0162 4.43519 8.66973C3.73397 9.32395 3.66412 10.424 4.36534 11.1241C11.4477 18.6414 19.5819 25.0226 26.8044 32.3441C27.5057 33.0275 28.6273 33.0372 29.3286 32.3649C29.9597 31.6933 30.0298 30.5932 29.3286 29.9098Z" fill="var(--fill-0, #0F2436)"/>
<path id="Vector_3" fill-rule="evenodd" clip-rule="evenodd" d="M42.8638 1.83055C43.0742 6.0087 43.2841 10.1868 43.4945 14.3657C43.4945 15.3227 44.3364 16.0617 45.3181 16.0151C46.2998 15.9679 47.0006 15.1533 47.0006 14.1955C46.7902 10.0104 46.5803 5.82604 46.3699 1.64164C46.2998 0.684615 45.4582 -0.0494788 44.4765 0.00260914C43.5649 0.0546971 42.7937 0.874217 42.8638 1.83055Z" fill="var(--fill-0, #0F2436)"/>
</g>
</svg>
