<svg preserveAspectRatio="none" width="100%" height="100%" overflow="visible" style="display: block;" viewBox="0 0 23.9334 23.9076" fill="none" xmlns="http://www.w3.org/2000/svg">
<g id="Group">
<path id="Vector" d="M20.129 5.47085C20.1926 5.47085 20.2571 5.45464 20.3162 5.42054L22.6498 4.07329C22.8291 3.9697 22.8906 3.74036 22.787 3.56101C22.6835 3.38166 22.4541 3.32023 22.2748 3.42377L19.9412 4.77102C19.7618 4.87461 19.7004 5.10395 19.8039 5.2833C19.8734 5.4036 19.9994 5.47085 20.129 5.47085Z" fill="var(--fill-0, white)"/>
<path id="Vector_2" d="M18.0168 3.34009C18.0493 3.34879 18.082 3.35296 18.1141 3.35296C18.2797 3.35296 18.4312 3.24245 18.4761 3.07491L19.1735 0.472113C19.2271 0.27207 19.1084 0.0664423 18.9083 0.0128382C18.7084 -0.0406744 18.5027 0.077978 18.449 0.278021L17.7516 2.88082C17.698 3.08086 17.8168 3.28649 18.0168 3.34009Z" fill="var(--fill-0, white)"/>
<path id="Vector_3" d="M23.6553 8.23487L21.0525 7.53742C20.8525 7.48391 20.6469 7.60256 20.5932 7.8026C20.5396 8.00265 20.6584 8.20827 20.8584 8.26188L23.4612 8.95933C23.4937 8.96802 23.5264 8.97219 23.5585 8.97219C23.7241 8.97219 23.8756 8.86168 23.9205 8.69414C23.9741 8.4941 23.8554 8.28847 23.6553 8.23487Z" fill="var(--fill-0, white)"/>
<path id="Vector_4" d="M23.2052 16.4848C23.0728 16.3177 23.0048 16.1084 23.0138 15.8955L23.0372 15.3367C23.0693 14.572 22.5768 13.8946 21.8395 13.6892L21.3016 13.5394C21.0956 13.482 20.9171 13.3523 20.7991 13.1742L20.4915 12.7101C20.2325 12.3193 19.8336 12.071 19.3986 11.9981L18.624 10.6563C18.8471 10.287 19.0199 9.88444 19.1347 9.45609C19.4553 8.25963 19.2908 7.00989 18.6714 5.93717C18.0521 4.8644 17.052 4.09705 15.8555 3.77648C15.427 3.66166 14.9918 3.60938 14.5602 3.61766L12.9669 0.857961C12.5393 0.117391 11.589 -0.1374 10.8484 0.290335L10.1695 0.682272C9.64929 0.982633 9.36931 1.54101 9.39673 2.10342C9.36847 2.15875 9.35364 2.2215 9.35592 2.28692C9.40817 3.78394 9.12996 5.02361 8.50541 6.07674C7.96502 6.98792 7.1598 7.76058 6.04381 8.43867L2.05912 10.7392C1.37101 11.1365 1.10282 11.985 1.41119 12.6973L1.38728 12.7111C0.0618266 13.4764 -0.393923 15.1773 0.371321 16.5027C0.884863 17.3922 1.81975 17.89 2.77982 17.89C3.25036 17.89 3.72698 17.7704 4.16295 17.5187L4.18718 17.5047C4.48607 17.9073 4.95402 18.1303 5.43377 18.1303C5.69669 18.1303 5.963 18.0635 6.20659 17.9228L6.22125 17.9143L8.43442 21.7476C8.64153 22.1064 8.97595 22.363 9.3761 22.4702C9.5097 22.506 9.64529 22.5237 9.78001 22.5237C10.0487 22.5237 10.3139 22.4532 10.5529 22.3153L10.8923 22.1193C11.2511 21.9122 11.5077 21.5778 11.6149 21.1776C11.7221 20.7775 11.6671 20.3596 11.46 20.0009L9.24681 16.1675L10.1912 15.6223C10.9106 15.2284 11.6667 14.979 12.4483 14.8748C12.4121 15.0227 12.3958 15.1777 12.4025 15.3367L12.4259 15.8955C12.4349 16.1084 12.3669 16.3178 12.2345 16.4848L11.8868 16.9235C11.4118 17.5228 11.4118 18.36 11.8868 18.9593L12.2345 19.398C12.3669 19.5651 12.4349 19.7744 12.4259 19.9874L12.4025 20.5461C12.3704 21.3108 12.8629 21.9882 13.6002 22.1935L14.1382 22.3435C14.3441 22.4008 14.5225 22.5305 14.6406 22.7087L14.9482 23.1728C15.3718 23.8118 16.1692 24.0707 16.8875 23.8027L17.4089 23.608C17.6095 23.5331 17.8303 23.5331 18.0308 23.608L18.5522 23.8026C18.7419 23.8735 18.9371 23.9076 19.1295 23.9076C19.6656 23.9076 20.1798 23.6431 20.4915 23.1728L20.7991 22.7087C20.9172 22.5305 21.0956 22.4008 21.3016 22.3435L21.8395 22.1936C22.5768 21.9882 23.0693 21.3108 23.0372 20.5461L23.0138 19.9874C23.0048 19.7744 23.0728 19.5651 23.2052 19.398L23.5529 18.9593C24.0279 18.36 24.0279 17.5228 23.5529 16.9235L23.2052 16.4848ZM10.8905 20.9835C10.8351 21.1902 10.7026 21.3628 10.5173 21.4698L10.1779 21.6658C9.99264 21.7727 9.77688 21.8012 9.5702 21.7458C9.36358 21.6904 9.19089 21.5579 9.08394 21.3726L6.87079 17.5393L8.59729 16.5425L10.8105 20.3759C10.9174 20.5611 10.9458 20.7769 10.8905 20.9835ZM15.6614 4.50089C16.6644 4.76964 17.5027 5.41289 18.0219 6.31217C18.5411 7.2114 18.679 8.25899 18.4102 9.262C18.3518 9.48017 18.275 9.69021 18.1822 9.89109L15.0026 4.38387C15.223 4.40389 15.4433 4.44243 15.6614 4.50089ZM10.5445 1.33175L11.2234 0.939855C11.3492 0.867208 11.4867 0.832693 11.6225 0.832693C11.8994 0.832693 12.1692 0.976339 12.3174 1.23296L18.5753 12.0721C18.5676 12.0748 18.5599 12.0773 18.5522 12.0801L18.0307 12.2749C17.8303 12.3498 17.6094 12.3497 17.4089 12.2748L16.8875 12.0802C16.5294 11.9464 16.1516 11.9438 15.8103 12.054L13.1618 7.46672L10.2514 2.42571C10.0307 2.04329 10.1621 1.55256 10.5445 1.33175ZM9.15049 6.4593C9.6512 5.61504 9.95357 4.67191 10.0642 3.60143L15.1687 12.4427C15.0875 12.5225 15.0134 12.6118 14.9482 12.7101L14.6406 13.1742C14.5226 13.3523 14.3441 13.482 14.1382 13.5394L13.6002 13.6892C13.3326 13.7637 13.0975 13.9007 12.9078 14.0812C11.9507 14.1308 11.0314 14.3702 10.1536 14.7986L6.73971 8.88553C7.80636 8.18757 8.59764 7.39153 9.15049 6.4593ZM1.02084 16.1277C0.46237 15.1604 0.794981 13.9191 1.76228 13.3606L1.77696 13.3522L3.80262 16.8607L3.78795 16.8692C2.82065 17.4277 1.57934 17.095 1.02084 16.1277ZM4.73763 16.9802L2.14099 12.4827C1.92021 12.1003 2.0517 11.6095 2.43412 11.3887L6.0977 9.27355L9.49516 15.1581L5.83159 17.2733C5.44918 17.4941 4.95843 17.3626 4.73763 16.9802ZM22.9651 18.4935L22.6174 18.9322C22.3733 19.2402 22.248 19.6261 22.2644 20.0188L22.2879 20.5776C22.3053 20.9923 22.0382 21.3597 21.6382 21.4711L21.1003 21.6209C20.7207 21.7266 20.3917 21.9658 20.1739 22.2943L19.8664 22.7584C19.6366 23.105 19.2041 23.2454 18.8145 23.1L18.2931 22.9053C18.1082 22.8363 17.9141 22.8018 17.7199 22.8018C17.5257 22.8018 17.3315 22.8363 17.1466 22.9053L16.6252 23.1C16.2356 23.2457 15.8031 23.105 15.5734 22.7584L15.2658 22.2943C15.048 21.9658 14.719 21.7266 14.3394 21.621L13.8014 21.4711C13.4015 21.3597 13.1344 20.9923 13.1519 20.5776L13.1753 20.0188C13.1917 19.6261 13.0664 19.2402 12.8223 18.9322L12.4746 18.4935C12.217 18.1684 12.217 17.7144 12.4746 17.3894L12.8223 16.9506C13.0664 16.6427 13.1917 16.2567 13.1753 15.864L13.1519 15.3052C13.1344 14.8905 13.4015 14.5231 13.8014 14.4117L14.3394 14.2619C14.7191 14.1561 15.0481 13.917 15.2658 13.5886L15.5734 13.1244C15.803 12.7778 16.2355 12.6373 16.6252 12.7828L17.1466 12.9774C17.5162 13.1155 17.9234 13.1154 18.2931 12.9775L18.8145 12.7828C19.2041 12.6374 19.6366 12.7778 19.8664 13.1245L20.1739 13.5886C20.3916 13.917 20.7206 14.1561 21.1003 14.2619L21.6383 14.4117C22.0382 14.5231 22.3053 14.8905 22.2879 15.3053L22.2644 15.864C22.248 16.2567 22.3733 16.6426 22.6174 16.9506L22.9651 17.3893C23.2227 17.7144 23.2227 18.1684 22.9651 18.4935Z" fill="var(--fill-0, white)"/>
<path id="Vector_5" d="M16.6636 16.8852C16.6636 16.8852 16.6636 16.8852 16.6636 16.8851C16.9054 16.6433 17.0386 16.3219 17.0386 15.98C17.0386 15.638 16.9054 15.3165 16.6636 15.0747C16.1645 14.5757 15.3523 14.5757 14.8532 15.0747C14.3541 15.5739 14.3541 16.386 14.8532 16.8851C15.095 17.127 15.4165 17.2601 15.7584 17.2601C16.1003 17.2601 16.4218 17.127 16.6636 16.8852ZM15.3835 15.6051C15.4869 15.5017 15.6226 15.45 15.7584 15.45C15.8942 15.45 16.0299 15.5017 16.1333 15.6051C16.2334 15.7052 16.2886 15.8384 16.2886 15.98C16.2886 16.1215 16.2334 16.2547 16.1333 16.3548L16.1333 16.3549C16.0331 16.455 15.9 16.5101 15.7584 16.5101C15.6168 16.5101 15.4837 16.455 15.3835 16.3548C15.1768 16.1481 15.1768 15.8118 15.3835 15.6051Z" fill="var(--fill-0, white)"/>
<path id="Vector_6" d="M18.7761 18.9976C18.5343 19.2394 18.4011 19.5609 18.4011 19.9029C18.4011 20.2448 18.5343 20.5663 18.7761 20.8081C19.0257 21.0576 19.3535 21.1824 19.6813 21.1824C20.0091 21.1824 20.3369 21.0576 20.5865 20.8081C21.0857 20.3089 21.0857 19.4968 20.5865 18.9976C20.0874 18.4985 19.2752 18.4985 18.7761 18.9976ZM20.0562 20.2777C19.8495 20.4844 19.5132 20.4845 19.3064 20.2777C19.2063 20.1776 19.1511 20.0444 19.1511 19.9029C19.1511 19.7613 19.2063 19.6281 19.3064 19.528C19.4098 19.4246 19.5455 19.3729 19.6813 19.3729C19.8171 19.3729 19.9528 19.4246 20.0562 19.528C20.2629 19.7347 20.2629 20.071 20.0562 20.2777Z" fill="var(--fill-0, white)"/>
<path id="Vector_7" d="M19.8639 15.7974C19.7174 15.651 19.48 15.651 19.3336 15.7974L15.5758 19.5551C15.4294 19.7016 15.4294 19.939 15.5758 20.0855C15.649 20.1587 15.745 20.1953 15.841 20.1953C15.937 20.1953 16.0329 20.1587 16.1061 20.0855L19.8639 16.3277C20.0103 16.1812 20.0103 15.9438 19.8639 15.7974Z" fill="var(--fill-0, white)"/>
</g>
</svg>
