<svg width="81" height="43" viewBox="0 0 81 43" fill="none" xmlns="http://www.w3.org/2000/svg">
<path d="M26.7311 41.0508V34.3601H29.0703C29.5363 34.3601 29.9207 34.4407 30.2235 34.6019C30.5262 34.7608 30.7516 34.9754 30.8997 35.2454C31.0478 35.5133 31.1219 35.8106 31.1219 36.1373C31.1219 36.4248 31.0707 36.6622 30.9683 36.8495C30.8682 37.0368 30.7353 37.1849 30.5698 37.2938C30.4064 37.4027 30.2289 37.4833 30.0373 37.5356V37.6009C30.242 37.614 30.4478 37.6858 30.6547 37.8165C30.8616 37.9472 31.0348 38.1345 31.1742 38.3784C31.3135 38.6224 31.3832 38.9207 31.3832 39.2736C31.3832 39.609 31.307 39.9106 31.1546 40.1785C31.0021 40.4464 30.7614 40.6587 30.4326 40.8156C30.1037 40.9724 29.6757 41.0508 29.1487 41.0508H26.7311ZM27.5413 40.3321H29.1487C29.6779 40.3321 30.0536 40.2297 30.2757 40.025C30.5001 39.8181 30.6122 39.5676 30.6122 39.2736C30.6122 39.0471 30.5545 38.838 30.4391 38.6463C30.3237 38.4525 30.1592 38.2978 29.9458 38.1824C29.7323 38.0648 29.4797 38.006 29.1879 38.006H27.5413V40.3321ZM27.5413 37.3003H29.0441C29.288 37.3003 29.508 37.2524 29.704 37.1566C29.9022 37.0608 30.059 36.9257 30.1745 36.7515C30.2921 36.5773 30.3509 36.3725 30.3509 36.1373C30.3509 35.8433 30.2485 35.5939 30.0438 35.3892C29.8391 35.1823 29.5146 35.0788 29.0703 35.0788H27.5413V37.3003ZM33.1065 42.9325C32.9759 42.9325 32.8593 42.9216 32.757 42.8999C32.6546 42.8803 32.5838 42.8607 32.5446 42.8411L32.7406 42.1615C32.928 42.2095 33.0935 42.2269 33.2372 42.2138C33.381 42.2007 33.5084 42.1365 33.6195 42.0211C33.7327 41.9078 33.8362 41.7238 33.9298 41.4689L34.0736 41.0769L32.2179 36.0328H33.0543L34.4395 40.0315H34.4917L35.8769 36.0328H36.7132L34.5832 41.7826C34.4874 42.0418 34.3687 42.2563 34.2271 42.4262C34.0855 42.5982 33.9211 42.7256 33.7338 42.8084C33.5487 42.8912 33.3396 42.9325 33.1065 42.9325ZM40.4228 41.0508V34.3601H44.4608V35.0788H41.233V37.3395H44.2517V38.0583H41.233V40.3321H44.513V41.0508H40.4228ZM47.2932 41.1684C46.9752 41.1684 46.6866 41.1085 46.4275 40.9887C46.1683 40.8667 45.9625 40.6914 45.81 40.4627C45.6576 40.2319 45.5813 39.9531 45.5813 39.6264C45.5813 39.3389 45.638 39.1059 45.7512 38.9273C45.8645 38.7465 46.0158 38.6049 46.2053 38.5026C46.3948 38.4002 46.6039 38.324 46.8326 38.2739C47.0634 38.2216 47.2954 38.1802 47.5284 38.1497C47.8333 38.1105 48.0805 38.0811 48.27 38.0615C48.4617 38.0398 48.6011 38.0038 48.6882 37.9537C48.7775 37.9036 48.8221 37.8165 48.8221 37.6924V37.6662C48.8221 37.3439 48.7339 37.0934 48.5575 36.9148C48.3833 36.7363 48.1186 36.647 47.7636 36.647C47.3956 36.647 47.107 36.7275 46.8979 36.8887C46.6888 37.0499 46.5418 37.2219 46.4569 37.4049L45.7251 37.1435C45.8557 36.8386 46.03 36.6012 46.2478 36.4313C46.4678 36.2593 46.7073 36.1395 46.9665 36.072C47.2279 36.0023 47.4849 35.9674 47.7375 35.9674C47.8987 35.9674 48.0838 35.987 48.2929 36.0262C48.5041 36.0633 48.7078 36.1406 48.9038 36.2582C49.102 36.3758 49.2664 36.5533 49.3971 36.7907C49.5278 37.0281 49.5931 37.3461 49.5931 37.7446V41.0508H48.8221V40.3713H48.7829C48.7306 40.4802 48.6435 40.5967 48.5216 40.7208C48.3996 40.845 48.2373 40.9506 48.0348 41.0377C47.8322 41.1248 47.585 41.1684 47.2932 41.1684ZM47.4108 40.4758C47.7157 40.4758 47.9727 40.4159 48.1818 40.2961C48.3931 40.1763 48.5521 40.0217 48.6588 39.8322C48.7677 39.6427 48.8221 39.4435 48.8221 39.2344V38.5287C48.7895 38.5679 48.7176 38.6038 48.6065 38.6365C48.4976 38.667 48.3713 38.6942 48.2275 38.7182C48.086 38.74 47.9477 38.7596 47.8126 38.777C47.6798 38.7922 47.572 38.8053 47.4892 38.8162C47.2888 38.8423 47.1015 38.8848 46.9273 38.9436C46.7552 39.0002 46.6159 39.0863 46.5091 39.2017C46.4046 39.315 46.3523 39.4696 46.3523 39.6656C46.3523 39.9335 46.4514 40.136 46.6496 40.2733C46.85 40.4083 47.1037 40.4758 47.4108 40.4758ZM54.5548 37.1566L53.8622 37.3526C53.8186 37.2372 53.7544 37.125 53.6694 37.0161C53.5867 36.905 53.4734 36.8136 53.3297 36.7417C53.1859 36.6698 53.0019 36.6339 52.7776 36.6339C52.4705 36.6339 52.2146 36.7047 52.0098 36.8462C51.8073 36.9856 51.706 37.1631 51.706 37.3787C51.706 37.5704 51.7757 37.7218 51.9151 37.8329C52.0545 37.9439 52.2723 38.0365 52.5685 38.1105L53.3133 38.2935C53.762 38.4024 54.0963 38.569 54.3163 38.7933C54.5363 39.0155 54.6462 39.3019 54.6462 39.6525C54.6462 39.94 54.5635 40.197 54.398 40.4235C54.2346 40.65 54.0059 40.8286 53.7119 40.9593C53.4179 41.09 53.0759 41.1553 52.6861 41.1553C52.1743 41.1553 51.7507 41.0442 51.4152 40.8221C51.0798 40.5999 50.8675 40.2754 50.7782 39.8486L51.51 39.6656C51.5797 39.9357 51.7114 40.1382 51.9053 40.2733C52.1013 40.4083 52.3572 40.4758 52.673 40.4758C53.0324 40.4758 53.3177 40.3996 53.529 40.2471C53.7424 40.0925 53.8491 39.9074 53.8491 39.6917C53.8491 39.5175 53.7881 39.3716 53.6662 39.254C53.5442 39.1342 53.3569 39.0449 53.1043 38.9861L52.2679 38.7901C51.8084 38.6812 51.4708 38.5124 51.2552 38.2837C51.0417 38.0528 50.935 37.7642 50.935 37.418C50.935 37.1348 51.0145 36.8844 51.1735 36.6666C51.3347 36.4488 51.5535 36.2778 51.8301 36.1537C52.1089 36.0295 52.4247 35.9674 52.7776 35.9674C53.2741 35.9674 53.664 36.0763 53.9471 36.2941C54.2324 36.5119 54.435 36.7994 54.5548 37.1566ZM57.9107 41.1553C57.4272 41.1553 57.0101 41.0486 56.6595 40.8352C56.311 40.6195 56.042 40.319 55.8526 39.9335C55.6653 39.5458 55.5716 39.095 55.5716 38.581C55.5716 38.067 55.6653 37.614 55.8526 37.2219C56.042 36.8277 56.3056 36.5206 56.6432 36.3007C56.9829 36.0785 57.3793 35.9674 57.8323 35.9674C58.0937 35.9674 58.3518 36.011 58.6066 36.0981C58.8614 36.1852 59.0934 36.3268 59.3024 36.5228C59.5115 36.7167 59.6781 36.9737 59.8023 37.2938C59.9264 37.614 59.9885 38.0082 59.9885 38.4764V38.8031H56.1204V38.1367H59.2044C59.2044 37.8535 59.1478 37.6009 59.0345 37.3787C58.9235 37.1566 58.7645 36.9813 58.5576 36.8528C58.3528 36.7243 58.1111 36.66 57.8323 36.66C57.5252 36.66 57.2595 36.7363 57.0352 36.8887C56.813 37.039 56.6421 37.235 56.5223 37.4768C56.4025 37.7185 56.3426 37.9777 56.3426 38.2543V38.6986C56.3426 39.0776 56.4079 39.3988 56.5386 39.6623C56.6715 39.9237 56.8555 40.123 57.0907 40.2602C57.3259 40.3952 57.5993 40.4627 57.9107 40.4627C58.1133 40.4627 58.2962 40.4344 58.4596 40.3778C58.6251 40.319 58.7677 40.2319 58.8875 40.1164C59.0073 39.9988 59.0999 39.8529 59.1652 39.6787L59.9101 39.8878C59.8317 40.1404 59.6999 40.3625 59.5148 40.5542C59.3297 40.7437 59.101 40.8918 58.8287 40.9985C58.5565 41.1031 58.2505 41.1553 57.9107 41.1553ZM66.6498 36.4509H65.8396C65.7917 36.2179 65.7078 36.0132 65.588 35.8368C65.4704 35.6603 65.3267 35.5122 65.1568 35.3925C64.9891 35.2705 64.8029 35.179 64.5981 35.118C64.3934 35.0571 64.18 35.0266 63.9578 35.0266C63.5527 35.0266 63.1857 35.1289 62.8569 35.3337C62.5302 35.5384 62.2699 35.84 62.0761 36.2386C61.8844 36.6372 61.7886 37.1261 61.7886 37.7054C61.7886 38.2848 61.8844 38.7737 62.0761 39.1723C62.2699 39.5709 62.5302 39.8725 62.8569 40.0772C63.1857 40.282 63.5527 40.3843 63.9578 40.3843C64.18 40.3843 64.3934 40.3538 64.5981 40.2929C64.8029 40.2319 64.9891 40.1415 65.1568 40.0217C65.3267 39.8997 65.4704 39.7505 65.588 39.5741C65.7078 39.3955 65.7917 39.1908 65.8396 38.9599H66.6498C66.5888 39.3019 66.4777 39.6079 66.3165 39.878C66.1554 40.148 65.955 40.3778 65.7154 40.5673C65.4758 40.7546 65.2069 40.8972 64.9085 40.9952C64.6123 41.0933 64.2954 41.1423 63.9578 41.1423C63.3872 41.1423 62.8797 41.0029 62.4354 40.7241C61.9911 40.4453 61.6416 40.0489 61.3867 39.5349C61.1319 39.0209 61.0045 38.4111 61.0045 37.7054C61.0045 36.9998 61.1319 36.39 61.3867 35.876C61.6416 35.362 61.9911 34.9656 62.4354 34.6868C62.8797 34.408 63.3872 34.2686 63.9578 34.2686C64.2954 34.2686 64.6123 34.3176 64.9085 34.4156C65.2069 34.5137 65.4758 34.6574 65.7154 34.8469C65.955 35.0342 66.1554 35.2629 66.3165 35.5329C66.4777 35.8008 66.5888 36.1068 66.6498 36.4509ZM69.3311 41.1684C69.0131 41.1684 68.7245 41.1085 68.4654 40.9887C68.2062 40.8667 68.0004 40.6914 67.8479 40.4627C67.6955 40.2319 67.6192 39.9531 67.6192 39.6264C67.6192 39.3389 67.6759 39.1059 67.7891 38.9273C67.9024 38.7465 68.0537 38.6049 68.2432 38.5026C68.4327 38.4002 68.6418 38.324 68.8705 38.2739C69.1013 38.2216 69.3333 38.1802 69.5663 38.1497C69.8712 38.1105 70.1184 38.0811 70.3079 38.0615C70.4996 38.0398 70.639 38.0038 70.7261 37.9537C70.8154 37.9036 70.86 37.8165 70.86 37.6924V37.6662C70.86 37.3439 70.7718 37.0934 70.5954 36.9148C70.4212 36.7363 70.1565 36.647 69.8015 36.647C69.4335 36.647 69.1449 36.7275 68.9358 36.8887C68.7267 37.0499 68.5797 37.2219 68.4948 37.4049L67.763 37.1435C67.8936 36.8386 68.0679 36.6012 68.2857 36.4313C68.5057 36.2593 68.7452 36.1395 69.0044 36.072C69.2658 36.0023 69.5228 35.9674 69.7754 35.9674C69.9366 35.9674 70.1217 35.987 70.3308 36.0262C70.542 36.0633 70.7457 36.1406 70.9417 36.2582C71.1399 36.3758 71.3043 36.5533 71.435 36.7907C71.5657 37.0281 71.631 37.3461 71.631 37.7446V41.0508H70.86V40.3713H70.8208C70.7685 40.4802 70.6814 40.5967 70.5595 40.7208C70.4375 40.845 70.2752 40.9506 70.0727 41.0377C69.8701 41.1248 69.6229 41.1684 69.3311 41.1684ZM69.4487 40.4758C69.7536 40.4758 70.0106 40.4159 70.2197 40.2961C70.431 40.1763 70.59 40.0217 70.6967 39.8322C70.8056 39.6427 70.86 39.4435 70.86 39.2344V38.5287C70.8274 38.5679 70.7555 38.6038 70.6444 38.6365C70.5355 38.667 70.4092 38.6942 70.2654 38.7182C70.1239 38.74 69.9856 38.7596 69.8505 38.777C69.7177 38.7922 69.6099 38.8053 69.5271 38.8162C69.3267 38.8423 69.1394 38.8848 68.9652 38.9436C68.7931 39.0002 68.6538 39.0863 68.547 39.2017C68.4425 39.315 68.3902 39.4696 68.3902 39.6656C68.3902 39.9335 68.4893 40.136 68.6875 40.2733C68.8879 40.4083 69.1416 40.4758 69.4487 40.4758ZM73.0382 41.0508V36.0328H73.7831V36.7907H73.8354C73.9269 36.5424 74.0924 36.341 74.332 36.1863C74.5715 36.0317 74.8416 35.9544 75.1422 35.9544C75.1988 35.9544 75.2696 35.9555 75.3545 35.9576C75.4394 35.9598 75.5037 35.9631 75.5473 35.9674V36.7515C75.5211 36.745 75.4612 36.7352 75.3676 36.7221C75.2761 36.7069 75.1792 36.6992 75.0768 36.6992C74.8329 36.6992 74.6151 36.7504 74.4234 36.8528C74.2339 36.953 74.0837 37.0923 73.9726 37.2709C73.8637 37.4474 73.8092 37.6488 73.8092 37.8753V41.0508H73.0382ZM78.4124 41.1553C77.9288 41.1553 77.5118 41.0486 77.1611 40.8352C76.8126 40.6195 76.5437 40.319 76.3542 39.9335C76.1669 39.5458 76.0732 39.095 76.0732 38.581C76.0732 38.067 76.1669 37.614 76.3542 37.2219C76.5437 36.8277 76.8072 36.5206 77.1448 36.3007C77.4845 36.0785 77.8809 35.9674 78.3339 35.9674C78.5953 35.9674 78.8534 36.011 79.1082 36.0981C79.363 36.1852 79.595 36.3268 79.8041 36.5228C80.0131 36.7167 80.1798 36.9737 80.3039 37.2938C80.428 37.614 80.4901 38.0082 80.4901 38.4764V38.8031H76.6221V38.1367H79.7061C79.7061 37.8535 79.6494 37.6009 79.5362 37.3787C79.4251 37.1566 79.2661 36.9813 79.0592 36.8528C78.8545 36.7243 78.6127 36.66 78.3339 36.66C78.0269 36.66 77.7611 36.7363 77.5368 36.8887C77.3147 37.039 77.1437 37.235 77.0239 37.4768C76.9041 37.7185 76.8442 37.9777 76.8442 38.2543V38.6986C76.8442 39.0776 76.9096 39.3988 77.0402 39.6623C77.1731 39.9237 77.3571 40.123 77.5924 40.2602C77.8276 40.3952 78.1009 40.4627 78.4124 40.4627C78.6149 40.4627 78.7979 40.4344 78.9612 40.3778C79.1267 40.319 79.2694 40.2319 79.3892 40.1164C79.509 39.9988 79.6015 39.8529 79.6669 39.6787L80.4117 39.8878C80.3333 40.1404 80.2015 40.3625 80.0164 40.5542C79.8313 40.7437 79.6026 40.8918 79.3304 40.9985C79.0581 41.1031 78.7521 41.1553 78.4124 41.1553Z" fill="black"/>
<path d="M9.12481 29V28.7373C11.724 28.7373 12.4429 27.8801 11.8346 25.7925L10.2585 20.3453H4.76979L3.24898 25.516C2.59919 27.7557 3.31811 28.7373 5.83435 28.7373V29H0.207382V28.7373C1.23047 28.7235 1.93557 27.9631 2.55771 25.8754L7.18924 10.1282C6.69153 9.10516 6.12468 8.64892 5.39193 8.64892V8.38623H10.1755L15.2771 25.7925C15.8855 27.8801 16.5906 28.7373 17.5445 28.7373V29H9.12481ZM4.92187 19.8199H10.1064L7.72843 11.6076C7.65931 11.3725 7.59018 11.1652 7.52105 10.9578L4.92187 19.8199ZM21.2636 25.1289C21.2636 26.304 21.8028 26.9124 22.8535 26.9124C24.4019 26.9124 25.3421 25.4607 25.3421 23.0136H25.5633C25.5633 27.1336 24.1254 29.3318 21.5124 29.3318C19.4524 29.3318 18.2634 28.0046 18.2634 25.7372V12.6168H15.8855V12.4371C18.8856 11.1652 20.5999 9.06368 20.9318 6.6304H21.2221V10.7227H25.3421V12.6168H21.2636V25.1289ZM31.1902 25.1289C31.1902 26.304 31.7294 26.9124 32.7802 26.9124C34.3286 26.9124 35.2688 25.4607 35.2688 23.0136H35.49C35.49 27.1336 34.0521 29.3318 31.4391 29.3318C29.3791 29.3318 28.1901 28.0046 28.1901 25.7372V12.6168H25.8121V12.4371C28.8123 11.1652 30.5266 9.06368 30.8584 6.6304H31.1488V10.7227H35.2688V12.6168H31.1902V25.1289ZM39.845 29.3318C37.4255 29.3318 36.3471 27.493 37.149 24.645L40.4395 13.0454C39.1952 13.0592 37.7573 14.58 37.232 16.488L37.0384 16.4465C38.1721 12.3818 39.8173 10.4047 41.822 10.4047C43.3705 10.4047 43.8682 11.7873 43.2737 13.8611L40.1491 24.7694C39.6376 26.5252 40.163 27.5898 41.504 27.5898C43.0663 27.5898 44.8498 26.0275 45.8591 22.267L48.9698 10.6398H52.0252L47.684 26.6497C48.9698 26.7188 50.4629 25.1842 51.0021 23.221L51.2095 23.2624C50.0758 27.3133 48.3753 29.2903 46.4674 29.2903C44.9604 29.2903 44.5318 28.0599 45.0572 26.2764C45.2646 25.5989 45.5826 24.8109 46.1079 23.3454H45.9282C44.4212 27.3548 42.3197 29.3318 39.845 29.3318ZM61.9657 29.2489C60.362 29.2489 59.8919 27.8801 60.4726 25.8201L63.611 14.8704C64.1087 13.1284 63.5971 12.0638 62.2422 12.0638C60.6938 12.0638 58.8965 13.6261 57.8872 17.3866L54.7765 29H51.7349L56.0623 13.0039C54.7765 12.9348 53.2833 14.4694 52.7441 16.4188L52.5506 16.3912C53.629 12.4924 55.3019 10.3494 57.2512 10.3494C58.855 10.3494 59.2006 11.6629 58.6891 13.3634C58.4955 14.0408 58.1776 14.8427 57.6384 16.2944H57.8181C59.3251 12.2988 61.4127 10.308 63.9013 10.308C66.3346 10.308 67.3991 12.1606 66.5973 14.9948L63.3068 26.622C64.5649 26.6082 66.0028 25.0874 66.5281 23.1795L66.7217 23.2348C65.588 27.2856 63.9013 29.2489 61.9657 29.2489ZM72.404 29.3318C69.473 29.3318 67.8277 27.2442 67.8277 23.2348C67.8277 16.6815 72.1274 10.308 77.0631 10.308C79.3029 10.308 80.9896 11.6214 80.9896 13.7782C80.9896 16.7783 77.7406 18.9489 73.2611 18.9489C72.6113 18.9489 71.9754 18.9074 71.3809 18.8245C71.1735 19.9167 71.0491 21.0227 71.0491 22.1149C71.0491 25.3224 72.086 26.9124 74.1874 26.9124C76.4825 26.9124 78.3213 24.9906 79.0678 21.7831H79.3167C78.1968 26.6497 75.7497 29.3318 72.404 29.3318ZM71.4777 18.382C71.9201 18.4373 72.321 18.465 72.6943 18.465C75.888 18.465 78.2383 16.2114 78.2383 13.2251C78.2383 11.7596 77.6023 10.8472 76.5654 10.8472C74.5469 10.8472 72.3763 14.345 71.4777 18.382Z" fill="black"/>
</svg>
