<svg width="99" height="99" viewBox="0 0 99 99" fill="none" xmlns="http://www.w3.org/2000/svg">
<circle cx="49.4083" cy="49.0733" r="48.4898" fill="white" stroke="black" stroke-width="0.979592"/>
<path d="M33.7235 31.9144C36.4937 31.9036 38.5117 32.5604 40.4569 33.4826C43.6113 34.9788 45.9874 37.3234 47.7544 40.297C48.2528 41.1382 48.6829 42.0172 49.1607 42.871C49.2452 42.9682 49.3496 43.0321 49.4746 43.0627C49.4935 43.0708 49.5889 42.9367 49.6123 42.8567C49.7698 42.3951 49.9164 41.9282 50.0676 41.4648C51.0662 38.3977 52.3996 35.5042 54.4779 32.9995C56.1514 30.9805 58.1316 29.3763 60.631 28.4721C61.2041 28.2571 61.7907 28.0915 62.3918 27.9755C62.9928 27.8594 63.5992 27.7937 64.211 27.7794C64.8228 27.765 65.431 27.8027 66.0365 27.8909C66.642 27.9791 67.2358 28.1167 67.8179 28.3048C68.5907 28.5405 69.306 28.8932 69.9628 29.3628C70.6205 29.8325 71.1855 30.3939 71.6596 31.0489C73.3259 33.3368 73.9719 35.9199 73.7623 38.7306C73.6246 40.5237 73.1037 42.2152 72.3902 43.8553C70.8661 47.3273 68.9497 50.5779 66.8426 53.7323C63.3229 58.9785 59.6234 64.0907 55.4388 68.8375C55.0816 69.2316 54.6903 69.5888 54.2647 69.9091C53.4649 70.5272 52.6434 70.5065 51.7959 69.9513C51.0149 69.4412 50.2142 68.9626 49.409 68.492C46.5704 66.8294 43.6949 65.2243 40.8923 63.504C38.0052 61.7352 35.2665 59.7613 32.6762 57.5804C31.2304 56.3793 29.9528 55.0198 28.8426 53.5038C27.7332 51.9869 26.8236 50.3584 26.1155 48.6175C24.8371 45.4721 24.6841 42.2206 25.6108 38.9501C26.318 36.4534 27.8214 34.5209 30.0086 33.1254C31.3284 32.2851 32.7608 31.9009 33.7235 31.9144ZM71.5499 37.6842C71.5499 37.4098 71.5697 37.0904 71.5499 36.7818C71.3312 34.0458 70.0896 31.8928 67.5984 30.7232C64.39 29.2144 61.2887 29.5806 58.4636 31.7974C57.2715 32.7457 56.2512 33.8533 55.4037 35.1201C53.6574 37.6869 52.5094 40.5183 51.7122 43.5008C51.2759 45.0492 51.0473 46.6273 51.0257 48.236C51.0257 49.1177 50.7765 49.3912 50.037 49.6081C49.9524 49.6386 49.8651 49.653 49.7752 49.6503C49.6852 49.6485 49.5979 49.6315 49.5142 49.5973C49.4315 49.5631 49.3568 49.5154 49.2911 49.4542C49.2254 49.3921 49.1723 49.3211 49.1328 49.2401C49.0149 49.0017 48.9096 48.7578 48.8179 48.5077C48.4139 47.5198 48.018 46.5293 47.6132 45.5414C46.8484 43.6313 45.8362 41.8616 44.5784 40.2331C42.1096 37.0877 38.8635 35.2064 34.9759 34.4246C33.8449 34.197 32.6726 34.1808 31.5705 34.6702C29.9447 35.3918 28.8084 36.6145 28.1408 38.2367C26.955 41.0824 26.7471 44.0029 27.8331 46.9368C29.0297 50.1704 30.9884 52.9109 33.5687 55.1674C36.8158 58.0149 40.3903 60.4396 44.1196 62.6187C46.8808 64.2346 49.6528 65.8316 52.4239 67.4331C52.6191 67.5392 52.8216 67.6301 53.0303 67.7075C53.0915 67.7363 53.1545 67.7543 53.2219 67.7615C53.2885 67.7687 53.3551 67.7651 53.4208 67.7498C53.4864 67.7336 53.5467 67.7075 53.6034 67.6715C53.6601 67.6346 53.7096 67.5905 53.751 67.5365C53.8958 67.3692 54.0497 67.209 54.1927 67.039C58.7695 61.5823 63.0089 55.8763 66.7634 49.8204C68.1931 47.5144 69.5219 45.1563 70.5575 42.6344C71.2062 41.0626 71.6596 39.4441 71.5499 37.6842Z" fill="black"/>
</svg>
