<svg xmlns="http://www.w3.org/2000/svg" width="127" height="52" viewBox="0 0 127 52" fill="none">
  <g clip-path="url(#clip0_423_920)">
    <path d="M34.7054 50.545C24.7073 50.4899 15.7767 47.6299 8.20911 41.0984C3.13518 36.7178 0.220044 31.1594 0.771557 24.2654C1.29155 17.793 4.73064 12.8649 9.71785 9.01216C15.3315 4.67884 21.8078 2.46097 28.8042 1.35401C34.9457 0.380979 40.969 0.960068 46.7678 2.60673C54.6386 4.84036 61.5326 8.82701 65.9565 16.1858C70.2308 23.2963 68.974 32.8927 63.2816 38.9475C58.2944 44.2499 52.1923 47.429 45.3299 49.1821C41.9026 50.0605 38.2548 50.1157 34.7054 50.545ZM34.2878 46.8656C37.2778 46.5978 40.3545 46.6845 43.2421 45.9912C48.6626 44.6872 53.7759 42.5718 58.1368 38.8805C62.1392 35.4927 64.818 31.3485 64.9362 26.0854C65.0977 18.8409 60.7684 14.0979 55.135 10.3555C50.522 7.29065 45.3653 5.72278 39.8936 4.93096C33.6772 4.02885 27.6263 4.74975 21.7567 6.67217C17.1161 8.18883 12.8812 10.5761 9.45002 14.2042C7.03124 16.7569 5.18761 19.5736 4.64003 23.1151C3.35579 31.4391 7.77578 36.9818 14.0985 41.1142C20.1297 45.0496 26.9724 46.9129 34.2878 46.8656Z" fill="#868383"/>
    <path d="M114.129 25.8561C112.841 25.8561 111.872 25.8561 110.615 25.8561C110.537 27.2586 110.564 28.6098 110.343 29.9216C110.249 30.481 109.642 30.9537 109.264 31.4619C108.792 30.9734 107.964 30.5243 107.913 29.9965C107.744 28.2473 107.76 26.4628 107.921 24.7137C107.961 24.2725 108.764 23.6107 109.268 23.5595C110.777 23.4059 112.313 23.5044 113.227 23.5044C114.196 22.5708 114.772 22.0232 115.342 21.4717C115.757 22.0113 116.17 22.551 116.469 22.9489C117.253 23.5556 117.943 24.0914 118.636 24.6271C117.971 25.1628 117.304 25.6986 116.292 26.518C116.327 27.3453 116.08 28.7477 117.754 29.5158C118.081 29.6656 118.388 30.4022 118.297 30.7686C118.223 31.0719 117.556 31.3753 117.131 31.4107C115.071 31.5801 114.224 30.8159 114.141 28.7753C114.102 27.8731 114.129 26.9671 114.129 25.8561Z" fill="black"/>
    <path d="M90.7272 31.4104C90.7272 28.0462 90.672 24.9223 90.7947 21.8062C90.8104 21.3887 91.685 20.8411 92.2484 20.6835C92.4691 20.6244 93.1033 21.428 93.2606 21.9323C93.4615 22.5744 93.3751 23.3071 93.3866 23.5395C94.6788 23.709 96.1876 23.4844 96.5936 24.0517C97.4518 25.2492 98.2556 26.8999 98.1535 28.2944C97.9443 31.0953 96.8811 31.5877 93.9853 31.2686C92.9888 31.1583 91.9601 31.3474 90.7272 31.4104ZM96.3532 27.3095C95.4859 26.5926 95.0099 25.8677 94.4383 25.7889C93.1387 25.6038 93.1897 26.8093 93.3314 27.5341C93.4854 28.3102 94.0842 28.9956 94.4894 29.7204C95.0132 29.0428 95.5378 28.3653 96.3532 27.3095Z" fill="black"/>
    <path d="M85.0099 31.7029C84.3008 31.2538 83.4854 30.911 82.9106 30.3319C81.9845 29.4023 79.9715 29.4929 79.0497 30.4462C78.4863 31.0292 77.6 31.2932 76.8555 31.6989C76.6979 31.5256 76.5442 31.3523 76.3906 31.1789C76.7057 30.0483 76.9894 28.9059 77.34 27.7832C77.9349 25.8765 78.5139 23.9541 79.2388 22.0987C79.42 21.6338 80.137 21.098 80.6175 21.0902C81.2912 21.0783 82.4139 21.362 82.5836 21.8111C83.7375 24.8405 84.6912 27.9486 85.7108 31.0331C85.4785 31.2538 85.2463 31.4783 85.0099 31.7029ZM82.3509 27.3774C81.89 26.2705 81.5473 25.4392 81.0194 24.1628C80.5152 25.5181 80.2 26.3611 79.8178 27.3774C80.6884 27.3774 81.303 27.3774 82.3509 27.3774Z" fill="black"/>
    <path d="M126.156 31.1715C124.513 31.3252 123.138 31.5182 121.759 31.5615C120.195 31.6088 119.234 30.5648 119.289 28.9655C119.34 27.4134 120.101 26.5427 121.744 26.6058C122.323 26.6294 122.906 26.6097 123.757 26.6097C122.657 24.6479 121.223 25.8336 119.955 25.7391C119.439 24.1909 119.935 23.5292 121.637 23.4346C125.226 23.2376 126.432 24.6006 126.167 27.7916C126.072 28.9457 126.156 30.1197 126.156 31.1715Z" fill="black"/>
    <path d="M106.348 28.2281C104.772 28.2281 103.358 28.2281 101.912 28.2281C102.283 30.0009 103.067 30.186 105.745 29.2681C106.631 30.2214 106.198 30.9148 105.213 31.3402C103.22 32.203 100.47 31.3836 99.6234 29.7566C98.556 27.6963 99.261 25.116 101.247 23.8318C103.047 22.6657 106.029 24.0051 106.336 26.1402C106.419 26.7194 106.348 27.3181 106.348 28.2281Z" fill="black"/>
    <path d="M89.1216 26.054C89.1216 27.3658 89.232 28.6894 89.0664 29.9776C88.9997 30.4976 88.3375 30.9388 87.9439 31.4194C87.4983 30.994 86.6829 30.5803 86.6632 30.1352C86.5454 27.3894 86.5528 24.6318 86.6516 21.8861C86.6673 21.441 87.3608 21.0233 87.7429 20.594C88.2 21.0391 88.9799 21.437 89.0466 21.9334C89.2278 23.2846 89.1101 24.6752 89.1101 26.054C89.1175 26.054 89.1175 26.054 89.1216 26.054Z" fill="black"/>
    <path d="M18.877 21.2395C17.2815 17.8122 19.2039 14.5819 22.9346 14.3692C25.6094 14.2155 28.0873 14.511 29.4543 17.1464C30.8803 19.8922 30.4155 22.6892 29.1037 25.3561C28.1345 27.3258 27.0472 29.2325 25.7552 31.6513C27.1024 31.6513 28.1582 31.7222 29.2021 31.6355C30.6912 31.5094 31.1284 32.1792 31.1481 33.5816C31.1954 37.0758 31.2466 37.0758 27.7997 37.0758C25.18 37.0758 22.5564 37.1034 19.9367 37.0482C19.4167 37.0364 18.6722 36.8434 18.4515 36.4809C18.2585 36.1619 18.5421 35.4212 18.7982 34.9761C20.8151 31.4661 23.0212 28.0546 24.8491 24.454C25.436 23.2959 25.3218 21.6058 25.0303 20.2704C24.916 19.7386 23.3285 19.0492 22.6194 19.2343C21.3234 19.5573 20.1848 20.491 18.877 21.2395Z" fill="black"/>
    <path d="M40.6557 36.7024C40.2027 36.8442 40.0845 36.9033 39.9545 36.919C35.9678 37.4942 35.8496 37.3957 35.8496 33.4011C35.8496 27.1769 35.8496 20.9567 35.8496 14.4213C37.1576 14.4213 38.3236 14.3069 39.4503 14.4764C39.9032 14.5433 40.6006 15.2406 40.6045 15.6582C40.6754 22.6664 40.6557 29.6784 40.6557 36.7024Z" fill="black"/>
    <path d="M49.9459 36.7846C49.7213 36.8674 49.5441 36.9698 49.355 36.9973C45.8135 37.5095 45.5259 37.2455 45.5298 33.7552C45.5338 28.055 45.5022 22.3547 45.5062 16.6544C45.5062 15.9571 45.6401 15.2559 45.7189 14.4917C47.1647 14.4917 48.4568 14.4917 49.942 14.4917C49.9459 21.9411 49.9459 29.3628 49.9459 36.7846Z" fill="black"/>
  </g>
  <defs>
    <clipPath id="clip0_423_920">
      <rect width="126.833" height="50.2389" fill="white" transform="translate(0.00976562 0.880371)"/>
    </clipPath>
  </defs>
</svg>