<svg preserveAspectRatio="none" width="100%" height="100%" overflow="visible" style="display: block;" viewBox="0 0 29.5875 32" fill="none" xmlns="http://www.w3.org/2000/svg">
<g id="Group">
<path id="Vector" d="M27.1186 28.7458H26.8171C27.0037 28.4252 27.1186 28.058 27.1186 27.661C27.1186 26.8534 26.6696 26.1554 26.0133 25.7817L25.0007 14.6441H25.2203C26.2671 14.6441 27.1186 13.7925 27.1186 12.7458C27.1186 12.1047 26.797 11.539 26.3083 11.1951C26.4765 10.9391 26.5763 10.6338 26.5763 10.3051C26.5763 10.0708 26.5247 9.84949 26.4353 9.64827L29.5875 2.71186H26.2687L24.6416 5.42373H23.4408L23.9832 2.71186H19.4061L19.9485 5.42373H18.7477L17.1205 2.71186H13.8018L16.9546 9.64827C16.8651 9.84949 16.8136 10.0713 16.8136 10.3051C16.8136 10.6338 16.9134 10.9386 17.0815 11.1951C16.5928 11.539 16.2712 12.1047 16.2712 12.7458C16.2712 13.7925 17.1227 14.6441 18.1695 14.6441H18.3892L17.3765 25.7817C16.7197 26.1548 16.2712 26.8529 16.2712 27.661C16.2712 28.058 16.3862 28.4252 16.5727 28.7458H16.2712C15.3741 28.7458 14.6441 29.4758 14.6441 30.3729C14.6441 31.27 15.3741 32 16.2712 32H27.1186C28.0157 32 28.7458 31.27 28.7458 30.3729C28.7458 29.4758 28.0157 28.7458 27.1186 28.7458ZM18.4407 9.76271H24.9492C25.2485 9.76271 25.4915 10.0062 25.4915 10.3051C25.4915 10.6039 25.2485 10.8475 24.9492 10.8475H18.4407C18.1413 10.8475 17.8983 10.6039 17.8983 10.3051C17.8983 10.0062 18.1413 9.76271 18.4407 9.76271ZM16.506 3.79661L17.8918 6.10549C18.0409 6.3539 18.3143 6.50847 18.6039 6.50847H20.2571C20.5077 6.50847 20.742 6.39729 20.9009 6.20366C21.0593 6.01003 21.1216 5.75837 21.0723 5.51376L20.7289 3.79661H22.6603L22.317 5.51322C22.2677 5.75892 22.33 6.01058 22.4884 6.20366C22.6473 6.39729 22.8816 6.50847 23.1322 6.50847H24.7854C25.075 6.50847 25.3483 6.3539 25.498 6.10495L26.8833 3.79661H27.9035L25.6846 8.67797H24.9492H18.4407H17.7052L15.4864 3.79661H16.506ZM18.1695 13.5593C17.7209 13.5593 17.3559 13.1943 17.3559 12.7458C17.3559 12.2972 17.7209 11.9322 18.1695 11.9322H18.4407H24.9492H25.2203C25.6689 11.9322 26.0339 12.2972 26.0339 12.7458C26.0339 13.1943 25.6689 13.5593 25.2203 13.5593H24.902H18.4879H18.1695ZM23.9116 14.6441L24.8976 25.4915H18.4917L19.4777 14.6441H23.9116ZM17.3559 27.661C17.3559 27.0628 17.8424 26.5763 18.4407 26.5763H24.9492C25.5474 26.5763 26.0339 27.0628 26.0339 27.661C26.0339 28.2593 25.5474 28.7458 24.9492 28.7458H18.4407C17.8424 28.7458 17.3559 28.2593 17.3559 27.661ZM27.1186 30.9153H16.2712C15.9718 30.9153 15.7288 30.6717 15.7288 30.3729C15.7288 30.074 15.9718 29.8305 16.2712 29.8305H18.4407H24.9492H27.1186C27.418 29.8305 27.661 30.074 27.661 30.3729C27.661 30.6717 27.4175 30.9153 27.1186 30.9153Z" fill="var(--fill-0, black)"/>
<path id="Vector_2" d="M12.4746 28.7458H12.173C12.3596 28.4252 12.4746 28.058 12.4746 27.661C12.4746 26.8534 12.0255 26.1554 11.3692 25.7817L10.3566 14.6441H10.5763C11.6231 14.6441 12.4746 13.7925 12.4746 12.7458C12.4746 11.8351 11.8292 11.0731 10.9717 10.8903L11.7012 7.60895C11.7901 7.20705 11.693 6.79268 11.4359 6.47159C11.1778 6.14997 10.7938 5.9661 10.3821 5.9661H9.2198V5.42373H9.56041C10.2698 5.42373 10.8469 4.84664 10.8469 4.13668V2.91417C10.8475 2.2042 10.2698 1.62712 9.56095 1.62712H9.22034V1.28705C9.22034 0.577085 8.64271 0 7.93383 0H6.16786C5.45844 0 4.88136 0.577085 4.88136 1.28705V1.62712H4.54075C3.83132 1.62712 3.25424 2.2042 3.25424 2.91417V4.13722C3.25424 4.84664 3.83132 5.42373 4.54075 5.42373H4.88136V5.9661H3.71905C3.30739 5.9661 2.92339 6.14997 2.66576 6.47159C2.40814 6.79268 2.31159 7.20705 2.40054 7.60949L3.13003 10.8908C2.27254 11.0736 1.62712 11.8357 1.62712 12.7463C1.62712 13.7931 2.47864 14.6446 3.52542 14.6446H3.74508L2.73247 25.7817C2.07566 26.1554 1.62712 26.8534 1.62712 27.661C1.62712 28.058 1.7421 28.4252 1.92868 28.7458H1.62712C0.730034 28.7458 0 29.4758 0 30.3729C0 31.27 0.730034 32 1.62712 32H12.4746C13.3717 32 14.1017 31.27 14.1017 30.3729C14.1017 29.4758 13.3717 28.7458 12.4746 28.7458ZM4.34115 20.0678H9.76054L9.85926 21.1525H4.24244L4.34115 20.0678ZM4.14373 22.2373H9.95742L10.2536 25.4915H3.84759L4.14373 22.2373ZM4.54075 4.33898C4.42956 4.33898 4.33898 4.24841 4.33898 4.13668V2.91417C4.33898 2.80244 4.42956 2.71186 4.54075 2.71186H5.9661V1.28705C5.9661 1.17532 6.05668 1.08475 6.16786 1.08475H7.93383C8.04502 1.08475 8.13559 1.17532 8.13559 1.28705V2.71186H9.56095C9.67213 2.71186 9.76271 2.80244 9.76271 2.91417V4.13722C9.76271 4.24841 9.67213 4.33898 9.56095 4.33898H8.13559V5.9661H5.9661V4.33898H4.54075ZM3.51132 7.15064C3.54169 7.11322 3.60786 7.05085 3.71905 7.05085H4.88136H9.22034H10.3826C10.4938 7.05085 10.56 7.11322 10.5904 7.15064C10.6202 7.18753 10.6668 7.26617 10.6424 7.3741L9.8701 10.8475H4.23105L3.45925 7.3741C3.43539 7.26563 3.48203 7.18753 3.51132 7.15064ZM3.52542 13.5593C3.07688 13.5593 2.71186 13.1943 2.71186 12.7458C2.71186 12.2972 3.07688 11.9322 3.52542 11.9322H10.5763C11.0248 11.9322 11.3898 12.2972 11.3898 12.7458C11.3898 13.1943 11.0248 13.5593 10.5763 13.5593H10.2579H3.8438H3.52542ZM9.26753 14.6441L9.66183 18.9831H4.43986L4.83417 14.6441H9.26753ZM2.71186 27.661C2.71186 27.0628 3.19837 26.5763 3.79661 26.5763H10.3051C10.9033 26.5763 11.3898 27.0628 11.3898 27.661C11.3898 28.2593 10.9033 28.7458 10.3051 28.7458H3.79661C3.19837 28.7458 2.71186 28.2593 2.71186 27.661ZM12.4746 30.9153H1.62712C1.32773 30.9153 1.08475 30.6717 1.08475 30.3729C1.08475 30.074 1.32773 29.8305 1.62712 29.8305H3.79661H10.3051H12.4746C12.774 29.8305 13.0169 30.074 13.0169 30.3729C13.0169 30.6717 12.7734 30.9153 12.4746 30.9153Z" fill="var(--fill-0, black)"/>
</g>
</svg>
