<svg preserveAspectRatio="none" width="100%" height="100%" overflow="visible" style="display: block;" viewBox="0 0 31.9532 32" fill="none" xmlns="http://www.w3.org/2000/svg">
<g id="Group">
<path id="Vector" d="M18.7887 0V10.1471L13.6071 20.177L10.3798 14.2604L0 32H31.9532L20.6637 10.1471V7.5H29.9154L27.4154 3.75L29.9154 0L18.7887 0ZM19.7262 12.4176L22.4109 17.6144L21.6012 18.4242L19.7262 16.5492L17.8512 18.4242L17.0414 17.6144L19.7262 12.4176ZM3.2695 30.125L10.3226 18.071L12.5682 22.188L8.46781 30.125H3.2695ZM10.5783 30.125L16.1382 19.3628L17.8512 21.0758L19.7262 19.2008L21.6012 21.0758L23.3142 19.3628L28.8741 30.125H10.5783ZM26.4119 5.625H20.6637V1.875H26.4119L25.1619 3.75L26.4119 5.625Z" fill="var(--fill-0, black)"/>
</g>
</svg>
