<svg preserveAspectRatio="none" width="100%" height="100%" overflow="visible" style="display: block;" viewBox="0 0 40 39.9991" fill="none" xmlns="http://www.w3.org/2000/svg">
<g id="Group">
<path id="Vector" d="M21.8916 19.2472L22.6319 19.5788C22.7356 19.6253 22.8441 19.6473 22.9508 19.6473C23.2493 19.6473 23.5343 19.4752 23.6643 19.1852C23.8407 18.7914 23.6644 18.3292 23.2707 18.1528L22.5304 17.8212C22.1365 17.6445 21.6744 17.821 21.498 18.2148C21.3216 18.6086 21.4979 19.0708 21.8916 19.2472Z" fill="var(--fill-0, black)"/>
<path id="Vector_2" d="M17.0492 19.6473C17.156 19.6473 17.2645 19.6252 17.3681 19.5788L18.1085 19.2472C18.5022 19.0708 18.6785 18.6086 18.502 18.2149C18.3256 17.821 17.8634 17.6448 17.4697 17.8213L16.7294 18.1529C16.3356 18.3293 16.1594 18.7915 16.3358 19.1852C16.4657 19.4752 16.7507 19.6473 17.0492 19.6473Z" fill="var(--fill-0, black)"/>
<path id="Vector_3" d="M38.0627 30.2651C37.8481 29.8907 37.3706 29.7615 36.9964 29.9761C36.6221 30.1907 36.4927 30.6681 36.7073 31.0424L37.9781 33.2584C38.4651 34.1078 38.5704 35.0895 38.2746 36.0229C37.9789 36.9562 37.3273 37.6981 36.44 38.1118C35.5529 38.5257 34.5655 38.5479 33.6605 38.1745C32.7553 37.8011 32.071 37.0894 31.7334 36.1704L26.6111 22.2247L30.5877 20.3704L33.2097 24.9428C33.4243 25.3171 33.9017 25.4467 34.276 25.2319C34.6503 25.0173 34.7797 24.5399 34.5651 24.1656L31.5859 18.9703C31.4228 18.6858 31.1056 18.5408 30.7957 18.5859L31.0572 15.5972C31.1782 14.2136 30.6732 12.8682 29.6716 11.9061L29.1914 11.4448C28.2289 7.17761 24.4 4.10405 20 4.10405C15.6063 4.10405 11.7708 7.18003 10.8084 11.4448L10.3284 11.906C9.3268 12.8681 8.82173 14.2135 8.94274 15.5972L9.20422 18.5859C8.89446 18.5409 8.57727 18.6859 8.41407 18.9703L0.666571 32.4813C-0.0303753 33.6966 -0.187327 35.1595 0.235872 36.495C0.659149 37.8304 1.63008 38.936 2.89975 39.528C3.56967 39.8404 4.29544 39.9971 5.022 39.9971H5.02372L5.022 39.9991H34.978L34.9769 39.9971H34.978C35.7045 39.9971 36.4304 39.8403 37.1003 39.528C38.37 38.936 39.3409 37.8304 39.7642 36.495C40.1874 35.1594 40.0304 33.6966 39.3335 32.4813L38.0627 30.2651ZM31.3425 38.4366H8.65751C9.12571 37.9443 9.49508 37.3579 9.73336 36.7092L12.0832 30.3117L14.3648 29.9556C14.6286 29.9144 14.8811 29.845 15.1199 29.7511C16.4355 30.9869 18.1823 31.6857 20 31.6857C21.8176 31.6857 23.5644 30.9869 24.88 29.7511C25.1188 29.845 25.3713 29.9145 25.6352 29.9556L27.9168 30.3117L30.2666 36.7092C30.5049 37.3579 30.8743 37.9443 31.3425 38.4366ZM14.819 17.9893L14.676 16.3546L15.6044 13.8889C15.6775 13.6947 15.7261 13.4934 15.7522 13.2899C16.3634 12.9009 17.0191 12.5994 17.7104 12.3916C19.8244 14.1831 22.3601 15.332 25.0916 15.7372L25.3241 16.3546L25.181 17.9893C25.092 19.0074 25.2108 20.0372 25.5246 21.0073L25.2999 21.1121C24.932 21.2836 24.7568 21.7084 24.8968 22.0895L25.3319 23.2741C24.1113 25.0178 22.1427 26.0495 20.0001 26.0495C17.8569 26.0495 15.8887 25.018 14.6682 23.2742L15.1034 22.0896C15.2434 21.7086 15.0681 21.2837 14.7003 21.1122L14.4756 21.0074C14.7892 20.0372 14.9081 19.0074 14.819 17.9893ZM24.2277 26.4219C24.8649 26.0299 25.4484 25.5479 25.9603 24.9853L27.3005 28.6341L25.876 28.4119C25.5973 28.3683 25.3419 28.2672 25.1186 28.1235C25.1175 28.1228 25.1164 28.1221 25.1153 28.1215C24.5771 27.7733 24.2277 27.103 24.2277 26.4219ZM17.2715 27.1416C18.132 27.4488 19.0521 27.6119 20 27.6119C20.9478 27.6119 21.8679 27.4488 22.7285 27.1415C22.8473 27.7831 23.1396 28.3643 23.5592 28.8329C22.5659 29.6596 21.3067 30.1232 20 30.1232C18.6933 30.1232 17.4341 29.6596 16.4406 28.8329C16.8603 28.3643 17.1526 27.7831 17.2715 27.1416ZM15.7722 26.422C15.7722 27.3867 15.077 28.263 14.1239 28.4118L12.6993 28.6341L14.0396 24.9853C14.5516 25.548 15.135 26.0301 15.7722 26.422ZM29.5007 15.461L29.1639 19.3103L26.9537 20.3409C26.7469 19.6241 26.6723 18.8708 26.7375 18.1255L26.896 16.3137C26.9062 16.1971 26.8901 16.0798 26.8488 15.9703L25.8579 13.3385C25.7511 13.0547 25.7656 12.7357 25.8978 12.4629C26.0546 12.1394 26.3475 11.9175 26.7014 11.8541C26.7683 11.8422 26.8353 11.8362 26.9015 11.8362C27.1851 11.8362 27.4561 11.9444 27.6662 12.1464L28.589 13.0329C29.2481 13.6657 29.5803 14.5508 29.5007 15.461ZM20 5.66653C23.1299 5.66653 25.9124 7.53073 27.1622 10.2863C26.9208 10.2631 26.6739 10.2718 26.4262 10.3162C25.5743 10.4687 24.8692 11.0028 24.4918 11.7816C24.1737 12.4381 24.1386 13.2061 24.3957 13.8891L24.45 14.0332C22.2163 13.548 20.1553 12.4944 18.4302 10.9464C18.2378 10.7737 17.9723 10.7073 17.7215 10.7693C16.9228 10.9662 16.1602 11.2639 15.4435 11.6573C15.0534 10.9462 14.3796 10.4604 13.5739 10.3161C13.3262 10.2718 13.0792 10.2631 12.8378 10.2863C14.0885 7.5319 16.8748 5.66653 20 5.66653ZM11.4108 13.0329L12.3336 12.1464C12.5929 11.8973 12.9446 11.7909 13.2985 11.8541C13.6524 11.9175 13.9453 12.1394 14.1021 12.4629C14.2342 12.7356 14.2488 13.0547 14.1421 13.3383L13.1511 15.9702C13.1098 16.0797 13.0937 16.1971 13.1039 16.3136L13.2624 18.1254C13.3276 18.8707 13.2531 19.624 13.0461 20.3408L10.836 19.3102L10.4991 15.461C10.4198 14.5508 10.7519 13.6657 11.4108 13.0329ZM3.56014 38.1119C2.6728 37.6982 2.02125 36.9563 1.72547 36.023C1.42969 35.0896 1.535 34.1079 2.02203 33.2585L9.4125 20.3704L13.3891 22.2248L8.26681 36.1705C7.92923 37.0895 7.24487 37.8012 6.33972 38.1746C5.43465 38.548 4.44747 38.5257 3.56014 38.1119Z" fill="var(--fill-0, black)"/>
<path id="Vector_4" d="M18.2034 22.9922C18.5085 23.2972 19.0032 23.2972 19.3083 22.9922C19.493 22.8075 19.7385 22.7058 19.9997 22.7058C20.2609 22.7058 20.5064 22.8075 20.6912 22.9922C20.8437 23.1447 21.0437 23.221 21.2436 23.221C21.4435 23.221 21.6434 23.1447 21.796 22.9922C22.1011 22.6871 22.1011 22.1924 21.796 21.8873C21.3162 21.4075 20.6783 21.1433 19.9997 21.1433C19.3211 21.1433 18.6832 21.4075 18.2034 21.8873C17.8983 22.1924 17.8983 22.687 18.2034 22.9922Z" fill="var(--fill-0, black)"/>
<path id="Vector_5" d="M34.9513 10.8049L36.2165 11.5353L33.381 13.1498C33.0061 13.3632 32.8752 13.8403 33.0887 14.2153C33.2327 14.4682 33.4967 14.6101 33.7683 14.6101C33.8994 14.6101 34.0322 14.5771 34.1541 14.5076L38.1737 12.219C38.4169 12.0805 38.5675 11.8224 38.5684 11.5425C38.5692 11.2625 38.4202 11.0035 38.1777 10.8635L37.0194 10.1947L39.5545 8.98714C39.944 8.80159 40.1095 8.33542 39.9239 7.94581C39.7384 7.55628 39.272 7.39104 38.8827 7.57644L35.006 9.42292C34.744 9.54769 34.5727 9.80745 34.5613 10.0974C34.5499 10.3873 34.7001 10.6598 34.9513 10.8049Z" fill="var(--fill-0, black)"/>
<path id="Vector_6" d="M30.2862 8.56978C30.43 8.68408 30.6015 8.73963 30.772 8.73963C31.0019 8.73963 31.2297 8.63861 31.3839 8.44463L34.263 4.82459C34.4373 4.60545 34.481 4.3099 34.3776 4.04975C34.2743 3.7896 34.0395 3.60468 33.7624 3.56499L32.4384 3.3753L34.342 1.31111C34.6345 0.993921 34.6144 0.499707 34.2973 0.20721C33.9801 -0.0852871 33.4859 -0.0652873 33.1934 0.251897L30.2824 3.40843C30.0857 3.62171 30.0235 3.92647 30.1207 4.19991C30.2179 4.47334 30.4587 4.67029 30.746 4.71138L32.1921 4.91849L30.1612 7.47214C29.8925 7.80979 29.9486 8.30119 30.2862 8.56978Z" fill="var(--fill-0, black)"/>
<path id="Vector_7" d="M0.445562 8.98714L2.98064 10.1947L1.82228 10.8635C1.57978 11.0035 1.4308 11.2625 1.43166 11.5425C1.43251 11.8224 1.58306 12.0805 1.82634 12.219L5.84587 14.5076C5.96791 14.5771 6.10072 14.6101 6.23173 14.6101C6.50337 14.6101 6.76728 14.4682 6.91134 14.2153C7.12478 13.8403 6.99392 13.3633 6.619 13.1498L3.78353 11.5353L5.04869 10.8049C5.30002 10.6598 5.45017 10.3874 5.43869 10.0974C5.42728 9.80745 5.25595 9.54769 4.994 9.42292L1.11736 7.57644C0.727906 7.39089 0.261656 7.55628 0.0761087 7.94581C-0.109438 8.33534 0.0559525 8.80159 0.445562 8.98714Z" fill="var(--fill-0, black)"/>
<path id="Vector_8" d="M7.56174 3.3753L6.23769 3.56499C5.96058 3.60468 5.72582 3.7896 5.62246 4.04975C5.5191 4.3099 5.56277 4.60553 5.73707 4.82459L8.61618 8.44463C8.7704 8.63853 8.99821 8.73963 9.22813 8.73963C9.39852 8.73963 9.57016 8.68416 9.7139 8.56978C10.0516 8.30119 10.1077 7.80971 9.83906 7.47206L7.80799 4.91841L9.25414 4.71131C9.54141 4.67014 9.78219 4.47318 9.87945 4.19983C9.97664 3.92639 9.91437 3.62171 9.71773 3.40835L6.80667 0.251819C6.51425 -0.0652873 6.01996 -0.0855215 5.70269 0.207132C5.38551 0.499629 5.36551 0.993843 5.65801 1.31103L7.56174 3.3753Z" fill="var(--fill-0, black)"/>
<path id="Vector_9" d="M35.6444 28.3802C36.0758 28.3802 36.4256 28.0304 36.4256 27.5989C36.4256 27.1674 36.0758 26.8177 35.6444 26.8177C35.2129 26.8177 34.8631 27.1674 34.8631 27.5989C34.8631 28.0304 35.2129 28.3802 35.6444 28.3802Z" fill="var(--fill-0, black)"/>
</g>
</svg>
