<svg width="99" height="99" viewBox="0 0 99 99" fill="none" xmlns="http://www.w3.org/2000/svg">
<circle cx="49.9183" cy="49.0733" r="48.4898" fill="white" stroke="black" stroke-width="0.979592"/>
<path d="M61.3549 41.1387C68.5697 42.7822 73.8973 48.2027 73.8973 54.7092C73.8973 56.3826 73.5355 58.0162 72.8611 59.5038L76.9666 65.3445C77.4559 66.0488 76.8299 66.988 75.9895 66.8022L68.3347 65.0902C65.6271 67.2622 61.2667 68.7982 56.7502 68.7982C49.0469 68.7982 42.4874 64.6302 40.3367 58.8287C41.0702 59.0146 41.8129 59.1513 42.5657 59.2396C44.8139 63.7202 50.2982 66.9196 56.7502 66.9196C60.8465 66.9196 64.6885 65.6186 67.5335 63.3484C67.7486 63.1725 68.0413 63.1042 68.3155 63.1626L74.0241 64.4444L71.0231 60.1689C70.8179 59.8848 70.7887 59.5131 70.9447 59.2097C71.649 57.7812 72.0201 56.2651 72.0201 54.7092C72.0201 49.4553 67.8262 44.9249 61.9318 43.223C61.8043 42.5087 61.6092 41.8137 61.3549 41.1387Z" fill="black"/>
<path d="M27.4634 50.815C26.7697 49.4257 26.2905 47.4097 26.2905 45.3161C26.2905 36.4612 34.7664 29.3486 45.1481 29.3486C55.5205 29.3486 63.9958 36.4612 63.9958 45.3161C63.9958 54.1704 55.5205 61.2836 45.1481 61.2836C40.3383 61.2836 35.8026 59.7576 32.3515 57.0473L23.8563 59.0042C23.0253 59.2 22.39 58.27 22.8693 57.5657L27.4634 50.815ZM45.1481 31.2272C35.7342 31.2272 28.1677 37.577 28.1677 45.3161C28.1677 47.1263 28.5779 48.8774 29.3698 50.5209C29.5165 50.8243 29.4873 51.1867 29.2915 51.4602L25.792 56.6265L32.3715 55.1097C32.6549 55.0513 32.9476 55.1196 33.1726 55.3055C36.3303 57.9082 40.5925 59.4051 45.1481 59.4051C54.5527 59.4051 62.1192 53.0553 62.1192 45.3161C62.1192 37.577 54.5527 31.2272 45.1481 31.2272Z" fill="black"/>
<path fill-rule="evenodd" clip-rule="evenodd" d="M38.6568 45.317C38.6568 46.3538 37.8165 47.1955 36.7803 47.1955C35.7434 47.1955 34.9031 46.3538 34.9031 45.317C34.9031 44.2802 35.7434 43.4385 36.7803 43.4385C37.8165 43.4385 38.6568 44.2802 38.6568 45.317Z" fill="black"/>
<path fill-rule="evenodd" clip-rule="evenodd" d="M47.1065 45.317C47.1065 46.3538 46.2654 47.1955 45.2293 47.1955C44.1931 47.1955 43.3521 46.3538 43.3521 45.317C43.3521 44.2802 44.1931 43.4385 45.2293 43.4385C46.2654 43.4385 47.1065 44.2802 47.1065 45.317Z" fill="black"/>
<path fill-rule="evenodd" clip-rule="evenodd" d="M55.547 45.317C55.547 46.3538 54.7059 47.1955 53.6697 47.1955C52.6336 47.1955 51.7932 46.3538 51.7932 45.317C51.7932 44.2802 52.6336 43.4385 53.6697 43.4385C54.7059 43.4385 55.547 44.2802 55.547 45.317Z" fill="black"/>
</svg>
