<svg width="44" height="44" viewBox="0 0 44 44" fill="none" xmlns="http://www.w3.org/2000/svg">
<rect width="44" height="44" rx="22" fill="#FFD23F"/>
<mask id="mask0_5_1950" style="mask-type:luminance" maskUnits="userSpaceOnUse" x="10" y="11" width="24" height="22">
<path d="M10 11H33.5005V32.3662H10V11Z" fill="white"/>
</mask>
<g mask="url(#mask0_5_1950)">
<path d="M31.3689 25.4313L31.3539 25.4495C31.0406 25.8186 30.4851 25.8645 30.1156 25.5516L29.9123 25.3797C29.887 25.3559 29.8617 25.332 29.835 25.3095L28.4454 24.1334C28.1246 23.8145 28.0969 23.296 28.3953 22.9443L28.4107 22.926C28.5845 22.7213 28.8323 22.6164 29.0819 22.6164C29.2824 22.6164 29.4842 22.6843 29.6491 22.8239L31.2677 24.1938C31.6373 24.5067 31.6832 25.0613 31.3689 25.4313ZM29.4496 27.1202L29.4341 27.1389C29.1217 27.5066 28.5686 27.5534 28.199 27.2429C28.1747 27.2195 28.1499 27.1965 28.1236 27.1745L26.7302 25.9952C26.4127 25.6757 26.3865 25.1601 26.6829 24.8107L26.6993 24.791C26.8511 24.6121 27.0637 24.5034 27.2974 24.4838C27.5302 24.4636 27.756 24.5372 27.9344 24.6866C27.9588 24.71 27.9836 24.7329 28.0098 24.7549L29.4018 25.9333C29.5489 26.0795 29.6383 26.271 29.6556 26.4799C29.6748 26.7136 29.6018 26.9403 29.4496 27.1202ZM27.7391 28.9847L27.7222 29.0039C27.4094 29.3725 26.8544 29.4184 26.4844 29.106L26.2216 28.8836C26.1963 28.8592 26.171 28.8358 26.1443 28.8133L25.0203 27.8621C24.8737 27.7155 24.7837 27.5239 24.7664 27.315C24.7472 27.0813 24.8198 26.8541 24.9715 26.6757L24.9879 26.6565C25.3003 26.2884 25.8535 26.2425 26.2225 26.5516C26.2474 26.575 26.2722 26.5979 26.2984 26.6204L27.6913 27.7993C27.8379 27.9459 27.9269 28.137 27.9442 28.3454C27.9634 28.5787 27.8908 28.8058 27.7391 28.9847ZM25.7598 30.6231L25.7434 30.6423C25.5917 30.8212 25.3795 30.9303 25.1453 30.9495C24.9107 30.9678 24.6844 30.8961 24.5051 30.7444L23.3623 29.7772C22.9932 29.4643 22.9468 28.9098 23.2611 28.5398L23.2765 28.5215C23.4283 28.3426 23.6405 28.2339 23.8746 28.2143C24.1065 28.1951 24.3327 28.2677 24.5116 28.4171C24.536 28.4405 24.5608 28.4634 24.587 28.4854L25.7111 29.4367C25.8577 29.5833 25.9476 29.7748 25.9649 29.9837C25.9841 30.2175 25.9111 30.4446 25.7598 30.6231ZM22.3675 31.2502C22.0092 31.6235 21.4082 31.6422 21.0265 31.2914L21.0083 31.2745C20.6237 30.9214 20.5956 30.3186 20.945 29.9303L22.1173 28.6311C22.2565 28.477 22.2438 28.2391 22.0892 28.1005C21.9352 27.9614 21.6968 27.974 21.5577 28.1281L19.8856 29.9819C19.546 30.3584 18.9615 30.3898 18.5836 30.0521L18.5634 30.0343C18.377 29.8681 18.2679 29.639 18.2562 29.3894C18.2445 29.1402 18.3316 28.9023 18.5016 28.7192L20.1568 26.9352C20.2982 26.783 20.2893 26.546 20.1376 26.4045C19.9863 26.2631 19.7484 26.271 19.6065 26.4218L17.8534 28.285C17.4239 28.7412 16.7199 28.773 16.2516 28.3557L16.2286 28.3356C15.994 28.1267 15.8577 27.8391 15.8441 27.5258C15.8315 27.2124 15.9434 26.9146 16.1598 26.6869L17.6126 25.1624C17.756 25.0116 17.7499 24.7737 17.5991 24.6308C17.4487 24.4875 17.2103 24.4936 17.0665 24.6439L15.291 26.508C14.8465 26.975 14.0966 27.0017 13.6199 26.5675L13.596 26.546C13.359 26.3296 13.2208 26.0345 13.2072 25.7141C13.1941 25.3938 13.307 25.0879 13.5252 24.8528L14.2072 24.118C14.2095 24.1152 14.2119 24.1128 14.2142 24.1105L20.0472 17.826L21.2069 18.7449C22.3323 19.6372 23.8236 19.9158 25.1964 19.491L25.2783 19.4653C25.7261 19.3271 26.0553 18.9716 26.1579 18.515C26.2614 18.0583 26.1167 17.5965 25.7715 17.2794L22.2429 14.0393L23.0489 13.2773C25.2666 11.1813 28.8042 11.2525 30.9352 13.436L31.0106 13.5133C32.8471 15.3952 33.1229 18.3487 31.6757 20.5233L30.3095 22.3967L30.1357 22.2501C29.45 21.6698 28.4178 21.7546 27.8356 22.4403L27.8201 22.459C27.5382 22.7906 27.4028 23.2126 27.4389 23.6463C27.4412 23.6749 27.4445 23.7035 27.4482 23.7316C26.9593 23.7086 26.4652 23.9039 26.1251 24.3048L26.1083 24.324C25.7977 24.6903 25.6778 25.1549 25.7378 25.5971C25.2483 25.5741 24.7542 25.7689 24.4137 26.1699L24.3973 26.1895C24.1154 26.5211 23.98 26.9431 24.0161 27.3768C24.018 27.4049 24.0212 27.4335 24.025 27.4611C23.9547 27.4583 23.884 27.4588 23.8128 27.4649C23.3782 27.501 22.9838 27.7033 22.7014 28.0363L22.6859 28.0546C22.1042 28.7398 22.189 29.7702 22.8756 30.3509L23.0714 30.5167L22.3675 31.2502ZM11.6733 20.5209C10.2284 18.3346 10.5071 15.3905 12.3394 13.5133L12.4148 13.436C14.5463 11.2525 18.0838 11.1813 20.3053 13.281L25.2619 17.833C25.4062 17.9656 25.4666 18.1585 25.4235 18.3496C25.3804 18.5407 25.2427 18.6892 25.0554 18.7473L24.9734 18.7726C23.8386 19.1238 22.6054 18.8934 21.6747 18.1562L20.242 17.0209C20.0879 16.8982 19.8655 16.915 19.732 17.0598L13.9515 23.2876L11.6733 20.5209ZM31.7548 23.6201L30.8851 22.8843L32.2935 20.9528C33.9454 18.4719 33.6325 15.1221 31.5502 12.9888L31.4743 12.911C29.0575 10.4352 25.046 10.3542 22.5314 12.7312L21.6874 13.5288L20.8186 12.7312C18.3039 10.3547 14.2924 10.4348 11.8757 12.911L11.8003 12.9888C9.71746 15.1221 9.4046 18.4719 11.057 20.9528C11.0635 20.9636 11.071 20.9739 11.0795 20.9837L13.4344 23.844L12.973 24.3418C12.6171 24.725 12.433 25.2238 12.455 25.746C12.4771 26.2678 12.7019 26.7492 13.0883 27.101L13.1122 27.123C13.6601 27.6223 14.4297 27.7482 15.0905 27.5113C15.091 27.5267 15.0915 27.5417 15.0919 27.5572C15.1135 28.0761 15.3397 28.552 15.728 28.8976L15.7509 28.9177C16.2488 29.3603 16.9064 29.4976 17.5021 29.3393C17.5021 29.3678 17.5026 29.3964 17.504 29.425C17.5255 29.8774 17.7232 30.2933 18.0613 30.595L18.0815 30.6127C18.614 31.0881 19.3709 31.1603 19.9713 30.8507C20.0313 31.2141 20.2083 31.5612 20.4996 31.8286L20.5179 31.8455C20.8434 32.1452 21.2593 32.2932 21.6752 32.2932C22.1267 32.2932 22.5777 32.1181 22.9108 31.771L23.647 31.0038L24.0184 31.3181C24.3243 31.5771 24.699 31.704 25.0718 31.704C25.535 31.704 25.9959 31.5083 26.3176 31.1284L26.334 31.1092C26.5921 30.8052 26.727 30.4259 26.7204 30.0315C26.8295 30.0535 26.9405 30.0652 27.0511 30.0652C27.5143 30.0652 27.9747 29.8699 28.2969 29.4901L28.3133 29.4709C28.5953 29.1388 28.7306 28.7173 28.695 28.2836C28.6922 28.2545 28.6889 28.2264 28.6852 28.1979C28.711 28.1993 28.7367 28.1997 28.7625 28.1997C29.2257 28.1997 29.6865 28.0044 30.0093 27.6237L30.0247 27.6054C30.2912 27.2916 30.427 26.8972 30.4102 26.4884C30.5001 26.5033 30.591 26.5108 30.6818 26.5108C31.1455 26.5108 31.6064 26.3151 31.9291 25.9347L31.9445 25.9165C32.5258 25.2313 32.441 24.2013 31.7548 23.6201Z" fill="black"/>
</g>
</svg>
