<svg xmlns="http://www.w3.org/2000/svg" width="100" height="55" viewBox="0 0 100 55" fill="none">
  <mask id="mask0_5_253" style="mask-type:luminance" maskUnits="userSpaceOnUse" x="0" y="0" width="100" height="55">
    <path d="M0 0H99.6667V54.0893H0V0Z" fill="white"/>
  </mask>
  <g mask="url(#mask0_5_253)">
    <path d="M42.3118 12.4976C43.7542 12.7043 44.9597 11.7854 46.3864 11.6947C48.9484 11.5315 51.3895 12.6983 53.9262 12.8808C55.3916 12.9848 56.6285 12.5169 58.0467 12.3513C59.4081 12.1941 60.5773 12.0031 61.2411 10.6537C61.8456 9.42651 61.605 7.89703 60.7671 6.8415C60.0417 5.92865 58.968 5.44744 57.8436 5.27575C57.8061 4.17549 57.1206 3.10062 56.1231 2.53235C55.2163 2.01728 54.1172 1.99552 53.1137 2.14182C52.7062 2.20106 51.5818 2.68228 51.2432 2.56621C50.9785 2.47794 50.7632 1.95079 50.5359 1.68358C49.3994 0.34634 47.4056 0.0102166 45.7782 0.518029C43.724 1.15884 42.3674 2.95674 41.2442 4.67967C41.2309 4.70023 41.2309 4.72078 41.22 4.74255C41.1063 4.74375 40.9879 4.75343 40.8549 4.80421C38.4742 5.73882 36.6799 8.59829 38.7232 10.8242C39.6022 11.7866 41.0423 12.315 42.3118 12.4976ZM41.4122 6.82458C41.7375 6.69762 41.9346 6.46185 42.0349 6.19706C42.4025 6.24785 42.7954 6.13298 43.0554 5.73641C43.8256 4.55635 44.7251 3.20944 46.0744 2.63271C47.3524 2.08741 48.4962 2.42958 49.2531 3.53105C50.2216 4.94325 51.2021 4.70385 52.7304 4.34355C53.4728 4.16944 54.4812 3.95181 55.1764 4.40279C55.6201 4.69056 55.9441 5.24189 55.637 5.7219C55.2199 6.37117 55.7604 7.34206 56.5438 7.29853C57.6707 7.23566 59.1845 7.5198 59.4505 8.83285C59.7684 10.4095 58.1737 10.1532 57.1435 10.3696C55.9308 10.6259 54.8934 10.8871 53.636 10.7589C52.5273 10.6453 51.4464 10.3382 50.363 10.0855C48.1154 9.56072 45.9088 9.34308 43.7107 10.1894C42.6818 10.586 41.2514 10.3321 40.4051 9.54379C39.3435 8.55839 40.3253 7.25017 41.4122 6.82458ZM66.3132 38.2001C65.8465 36.3914 64.4149 34.8728 62.501 34.5499C60.7744 34.2598 59.1288 34.9961 58.0516 36.2608C56.9344 33.5802 54.5464 31.4353 51.6543 30.8586C48.6594 30.2625 45.6126 31.341 43.5184 33.4605C42.2513 27.8915 37.7016 23.4458 32.1894 21.8873C25.8478 20.0918 19.2232 22.7941 15.1426 27.79C12.9735 30.4463 11.6024 33.5899 11.0922 36.9632C9.15526 35.6248 6.55212 35.2947 4.325 36.1193C1.49334 37.1676 -0.160676 39.9448 0.0678395 42.9313C0.306028 46.0241 2.3409 48.7566 5.46153 49.4071C6.42033 49.6054 7.55928 49.3309 8.45158 49.6815C9.22781 49.9862 9.85169 50.922 10.5384 51.425C11.785 52.3342 13.2625 52.9098 14.7823 53.1552C17.9924 53.6739 21.3766 52.7514 23.7246 50.5001C25.4947 52.304 27.6179 54.0922 30.2815 53.9568C33.1663 53.8069 35.304 51.3863 38.1235 51.1312C39.7897 50.9801 41.2176 51.9171 42.6407 52.6353C43.9344 53.287 45.2511 53.7513 46.7116 53.8069C49.1189 53.8964 51.4923 52.9557 53.2092 51.2896C55.1474 53.1492 57.9246 53.9544 60.5882 53.5469C62.0173 53.3293 63.3485 52.7514 64.4742 51.8434C65.2746 51.1977 65.8658 50.6476 66.9576 50.6077C67.8161 50.5762 68.6648 50.5932 69.5221 50.4928C72.2292 50.1736 75.1636 49.2064 76.7403 46.8281C78.4378 44.2637 77.6882 40.8262 75.4973 38.8047C72.9534 36.4579 69.1823 36.5667 66.3132 38.2001ZM71.3381 48.6067C69.7373 49.0407 68.203 48.9815 66.5755 49.0939C64.8647 49.2112 64.0389 50.4698 62.6424 51.2618C59.7394 52.9122 55.8885 52.1674 53.7412 49.6598C53.4873 49.3647 52.9166 49.366 52.6639 49.6598C50.9398 51.6668 48.2169 52.6982 45.5932 52.148C42.9732 51.6003 40.9419 49.3962 38.1235 49.609C35.628 49.7952 33.7104 51.5592 31.3769 52.2291C28.4159 53.0802 26.1549 50.8555 24.2784 48.8835C24.0076 48.5994 23.4683 48.5801 23.2011 48.8835C20.9704 51.4153 17.377 52.3391 14.1403 51.4698C12.3194 50.9813 11.2482 49.933 9.85653 48.7675C9.20605 48.2234 8.50115 48.0529 7.6681 48.0287C6.46749 47.9924 5.42163 47.9719 4.33105 47.3819C1.5006 45.8536 0.66996 41.6025 2.66494 39.09C4.81709 36.3805 9.26771 36.6852 11.3703 39.2496C11.993 40.0077 13.0654 38.9256 12.4488 38.1735C12.4186 38.1348 12.3799 38.107 12.3484 38.0708C12.4161 37.9704 12.4681 37.8555 12.4851 37.7129C13.1102 32.0109 16.8172 26.7695 21.9787 24.2546C27.3216 21.6539 33.6475 22.8328 37.9748 26.8191C40.347 29.0051 41.995 31.9238 42.3178 35.1569C42.3916 35.9053 43.296 36.1955 43.7385 35.5414C45.4252 33.0422 48.6171 31.6856 51.583 32.3954C54.4146 33.0736 56.5378 35.4773 57.1085 38.2836C57.2705 39.0767 58.3454 38.9316 58.5787 38.2836C59.1143 36.7903 60.7115 35.7651 62.3027 36.0589C63.918 36.3563 64.9832 37.893 64.9735 39.4757C64.9699 40.0017 65.6433 40.4913 66.1197 40.1322C69.059 37.9196 73.7079 37.7491 75.5989 41.4114C77.4077 44.925 74.5784 47.7277 71.3381 48.6067ZM98.1421 17.5926C96.8593 16.2493 94.9973 15.5747 93.2974 16.0087C93.6008 13.1795 92.1584 10.1894 89.5178 8.94651C86.4661 7.51012 82.7264 8.69623 80.8451 11.4142C79.4462 9.99478 77.4186 9.23669 75.4018 9.6115C72.8567 10.0855 70.8484 12.2872 70.5111 14.8287C70.4095 15.6001 70.5159 16.6665 69.6901 17.0715C69.0977 17.3641 68.3577 17.3726 67.7399 17.6494C66.6167 18.1524 65.6494 19.006 65.0025 20.0531C63.7245 22.1218 64.1598 24.6536 66.0726 26.1541C67.9672 27.6413 70.6598 27.8347 72.9571 27.4563C74.7163 27.1661 76.305 27.0488 78.0775 27.3209C79.5078 27.5433 80.9188 27.871 82.3588 28.0282C83.8412 28.1914 85.1929 28.0439 86.6293 27.6908C88.2591 27.2906 89.8309 27.8819 91.4632 27.9883C94.0675 28.1612 96.7843 26.7345 98.3247 24.6681C99.9388 22.5003 100.062 19.6057 98.1421 17.5926ZM96.077 24.8447C95.2488 25.5363 94.2501 26.0417 93.2067 26.3089C91.8477 26.6547 90.56 26.3306 89.2046 26.1335C86.9171 25.7998 84.8326 26.749 82.5317 26.5229C80.2321 26.298 78.0074 25.5967 75.6811 25.5967C73.5072 25.5967 71.4735 26.379 69.2839 25.934C67.3131 25.5326 65.2262 24.0406 65.8852 21.7627C66.1814 20.7386 66.9492 19.8548 67.8487 19.3023C68.7797 18.7292 69.9561 18.7981 70.84 18.1645C71.7226 17.5334 71.8471 16.4742 71.9632 15.4804C72.1131 14.2012 72.5242 13.0936 73.5048 12.2098C75.7174 10.21 79.1052 10.9681 80.5343 13.4926C81.018 14.345 82.3347 13.5797 81.851 12.7249C81.8281 12.6826 81.7954 12.6487 81.7724 12.6088C81.8631 12.552 81.9478 12.4746 82.0155 12.367C83.4555 10.129 86.6196 9.1327 89.0269 10.4022C91.4245 11.6669 92.3966 14.68 91.4898 17.161C91.2008 17.9505 92.237 18.3265 92.7617 17.9021C94.3251 16.6374 96.5921 17.797 97.5388 19.2769C98.7696 21.1945 97.6609 23.5195 96.077 24.8447Z" fill="#FF6A01"/>
  </g>
</svg>