<svg preserveAspectRatio="none" width="100%" height="100%" overflow="visible" style="display: block;" viewBox="0 0 30.72 30.72" fill="none" xmlns="http://www.w3.org/2000/svg">
<g id="fluent-emoji-flat:star">
<path id="Vector" d="M17.953 4.44166L20.1101 8.57926C20.2706 8.88384 20.5009 9.14607 20.7822 9.34448C21.0636 9.54288 21.3879 9.67181 21.7287 9.7207L26.2848 10.3447C28.7213 10.6807 29.6659 13.6845 27.864 15.3549L24.744 18.234C24.4784 18.4786 24.279 18.7865 24.1644 19.1289C24.0498 19.4713 24.0236 19.8371 24.0883 20.1924L24.8496 24.4145C25.273 26.7665 22.8259 28.6001 20.6784 27.5249L16.3239 25.3649C16.0241 25.218 15.6948 25.1417 15.361 25.1417C15.0272 25.1417 14.6978 25.218 14.3981 25.3649L10.0435 27.5249C7.89506 28.5905 5.44898 26.7665 5.87234 24.4145L6.63362 20.1914C6.76802 19.4714 6.51842 18.7322 5.9789 18.233L2.85794 15.3549C1.05602 13.6941 2.00066 10.6797 4.43714 10.3437L8.9933 9.71974C9.33507 9.6739 9.66071 9.54618 9.94252 9.34745C10.2243 9.14871 10.4539 8.88485 10.6119 8.5783L12.7699 4.44166C13.8682 2.35846 16.8634 2.35846 17.952 4.44166" fill="var(--fill-0, #FCD53F)"/>
</g>
</svg>
