<svg width="24" height="24" viewBox="0 0 24 24" fill="none" xmlns="http://www.w3.org/2000/svg">
  <path
    d="M12 24C13.5761 24.0019 15.1371 23.6924 16.5933 23.0892C18.0495 22.4861 19.3721 21.6011 20.4852 20.4852C21.6011 19.3721 22.4861 18.0495 23.0892 16.5933C23.6924 15.1371 24.0019 13.5761 24 12C24.0019 10.4239 23.6924 8.86286 23.0892 7.4067C22.4861 5.95054 21.6011 4.62791 20.4852 3.51481C19.3721 2.3989 18.0495 1.51394 16.5933 0.910758C15.1371 0.307576 13.5761 -0.0019345 12 9.09715e-06C10.4239 -0.0019345 8.86286 0.307576 7.4067 0.910758C5.95054 1.51394 4.62791 2.3989 3.51481 3.51481C2.3989 4.62791 1.51394 5.95054 0.910758 7.4067C0.307576 8.86286 -0.0019345 10.4239 9.09715e-06 12C-0.0019345 13.5761 0.307576 15.1371 0.910758 16.5933C1.51394 18.0495 2.3989 19.3721 3.51481 20.4852C4.62791 21.6011 5.95054 22.4861 7.4067 23.0892C8.86286 23.6924 10.4239 24.0019 12 24Z"
    fill="#5200FF"
  />
  <path
    d="M8 12L11 15L17 9"
    stroke="#FFFFFF"
    stroke-width="1.5"
    stroke-linecap="round"
    stroke-linejoin="round"
  />
</svg>
