<svg preserveAspectRatio="none" width="100%" height="100%" overflow="visible" style="display: block;" viewBox="0 0 164.926 214.011" fill="none" xmlns="http://www.w3.org/2000/svg">
<g id="Group 22">
<path id="Vector" d="M97.3474 147.355L91.6999 121.296C91.2966 119.444 90.201 117.815 88.6371 116.744C87.0732 115.673 85.1591 115.24 83.2864 115.533C81.821 115.758 80.4032 116.226 79.0911 116.916C77.9385 117.55 76.8551 118.069 75.9446 118.53C74.5363 119.209 72.9233 119.333 71.4278 118.876C69.9323 118.419 68.6642 117.414 67.8768 116.063C65.2029 111.453 62.114 102.659 63.013 87.6989C64.0964 70.1917 65.2374 62.7578 67.1391 59.2079C67.6213 58.3172 68.346 57.5814 69.2293 57.0857C70.1125 56.59 71.1182 56.3548 72.1297 56.4072C74.7588 56.5517 77.3952 56.4823 80.0131 56.1998C81.8216 55.9837 83.4892 55.1152 84.703 53.7572C85.9167 52.3991 86.5933 50.6448 86.6057 48.8235L86.7555 19.3413C86.7735 17.4632 86.0799 15.6479 84.8141 14.2602C83.5484 12.8726 81.8043 12.0155 79.9324 11.8612C71.7724 11.2158 56.7662 12.0572 47.0618 27.5129C32.4244 50.8404 34.0149 111.81 44.1919 137.132C50.4272 152.645 74.769 163.986 93.106 155.791C94.6766 155.089 95.9564 153.866 96.7293 152.328C97.5021 150.791 97.7204 149.034 97.3474 147.355Z" fill="var(--fill-0, #FF6F61)"/>
<path id="Vector_2" d="M75.8516 57.0872C75.6507 57.0873 75.4577 57.0091 75.3135 56.8692C75.1694 56.7294 75.0854 56.5388 75.0794 56.338L74.3763 11.331C74.3763 11.1262 74.4577 10.9298 74.6025 10.785C74.7473 10.6402 74.9438 10.5588 75.1486 10.5588C75.3534 10.5588 75.5498 10.6402 75.6946 10.785C75.8394 10.9298 75.9208 11.1262 75.9208 11.331L76.6238 56.2804C76.6238 56.4832 76.544 56.6779 76.4017 56.8224C76.2594 56.9669 76.0659 57.0496 75.8631 57.0526L75.8516 57.0872Z" fill="var(--fill-0, #412945)"/>
<path id="Vector_3" d="M88.1757 158.759C88.0015 158.758 87.8327 158.699 87.6967 158.59C87.5607 158.481 87.4655 158.329 87.4265 158.16L78.3444 117.014C78.3224 116.915 78.3203 116.814 78.338 116.714C78.3557 116.615 78.393 116.52 78.4477 116.435C78.5024 116.351 78.5734 116.278 78.6566 116.221C78.7398 116.164 78.8335 116.124 78.9322 116.103C79.0314 116.081 79.1339 116.079 79.2339 116.096C79.334 116.114 79.4295 116.151 79.5152 116.206C79.6008 116.26 79.6749 116.331 79.7331 116.415C79.7913 116.498 79.8324 116.592 79.8542 116.691L88.9363 157.802C88.9584 157.902 88.9607 158.004 88.9431 158.104C88.9255 158.204 88.8884 158.3 88.8338 158.385C88.7792 158.471 88.7082 158.545 88.6249 158.603C88.5416 158.661 88.4477 158.703 88.3485 158.724L88.1757 158.759Z" fill="var(--fill-0, #412945)"/>
<path id="Vector_4" d="M45.1642 130.511C45.5648 132.978 46.3423 135.368 47.4693 137.599C48.2078 139.332 49.501 140.772 51.1459 141.69C52.8401 142.474 55.2144 142.036 56.0212 140.354C56.3683 139.51 56.4488 138.581 56.2517 137.691C55.8944 135.628 54.8802 133.726 54.4076 131.686C54.2157 130.175 53.8799 128.685 53.4049 127.238C52.4944 125.198 49.5554 122.985 47.1927 123.78C44.6686 124.575 44.8069 128.425 45.1642 130.511Z" fill="var(--fill-0, #F7EDE5)"/>
<path id="Vector_5" d="M50.519 113.254C50.8827 113.929 51.0379 114.696 50.9651 115.459C50.8922 116.223 50.5944 116.947 50.1096 117.541C49.6247 118.134 48.9745 118.571 48.2414 118.795C47.5083 119.019 46.7251 119.02 45.9912 118.799C45.2573 118.577 44.6056 118.143 44.1188 117.551C43.6319 116.959 43.3317 116.235 43.2563 115.473C43.1808 114.71 43.3334 113.942 43.6948 113.266C44.0562 112.59 44.6101 112.036 45.2864 111.675C45.7332 111.433 46.2235 111.282 46.729 111.23C47.2344 111.179 47.7451 111.228 48.2315 111.375C48.718 111.521 49.1705 111.763 49.5631 112.086C49.9557 112.408 50.2806 112.805 50.519 113.254Z" fill="var(--fill-0, #F7EDE5)"/>
<path id="Vector_6" d="M80.5617 26.9805C80.4639 28.0579 80.4639 29.1418 80.5617 30.2192C80.6194 30.7573 80.8566 31.2602 81.2351 31.647C81.6135 32.0339 82.1112 32.282 82.6478 32.3514C83.9156 32.3514 84.6994 30.9683 85.0221 29.7351C85.9654 25.8667 85.6917 21.8014 84.2384 18.0944C83.6621 16.815 81.9333 15.3398 80.5157 16.3079C79.098 17.2761 79.3631 19.7656 79.559 21.2178C80.0584 23.1063 80.3938 25.0343 80.5617 26.9805Z" fill="var(--fill-0, #F7EDE5)"/>
<path id="Vector_7" d="M84.6581 35.949C84.8171 36.2637 84.8801 36.6182 84.8392 36.9685C84.7983 37.3187 84.6553 37.6492 84.4281 37.9188C84.2009 38.1884 83.8993 38.3852 83.5611 38.4848C83.2228 38.5844 82.8628 38.5823 82.5257 38.4788C82.1887 38.3753 81.8894 38.175 81.6653 37.9028C81.4411 37.6306 81.302 37.2985 81.2652 36.9478C81.2284 36.5971 81.2954 36.2434 81.4581 35.9305C81.6208 35.6177 81.8718 35.3596 82.1801 35.1883C82.3916 35.0708 82.6248 34.9971 82.8655 34.9718C83.1062 34.9466 83.3496 34.9701 83.581 35.0412C83.8124 35.1122 84.0271 35.2292 84.2121 35.3852C84.3972 35.5412 84.5489 35.733 84.6581 35.949Z" fill="var(--fill-0, #F7EDE5)"/>
<path id="Vector_8" d="M146.169 199.996C143.501 197.78 140.395 196.153 137.054 195.221C133.713 194.289 130.213 194.075 126.783 194.591C126.443 194.056 126.057 193.55 125.63 193.081C123.202 190.665 120.056 189.1 116.664 188.621C112.878 188 108.998 188.288 105.346 189.462C103.928 186.942 101.894 184.825 99.433 183.307C94.9843 180.712 89.7947 179.681 84.6919 180.38C84.277 180.38 83.8621 180.484 83.4472 180.564C83.065 179.251 82.5953 177.965 82.0411 176.715C81.1621 174.692 80.0396 172.784 78.6987 171.033C79.3936 169.247 79.8133 167.366 79.9435 165.454C80.09 163.114 79.7888 160.767 79.056 158.539C78.0943 155.53 76.3852 152.813 74.0885 150.644C74.0177 150.572 73.9334 150.515 73.8404 150.476C73.7474 150.437 73.6476 150.417 73.5468 150.417C73.446 150.417 73.3462 150.437 73.2532 150.476C73.1602 150.515 73.0759 150.572 73.0051 150.644C72.9333 150.715 72.8763 150.799 72.8374 150.892C72.7985 150.985 72.7785 151.085 72.7785 151.186C72.7785 151.287 72.7985 151.386 72.8374 151.479C72.8763 151.572 72.9333 151.657 73.0051 151.727C74.8381 153.463 76.2688 155.579 77.1967 157.926C78.1245 160.274 78.5271 162.796 78.376 165.316C78.2837 166.788 77.9969 168.241 77.5231 169.638C76.2725 168.266 74.814 167.099 73.2011 166.18C68.7061 163.656 63.2546 163.795 59.624 166.538C58.5837 167.358 57.7243 168.384 57.0995 169.553C56.4748 170.721 56.0982 172.006 55.9935 173.326C55.8672 174.442 55.9796 175.572 56.3233 176.641C56.6671 177.71 57.2344 178.694 57.9874 179.527C61.5603 183.33 68.0492 182.454 72.2444 179.4C74.6806 177.64 76.6573 175.32 78.0072 172.635C79.0482 174.108 79.9364 175.684 80.658 177.337C81.1655 178.484 81.6005 179.662 81.9604 180.864C75.8634 182.305 69.7319 186.258 67.9915 192.701C67.5047 194.127 67.5622 195.682 68.1529 197.069C69.3055 199.305 72.0255 200.008 74.2614 199.72C78.7448 199.132 82.698 195.248 83.8967 190.269C84.5055 187.561 84.4858 184.75 83.8391 182.051L84.8879 181.913C89.6438 181.249 94.4851 182.198 98.6378 184.61C100.801 185.941 102.605 187.781 103.893 189.969C99.7444 191.541 96.1052 194.22 93.3707 197.714C91.3883 200.273 89.913 204.215 92.2181 206.935C94.0046 209.021 97.0588 208.975 99.1334 208.306C103.963 206.739 107.455 201.471 107.27 196.054C107.213 194.269 106.823 192.51 106.118 190.868C109.473 189.829 113.026 189.588 116.491 190.165C119.542 190.583 122.373 191.983 124.559 194.153C124.781 194.39 124.989 194.64 125.181 194.902C120.156 195.928 114.163 199.028 112.342 204.722C111.696 206.716 111.662 209.436 113.494 211.061C114.731 212.042 116.305 212.494 117.874 212.317C119.743 212.217 121.559 211.661 123.163 210.696C124.767 209.732 126.111 208.39 127.076 206.787C128.042 205.183 128.6 203.368 128.701 201.499C128.803 199.63 128.445 197.765 127.659 196.066C130.768 195.675 133.923 195.925 136.932 196.799C139.941 197.673 142.739 199.153 145.155 201.149C146.97 202.783 148.443 204.761 149.488 206.969C150.533 209.177 151.128 211.571 151.24 214.011L152.785 213.619C152.635 211.024 151.974 208.485 150.838 206.147C149.703 203.808 148.116 201.718 146.169 199.996ZM71.3685 178.098C67.7149 180.76 62.1481 181.555 59.14 178.409C58.5351 177.736 58.0812 176.942 57.8088 176.079C57.5365 175.216 57.452 174.305 57.561 173.407C57.6459 172.298 57.959 171.219 58.4806 170.238C59.0022 169.256 59.7211 168.393 60.5922 167.702C62.3032 166.475 64.3655 165.837 66.4702 165.881C68.5772 165.887 70.648 166.43 72.4865 167.46C74.1772 168.439 75.6797 169.711 76.9238 171.217C75.6999 173.953 73.7855 176.325 71.3685 178.098ZM82.3869 189.842C81.3265 194.222 77.8919 197.633 74.0424 198.129C72.3943 198.348 70.2736 197.876 69.5014 196.331C69.1044 195.272 69.1044 194.105 69.5014 193.046C71.0804 187.203 76.7393 183.619 82.3638 182.293C82.9463 184.775 82.9543 187.357 82.3869 189.842ZM98.6263 206.762C96.8629 207.326 94.5578 207.269 93.3476 205.851C91.7456 203.996 92.8059 200.861 94.5001 198.59C97.1058 195.282 100.571 192.755 104.516 191.283C105.203 192.772 105.594 194.381 105.668 196.02C105.864 200.78 102.822 205.402 98.6263 206.762ZM126.357 204.537C125.615 206.257 124.415 207.742 122.89 208.829C121.364 209.916 119.569 210.564 117.701 210.703C116.54 210.841 115.37 210.532 114.428 209.839C113.16 208.686 113.275 206.577 113.736 205.114C115.361 200.031 120.859 197.242 125.469 196.308L125.965 196.216C126.602 197.5 126.965 198.903 127.033 200.335C127.1 201.768 126.87 203.198 126.357 204.537Z" fill="var(--fill-0, #412945)"/>
<path id="Vector_9" d="M97.3474 147.355L91.6999 121.296C91.2966 119.444 90.201 117.815 88.6371 116.744C87.0732 115.673 85.1591 115.24 83.2864 115.533C81.821 115.758 80.4032 116.226 79.0911 116.916C77.9385 117.55 76.8551 118.069 75.9446 118.53C74.5363 119.209 72.9233 119.333 71.4278 118.876C69.9323 118.419 68.6642 117.414 67.8768 116.063C65.2029 111.453 62.114 102.659 63.013 87.6989C64.0964 70.1917 65.2374 62.7578 67.1391 59.2079C67.6213 58.3172 68.346 57.5814 69.2293 57.0857C70.1125 56.59 71.1182 56.3548 72.1297 56.4072C74.7588 56.5517 77.3952 56.4823 80.0131 56.1998C81.8216 55.9837 83.4892 55.1152 84.703 53.7572C85.9167 52.3991 86.5933 50.6448 86.6057 48.8235L86.7555 19.3413C86.7735 17.4632 86.0799 15.6479 84.8141 14.2602C83.5484 12.8726 81.8043 12.0155 79.9324 11.8612C71.7724 11.2158 56.7662 12.0572 47.0618 27.5129C32.4244 50.8404 34.0149 111.81 44.1919 137.132C50.4272 152.645 74.769 163.986 93.106 155.791C94.6766 155.089 95.9564 153.866 96.7293 152.328C97.5021 150.791 97.7204 149.034 97.3474 147.355Z" fill="var(--fill-0, #FF6F61)"/>
<path id="Vector_10" d="M75.8544 57.0862C75.6535 57.0863 75.4605 57.0081 75.3163 56.8683C75.1721 56.7284 75.0882 56.5379 75.0822 56.3371L74.3791 11.3301C74.379 11.1261 74.4584 10.9302 74.6005 10.7839C74.7425 10.6375 74.936 10.5523 75.1398 10.5463C75.3437 10.5462 75.5396 10.6256 75.686 10.7677C75.8323 10.9097 75.9175 11.1032 75.9235 11.307L76.6266 56.2564C76.6266 56.4592 76.5468 56.6539 76.4045 56.7984C76.2621 56.9429 76.0687 57.0256 75.8659 57.0286L75.8544 57.0862Z" fill="var(--fill-0, #412945)"/>
<path id="Vector_11" d="M88.1757 158.759C88.0015 158.758 87.8327 158.699 87.6967 158.59C87.5607 158.481 87.4655 158.329 87.4265 158.16L78.3444 117.014C78.3224 116.915 78.3203 116.814 78.338 116.714C78.3557 116.615 78.393 116.52 78.4477 116.435C78.5024 116.351 78.5734 116.278 78.6566 116.221C78.7398 116.164 78.8335 116.124 78.9322 116.103C79.0314 116.081 79.1339 116.079 79.2339 116.096C79.334 116.114 79.4295 116.151 79.5152 116.206C79.6008 116.26 79.6749 116.331 79.7331 116.415C79.7913 116.498 79.8324 116.592 79.8542 116.691L88.9363 157.802C88.9584 157.902 88.9607 158.004 88.9431 158.104C88.9255 158.204 88.8884 158.3 88.8338 158.385C88.7792 158.471 88.7082 158.545 88.6249 158.603C88.5416 158.661 88.4477 158.703 88.3485 158.724L88.1757 158.759Z" fill="var(--fill-0, #412945)"/>
<path id="Vector_12" d="M45.1642 130.511C45.5648 132.978 46.3423 135.368 47.4693 137.599C48.2078 139.332 49.501 140.772 51.1459 141.69C52.8401 142.474 55.2144 142.036 56.0212 140.354C56.3683 139.51 56.4488 138.581 56.2517 137.691C55.8944 135.628 54.8802 133.726 54.4076 131.686C54.2157 130.175 53.8799 128.685 53.4049 127.238C52.4944 125.198 49.5554 122.985 47.1927 123.78C44.6686 124.575 44.8069 128.425 45.1642 130.511Z" fill="var(--fill-0, #F7EDE5)"/>
<path id="Vector_13" d="M50.519 113.254C50.8827 113.929 51.0379 114.696 50.9651 115.459C50.8922 116.223 50.5944 116.947 50.1096 117.541C49.6247 118.134 48.9745 118.571 48.2414 118.795C47.5083 119.019 46.7251 119.02 45.9912 118.799C45.2573 118.577 44.6056 118.143 44.1188 117.551C43.6319 116.959 43.3317 116.235 43.2563 115.473C43.1808 114.71 43.3334 113.942 43.6948 113.266C44.0562 112.59 44.6101 112.036 45.2864 111.675C45.7332 111.433 46.2235 111.282 46.729 111.23C47.2344 111.179 47.7451 111.228 48.2315 111.375C48.718 111.521 49.1705 111.763 49.5631 112.086C49.9557 112.408 50.2806 112.805 50.519 113.254Z" fill="var(--fill-0, #F7EDE5)"/>
<path id="Vector_14" d="M80.5617 26.9805C80.4639 28.0579 80.4639 29.1418 80.5617 30.2192C80.6194 30.7573 80.8566 31.2602 81.2351 31.647C81.6135 32.0339 82.1112 32.282 82.6478 32.3514C83.9156 32.3514 84.6994 30.9683 85.0221 29.7351C85.9654 25.8667 85.6917 21.8014 84.2384 18.0944C83.6621 16.815 81.9333 15.3398 80.5157 16.3079C79.098 17.2761 79.3631 19.7656 79.559 21.2178C80.0584 23.1063 80.3938 25.0343 80.5617 26.9805Z" fill="var(--fill-0, #F7EDE5)"/>
<path id="Vector_15" d="M84.6581 35.949C84.8171 36.2637 84.8801 36.6182 84.8392 36.9685C84.7983 37.3187 84.6553 37.6492 84.4281 37.9188C84.2009 38.1884 83.8993 38.3852 83.5611 38.4848C83.2228 38.5844 82.8628 38.5823 82.5257 38.4788C82.1887 38.3753 81.8894 38.175 81.6653 37.9028C81.4411 37.6306 81.302 37.2985 81.2652 36.9478C81.2284 36.5971 81.2954 36.2434 81.4581 35.9305C81.6208 35.6177 81.8718 35.3596 82.1801 35.1883C82.3916 35.0708 82.6248 34.9971 82.8655 34.9718C83.1062 34.9466 83.3496 34.9701 83.581 35.0412C83.8124 35.1122 84.0271 35.2292 84.2121 35.3852C84.3972 35.5412 84.5489 35.733 84.6581 35.949Z" fill="var(--fill-0, #F7EDE5)"/>
<path id="Vector_16" d="M92.1301 15.6633L112.542 0.380522C112.712 0.238057 112.91 0.131819 113.123 0.068291C113.336 0.00476286 113.56 -0.0147239 113.78 0.0110118C114.001 0.0367475 114.214 0.107171 114.407 0.217987C114.6 0.328803 114.768 0.477692 114.901 0.655574C115.034 0.833456 115.13 1.0366 115.182 1.25264C115.234 1.46867 115.242 1.69305 115.204 1.91211C115.167 2.13118 115.085 2.34033 114.964 2.52681C114.843 2.7133 114.686 2.87322 114.501 2.99681L114.409 3.06596L93.006 16.8965C92.9235 16.9541 92.8305 16.9947 92.7323 17.0163C92.6341 17.0379 92.5326 17.0399 92.4336 17.0222C92.2336 16.9866 92.0561 16.8729 91.9399 16.7064C91.8238 16.5398 91.7785 16.3339 91.8142 16.1339C91.8498 15.934 91.9635 15.7564 92.1301 15.6402V15.6633Z" fill="var(--fill-0, #412945)"/>
<path id="Vector_17" d="M94.7557 23.2951L123.834 15.769C124.116 15.6933 124.41 15.6738 124.699 15.7116C124.988 15.7494 125.267 15.8438 125.519 15.9894C125.772 16.1349 125.993 16.3288 126.171 16.5599C126.348 16.7911 126.479 17.0549 126.554 17.3364C126.63 17.618 126.65 17.9116 126.612 18.2007C126.574 18.4897 126.48 18.7685 126.334 19.0211C126.189 19.2737 125.995 19.4951 125.764 19.6728C125.532 19.8504 125.269 19.9808 124.987 20.0565H124.78L95.0669 24.8165C94.8669 24.8465 94.6632 24.797 94.4995 24.6784C94.3357 24.5599 94.2249 24.3819 94.1909 24.1826C94.1582 23.991 94.1979 23.794 94.3023 23.63C94.4066 23.466 94.5682 23.3467 94.7557 23.2951Z" fill="var(--fill-0, #412945)"/>
<path id="Vector_18" d="M94.9236 30.3223L117.248 29.1697C117.811 29.1407 118.362 29.3363 118.78 29.7134C119.198 30.0906 119.45 30.6185 119.479 31.1809C119.508 31.7433 119.312 32.2943 118.935 32.7125C118.558 33.1308 118.03 33.3821 117.467 33.4111H117.214L94.8544 31.8551C94.7534 31.8493 94.6546 31.8234 94.5638 31.7789C94.4729 31.7344 94.3918 31.6723 94.3253 31.5961C94.2588 31.5199 94.2081 31.4312 94.1762 31.3351C94.1444 31.2391 94.132 31.1377 94.1399 31.0368C94.1572 30.8412 94.2473 30.6592 94.3925 30.5268C94.5376 30.3945 94.7272 30.3215 94.9236 30.3223Z" fill="var(--fill-0, #412945)"/>
<path id="Vector_19" d="M163.957 15.061L156.846 16.8705L155.036 23.9702C154.965 24.2507 154.802 24.4994 154.573 24.677C154.345 24.8546 154.064 24.951 153.774 24.951C153.485 24.951 153.203 24.8546 152.975 24.677C152.746 24.4994 152.584 24.2507 152.512 23.9702L150.691 16.8705L143.591 15.061C143.313 14.9853 143.068 14.8202 142.892 14.5911C142.717 14.3619 142.622 14.0816 142.622 13.7932C142.622 13.5049 142.717 13.2245 142.892 12.9954C143.068 12.7663 143.313 12.6012 143.591 12.5254L150.691 10.7159L152.512 3.61623C152.584 3.33576 152.746 3.0871 152.975 2.9095C153.203 2.7319 153.485 2.63548 153.774 2.63548C154.064 2.63548 154.345 2.7319 154.573 2.9095C154.802 3.0871 154.965 3.33576 155.036 3.61623L156.846 10.7159L163.957 12.5254C164.235 12.6012 164.481 12.7663 164.656 12.9954C164.831 13.2245 164.926 13.5049 164.926 13.7932C164.926 14.0816 164.831 14.3619 164.656 14.5911C164.481 14.8202 164.235 14.9853 163.957 15.061Z" fill="var(--fill-0, white)"/>
<path id="Vector_20" d="M21.3463 134.111L14.2466 135.932L12.4486 143.009C12.3772 143.289 12.2143 143.538 11.9858 143.715C11.7572 143.893 11.4761 143.989 11.1866 143.989C10.8972 143.989 10.616 143.893 10.3874 143.715C10.1589 143.538 9.99603 143.289 9.92455 143.009L8.1035 135.909L0.980763 134.111C0.700295 134.039 0.451668 133.877 0.274068 133.648C0.0964678 133.42 0 133.138 0 132.849C0 132.559 0.0964678 132.278 0.274068 132.05C0.451668 131.821 0.700295 131.658 0.980763 131.587L8.0805 129.766L9.90148 122.666C9.97295 122.386 10.1358 122.137 10.3644 121.959C10.5929 121.782 10.8741 121.685 11.1636 121.685C11.453 121.685 11.7341 121.782 11.9627 121.959C12.1912 122.137 12.3541 122.386 12.4256 122.666L14.2466 129.766L21.3463 131.587C21.6267 131.658 21.8754 131.821 22.053 132.05C22.2306 132.278 22.327 132.559 22.327 132.849C22.327 133.138 22.2306 133.42 22.053 133.648C21.8754 133.877 21.6267 134.039 21.3463 134.111Z" fill="var(--fill-0, white)"/>
<path id="Vector_21" d="M115.225 90.8831L108.125 92.6926L106.316 99.7923C106.24 100.071 106.075 100.316 105.846 100.491C105.617 100.666 105.336 100.761 105.048 100.761C104.76 100.761 104.479 100.666 104.25 100.491C104.021 100.316 103.856 100.071 103.78 99.7923L101.971 92.6926L94.8711 90.8831C94.5906 90.8116 94.3419 90.6487 94.1643 90.4202C93.9867 90.1917 93.8903 89.9105 93.8903 89.621C93.8903 89.3316 93.9867 89.0504 94.1643 88.8219C94.3419 88.5933 94.5906 88.4305 94.8711 88.359L101.971 86.538L103.78 79.4383C103.856 79.16 104.021 78.9144 104.25 78.7393C104.479 78.5642 104.76 78.4694 105.048 78.4694C105.336 78.4694 105.617 78.5642 105.846 78.7393C106.075 78.9144 106.24 79.16 106.316 79.4383L108.125 86.538L115.225 88.359C115.506 88.4305 115.754 88.5933 115.932 88.8219C116.109 89.0504 116.206 89.3316 116.206 89.621C116.206 89.9105 116.109 90.1917 115.932 90.4202C115.754 90.6487 115.506 90.8116 115.225 90.8831Z" fill="var(--fill-0, white)"/>
</g>
</svg>
