<svg preserveAspectRatio="none" width="100%" height="100%" overflow="visible" style="display: block;" viewBox="0 0 118.709 64.4952" fill="none" xmlns="http://www.w3.org/2000/svg">
<path id="Vector" d="M50.4182 14.666C52.1389 14.9144 53.5768 13.8102 55.2788 13.7012C58.335 13.5051 61.2471 14.9072 64.2731 15.1265C66.0212 15.2515 67.4967 14.6892 69.1885 14.4902C70.8125 14.3013 72.2073 14.0717 72.9991 12.4503C73.7203 10.9756 73.4332 9.13761 72.4337 7.86921C71.5683 6.77226 70.2875 6.194 68.9462 5.98768C68.9015 4.66553 68.0837 3.37388 66.8938 2.69101C65.812 2.07207 64.501 2.04592 63.3038 2.22172C62.8178 2.29291 61.4764 2.87117 61.0726 2.73169C60.7567 2.62563 60.5 1.99216 60.2288 1.67106C58.873 0.0641352 56.4947 -0.339776 54.5533 0.270449C52.1028 1.0405 50.4845 3.20099 49.1446 5.27139C49.1287 5.29609 49.1287 5.32079 49.1158 5.34695C48.9802 5.3484 48.8388 5.36002 48.6802 5.42105C45.8402 6.54415 43.6998 9.9803 46.1374 12.6551C47.1859 13.8116 48.9037 14.4466 50.4182 14.666ZM49.3451 7.84887C49.7331 7.69632 49.9682 7.413 50.0879 7.09481C50.5263 7.15583 50.9951 7.0178 51.3052 6.54125C52.2239 5.1232 53.297 3.50465 54.9067 2.8116C56.4312 2.15634 57.7956 2.56751 58.6985 3.89112C59.8538 5.58813 61.0235 5.30045 62.8466 4.86748C63.7322 4.65826 64.9351 4.39674 65.7644 4.93868C66.2938 5.28447 66.6803 5.947 66.314 6.52381C65.8164 7.30403 66.4611 8.47072 67.3957 8.41842C68.7399 8.34286 70.5457 8.6843 70.863 10.2622C71.2424 12.1568 69.3399 11.8488 68.1111 12.1088C66.6644 12.4168 65.4269 12.7307 63.9269 12.5767C62.6043 12.4401 61.3149 12.0711 60.0226 11.7674C57.3413 11.1368 54.7091 10.8753 52.0869 11.8923C50.8595 12.3689 49.1533 12.0638 48.1436 11.1165C46.8773 9.93236 48.0484 8.3603 49.3451 7.84887ZM79.0496 45.5521C78.4929 43.3785 76.7852 41.5537 74.502 41.1657C72.4424 40.817 70.4794 41.7019 69.1943 43.2216C67.8616 40.0005 65.013 37.423 61.563 36.73C57.9903 36.0137 54.3557 37.3097 51.8576 39.8567C50.346 33.1645 44.9186 27.8221 38.3431 25.9493C30.7781 23.7917 22.8757 27.039 18.0078 33.0425C15.4203 36.2345 13.7847 40.0121 13.1761 44.0658C10.8655 42.4574 7.76016 42.0607 5.10341 43.0516C1.7255 44.3113 -0.247589 47.6487 0.0250087 51.2374C0.309146 54.9539 2.73657 58.2375 6.45919 59.0192C7.60295 59.2575 8.96161 58.9277 10.026 59.349C10.952 59.7152 11.6962 60.8397 12.5155 61.4441C14.0025 62.5367 15.765 63.2283 17.578 63.5232C21.4074 64.1466 25.4444 63.038 28.2454 60.3326C30.357 62.5004 32.8897 64.6493 36.0671 64.4865C39.5085 64.3064 42.0585 61.3976 45.422 61.0911C47.4095 60.9094 49.1129 62.0355 50.8105 62.8985C52.3538 63.6816 53.9244 64.2395 55.6668 64.3064C58.5384 64.4139 61.3697 63.2835 63.4178 61.2814C65.7298 63.516 69.0428 64.4836 72.2202 63.994C73.9251 63.7325 75.5131 63.038 76.8559 61.9468C77.8107 61.171 78.516 60.5099 79.8184 60.462C80.8424 60.4242 81.8549 60.4445 82.8775 60.3239C86.1069 59.9404 89.6074 58.778 91.4882 55.9201C93.5132 52.8385 92.619 48.7078 90.0055 46.2786C86.9708 43.4584 82.4722 43.5892 79.0496 45.5521ZM85.0439 58.0574C83.1343 58.579 81.304 58.5078 79.3626 58.6429C77.3217 58.7838 76.3366 60.2963 74.6707 61.248C71.2077 63.2312 66.614 62.3362 64.0524 59.3229C63.7495 58.9684 63.0687 58.9698 62.7673 59.3229C60.7105 61.7347 57.4624 62.974 54.3326 62.313C51.2071 61.6548 48.784 59.0061 45.422 59.2618C42.445 59.4856 40.1575 61.6054 37.3738 62.4103C33.8416 63.4332 31.1445 60.7598 28.906 58.3901C28.5829 58.0487 27.9396 58.0254 27.6209 58.3901C24.9598 61.4325 20.6732 62.5425 16.8121 61.4979C14.64 60.9109 13.3621 59.6512 11.702 58.2506C10.926 57.5968 10.0852 57.3919 9.09142 57.3629C7.6592 57.3193 6.41159 57.2946 5.11062 56.5856C1.73416 54.7491 0.743283 49.6406 3.12311 46.6215C5.69043 43.3655 10.9996 43.7316 13.5078 46.8132C14.2506 47.7242 15.5299 46.4239 14.7943 45.5201C14.7583 45.4736 14.7121 45.4402 14.6746 45.3966C14.7554 45.2761 14.8174 45.138 14.8376 44.9666C15.5833 38.1146 20.0054 31.8162 26.1627 28.7941C32.5363 25.6689 40.0825 27.0855 45.2446 31.8758C48.0744 34.5027 50.0403 38.01 50.4254 41.8951C50.5134 42.7945 51.5922 43.1432 52.1201 42.3571C54.1321 39.354 57.9399 37.7238 61.4779 38.5766C64.8558 39.3917 67.3885 42.2801 68.0693 45.6524C68.2625 46.6055 69.5447 46.4311 69.8231 45.6524C70.4621 43.858 72.3674 42.6259 74.2655 42.979C76.1924 43.3364 77.4631 45.1831 77.4515 47.0849C77.4472 47.717 78.2506 48.3054 78.8189 47.8739C82.3251 45.215 87.8708 45.0102 90.1266 49.4111C92.2843 53.6332 88.9093 57.0011 85.0439 58.0574ZM117.019 20.7886C115.488 19.1744 113.267 18.3636 111.239 18.8852C111.601 15.4854 109.881 11.8923 106.731 10.3987C103.09 8.67268 98.6291 10.098 96.3848 13.3642C94.7161 11.6584 92.2973 10.7474 89.8915 11.1978C86.8554 11.7674 84.4598 14.4132 84.0574 17.4672C83.9362 18.3942 84.0631 19.6756 83.078 20.1624C82.3713 20.514 81.4886 20.5241 80.7516 20.8569C79.4116 21.4613 78.2578 22.487 77.4862 23.7453C75.9616 26.2312 76.4809 29.2736 78.7626 31.0767C81.0227 32.8638 84.2348 33.0962 86.9752 32.6415C89.0737 32.2928 90.9689 32.1518 93.0834 32.4787C94.7896 32.7461 96.4728 33.1398 98.1906 33.3287C99.9589 33.5248 101.571 33.3476 103.285 32.9233C105.229 32.4424 107.104 33.1529 109.051 33.2808C112.158 33.4885 115.399 31.7741 117.236 29.291C119.162 26.686 119.309 23.2077 117.019 20.7886ZM114.555 29.5032C113.567 30.3342 112.376 30.9416 111.131 31.2627C109.51 31.6782 107.974 31.2888 106.357 31.052C103.628 30.651 101.142 31.7915 98.3969 31.5198C95.6536 31.2496 92.9997 30.4069 90.2247 30.4069C87.6314 30.4069 85.2054 31.3469 82.5934 30.8122C80.2424 30.3299 77.753 28.537 78.539 25.7997C78.8924 24.5691 79.8083 23.507 80.8814 22.843C81.992 22.1543 83.3953 22.2371 84.4497 21.4758C85.5026 20.7174 85.6511 19.4446 85.7896 18.2503C85.9684 16.7131 86.4588 15.3823 87.6285 14.3202C90.268 11.917 94.3093 12.828 96.0142 15.8617C96.5911 16.886 98.1618 15.9663 97.5848 14.9391C97.5574 14.8883 97.5185 14.8476 97.4911 14.7996C97.5993 14.7313 97.7002 14.6384 97.781 14.5091C99.4988 11.8197 103.273 10.6225 106.145 12.1481C109.005 13.6678 110.165 17.2885 109.083 20.2699C108.738 21.2186 109.974 21.6705 110.6 21.1605C112.465 19.6408 115.17 21.0341 116.299 22.8125C117.767 25.1168 116.445 27.9108 114.555 29.5032Z" fill="var(--fill-0, #96ADF0)"/>
</svg>
