<svg preserveAspectRatio="none" width="100%" height="100%" overflow="visible" style="display: block;" viewBox="0 0 116.996 69.0021" fill="none" xmlns="http://www.w3.org/2000/svg">
<g id="Group">
<path id="Vector" fill-rule="evenodd" clip-rule="evenodd" d="M84.3546 65.6447C94.8007 65.8944 105.476 65.395 115.464 68.9363C116.059 69.1452 116.714 68.841 116.929 68.2508C117.14 67.6605 116.833 67.0113 116.238 66.7979C106.016 63.1749 95.0984 63.6289 84.4095 63.3746C83.7775 63.3565 83.2509 63.8559 83.2372 64.4824C83.2189 65.109 83.7226 65.6266 84.3546 65.6447Z" fill="var(--fill-0, #FF6F61)"/>
<path id="Vector_2" fill-rule="evenodd" clip-rule="evenodd" d="M83.4163 50.6073C86.6724 47.6372 90.2262 45.4121 94.5219 44.3093C95.1356 44.1522 95.5019 43.5324 95.3462 42.9258C95.1859 42.3193 94.5585 41.9547 93.9495 42.1118C89.2782 43.3104 85.4085 45.7085 81.8684 48.9361C81.4013 49.3602 81.3692 50.0789 81.7997 50.5401C82.2256 51.001 82.9538 51.0314 83.4163 50.6073Z" fill="var(--fill-0, #FF6F61)"/>
<g id="Group_2">
<path id="Vector_3" fill-rule="evenodd" clip-rule="evenodd" d="M74.363 18.1812C75.856 13.1076 78.7961 9.13863 83.3024 6.27244C83.8337 5.9342 83.9894 5.23139 83.6459 4.70428C83.307 4.17717 82.5972 4.0237 82.0659 4.36194C77.0787 7.5355 73.818 11.9276 72.1648 17.5452C71.9862 18.1463 72.3388 18.7774 72.9434 18.9526C73.5524 19.1283 74.189 18.7823 74.363 18.1812Z" fill="var(--fill-0, #FF6F61)"/>
</g>
<path id="Vector_4" fill-rule="evenodd" clip-rule="evenodd" d="M22.9095 11.2943C22.021 12.3308 21.2242 13.4477 20.5464 14.6368C20.2441 15.1662 19.7129 16.2912 19.6305 17.256C19.5389 18.2839 19.8915 19.1511 20.7982 19.6078C22.0027 20.2134 22.9644 20.1503 23.7063 19.784C24.4208 19.4321 24.9794 18.7406 25.3321 17.8135C26.0053 16.0415 25.9045 13.3333 25.5519 11.7878C26.4999 10.8181 27.5395 9.93863 28.6523 9.15682C36.9414 3.33408 49.1003 5.48112 58.4565 14.1873C61.7309 17.2356 63.3063 23.6371 64.1261 30.5441C65.4038 41.2983 64.6756 53.3097 64.5749 56.8288C64.552 57.6978 64.6344 58.2135 64.6802 58.3166C64.8954 58.8233 65.2755 58.9549 65.5411 59.0049C65.9258 59.073 66.2326 59.0003 66.4799 58.8732C66.8142 58.6989 67.0891 58.392 67.2173 57.9184C67.286 57.6569 67.3043 57.2928 67.2951 56.9046C67.286 56.6354 67.231 56.3412 67.286 56.1482C67.6432 54.9124 68.0737 53.7056 68.495 52.4902C69.9009 48.4045 71.7191 44.5759 73.7387 40.7517C80.1547 28.6004 86.3601 15.7614 96.8794 6.50356C97.3511 6.08814 97.397 5.36989 96.9757 4.90135C96.5589 4.4328 95.8353 4.39012 95.359 4.80599C84.629 14.2468 78.2542 27.3069 71.7099 39.6988C69.9925 42.9518 68.4171 46.2094 67.1073 49.6168C67.2402 43.5893 67.1898 35.2458 66.0769 27.8636C65.0877 21.2981 63.2055 15.4958 60.0227 12.5324C49.7735 2.99493 36.4056 0.926 27.3288 7.3049C26.3579 7.98774 25.4329 8.73869 24.5719 9.55319C19.8228 1.05177 9.65605 -2.35563 0.670839 1.71053C0.093807 1.97068 -0.158068 2.64444 0.102971 3.21423C0.368589 3.78402 1.04635 4.03555 1.62338 3.7754C9.72015 0.111504 18.9023 3.3813 22.9095 11.2943ZM23.5735 14.1405C23.2026 14.6599 22.8591 15.1984 22.5385 15.755C22.3691 16.0538 22.076 16.6281 21.9523 17.1902C21.9248 17.3218 21.9203 17.5279 21.9203 17.6233C22.2363 17.7776 22.4835 17.8521 22.685 17.7518C22.9369 17.6283 23.0652 17.3377 23.1888 17.0131C23.5003 16.1986 23.601 15.1189 23.5735 14.1405Z" fill="var(--fill-0, #FF6F61)"/>
</g>
</svg>
