<svg width="133" height="60" viewBox="0 0 133 60" fill="none" xmlns="http://www.w3.org/2000/svg">
<path d="M37.4031 56.833V45.9239H41.217C41.977 45.9239 42.6037 46.0553 43.0973 46.3181C43.591 46.5773 43.9585 46.9271 44.2 47.3675C44.4415 47.8042 44.5622 48.289 44.5622 48.8216C44.5622 49.2904 44.4787 49.6775 44.3118 49.9829C44.1485 50.2883 43.9319 50.5297 43.662 50.7073C43.3956 50.8849 43.1062 51.0162 42.7937 51.1015V51.208C43.1275 51.2293 43.4631 51.3465 43.8005 51.5596C44.1378 51.7726 44.4201 52.078 44.6474 52.4758C44.8747 52.8735 44.9883 53.36 44.9883 53.9353C44.9883 54.4822 44.864 54.974 44.6155 55.4108C44.3669 55.8476 43.9745 56.1938 43.4383 56.4495C42.902 56.7052 42.2042 56.833 41.3449 56.833H37.4031ZM38.7241 55.6611H41.3449C42.2078 55.6611 42.8204 55.4942 43.1826 55.1604C43.5483 54.8231 43.7312 54.4147 43.7312 53.9353C43.7312 53.566 43.6371 53.2251 43.4489 52.9126C43.2607 52.5965 42.9926 52.3444 42.6446 52.1562C42.2966 51.9644 41.8846 51.8685 41.4088 51.8685H38.7241V55.6611ZM38.7241 50.718H41.1744C41.5721 50.718 41.9308 50.6398 42.2504 50.4836C42.5736 50.3273 42.8292 50.1072 43.0174 49.8231C43.2092 49.539 43.3051 49.2052 43.3051 48.8216C43.3051 48.3422 43.1382 47.9356 42.8044 47.6018C42.4706 47.2645 41.9415 47.0958 41.217 47.0958H38.7241V50.718ZM47.7982 59.9012C47.5851 59.9012 47.3951 59.8834 47.2282 59.8479C47.0613 59.816 46.9459 59.784 46.882 59.752L47.2016 58.6441C47.507 58.7222 47.7769 58.7506 48.0112 58.7293C48.2456 58.708 48.4533 58.6032 48.6345 58.415C48.8191 58.2304 48.9878 57.9303 49.1405 57.5148L49.3749 56.8756L46.3493 48.6512H47.7129L49.9715 55.1711H50.0567L52.3152 48.6512H53.6788L50.2058 58.0262C50.0496 58.4488 49.856 58.7986 49.6252 59.0756C49.3944 59.3561 49.1263 59.5638 48.8209 59.6988C48.519 59.8337 48.1781 59.9012 47.7982 59.9012ZM59.7273 56.833V45.9239H66.3111V47.0958H61.0483V50.7819H65.9702V51.9537H61.0483V55.6611H66.3964V56.833H59.7273ZM70.9294 57.0248C70.4109 57.0248 69.9404 56.9271 69.5178 56.7318C69.0952 56.5329 68.7596 56.2471 68.5111 55.8742C68.2625 55.4978 68.1382 55.0432 68.1382 54.5106C68.1382 54.0418 68.2305 53.6618 68.4152 53.3706C68.5998 53.0759 68.8466 52.8451 69.1556 52.6782C69.4645 52.5113 69.8054 52.387 70.1783 52.3053C70.5547 52.2201 70.9329 52.1526 71.3129 52.1029C71.8101 52.039 72.2131 51.991 72.5221 51.9591C72.8346 51.9236 73.0618 51.865 73.2039 51.7833C73.3495 51.7016 73.4223 51.5596 73.4223 51.3572V51.3145C73.4223 50.789 73.2785 50.3806 72.9908 50.0894C72.7067 49.7982 72.2753 49.6526 71.6964 49.6526C71.0963 49.6526 70.6258 49.784 70.2848 50.0468C69.9439 50.3096 69.7042 50.5901 69.5657 50.8884L68.3726 50.4623C68.5856 49.9651 68.8697 49.578 69.2248 49.301C69.5835 49.0205 69.9741 48.8252 70.3967 48.7151C70.8228 48.6015 71.2419 48.5447 71.6538 48.5447C71.9166 48.5447 72.2184 48.5766 72.5593 48.6405C72.9038 48.7009 73.2358 48.827 73.5554 49.0187C73.8786 49.2105 74.1467 49.4999 74.3598 49.887C74.5728 50.2741 74.6794 50.7925 74.6794 51.4424V56.833H73.4223V55.7251H73.3584C73.2731 55.9026 73.1311 56.0926 72.9322 56.295C72.7334 56.4974 72.4688 56.6697 72.1385 56.8117C71.8083 56.9537 71.4052 57.0248 70.9294 57.0248ZM71.1211 55.8955C71.6183 55.8955 72.0373 55.7979 72.3782 55.6025C72.7227 55.4072 72.9819 55.1551 73.1559 54.8461C73.3335 54.5372 73.4223 54.2123 73.4223 53.8714V52.7208C73.369 52.7847 73.2518 52.8433 73.0707 52.8966C72.8932 52.9463 72.6872 52.9907 72.4528 53.0297C72.222 53.0653 71.9965 53.0972 71.7763 53.1256C71.5597 53.1505 71.3839 53.1718 71.249 53.1895C70.9223 53.2322 70.6169 53.3014 70.3328 53.3973C70.0522 53.4896 69.825 53.6299 69.651 53.8181C69.4805 54.0028 69.3953 54.2549 69.3953 54.5745C69.3953 55.0113 69.5569 55.3415 69.88 55.5653C70.2067 55.7854 70.6204 55.8955 71.1211 55.8955ZM82.7693 50.4836L81.64 50.8032C81.569 50.615 81.4643 50.4321 81.3258 50.2545C81.1908 50.0734 81.0062 49.9243 80.7718 49.8071C80.5374 49.6899 80.2374 49.6313 79.8716 49.6313C79.3709 49.6313 78.9536 49.7467 78.6198 49.9775C78.2896 50.2048 78.1244 50.4942 78.1244 50.8458C78.1244 51.1583 78.2381 51.4051 78.4653 51.5862C78.6926 51.7673 79.0477 51.9182 79.5307 52.039L80.7452 52.3373C81.4767 52.5148 82.0218 52.7865 82.3805 53.1523C82.7391 53.5145 82.9185 53.9814 82.9185 54.5532C82.9185 55.0219 82.7835 55.441 82.5136 55.8103C82.2473 56.1796 81.8744 56.4708 81.395 56.6839C80.9156 56.8969 80.3581 57.0035 79.7224 57.0035C78.8879 57.0035 78.1972 56.8224 77.6503 56.4601C77.1035 56.0979 76.7572 55.5688 76.6116 54.8728L77.8048 54.5745C77.9185 55.0148 78.1333 55.3451 78.4494 55.5653C78.769 55.7854 79.1862 55.8955 79.7011 55.8955C80.2871 55.8955 80.7523 55.7712 81.0967 55.5226C81.4447 55.2705 81.6187 54.9687 81.6187 54.6171C81.6187 54.333 81.5193 54.0951 81.3204 53.9033C81.1216 53.708 80.8162 53.5624 80.4043 53.4665L79.0406 53.1469C78.2913 52.9694 77.7409 52.6942 77.3893 52.3213C77.0413 51.9449 76.8673 51.4743 76.8673 50.9097C76.8673 50.4481 76.9969 50.0397 77.2562 49.6846C77.519 49.3295 77.8758 49.0507 78.3268 48.8483C78.7814 48.6459 79.2963 48.5447 79.8716 48.5447C80.6812 48.5447 81.3169 48.7222 81.7785 49.0773C82.2437 49.4324 82.574 49.9012 82.7693 50.4836ZM88.2412 57.0035C87.4528 57.0035 86.7728 56.8295 86.201 56.4814C85.6329 56.1299 85.1943 55.6398 84.8853 55.0113C84.5799 54.3792 84.4272 53.6441 84.4272 52.806C84.4272 51.968 84.5799 51.2293 84.8853 50.5901C85.1943 49.9474 85.624 49.4466 86.1744 49.088C86.7284 48.7258 87.3747 48.5447 88.1133 48.5447C88.5395 48.5447 88.9603 48.6157 89.3758 48.7577C89.7912 48.8998 90.1694 49.1306 90.5103 49.4502C90.8513 49.7662 91.1229 50.1853 91.3253 50.7073C91.5277 51.2293 91.629 51.8721 91.629 52.6356V53.1682H85.3221V52.0816H90.3505C90.3505 51.6199 90.2582 51.208 90.0736 50.8458C89.8924 50.4836 89.6332 50.1977 89.2959 49.9882C88.962 49.7787 88.5679 49.6739 88.1133 49.6739C87.6126 49.6739 87.1794 49.7982 86.8136 50.0468C86.4514 50.2918 86.1726 50.6114 85.9773 51.0056C85.782 51.3998 85.6843 51.8224 85.6843 52.2733V52.9978C85.6843 53.6157 85.7909 54.1395 86.004 54.5692C86.2206 54.9953 86.5206 55.3202 86.9042 55.5439C87.2877 55.7641 87.7334 55.8742 88.2412 55.8742C88.5714 55.8742 88.8697 55.828 89.1361 55.7357C89.4059 55.6398 89.6385 55.4978 89.8339 55.3096C90.0292 55.1178 90.1801 54.8799 90.2866 54.5958L91.5011 54.9367C91.3733 55.3486 91.1584 55.7108 90.8566 56.0233C90.5547 56.3323 90.1819 56.5738 89.738 56.7478C89.2941 56.9182 88.7951 57.0035 88.2412 57.0035ZM102.49 49.333H101.169C101.091 48.953 100.954 48.6192 100.759 48.3316C100.567 48.0439 100.333 47.8025 100.056 47.6072C99.7824 47.4083 99.4787 47.2591 99.1449 47.1597C98.8111 47.0603 98.4631 47.0106 98.1009 47.0106C97.4404 47.0106 96.842 47.1775 96.3058 47.5113C95.7731 47.8451 95.3488 48.3369 95.0327 48.9868C94.7202 49.6366 94.564 50.4339 94.564 51.3785C94.564 52.3231 94.7202 53.1203 95.0327 53.7702C95.3488 54.42 95.7731 54.9118 96.3058 55.2456C96.842 55.5795 97.4404 55.7464 98.1009 55.7464C98.4631 55.7464 98.8111 55.6966 99.1449 55.5972C99.4787 55.4978 99.7824 55.3504 100.056 55.1551C100.333 54.9562 100.567 54.713 100.759 54.4253C100.954 54.1341 101.091 53.8003 101.169 53.4239H102.49C102.391 53.9814 102.21 54.4804 101.947 54.9207C101.684 55.3611 101.357 55.7357 100.967 56.0447C100.576 56.3501 100.137 56.5827 99.651 56.7425C99.168 56.9023 98.6513 56.9822 98.1009 56.9822C97.1705 56.9822 96.3431 56.7549 95.6187 56.3003C94.8942 55.8458 94.3243 55.1995 93.9088 54.3614C93.4933 53.5233 93.2856 52.529 93.2856 51.3785C93.2856 50.2279 93.4933 49.2336 93.9088 48.3955C94.3243 47.5574 94.8942 46.9111 95.6187 46.4566C96.3431 46.002 97.1705 45.7748 98.1009 45.7748C98.6513 45.7748 99.168 45.8547 99.651 46.0145C100.137 46.1743 100.576 46.4086 100.967 46.7176C101.357 47.023 101.684 47.3959 101.947 47.8362C102.21 48.273 102.391 48.7719 102.49 49.333ZM105.072 56.833H103.687L107.693 45.9239H109.057L113.062 56.833H111.677L108.417 47.6498H108.332L105.072 56.833ZM105.584 52.5716H111.166V53.7435H105.584V52.5716ZM114.761 56.833V45.9239H118.448C119.3 45.9239 119.999 46.0695 120.546 46.3607C121.093 46.6483 121.498 47.0443 121.761 47.5486C122.024 48.0528 122.155 48.6263 122.155 49.2691C122.155 49.9118 122.024 50.4818 121.761 50.979C121.498 51.4761 121.095 51.8667 120.552 52.1508C120.008 52.4314 119.314 52.5716 118.469 52.5716H115.486V51.3785H118.426C119.009 51.3785 119.477 51.2932 119.833 51.1228C120.191 50.9523 120.45 50.7108 120.61 50.3983C120.774 50.0823 120.855 49.7059 120.855 49.2691C120.855 48.8323 120.774 48.4506 120.61 48.1238C120.447 47.7971 120.186 47.545 119.827 47.3675C119.469 47.1863 118.994 47.0958 118.405 47.0958H116.083V56.833H114.761ZM119.896 51.9324L122.581 56.833H121.047L118.405 51.9324H119.896ZM124.356 56.833V45.9239H130.94V47.0958H125.677V50.7819H130.599V51.9537H125.677V55.6611H131.025V56.833H124.356Z" fill="black"/>
<path d="M14.8779 36.9443V36.516C19.1159 36.516 20.2881 35.1184 19.2962 31.7145L16.7264 22.8329H7.7771L5.29744 31.2637C4.23795 34.9155 5.41015 36.516 9.51285 36.516V36.9443H0.338135V36.516C2.00627 36.4935 3.15592 35.2537 4.17033 31.8498L11.722 6.17409C10.9105 4.50596 9.98624 3.76206 8.7915 3.76206V3.33376H16.5911L24.9092 31.7145C25.9011 35.1184 27.0508 36.516 28.6062 36.516V36.9443H14.8779ZM8.02506 21.9762H16.4784L12.6011 8.58612C12.4884 8.2029 12.3757 7.86476 12.263 7.52663L8.02506 21.9762ZM34.6701 30.6325C34.6701 32.5486 35.5492 33.5404 37.2624 33.5404C39.7872 33.5404 41.32 31.1735 41.32 27.1835H41.6807C41.6807 33.9011 39.3363 37.4854 35.0758 37.4854C31.717 37.4854 29.7784 35.3213 29.7784 31.6244V10.2317H25.9011V9.93865C30.7928 7.86476 33.588 4.43833 34.129 0.470886H34.6024V7.14341H41.32V10.2317H34.6701V30.6325ZM50.8554 30.6325C50.8554 32.5486 51.7346 33.5404 53.4478 33.5404C55.9725 33.5404 57.5054 31.1735 57.5054 27.1835H57.8661C57.8661 33.9011 55.5217 37.4854 51.2612 37.4854C47.9024 37.4854 45.9638 35.3213 45.9638 31.6244V10.2317H42.0865V9.93865C46.9782 7.86476 49.7734 4.43833 50.3144 0.470886H50.7878V7.14341H57.5054V10.2317H50.8554V30.6325ZM64.9669 37.4854C61.022 37.4854 59.2637 34.4872 60.5712 29.8435L65.9362 10.9305C63.9074 10.9531 61.563 13.4327 60.7064 16.5435L60.3908 16.4759C62.2393 9.84848 64.9218 6.62494 68.1905 6.62494C70.7152 6.62494 71.5267 8.87917 70.5574 12.2605L65.4629 30.0464C64.6288 32.9093 65.4854 34.645 67.672 34.645C70.2193 34.645 73.1272 32.0977 74.7728 25.9662L79.8448 7.00815H84.8267L77.7484 33.1121C79.8448 33.2249 82.2794 30.7227 83.1586 27.5217L83.4967 27.5893C81.6482 34.1942 78.8755 37.4177 75.7647 37.4177C73.3076 37.4177 72.6088 35.4115 73.4654 32.5035C73.8035 31.3989 74.322 30.114 75.1786 27.7245H74.8855C72.4284 34.2618 69.002 37.4854 64.9669 37.4854ZM101.035 37.3501C98.4197 37.3501 97.6533 35.1184 98.6 31.7596L103.717 13.9061C104.529 11.0658 103.695 9.33001 101.485 9.33001C98.9607 9.33001 96.0302 11.8773 94.3846 18.0088L89.3126 36.9443H84.3533L91.409 10.8629C89.3126 10.7502 86.878 13.2524 85.9989 16.4308L85.6833 16.3858C87.4416 10.0288 90.1692 6.53477 93.3477 6.53477C95.9626 6.53477 96.5262 8.67629 95.6921 11.449C95.3765 12.5536 94.858 13.861 93.9789 16.228H94.2719C96.729 9.71323 100.133 6.46714 104.191 6.46714C108.158 6.46714 109.894 9.48781 108.586 14.109L103.221 33.0671C105.273 33.0445 107.617 30.5649 108.474 27.454L108.789 27.5442C106.941 34.1491 104.191 37.3501 101.035 37.3501ZM118.054 37.4854C113.275 37.4854 110.593 34.0815 110.593 27.5442C110.593 16.8591 117.603 6.46714 125.651 6.46714C129.303 6.46714 132.053 8.60866 132.053 12.1253C132.053 17.0169 126.755 20.5561 119.452 20.5561C118.392 20.5561 117.355 20.4885 116.386 20.3532C116.048 22.134 115.845 23.9374 115.845 25.7183C115.845 30.9481 117.536 33.5404 120.962 33.5404C124.704 33.5404 127.702 30.4071 128.919 25.1773H129.325C127.499 33.1121 123.509 37.4854 118.054 37.4854ZM116.544 19.6318C117.265 19.722 117.919 19.7671 118.527 19.7671C123.735 19.7671 127.567 16.0927 127.567 11.2236C127.567 8.83408 126.53 7.34629 124.839 7.34629C121.548 7.34629 118.009 13.0495 116.544 19.6318Z" fill="black"/>
</svg>