<svg width="174" height="49" viewBox="0 0 174 49" fill="none" xmlns="http://www.w3.org/2000/svg">
<path d="M0.393547 31V30.6601C2.55806 30.6601 3.4167 29.4795 3.4167 26.671V8.94347C3.4167 6.11709 2.55806 4.95434 0.393547 4.95434V4.61446H19.4985L19.57 13.7197H19.2838C18.8008 8.26371 16.6184 5.25844 13.0586 5.25844H7.67417V15.8305L11.6991 15.7948C14.0425 15.7769 15.3304 14.2206 15.6882 10.9649H15.9744V21.7874H15.6882C15.3304 18.1739 14.0604 16.4924 11.6991 16.4745L7.67417 16.4566V26.671C7.67417 29.4795 8.60437 30.6601 10.8941 30.6601V31H0.393547ZM35.455 21.6622C35.455 27.8516 32.9506 31.4293 28.5322 31.4293C23.6665 31.4293 20.4466 27.0824 20.4466 19.5692C20.4466 11.6983 23.8812 6.81474 28.9615 6.81474C32.2888 6.81474 35.4729 9.03292 35.4729 15.4549H24.1495C24.1316 15.9021 24.1137 16.3493 24.1137 16.8323C24.1137 24.1487 26.4571 28.2094 30.1421 28.2094C33.0401 28.2094 35.133 25.6513 35.133 21.6622H35.455ZM24.1674 14.8288H31.5553C31.5732 14.6141 31.5732 14.3995 31.5732 14.1848C31.5732 10.0883 30.1242 7.51239 28.0313 7.51239C25.9026 7.51239 24.4715 10.1062 24.1674 14.8288ZM52.2702 21.6622C52.2702 27.8516 49.7658 31.4293 45.3474 31.4293C40.4817 31.4293 37.2618 27.0824 37.2618 19.5692C37.2618 11.6983 40.6964 6.81474 45.7767 6.81474C49.1039 6.81474 52.2881 9.03292 52.2881 15.4549H40.9647C40.9468 15.9021 40.9289 16.3493 40.9289 16.8323C40.9289 24.1487 43.2723 28.2094 46.9573 28.2094C49.8553 28.2094 51.9482 25.6513 51.9482 21.6622H52.2702ZM40.9826 14.8288H48.3705C48.3884 14.6141 48.3884 14.3995 48.3884 14.1848C48.3884 10.0883 46.9394 7.51239 44.8465 7.51239C42.7178 7.51239 41.2867 10.1062 40.9826 14.8288ZM52.3954 31V30.678C54.4705 30.678 55.186 29.712 55.186 27.7801L55.2039 5.09744C55.2039 3.16549 54.4884 2.84349 52.3597 2.96871V2.64672C54.4884 2.37839 56.635 1.73441 58.8174 0.750538H59.0321V27.7801C59.0321 29.712 59.7476 30.678 61.8227 30.678V31H52.3954ZM80.7129 31V30.6601C84.076 30.6601 85.0062 29.551 84.2191 26.8499L82.1798 19.8018H75.0781L73.1103 26.4921C72.2696 29.39 73.1998 30.6601 76.4555 30.6601V31H69.1749V30.6601C70.4986 30.6422 71.4109 29.6584 72.2159 26.9572L78.2085 6.58219C77.5646 5.25844 76.8311 4.66812 75.883 4.66812V4.32824H82.0725L88.6733 26.8499C89.4604 29.551 90.3727 30.6601 91.607 30.6601V31H80.7129ZM75.2748 19.122H81.983L78.9062 8.49626C78.8168 8.19216 78.7273 7.92383 78.6379 7.6555L75.2748 19.122ZM96.419 25.9912C96.419 27.5117 97.1167 28.2988 98.4762 28.2988C100.48 28.2988 101.696 26.4205 101.696 23.2543H101.982C101.982 28.5851 100.122 31.4293 96.741 31.4293C94.0756 31.4293 92.5372 29.712 92.5372 26.7783V9.80212H89.4604V9.56957C93.3422 7.92383 95.5604 5.20478 95.9897 2.0564H96.3654V7.3514H101.696V9.80212H96.419V25.9912ZM109.263 25.9912C109.263 27.5117 109.961 28.2988 111.32 28.2988C113.324 28.2988 114.54 26.4205 114.54 23.2543H114.826C114.826 28.5851 112.966 31.4293 109.585 31.4293C106.92 31.4293 105.381 29.712 105.381 26.7783V9.80212H102.304V9.56957C106.186 7.92383 108.404 5.20478 108.834 2.0564H109.209V7.3514H114.54V9.80212H109.263V25.9912ZM120.461 31.4293C117.331 31.4293 115.935 29.0502 116.973 25.3651L121.23 10.3567C119.62 10.3746 117.76 12.3423 117.08 14.8109L116.83 14.7572C118.297 9.49802 120.425 6.93996 123.019 6.93996C125.023 6.93996 125.667 8.72881 124.898 11.4121L120.855 25.5261C120.193 27.798 120.873 29.1754 122.608 29.1754C124.629 29.1754 126.937 27.154 128.243 22.2883L132.268 7.24407H136.221L130.604 27.959C132.268 28.0484 134.2 26.0628 134.897 23.5226L135.166 23.5763C133.699 28.8176 131.498 31.3757 129.03 31.3757C127.08 31.3757 126.525 29.7836 127.205 27.476C127.473 26.5994 127.885 25.5798 128.565 23.6836H128.332C126.382 28.8713 123.663 31.4293 120.461 31.4293ZM149.083 31.322C147.008 31.322 146.4 29.551 147.151 26.8856L151.212 12.7179C151.856 10.464 151.194 9.08658 149.441 9.08658C147.437 9.08658 145.112 11.108 143.806 15.9737L139.781 31H135.845L141.444 10.303C139.781 10.2136 137.849 12.1992 137.151 14.7215L136.901 14.6857C138.296 9.64113 140.461 6.86841 142.983 6.86841C145.058 6.86841 145.505 8.56781 144.843 10.7681C144.593 11.6446 144.181 12.6822 143.484 14.5605H143.716C145.666 9.39069 148.367 6.81474 151.587 6.81474C154.736 6.81474 156.113 9.2118 155.075 12.8789L150.818 27.9232C152.446 27.9053 154.306 25.9376 154.986 23.4689L155.236 23.5405C153.77 28.7818 151.587 31.322 149.083 31.322ZM162.589 31.4293C158.796 31.4293 156.668 28.7282 156.668 23.5405C156.668 15.0613 162.231 6.81474 168.617 6.81474C171.515 6.81474 173.697 8.51415 173.697 11.3048C173.697 15.1866 169.494 17.9951 163.698 17.9951C162.857 17.9951 162.034 17.9414 161.265 17.8341C160.997 19.2473 160.836 20.6783 160.836 22.0915C160.836 26.2417 162.177 28.2988 164.896 28.2988C167.866 28.2988 170.245 25.8123 171.211 21.6622H171.533C170.084 27.959 166.918 31.4293 162.589 31.4293ZM161.39 17.2616C161.963 17.3332 162.481 17.369 162.964 17.369C167.097 17.369 170.138 14.4531 170.138 10.5892C170.138 8.69303 169.315 7.51239 167.973 7.51239C165.361 7.51239 162.553 12.0382 161.39 17.2616Z" fill="black"/>
<path d="M100.539 45.7021V37.0754H103.555C104.156 37.0754 104.652 37.1793 105.042 37.3871C105.433 37.5921 105.723 37.8687 105.914 38.2169C106.105 38.5623 106.201 38.9456 106.201 39.3669C106.201 39.7375 106.135 40.0436 106.003 40.2851C105.873 40.5266 105.702 40.7176 105.489 40.858C105.278 40.9984 105.049 41.1023 104.802 41.1697V41.254C105.066 41.2708 105.331 41.3635 105.598 41.532C105.865 41.7005 106.088 41.942 106.268 42.2565C106.448 42.571 106.538 42.9557 106.538 43.4107C106.538 43.8431 106.439 44.2321 106.243 44.5775C106.046 44.9229 105.736 45.1967 105.312 45.3989C104.888 45.6011 104.336 45.7021 103.656 45.7021H100.539ZM101.584 44.7754H103.656C104.339 44.7754 104.823 44.6435 105.11 44.3795C105.399 44.1127 105.544 43.7898 105.544 43.4107C105.544 43.1186 105.469 42.849 105.32 42.6019C105.171 42.352 104.959 42.1526 104.684 42.0038C104.409 41.8521 104.083 41.7763 103.707 41.7763H101.584V44.7754ZM101.584 40.8664H103.522C103.836 40.8664 104.12 40.8047 104.372 40.6811C104.628 40.5575 104.83 40.3834 104.979 40.1588C105.131 39.9341 105.207 39.6701 105.207 39.3669C105.207 38.9878 105.075 38.6662 104.811 38.4022C104.547 38.1355 104.128 38.0021 103.555 38.0021H101.584V40.8664ZM108.76 48.1284C108.591 48.1284 108.441 48.1144 108.309 48.0863C108.177 48.061 108.086 48.0358 108.035 48.0105L108.288 47.1343C108.529 47.1961 108.743 47.2186 108.928 47.2017C109.113 47.1849 109.278 47.102 109.421 46.9532C109.567 46.8072 109.7 46.5699 109.821 46.2413L110.006 45.7358L107.614 39.2321H108.692L110.478 44.3879H110.546L112.332 39.2321H113.41L110.664 46.6457C110.54 46.9799 110.387 47.2565 110.204 47.4755C110.022 47.6974 109.81 47.8617 109.568 47.9684C109.33 48.0751 109.06 48.1284 108.76 48.1284ZM118.193 45.7021V37.0754H123.399V38.0021H119.238V40.917H123.13V41.8437H119.238V44.7754H123.467V45.7021H118.193ZM127.051 45.8538C126.641 45.8538 126.269 45.7766 125.935 45.6221C125.601 45.4649 125.336 45.2388 125.139 44.9439C124.943 44.6463 124.844 44.2868 124.844 43.8656C124.844 43.4949 124.917 43.1944 125.063 42.9642C125.209 42.7311 125.404 42.5485 125.649 42.4166C125.893 42.2846 126.163 42.1863 126.458 42.1217C126.755 42.0543 127.054 42.0009 127.355 41.9616C127.748 41.9111 128.067 41.8732 128.311 41.8479C128.558 41.8198 128.738 41.7735 128.85 41.7089C128.965 41.6443 129.023 41.532 129.023 41.3719V41.3382C129.023 40.9226 128.909 40.5997 128.682 40.3694C128.457 40.1391 128.116 40.024 127.658 40.024C127.183 40.024 126.811 40.1279 126.542 40.3357C126.272 40.5435 126.083 40.7653 125.973 41.0012L125.03 40.6642C125.198 40.2711 125.423 39.965 125.704 39.746C125.987 39.5241 126.296 39.3697 126.63 39.2826C126.967 39.1928 127.299 39.1478 127.624 39.1478C127.832 39.1478 128.071 39.1731 128.34 39.2236C128.613 39.2714 128.875 39.3711 129.128 39.5227C129.384 39.6744 129.596 39.9032 129.764 40.2093C129.933 40.5154 130.017 40.9254 130.017 41.4393V45.7021H129.023V44.826H128.972C128.905 44.9664 128.793 45.1166 128.635 45.2767C128.478 45.4368 128.269 45.573 128.008 45.6853C127.746 45.7976 127.428 45.8538 127.051 45.8538ZM127.203 44.9608C127.596 44.9608 127.928 44.8836 128.197 44.7291C128.47 44.5747 128.675 44.3753 128.812 44.131C128.953 43.8867 129.023 43.6297 129.023 43.3601V42.4503C128.981 42.5008 128.888 42.5471 128.745 42.5893C128.604 42.6286 128.442 42.6637 128.256 42.6946C128.074 42.7227 127.895 42.7479 127.721 42.7704C127.55 42.7901 127.411 42.8069 127.304 42.8209C127.046 42.8546 126.804 42.9094 126.58 42.9852C126.358 43.0582 126.178 43.1692 126.041 43.318C125.906 43.464 125.838 43.6634 125.838 43.9161C125.838 44.2615 125.966 44.5227 126.222 44.6996C126.48 44.8737 126.807 44.9608 127.203 44.9608ZM136.414 40.6811L135.521 40.9338C135.465 40.785 135.382 40.6404 135.273 40.5C135.166 40.3567 135.02 40.2388 134.835 40.1461C134.649 40.0535 134.412 40.0071 134.123 40.0071C133.727 40.0071 133.397 40.0984 133.133 40.2809C132.872 40.4607 132.741 40.6895 132.741 40.9675C132.741 41.2147 132.831 41.4098 133.011 41.553C133.191 41.6963 133.471 41.8156 133.853 41.9111L134.814 42.147C135.392 42.2874 135.823 42.5022 136.107 42.7915C136.39 43.0779 136.532 43.4472 136.532 43.8993C136.532 44.27 136.426 44.6013 136.212 44.8934C136.002 45.1854 135.707 45.4157 135.328 45.5842C134.948 45.7527 134.508 45.8369 134.005 45.8369C133.345 45.8369 132.799 45.6937 132.366 45.4073C131.934 45.1209 131.66 44.7024 131.545 44.152L132.488 43.9161C132.578 44.2644 132.748 44.5255 132.998 44.6996C133.251 44.8737 133.581 44.9608 133.988 44.9608C134.451 44.9608 134.819 44.8625 135.092 44.6659C135.367 44.4665 135.504 44.2278 135.504 43.9498C135.504 43.7252 135.426 43.537 135.269 43.3854C135.111 43.2309 134.87 43.1158 134.544 43.04L133.466 42.7872C132.873 42.6468 132.438 42.4292 132.16 42.1343C131.885 41.8367 131.747 41.4646 131.747 41.0181C131.747 40.653 131.85 40.3301 132.055 40.0493C132.262 39.7684 132.545 39.548 132.901 39.3879C133.261 39.2279 133.668 39.1478 134.123 39.1478C134.763 39.1478 135.266 39.2882 135.631 39.5691C135.999 39.8499 136.26 40.2206 136.414 40.6811ZM140.741 45.8369C140.118 45.8369 139.58 45.6993 139.128 45.4241C138.679 45.1461 138.332 44.7586 138.088 44.2615C137.846 43.7617 137.725 43.1804 137.725 42.5177C137.725 41.8549 137.846 41.2708 138.088 40.7653C138.332 40.2571 138.672 39.8611 139.107 39.5775C139.545 39.291 140.056 39.1478 140.64 39.1478C140.977 39.1478 141.31 39.204 141.639 39.3163C141.967 39.4286 142.266 39.6112 142.536 39.8639C142.805 40.1138 143.02 40.4452 143.18 40.858C143.34 41.2708 143.42 41.7791 143.42 42.3829V42.8041H138.433V41.9448H142.409C142.409 41.5797 142.336 41.254 142.19 40.9675C142.047 40.6811 141.842 40.455 141.575 40.2894C141.311 40.1237 141 40.0408 140.64 40.0408C140.244 40.0408 139.902 40.1391 139.613 40.3357C139.326 40.5295 139.106 40.7822 138.951 41.0939C138.797 41.4056 138.72 41.7398 138.72 42.0964V42.6693C138.72 43.1579 138.804 43.5721 138.972 43.9119C139.144 44.2489 139.381 44.5059 139.684 44.6828C139.987 44.8569 140.34 44.9439 140.741 44.9439C141.003 44.9439 141.238 44.9074 141.449 44.8344C141.663 44.7586 141.846 44.6463 142.001 44.4974C142.155 44.3458 142.275 44.1576 142.359 43.933L143.319 44.2026C143.218 44.5283 143.048 44.8148 142.81 45.0619C142.571 45.3062 142.276 45.4972 141.925 45.6348C141.574 45.7695 141.179 45.8369 140.741 45.8369ZM152.009 39.7712H150.965C150.903 39.4708 150.795 39.2068 150.64 38.9793C150.489 38.7519 150.303 38.5609 150.084 38.4065C149.868 38.2492 149.628 38.1313 149.364 38.0526C149.1 37.974 148.825 37.9347 148.538 37.9347C148.016 37.9347 147.543 38.0667 147.119 38.3306C146.698 38.5946 146.362 38.9835 146.112 39.4974C145.865 40.0113 145.741 40.6418 145.741 41.3888C145.741 42.1357 145.865 42.7662 146.112 43.2801C146.362 43.794 146.698 44.1829 147.119 44.4469C147.543 44.7109 148.016 44.8428 148.538 44.8428C148.825 44.8428 149.1 44.8035 149.364 44.7249C149.628 44.6463 149.868 44.5297 150.084 44.3753C150.303 44.218 150.489 44.0257 150.64 43.7982C150.795 43.5679 150.903 43.304 150.965 43.0063H152.009C151.931 43.4472 151.787 43.8417 151.58 44.1899C151.372 44.5382 151.113 44.8344 150.805 45.0787C150.496 45.3202 150.149 45.5042 149.764 45.6305C149.382 45.7569 148.974 45.8201 148.538 45.8201C147.803 45.8201 147.148 45.6404 146.575 45.2809C146.003 44.9215 145.552 44.4104 145.223 43.7476C144.895 43.0849 144.73 42.2986 144.73 41.3888C144.73 40.4789 144.895 39.6926 145.223 39.0299C145.552 38.3671 146.003 37.8561 146.575 37.4966C147.148 37.1372 147.803 36.9574 148.538 36.9574C148.974 36.9574 149.382 37.0206 149.764 37.147C150.149 37.2734 150.496 37.4587 150.805 37.703C151.113 37.9445 151.372 38.2394 151.58 38.5876C151.787 38.933 151.931 39.3275 152.009 39.7712ZM155.467 45.8538C155.057 45.8538 154.684 45.7766 154.35 45.6221C154.016 45.4649 153.751 45.2388 153.554 44.9439C153.358 44.6463 153.259 44.2868 153.259 43.8656C153.259 43.4949 153.332 43.1944 153.478 42.9642C153.624 42.7311 153.82 42.5485 154.064 42.4166C154.308 42.2846 154.578 42.1863 154.873 42.1217C155.17 42.0543 155.469 42.0009 155.77 41.9616C156.163 41.9111 156.482 41.8732 156.726 41.8479C156.973 41.8198 157.153 41.7735 157.265 41.7089C157.38 41.6443 157.438 41.532 157.438 41.3719V41.3382C157.438 40.9226 157.324 40.5997 157.097 40.3694C156.872 40.1391 156.531 40.024 156.073 40.024C155.599 40.024 155.226 40.1279 154.957 40.3357C154.687 40.5435 154.498 40.7653 154.388 41.0012L153.445 40.6642C153.613 40.2711 153.838 39.965 154.119 39.746C154.402 39.5241 154.711 39.3697 155.045 39.2826C155.382 39.1928 155.714 39.1478 156.039 39.1478C156.247 39.1478 156.486 39.1731 156.755 39.2236C157.028 39.2714 157.29 39.3711 157.543 39.5227C157.799 39.6744 158.011 39.9032 158.179 40.2093C158.348 40.5154 158.432 40.9254 158.432 41.4393V45.7021H157.438V44.826H157.387C157.32 44.9664 157.208 45.1166 157.05 45.2767C156.893 45.4368 156.684 45.573 156.423 45.6853C156.162 45.7976 155.843 45.8538 155.467 45.8538ZM155.618 44.9608C156.011 44.9608 156.343 44.8836 156.612 44.7291C156.885 44.5747 157.09 44.3753 157.227 44.131C157.368 43.8867 157.438 43.6297 157.438 43.3601V42.4503C157.396 42.5008 157.303 42.5471 157.16 42.5893C157.019 42.6286 156.857 42.6637 156.671 42.6946C156.489 42.7227 156.31 42.7479 156.136 42.7704C155.965 42.7901 155.826 42.8069 155.719 42.8209C155.461 42.8546 155.219 42.9094 154.995 42.9852C154.773 43.0582 154.593 43.1692 154.456 43.318C154.321 43.464 154.253 43.6634 154.253 43.9161C154.253 44.2615 154.381 44.5227 154.637 44.6996C154.895 44.8737 155.222 44.9608 155.618 44.9608ZM160.246 45.7021V39.2321H161.207V40.2093H161.274C161.392 39.8892 161.606 39.6294 161.915 39.43C162.223 39.2307 162.572 39.131 162.959 39.131C163.032 39.131 163.123 39.1324 163.233 39.1352C163.342 39.138 163.425 39.1422 163.481 39.1478V40.1588C163.448 40.1503 163.371 40.1377 163.25 40.1209C163.132 40.1012 163.007 40.0914 162.875 40.0914C162.56 40.0914 162.28 40.1574 162.032 40.2894C161.788 40.4185 161.594 40.5983 161.451 40.8285C161.311 41.056 161.241 41.3157 161.241 41.6078V45.7021H160.246ZM167.176 45.8369C166.552 45.8369 166.014 45.6993 165.562 45.4241C165.113 45.1461 164.766 44.7586 164.522 44.2615C164.28 43.7617 164.16 43.1804 164.16 42.5177C164.16 41.8549 164.28 41.2708 164.522 40.7653C164.766 40.2571 165.106 39.8611 165.541 39.5775C165.979 39.291 166.49 39.1478 167.075 39.1478C167.412 39.1478 167.744 39.204 168.073 39.3163C168.401 39.4286 168.701 39.6112 168.97 39.8639C169.24 40.1138 169.455 40.4452 169.615 40.858C169.775 41.2708 169.855 41.7791 169.855 42.3829V42.8041H164.867V41.9448H168.844C168.844 41.5797 168.771 41.254 168.625 40.9675C168.481 40.6811 168.276 40.455 168.01 40.2894C167.746 40.1237 167.434 40.0408 167.075 40.0408C166.679 40.0408 166.336 40.1391 166.047 40.3357C165.76 40.5295 165.54 40.7822 165.385 41.0939C165.231 41.4056 165.154 41.7398 165.154 42.0964V42.6693C165.154 43.1579 165.238 43.5721 165.406 43.9119C165.578 44.2489 165.815 44.5059 166.118 44.6828C166.422 44.8569 166.774 44.9439 167.176 44.9439C167.437 44.9439 167.673 44.9074 167.883 44.8344C168.097 44.7586 168.281 44.6463 168.435 44.4974C168.59 44.3458 168.709 44.1576 168.793 43.933L169.754 44.2026C169.652 44.5283 169.483 44.8148 169.244 45.0619C169.005 45.3062 168.71 45.4972 168.359 45.6348C168.008 45.7695 167.614 45.8369 167.176 45.8369Z" fill="black"/>
</svg>
