<svg width="44" height="45" viewBox="0 0 44 45" fill="none" xmlns="http://www.w3.org/2000/svg">
<rect y="0.195312" width="44" height="44" rx="22" fill="#FFD23F"/>
<mask id="mask0_5_1559" style="mask-type:luminance" maskUnits="userSpaceOnUse" x="12" y="11" width="19" height="24">
<path d="M12.7812 11.1953H30.3862V34.1953H12.7812V11.1953Z" fill="white"/>
</mask>
<g mask="url(#mask0_5_1559)">
<path d="M17.8641 26.027L13.83 28.3196C13.2355 28.6596 12.875 29.2963 12.875 29.9756V33.733C12.875 33.9665 13.0658 34.1578 13.2993 34.1578C13.5327 34.1578 13.7241 33.9665 13.7241 33.733V32.2473H16.0595V33.733C16.0595 33.9665 16.2502 34.1578 16.4837 34.1578C16.7172 34.1578 16.9085 33.9665 16.9085 33.733V27.5554L18.2035 26.8123C18.8618 28.044 20.1568 28.8504 21.5793 28.8504C23.0013 28.8504 24.2968 28.044 24.9545 26.8123L26.2495 27.5554V33.733C26.2495 33.9665 26.4409 34.1578 26.6743 34.1578C26.9078 34.1578 27.0992 33.9665 27.0992 33.733V32.2473H29.434V33.733C29.434 33.9665 29.6253 34.1578 29.8588 34.1578C30.0923 34.1578 30.2836 33.9665 30.2836 33.733V29.9967C30.2836 29.3173 29.9226 28.6807 29.3281 28.3413L25.2945 26.027C24.9762 25.8362 24.7638 25.4962 24.7638 25.1141V24.9017C25.2307 24.4137 25.5918 23.7981 25.8036 23.1187H26.356C27.3537 23.1187 28.1606 22.3118 28.1606 21.314V20.9957C28.3941 20.9957 28.5849 20.8044 28.5849 20.5709C28.5849 20.3374 28.3941 20.1466 28.1606 20.1466V19.8283C28.1606 19.0214 27.6299 18.342 26.8867 18.1085V16.5374C26.8867 14.563 25.3794 12.9286 23.4472 12.7373C23.2564 11.8671 22.4922 11.2305 21.5793 11.2305C20.6665 11.2305 19.9022 11.8671 19.7109 12.7373C17.7787 12.9286 16.2719 14.563 16.2719 16.5374V18.1085C15.5287 18.342 14.998 19.0214 14.998 19.8283V20.1466C14.7645 20.1466 14.5732 20.3374 14.5732 20.5709C14.5732 20.8044 14.7645 20.9957 14.998 20.9957V21.314C14.998 22.3118 15.8044 23.1187 16.8026 23.1187H17.3544C17.5668 23.7981 17.9273 24.3926 18.3948 24.9017V25.1141C18.3948 25.4962 18.1824 25.8362 17.8641 26.027ZM16.0595 31.3982H13.7241V29.9967C13.7241 29.6146 13.9365 29.2541 14.2548 29.0839L16.0595 28.044V31.3982ZM27.0992 28.044L28.9032 29.0839C29.2432 29.2752 29.434 29.6362 29.434 29.9967V31.3982H27.0992V28.044ZM21.5793 28.0013C20.4113 28.0013 19.3288 27.3009 18.8618 26.2394C19.0104 26.048 19.1164 25.8146 19.1801 25.56C19.8806 26.027 20.6875 26.3031 21.5793 26.3031C22.4705 26.3031 23.2775 26.027 23.9779 25.56C24.0417 25.8146 24.1482 26.027 24.2968 26.2394C23.8293 27.3009 22.7467 28.0013 21.5793 28.0013ZM26.5046 19.1911C26.5684 19.1062 26.6316 19.0214 26.6954 18.9365C27.0564 19.0641 27.311 19.4246 27.311 19.8283V21.3351C27.311 21.8659 26.8867 22.2907 26.356 22.2907H26.0377V19.7218C26.0587 19.7007 26.0798 19.6797 26.1009 19.658L26.5046 19.1911ZM21.5793 12.0795C22.0036 12.0795 22.3857 12.3341 22.5559 12.7162H20.6237C20.7724 12.3341 21.1545 12.0795 21.5793 12.0795ZM17.1209 22.2696H16.8026C16.2719 22.2696 15.8471 21.8448 15.8471 21.314V19.8067C15.8471 19.4035 16.1016 19.0641 16.4626 18.9154C16.5054 19.0003 16.5686 19.1062 16.654 19.17L17.0572 19.637C17.0782 19.658 17.0993 19.6797 17.1209 19.7007V22.2696ZM17.1209 16.5374C17.1209 14.903 18.4581 13.5653 20.093 13.5653H23.0651C24.7 13.5653 26.0377 14.903 26.0377 16.5374V17.7475C25.2729 17.1957 23.7234 16.3255 21.5793 16.3255C19.4347 16.3255 17.8852 17.1957 17.1209 17.7475V16.5374ZM17.3117 18.6603C17.7155 18.3209 19.2861 17.1746 21.5793 17.1746C23.872 17.1746 25.4431 18.3209 25.8463 18.6603L25.4642 19.1062C25.1459 19.4673 24.6151 19.5732 24.1903 19.3397C23.6385 19.0424 22.7256 18.682 21.5793 18.682C20.433 18.682 19.5412 19.0424 18.9677 19.3397C18.5435 19.5732 18.0127 19.4673 17.6938 19.1062L17.3117 18.6603ZM17.97 21.6324V20.2315C18.437 20.359 18.9256 20.3163 19.3709 20.0829C19.8384 19.8283 20.6237 19.531 21.5793 19.531C22.5343 19.531 23.3202 19.8283 23.7871 20.0829C24.0628 20.2315 24.36 20.2953 24.6573 20.2953C24.8275 20.2953 25.0183 20.2736 25.167 20.2104V21.6324C25.167 23.7343 23.5537 25.4541 21.5577 25.4541C19.5623 25.4541 17.97 23.7343 17.97 21.6324Z" fill="black"/>
</g>
<path d="M20.2998 22.27C20.5333 22.27 20.7241 22.0787 20.7241 21.8452V21.4209C20.7241 21.1869 20.5333 20.9961 20.2998 20.9961C20.0663 20.9961 19.875 21.1869 19.875 21.4209V21.8452C19.875 22.0787 20.0663 22.27 20.2998 22.27Z" fill="black"/>
<path d="M22.8539 22.27C23.088 22.27 23.2788 22.0787 23.2788 21.8452V21.4209C23.2788 21.1869 23.088 20.9961 22.8539 20.9961C22.6205 20.9961 22.4297 21.1869 22.4297 21.4209V21.8452C22.4297 22.0787 22.6205 22.27 22.8539 22.27Z" fill="black"/>
<path d="M20.3699 23.5023C20.1996 23.672 20.1996 23.9265 20.3699 24.0968C20.6882 24.4151 21.1125 24.5848 21.58 24.5848C22.047 24.5848 22.4502 24.4151 22.7901 24.0968C22.9598 23.9265 22.9598 23.672 22.7901 23.5023C22.6199 23.3326 22.3653 23.3326 22.1956 23.5023C21.8773 23.8206 21.3249 23.8206 20.9855 23.5023C20.8158 23.3326 20.5396 23.3326 20.3699 23.5023Z" fill="black"/>
<path d="M10.648 23.9062C10.4993 24.0759 10.4993 24.3521 10.6696 24.5007C10.7545 24.5645 10.8604 24.6066 10.9663 24.6066C11.0728 24.6066 11.2003 24.5645 11.2852 24.458C13.132 22.4204 13.132 19.1295 11.2852 17.0919C11.1366 16.9217 10.8604 16.9006 10.6907 17.0703C10.521 17.2189 10.4993 17.4951 10.6696 17.6648C12.1981 19.3846 12.1981 22.187 10.648 23.9062Z" fill="black"/>
<path d="M9.39332 23.206C9.47817 23.2909 9.5841 23.3336 9.69058 23.3336C9.79651 23.3336 9.90243 23.2909 9.98784 23.206C11.2828 21.8684 11.2828 19.7032 9.98784 18.3656C9.81758 18.1959 9.56302 18.1959 9.39332 18.3656C9.22306 18.5358 9.22306 18.7904 9.39332 18.9601C10.37 19.9578 10.37 21.6138 9.39332 22.6115C9.22306 22.7812 9.22306 23.0574 9.39332 23.206Z" fill="black"/>
<path d="M8.09948 21.973C8.18433 22.0579 8.29026 22.1 8.41781 22.1C8.52374 22.1 8.60859 22.0579 8.69344 21.9941C9.05448 21.6757 9.26689 21.2509 9.26689 20.784C9.26689 20.317 9.05448 19.8922 8.69344 19.5738C8.52374 19.4252 8.24811 19.4468 8.09948 19.6166C7.95085 19.7863 7.97192 20.0624 8.14162 20.2111C8.31133 20.3597 8.41781 20.5716 8.41781 20.784C8.41781 20.9964 8.31133 21.2088 8.14162 21.3574C7.97192 21.5271 7.95085 21.7817 8.09948 21.973Z" fill="black"/>
<path d="M31.8777 17.1123C30.0304 19.1504 30.0304 22.4408 31.8777 24.4789C31.9625 24.5637 32.0685 24.6275 32.196 24.6275C32.302 24.6275 32.4084 24.5848 32.4717 24.521C32.6419 24.3724 32.663 24.0968 32.4933 23.9265C30.9432 22.2073 30.9432 19.426 32.4933 17.7068C32.6419 17.5365 32.6419 17.2609 32.4717 17.1123C32.302 16.9209 32.0474 16.9209 31.8777 17.1123Z" fill="black"/>
<path d="M33.7689 18.3656C33.5986 18.1959 33.323 18.217 33.1744 18.3656C31.8794 19.7033 31.8794 21.8684 33.1744 23.2061C33.2592 23.2909 33.3651 23.3336 33.4716 23.3336C33.5775 23.3336 33.6835 23.2909 33.7689 23.2061C33.9386 23.0364 33.9386 22.7813 33.7689 22.6115C32.7922 21.6138 32.7922 19.9578 33.7689 18.9601C33.9386 18.7904 33.9386 18.5142 33.7689 18.3656Z" fill="black"/>
<mask id="mask1_5_1559" style="mask-type:luminance" maskUnits="userSpaceOnUse" x="33" y="19" width="3" height="4">
<path d="M33.7969 19.3711H35.2127V22.2106H33.7969V19.3711Z" fill="white"/>
</mask>
<g mask="url(#mask1_5_1559)">
<path d="M35.0586 19.5953C34.91 19.425 34.6338 19.4039 34.4641 19.5526C34.103 19.8709 33.8906 20.3168 33.8906 20.7627C33.8906 21.2296 34.103 21.6545 34.4641 21.9728C34.5489 22.0366 34.6549 22.0787 34.7397 22.0787C34.8673 22.0787 34.9737 22.0366 35.0586 21.9301C35.2072 21.7604 35.1856 21.4842 35.0159 21.3356C34.8462 21.2086 34.7397 20.9962 34.7397 20.7837C34.7397 20.5713 34.8462 20.3595 35.0159 20.2108C35.1856 20.0406 35.2072 19.786 35.0586 19.5953Z" fill="black"/>
</g>
</svg>
