<svg width="55" height="55" viewBox="0 0 55 55" fill="none" xmlns="http://www.w3.org/2000/svg">
<circle cx="27.5" cy="27.5" r="27.5" fill="#FFD23F"/>
<mask id="mask0_0_1" style="mask-type:luminance" maskUnits="userSpaceOnUse" x="19" y="22" width="18" height="17">
<path d="M19 22.3789H36.5778V38.9979H19V22.3789Z" fill="white"/>
</mask>
<g mask="url(#mask0_0_1)">
<path d="M33.5063 38.5106H22.0733C20.644 38.5106 19.4844 37.3524 19.4844 35.924V22.9492H36.0952V35.924C36.0952 37.3524 34.9355 38.5106 33.5063 38.5106Z" stroke="black" stroke-width="0.962859" stroke-miterlimit="10" stroke-linecap="round" stroke-linejoin="round"/>
</g>
<mask id="mask1_0_1" style="mask-type:luminance" maskUnits="userSpaceOnUse" x="21" y="16" width="13" height="8">
<path d="M21.3984 16H33.9915V23.5468H21.3984V16Z" fill="white"/>
</mask>
<g mask="url(#mask1_0_1)">
<path d="M21.9453 22.9546V22.3256C21.9453 19.0986 24.5652 16.4805 27.8014 16.4805C29.4138 16.4805 30.8772 17.1345 31.9371 18.1935C32.6563 18.9123 33.1901 19.8168 33.4525 20.8239" stroke="black" stroke-width="0.962859" stroke-miterlimit="10" stroke-linecap="round" stroke-linejoin="round"/>
</g>
<path d="M30.2556 29.1687C30.2556 27.8114 29.1542 26.7109 27.7955 26.7109C26.4373 26.7109 25.3359 27.8114 25.3359 29.1687C25.3359 30.2673 26.0624 31.1856 27.0567 31.5012V34.6108H28.5338V31.5012C29.5291 31.1865 30.2556 30.2673 30.2556 29.1687Z" stroke="black" stroke-width="0.962859" stroke-miterlimit="10" stroke-linecap="round" stroke-linejoin="round"/>
</svg>
