<svg width="69" height="76" viewBox="0 0 69 76" fill="none" xmlns="http://www.w3.org/2000/svg">
<path d="M63.0391 21.1669C68.6531 11.9837 69.7783 3.16343 65.6525 0.646819C61.5388 -1.86979 54.1946 3.15133 48.5807 12.3345C46.8021 15.2383 45.4833 18.1058 44.6243 20.7434L35.3805 18.2631C33.7835 17.8396 32.0654 18.2994 30.8918 19.4609L2.10803 48.2689C1.23689 49.14 0.75293 50.3136 0.75293 51.5477C0.75293 52.7818 1.23689 53.9554 2.10803 54.8266L21.9264 74.6449C22.8338 75.5523 24.0195 76 25.2052 76C26.3909 76 27.5887 75.5523 28.4841 74.6449L57.292 45.837C58.4656 44.6633 58.9254 42.9453 58.4898 41.3482L55.4771 30.096C55.5739 30.0476 55.6828 30.0113 55.7675 29.9266C58.3688 27.7004 60.8854 24.6514 63.0391 21.1306V21.1669ZM55.6344 44.2036L26.8265 73.0115C25.9553 73.8827 24.443 73.8827 23.5839 73.0115L3.76561 53.1811C3.33004 52.7455 3.08806 52.1769 3.08806 51.5598C3.08806 50.9428 3.33004 50.3741 3.76561 49.9385L32.5615 21.1306C32.8458 20.8456 33.1997 20.6399 33.5881 20.5338C33.9765 20.4277 34.3858 20.4249 34.7756 20.5256L44.0072 23.006C43.6926 24.3611 43.5232 25.6436 43.499 26.8051C42.8941 27.0471 42.3254 27.41 41.8536 27.894C40.9219 28.8256 40.4017 30.0718 40.4017 31.3906C40.4017 32.7094 40.9219 33.9556 41.8536 34.8873C42.7852 35.8189 44.0314 36.3392 45.3502 36.3392C46.669 36.3392 47.9152 35.8189 48.8468 34.8873C49.3671 34.367 49.7301 33.7621 49.9842 33.0966C50.2745 32.8425 50.4439 32.4553 50.3713 32.044C50.3592 31.9472 50.3108 31.8625 50.2624 31.7778C50.2624 31.6447 50.2987 31.5237 50.2987 31.3906C50.2987 30.0718 49.7785 28.8256 48.8468 27.894C48.0362 27.0833 46.9836 26.6115 45.8463 26.4905C45.8947 25.6194 46.0278 24.6635 46.2697 23.6109L49.1856 24.3973C50.7222 24.8087 51.9321 26.0186 52.3435 27.5431L56.2031 41.9652C56.3066 42.3539 56.3063 42.7629 56.2023 43.1515C56.0983 43.54 55.8941 43.8944 55.6102 44.1794L55.6344 44.2036ZM43.5232 29.5637C43.5958 29.4911 43.6684 29.4427 43.741 29.3822C44.0919 30.943 44.8178 32.1529 45.9673 32.8546C46.3181 33.0724 46.6932 33.2297 47.0925 33.3386C46.1003 34.2218 44.467 34.1976 43.5232 33.2418C43.0272 32.7457 42.761 32.0924 42.761 31.4027C42.761 30.7131 43.0272 30.0476 43.5232 29.5637ZM47.2014 30.8583C46.6327 30.5074 46.2334 29.8298 46.0278 28.8982C46.4754 29.0192 46.8747 29.237 47.2135 29.5637C47.6369 29.9871 47.8789 30.5316 47.9515 31.1123C47.6732 31.0639 47.4192 30.9793 47.2014 30.8462V30.8583ZM54.6302 26.9503C54.3182 25.7969 53.7094 24.7454 52.8646 23.9005C52.0197 23.0556 50.9682 22.4468 49.8148 22.1348L46.9231 21.3605C47.6974 18.977 48.9073 16.3152 50.5891 13.5566C55.6707 5.24448 61.9623 1.14288 64.4305 2.65527C66.8987 4.16766 66.1123 11.6328 61.0306 19.9449C59.1916 22.9455 57.0016 25.6557 54.8117 27.6641L54.6181 26.9503H54.6302Z" fill="#A3CB03"/>
<path d="M39.276 37.6459C38.8041 37.1982 38.0661 37.2224 37.6184 37.6943L36.227 39.1583C32.2585 36.2424 28.3021 38.4686 26.6687 40.1988C24.9144 42.062 22.7123 46.6355 26.9591 50.6645C30.5041 54.0159 27.5036 57.44 27.1648 57.803C26.8018 58.178 23.5593 61.3601 20.0142 58.0086C16.4692 54.6572 19.4698 51.2332 19.8085 50.8581C20.2562 50.3862 20.232 49.6482 19.7601 49.2005C19.2883 48.7528 18.5502 48.777 18.1026 49.2489C16.4692 50.9791 14.4607 55.0565 17.5944 58.8556L16.203 60.3196C15.7553 60.7914 15.7795 61.5295 16.2514 61.9772C16.4813 62.1949 16.7717 62.3038 17.062 62.3038C17.3766 62.3038 17.6791 62.1828 17.909 61.9409L19.3004 60.4769C20.6918 61.4932 22.0711 61.8925 23.3657 61.8925C25.7492 61.8925 27.7939 60.5495 28.8587 59.4242C28.9071 59.3759 30.1291 58.0691 30.6977 56.1575C31.2543 54.3184 31.339 51.584 28.5562 48.9585C25.0111 45.6071 28.0117 42.183 28.3505 41.8201C28.7135 41.445 31.956 38.275 35.5011 41.6144C39.0461 44.9658 36.0455 48.3899 35.6946 48.7649C35.247 49.2368 35.2712 49.9748 35.743 50.4225C36.2149 50.8702 36.953 50.846 37.4006 50.3741C39.034 48.644 41.0424 44.5666 37.9088 40.7674L39.3002 39.3034C39.7478 38.8316 39.7236 38.0935 39.2518 37.6459H39.276Z" fill="#A3CB03"/>
</svg>
