<svg width="82" height="82" viewBox="0 0 82 82" fill="none" xmlns="http://www.w3.org/2000/svg">
<path d="M44.3172 60.9154C44.3172 62.8037 43.1496 64.4229 41.4984 65.0923V67.035C41.4984 67.7429 40.9251 68.3147 40.2188 68.3147C39.5125 68.3147 38.9391 67.7413 38.9391 67.035V65.4206C37.8873 65.3921 36.8785 64.9973 36.0868 64.3043C35.5534 63.8399 35.499 63.0311 35.965 62.4978C36.4311 61.9645 37.2383 61.91 37.7716 62.3761C38.132 62.69 38.5884 62.8629 39.0593 62.8629H39.8088C40.885 62.8629 41.7611 61.9885 41.7611 60.9154C41.7611 59.884 40.9267 59.008 39.9017 58.9615C39.8376 58.9583 39.7752 58.9503 39.7143 58.9375C38.6 58.8294 37.5661 58.3096 36.8147 57.4797C36.0633 56.6498 35.6484 55.5695 35.6511 54.4499C35.6511 52.3855 37.0461 50.6414 38.9423 50.1065V48.3256C38.9423 47.6177 39.5157 47.0459 40.222 47.0459C40.9283 47.0459 41.5016 47.6193 41.5016 48.3256V49.9768C42.3777 50.0937 43.2057 50.4668 43.8832 51.0562C44.4165 51.5207 44.4709 52.3295 44.0049 52.8628C43.8944 52.9896 43.7599 53.0933 43.6093 53.168C43.4586 53.2428 43.2947 53.2871 43.1269 53.2984C42.959 53.3097 42.7906 53.2878 42.6313 53.2339C42.472 53.1801 42.3248 53.0953 42.1983 52.9845C41.838 52.6706 41.3815 52.4976 40.9107 52.4976H40.1611C39.0849 52.4976 38.2088 53.3737 38.2088 54.4499C38.2088 55.4829 39.0496 56.3574 40.0843 56.399C40.1563 56.4022 40.2252 56.4118 40.2941 56.4263C42.5699 56.6697 44.3172 58.59 44.3172 60.9154ZM75.8327 59.3587C75.8327 66.4248 70.0831 72.1744 63.017 72.1744C62.0257 72.1744 61.0631 72.0575 60.1358 71.8445C55.597 78.2203 48.1353 82 39.9818 82C26.5735 82 15.6668 71.6587 15.6668 58.9471C15.6668 52.2189 18.737 45.4748 24.3137 39.959C24.6964 39.581 25.0776 39.2079 25.4572 38.8379C25.9072 38.3975 26.3493 37.9666 26.7801 37.539C26.0658 37.3452 25.3291 37.2507 24.5155 37.2507H19.5987V37.4589C19.5987 38.9628 18.3751 40.188 16.8696 40.188H8.89703C7.39316 40.188 6.16797 38.9644 6.16797 37.4589V11.3359C6.16797 9.83199 7.39156 8.6068 8.89703 8.6068H16.8696C18.3735 8.6068 19.5987 9.83039 19.5987 11.3359V12.5386H23.8748C25.7759 12.5386 27.3775 12.0245 28.9182 10.9211L29.6933 10.3701C30.0633 10.1059 30.4316 9.87524 30.8048 9.66703L30.0232 5.5318C29.8791 4.77586 29.4435 2.47121 31.1588 0.920901C32.3487 -0.155349 34.056 -0.296286 35.4093 0.570159L36.2325 1.09707C36.5608 1.30528 36.9324 1.30528 37.2671 1.09227L38.0887 0.562151C39.2547 -0.185779 40.7041 -0.18738 41.8764 0.557346L42.7156 1.09547C43.0391 1.30207 43.4155 1.30207 43.7438 1.09227L44.5622 0.568557C45.9155 -0.297888 47.6228 -0.156951 48.8128 0.919299C50.528 2.46961 50.0908 4.77266 49.9467 5.5302L49.495 7.91973H53.2379C56.0518 7.91973 58.3405 10.2084 58.3405 13.0223C58.3405 14.1354 57.9817 15.1652 57.3763 16.0044C59.1669 16.7972 60.4193 18.5909 60.4193 20.6714C60.4193 22.7534 59.1669 24.5488 57.3763 25.3431C57.9817 26.1823 58.3405 27.2105 58.3405 28.322C58.3405 30.2535 57.2642 31.9368 55.6803 32.8048C56.3721 33.6761 56.787 34.7763 56.787 35.9711C56.787 37.3597 56.2296 38.6201 55.3263 39.5426C56.3657 40.6284 57.3779 41.7351 58.3437 42.9523C59.2982 44.1615 60.1518 45.4251 60.8934 46.7192C61.5852 46.6023 62.2947 46.5398 63.0202 46.5398C70.0831 46.543 75.8327 52.2926 75.8327 59.3587ZM35.8081 25.3367H41.6986C41.9637 24.9714 42.2754 24.6424 42.6259 24.3582C42.0377 23.7418 41.6141 22.9872 41.3943 22.164L40.1195 17.409L36.6201 18.3475C36.6175 19.6901 36.2964 21.0129 35.6832 22.2073C35.8017 23.3155 35.8417 24.3566 35.8081 25.3367ZM41.7339 35.9743C41.7339 37.3789 42.8742 38.5208 44.2756 38.5208H51.6764C53.0809 38.5208 54.2229 37.3789 54.2229 35.9743C54.2229 34.5729 53.0809 33.4326 51.6764 33.4326H44.2771C42.8742 33.431 41.7339 34.5729 41.7339 35.9743ZM55.7748 28.3236C55.7748 26.9223 54.6345 25.782 53.2331 25.782H47.6196C46.8596 25.9822 46.0634 26.0025 45.2941 25.8412C44.1506 26.0895 43.2922 27.108 43.2922 28.3252C43.2922 29.7298 44.4325 30.8717 45.8339 30.8717H53.2331C54.6345 30.8717 55.7748 29.7282 55.7748 28.3236ZM57.8552 20.6746C57.8552 19.2732 56.7149 18.1329 55.3135 18.1329H50.89L51.2616 19.5214C51.6075 20.8123 51.4233 22.1224 50.8436 23.2211H55.3135C56.7133 23.2211 57.8552 22.0791 57.8552 20.6746ZM53.2331 10.4822H48.8384L50.2013 15.572H53.2331C54.6345 15.572 55.7748 14.4301 55.7748 13.0255C55.7748 11.6225 54.6345 10.4822 53.2331 10.4822ZM33.2232 8.68688C33.2552 8.67727 33.2872 8.66766 33.3193 8.65965L42.0157 6.33098C43.4347 5.94981 44.921 6.1468 46.199 6.88512C46.4777 7.04528 46.7372 7.22785 46.9774 7.42965L47.4258 5.05774C47.7061 3.57949 47.3682 3.0734 47.0895 2.82196C46.7628 2.52567 46.3095 2.48883 45.9364 2.72746L45.1148 3.25438C43.9456 3.9991 42.4962 3.9991 41.3303 3.25598L40.4911 2.71785C40.1659 2.51125 39.7912 2.50965 39.4677 2.71785L38.6396 3.25278C37.4641 3.9959 36.0163 3.9959 34.8504 3.25918L34.0223 2.72746C33.6508 2.48883 33.1975 2.52567 32.8708 2.82196C32.5921 3.0734 32.2542 3.57949 32.5345 5.05774L33.2232 8.68688ZM17.0362 11.3359C17.0362 11.2462 16.9577 11.1677 16.868 11.1677H8.89703C8.80734 11.1677 8.72887 11.2462 8.72887 11.3359V37.4589C8.72887 37.5486 8.80734 37.6271 8.89703 37.6271H16.8696C16.9593 37.6271 17.0378 37.5486 17.0378 37.4589V11.3359H17.0362ZM24.5139 34.6898C26.0354 34.6898 27.3983 34.9509 28.7356 35.5034C31.037 32.9538 32.7299 30.292 33.1575 26.5571C33.1607 26.4882 33.1671 26.421 33.1815 26.3553C33.2216 25.9549 33.2472 25.5401 33.2568 25.1125C31.8186 26.2112 30.0248 26.8678 28.0789 26.8678C27.3711 26.8678 26.7993 26.2945 26.7993 25.5882C26.7993 24.8819 27.3727 24.3085 28.0789 24.3085C31.3782 24.3085 34.0624 21.6243 34.0624 18.3251V17.3673C34.0624 16.7876 34.4516 16.2815 35.0105 16.1309L40.6945 14.6063C41.0226 14.5184 41.3721 14.5644 41.6664 14.734C41.9607 14.9037 42.1756 15.1832 42.264 15.5111L43.872 21.5042C44.0465 22.1576 44.4693 22.7054 45.0619 23.0465C45.1964 23.1234 45.3358 23.1874 45.4783 23.2387C45.5968 23.2307 45.7154 23.2243 45.8371 23.2243H47.2384C48.4428 22.7662 49.1315 21.4577 48.792 20.1877L46.3047 10.8986C46.1013 10.1395 45.6113 9.50207 44.9258 9.10649C44.2403 8.7109 43.4443 8.6052 42.6852 8.8086L33.9871 11.1373C33.5467 11.2542 33.1463 11.3919 32.7619 11.5585C32.7507 11.5633 32.7395 11.5697 32.7267 11.5745C32.1982 11.8051 31.7017 12.0902 31.186 12.4602L30.4124 13.0111C28.4473 14.4189 26.3092 15.1059 23.8813 15.1059H19.6051V34.6898H24.5139ZM57.5973 70.9684C53.2315 68.9232 50.1997 64.4885 50.1997 59.3587C50.1997 53.9438 53.5774 49.3057 58.3357 47.4319C57.7367 46.4437 57.0672 45.4764 56.3321 44.5443C55.3071 43.2502 54.202 42.0666 53.0617 40.8895C52.6213 41.0144 52.1568 41.0817 51.6764 41.0817H44.2756C41.4616 41.0817 39.173 38.7898 39.173 35.9743C39.173 34.0444 40.2508 32.3612 41.8364 31.4931C41.1196 30.5923 40.7299 29.4748 40.7313 28.3236C40.7313 28.1795 40.7393 28.0386 40.7505 27.8976H35.547C34.5493 33.5351 30.9778 37.0265 27.2461 40.6685C26.8714 41.0336 26.4934 41.4036 26.1138 41.7784C21.0273 46.8089 18.2261 52.906 18.2261 58.9455C18.2261 70.2461 27.9861 79.4391 39.9818 79.4391C47.0366 79.4391 53.507 76.3 57.5973 70.9684ZM73.2718 59.3587C73.2718 53.7036 68.6705 49.1039 63.017 49.1039C57.3635 49.1039 52.7622 53.7052 52.7622 59.3587C52.7622 65.0122 57.3635 69.6135 63.017 69.6135C68.6705 69.6135 73.2718 65.0138 73.2718 59.3587ZM66.4332 60.5503L64.2967 62.6852V52.9445C64.2967 52.2366 63.7233 51.6648 63.017 51.6648C62.3107 51.6648 61.7374 52.2382 61.7374 52.9445V62.6836L59.6057 60.5519C59.3646 60.3171 59.0408 60.1867 58.7043 60.1889C58.3678 60.1911 58.0457 60.3258 57.8078 60.5637C57.5698 60.8017 57.4352 61.1238 57.433 61.4603C57.4307 61.7968 57.5611 62.1206 57.7959 62.3616L62.1137 66.6795C62.3636 66.9293 62.6919 67.0542 63.0186 67.0542C63.3454 67.0542 63.6737 66.9293 63.9235 66.6795L68.2461 62.3616C68.7458 61.862 68.7474 61.0516 68.2477 60.5519C67.748 60.0522 66.9344 60.0506 66.4332 60.5503Z" fill="#A3CB03"/>
</svg>
