<svg width="44" height="44" viewBox="0 0 44 44" fill="none" xmlns="http://www.w3.org/2000/svg">
<rect width="44" height="44" rx="22" fill="#FFD23F"/>
<mask id="mask0_5_1961" style="mask-type:luminance" maskUnits="userSpaceOnUse" x="13" y="17" width="18" height="17">
<path d="M13 17.3789H30.5778V33.9979H13V17.3789Z" fill="white"/>
</mask>
<g mask="url(#mask0_5_1961)">
<path d="M27.5063 33.5106H16.0733C14.644 33.5106 13.4844 32.3524 13.4844 30.924V17.9492H30.0952V30.924C30.0952 32.3524 28.9355 33.5106 27.5063 33.5106Z" stroke="black" stroke-width="0.962859" stroke-miterlimit="10" stroke-linecap="round" stroke-linejoin="round"/>
</g>
<mask id="mask1_5_1961" style="mask-type:luminance" maskUnits="userSpaceOnUse" x="15" y="11" width="13" height="8">
<path d="M15.3984 11H27.9915V18.5468H15.3984V11Z" fill="white"/>
</mask>
<g mask="url(#mask1_5_1961)">
<path d="M15.9453 17.9546V17.3256C15.9453 14.0986 18.5652 11.4805 21.8014 11.4805C23.4138 11.4805 24.8772 12.1345 25.9371 13.1935C26.6563 13.9123 27.1901 14.8168 27.4525 15.8239" stroke="black" stroke-width="0.962859" stroke-miterlimit="10" stroke-linecap="round" stroke-linejoin="round"/>
</g>
<path d="M24.2556 24.1687C24.2556 22.8114 23.1542 21.7109 21.7955 21.7109C20.4373 21.7109 19.3359 22.8114 19.3359 24.1687C19.3359 25.2673 20.0624 26.1856 21.0567 26.5012V29.6108H22.5338V26.5012C23.5291 26.1865 24.2556 25.2673 24.2556 24.1687Z" stroke="black" stroke-width="0.962859" stroke-miterlimit="10" stroke-linecap="round" stroke-linejoin="round"/>
</svg>
