<svg width="45" height="40" viewBox="0 0 45 40" fill="none" xmlns="http://www.w3.org/2000/svg">
<path d="M19.2429 11.5862C19.2252 11.6191 19.2307 11.658 19.2565 11.6851C19.4085 11.8447 19.5893 11.8387 19.7485 11.8337C19.854 11.8302 19.9552 11.8269 20.0571 11.8626C20.1673 11.9014 20.2807 11.9955 20.3893 12.0863C20.4949 12.1751 20.6137 12.2749 20.7425 12.3241C20.875 12.3747 21.0191 12.3719 21.1721 12.2514C21.1877 12.242 21.1997 12.227 21.2064 12.21C21.212 12.1958 21.213 12.1813 21.2116 12.1668C21.204 11.9747 21.0995 11.7811 20.9113 11.6063C20.7397 11.4471 20.514 11.3195 20.276 11.2482C19.8292 11.1135 19.4415 11.2013 19.239 11.4832C19.2169 11.5153 19.219 11.5566 19.2429 11.5862Z" fill="#FF6A01"/>
<path d="M15.9739 9.75293C15.838 9.54405 15.4857 9.40491 15.2482 9.46568C15.0981 9.50434 15.008 9.61764 14.9978 9.77681C14.9967 9.79505 15.0015 9.81178 15.0111 9.82709C15.0815 9.93921 15.2674 10.0451 15.4189 10.1053C15.4247 10.1075 15.4321 10.1103 15.4403 10.1134C15.5493 10.1551 15.7727 10.225 15.9188 10.1666C15.9326 10.1616 15.9448 10.1523 15.9533 10.1415C16.0503 10.0239 16.0578 9.88234 15.9739 9.75293Z" fill="#FF6A01"/>
<mask id="mask0_5_1410" style="mask-type:luminance" maskUnits="userSpaceOnUse" x="0" y="0" width="45" height="40">
<path d="M10.9021 0.833496L44.9999 13.8494L34.9492 39.3507L0.851384 26.3348L10.9021 0.833496Z" fill="white"/>
</mask>
<g mask="url(#mask0_5_1410)">
<path d="M39.9112 26.5713C39.9448 26.3288 39.8647 26.103 39.6728 25.9016C39.5167 25.7381 39.2838 25.5877 38.9799 25.4568C38.5031 25.2506 37.936 25.1231 37.4969 25.0468C37.6946 24.8274 37.8352 24.5693 37.9332 24.2461C37.9367 24.2335 37.9382 24.2215 37.936 24.209C37.8904 23.8934 37.7566 23.6635 37.5403 23.5254C37.0539 23.2149 36.2561 23.4373 35.6737 23.5998C35.5404 23.6365 35.4205 23.6704 35.3188 23.6931C35.3622 23.3654 35.2677 23.0311 35.0548 22.7798C34.8305 22.5153 34.5104 22.3689 34.1432 22.3624C34.1785 22.0111 33.9786 21.7591 33.8009 21.5338C33.75 21.4697 33.7009 21.4067 33.6566 21.3437C33.8159 21.2819 34.0218 21.2231 34.2543 21.1581C34.9969 20.9472 35.9219 20.683 36.2724 20.0555C36.4196 19.7926 36.4545 19.5347 36.3775 19.2892C36.2963 19.0304 36.0868 18.792 35.7809 18.6096C35.9455 18.5247 36.1189 18.4534 36.2883 18.3839C36.9321 18.12 37.5981 17.8473 37.9192 16.8154C37.9222 16.8053 37.9229 16.7939 37.9227 16.7822C37.8924 16.4459 37.7614 16.1383 37.5334 15.8686C37.3479 15.6487 37.0921 15.4486 36.7725 15.2721C37.0499 15.104 37.5838 14.7403 38.0389 14.198C38.2799 13.9122 38.4599 13.6189 38.575 13.3292C38.7097 12.9911 38.7547 12.6533 38.7109 12.3273C38.6711 12.0404 38.508 11.7611 38.2617 11.5585C37.9943 11.3385 37.6568 11.2302 37.3096 11.2561C36.7566 11.2957 36.1642 11.4716 35.5913 11.6424C35.4315 11.6899 35.2667 11.7393 35.1085 11.7828C34.803 11.8684 34.4958 11.9799 34.1997 12.0886C33.8147 12.2296 33.4159 12.3741 33.0024 12.4707C32.434 12.6036 31.8717 12.7379 31.3289 12.8685C30.3439 13.1047 29.4111 13.3286 28.5482 13.5145C28.4945 12.6056 28.1488 11.6126 27.5222 10.5623C26.9413 9.58955 26.3609 8.84714 25.6968 8.22466C24.8721 7.45139 23.9086 6.85951 22.7555 6.4147C21.523 5.93957 20.3222 5.83106 19.0827 6.08239C18.0309 6.29589 17.0732 6.73677 16.1082 7.21403C15.8728 6.15371 15.3448 4.54935 14.7541 3.42842C14.7028 3.3315 14.654 3.22714 14.6018 3.11822C14.4664 2.82988 14.3253 2.53094 14.1181 2.28786C13.874 2.00274 13.5822 1.85313 13.2261 1.83044C12.9273 1.81142 12.6578 1.91165 12.4281 2.12915C12.232 2.31332 12.0652 2.57671 11.9175 2.93357C11.6525 3.57226 11.5058 4.38517 11.3873 5.03784C11.3519 5.23446 11.3172 5.42341 11.283 5.58832C11.0206 5.3125 10.6854 5.16593 10.3058 5.16219C9.86487 5.15787 9.40168 5.35657 9.12459 5.66684C8.85116 5.97385 8.68711 6.37806 8.62174 6.90426C8.56607 7.35543 8.58888 7.84168 8.60942 8.26882C8.62709 8.63477 8.64399 8.98226 8.60955 9.25704C8.23407 9.31125 7.95626 9.47682 7.78442 9.74946C7.36148 10.4178 7.68215 11.5572 7.91039 12.1769C7.95923 12.3064 8.06866 12.5224 8.18544 12.751C8.30483 12.9862 8.50171 13.3707 8.51918 13.479C8.49266 13.4982 8.43629 13.5307 8.39246 13.5554C8.23677 13.6442 8.12268 13.7138 8.07712 13.7994C7.92784 14.0737 7.89544 14.4093 7.98045 14.7954C8.05765 15.1473 8.21485 15.4775 8.32618 15.6947C8.60834 16.2436 9.04342 16.76 9.65387 17.2735C10.1959 17.7288 10.8261 18.1431 11.4358 18.5431C11.674 18.7002 11.9215 18.8613 12.1607 19.0257C12.2668 19.9444 12.542 20.8616 13.003 21.83C13.3864 22.6374 13.9071 23.489 14.5924 24.4326C15.1959 25.2626 16.0333 26.3402 17.1659 27.3042C18.1922 28.1777 19.3216 28.8445 20.6047 29.3343C20.759 29.3932 20.915 29.449 21.0732 29.5029C21.7573 30.6283 22.7395 31.6279 23.6936 32.5955C23.4774 33.0515 23.3685 33.4731 23.3708 33.8518C23.3726 34.234 23.4878 34.5818 23.7106 34.8863C23.718 34.8975 23.7283 34.9061 23.7412 34.9119C23.8528 34.9685 23.964 35.0431 24.0722 35.1147C24.2237 35.2154 24.368 35.3105 24.5178 35.3677C24.5425 35.3771 24.5671 35.3856 24.5914 35.3925C24.803 35.4537 24.9904 35.413 25.1628 35.271C25.1733 35.2625 25.1823 35.2505 25.1874 35.2375C25.4051 34.7187 25.4451 34.2834 25.4852 33.8632C25.5038 33.6611 25.524 33.4526 25.562 33.2337C25.7252 32.3102 25.6584 31.7265 25.3617 31.4968C25.1868 31.3606 24.9401 31.3522 24.6302 31.4719C24.5729 31.4095 24.5148 31.3454 24.4579 31.2846C24.1426 30.9434 23.8173 30.5928 23.562 30.2195C23.7298 30.2384 23.8983 30.2599 24.0636 30.2815C24.3319 30.3154 24.6082 30.3519 24.8771 30.3758C25.1351 30.7711 25.36 31.1924 25.5776 31.5988C25.9089 32.22 26.2521 32.8616 26.7266 33.4378C26.7075 33.5102 26.6872 33.5845 26.6658 33.663C26.5491 34.096 26.417 34.586 26.3978 35.0096C26.3747 35.5245 26.522 35.8523 26.8492 36.0107C27.0536 36.1083 27.1718 36.0677 27.2675 36.0362C27.3311 36.0144 27.3812 35.9976 27.4633 36.0187C27.4909 36.0255 27.5216 36.0582 27.5561 36.0956C27.6297 36.1745 27.7293 36.2819 27.9329 36.2832C27.9398 36.2836 27.9476 36.2819 27.9545 36.2812C28.1365 36.2361 28.3158 36.1475 28.5014 36.0106C28.5144 36.0016 28.5241 35.989 28.53 35.974C28.8307 35.252 28.7853 34.7124 28.7326 34.0871C28.7189 33.9165 28.7039 33.7407 28.6957 33.5526L28.6955 33.5446C28.6669 32.9169 28.6361 32.2058 28.2416 31.9746C28.0674 31.8722 27.8411 31.8772 27.5692 31.9905C27.4725 31.7975 27.3671 31.6072 27.264 31.4221C27.0902 31.1097 26.9107 30.7882 26.7776 30.4532C29.004 30.4906 31.1742 30.1635 33.735 29.6609L33.8004 29.6477C34.8962 29.4328 35.9313 29.2307 37.0551 28.7418C37.5381 28.5325 38.0673 28.2397 38.5685 27.954C38.7741 27.8373 39.0788 27.654 39.3498 27.4215C39.6841 27.1294 39.8723 26.8453 39.9112 26.5713ZM27.9064 32.8586C27.9182 32.9535 27.9318 33.05 27.9454 33.1488C28.0491 33.9068 28.1563 34.6894 27.9318 35.4763C27.7774 35.2278 27.7776 34.9055 27.7939 34.5697C27.8 34.4379 27.8268 34.299 27.8516 34.164C27.9046 33.8805 27.9603 33.5878 27.8444 33.3306C27.8351 33.3098 27.8181 33.294 27.7955 33.2854C27.7947 33.2851 27.7926 33.2843 27.7914 33.2838C27.7674 33.2761 27.7417 33.2788 27.7201 33.2916C27.4814 33.4278 27.4336 33.7483 27.3878 34.0578C27.3759 34.1423 27.3627 34.2285 27.3462 34.3089L27.3293 34.3938C27.2784 34.6455 27.226 34.9032 27.1655 35.1456C27.086 34.7109 27.2342 34.1618 27.3787 33.6281C27.4058 33.5294 27.433 33.428 27.4596 33.3281C27.4669 33.3011 27.46 33.2729 27.4417 33.251C26.9206 32.644 26.5416 31.9565 26.1761 31.291C25.9679 30.9124 25.7515 30.52 25.5109 30.1453C25.5489 30.1379 25.5947 30.1321 25.6442 30.1315C25.7413 30.1289 25.7936 30.1489 25.8075 30.1603C26.0047 30.4815 26.1666 30.8275 26.3235 31.1623C26.6328 31.8273 26.9536 32.5135 27.5779 33.064C27.5929 33.0762 27.6118 33.0848 27.6315 33.0853C27.8137 33.0939 27.8743 32.9689 27.9064 32.8586ZM8.77157 14.0733C8.79801 14.0387 8.84982 13.9937 8.97953 14.013C8.98602 14.0145 8.99391 14.0161 9.00296 14.0196C9.05398 14.039 9.15234 14.1078 9.31977 14.3292C9.46401 14.5194 9.61666 14.7603 9.76347 14.9919C9.91829 15.2369 10.0639 15.4681 10.176 15.5944L10.179 15.5964C10.1891 15.6236 10.2001 15.6497 10.2088 15.6758C10.2224 15.7122 10.2591 15.7355 10.298 15.7318C10.3367 15.7284 10.3691 15.7002 10.3768 15.6626C10.3907 15.5915 10.3587 15.5416 10.3304 15.5065C10.1666 15.1006 9.89212 14.5971 9.6036 14.0667C9.18223 13.2909 8.70326 12.4101 8.45403 11.6287C8.32116 11.2127 8.0989 10.5166 8.36976 10.1369C8.41755 10.0685 8.53044 10.0091 8.64362 9.99218C8.74132 9.97729 8.82715 9.99375 8.88748 10.0401C8.98803 10.1153 8.99888 10.4097 9.00821 10.6695C9.0201 11.008 9.03382 11.3576 9.21696 11.5211C9.24104 11.5429 9.27578 11.5496 9.30639 11.538C9.3366 11.5263 9.35819 11.4991 9.36228 11.4671C9.43579 10.7749 9.39834 10.1228 9.36039 9.4924C9.30068 8.47399 9.23945 7.42099 9.65598 6.18277C9.86025 5.93834 10.1086 5.84632 10.3773 5.91533C10.8246 6.03066 11.264 6.57948 11.3558 7.13817C11.3923 7.35293 11.3774 7.5783 11.363 7.796C11.3429 8.11862 11.3233 8.42422 11.4701 8.65824C11.4897 8.68901 11.5272 8.70427 11.5626 8.69729C11.5991 8.68885 11.6265 8.66017 11.6318 8.62398C11.6722 8.31236 11.7097 7.96979 11.7482 7.60802C11.8764 6.41908 12.0211 5.07292 12.391 3.90495L12.3939 3.89766C12.4719 3.65164 12.5889 3.28026 12.7451 2.98858C12.9145 2.67167 13.0856 2.52923 13.2543 2.56612C13.5743 2.63469 13.8334 3.21578 13.9888 3.56256C14.0238 3.64069 14.0545 3.70926 14.082 3.76447C14.8192 5.24881 15.2457 6.70822 15.5646 7.94481C14.9919 8.61467 14.4704 9.44058 14.0133 10.401C13.5519 10.4294 13.0683 10.3939 12.5569 10.3571C12.0119 10.3177 11.4473 10.2764 10.8804 10.313C10.8128 10.3175 10.5745 10.336 10.3471 10.3918C10.0811 10.4566 9.93573 10.5478 9.90432 10.6696C9.81559 11.0112 10.5036 11.3964 11.2151 11.7616C11.3087 11.8099 11.3898 11.8516 11.4377 11.8792C11.5685 11.9543 11.6886 12.0243 11.8053 12.0922C12.2707 12.3635 12.6417 12.5801 13.1656 12.8076C13.0957 13.1219 13.0213 13.4416 12.9498 13.7516C12.5872 15.3141 12.2135 16.9265 12.3207 18.3181C12.1924 18.2244 12.0495 18.1223 11.9011 18.0172C10.8872 17.2938 9.35491 16.2015 8.9072 15.2391C8.80486 15.0039 8.60095 14.2985 8.77157 14.0733ZM12.9794 11.691C13.3671 11.8087 13.7673 11.9308 14.1498 12.0521C14.3771 12.1253 14.6091 12.2116 14.8342 12.2951C15.4432 12.5216 16.0714 12.7558 16.6705 12.7361C16.6943 12.7345 16.717 12.725 16.7335 12.7071C16.75 12.6892 16.7568 12.6661 16.7553 12.6422C16.7276 12.3256 16.3898 12.2339 16.165 12.1723C16.1198 12.1597 16.0764 12.1474 16.0398 12.1357C15.3994 11.9216 14.6798 11.7056 13.9835 11.4975C13.2584 11.2809 12.5144 11.0583 11.8325 10.8293C12.5405 10.8395 13.2585 10.8639 13.958 10.8873C14.7742 10.9146 15.6183 10.9433 16.4405 10.9497C16.6433 11.4441 16.7291 11.8607 16.7206 12.2931C16.7202 12.2939 16.721 12.2956 16.7207 12.2964C16.7254 12.4659 16.8801 12.4984 16.9652 12.5155C16.9865 12.5204 17.0168 12.5264 17.033 12.5335C17.0323 12.5388 17.0302 12.5464 17.0254 12.5585C17.0203 12.5715 17.0185 12.5857 17.0195 12.6001C17.0288 12.6786 17.0038 12.7059 16.9957 12.7145C16.9408 12.7769 16.7865 12.7781 16.6637 12.7797C16.6154 12.7808 16.5696 12.7806 16.5284 12.7844C16.5087 12.7862 16.4899 12.7953 16.4753 12.8084C16.4228 12.8587 16.3704 12.9114 16.3185 12.9624C16.0762 13.2049 15.8473 13.4338 15.5416 13.4802C14.9092 13.1233 14.2254 12.7803 13.5648 12.447C12.6839 12.0036 11.7792 11.5483 10.9775 11.054C11.6347 11.283 12.315 11.4896 12.9794 11.691ZM14.3724 13.4728C14.6939 13.7022 15.0255 13.9382 15.4709 13.9997C15.8292 14.0489 16.0887 13.8255 16.3387 13.6102C16.4432 13.5206 16.5415 13.4356 16.6451 13.3722C16.7246 13.3219 16.8221 13.286 16.9251 13.248C17.1312 13.172 17.3637 13.0851 17.4606 12.8621C17.5973 12.549 17.4477 12.3507 17.3034 12.1596C17.2822 12.1306 17.261 12.1015 17.2392 12.0727C17.2013 11.9334 17.1844 11.7769 17.1662 11.6115C17.1219 11.2098 17.0767 10.7937 16.7196 10.5838C16.3673 10.3762 15.8945 10.4119 15.4362 10.447C15.0819 10.4739 14.7164 10.5017 14.4098 10.4196C14.6084 10.145 14.7617 9.86299 14.9108 9.58913C15.0574 9.31803 15.1968 9.06282 15.3713 8.82564C15.7789 8.27308 16.4527 7.62645 18.3486 7.02237C18.9457 6.83237 19.5494 6.72643 20.1423 6.70772C20.8085 6.68713 21.4607 6.7763 22.0831 6.97476C22.9572 7.25434 23.7335 7.66392 24.4568 8.22747C25.0472 8.68858 25.5946 9.24321 26.1805 9.97516C26.6731 10.5918 27.065 11.2432 27.3435 11.9118C27.6269 12.5921 27.7864 13.2745 27.8182 13.9408C27.4694 14.0872 27.0827 14.1697 26.7063 14.2492C26.134 14.3704 25.543 14.4947 25.0545 14.85C25.0212 14.8746 25.0104 14.9175 25.0263 14.9539C25.0429 14.99 25.0836 15.0116 25.1233 15.0035C25.329 14.9632 25.5353 14.9227 25.741 14.8824C28.6935 14.3061 31.7468 13.7096 34.6227 12.7365C35.0616 12.5877 35.4918 12.4546 36.1695 12.2917C36.2352 12.2763 36.3139 12.2555 36.3967 12.2331C36.8046 12.1242 37.4871 11.943 37.7404 12.0919C37.9612 12.2223 37.9424 12.7998 37.781 13.1925C37.5907 13.6514 37.208 14.077 36.6093 14.4946C36.0918 14.8552 35.4952 15.1484 35.0171 15.3852C34.8701 15.4577 34.7318 15.5251 34.6079 15.5896C34.3103 15.7429 34.015 15.8916 33.7284 16.0351C32.7598 16.5217 31.8453 16.9814 31.0829 17.5141C31.0812 17.5158 31.0784 17.5171 31.076 17.5194C31.0567 17.5204 31.0376 17.528 31.0227 17.5419L31.019 17.5452C31.0041 17.559 30.9937 17.577 30.9915 17.5971L30.9847 17.6141C30.9725 17.6453 30.9786 17.6802 31.0023 17.7042C31.0256 17.728 31.0592 17.7376 31.0914 17.7279C32.1055 17.4227 33.0528 16.936 33.9688 16.4666C34.5188 16.1845 35.0881 15.8931 35.6636 15.6436C36.0207 15.7706 36.4194 15.9265 36.7159 16.1208C37.0555 16.3426 37.1945 16.5676 37.1404 16.8093C37.0218 17.3422 35.9727 17.7747 35.6286 17.9173C34.9435 18.2 34.1887 18.4514 33.4597 18.694C32.3597 19.061 31.2223 19.4402 30.3236 19.9283C30.287 19.9479 30.27 19.9908 30.2824 20.0305C30.2948 20.0697 30.3348 20.0943 30.3766 20.0893C31.2748 19.9807 32.0957 19.6781 32.8901 19.386C33.3374 19.2217 33.8001 19.0508 34.2691 18.9177C34.4269 18.9905 34.6358 19.0287 34.8569 19.0694C35.182 19.1287 35.5181 19.1899 35.6359 19.3607C35.6802 19.4237 35.6918 19.5022 35.6718 19.5999C35.5994 19.9687 34.8945 20.2126 34.4731 20.3578C34.4002 20.3831 34.3306 20.4073 34.2719 20.4287C33.3044 20.7899 32.1962 21.0625 31.126 21.3253C30.4793 21.4838 29.8684 21.6345 29.3249 21.7955C29.2841 21.8079 29.258 21.8464 29.2631 21.8875C29.2678 21.9284 29.3021 21.9615 29.3443 21.9637C30.1338 22.0121 31.0154 21.8053 31.7945 21.6243L31.8018 21.6224C31.8732 21.6059 31.9507 21.5846 32.0273 21.5631C32.2224 21.509 32.4437 21.4472 32.558 21.4731C32.9082 21.5514 33.1998 21.8024 33.3188 22.1288C33.4399 22.4592 33.3763 22.8105 33.1381 23.1169C32.7691 23.592 31.4159 23.9746 30.8389 24.1378C30.3718 24.2693 29.9616 24.3625 29.5858 24.4235C29.5544 24.4288 29.5221 24.4337 29.4882 24.4394C29.1157 24.5003 28.6064 24.5831 28.2746 24.5469C28.0261 24.5191 27.7727 24.4452 27.5285 24.3739C27.3497 24.3219 27.1644 24.2684 26.9813 24.2321C26.5166 24.1404 26.0399 24.0693 25.5358 23.9948C24.7589 23.8785 23.9565 23.7595 23.2067 23.5599C23.1656 23.5489 23.1213 23.5688 23.1042 23.6084C23.0867 23.6469 23.1004 23.6927 23.1371 23.716C23.3519 23.8521 23.5846 23.9642 23.8307 24.0581C24.4587 24.2978 25.1744 24.4205 25.9204 24.5492C26.1321 24.5863 26.352 24.6241 26.5695 24.6643C27.355 24.8117 28.2464 24.9787 29.0613 24.9291C29.7501 24.8883 30.4324 24.7546 31.2752 24.4949L31.3033 24.486C32.209 24.207 33.0641 23.9427 33.6859 23.2189C33.8996 23.1234 34.2771 23.0979 34.4973 23.2141C34.6004 23.2684 34.6575 23.347 34.6699 23.4524C34.687 23.5903 34.6084 23.7779 34.4473 23.9787C34.2876 24.1786 34.0965 24.3321 33.9807 24.4035C33.7196 24.5651 33.3188 24.6861 32.8939 24.8151C32.6897 24.8769 32.4798 24.9398 32.2842 25.0096C32.1783 25.0465 32.0699 25.0838 31.9648 25.1187C31.4374 25.2953 30.9397 25.4626 30.6282 25.7677C30.5996 25.7959 30.5944 25.8391 30.6145 25.8733C30.635 25.9077 30.6773 25.9229 30.7162 25.9108C31.2734 25.7377 31.84 25.5542 32.4399 25.3593C33.4683 25.025 34.5314 24.6784 35.5942 24.3792C35.7006 24.3495 35.8118 24.3123 35.9183 24.2765C36.327 24.1413 36.7496 24.0012 37.1535 24.1344C36.9075 24.8414 36.3561 25.0921 35.7735 25.3561C35.4846 25.4872 35.1859 25.6229 34.9343 25.818C34.9125 25.8349 34.8993 25.8625 34.901 25.8906C34.9025 25.9191 34.9172 25.9443 34.9421 25.9594C35.2429 26.145 35.6014 25.9501 35.9481 25.761C36.1586 25.6462 36.3768 25.5273 36.5447 25.5243C37.0534 25.5163 38.5996 26.065 39.0663 26.4579C38.6001 27.1111 37.6931 27.5518 37.0875 27.8476C35.5596 28.593 33.7452 28.8677 31.8248 29.1591C31.3217 29.2354 30.8025 29.3144 30.2903 29.4022C28.9833 29.6254 27.8752 29.7163 26.695 29.6982C25.4053 29.6783 24.4019 29.5888 23.4426 29.4066C22.2463 29.1796 21.1044 28.8015 19.9503 28.2501C19.2106 27.8974 18.5053 27.4157 17.7947 26.7778C17.1081 26.1621 16.5201 25.4918 16.0845 24.9756C15.0611 23.7645 14.0915 22.56 13.4785 21.1449C12.9997 20.0402 12.7996 18.7762 12.8676 17.2824C12.903 16.502 13.0118 15.3155 13.5459 13.0282C13.8528 13.1035 14.1057 13.2834 14.3724 13.4728ZM24.6259 33.0371C24.2931 33.1006 24.2315 33.5104 24.1762 33.8718C24.1566 33.9948 24.139 34.1138 24.1117 34.2133C24.0999 34.1986 24.0878 34.1791 24.0772 34.1517C24.0187 33.9999 24.0389 33.7108 24.1291 33.3776C24.2165 33.0574 24.3582 32.7397 24.4999 32.5473C24.5223 32.5168 24.5221 32.4752 24.4989 32.4454C24.163 32.0087 23.7481 31.5695 23.3478 31.145C22.8224 30.5899 22.2821 30.0175 21.927 29.4566C22.0194 29.4839 22.116 29.5366 22.2154 29.5909C22.2946 29.6337 22.3758 29.6787 22.4581 29.7101C23.0183 30.7895 23.908 31.7055 24.6216 32.3837C24.6428 32.4044 24.6749 32.4119 24.7037 32.4048C24.7834 32.3839 24.8462 32.3352 24.8993 32.2772C24.8947 32.6855 24.8302 33.1253 24.7684 33.5537C24.7193 33.8955 24.6676 34.2466 24.6459 34.585C24.5551 34.4287 24.6023 34.1984 24.6827 33.8778C24.7539 33.5989 24.8265 33.3112 24.7224 33.0842C24.7131 33.0634 24.6944 33.047 24.6743 33.0393C24.6591 33.0358 24.6423 33.034 24.6259 33.0371Z" fill="#FF6A01"/>
</g>
</svg>
