<svg width="100" height="101" viewBox="0 0 100 101" fill="none" xmlns="http://www.w3.org/2000/svg">
<circle cx="50" cy="50.4707" r="49.5" fill="white" stroke="black"/>
<path d="M33.9886 32.9547C36.8165 32.9437 38.8766 33.6142 40.8623 34.5556C44.0824 36.083 46.508 38.4764 48.3118 41.5119C48.8207 42.3707 49.2597 43.268 49.7474 44.1396C49.8337 44.2388 49.9402 44.304 50.0679 44.3353C50.0872 44.3435 50.1846 44.2067 50.2084 44.1249C50.3692 43.6538 50.5189 43.1771 50.6732 42.7041C51.6926 39.5731 53.0538 36.6193 55.1754 34.0624C56.8837 32.0014 58.9053 30.3638 61.4567 29.4407C62.0418 29.2212 62.6406 29.0522 63.2541 28.9337C63.8676 28.8153 64.4867 28.7482 65.1112 28.7335C65.7358 28.7188 66.3566 28.7574 66.9748 28.8474C67.5929 28.9374 68.1991 29.0779 68.7933 29.2699C69.5822 29.5105 70.3124 29.8706 70.9829 30.35C71.6543 30.8294 72.2311 31.4025 72.7151 32.0712C74.4161 34.4068 75.0755 37.0437 74.8615 39.9129C74.721 41.7434 74.1892 43.4701 73.4609 45.1444C71.905 48.6887 69.9487 52.0071 67.7977 55.2272C64.2047 60.5827 60.428 65.8013 56.1563 70.6471C55.7917 71.0493 55.3922 71.414 54.9577 71.7409C54.1412 72.3719 53.3027 72.3508 52.4375 71.7841C51.6403 71.2633 50.8229 70.7747 50.0009 70.2944C47.1031 68.5971 44.1678 66.9585 41.3068 65.2025C38.3595 63.3968 35.5637 61.3817 32.9195 59.1554C31.4435 57.9293 30.1393 56.5415 29.006 54.9939C27.8735 53.4454 26.945 51.783 26.2222 50.0058C24.917 46.7949 24.7609 43.4756 25.7069 40.137C26.4288 37.5883 27.9635 35.6155 30.1963 34.191C31.5437 33.3331 33.0058 32.9409 33.9886 32.9547ZM72.603 38.8447C72.603 38.5646 72.6232 38.2386 72.603 37.9235C72.3799 35.1305 71.1124 32.9327 68.5692 31.7387C65.294 30.1984 62.1281 30.5723 59.2442 32.8353C58.0272 33.8034 56.9857 34.934 56.1205 36.2272C54.3378 38.8475 53.1658 41.7379 52.3521 44.7825C51.9066 46.3632 51.6734 47.9742 51.6513 49.6163C51.6513 50.5164 51.3969 50.7956 50.6419 51.017C50.5556 51.0482 50.4665 51.0629 50.3747 51.0602C50.2828 51.0583 50.1937 51.0409 50.1083 51.006C50.0238 50.9711 49.9476 50.9224 49.8805 50.8599C49.8135 50.7966 49.7593 50.724 49.7189 50.6413C49.5986 50.398 49.4911 50.149 49.3974 49.8937C48.9851 48.8853 48.5809 47.874 48.1676 46.8656C47.3869 44.9157 46.3537 43.1091 45.0697 41.4467C42.5495 38.2358 39.2357 36.3153 35.2671 35.5172C34.1126 35.2848 32.9158 35.2683 31.7907 35.7679C30.1311 36.5045 28.9711 37.7527 28.2896 39.4087C27.0791 42.3137 26.8669 45.295 27.9755 48.2901C29.197 51.591 31.1965 54.3886 33.8306 56.6921C37.1453 59.599 40.7943 62.0742 44.6013 64.2987C47.42 65.9483 50.2498 67.5785 53.0786 69.2133C53.2779 69.3217 53.4845 69.4145 53.6976 69.4935C53.7601 69.5229 53.8244 69.5412 53.8933 69.5486C53.9612 69.5559 54.0292 69.5523 54.0962 69.5366C54.1633 69.5201 54.2248 69.4935 54.2827 69.4567C54.3405 69.4191 54.3911 69.3741 54.4333 69.319C54.5812 69.1481 54.7382 68.9847 54.8843 68.8111C59.5564 63.2407 63.8842 57.4158 67.7169 51.2337C69.1763 48.8797 70.5328 46.4725 71.59 43.8981C72.2522 42.2935 72.7151 40.6412 72.603 38.8447Z" fill="black"/>
</svg>
