<svg width="100" height="100" viewBox="0 0 100 100" fill="none" xmlns="http://www.w3.org/2000/svg">
<circle cx="50" cy="50" r="49.5" fill="white" stroke="black"/>
<path d="M50.5007 74.9668C54.7962 74.9667 59.0187 73.8571 62.7593 71.7456C66.4999 69.634 69.6316 66.592 71.8511 62.9144C74.0705 59.2368 75.3023 55.0483 75.4273 50.7547C75.5522 46.4611 74.566 42.208 72.5642 38.4075C72.4509 38.2036 72.2621 38.0522 72.0384 37.986C71.8147 37.9197 71.5739 37.9439 71.3678 38.0534C71.1618 38.1628 71.0069 38.3488 70.9365 38.5712C70.8661 38.7937 70.8858 39.0349 70.9914 39.2429C72.7446 42.5678 73.6596 46.2705 73.657 50.0293C72.3879 80.7443 28.6136 80.7443 27.3445 50.0293C27.1307 32.8563 46.2257 21.3458 61.288 29.5396C61.3913 29.5944 61.5044 29.6283 61.6209 29.6394C61.7373 29.6504 61.8548 29.6385 61.9666 29.6042C62.0784 29.5698 62.1824 29.5138 62.2725 29.4393C62.3627 29.3648 62.4373 29.2733 62.4921 29.17C62.5469 29.0666 62.5808 28.9535 62.5919 28.8371C62.603 28.7207 62.591 28.6032 62.5567 28.4914C62.5224 28.3795 62.4664 28.2756 62.3919 28.1854C62.3174 28.0953 62.2258 28.0206 62.1225 27.9658C58.5403 26.076 54.5509 25.0894 50.5007 25.0918C17.4229 26.4589 17.4229 73.6006 50.5007 74.9668Z" fill="black"/>
<path d="M50.5009 42.9043C51.2719 42.9038 52.0377 43.0317 52.7666 43.2828C52.99 43.3597 53.2347 43.3447 53.447 43.2411C53.6593 43.1376 53.8217 42.954 53.8986 42.7306C54.2905 41.1569 51.5162 41.2192 50.5009 41.123C38.6868 41.6111 38.6876 58.4475 50.5009 58.9355C52.8622 58.933 55.126 57.9938 56.7957 56.3241C58.4654 54.6544 59.4046 52.3906 59.4071 50.0293C59.3163 48.9962 59.376 46.2504 57.8076 46.6405C57.5845 46.7174 57.401 46.8797 57.2975 47.0918C57.1939 47.3038 57.1788 47.5483 57.2554 47.7716C57.5035 48.4983 57.6287 49.2614 57.6259 50.0293C57.2688 59.4673 43.7321 59.4673 43.3759 50.0293C43.3783 48.1404 44.1297 46.3295 45.4654 44.9938C46.8011 43.6581 48.612 42.9067 50.5009 42.9043Z" fill="black"/>
<path d="M59.0289 36.4339C59.0857 36.3316 59.1217 36.2191 59.135 36.1028C59.1482 35.9865 59.1385 35.8688 59.1062 35.7563C59.074 35.6438 59.0198 35.5388 58.947 35.4472C58.8741 35.3557 58.7839 35.2793 58.6815 35.2227C56.1776 33.8368 53.363 33.109 50.5011 33.1074C28.0556 34.0355 28.0556 66.024 50.5011 66.9512C53.4448 66.9529 56.3379 66.1863 58.8945 64.7271C61.451 63.268 63.5824 61.1668 65.078 58.6314C66.5735 56.0959 67.3814 53.214 67.4217 50.2707C67.462 47.3273 66.7333 44.4243 65.3078 41.8489C65.1932 41.6422 65.0012 41.4895 64.7741 41.4244C64.5469 41.3592 64.3032 41.387 64.0965 41.5016C63.8898 41.6161 63.7371 41.8081 63.672 42.0353C63.6069 42.2624 63.6346 42.5061 63.7492 42.7128C69.3958 52.5026 61.8121 65.3659 50.5011 65.1699C46.487 65.1654 42.6385 63.5688 39.8 60.7304C36.9616 57.8919 35.365 54.0435 35.3605 50.0293C35.1664 38.7192 48.0261 31.1347 57.8176 36.7812C57.9199 36.8383 58.0324 36.8745 58.1487 36.8879C58.2651 36.9013 58.3829 36.8916 58.4954 36.8593C58.608 36.827 58.7131 36.7728 58.8046 36.6998C58.8961 36.6268 58.9724 36.5365 59.0289 36.4339Z" fill="black"/>
<path d="M60.7643 33.9072L61.0912 38.1795L49.8711 49.3996C49.7089 49.5676 49.6191 49.7925 49.6211 50.026C49.6232 50.2596 49.7168 50.4829 49.882 50.6481C50.0471 50.8132 50.2705 50.9069 50.504 50.9089C50.7375 50.9109 50.9625 50.8212 51.1304 50.6589L62.3505 39.4388L66.6229 39.7657C66.7509 39.7754 66.8794 39.7574 66.9998 39.7128C67.1202 39.6682 67.2295 39.5982 67.3202 39.5074L73.8022 33.0254C73.92 32.904 74.0011 32.7517 74.0361 32.5862C74.071 32.4206 74.0584 32.2486 73.9998 32.0899C73.9411 31.9312 73.8387 31.7923 73.7045 31.6893C73.5702 31.5863 73.4096 31.5234 73.2411 31.5078L69.3224 31.2077L69.0222 27.2889C69.0066 27.1204 68.9437 26.9598 68.8407 26.8256C68.7377 26.6913 68.5989 26.5889 68.4402 26.5303C68.2815 26.4716 68.1094 26.459 67.9439 26.494C67.7783 26.5289 67.626 26.61 67.5046 26.7278L61.0226 33.2098C60.9318 33.3005 60.8616 33.4098 60.817 33.5302C60.7725 33.6506 60.7545 33.7792 60.7643 33.9072ZM67.3941 29.357C67.7504 33.5046 67.0486 32.7743 71.1731 33.1359L66.3503 37.9586L62.8404 37.6896L62.5714 34.1806L67.3941 29.357Z" fill="black"/>
</svg>
