<svg width="44" height="43" viewBox="0 0 44 43" fill="none" xmlns="http://www.w3.org/2000/svg">
<circle cx="21.719" cy="21.3884" r="21.3884" fill="#F2D035"/>
<path d="M16.8895 18.626H13.209V30.363H16.8895V18.626Z" fill="black"/>
<path d="M26.8456 18.3721C26.7099 18.3551 26.5657 18.3467 26.4215 18.3382C24.3608 18.2534 23.1989 19.4746 22.7919 20.0004C22.6816 20.1445 22.6307 20.2293 22.6307 20.2293V18.6604H19.1113V30.3975H22.6307H22.7919C22.7919 29.2017 22.7919 28.0144 22.7919 26.8187C22.7919 26.1742 22.7919 25.5297 22.7919 24.8851C22.7919 24.088 22.7325 23.2399 23.1311 22.5106C23.4703 21.9 24.0809 21.5947 24.7678 21.5947C26.8031 21.5947 26.8456 23.435 26.8456 23.6046C26.8456 23.6131 26.8456 23.6215 26.8456 23.6215V30.4484H30.5261V22.7905C30.5261 20.17 29.1947 18.6265 26.8456 18.3721Z" fill="black"/>
<path d="M15.0492 17.1082C16.2295 17.1082 17.1863 16.1514 17.1863 14.9711C17.1863 13.7908 16.2295 12.834 15.0492 12.834C13.8689 12.834 12.9121 13.7908 12.9121 14.9711C12.9121 16.1514 13.8689 17.1082 15.0492 17.1082Z" fill="black"/>
</svg>
