<svg width="32" height="33" viewBox="0 0 32 33" fill="none" xmlns="http://www.w3.org/2000/svg">
<g clip-path="url(#clip0_1245_4059)">
<path fill-rule="evenodd" clip-rule="evenodd" d="M0 16.2306C0 12.0006 1.68037 7.9438 4.67146 4.95271C7.66255 1.96162 11.7193 0.28125 15.9494 0.28125C20.1794 0.28125 24.2362 1.96162 27.2273 4.95271C30.2184 7.9438 31.8987 12.0006 31.8987 16.2306C31.8987 20.4607 30.2184 24.5174 27.2273 27.5085C24.2362 30.4996 20.1794 32.18 15.9494 32.18C11.7193 32.18 7.66255 30.4996 4.67146 27.5085C1.68037 24.5174 0 20.4607 0 16.2306ZM15.0392 23.0569L24.2218 11.5777L22.563 10.2507L14.733 20.0351L9.18684 15.414L7.82582 17.0472L15.0392 23.0569Z" fill="#00DDBE"/>
</g>
<defs>
<clipPath id="clip0_1245_4059">
<rect width="31.8987" height="31.8987" fill="white" transform="translate(0 0.28125)"/>
</clipPath>
</defs>
</svg>
