<svg width="53" height="54" viewBox="0 0 53 54" fill="none" xmlns="http://www.w3.org/2000/svg">
<path fill-rule="evenodd" clip-rule="evenodd" d="M36.656 38.703C36.4453 39.1442 36.3362 39.6271 36.3369 40.1161V44.456C36.3371 45.3212 36.6793 46.1513 37.2888 46.7653L41.6604 51.1686C42.118 51.6294 42.7021 51.944 43.3386 52.0725C43.9752 52.201 44.6356 52.1375 45.2361 51.8901C45.8365 51.6427 46.35 51.2226 46.7114 50.683C47.0728 50.1434 47.2658 49.5087 47.2659 48.8593V47.7664H48.3588C49.0071 47.7662 49.6409 47.5739 50.18 47.2136C50.719 46.8533 51.1391 46.3413 51.3872 45.7423C51.6353 45.1433 51.7003 44.4841 51.5738 43.8482C51.4474 43.2123 51.1352 42.6282 50.6768 42.1697L46.3052 37.7981C46.001 37.4934 45.6396 37.2517 45.2419 37.0869C44.8441 36.922 44.4178 36.8373 43.9872 36.8374H39.6156C39.1266 36.8367 38.6437 36.9458 38.2025 37.1565L27.2735 26.2287C27.0674 26.0296 26.7913 25.9194 26.5048 25.9219C26.2182 25.9244 25.9441 26.0393 25.7415 26.242C25.5389 26.4446 25.4239 26.7187 25.4214 27.0053C25.4189 27.2918 25.5291 27.5679 25.7282 27.774L36.656 38.703ZM45.0801 48.8593C45.08 49.0758 45.0157 49.2874 44.8952 49.4673C44.7747 49.6472 44.6035 49.7872 44.4033 49.8696C44.203 49.9521 43.9829 49.9732 43.7706 49.9303C43.5584 49.8874 43.3637 49.7824 43.2112 49.6287L38.8397 45.2254C38.6367 45.0207 38.5228 44.7442 38.5227 44.456V40.1161C38.5227 39.8262 38.6379 39.5483 38.8428 39.3433C39.0478 39.1383 39.3258 39.0232 39.6156 39.0232H43.9872C44.2768 39.0232 44.5555 39.138 44.7599 39.3434L49.1315 43.715C49.2843 43.8678 49.3883 44.0626 49.4305 44.2745C49.4726 44.4865 49.451 44.7062 49.3683 44.9059C49.2856 45.1056 49.1455 45.2762 48.9658 45.3963C48.7862 45.5164 48.5749 45.5805 48.3588 45.5806H46.173C46.0293 45.5806 45.887 45.6089 45.7542 45.664C45.6215 45.719 45.5009 45.7997 45.3994 45.9015C45.2979 46.0032 45.2174 46.1239 45.1627 46.2568C45.1079 46.3896 45.0798 46.532 45.0801 46.6757V48.8593Z" fill="black"/>
<path fill-rule="evenodd" clip-rule="evenodd" d="M34.8752 48.3736C32.2072 49.4197 29.3662 49.955 26.5004 49.9517C13.8337 49.9517 3.54956 39.6675 3.54956 27.0009C3.54956 14.3342 13.8337 4.05005 26.5004 4.05005C39.167 4.05005 49.4512 14.3342 49.4512 27.0009C49.4512 29.9484 48.8949 32.767 47.8807 35.355C47.7898 35.6215 47.8051 35.9129 47.9236 36.1684C48.0421 36.4239 48.2546 36.6239 48.5168 36.7267C48.779 36.8295 49.0708 36.8272 49.3314 36.7203C49.5919 36.6134 49.8012 36.4101 49.9157 36.1528C51.0569 33.2367 51.6408 30.1323 51.637 27.0009C51.637 13.1276 40.3736 1.86426 26.5004 1.86426C12.6272 1.86426 1.36377 13.1276 1.36377 27.0009C1.36377 40.8741 12.6272 52.1375 26.5004 52.1375C29.7375 52.1375 32.8315 51.5244 35.6742 50.4074C35.811 50.3574 35.9366 50.2806 36.0433 50.1813C36.15 50.0821 36.2358 49.9625 36.2957 49.8297C36.3555 49.6968 36.3882 49.5533 36.3918 49.4076C36.3953 49.2619 36.3697 49.1169 36.3164 48.9813C36.2631 48.8457 36.1833 48.722 36.0815 48.6177C35.9797 48.5134 35.8581 48.4305 35.7239 48.3739C35.5896 48.3172 35.4453 48.288 35.2996 48.288C35.1538 48.2879 35.0096 48.317 34.8752 48.3736Z" fill="black"/>
<path fill-rule="evenodd" clip-rule="evenodd" d="M32.5889 39.8402C30.6866 40.744 28.6065 41.2115 26.5004 41.2085C18.6588 41.2085 12.2927 34.8424 12.2927 27.0009C12.2927 19.1593 18.6588 12.7932 26.5004 12.7932C34.3419 12.7932 40.708 19.1593 40.708 27.0009C40.708 29.179 40.2173 31.2435 39.3397 33.0883C39.219 33.3495 39.2061 33.6478 39.304 33.9184C39.4018 34.1891 39.6025 34.4102 39.8623 34.5338C40.1222 34.6574 40.4204 34.6735 40.692 34.5787C40.9637 34.4838 41.187 34.2856 41.3135 34.0271C42.357 31.832 42.897 29.4314 42.8938 27.0009C42.8938 17.9528 35.5485 10.6074 26.5004 10.6074C17.4523 10.6074 10.1069 17.9528 10.1069 27.0009C10.1069 36.049 17.4523 43.3943 26.5004 43.3943C29.014 43.3943 31.3966 42.8271 33.5266 41.814C33.7815 41.6855 33.9759 41.4624 34.0685 41.1924C34.161 40.9224 34.1442 40.6269 34.0218 40.3691C33.8993 40.1113 33.6808 39.9116 33.4131 39.8128C33.1453 39.714 32.8495 39.7238 32.5889 39.8402Z" fill="black"/>
<path fill-rule="evenodd" clip-rule="evenodd" d="M26.8053 32.4566C26.0633 32.4978 25.3206 32.3872 24.6228 32.1316C23.9249 31.8761 23.2865 31.4809 22.7465 30.9703C22.2065 30.4597 21.7764 29.8443 21.4822 29.1618C21.1881 28.4793 21.0362 27.744 21.0359 27.0009C21.0359 23.9845 23.484 21.5364 26.5004 21.5364C27.2435 21.5367 27.9788 21.6886 28.6613 21.9827C29.3438 22.2768 29.9592 22.707 30.4698 23.247C30.9804 23.787 31.3756 24.4254 31.6311 25.1233C31.8867 25.8211 31.9973 26.5637 31.9561 27.3058C31.9402 27.5952 32.0399 27.8791 32.2332 28.095C32.4266 28.3109 32.6978 28.4412 32.9873 28.4571C33.2767 28.4731 33.5606 28.3734 33.7765 28.18C33.9924 27.9866 34.1227 27.7154 34.1386 27.426C34.1958 26.3873 34.0407 25.3479 33.6827 24.3712C33.3247 23.3944 32.7715 22.5009 32.0566 21.7452C31.3418 20.9895 30.4804 20.3873 29.5251 19.9756C28.5698 19.5639 27.5406 19.3512 26.5004 19.3506C22.2785 19.3506 18.8501 22.779 18.8501 27.0009C18.8508 28.0411 19.0634 29.0703 19.4751 30.0256C19.8869 30.9809 20.489 31.8423 21.2447 32.5571C22.0004 33.2719 22.894 33.8252 23.8707 34.1832C24.8474 34.5412 25.8868 34.6963 26.9255 34.6391C27.2149 34.6232 27.4862 34.4929 27.6795 34.277C27.8729 34.0611 27.9726 33.7772 27.9567 33.4877C27.9407 33.1983 27.8105 32.9271 27.5945 32.7337C27.3786 32.5403 27.0947 32.4407 26.8053 32.4566Z" fill="black"/>
</svg>
