<svg width="53" height="52" viewBox="0 0 53 52" fill="none" xmlns="http://www.w3.org/2000/svg">
<path d="M31.4533 14.0763C31.4469 14.0737 31.4404 14.071 31.434 14.0683C30.7948 13.8049 30.2828 13.3044 30.007 12.6705L29.2949 11.0332H23.7059L22.995 12.6694C22.7193 13.3039 22.2071 13.8047 21.5676 14.0682C21.546 14.077 21.5245 14.086 21.503 14.095C20.893 14.3503 20.2089 14.3642 19.5867 14.1403L18.0401 13.5837L14.0882 17.5357L14.6448 19.0823C14.8687 19.7045 14.8546 20.3885 14.5995 20.9985C14.5905 21.0199 14.5816 21.0414 14.5728 21.0629C14.3093 21.7024 13.8085 22.2146 13.174 22.4903L11.5381 23.2011V28.7901L13.1748 29.5021C13.8088 29.7778 14.3092 30.2898 14.5725 30.9289C14.5753 30.9355 14.578 30.9422 14.5808 30.9488C14.8443 31.5852 14.8507 32.2988 14.5981 32.9397L13.9441 34.5998L17.896 38.5517L19.5578 37.8979C20.1983 37.6459 20.9114 37.6525 21.5473 37.9158C21.5542 37.9187 21.561 37.9215 21.5679 37.9244C22.2073 38.1878 22.7195 38.6884 22.9952 39.3227L23.7061 40.958H29.2951L30.0071 39.3216C30.2829 38.6877 30.7949 38.1873 31.434 37.9241C31.4557 37.9151 31.4772 37.9062 31.4988 37.8971C32.1086 37.642 32.7923 37.6279 33.4144 37.8515L34.9601 38.4073L38.912 34.4553L38.3563 32.9098C38.1326 32.2877 38.1466 31.6039 38.4018 30.9941C38.4109 30.9724 38.4199 30.9508 38.4288 30.929C38.6921 30.2899 39.1925 29.7779 39.8264 29.5022L41.463 28.79V23.201L39.8272 22.4901C39.1929 22.2144 38.6921 21.7022 38.4286 21.0628C38.4259 21.0561 38.4231 21.0494 38.4203 21.0427C38.157 20.4068 38.1504 19.6937 38.4024 19.0533L39.0562 17.3914L35.1043 13.4395L33.4443 14.0936C32.8034 14.3462 32.0898 14.3398 31.4533 14.0763Z" stroke="black" stroke-width="2.03158" stroke-miterlimit="10" stroke-linecap="round" stroke-linejoin="round"/>
<path d="M26.5 34.7851C31.3543 34.7851 35.2895 30.8499 35.2895 25.9956C35.2895 21.1413 31.3543 17.2061 26.5 17.2061C21.6456 17.2061 17.7104 21.1413 17.7104 25.9956C17.7104 30.8499 21.6456 34.7851 26.5 34.7851Z" stroke="black" stroke-width="2.03158" stroke-miterlimit="10" stroke-linecap="round" stroke-linejoin="round"/>
<path d="M26.4999 21.2725V25.9954L24.752 27.7433" stroke="black" stroke-width="2.03158" stroke-miterlimit="10" stroke-linecap="round" stroke-linejoin="round"/>
<path d="M12.1576 7.20703L11.6655 10.7254L15.269 11.0652" stroke="black" stroke-width="2.03158" stroke-miterlimit="10" stroke-linecap="round" stroke-linejoin="round"/>
<path d="M40.9704 44.9324L41.4625 41.4139L37.8589 41.0742" stroke="black" stroke-width="2.03158" stroke-miterlimit="10" stroke-linecap="round" stroke-linejoin="round"/>
<path d="M44.3926 37.9183C46.6779 34.5148 48.0111 30.4186 48.0111 26.011C48.0111 25.148 47.9585 24.2972 47.8592 23.4609" stroke="black" stroke-width="2.03158" stroke-miterlimit="10" stroke-linecap="round" stroke-linejoin="round"/>
<path d="M44.9915 15.0511C41.257 8.80612 34.4291 4.62402 26.6236 4.62402C20.8009 4.62402 15.5218 6.95079 11.665 10.7254" stroke="black" stroke-width="2.03158" stroke-miterlimit="10" stroke-linecap="round" stroke-linejoin="round"/>
<path d="M41.4587 41.4179C37.6132 45.1217 32.3845 47.3992 26.6238 47.3992C14.8119 47.3992 5.23633 37.8236 5.23633 26.0117C5.23633 21.6541 6.53948 17.601 8.77726 14.2207" stroke="black" stroke-width="2.03158" stroke-miterlimit="10" stroke-linecap="round" stroke-linejoin="round"/>
<path d="M14.2228 50.984C9.78477 48.7995 6.01325 45.4674 3.29541 41.375" stroke="black" stroke-width="2.03158" stroke-miterlimit="10" stroke-linecap="round" stroke-linejoin="round"/>
<path d="M38.7949 1.01562C43.1587 3.16757 46.8771 6.42937 49.5816 10.4324" stroke="black" stroke-width="2.03158" stroke-miterlimit="10" stroke-linecap="round" stroke-linejoin="round"/>
<path d="M2.89502 44.8576L3.29565 41.375L6.75562 41.7256" stroke="black" stroke-width="2.03158" stroke-miterlimit="10" stroke-linecap="round" stroke-linejoin="round"/>
<path d="M50.1047 7.13379L49.7041 10.6164L46.2441 10.266" stroke="black" stroke-width="2.03158" stroke-miterlimit="10" stroke-linecap="round" stroke-linejoin="round"/>
<circle cx="46.7839" cy="19.132" r="1.01579" fill="black"/>
</svg>
