<svg width="53" height="52" viewBox="0 0 53 52" fill="none" xmlns="http://www.w3.org/2000/svg">
<g clip-path="url(#clip0_1208_18280)">
<path d="M47.8062 40.0666L47.681 39.8984C47.3488 39.5607 46.9523 39.2931 46.5149 39.1114C46.0776 38.9296 45.6082 38.8374 45.1345 38.8402H42.0883V34.247C42.0883 27.0088 37.1234 20.9255 30.4249 19.1789C32.7036 17.8281 34.2507 15.3694 34.2507 12.5332C34.2507 10.4776 33.4341 8.50629 31.9806 7.0528C30.5271 5.59931 28.5558 4.78275 26.5002 4.78275C24.4447 4.78275 22.4734 5.59931 21.0199 7.0528C19.5664 8.50629 18.7498 10.4776 18.7498 12.5332C18.7498 15.3694 20.2969 17.8279 22.5756 19.1789C15.8768 20.9256 10.9122 27.0089 10.9122 34.247V38.8402H7.86597C7.39233 38.8374 6.92294 38.9296 6.48555 39.1114C6.04817 39.2931 5.65167 39.5607 5.31949 39.8984L1.26898 47.1353C0.890418 47.5392 0.637789 48.0447 0.541991 48.5899C0.446193 49.1352 0.51138 49.6965 0.729577 50.2053C0.943374 50.7383 1.31319 51.1943 1.79058 51.5136C2.26797 51.8328 2.83066 52.0005 3.40494 51.9945H49.5956C50.1579 51.9936 50.7079 51.8292 51.1786 51.5214C51.6493 51.2136 52.0204 50.7756 52.2467 50.2608C52.473 49.746 52.5448 49.1765 52.4533 48.6216C52.3619 48.0667 52.1111 47.5503 51.7315 47.1353L47.8062 40.0666ZM25.3849 20.3402C25.7539 20.3108 26.1238 20.2837 26.5002 20.2837C26.8767 20.2837 27.2466 20.3108 27.6156 20.3402V21.5133C27.6156 21.8092 27.4981 22.0929 27.2889 22.302C27.0798 22.5112 26.7961 22.6287 26.5002 22.6287C26.2044 22.6287 25.9207 22.5112 25.7116 22.302C25.5024 22.0929 25.3849 21.8092 25.3849 21.5133V20.3402ZM20.3745 12.533C20.3746 11.3214 20.7339 10.1371 21.4071 9.12982C22.0802 8.12249 23.037 7.33741 24.1563 6.87383C25.2757 6.41025 26.5073 6.28899 27.6956 6.5254C28.8838 6.76181 29.9753 7.34526 30.8319 8.20198C31.6886 9.0587 32.272 10.1502 32.5083 11.3385C32.7446 12.5267 32.6233 13.7584 32.1597 14.8777C31.696 15.997 30.9108 16.9537 29.9035 17.6268C28.8961 18.2999 27.7118 18.6591 26.5002 18.6591C24.8761 18.6573 23.319 18.0113 22.1705 16.8628C21.0221 15.7143 20.3762 14.1572 20.3745 12.533ZM12.5369 34.247C12.5369 27.4853 17.3687 21.8342 23.7602 20.5564V21.5127C23.7602 22.2394 24.0489 22.9364 24.5627 23.4502C25.0766 23.9641 25.7735 24.2528 26.5002 24.2528C27.227 24.2528 27.9239 23.9641 28.4378 23.4502C28.9516 22.9364 29.2403 22.2394 29.2403 21.5127V20.5564C35.6318 21.8337 40.4636 27.4848 40.4636 34.247V38.8402H37.2049V30.766C37.2042 30.074 36.9289 29.4105 36.4396 28.9212C35.9503 28.4318 35.2868 28.1566 34.5948 28.1558H18.4057C17.7137 28.1566 17.0502 28.4318 16.5609 28.9212C16.0716 29.4105 15.7963 30.074 15.7956 30.766V38.8402H12.5369V34.247ZM17.4206 38.8403V30.7661C17.4211 30.505 17.5251 30.2547 17.7097 30.0701C17.8944 29.8855 18.1446 29.7815 18.4057 29.7809H34.5948C34.8559 29.7815 35.1061 29.8855 35.2908 30.0701C35.4754 30.2547 35.5794 30.505 35.5799 30.7661V41.001C35.5815 41.1308 35.557 41.2597 35.5081 41.38C35.4591 41.5003 35.3866 41.6096 35.2949 41.7016C35.2031 41.7935 35.0939 41.8662 34.9737 41.9153C34.8535 41.9645 34.7247 41.9891 34.5948 41.9878H18.4057C18.2758 41.9891 18.147 41.9645 18.0268 41.9153C17.9066 41.8662 17.7974 41.7935 17.7056 41.7016C17.6138 41.6096 17.5414 41.5003 17.4924 41.38C17.4435 41.2597 17.419 41.1308 17.4206 41.001V38.8403ZM50.77 49.583C50.678 49.8183 50.5161 50.0197 50.3063 50.1604C50.0964 50.301 49.8486 50.3741 49.596 50.3699H3.40494C3.15333 50.369 2.90759 50.2938 2.69863 50.1536C2.48966 50.0135 2.32679 49.8147 2.23049 49.5822C2.13418 49.3498 2.10874 49.094 2.15737 48.8471C2.20599 48.6003 2.32651 48.3733 2.50377 48.1947L6.55906 40.9584C6.9178 40.6362 7.38424 40.4602 7.86637 40.465H15.7956V41.0013C15.796 41.6935 16.0712 42.3572 16.5605 42.8468C17.0499 43.3365 17.7135 43.6119 18.4057 43.6127H34.5948C35.2871 43.6119 35.9507 43.3364 36.4401 42.8467C36.9295 42.3571 37.2045 41.6932 37.2049 41.001V40.4647H45.1346C45.6168 40.4599 46.0832 40.6359 46.4419 40.9581L50.3608 48.0153L50.4972 48.1944C50.6792 48.3702 50.8029 48.5976 50.8517 48.8459C50.9005 49.0941 50.872 49.3514 50.77 49.583ZM26.5002 38.0818C27.1316 38.0818 27.7488 37.8946 28.2737 37.5439C28.7987 37.1931 29.2079 36.6945 29.4495 36.1112C29.6911 35.5279 29.7543 34.8861 29.6311 34.2669C29.5079 33.6476 29.2039 33.0788 28.7575 32.6324C28.311 32.186 27.7422 31.8819 27.123 31.7588C26.5038 31.6356 25.8619 31.6988 25.2786 31.9404C24.6953 32.182 24.1968 32.5912 23.846 33.1161C23.4953 33.6411 23.308 34.2583 23.308 34.8896C23.3092 35.7359 23.6459 36.5472 24.2443 37.1456C24.8427 37.744 25.654 38.0807 26.5002 38.0818ZM26.5002 33.3222C26.8103 33.3222 27.1133 33.4142 27.3711 33.5864C27.6289 33.7587 27.8298 34.0035 27.9484 34.29C28.067 34.5764 28.098 34.8916 28.0375 35.1956C27.977 35.4997 27.8277 35.779 27.6085 35.9982C27.3892 36.2174 27.1099 36.3667 26.8059 36.4272C26.5018 36.4876 26.1866 36.4566 25.9002 36.3379C25.6138 36.2192 25.369 36.0183 25.1968 35.7605C25.0245 35.5027 24.9326 35.1997 24.9326 34.8896C24.933 34.474 25.0983 34.0755 25.3922 33.7816C25.6861 33.4878 26.0846 33.3225 26.5002 33.3222ZM50.4908 0.00585938H37.3762C36.8447 0.00634261 36.3352 0.217552 35.9593 0.593173C35.5834 0.968793 35.3717 1.47816 35.3708 2.00959V10.355C35.3714 10.8866 35.5829 11.3964 35.9588 11.7723C36.3348 12.1483 36.8445 12.3597 37.3762 12.3603H38.1821V13.1869C38.1811 13.4213 38.2421 13.6517 38.3589 13.8548C38.4756 14.058 38.644 14.2267 38.8469 14.3438C39.0499 14.4609 39.2802 14.5223 39.5145 14.5218C39.7488 14.5213 39.9788 14.4588 40.1812 14.3408L43.6114 12.3603H50.4908C51.0223 12.3594 51.5317 12.1478 51.9073 11.7718C52.2829 11.3959 52.4941 10.8863 52.4946 10.3549V2.00959C52.4937 1.47842 52.2824 0.969248 51.9068 0.593657C51.5312 0.218066 51.022 0.00669203 50.4908 0.00585938ZM50.87 10.3551C50.87 10.4558 50.8301 10.5524 50.7591 10.6238C50.688 10.6952 50.5916 10.7355 50.4908 10.7358H43.1768L39.807 12.681V10.7353H37.3762C37.2753 10.735 37.1786 10.6948 37.1073 10.6235C37.0359 10.5521 36.9957 10.4555 36.9954 10.3546V2.00959C36.9958 1.90887 37.0361 1.81241 37.1074 1.74134C37.1788 1.67027 37.2755 1.6304 37.3762 1.63045H50.4908C50.5914 1.63048 50.6878 1.67043 50.7589 1.74153C50.83 1.81262 50.8699 1.90904 50.87 2.00959V10.3551ZM41.4949 5.61109C41.6467 5.76178 41.7342 5.96534 41.7393 6.17913C41.7346 6.28511 41.7126 6.3896 41.6742 6.48849C41.6336 6.59152 41.5726 6.68531 41.4949 6.76423C41.4153 6.83327 41.328 6.89288 41.2347 6.94187C41.1354 6.97439 41.0315 6.99099 40.9269 6.99102C40.7101 6.99226 40.5009 6.91121 40.3415 6.76423C40.2695 6.68101 40.2097 6.58804 40.1638 6.48809C40.1247 6.38941 40.1027 6.28479 40.0988 6.17873C40.1016 6.01821 40.1515 5.86206 40.2422 5.72965C40.333 5.59724 40.4607 5.4944 40.6094 5.4339C40.7581 5.3734 40.9213 5.3579 41.0787 5.38933C41.2361 5.42076 41.3809 5.49773 41.4949 5.61069V5.61109ZM44.5012 5.61109C44.579 5.68361 44.6408 5.7716 44.6827 5.86943C44.7245 5.96726 44.7453 6.07276 44.7439 6.17913C44.7477 6.28602 44.7254 6.39221 44.6788 6.48849C44.6449 6.59453 44.5836 6.68977 44.5012 6.76464C44.4274 6.83707 44.3386 6.89228 44.241 6.92633C44.1438 6.96926 44.0387 6.99143 43.9324 6.99143C43.8261 6.99143 43.721 6.96926 43.6238 6.92633C43.526 6.89262 43.4371 6.83736 43.3636 6.76464C43.2854 6.68866 43.2235 6.59757 43.1816 6.49692C43.1397 6.39627 43.1187 6.28815 43.1198 6.17913C43.1186 6.07269 43.1397 5.96717 43.1817 5.86934C43.2236 5.77152 43.2856 5.68355 43.3636 5.61109C43.5156 5.46227 43.7198 5.37892 43.9325 5.37892C44.1453 5.37892 44.3495 5.46227 44.5015 5.61109H44.5012ZM47.7013 5.86977C47.7329 5.96989 47.7495 6.07415 47.7505 6.17913C47.7527 6.28434 47.7337 6.38892 47.6944 6.48655C47.6551 6.58418 47.5964 6.67284 47.522 6.74717C47.4517 6.82705 47.363 6.88867 47.2637 6.92673C47.1668 6.9716 47.061 6.99386 46.9543 6.99184C46.8424 6.99558 46.7312 6.97329 46.6293 6.92673C46.5296 6.88852 46.4405 6.82711 46.3692 6.74758C46.293 6.67383 46.2322 6.58559 46.1905 6.48805C46.1488 6.39051 46.127 6.28562 46.1264 6.17954C46.1322 6.0737 46.1541 5.96937 46.1915 5.87018C46.237 5.7753 46.297 5.68804 46.3692 5.6115C46.4452 5.53754 46.5332 5.47694 46.6293 5.43224C46.78 5.37435 46.944 5.36047 47.1022 5.3922C47.2604 5.42394 47.4064 5.49999 47.5231 5.6115C47.595 5.68829 47.6552 5.77533 47.7016 5.86977H47.7013Z" fill="black"/>
</g>
<defs>
<clipPath id="clip0_1208_18280">
<rect width="52" height="52" fill="white" transform="translate(0.5)"/>
</clipPath>
</defs>
</svg>
