<svg width="46" height="50" viewBox="0 0 46 50" fill="none" xmlns="http://www.w3.org/2000/svg">
<path d="M36.3688 13.8921C36.3688 6.5207 30.3705 0.523438 22.9991 0.523438C15.6277 0.523438 9.63039 6.5207 9.63039 13.8921C9.63039 21.2635 15.6277 27.2618 22.9991 27.2618C30.3705 27.2618 36.3688 21.2645 36.3688 13.8921ZM22.9991 26.043C16.299 26.043 10.8491 20.5922 10.8491 13.8921C10.8491 7.19305 16.299 1.74219 22.9991 1.74219C29.6991 1.74219 35.15 7.19305 35.15 13.8921C35.15 20.5922 29.6991 26.043 22.9991 26.043ZM30.2009 17.3046C28.8013 20.0082 26.0419 21.688 22.9991 21.688C19.9562 21.688 17.1978 20.0082 15.7973 17.3046C15.7232 17.161 15.7091 16.9939 15.758 16.8399C15.8069 16.6858 15.9149 16.5575 16.0583 16.483C16.2019 16.4089 16.369 16.3948 16.523 16.4437C16.677 16.4926 16.8054 16.6006 16.8799 16.744C18.0692 19.0413 20.4143 20.4683 22.9991 20.4683C25.5838 20.4683 27.9289 19.0413 29.1182 16.744C29.2726 16.4454 29.6402 16.3286 29.9398 16.483C30.0832 16.5575 30.1912 16.6858 30.2401 16.8399C30.2891 16.9939 30.2749 17.161 30.2009 17.3046ZM18.6288 11.9919V8.50422C18.6288 8.16805 18.902 7.89484 19.2382 7.89484C19.5744 7.89484 19.8476 8.16805 19.8476 8.50422V11.9919C19.8476 12.328 19.5744 12.6012 19.2382 12.6012C18.902 12.6012 18.6288 12.328 18.6288 11.9919ZM26.1505 11.9919V8.50422C26.1505 8.16805 26.4237 7.89484 26.7599 7.89484C27.0961 7.89484 27.3693 8.16805 27.3693 8.50422V11.9919C27.3693 12.328 27.0961 12.6012 26.7599 12.6012C26.4237 12.6012 26.1505 12.328 26.1505 11.9919ZM20.0141 40.4812V35.7372C20.0141 34.0218 19.3286 32.5207 18.0306 31.3974L8.88797 23.4837C8.045 22.6712 6.88617 22.4853 5.8675 22.9109V15.383C5.8675 13.7712 4.60203 12.5555 2.9232 12.5555C1.36422 12.5555 0.0957031 13.8241 0.0957031 15.383V28.0073C0.0957031 29.3733 0.529375 30.5402 1.42211 31.5752L6.29203 37.22V40.4802C5.65016 40.7259 5.19313 41.3475 5.19313 42.0747V48.8672C5.19313 49.2034 5.46633 49.4766 5.8025 49.4766H20.5047C20.8409 49.4766 21.1141 49.2034 21.1141 48.8672V42.0757C21.113 41.3485 20.656 40.728 20.0141 40.4812ZM6.90039 41.5862H19.4048C19.6749 41.5862 19.8943 41.8055 19.8943 42.0757V44.8626H6.41086V42.0757C6.41086 41.8055 6.63023 41.5862 6.90039 41.5862ZM2.3443 30.7799C1.65063 29.9766 1.31445 29.0696 1.31445 28.0083V15.3841C1.31445 14.4964 2.03656 13.7753 2.9232 13.7753C3.92258 13.7753 4.64875 14.4517 4.64875 15.3841V23.8249C3.73977 24.9462 3.81797 26.6006 4.87016 27.6284L10.0752 32.7086C10.3159 32.9432 10.7019 32.9391 10.9365 32.6984C11.1711 32.4577 11.167 32.0718 10.9263 31.8372L5.72125 26.757C5.08648 26.1375 5.0743 25.1168 5.69383 24.482C6.39156 23.767 7.38281 23.7203 8.05008 24.3713C8.05922 24.3795 8.06734 24.3876 8.07648 24.3957L17.2323 32.3206C18.2693 33.2174 18.7944 34.3681 18.7944 35.7382V40.3684H7.50977V36.9945C7.50977 36.8483 7.45695 36.7071 7.36148 36.5964L2.3443 30.7799ZM6.41086 48.2578V46.0803H19.8943V48.2578H6.41086ZM43.0749 12.5566C41.3961 12.5566 40.1306 13.7723 40.1306 15.3841V22.9119C39.112 22.4863 37.9531 22.6712 37.1102 23.4847L27.9675 31.3984C26.6705 32.5217 25.984 34.0218 25.984 35.7382V40.4822C25.3421 40.728 24.8851 41.3495 24.8851 42.0767V48.8672C24.8851 49.2034 25.1583 49.4766 25.4945 49.4766H40.1966C40.5328 49.4766 40.806 49.2034 40.806 48.8672V42.0757C40.806 41.3485 40.349 40.728 39.7071 40.4812V37.221L44.576 31.5762C45.4688 30.5423 45.9024 29.3753 45.9024 28.0083V15.3841C45.9024 13.8251 44.6339 12.5566 43.0749 12.5566ZM39.0977 41.5862C39.3679 41.5862 39.5873 41.8055 39.5873 42.0757V44.8626H26.1038V42.0757C26.1038 41.8055 26.3232 41.5862 26.5934 41.5862H39.0977ZM26.1038 48.2578V46.0803H39.5873V48.2578H26.1038ZM44.6837 28.0083C44.6837 29.0696 44.3465 29.9766 43.6538 30.7799L38.6366 36.5964C38.5411 36.707 38.4885 36.8483 38.4884 36.9945V40.3674H27.2027V35.7372C27.2027 34.3661 27.7278 33.2164 28.7648 32.3196L37.9206 24.3947C37.9298 24.3866 37.9389 24.3784 37.947 24.3703C38.6143 23.7193 39.6055 23.766 40.3033 24.481C40.9228 25.1158 40.9106 26.1365 40.2759 26.757L35.0708 31.8372C35.0135 31.893 34.9678 31.9596 34.9362 32.0331C34.9047 32.1067 34.888 32.1857 34.8871 32.2657C34.8861 32.3457 34.901 32.4251 34.9307 32.4994C34.9605 32.5736 35.0047 32.6413 35.0606 32.6984C35.1165 32.7557 35.1831 32.8015 35.2566 32.833C35.3301 32.8645 35.4091 32.8812 35.4891 32.8822C35.5691 32.8831 35.6485 32.8683 35.7228 32.8385C35.7971 32.8087 35.8647 32.7646 35.9219 32.7086L41.127 27.6284C42.1802 26.6006 42.2584 24.9462 41.3484 23.8249V15.3841C41.3484 14.4517 42.0735 13.7753 43.0739 13.7753C43.9616 13.7753 44.6827 14.4974 44.6827 15.3841V28.0083H44.6837Z" fill="black"/>
</svg>
