<svg width="53" height="52" viewBox="0 0 53 52" fill="none" xmlns="http://www.w3.org/2000/svg">
<path d="M48.8761 15.535L42.6523 9.31125C41.8886 8.5475 40.8648 8.125 39.7761 8.125H39.4754C39.2642 4.37125 37.5986 1.625 35.4373 1.625C33.2761 1.625 31.6104 4.37125 31.3992 8.125H26.4998C26.4429 8.125 26.3779 8.125 26.3211 8.14125L19.7317 9.60375C18.7648 9.7825 17.9279 10.335 17.3673 11.1475L3.57106 31.5494C2.43356 33.2313 2.87231 35.5306 4.59481 36.7088L10.2498 40.0075C10.2742 40.4869 10.3879 40.9581 10.5992 41.4131C11.0379 42.3556 11.8261 43.0706 12.8336 43.4281L20.8123 46.085V46.3125C20.8123 48.555 22.6323 50.375 24.8748 50.375H45.9998C48.2423 50.375 50.0623 48.555 50.0623 46.3125V18.4112C50.0623 17.3225 49.6398 16.3069 48.8761 15.535ZM35.4373 3.25C36.4936 3.25 37.6554 5.28938 37.8423 8.125H33.0242C33.2192 5.28938 34.3811 3.25 35.4292 3.25H35.4373ZM4.91168 32.4594L18.7161 12.0656C19.0248 11.6106 19.4879 11.3019 20.0567 11.1962L26.5811 9.74187H27.1092L21.5761 11.9356C20.6417 12.3581 19.9023 13.1463 19.5529 14.0969L10.5504 38.2931L5.45606 35.3275C4.51356 34.6856 4.26981 33.3937 4.90356 32.4512L4.91168 32.4594ZM13.3617 41.8925C12.7848 41.6894 12.3298 41.275 12.0698 40.7306C11.8261 40.2025 11.8017 39.6094 12.0048 39.065L21.0804 14.6656C21.2836 14.1212 21.7061 13.6663 22.2098 13.4388L25.3298 12.2038L21.9986 15.535C21.2348 16.2988 20.8123 17.3225 20.8123 18.4112V44.3787L13.3617 41.8925ZM48.4373 46.3125C48.4373 47.6531 47.3404 48.75 45.9998 48.75H24.8748C23.5342 48.75 22.4373 47.6531 22.4373 46.3125V18.4112C22.4373 17.7694 22.6973 17.1438 23.1523 16.6888L29.3761 10.465C29.8311 10.01 30.4567 9.75 31.0986 9.75H37.8504C37.7773 10.8469 37.5579 11.8787 37.2167 12.7156C36.7048 12.3825 36.0954 12.1875 35.4454 12.1875C34.3648 12.1875 33.4142 12.7238 32.8211 13.5363C32.7967 13.5606 32.7804 13.585 32.7561 13.6094C32.3986 14.1294 32.1954 14.755 32.1954 15.4375C32.1954 17.2331 33.6498 18.6875 35.4454 18.6875C37.2411 18.6875 38.6954 17.2331 38.6954 15.4375C38.6954 14.9419 38.5736 14.4787 38.3786 14.0644C38.9961 12.9106 39.3861 11.3912 39.4836 9.75H39.7842C40.4261 9.75 41.0517 10.01 41.5067 10.465L47.7304 16.6888C48.1854 17.1438 48.4454 17.7694 48.4454 18.4112V46.3125H48.4373ZM35.4373 16.25C35.9979 16.25 36.5423 16.0469 37.0379 15.6812C36.9161 16.4612 36.2498 17.0625 35.4373 17.0625C34.6248 17.0625 33.9586 16.4612 33.8367 15.6812C34.3323 16.0469 34.8767 16.25 35.4373 16.25ZM34.5029 14.1131C34.7711 13.9263 35.0879 13.8125 35.4373 13.8125C35.7867 13.8125 36.1117 13.9263 36.3717 14.1131C36.1198 14.3813 35.7948 14.625 35.4373 14.625C35.0798 14.625 34.7548 14.3894 34.5029 14.1131Z" fill="black"/>
<path d="M37.875 28.4375C39.2156 28.4375 40.3125 29.5344 40.3125 30.875C40.3125 31.3219 40.6781 31.6875 41.125 31.6875C41.5719 31.6875 41.9375 31.3219 41.9375 30.875C41.9375 28.6325 40.1175 26.8125 37.875 26.8125H36.25V25.1875C36.25 24.7406 35.8844 24.375 35.4375 24.375C34.9906 24.375 34.625 24.7406 34.625 25.1875V26.8125H33C30.7575 26.8125 28.9375 28.6325 28.9375 30.875C28.9375 33.1175 30.7575 34.9375 33 34.9375H34.625V39.8125H33C31.6594 39.8125 30.5625 38.7156 30.5625 37.375C30.5625 36.9281 30.1969 36.5625 29.75 36.5625C29.3031 36.5625 28.9375 36.9281 28.9375 37.375C28.9375 39.6175 30.7575 41.4375 33 41.4375H34.625V43.0625C34.625 43.5094 34.9906 43.875 35.4375 43.875C35.8844 43.875 36.25 43.5094 36.25 43.0625V41.4375H37.875C40.1175 41.4375 41.9375 39.6175 41.9375 37.375C41.9375 35.1325 40.1175 33.3125 37.875 33.3125H36.25V28.4375H37.875ZM37.875 34.9375C39.2156 34.9375 40.3125 36.0344 40.3125 37.375C40.3125 38.7156 39.2156 39.8125 37.875 39.8125H36.25V34.9375H37.875ZM34.625 33.3125H33C31.6594 33.3125 30.5625 32.2156 30.5625 30.875C30.5625 29.5344 31.6594 28.4375 33 28.4375H34.625V33.3125Z" fill="black"/>
</svg>
