<svg width="141" height="58" viewBox="0 0 141 58" fill="none" xmlns="http://www.w3.org/2000/svg">
<g clip-path="url(#clip0_423_868)">
<mask id="mask0_423_868" style="mask-type:luminance" maskUnits="userSpaceOnUse" x="1" y="0" width="58" height="58">
<path d="M58.2299 0.174316H1.12695V57.8256H58.2299V0.174316Z" fill="white"/>
</mask>
<g mask="url(#mask0_423_868)">
<path d="M48.2604 14.4804L47.959 17.1479L49.4655 14.956C49.6267 14.7214 49.535 14.3985 49.2745 14.2841L48.8932 14.1165C48.6138 13.9932 48.2948 14.1763 48.2604 14.4804Z" fill="#949494"/>
<path d="M50.4592 17.0471L47.7793 16.895L50.0518 18.2768C50.2948 18.4243 50.6119 18.3151 50.7119 18.0488L50.858 17.659C50.9653 17.3725 50.7638 17.0646 50.4592 17.0471Z" fill="#949494"/>
<path d="M50.0671 15.4137L47.959 17.0749L50.5764 16.6045C50.8565 16.5545 51.0214 16.2622 50.9195 15.9965L50.7707 15.6073C50.6622 15.3228 50.3074 15.2246 50.0671 15.4137Z" fill="#949494"/>
<path d="M49.7649 18.9521L47.9258 16.9966L48.6229 19.5634C48.6976 19.8376 49.0029 19.9766 49.2588 19.8525L49.6337 19.6706C49.9078 19.5361 49.9741 19.1742 49.7649 18.9521Z" fill="#949494"/>
<path d="M36.5689 39.8261C37.6688 39.0979 38.7712 38.3748 39.8828 37.6648C45.0086 34.3911 50.4183 31.3306 56.2341 29.4934C55.9839 29.5038 55.7176 29.5155 55.4421 29.5291C53.3645 29.6317 51.2699 29.7682 49.1793 29.9683L47.9151 17.5942L48.0139 17.1674L48.0341 17.1941L48.0236 17.1259L48.0321 17.0895L48.1783 16.9991L48.0509 17.0069L48.0645 16.9491L48.0119 17.0096L48.0061 17.0102L47.6319 14.5409C47.5858 14.2388 47.2603 14.0672 46.9855 14.2011L46.6107 14.383C46.3553 14.5071 46.2755 14.8332 46.4456 15.0612L47.7021 16.7478L45.8733 15.325C45.6322 15.1372 45.2782 15.2373 45.1704 15.5238L45.0242 15.9135C44.9241 16.18 45.0911 16.471 45.3711 16.5197L47.8521 16.9491L47.9021 17.0167L47.8573 17.0193L47.8541 16.9894L47.8521 17.02L45.5004 17.168C45.1951 17.1876 44.9963 17.4968 45.1054 17.7827L45.2541 18.1718C45.3555 18.4375 45.6738 18.5447 45.9155 18.3959L47.8378 17.2103L46.3014 18.9734C46.1007 19.2041 46.1806 19.5634 46.4606 19.6862L46.8419 19.8538C47.1018 19.9681 47.402 19.818 47.4662 19.5413L47.7599 18.2718L46.877 30.2171C46.2046 30.2983 45.5341 30.3873 44.8644 30.4854L44.726 26.9968L40.6533 23.7452L36.9892 27.1891V32.1602C35.6659 32.5468 34.3607 32.9937 33.0828 33.5115C32.5488 33.7279 32.033 33.9702 31.5152 34.2163C31.3528 34.2976 30.1684 35.0557 30.0742 34.9973C31.0637 35.6073 32.0265 36.2602 32.9633 36.9462C34.2034 37.8558 35.4047 38.8192 36.5689 39.8261ZM39.7633 26.9181L40.869 26.0255L42.0981 26.8681L42.1631 28.3343L39.7633 28.3525V26.9181Z" fill="#949494"/>
<path d="M37.875 40.9911C39.7298 42.688 41.4864 44.4934 43.1541 46.3709C43.301 46.5365 43.4472 46.7029 43.5927 46.8698C44.9738 45.7167 46.2608 44.4505 47.4906 43.1395C48.8874 41.6498 50.2114 40.0933 51.5211 38.527C52.8866 36.8937 54.0268 35.1357 55.1084 33.305C55.5119 32.6222 55.9179 31.9362 56.3188 31.2456C56.0271 31.3404 55.7354 31.4373 55.4456 31.5392C49.1394 33.7461 43.4328 37.3134 37.875 40.9911Z" fill="#949494"/>
<path d="M52.2645 40.272C49.9153 43.0669 47.4823 45.8019 44.6855 48.1465C45.6197 49.2588 46.526 50.3963 47.3998 51.5579C53.2714 46.8362 57.2252 39.8329 57.9262 31.894C56.2716 34.8396 54.4408 37.6831 52.2645 40.272Z" fill="#949494"/>
<path d="M31.9833 38.0424C28.5389 35.6049 24.8046 33.817 20.8138 32.4509C18.5556 31.6777 16.2473 31.0508 13.9085 30.576V28.265C14.6875 28.3001 15.3202 28.3626 15.7477 28.5198C15.3403 28.1651 14.8583 27.6772 14.3991 27.0327C14.3919 27.0229 14.3854 27.0132 14.3789 27.0035C14.9441 27.073 15.4099 27.21 15.7477 27.3341C15.3403 26.9794 14.8583 26.4915 14.3991 25.8471C14.3685 25.8042 14.3399 25.7619 14.3107 25.7197C14.9057 25.786 15.3963 25.9283 15.7477 26.0576C15.3573 25.7171 14.8973 25.2526 14.4556 24.6465C14.9857 24.7186 15.4255 24.8479 15.7477 24.9667C15.3403 24.6121 14.8583 24.1242 14.3991 23.4797C14.0566 22.9989 13.8039 22.5396 13.6168 22.1407C13.4031 22.5643 13.1244 23.0438 12.7619 23.5453C12.3403 24.1294 11.9082 24.5991 11.5249 24.9667C11.8231 24.8576 12.2395 24.7309 12.7469 24.6562C12.3299 25.2305 11.9037 25.6944 11.5249 26.0576C11.851 25.938 12.3188 25.7976 12.8931 25.7269C12.8509 25.7886 12.8074 25.8503 12.7619 25.9127C12.3403 26.4967 11.9082 26.9664 11.5249 27.3341C11.8375 27.2192 12.2805 27.0859 12.8223 27.0125C12.8022 27.0411 12.7827 27.069 12.7619 27.0983C12.3403 27.6824 11.9082 28.152 11.5249 28.5198C11.9362 28.3691 12.5722 28.3001 13.3641 28.2645V30.4719C12.7619 30.3556 12.159 30.2465 11.5536 30.1511C10.4224 29.9718 9.28622 29.7937 8.14543 29.643V27.4965C9.25698 27.5342 10.1561 27.4556 10.759 27.6889C10.2035 27.1795 9.5454 26.4792 8.91849 25.5554C8.90877 25.5411 8.89971 25.5268 8.89057 25.5124C9.66169 25.6118 10.2971 25.8087 10.759 25.9874C10.2035 25.478 9.5454 24.7777 8.91849 23.8539C8.8769 23.7922 8.83662 23.7311 8.79703 23.6694C9.61039 23.7643 10.2789 23.9702 10.759 24.1553C10.2256 23.6668 9.59803 22.9996 8.9945 22.1297C9.71885 22.233 10.3178 22.4201 10.759 22.5903C10.2035 22.081 9.5454 21.3807 8.91849 20.4568C8.45141 19.7676 8.10645 19.1075 7.85177 18.5352C7.55943 19.1432 7.18003 19.8312 6.68564 20.5504C6.11005 21.3885 5.5208 22.0628 4.99783 22.5903C5.40452 22.4331 5.97232 22.2519 6.6655 22.1446C6.0964 22.969 5.51496 23.6343 4.99783 24.1553C5.44285 23.9832 6.08081 23.7824 6.8643 23.6811C6.80648 23.7695 6.74671 23.8578 6.68564 23.9475C6.11005 24.7855 5.5208 25.4599 4.99783 25.9874C5.42466 25.8224 6.02883 25.6314 6.76815 25.5261C6.74086 25.567 6.71423 25.6073 6.68564 25.6489C6.11005 26.487 5.5208 27.1613 4.99783 27.6889C5.57733 27.4653 6.4823 27.5348 7.6114 27.4965V29.5755C5.76443 29.3467 3.9077 29.2025 2.04643 29.2623C1.83465 29.2688 1.66834 29.287 1.53711 29.3253C2.97155 29.6761 4.36181 30.2011 5.75338 30.7143C7.77317 31.4594 9.8358 32.0773 11.8465 32.851C19.1792 35.6731 25.9707 39.7972 32.1749 44.5962C35.1641 46.9083 37.9192 49.4744 40.5783 52.1569C41.3488 52.9345 42.1134 53.731 42.8514 54.5522C44.0475 53.92 45.1941 53.2067 46.2823 52.4174C44.6614 50.2586 42.9248 48.1862 41.0935 46.2054C38.3233 43.2098 35.3167 40.4007 31.9833 38.0424Z" fill="#949494"/>
<path d="M38.3432 52.3346C35.7024 49.7399 32.9719 47.2751 29.9978 45.0643C26.9645 42.81 23.785 40.7018 20.5056 38.8231C17.1897 36.9235 13.7121 35.3194 10.1209 34.0143C8.36287 33.375 6.57566 32.8255 4.82028 32.1764C3.61972 31.7314 2.39577 31.261 1.14062 30.9551C1.14322 30.9986 1.14647 31.0421 1.14907 31.0856C3.74575 32.7708 6.38076 34.3976 8.9326 36.151C14.4801 39.9633 19.3219 44.6206 24.0203 49.4151C26.2655 51.7064 28.5906 53.9503 30.7195 56.3508C31.1217 56.8043 31.5115 57.2662 31.8876 57.7384C35.2048 57.4709 38.3614 56.6334 41.2596 55.3263C40.3163 54.2966 39.3314 53.3052 38.3432 52.3346Z" fill="#949494"/>
<path d="M5.1527 39.9771C4.09896 38.7557 3.04911 37.5298 1.96094 36.3396C3.47788 42.3502 6.99253 47.7762 11.8409 51.6391C13.7295 53.1436 15.8006 54.3929 17.9906 55.3662C15.6908 51.9698 13.15 48.7416 10.3909 45.7038C8.65046 43.786 6.84636 41.939 5.1527 39.9771Z" fill="#949494"/>
<path d="M21.7567 49.5373C19.4276 47.1817 17.0564 44.865 14.5649 42.6802C12.1261 40.5415 9.55939 38.5959 6.86132 36.7962C5.04423 35.5847 3.19531 34.4205 1.35742 33.2407C1.35807 33.2459 1.35872 33.2511 1.36002 33.2563C3.36941 35.2566 5.18325 37.4375 7.04387 39.5742C8.77781 41.5647 10.6488 43.4241 12.3964 45.4016C14.0751 47.3 15.6707 49.2716 17.1838 51.3044C18.4181 52.9636 19.59 54.6677 20.7016 56.4094C23.551 57.343 26.5472 57.8309 29.5682 57.8309C29.6305 57.8309 29.6929 57.8289 29.7546 57.8283C29.3213 57.3281 28.8756 56.8389 28.4221 56.3595C26.238 54.0518 23.9902 51.7969 21.7567 49.5373Z" fill="#949494"/>
<path d="M28.1777 0.328935C28.179 0.328935 28.1797 0.328935 28.181 0.328935C28.6318 0.304897 29.0905 0.291904 29.5433 0.289306C29.5752 0.289306 29.6005 0.263319 29.6005 0.231486C29.6005 0.200303 29.5745 0.174316 29.5433 0.174316C29.0886 0.176915 28.6273 0.189908 28.1752 0.213946C28.1433 0.215894 28.1192 0.24253 28.1212 0.274364C28.1219 0.305547 28.1472 0.328935 28.1777 0.328935Z" fill="#949494"/>
<path d="M17.6396 2.96452C17.6473 2.96452 17.6558 2.96258 17.6635 2.95932C18.0742 2.76702 18.4951 2.58187 18.9135 2.41037C18.9427 2.39802 18.9564 2.36489 18.9447 2.33565C18.933 2.30642 18.8993 2.29277 18.87 2.30447C18.4497 2.47727 18.0274 2.66308 17.6149 2.85603C17.5863 2.86967 17.5739 2.90345 17.5876 2.93204C17.5973 2.95218 17.6174 2.96452 17.6396 2.96452Z" fill="#949494"/>
<path d="M12.9361 5.74762C12.9478 5.74762 12.9595 5.74372 12.9699 5.73657C13.3363 5.46891 13.7138 5.20775 14.0906 4.95893C14.1172 4.94139 14.1243 4.90566 14.1068 4.87968C14.0892 4.85368 14.0542 4.84589 14.0276 4.86343C13.6488 5.1129 13.2701 5.37536 12.9024 5.64432C12.877 5.66316 12.8712 5.69889 12.89 5.72423C12.901 5.73982 12.9186 5.74762 12.9361 5.74762Z" fill="#949494"/>
<path d="M10.8017 7.46084C10.8153 7.46084 10.829 7.4563 10.8393 7.44654C11.1785 7.14575 11.5287 6.84952 11.8808 6.56626C11.9055 6.54612 11.9093 6.5104 11.8892 6.4857C11.8697 6.46102 11.8333 6.45712 11.8086 6.47726C11.4559 6.76181 11.1038 7.05935 10.7633 7.36144C10.7399 7.38223 10.7374 7.41862 10.7588 7.442C10.7705 7.45434 10.7861 7.46084 10.8017 7.46084Z" fill="#949494"/>
<path d="M22.7822 1.13543C22.7868 1.13543 22.7913 1.13478 22.7959 1.13348C23.235 1.02369 23.682 0.923642 24.1257 0.835289C24.1569 0.829442 24.1771 0.798908 24.1705 0.767724C24.164 0.736541 24.1348 0.716401 24.103 0.722898C23.6579 0.811252 23.2084 0.911948 22.7679 1.02239C22.7374 1.03019 22.7186 1.06137 22.7264 1.09191C22.7335 1.11789 22.7569 1.13543 22.7822 1.13543Z" fill="#949494"/>
<path d="M25.4647 0.602156C25.4673 0.602156 25.4706 0.602156 25.4731 0.601506C25.9208 0.534592 26.3755 0.478071 26.8257 0.432595C26.8569 0.429347 26.8803 0.401411 26.8771 0.370228C26.8738 0.339044 26.8465 0.315657 26.8147 0.318905C26.3632 0.364381 25.9058 0.421551 25.4569 0.488466C25.4257 0.493013 25.4043 0.522248 25.4088 0.553431C25.4121 0.582016 25.4368 0.602156 25.4647 0.602156Z" fill="#949494"/>
<path d="M15.2248 4.24228C15.2345 4.24228 15.2449 4.23969 15.254 4.23449C15.6431 4.00386 16.0433 3.77973 16.4448 3.56795C16.4727 3.553 16.4831 3.51857 16.4689 3.49063C16.4539 3.4627 16.4195 3.45231 16.3915 3.46659C15.9887 3.67968 15.5866 3.90511 15.1962 4.13639C15.1689 4.15264 15.1598 4.18771 15.176 4.215C15.1858 4.23189 15.2052 4.24228 15.2248 4.24228Z" fill="#949494"/>
<path d="M8.8557 9.36813C8.87127 9.36813 8.88626 9.36228 8.8973 9.34993C9.20589 9.0186 9.52619 8.69056 9.84969 8.3748C9.87242 8.35272 9.87242 8.31633 9.85035 8.29424C9.82828 8.27215 9.79254 8.27086 9.76981 8.29359C9.44498 8.61059 9.12337 8.94002 8.81411 9.27259C8.79269 9.29598 8.79398 9.33172 8.81675 9.35322C8.82778 9.36294 8.84137 9.36813 8.8557 9.36813Z" fill="#949494"/>
<path d="M2.23729 21.1642C2.24249 21.1654 2.24768 21.166 2.25288 21.166C2.27822 21.166 2.30095 21.1492 2.3081 21.1238C2.42829 20.688 2.56147 20.2487 2.70245 19.8193C2.71219 19.7894 2.69595 19.757 2.66607 19.7472C2.63618 19.7368 2.6037 19.7537 2.59395 19.7836C2.45233 20.215 2.3185 20.6554 2.19766 21.094C2.18857 21.1238 2.20675 21.155 2.23729 21.1642Z" fill="#949494"/>
<path d="M1.64867 23.8274C1.65192 23.828 1.65517 23.828 1.65842 23.828C1.68571 23.828 1.70974 23.8085 1.71494 23.7806C1.7929 23.3349 1.88255 22.8853 1.98194 22.4442C1.98909 22.4138 1.96961 22.3825 1.93842 22.376C1.90789 22.3695 1.8767 22.3884 1.87021 22.4196C1.77081 22.8626 1.68051 23.3142 1.60255 23.7618C1.5967 23.7923 1.61749 23.8222 1.64867 23.8274Z" fill="#949494"/>
<path d="M3.08756 18.5659C3.09405 18.5685 3.1012 18.5699 3.10835 18.5699C3.13108 18.5699 3.15317 18.5562 3.16162 18.5328C3.32338 18.1112 3.49749 17.6883 3.67874 17.2751C3.69174 17.2459 3.67809 17.2127 3.64951 17.1997C3.62093 17.1874 3.58714 17.2004 3.57415 17.229C3.3916 17.6434 3.21684 18.0683 3.05442 18.4919C3.04338 18.5211 3.05833 18.5542 3.08756 18.5659Z" fill="#949494"/>
<path d="M7.09056 11.4539C7.10745 11.4539 7.125 11.4461 7.13604 11.4318C7.41214 11.0719 7.69929 10.7152 7.99034 10.371C8.01048 10.3469 8.00787 10.3105 7.98384 10.2903C7.9598 10.2702 7.92342 10.2728 7.90328 10.2968C7.61094 10.6425 7.32249 11.0011 7.04508 11.3623C7.0256 11.3876 7.03079 11.4233 7.05548 11.4422C7.06588 11.45 7.07822 11.4539 7.09056 11.4539Z" fill="#949494"/>
<path d="M5.50153 13.6869C5.51128 13.6927 5.52167 13.6954 5.53207 13.6954C5.5509 13.6954 5.56974 13.6856 5.58079 13.6687C5.82051 13.2854 6.07258 12.9027 6.32984 12.5311C6.34804 12.5052 6.34154 12.4695 6.31555 12.4513C6.28956 12.4331 6.25383 12.4396 6.23564 12.4655C5.97708 12.8384 5.72437 13.2224 5.48334 13.6077C5.46645 13.6349 5.47489 13.67 5.50153 13.6869Z" fill="#949494"/>
<path d="M4.18208 16.0706C4.19053 16.0745 4.19897 16.0765 4.20742 16.0765C4.22821 16.0765 4.24834 16.0648 4.25874 16.0446C4.46013 15.6412 4.67387 15.2364 4.89476 14.8414C4.91035 14.8142 4.9006 14.7791 4.87267 14.7635C4.84473 14.7479 4.8103 14.7577 4.79471 14.7856C4.57253 15.1819 4.35814 15.5886 4.15609 15.9933C4.14245 16.0219 4.15414 16.0563 4.18208 16.0706Z" fill="#949494"/>
<path d="M41.4499 2.8215C41.8598 3.00794 42.2717 3.20739 42.6745 3.41398C42.683 3.41853 42.6921 3.42048 42.7005 3.42048C42.7213 3.42048 42.7415 3.40943 42.7512 3.3893C42.7654 3.36136 42.7544 3.32693 42.7265 3.31264C42.3224 3.10475 41.9086 2.90465 41.4967 2.71755C41.4681 2.70456 41.4344 2.7169 41.4207 2.74613C41.4083 2.77472 41.4213 2.8085 41.4499 2.8215Z" fill="#949494"/>
<path d="M55.5929 16.9787C55.6026 16.9995 55.6234 17.0125 55.6448 17.0125C55.6527 17.0125 55.6611 17.0106 55.6682 17.0073C55.6968 16.9943 55.7098 16.9605 55.6968 16.9313C55.509 16.5181 55.309 16.103 55.1004 15.6969C55.0861 15.669 55.0517 15.658 55.0231 15.6722C54.9952 15.6866 54.9842 15.721 54.9984 15.7496C55.2064 16.1543 55.4058 16.5675 55.5929 16.9787Z" fill="#949494"/>
<path d="M54.3499 14.551C54.3602 14.5692 54.3798 14.5795 54.3992 14.5795C54.409 14.5795 54.4187 14.5769 54.4278 14.5717C54.4551 14.5562 54.4648 14.5211 54.4486 14.4938C54.2219 14.1001 53.9828 13.7064 53.7365 13.3231C53.7197 13.2965 53.6839 13.2887 53.6573 13.3055C53.6307 13.3224 53.6229 13.3582 53.6398 13.3848C53.8854 13.7662 54.1238 14.1585 54.3499 14.551Z" fill="#949494"/>
<path d="M52.8736 12.2521C52.8848 12.2677 52.9022 12.2761 52.9204 12.2761C52.9321 12.2761 52.9438 12.2729 52.9536 12.2657C52.9796 12.2475 52.9854 12.2118 52.9672 12.1858C52.7028 11.8142 52.4267 11.4452 52.1473 11.0892C52.1279 11.0639 52.0915 11.06 52.0668 11.0794C52.0421 11.0989 52.0375 11.1347 52.057 11.1594C52.3351 11.5147 52.6099 11.8818 52.8736 12.2521Z" fill="#949494"/>
<path d="M56.6034 19.5164C56.6118 19.5405 56.6339 19.5554 56.6573 19.5554C56.6632 19.5554 56.6697 19.5541 56.6755 19.5522C56.7053 19.5418 56.7216 19.5093 56.7112 19.4794C56.5644 19.0486 56.4045 18.616 56.2369 18.1924C56.2253 18.1632 56.1921 18.1489 56.1629 18.1606C56.1337 18.1723 56.1193 18.2055 56.131 18.2347C56.2981 18.6563 56.4572 19.0877 56.6034 19.5164Z" fill="#949494"/>
<path d="M58.1451 27.5837H58.1477C58.1788 27.5824 58.2035 27.5558 58.2022 27.524C58.1834 27.0692 58.1542 26.6099 58.1139 26.1584C58.1113 26.1272 58.0808 26.1038 58.0522 26.1064C58.021 26.109 57.9976 26.1369 58.0002 26.1681C58.0398 26.6177 58.0697 27.0757 58.0879 27.5285C58.0892 27.5596 58.1145 27.5837 58.1451 27.5837Z" fill="#949494"/>
<path d="M51.1936 10.1094C51.2046 10.1225 51.2209 10.129 51.2371 10.129C51.2501 10.129 51.2637 10.1244 51.2748 10.1153C51.2988 10.0945 51.3014 10.0581 51.2806 10.0347C50.9831 9.69107 50.6732 9.35068 50.3601 9.02198C50.338 8.99917 50.3023 8.99859 50.2795 9.02001C50.2568 9.04208 50.2555 9.07782 50.2776 9.10055C50.5888 9.42801 50.8973 9.76708 51.1936 10.1094Z" fill="#949494"/>
<path d="M57.906 24.8643C57.9086 24.8643 57.9111 24.8643 57.9138 24.8637C57.945 24.8591 57.9671 24.8306 57.9625 24.7994C57.9008 24.3479 57.8274 23.8938 57.7442 23.4481C57.7384 23.417 57.7078 23.3968 57.6773 23.4026C57.6461 23.4085 57.626 23.4384 57.6319 23.4696C57.7143 23.9126 57.7878 24.3654 57.8488 24.815C57.8533 24.8436 57.878 24.8643 57.906 24.8643Z" fill="#949494"/>
<path d="M57.3487 22.1355C57.3551 22.1615 57.3785 22.1797 57.4045 22.1797C57.4091 22.1797 57.413 22.1791 57.4176 22.1784C57.4481 22.1713 57.4675 22.1401 57.4597 22.1096C57.3551 21.6671 57.2383 21.2215 57.1122 20.7856C57.1031 20.755 57.0712 20.7375 57.0414 20.7465C57.0109 20.755 56.9933 20.7869 57.0024 20.8174C57.1278 21.2514 57.2441 21.6951 57.3487 22.1355Z" fill="#949494"/>
<path d="M33.6196 0.555881C34.0672 0.617598 34.52 0.691009 34.9651 0.774815C34.9689 0.775464 34.9722 0.776114 34.9755 0.776114C35.0027 0.776114 35.0268 0.756625 35.0313 0.729339C35.0371 0.698156 35.017 0.668271 34.9858 0.662424C34.5395 0.578618 34.0847 0.504558 33.6352 0.44284C33.6027 0.438943 33.5748 0.460381 33.5709 0.491564C33.5664 0.522748 33.5884 0.551983 33.6196 0.555881Z" fill="#949494"/>
<path d="M49.3088 8.13674C49.3198 8.14713 49.3341 8.15233 49.3484 8.15233C49.3634 8.15233 49.3783 8.14648 49.39 8.13478C49.412 8.11204 49.4107 8.07567 49.388 8.05358C49.0586 7.73915 48.7176 7.42991 48.3759 7.13366C48.3518 7.11287 48.3161 7.11548 48.2952 7.13951C48.2745 7.16355 48.2771 7.19928 48.3011 7.22007C48.6409 7.51567 48.9806 7.8236 49.3088 8.13674Z" fill="#949494"/>
<path d="M30.9141 0.313964C31.3676 0.332804 31.8249 0.362688 32.2744 0.402967C32.2764 0.402967 32.2777 0.402967 32.2797 0.402967C32.3089 0.402967 32.3335 0.380879 32.3368 0.350994C32.3394 0.319811 32.3167 0.291875 32.2849 0.288627C31.834 0.248349 31.3746 0.217815 30.9193 0.198975C30.8887 0.200274 30.8608 0.222362 30.8595 0.253546C30.8575 0.286029 30.8822 0.312664 30.9141 0.313964Z" fill="#949494"/>
<path d="M38.9234 1.81721C39.3502 1.96338 39.7803 2.12255 40.2019 2.29015C40.209 2.29276 40.2162 2.29406 40.2227 2.29406C40.2454 2.29406 40.2669 2.28041 40.276 2.25767C40.2877 2.22844 40.2733 2.19531 40.2441 2.18361C39.8212 2.01535 39.3892 1.85554 38.9605 1.70872C38.9306 1.69831 38.898 1.71456 38.8877 1.74444C38.8779 1.77433 38.8935 1.80681 38.9234 1.81721Z" fill="#949494"/>
<path d="M36.2999 1.06024C36.7397 1.16483 37.1833 1.28177 37.618 1.40781C37.6232 1.40911 37.6284 1.40975 37.6336 1.40975C37.6583 1.40975 37.681 1.39351 37.6888 1.36818C37.6973 1.33765 37.6804 1.30646 37.6498 1.29736C37.2132 1.17133 36.7683 1.05375 36.3265 0.948499C36.2959 0.940703 36.2648 0.960193 36.2576 0.990726C36.2498 1.02191 36.2687 1.0531 36.2999 1.06024Z" fill="#949494"/>
<path d="M47.2517 6.35228C47.2621 6.36072 47.2744 6.36463 47.2868 6.36463C47.3037 6.36463 47.3206 6.35683 47.3316 6.34254C47.3511 6.31785 47.3472 6.28147 47.3219 6.26262C46.9645 5.98198 46.5962 5.70587 46.2272 5.44341C46.2018 5.42522 46.1661 5.43106 46.1473 5.45706C46.1291 5.48304 46.1349 5.51877 46.1609 5.53696C46.5293 5.79812 46.8963 6.07228 47.2517 6.35228Z" fill="#949494"/>
<path d="M43.8683 4.06696C44.2588 4.29175 44.6505 4.53017 45.0312 4.77444C45.041 4.78028 45.0513 4.78354 45.0624 4.78354C45.0812 4.78354 45.0994 4.77444 45.1105 4.75754C45.1274 4.73091 45.1196 4.69583 45.0936 4.67829C44.7109 4.43272 44.3179 4.19365 43.9261 3.96756C43.8989 3.95197 43.8638 3.96107 43.8482 3.98835C43.8313 4.01564 43.8411 4.05072 43.8683 4.06696Z" fill="#949494"/>
<path d="M1.30956 26.5393H1.31411C1.34399 26.5393 1.36868 26.5166 1.37128 26.4867C1.40636 26.0345 1.45249 25.5784 1.509 25.1302C1.5129 25.099 1.49082 25.0704 1.45963 25.0665C1.4278 25.062 1.39986 25.0847 1.39597 25.1159C1.33944 25.5655 1.29332 26.0242 1.25824 26.4775C1.25434 26.5094 1.27773 26.5367 1.30956 26.5393Z" fill="#949494"/>
<path d="M20.1707 1.92517C20.1772 1.92517 20.1837 1.92387 20.1896 1.92192C20.617 1.7699 21.0543 1.62697 21.4876 1.49574C21.5181 1.48665 21.535 1.45482 21.5259 1.42428C21.5169 1.3944 21.485 1.37686 21.4545 1.38595C21.0192 1.51718 20.5807 1.66141 20.1513 1.81408C20.1214 1.82447 20.1057 1.8576 20.1169 1.88684C20.1253 1.91087 20.1473 1.92517 20.1707 1.92517Z" fill="#949494"/>
<path d="M58.1867 30.2614C58.1855 30.292 58.1601 30.3154 58.1295 30.3154C58.1282 30.3154 58.1276 30.3154 58.1263 30.3154C58.0945 30.3134 58.0704 30.2868 58.0724 30.2549C58.0964 29.8041 58.1101 29.3454 58.1133 28.8926C58.1133 28.8614 58.1393 28.8354 58.1705 28.8354C58.2023 28.8354 58.2283 28.8614 58.2283 28.8933C58.2251 29.348 58.2114 29.8086 58.1867 30.2614Z" fill="#949494"/>
<path d="M58.1711 28.8354C58.1392 28.8354 58.114 28.8608 58.1133 28.8926C58.1107 29.3461 58.0964 29.8041 58.0724 30.2549C58.0704 30.2868 58.0951 30.3134 58.1263 30.3154H58.1295C58.1601 30.3154 58.1848 30.292 58.1867 30.2614C58.2107 29.8086 58.2251 29.348 58.2276 28.8933C58.2283 28.8614 58.2023 28.8361 58.1711 28.8354Z" fill="#949494"/>
</g>
<path d="M66.5698 26.6938V18.3081H69.8783C70.5115 18.3081 71.052 18.4214 71.4997 18.648C71.9501 18.8719 72.2926 19.1898 72.5274 19.602C72.7649 20.0115 72.8836 20.4933 72.8836 21.0474C72.8836 21.6043 72.7635 22.0833 72.5233 22.4846C72.2831 22.8831 71.9351 23.1889 71.4792 23.4018C71.0261 23.6147 70.4774 23.7211 69.8332 23.7211H67.618V22.2963H69.5466C69.885 22.2963 70.1662 22.2498 70.39 22.157C70.6139 22.0642 70.7804 21.925 70.8895 21.7393C71.0015 21.5537 71.0575 21.3231 71.0575 21.0474C71.0575 20.769 71.0015 20.5342 70.8895 20.3431C70.7804 20.152 70.6125 20.0073 70.3859 19.9091C70.1621 19.8081 69.8796 19.7576 69.5384 19.7576H68.3428V26.6938H66.5698ZM71.0984 22.8776L73.1825 26.6938H71.2253L69.1863 22.8776H71.0984ZM78.137 24.0159V20.4046H79.8812V26.6938H78.2066V25.5514H78.141C77.9991 25.9199 77.763 26.216 77.4326 26.4399C77.1051 26.6637 76.7052 26.7757 76.233 26.7757C75.8126 26.7757 75.4428 26.6801 75.1234 26.4891C74.804 26.298 74.5542 26.0264 74.3741 25.6742C74.1966 25.3221 74.1066 24.9004 74.1038 24.409V20.4046H75.848V24.0979C75.8508 24.469 75.9504 24.7625 76.147 24.9782C76.3435 25.1938 76.6069 25.3016 76.9372 25.3016C77.1474 25.3016 77.3439 25.2538 77.5268 25.1583C77.7098 25.0601 77.8571 24.9153 77.969 24.7243C78.0837 24.5332 78.1397 24.2971 78.137 24.0159ZM81.2764 26.6938V20.4046H82.9675V21.5019H83.0334C83.1478 21.1115 83.3397 20.8168 83.6107 20.6174C83.8808 20.4154 84.1913 20.3145 84.5438 20.3145C84.6311 20.3145 84.725 20.3199 84.8263 20.3308C84.9276 20.3418 85.0157 20.3568 85.0923 20.3759V21.9236C85.0108 21.899 84.8971 21.8772 84.753 21.8581C84.6081 21.839 84.4755 21.8294 84.3552 21.8294C84.0991 21.8294 83.8693 21.8854 83.6675 21.9973C83.4682 22.1065 83.3101 22.2594 83.1923 22.4559C83.0778 22.6525 83.021 22.879 83.021 23.1356V26.6938H81.2764ZM87.6076 26.8125C87.2065 26.8125 86.8491 26.7429 86.5344 26.6037C86.2207 26.4617 85.9728 26.2529 85.7899 25.9772C85.6096 25.6988 85.5198 25.3521 85.5198 24.9372C85.5198 24.5878 85.5832 24.2944 85.7117 24.0568C85.8402 23.8194 86.0148 23.6283 86.2363 23.4836C86.457 23.339 86.7082 23.2298 86.9891 23.1561C87.2732 23.0824 87.5705 23.0305 87.8818 23.0005C88.2475 22.9623 88.5424 22.9268 88.7664 22.894C88.9904 22.8585 89.1526 22.8067 89.2539 22.7384C89.3544 22.6702 89.4055 22.5692 89.4055 22.4354V22.4109C89.4055 22.1515 89.3231 21.9509 89.1592 21.8089C88.9986 21.667 88.7688 21.596 88.4715 21.596C88.1577 21.596 87.9082 21.6656 87.7221 21.8049C87.5368 21.9414 87.414 22.1133 87.3539 22.3208L85.7405 22.1898C85.822 21.8076 85.9835 21.4773 86.224 21.1989C86.4636 20.9177 86.7741 20.7021 87.153 20.552C87.5351 20.3991 87.9774 20.3227 88.4798 20.3227C88.829 20.3227 89.1633 20.3636 89.4829 20.4455C89.8049 20.5273 90.0899 20.6543 90.3386 20.8263C90.5898 20.9983 90.7875 21.2193 90.9324 21.4896C91.0774 21.7571 91.149 22.0778 91.149 22.4518V26.6938H89.4952V25.8216H89.4458C89.3454 26.0181 89.2103 26.1915 89.0406 26.3416C88.8718 26.4891 88.6684 26.605 88.4303 26.6897C88.1932 26.7716 87.9189 26.8125 87.6076 26.8125ZM88.1075 25.6087C88.3636 25.6087 88.5901 25.5582 88.787 25.4572C88.9838 25.3535 89.1378 25.2142 89.2498 25.0395C89.3618 24.8649 89.417 24.667 89.417 24.4458V23.7785C89.3626 23.814 89.2877 23.8467 89.1922 23.8767C89.0991 23.904 88.9945 23.9299 88.8767 23.9546C88.7598 23.9764 88.642 23.9968 88.5251 24.0159C88.4073 24.0323 88.301 24.0473 88.2055 24.061C88.0004 24.091 87.8217 24.1388 87.6693 24.2043C87.5162 24.2698 87.3976 24.3585 87.3127 24.4704C87.2279 24.5797 87.1859 24.7161 87.1859 24.8799C87.1859 25.1174 87.2716 25.2989 87.4437 25.4245C87.6183 25.5473 87.8398 25.6087 88.1075 25.6087ZM94.2465 18.3081V26.6938H92.503V18.3081H94.2465ZM69.3787 40.8176C68.7345 40.8176 68.1803 40.6812 67.7163 40.4081C67.255 40.1325 66.9002 39.7503 66.6517 39.2617C66.406 38.7731 66.2832 38.2108 66.2832 37.5747C66.2832 36.9305 66.4074 36.3655 66.6558 35.8796C66.9069 35.391 67.2632 35.0102 67.7245 34.7372C68.1858 34.4615 68.7345 34.3237 69.3705 34.3237C69.9192 34.3237 70.3996 34.4233 70.8118 34.6226C71.224 34.8218 71.5501 35.1017 71.7904 35.462C72.0306 35.8223 72.163 36.2454 72.1875 36.7313H70.5416C70.4951 36.4174 70.3723 36.1648 70.173 35.9738C69.9765 35.78 69.7186 35.683 69.3992 35.683C69.129 35.683 68.8928 35.7568 68.6908 35.9042C68.4915 36.0489 68.3359 36.2604 68.224 36.5388C68.1121 36.8173 68.0561 37.1544 68.0561 37.5502C68.0561 37.9515 68.1107 38.2927 68.22 38.5738C68.3319 38.8549 68.4888 39.0692 68.6908 39.2167C68.8928 39.3641 69.129 39.4378 69.3992 39.4378C69.5984 39.4378 69.7772 39.3969 69.9356 39.3149C70.0966 39.233 70.229 39.1143 70.3327 38.9587C70.4392 38.8004 70.5088 38.6107 70.5416 38.3895H72.1875C72.1603 38.87 72.0292 39.2931 71.7945 39.6588C71.5624 40.022 71.2417 40.3058 70.8322 40.5105C70.4228 40.7153 69.9383 40.8176 69.3787 40.8176ZM76.1459 40.8176C75.51 40.8176 74.9599 40.6825 74.4959 40.4123C74.0345 40.1393 73.6783 39.7599 73.4272 39.274C73.1761 38.7853 73.0505 38.219 73.0505 37.5747C73.0505 36.9251 73.1761 36.3573 73.4272 35.8714C73.6783 35.3828 74.0345 35.0033 74.4959 34.7331C74.9599 34.4602 75.51 34.3237 76.1459 34.3237C76.782 34.3237 77.3307 34.4602 77.792 34.7331C78.256 35.0033 78.6136 35.3828 78.8648 35.8714C79.1159 36.3573 79.2414 36.9251 79.2414 37.5747C79.2414 38.219 79.1159 38.7853 78.8648 39.274C78.6136 39.7599 78.256 40.1393 77.792 40.4123C77.3307 40.6825 76.782 40.8176 76.1459 40.8176ZM76.1542 39.4664C76.4435 39.4664 76.6851 39.3845 76.8788 39.2208C77.0727 39.0542 77.2187 38.8277 77.317 38.5411C77.418 38.2544 77.4685 37.9282 77.4685 37.5625C77.4685 37.1967 77.418 36.8705 77.317 36.5839C77.2187 36.2973 77.0727 36.0707 76.8788 35.9042C76.6851 35.7376 76.4435 35.6544 76.1542 35.6544C75.862 35.6544 75.6164 35.7376 75.4171 35.9042C75.2205 36.0707 75.0718 36.2973 74.9708 36.5839C74.8726 36.8705 74.8234 37.1967 74.8234 37.5625C74.8234 37.9282 74.8726 38.2544 74.9708 38.5411C75.0718 38.8277 75.2205 39.0542 75.4171 39.2208C75.6164 39.3845 75.862 39.4664 76.1542 39.4664ZM80.3756 40.6948V34.4056H82.038V35.5152H82.1117C82.2427 35.1466 82.4611 34.856 82.7669 34.643C83.0729 34.4301 83.4386 34.3237 83.8644 34.3237C84.2951 34.3237 84.6624 34.4315 84.9655 34.6471C85.2686 34.86 85.4704 35.1494 85.5717 35.5152H85.6367C85.7652 35.1549 85.9975 34.8669 86.3335 34.6512C86.672 34.4328 87.0714 34.3237 87.5326 34.3237C88.1199 34.3237 88.5959 34.5107 88.9616 34.8847C89.3305 35.2558 89.515 35.7827 89.515 36.4651V40.6948H87.7748V36.809C87.7748 36.4597 87.6817 36.1976 87.4964 36.0229C87.3103 35.8482 87.078 35.7609 86.7996 35.7609C86.4834 35.7609 86.2363 35.8618 86.0592 36.0639C85.8813 36.2631 85.7924 36.5266 85.7924 36.8541V40.6948H84.1016V36.7722C84.1016 36.4637 84.0126 36.218 83.8355 36.0352C83.6609 35.8523 83.4303 35.7609 83.1437 35.7609C82.9494 35.7609 82.775 35.81 82.6194 35.9083C82.4666 36.0038 82.3451 36.1389 82.255 36.3136C82.165 36.4856 82.1199 36.6876 82.1199 36.9196V40.6948H80.3756ZM90.8929 40.6948V34.4056H92.5549V35.5152H92.6282C92.76 35.1466 92.9782 34.856 93.2838 34.643C93.5893 34.4301 93.955 34.3237 94.3808 34.3237C94.8123 34.3237 95.1797 34.4315 95.4827 34.6471C95.7858 34.86 95.9876 35.1494 96.0881 35.5152H96.154C96.2824 35.1549 96.5147 34.8669 96.8499 34.6512C97.1884 34.4328 97.5887 34.3237 98.0499 34.3237C98.6363 34.3237 99.1131 34.5107 99.4788 34.8847C99.8469 35.2558 100.031 35.7827 100.031 36.4651V40.6948H98.2912V36.809C98.2912 36.4597 98.1981 36.1976 98.0128 36.0229C97.8275 35.8482 97.5952 35.7609 97.3169 35.7609C96.9998 35.7609 96.7535 35.8618 96.5756 36.0639C96.3986 36.2631 96.3096 36.5266 96.3096 36.8541V40.6948H94.6188V36.7722C94.6188 36.4637 94.5298 36.218 94.3528 36.0352C94.1774 35.8523 93.9467 35.7609 93.6601 35.7609C93.4666 35.7609 93.292 35.81 93.1363 35.9083C92.9831 36.0038 92.8621 36.1389 92.7715 36.3136C92.6817 36.4856 92.6364 36.6876 92.6364 36.9196V40.6948H90.8929ZM105.442 38.0169V34.4056H107.187V40.6948H105.512V39.5524H105.447C105.305 39.9209 105.068 40.2171 104.738 40.4409C104.41 40.6648 104.011 40.7767 103.538 40.7767C103.118 40.7767 102.748 40.6812 102.429 40.4901C102.109 40.299 101.86 40.0274 101.679 39.6752C101.502 39.3231 101.412 38.9014 101.409 38.41V34.4056H103.154V38.0989C103.156 38.4701 103.256 38.7635 103.453 38.9792C103.649 39.1948 103.912 39.3026 104.242 39.3026C104.453 39.3026 104.649 39.2549 104.832 39.1593C105.015 39.0611 105.162 38.9164 105.274 38.7253C105.389 38.5342 105.445 38.2981 105.442 38.0169ZM110.326 37.0588V40.6948H108.582V34.4056H110.244V35.5152H110.318C110.457 35.1494 110.69 34.86 111.018 34.6471C111.346 34.4315 111.743 34.3237 112.21 34.3237C112.646 34.3237 113.028 34.4192 113.352 34.6103C113.677 34.8014 113.929 35.0743 114.11 35.4292C114.289 35.7813 114.38 36.2017 114.38 36.6903V40.6948H112.636V37.0015C112.638 36.6166 112.54 36.3164 112.341 36.1007C112.141 35.8823 111.867 35.7731 111.518 35.7731C111.283 35.7731 111.076 35.8236 110.895 35.9246C110.718 36.0257 110.579 36.1731 110.478 36.3669C110.38 36.5579 110.329 36.7886 110.326 37.0588ZM115.755 40.6948V34.4056H117.499V40.6948H115.755ZM116.631 33.5948C116.371 33.5948 116.149 33.5088 115.964 33.3369C115.78 33.1622 115.689 32.9533 115.689 32.7104C115.689 32.4702 115.78 32.2641 115.964 32.0921C116.149 31.9174 116.371 31.8301 116.631 31.8301C116.89 31.8301 117.111 31.9174 117.294 32.0921C117.48 32.2641 117.572 32.4702 117.572 32.7104C117.572 32.9533 117.48 33.1622 117.294 33.3369C117.111 33.5088 116.89 33.5948 116.631 33.5948ZM122.241 34.4056V35.7158H118.454V34.4056H122.241ZM119.314 32.8987H121.058V38.7622C121.058 38.9232 121.082 39.0488 121.132 39.1388C121.181 39.2262 121.249 39.2876 121.337 39.3231C121.427 39.3586 121.53 39.3763 121.647 39.3763C121.73 39.3763 121.811 39.3695 121.894 39.3558C121.975 39.3395 122.038 39.3272 122.081 39.319L122.356 40.617C122.268 40.6443 122.146 40.6757 121.987 40.7111C121.829 40.7493 121.637 40.7726 121.41 40.7808C120.99 40.7971 120.621 40.7412 120.305 40.6129C119.991 40.4846 119.747 40.2853 119.572 40.0151C119.397 39.7448 119.311 39.4036 119.314 38.9915V32.8987ZM123.378 40.6948V34.4056H125.122V40.6948H123.378ZM124.254 33.5948C123.995 33.5948 123.772 33.5088 123.586 33.3369C123.403 33.1622 123.312 32.9533 123.312 32.7104C123.312 32.4702 123.403 32.2641 123.586 32.0921C123.772 31.9174 123.995 31.8301 124.254 31.8301C124.513 31.8301 124.734 31.9174 124.917 32.0921C125.103 32.2641 125.195 32.4702 125.195 32.7104C125.195 32.9533 125.103 33.1622 124.917 33.3369C124.734 33.5088 124.513 33.5948 124.254 33.5948ZM129.385 40.8176C128.738 40.8176 128.182 40.6866 127.715 40.4245C127.251 40.1597 126.893 39.7858 126.642 39.3026C126.391 38.8167 126.265 38.2422 126.265 37.5789C126.265 36.9319 126.391 36.3641 126.642 35.8755C126.893 35.3869 127.247 35.0061 127.702 34.7331C128.161 34.4602 128.699 34.3237 129.316 34.3237C129.731 34.3237 130.117 34.3906 130.475 34.5243C130.834 34.6554 131.149 34.8532 131.416 35.118C131.686 35.3828 131.897 35.7158 132.047 36.1171C132.197 36.5156 132.272 36.9824 132.272 37.5174V37.9965H126.961V36.9155H130.63C130.63 36.6643 130.576 36.4419 130.466 36.2481C130.357 36.0543 130.205 35.9028 130.012 35.7936C129.821 35.6817 129.598 35.6257 129.345 35.6257C129.079 35.6257 128.845 35.6872 128.64 35.81C128.438 35.9301 128.28 36.0925 128.165 36.2973C128.051 36.4992 127.991 36.7245 127.989 36.9729V38.0005C127.989 38.3118 128.047 38.5807 128.161 38.8072C128.278 39.0337 128.444 39.2085 128.656 39.3313C128.869 39.4542 129.122 39.5155 129.414 39.5155C129.608 39.5155 129.785 39.4883 129.947 39.4337C130.107 39.3791 130.245 39.2972 130.36 39.188C130.475 39.0788 130.562 38.945 130.622 38.7867L132.235 38.8932C132.153 39.2808 131.985 39.6193 131.731 39.9086C131.48 40.1952 131.156 40.4191 130.757 40.5801C130.361 40.7385 129.904 40.8176 129.385 40.8176ZM138.643 36.1989L137.046 36.2973C137.019 36.1607 136.96 36.0379 136.871 35.9287C136.78 35.8168 136.661 35.7281 136.514 35.6626C136.369 35.5943 136.196 35.5602 135.994 35.5602C135.723 35.5602 135.496 35.6176 135.31 35.7322C135.125 35.8441 135.031 35.9943 135.031 36.1826C135.031 36.3327 135.092 36.4597 135.212 36.5634C135.332 36.6671 135.538 36.7504 135.83 36.8132L136.969 37.0425C137.58 37.1681 138.036 37.37 138.336 37.6485C138.636 37.9269 138.786 38.2927 138.786 38.7458C138.786 39.1579 138.665 39.5196 138.422 39.8308C138.182 40.142 137.851 40.385 137.431 40.5597C137.014 40.7316 136.532 40.8176 135.986 40.8176C135.153 40.8176 134.49 40.6443 133.995 40.2976C133.505 39.9482 133.216 39.4733 133.131 38.8727L134.848 38.7826C134.9 39.0365 135.025 39.2303 135.224 39.3641C135.424 39.4951 135.679 39.5606 135.99 39.5606C136.296 39.5606 136.541 39.5019 136.726 39.3845C136.915 39.2644 137.011 39.1102 137.014 38.9219C137.011 38.7635 136.944 38.6339 136.813 38.5329C136.682 38.4291 136.48 38.35 136.207 38.2954L135.118 38.0784C134.504 37.9556 134.046 37.7426 133.746 37.4396C133.449 37.1366 133.299 36.7504 133.299 36.2809C133.299 35.8768 133.409 35.5289 133.627 35.2367C133.848 34.9447 134.159 34.7194 134.557 34.5611C134.958 34.4029 135.428 34.3237 135.965 34.3237C136.759 34.3237 137.384 34.4916 137.841 34.8273C138.3 35.163 138.566 35.6203 138.643 36.1989Z" fill="black"/>
</g>
<defs>
<clipPath id="clip0_423_868">
<rect width="140.01" height="57.6513" fill="white" transform="translate(0.574219 0.174316)"/>
</clipPath>
</defs>
</svg>
