<svg width="1344" height="308" viewBox="0 0 1344 308" fill="none" xmlns="http://www.w3.org/2000/svg">
<mask id="path-1-outside-1_537_7964" maskUnits="userSpaceOnUse" x="0" y="0" width="1344" height="308" fill="black">
<rect fill="white" width="1344" height="308"/>
<path d="M42.1397 307C14.5673 307 1 292.269 1 277.538C1 267.328 7.85661 259.306 18.5062 259.306C30.1771 259.306 36.8878 268.495 36.8878 283.663V302.187C38.3467 302.333 39.6596 302.479 40.8267 302.479C57.4577 302.479 69.5661 288.914 79.1946 247.2L114.645 94.7836H76.5686V93.1792L119.021 75.531L119.313 74.3642C131.713 20.9819 164.246 1 198.675 1C229.894 1 242.294 17.919 242.294 32.0667C242.294 42.5682 235.438 51.3193 224.205 51.3193C211.513 51.3193 203.781 41.693 203.781 26.5243V6.39657H202.76C182.481 6.68827 164.829 16.0229 153.742 63.2793L150.97 74.9476H198.091L192.693 94.7836H146.448L114.061 234.803C101.953 287.018 75.1098 307 42.1397 307Z"/>
<path d="M227.852 251.138C196.924 251.138 179.564 229.114 179.564 186.817C179.564 117.683 224.934 50.4442 277.015 50.4442C300.649 50.4442 318.447 64.3003 318.447 87.0534C318.447 118.704 284.164 141.602 236.897 141.602C230.04 141.602 223.329 141.165 217.056 140.29C214.868 151.812 213.555 163.48 213.555 175.003C213.555 208.841 224.496 225.614 246.671 225.614C270.888 225.614 290.291 205.34 298.169 171.502H300.795C288.978 222.843 263.156 251.138 227.852 251.138ZM218.077 135.622C222.746 136.206 226.977 136.498 230.915 136.498C264.615 136.498 289.415 112.724 289.415 81.2193C289.415 65.7588 282.705 56.1325 271.763 56.1325C250.464 56.1325 227.56 93.0334 218.077 135.622Z"/>
<path d="M362.942 251.138C332.014 251.138 314.654 229.114 314.654 186.817C314.654 117.683 360.024 50.4442 412.105 50.4442C435.739 50.4442 453.537 64.3003 453.537 87.0534C453.537 118.704 419.254 141.602 371.987 141.602C365.13 141.602 358.419 141.165 352.146 140.29C349.958 151.812 348.645 163.48 348.645 175.003C348.645 208.841 359.586 225.614 381.761 225.614C405.978 225.614 425.381 205.34 433.258 171.502H435.884C424.068 222.843 398.246 251.138 362.942 251.138ZM353.167 135.622C357.836 136.206 362.066 136.498 366.005 136.498C399.705 136.498 424.505 112.724 424.505 81.2193C424.505 65.7588 417.795 56.1325 406.853 56.1325C385.554 56.1325 362.65 93.0334 353.167 135.622Z"/>
<path d="M455.725 250.117C440.699 249.242 436.468 235.824 442.303 214.091L490.008 36.4423C494.239 20.6902 489.133 18.0648 471.48 19.0858V16.4604C490.154 14.2726 509.119 9.02192 528.959 1H530.856L471.48 222.551C484.756 222.551 499.928 206.507 505.618 186.234L507.806 186.817C495.697 229.552 477.462 251.867 455.725 250.117Z"/>
<path d="M615.761 247.638V244.867C643.188 244.867 650.774 235.824 644.355 213.8L627.724 156.334H569.807L553.76 210.883C546.903 234.511 554.489 244.867 581.04 244.867V247.638H521.665V244.867C532.461 244.721 539.901 236.699 546.466 214.675L595.337 48.5481C590.085 37.755 584.104 32.9418 576.372 32.9418V30.1706H626.848L680.68 213.8C687.099 235.824 694.539 244.867 704.605 244.867V247.638H615.761ZM571.412 150.791H626.119L601.027 64.1544C600.297 61.6749 599.568 59.4871 598.838 57.2993L571.412 150.791Z"/>
<path d="M743.849 206.799C743.849 219.196 749.538 225.614 760.625 225.614C776.964 225.614 786.885 210.299 786.885 184.483H789.219C789.219 227.948 774.047 251.138 746.474 251.138C724.738 251.138 712.191 237.136 712.191 213.216V74.8017H687.099V72.9056C718.756 59.4871 736.846 37.3174 740.347 11.6473H743.411V54.8198H786.885V74.8017H743.849V206.799Z"/>
<path d="M848.594 206.799C848.594 219.196 854.284 225.614 865.371 225.614C881.71 225.614 891.63 210.299 891.63 184.483H893.965C893.965 227.948 878.793 251.138 851.22 251.138C829.483 251.138 816.937 237.136 816.937 213.216V74.8017H791.845V72.9056C823.502 59.4871 841.592 37.3174 845.093 11.6473H848.157V54.8198H891.63V74.8017H848.594V206.799Z"/>
<path d="M1002.5 84.7197C1002.5 69.1134 997.106 66.1964 980.621 67.3632V64.8837C996.96 62.55 1013.74 57.591 1032.7 49.4233H1034.45V221.676C1048.46 221.53 1059.25 203.153 1059.69 184.046H1061.73C1061.59 226.197 1048.46 249.971 1026.28 249.971C1012.13 249.971 1005.28 237.282 1005.71 220.509C1005.71 211.758 1006 205.486 1007.46 189.005H1005.86C1001.63 229.406 981.934 251.576 955.382 251.576C931.603 251.576 919.203 234.219 919.203 207.674L919.057 84.7197C919.057 69.1134 913.659 66.1964 897.028 67.3632V64.8837C913.659 62.55 930.582 57.591 949.255 49.4233H951.006V206.799C951.006 221.822 957.425 232.031 970.992 232.031C986.894 232.031 1002.5 216.571 1002.5 177.774V84.7197Z"/>
<path d="M1059.4 247.638V245.012C1075.74 245.012 1081.43 237.136 1081.43 221.384L1081.57 85.0114C1081.57 69.4051 1076.03 66.3422 1059.54 67.5091V64.8837C1076.18 62.55 1092.95 57.591 1111.33 49.4233H1113.23V52.9237C1113.23 70.572 1112.36 80.0524 1108.56 112.286H1110.31C1115.27 71.3012 1134.82 50.4442 1161.66 50.4442C1186.17 50.4442 1198.87 67.8008 1198.87 94.346V221.384C1198.87 237.136 1204.55 245.012 1220.75 245.012V247.638H1146.93V245.012C1161.66 245.012 1166.92 237.136 1166.92 221.384V95.367C1166.92 80.3441 1160.21 69.8427 1145.91 69.8427C1129.57 69.8427 1113.52 85.7407 1113.52 125.121V221.384C1113.52 237.136 1118.63 245.012 1133.36 245.012V247.638H1059.4Z"/>
<path d="M1342.85 171.502C1342.85 221.968 1322.43 251.138 1286.4 251.138C1246.72 251.138 1220.46 215.696 1220.46 154.438C1220.46 90.2622 1248.47 50.4442 1289.9 50.4442C1317.03 50.4442 1343 68.53 1343 120.891H1250.65C1250.51 124.538 1250.36 128.184 1250.36 132.122C1250.36 191.776 1269.47 224.885 1299.53 224.885C1323.16 224.885 1340.23 204.028 1340.23 171.502H1342.85ZM1250.8 115.786H1311.05C1311.2 114.036 1311.2 112.286 1311.2 110.536C1311.2 77.1354 1299.38 56.1325 1282.31 56.1325C1264.95 56.1325 1253.28 77.2812 1250.8 115.786Z"/>
</mask>
<path d="M42.1397 307C14.5673 307 1 292.269 1 277.538C1 267.328 7.85661 259.306 18.5062 259.306C30.1771 259.306 36.8878 268.495 36.8878 283.663V302.187C38.3467 302.333 39.6596 302.479 40.8267 302.479C57.4577 302.479 69.5661 288.914 79.1946 247.2L114.645 94.7836H76.5686V93.1792L119.021 75.531L119.313 74.3642C131.713 20.9819 164.246 1 198.675 1C229.894 1 242.294 17.919 242.294 32.0667C242.294 42.5682 235.438 51.3193 224.205 51.3193C211.513 51.3193 203.781 41.693 203.781 26.5243V6.39657H202.76C182.481 6.68827 164.829 16.0229 153.742 63.2793L150.97 74.9476H198.091L192.693 94.7836H146.448L114.061 234.803C101.953 287.018 75.1098 307 42.1397 307Z" stroke="#F5F1EB" stroke-width="2" mask="url(#path-1-outside-1_537_7964)"/>
<path d="M227.852 251.138C196.924 251.138 179.564 229.114 179.564 186.817C179.564 117.683 224.934 50.4442 277.015 50.4442C300.649 50.4442 318.447 64.3003 318.447 87.0534C318.447 118.704 284.164 141.602 236.897 141.602C230.04 141.602 223.329 141.165 217.056 140.29C214.868 151.812 213.555 163.48 213.555 175.003C213.555 208.841 224.496 225.614 246.671 225.614C270.888 225.614 290.291 205.34 298.169 171.502H300.795C288.978 222.843 263.156 251.138 227.852 251.138ZM218.077 135.622C222.746 136.206 226.977 136.498 230.915 136.498C264.615 136.498 289.415 112.724 289.415 81.2193C289.415 65.7588 282.705 56.1325 271.763 56.1325C250.464 56.1325 227.56 93.0334 218.077 135.622Z" stroke="#F5F1EB" stroke-width="2" mask="url(#path-1-outside-1_537_7964)"/>
<path d="M362.942 251.138C332.014 251.138 314.654 229.114 314.654 186.817C314.654 117.683 360.024 50.4442 412.105 50.4442C435.739 50.4442 453.537 64.3003 453.537 87.0534C453.537 118.704 419.254 141.602 371.987 141.602C365.13 141.602 358.419 141.165 352.146 140.29C349.958 151.812 348.645 163.48 348.645 175.003C348.645 208.841 359.586 225.614 381.761 225.614C405.978 225.614 425.381 205.34 433.258 171.502H435.884C424.068 222.843 398.246 251.138 362.942 251.138ZM353.167 135.622C357.836 136.206 362.066 136.498 366.005 136.498C399.705 136.498 424.505 112.724 424.505 81.2193C424.505 65.7588 417.795 56.1325 406.853 56.1325C385.554 56.1325 362.65 93.0334 353.167 135.622Z" stroke="#F5F1EB" stroke-width="2" mask="url(#path-1-outside-1_537_7964)"/>
<path d="M455.725 250.117C440.699 249.242 436.468 235.824 442.303 214.091L490.008 36.4423C494.239 20.6902 489.133 18.0648 471.48 19.0858V16.4604C490.154 14.2726 509.119 9.02192 528.959 1H530.856L471.48 222.551C484.756 222.551 499.928 206.507 505.618 186.234L507.806 186.817C495.697 229.552 477.462 251.867 455.725 250.117Z" stroke="#F5F1EB" stroke-width="2" mask="url(#path-1-outside-1_537_7964)"/>
<path d="M615.761 247.638V244.867C643.188 244.867 650.774 235.824 644.355 213.8L627.724 156.334H569.807L553.76 210.883C546.903 234.511 554.489 244.867 581.04 244.867V247.638H521.665V244.867C532.461 244.721 539.901 236.699 546.466 214.675L595.337 48.5481C590.085 37.755 584.104 32.9418 576.372 32.9418V30.1706H626.848L680.68 213.8C687.099 235.824 694.539 244.867 704.605 244.867V247.638H615.761ZM571.412 150.791H626.119L601.027 64.1544C600.297 61.6749 599.568 59.4871 598.838 57.2993L571.412 150.791Z" stroke="#F5F1EB" stroke-width="2" mask="url(#path-1-outside-1_537_7964)"/>
<path d="M743.849 206.799C743.849 219.196 749.538 225.614 760.625 225.614C776.964 225.614 786.885 210.299 786.885 184.483H789.219C789.219 227.948 774.047 251.138 746.474 251.138C724.738 251.138 712.191 237.136 712.191 213.216V74.8017H687.099V72.9056C718.756 59.4871 736.846 37.3174 740.347 11.6473H743.411V54.8198H786.885V74.8017H743.849V206.799Z" stroke="#F5F1EB" stroke-width="2" mask="url(#path-1-outside-1_537_7964)"/>
<path d="M848.594 206.799C848.594 219.196 854.284 225.614 865.371 225.614C881.71 225.614 891.63 210.299 891.63 184.483H893.965C893.965 227.948 878.793 251.138 851.22 251.138C829.483 251.138 816.937 237.136 816.937 213.216V74.8017H791.845V72.9056C823.502 59.4871 841.592 37.3174 845.093 11.6473H848.157V54.8198H891.63V74.8017H848.594V206.799Z" stroke="#F5F1EB" stroke-width="2" mask="url(#path-1-outside-1_537_7964)"/>
<path d="M1002.5 84.7197C1002.5 69.1134 997.106 66.1964 980.621 67.3632V64.8837C996.96 62.55 1013.74 57.591 1032.7 49.4233H1034.45V221.676C1048.46 221.53 1059.25 203.153 1059.69 184.046H1061.73C1061.59 226.197 1048.46 249.971 1026.28 249.971C1012.13 249.971 1005.28 237.282 1005.71 220.509C1005.71 211.758 1006 205.486 1007.46 189.005H1005.86C1001.63 229.406 981.934 251.576 955.382 251.576C931.603 251.576 919.203 234.219 919.203 207.674L919.057 84.7197C919.057 69.1134 913.659 66.1964 897.028 67.3632V64.8837C913.659 62.55 930.582 57.591 949.255 49.4233H951.006V206.799C951.006 221.822 957.425 232.031 970.992 232.031C986.894 232.031 1002.5 216.571 1002.5 177.774V84.7197Z" stroke="#F5F1EB" stroke-width="2" mask="url(#path-1-outside-1_537_7964)"/>
<path d="M1059.4 247.638V245.012C1075.74 245.012 1081.43 237.136 1081.43 221.384L1081.57 85.0114C1081.57 69.4051 1076.03 66.3422 1059.54 67.5091V64.8837C1076.18 62.55 1092.95 57.591 1111.33 49.4233H1113.23V52.9237C1113.23 70.572 1112.36 80.0524 1108.56 112.286H1110.31C1115.27 71.3012 1134.82 50.4442 1161.66 50.4442C1186.17 50.4442 1198.87 67.8008 1198.87 94.346V221.384C1198.87 237.136 1204.55 245.012 1220.75 245.012V247.638H1146.93V245.012C1161.66 245.012 1166.92 237.136 1166.92 221.384V95.367C1166.92 80.3441 1160.21 69.8427 1145.91 69.8427C1129.57 69.8427 1113.52 85.7407 1113.52 125.121V221.384C1113.52 237.136 1118.63 245.012 1133.36 245.012V247.638H1059.4Z" stroke="#F5F1EB" stroke-width="2" mask="url(#path-1-outside-1_537_7964)"/>
<path d="M1342.85 171.502C1342.85 221.968 1322.43 251.138 1286.4 251.138C1246.72 251.138 1220.46 215.696 1220.46 154.438C1220.46 90.2622 1248.47 50.4442 1289.9 50.4442C1317.03 50.4442 1343 68.53 1343 120.891H1250.65C1250.51 124.538 1250.36 128.184 1250.36 132.122C1250.36 191.776 1269.47 224.885 1299.53 224.885C1323.16 224.885 1340.23 204.028 1340.23 171.502H1342.85ZM1250.8 115.786H1311.05C1311.2 114.036 1311.2 112.286 1311.2 110.536C1311.2 77.1354 1299.38 56.1325 1282.31 56.1325C1264.95 56.1325 1253.28 77.2812 1250.8 115.786Z" stroke="#F5F1EB" stroke-width="2" mask="url(#path-1-outside-1_537_7964)"/>
</svg>
