<svg width="113" height="37" viewBox="0 0 113 37" fill="none" xmlns="http://www.w3.org/2000/svg">
<path d="M3.42919 29.8055C1.24845 29.8055 0.175379 28.6401 0.175379 27.4747C0.175379 26.6671 0.717681 26.0324 1.55998 26.0324C2.48305 26.0324 3.01381 26.7594 3.01381 27.9593V29.4247C3.1292 29.4363 3.23304 29.4478 3.32535 29.4478C4.64072 29.4478 5.5984 28.3747 6.35993 25.0748L9.16375 13.0172H6.15224V12.8903L9.5099 11.4941L9.53298 11.4018C10.5137 7.17878 13.0868 5.59803 15.8098 5.59803C18.279 5.59803 19.2598 6.93648 19.2598 8.0557C19.2598 8.88646 18.7175 9.57876 17.829 9.57876C16.8252 9.57876 16.2137 8.81723 16.2137 7.61724V6.02495H16.1329C14.5291 6.04803 13.1329 6.78648 12.256 10.5249L12.0368 11.448H15.7637L15.3368 13.0172H11.6791L9.1176 24.094C8.15991 28.2247 6.03686 29.8055 3.42919 29.8055ZM18.1175 25.3863C15.6714 25.3863 14.2983 23.644 14.2983 20.2979C14.2983 14.8287 17.8867 9.50953 22.0059 9.50953C23.8751 9.50953 25.2828 10.6057 25.2828 12.4057C25.2828 14.9095 22.5713 16.721 18.8329 16.721C18.2906 16.721 17.7598 16.6864 17.2637 16.6172C17.0906 17.5287 16.9867 18.4517 16.9867 19.3633C16.9867 22.0402 17.8521 23.3671 19.606 23.3671C21.5213 23.3671 23.0559 21.7633 23.679 19.0864H23.8867C22.9521 23.1479 20.9098 25.3863 18.1175 25.3863ZM17.3444 16.2479C17.7137 16.2941 18.0483 16.3172 18.3598 16.3172C21.0252 16.3172 22.9867 14.4364 22.9867 11.9441C22.9867 10.7211 22.4559 9.95953 21.5905 9.95953C19.906 9.95953 18.0944 12.8787 17.3444 16.2479ZM28.802 25.3863C26.3559 25.3863 24.9828 23.644 24.9828 20.2979C24.9828 14.8287 28.5712 9.50953 32.6904 9.50953C34.5596 9.50953 35.9673 10.6057 35.9673 12.4057C35.9673 14.9095 33.2558 16.721 29.5174 16.721C28.9751 16.721 28.4443 16.6864 27.9482 16.6172C27.7751 17.5287 27.6713 18.4517 27.6713 19.3633C27.6713 22.0402 28.5366 23.3671 30.2905 23.3671C32.2058 23.3671 33.7404 21.7633 34.3635 19.0864H34.5712C33.6366 23.1479 31.5943 25.3863 28.802 25.3863ZM28.0289 16.2479C28.3982 16.2941 28.7328 16.3172 29.0443 16.3172C31.7097 16.3172 33.6712 14.4364 33.6712 11.9441C33.6712 10.7211 33.1404 9.95953 32.2751 9.95953C30.5905 9.95953 28.7789 12.8787 28.0289 16.2479ZM36.1404 25.3055C34.952 25.2363 34.6173 24.1748 35.0789 22.4556L38.8519 8.40185C39.1865 7.15571 38.7827 6.94802 37.3865 7.02879V6.8211C38.8635 6.64802 40.3634 6.23264 41.9327 5.59803H42.0827L37.3865 23.1248C38.4365 23.1248 39.6365 21.8556 40.0865 20.2517L40.2596 20.2979C39.3019 23.6786 37.8596 25.444 36.1404 25.3055ZM48.798 25.1094V24.8901C50.9672 24.8901 51.5672 24.1748 51.0595 22.4325L49.7441 17.8864H45.1634L43.8942 22.2017C43.3519 24.0709 43.9519 24.8901 46.0518 24.8901V25.1094H41.3557V24.8901C42.2096 24.8786 42.798 24.244 43.3173 22.5017L47.1826 9.35953C46.7672 8.50569 46.2942 8.12493 45.6826 8.12493V7.9057H49.6749L53.9325 22.4325C54.4402 24.1748 55.0287 24.8901 55.8248 24.8901V25.1094H48.798ZM45.2903 17.4479H49.6172L47.6326 10.5941C47.5749 10.398 47.5172 10.2249 47.4595 10.0518L45.2903 17.4479ZM58.9286 21.8786C58.9286 22.8594 59.3786 23.3671 60.2555 23.3671C61.5478 23.3671 62.3324 22.1556 62.3324 20.1133H62.5171C62.5171 23.5517 61.3171 25.3863 59.1363 25.3863C57.4171 25.3863 56.4248 24.2786 56.4248 22.3863V11.4364H54.4402V11.2864C56.944 10.2249 58.3748 8.47108 58.6517 6.44033H58.894V9.85568H62.3324V11.4364H58.9286V21.8786ZM67.2132 21.8786C67.2132 22.8594 67.6632 23.3671 68.5401 23.3671C69.8324 23.3671 70.617 22.1556 70.617 20.1133H70.8016C70.8016 23.5517 69.6016 25.3863 67.4209 25.3863C65.7016 25.3863 64.7094 24.2786 64.7094 22.3863V11.4364H62.7248V11.2864C65.2286 10.2249 66.6593 8.47108 66.9363 6.44033H67.1786V9.85568H70.617V11.4364H67.2132V21.8786ZM79.3861 12.221C79.3861 10.9864 78.9592 10.7557 77.6554 10.848V10.6518C78.9477 10.4672 80.2746 10.0749 81.7746 9.42876H81.913V23.0555C83.0207 23.044 83.8745 21.5902 83.9092 20.0787H84.0707C84.0592 23.4132 83.0207 25.294 81.2669 25.294C80.1477 25.294 79.6054 24.2902 79.64 22.9632C79.64 22.2709 79.663 21.7748 79.7784 20.471H79.6515C79.3169 23.6671 77.7592 25.4209 75.6592 25.4209C73.7785 25.4209 72.7977 24.0478 72.7977 21.9479L72.7862 12.221C72.7862 10.9864 72.3593 10.7557 71.0439 10.848V10.6518C72.3593 10.4672 73.6977 10.0749 75.1746 9.42876H75.3131V21.8786C75.3131 23.0671 75.8208 23.8748 76.8938 23.8748C78.1515 23.8748 79.3861 22.6517 79.3861 19.5825V12.221ZM83.8861 25.1094V24.9017C85.1784 24.9017 85.6284 24.2786 85.6284 23.0325L85.6399 12.2441C85.6399 11.0095 85.2015 10.7672 83.8976 10.8595V10.6518C85.213 10.4672 86.5399 10.0749 87.9937 9.42876H88.1437V9.70568C88.1437 11.1018 88.0745 11.8518 87.7745 14.4018H87.913C88.3053 11.1595 89.8514 9.50953 91.9745 9.50953C93.9129 9.50953 94.9167 10.8826 94.9167 12.9826V23.0325C94.9167 24.2786 95.3667 24.9017 96.6475 24.9017V25.1094H90.8091V24.9017C91.9745 24.9017 92.3898 24.2786 92.3898 23.0325V13.0633C92.3898 11.8749 91.8591 11.0441 90.7283 11.0441C89.436 11.0441 88.1668 12.3018 88.1668 15.4172V23.0325C88.1668 24.2786 88.5707 24.9017 89.736 24.9017V25.1094H83.8861ZM106.305 19.0864C106.305 23.0786 104.69 25.3863 101.84 25.3863C98.7013 25.3863 96.6244 22.5825 96.6244 17.7364C96.6244 12.6595 98.8398 9.50953 102.117 9.50953C104.263 9.50953 106.317 10.9403 106.317 15.0826H99.0129C99.0013 15.371 98.9898 15.6595 98.9898 15.971C98.9898 20.6902 100.501 23.3094 102.878 23.3094C104.747 23.3094 106.097 21.6594 106.097 19.0864H106.305ZM99.0244 14.6787H103.79C103.801 14.5402 103.801 14.4018 103.801 14.2633C103.801 11.621 102.867 9.95953 101.517 9.95953C100.144 9.95953 99.2205 11.6326 99.0244 14.6787Z" fill="black"/>
<path d="M61.7976 34.6523V29.0879H63.7429C64.1306 29.0879 64.4502 29.155 64.702 29.289C64.9538 29.4212 65.1413 29.5996 65.2644 29.8243C65.3876 30.047 65.4492 30.2943 65.4492 30.566C65.4492 30.8051 65.4066 31.0025 65.3215 31.1583C65.2382 31.3141 65.1277 31.4372 64.99 31.5278C64.8542 31.6184 64.7066 31.6854 64.5472 31.7289V31.7832C64.7174 31.7941 64.8886 31.8538 65.0607 31.9625C65.2327 32.0712 65.3767 32.227 65.4927 32.4298C65.6086 32.6327 65.6666 32.8809 65.6666 33.1743C65.6666 33.4532 65.6032 33.7041 65.4764 33.9269C65.3496 34.1497 65.1494 34.3263 64.8759 34.4567C64.6024 34.5871 64.2465 34.6523 63.8081 34.6523H61.7976ZM62.4714 34.0546H63.8081C64.2483 34.0546 64.5607 33.9695 64.7455 33.7992C64.9321 33.6271 65.0253 33.4188 65.0253 33.1743C65.0253 32.9859 64.9773 32.812 64.8813 32.6526C64.7853 32.4914 64.6486 32.3628 64.4711 32.2668C64.2936 32.169 64.0835 32.1201 63.8407 32.1201H62.4714V34.0546ZM62.4714 31.5332H63.7212C63.9241 31.5332 64.107 31.4934 64.27 31.4137C64.4349 31.334 64.5653 31.2217 64.6613 31.0768C64.7591 30.9319 64.808 30.7616 64.808 30.566C64.808 30.3215 64.7229 30.1141 64.5526 29.9438C64.3823 29.7717 64.1124 29.6857 63.7429 29.6857H62.4714V31.5332ZM67.0998 36.2173C66.9911 36.2173 66.8942 36.2083 66.809 36.1902C66.7239 36.1739 66.665 36.1576 66.6324 36.1413L66.7955 35.5761C66.9512 35.616 67.0889 35.6305 67.2084 35.6196C67.328 35.6087 67.434 35.5553 67.5263 35.4593C67.6205 35.3651 67.7066 35.212 67.7844 35.0001L67.904 34.6741L66.3607 30.479H67.0563L68.2083 33.8046H68.2518L69.4038 30.479H70.0993L68.3278 35.2609C68.2481 35.4765 68.1494 35.6549 68.0317 35.7962C67.914 35.9393 67.7772 36.0453 67.6214 36.1141C67.4675 36.1829 67.2936 36.2173 67.0998 36.2173ZM73.1845 34.6523V29.0879H76.5427V29.6857H73.8583V31.5658H76.3688V32.1636H73.8583V34.0546H76.5861V34.6523H73.1845ZM78.8983 34.7502C78.6338 34.7502 78.3938 34.7003 78.1783 34.6007C77.9627 34.4993 77.7916 34.3535 77.6648 34.1633C77.538 33.9713 77.4746 33.7394 77.4746 33.4677C77.4746 33.2286 77.5217 33.0348 77.6159 32.8863C77.7101 32.736 77.8359 32.6182 77.9935 32.5331C78.1511 32.448 78.325 32.3846 78.5152 32.3429C78.7072 32.2994 78.9001 32.265 79.0939 32.2397C79.3475 32.2071 79.5531 32.1826 79.7107 32.1663C79.8701 32.1482 79.986 32.1183 80.0584 32.0766C80.1327 32.035 80.1698 31.9625 80.1698 31.8593V31.8375C80.1698 31.5695 80.0965 31.3612 79.9498 31.2126C79.8049 31.0641 79.5848 30.9898 79.2895 30.9898C78.9834 30.9898 78.7434 31.0569 78.5695 31.1909C78.3956 31.3249 78.2734 31.468 78.2027 31.6202L77.5941 31.4028C77.7028 31.1492 77.8477 30.9518 78.0289 30.8105C78.2118 30.6674 78.411 30.5678 78.6266 30.5117C78.844 30.4537 79.0577 30.4247 79.2678 30.4247C79.4018 30.4247 79.5558 30.441 79.7297 30.4736C79.9054 30.5044 80.0747 30.5687 80.2378 30.6665C80.4026 30.7643 80.5394 30.912 80.648 31.1094C80.7567 31.3068 80.8111 31.5713 80.8111 31.9028V34.6523H80.1698V34.0872H80.1372C80.0938 34.1778 80.0213 34.2747 79.9199 34.3779C79.8184 34.4812 79.6835 34.569 79.515 34.6415C79.3466 34.7139 79.141 34.7502 78.8983 34.7502ZM78.9961 34.1742C79.2497 34.1742 79.4634 34.1243 79.6373 34.0247C79.813 33.9251 79.9452 33.7965 80.034 33.6389C80.1246 33.4813 80.1698 33.3156 80.1698 33.1417V32.5548C80.1427 32.5874 80.0829 32.6173 79.9905 32.6445C79.9 32.6698 79.7949 32.6925 79.6754 32.7124C79.5576 32.7305 79.4426 32.7468 79.3303 32.7613C79.2198 32.774 79.1301 32.7849 79.0613 32.7939C78.8947 32.8157 78.7389 32.851 78.594 32.8999C78.4509 32.947 78.335 33.0185 78.2462 33.1145C78.1593 33.2087 78.1158 33.3373 78.1158 33.5003C78.1158 33.7231 78.1982 33.8916 78.363 34.0057C78.5297 34.118 78.7407 34.1742 78.9961 34.1742ZM84.9375 31.4137L84.3615 31.5767C84.3253 31.4807 84.2718 31.3874 84.2012 31.2969C84.1323 31.2045 84.0382 31.1284 83.9186 31.0686C83.7991 31.0089 83.646 30.979 83.4594 30.979C83.204 30.979 82.9912 31.0378 82.8209 31.1556C82.6525 31.2715 82.5683 31.4191 82.5683 31.5984C82.5683 31.7578 82.6262 31.8837 82.7422 31.9761C82.8581 32.0685 83.0392 32.1455 83.2856 32.2071L83.905 32.3592C84.2782 32.4498 84.5562 32.5883 84.7391 32.7749C84.9221 32.9597 85.0136 33.1978 85.0136 33.4895C85.0136 33.7286 84.9447 33.9423 84.8071 34.1307C84.6712 34.3191 84.481 34.4676 84.2365 34.5763C83.992 34.6849 83.7076 34.7393 83.3834 34.7393C82.9577 34.7393 82.6054 34.6469 82.3265 34.4622C82.0475 34.2774 81.8709 34.0075 81.7966 33.6525L82.4052 33.5003C82.4632 33.7249 82.5728 33.8934 82.734 34.0057C82.897 34.118 83.1099 34.1742 83.3725 34.1742C83.6714 34.1742 83.9086 34.1108 84.0843 33.984C84.2619 33.8554 84.3506 33.7014 84.3506 33.5221C84.3506 33.3772 84.2999 33.2558 84.1985 33.158C84.097 33.0584 83.9413 32.9841 83.7311 32.9352L83.0356 32.7722C82.6534 32.6816 82.3726 32.5412 82.1933 32.3511C82.0158 32.1591 81.9271 31.9191 81.9271 31.6311C81.9271 31.3956 81.9932 31.1873 82.1254 31.0061C82.2594 30.825 82.4415 30.6828 82.6715 30.5796C82.9034 30.4763 83.166 30.4247 83.4594 30.4247C83.8724 30.4247 84.1966 30.5153 84.4321 30.6964C84.6694 30.8775 84.8379 31.1166 84.9375 31.4137ZM87.7285 34.7393C87.3264 34.7393 86.9795 34.6505 86.6879 34.473C86.3981 34.2937 86.1744 34.0437 86.0168 33.7231C85.861 33.4007 85.7831 33.0258 85.7831 32.5983C85.7831 32.1708 85.861 31.7941 86.0168 31.468C86.1744 31.1402 86.3936 30.8848 86.6743 30.7018C86.9569 30.5171 87.2865 30.4247 87.6633 30.4247C87.8807 30.4247 88.0953 30.4609 88.3072 30.5334C88.5192 30.6058 88.7121 30.7236 88.8859 30.8866C89.0598 31.0478 89.1984 31.2615 89.3016 31.5278C89.4049 31.7941 89.4565 32.1219 89.4565 32.5114V32.7831H86.2396V32.2288H88.8044C88.8044 31.9933 88.7573 31.7832 88.6632 31.5984C88.5708 31.4137 88.4385 31.2679 88.2665 31.161C88.0962 31.0541 87.8952 31.0007 87.6633 31.0007C87.4079 31.0007 87.1869 31.0641 87.0004 31.1909C86.8156 31.3159 86.6734 31.4789 86.5738 31.68C86.4742 31.881 86.4244 32.0966 86.4244 32.3266V32.6961C86.4244 33.0113 86.4787 33.2785 86.5874 33.4976C86.6979 33.715 86.8509 33.8807 87.0465 33.9948C87.2422 34.1071 87.4695 34.1633 87.7285 34.1633C87.897 34.1633 88.0491 34.1397 88.185 34.0926C88.3226 34.0437 88.4413 33.9713 88.5409 33.8753C88.6405 33.7775 88.7175 33.6561 88.7718 33.5112L89.3913 33.6851C89.3261 33.8952 89.2165 34.08 89.0625 34.2394C88.9086 34.3969 88.7184 34.5201 88.492 34.6089C88.2656 34.6958 88.0111 34.7393 87.7285 34.7393ZM94.9965 30.8268H94.3226C94.2828 30.633 94.2131 30.4627 94.1134 30.316C94.0156 30.1693 93.8961 30.0461 93.7548 29.9465C93.6153 29.8451 93.4605 29.769 93.2902 29.7183C93.1199 29.6676 92.9424 29.6422 92.7577 29.6422C92.4207 29.6422 92.1155 29.7273 91.842 29.8976C91.5703 30.0679 91.3539 30.3187 91.1927 30.6502C91.0333 30.9817 90.9536 31.3883 90.9536 31.8701C90.9536 32.352 91.0333 32.7586 91.1927 33.0901C91.3539 33.4215 91.5703 33.6724 91.842 33.8427C92.1155 34.0129 92.4207 34.0981 92.7577 34.0981C92.9424 34.0981 93.1199 34.0727 93.2902 34.022C93.4605 33.9713 93.6153 33.8961 93.7548 33.7965C93.8961 33.6951 94.0156 33.571 94.1134 33.4243C94.2131 33.2757 94.2828 33.1055 94.3226 32.9135H94.9965C94.9457 33.1978 94.8534 33.4523 94.7193 33.6769C94.5853 33.9015 94.4186 34.0926 94.2194 34.2502C94.0202 34.406 93.7965 34.5246 93.5483 34.6062C93.302 34.6877 93.0384 34.7284 92.7577 34.7284C92.2831 34.7284 91.861 34.6125 91.4915 34.3806C91.122 34.1488 90.8313 33.8191 90.6194 33.3917C90.4075 32.9642 90.3015 32.457 90.3015 31.8701C90.3015 31.2833 90.4075 30.7761 90.6194 30.3486C90.8313 29.9212 91.122 29.5915 91.4915 29.3596C91.861 29.1278 92.2831 29.0119 92.7577 29.0119C93.0384 29.0119 93.302 29.0526 93.5483 29.1341C93.7965 29.2156 94.0202 29.3352 94.2194 29.4928C94.4186 29.6486 94.5853 29.8387 94.7193 30.0633C94.8534 30.2861 94.9457 30.5406 94.9965 30.8268ZM97.2264 34.7502C96.962 34.7502 96.722 34.7003 96.5064 34.6007C96.2909 34.4993 96.1197 34.3535 95.9929 34.1633C95.8661 33.9713 95.8027 33.7394 95.8027 33.4677C95.8027 33.2286 95.8498 33.0348 95.944 32.8863C96.0382 32.736 96.1641 32.6182 96.3217 32.5331C96.4793 32.448 96.6531 32.3846 96.8433 32.3429C97.0353 32.2994 97.2282 32.265 97.422 32.2397C97.6756 32.2071 97.8812 32.1826 98.0388 32.1663C98.1982 32.1482 98.3141 32.1183 98.3866 32.0766C98.4608 32.035 98.498 31.9625 98.498 31.8593V31.8375C98.498 31.5695 98.4246 31.3612 98.2779 31.2126C98.133 31.0641 97.9129 30.9898 97.6177 30.9898C97.3116 30.9898 97.0716 31.0569 96.8977 31.1909C96.7238 31.3249 96.6015 31.468 96.5309 31.6202L95.9223 31.4028C96.0309 31.1492 96.1759 30.9518 96.357 30.8105C96.5399 30.6674 96.7392 30.5678 96.9547 30.5117C97.1721 30.4537 97.3858 30.4247 97.5959 30.4247C97.73 30.4247 97.8839 30.441 98.0578 30.4736C98.2335 30.5044 98.4029 30.5687 98.5659 30.6665C98.7307 30.7643 98.8675 30.912 98.9762 31.1094C99.0848 31.3068 99.1392 31.5713 99.1392 31.9028V34.6523H98.498V34.0872H98.4654C98.4219 34.1778 98.3494 34.2747 98.248 34.3779C98.1466 34.4812 98.0116 34.569 97.8432 34.6415C97.6747 34.7139 97.4691 34.7502 97.2264 34.7502ZM97.3242 34.1742C97.5778 34.1742 97.7916 34.1243 97.9654 34.0247C98.1411 33.9251 98.2734 33.7965 98.3621 33.6389C98.4527 33.4813 98.498 33.3156 98.498 33.1417V32.5548C98.4708 32.5874 98.411 32.6173 98.3187 32.6445C98.2281 32.6698 98.123 32.6925 98.0035 32.7124C97.8857 32.7305 97.7707 32.7468 97.6584 32.7613C97.5479 32.774 97.4583 32.7849 97.3894 32.7939C97.2228 32.8157 97.067 32.851 96.9221 32.8999C96.779 32.947 96.6631 33.0185 96.5743 33.1145C96.4874 33.2087 96.4439 33.3373 96.4439 33.5003C96.4439 33.7231 96.5263 33.8916 96.6912 34.0057C96.8578 34.118 97.0688 34.1742 97.3242 34.1742ZM100.31 34.6523V30.479H100.929V31.1094H100.972C101.049 30.9029 101.186 30.7354 101.385 30.6067C101.585 30.4781 101.809 30.4138 102.059 30.4138C102.106 30.4138 102.165 30.4147 102.236 30.4166C102.307 30.4184 102.36 30.4211 102.396 30.4247V31.0768C102.374 31.0714 102.325 31.0632 102.247 31.0523C102.171 31.0397 102.09 31.0333 102.005 31.0333C101.802 31.0333 101.621 31.0759 101.462 31.161C101.304 31.2443 101.179 31.3603 101.087 31.5088C100.996 31.6555 100.951 31.8231 100.951 32.0114V34.6523H100.31ZM104.779 34.7393C104.377 34.7393 104.03 34.6505 103.738 34.473C103.449 34.2937 103.225 34.0437 103.067 33.7231C102.911 33.4007 102.834 33.0258 102.834 32.5983C102.834 32.1708 102.911 31.7941 103.067 31.468C103.225 31.1402 103.444 30.8848 103.725 30.7018C104.007 30.5171 104.337 30.4247 104.714 30.4247C104.931 30.4247 105.146 30.4609 105.358 30.5334C105.57 30.6058 105.763 30.7236 105.936 30.8866C106.11 31.0478 106.249 31.2615 106.352 31.5278C106.455 31.7941 106.507 32.1219 106.507 32.5114V32.7831H103.29V32.2288H105.855C105.855 31.9933 105.808 31.7832 105.714 31.5984C105.621 31.4137 105.489 31.2679 105.317 31.161C105.147 31.0541 104.946 31.0007 104.714 31.0007C104.458 31.0007 104.237 31.0641 104.051 31.1909C103.866 31.3159 103.724 31.4789 103.624 31.68C103.525 31.881 103.475 32.0966 103.475 32.3266V32.6961C103.475 33.0113 103.529 33.2785 103.638 33.4976C103.748 33.715 103.901 33.8807 104.097 33.9948C104.293 34.1071 104.52 34.1633 104.779 34.1633C104.947 34.1633 105.1 34.1397 105.235 34.0926C105.373 34.0437 105.492 33.9713 105.591 33.8753C105.691 33.7775 105.768 33.6561 105.822 33.5112L106.442 33.6851C106.377 33.8952 106.267 34.08 106.113 34.2394C105.959 34.3969 105.769 34.5201 105.542 34.6089C105.316 34.6958 105.062 34.7393 104.779 34.7393Z" fill="black"/>
</svg>
