<svg width="100" height="100" viewBox="0 0 100 100" fill="none" xmlns="http://www.w3.org/2000/svg">
<circle cx="50" cy="50" r="49.5" fill="white" stroke="black"/>
<mask id="mask0_1196_486" style="mask-type:luminance" maskUnits="userSpaceOnUse" x="26" y="24" width="52" height="52">
<path d="M26 24H77.1023V75.1023H26V24Z" fill="white"/>
</mask>
<g mask="url(#mask0_1196_486)">
<path d="M51.5604 26.4395C38.8124 26.4395 28.4406 36.8104 28.4406 49.5584C28.4406 62.3064 38.8124 72.6773 51.5604 72.6773C64.3075 72.6773 74.6793 62.3064 74.6793 49.5584C74.6793 36.8104 64.3075 26.4395 51.5604 26.4395ZM51.5604 75.1188C37.4657 75.1188 26 63.6522 26 49.5584C26 35.4646 37.4657 23.998 51.5604 23.998C65.6542 23.998 77.1182 35.4646 77.1182 49.5584C77.1182 63.6522 65.6542 75.1188 51.5604 75.1188Z" fill="black"/>
</g>
<path d="M58.6186 57.8415C58.3064 57.8415 57.9951 57.7227 57.7574 57.4833L50.6942 50.4217C50.4648 50.1924 50.3359 49.8827 50.3359 49.5588V35.3646C50.3359 34.69 50.8833 34.1426 51.5579 34.1426C52.2317 34.1426 52.7774 34.69 52.7774 35.3646V49.0541L59.4824 55.7583C59.9586 56.2354 59.9586 57.0079 59.4824 57.4833C59.2422 57.7227 58.9308 57.8415 58.6186 57.8415Z" fill="black"/>
<path d="M62.5932 32.8829L62.7991 32.5289C63.1347 31.9455 62.9355 31.1989 62.3521 30.8624C61.7662 30.5243 61.0197 30.726 60.684 31.3094L60.479 31.6659C60.1425 32.2493 60.3442 32.9934 60.9276 33.3315C61.1184 33.4428 61.3302 33.4947 61.5352 33.4947C61.9579 33.4947 62.368 33.2754 62.5932 32.8829ZM42.4305 67.8082L42.6355 67.4541C42.972 66.8708 42.7728 66.1242 42.1869 65.786C41.6035 65.4496 40.8569 65.6488 40.5205 66.233L40.3179 66.5887C39.9798 67.1721 40.1807 67.9186 40.764 68.2551C40.9557 68.3656 41.1666 68.4183 41.3717 68.4183C41.7944 68.4183 42.2053 68.2007 42.4305 67.8082ZM69.453 40.6366L69.8079 40.4307C70.3913 40.0951 70.5905 39.3485 70.254 38.7652C69.9159 38.181 69.1693 37.9818 68.5859 38.3182L68.2319 38.5233C67.6485 38.8597 67.4493 39.6063 67.7849 40.1897C68.0109 40.5822 68.421 40.799 68.8437 40.799C69.0513 40.799 69.2605 40.7471 69.453 40.6366ZM34.5286 60.7993L34.8826 60.5943C35.466 60.2578 35.6669 59.5112 35.3287 58.9279C34.9931 58.3428 34.2449 58.1453 33.6632 58.4809L33.3091 58.6868C32.7249 59.025 32.524 59.7715 32.8622 60.3549C33.0873 60.7449 33.4983 60.9642 33.9209 60.9642C34.1277 60.9642 34.3369 60.9098 34.5286 60.7993ZM73.1457 49.5588C73.1457 48.885 72.6009 48.3393 71.9263 48.3393H71.5162C70.8415 48.3393 70.2967 48.885 70.2967 49.5588C70.2967 50.2325 70.8415 50.7782 71.5162 50.7782H71.9263C72.6009 50.7782 73.1457 50.2325 73.1457 49.5588ZM32.8195 49.5588C32.8195 48.885 32.2721 48.3393 31.5983 48.3393H31.1899C30.5161 48.3393 29.9688 48.885 29.9688 49.5588C29.9688 50.2325 30.5161 50.7782 31.1899 50.7782H31.5983C32.2721 50.7782 32.8195 50.2325 32.8195 49.5588ZM70.254 60.3549C70.5905 59.7715 70.3913 59.025 69.8079 58.6868L69.453 58.4809C68.8696 58.1453 68.1231 58.3445 67.7849 58.9279C67.4493 59.5112 67.6485 60.2578 68.2319 60.5943L68.5859 60.7993C68.7776 60.9098 68.9885 60.9642 69.1961 60.9642C69.6162 60.9642 70.0272 60.7449 70.254 60.3549ZM35.3287 40.1897C35.6669 39.6063 35.466 38.8597 34.8826 38.5233L34.5286 38.3182C33.9444 37.9818 33.1978 38.181 32.8622 38.7652C32.524 39.3485 32.7249 40.0951 33.3091 40.4307L33.6632 40.6366C33.854 40.7471 34.0657 40.799 34.2708 40.799C34.6935 40.799 35.1036 40.5822 35.3287 40.1897ZM62.3521 68.2551C62.9355 67.9186 63.1347 67.1721 62.7991 66.5887L62.5932 66.233C62.2575 65.6488 61.511 65.4496 60.9276 65.786C60.3442 66.1242 60.1425 66.8708 60.4806 67.4541L60.6857 67.8082C60.9117 68.2007 61.3218 68.4183 61.742 68.4183C61.9495 68.4183 62.1588 68.3656 62.3521 68.2551ZM42.1869 33.3315C42.7728 32.9934 42.972 32.2493 42.6355 31.6659L42.4305 31.3094C42.0923 30.726 41.3457 30.5243 40.764 30.8624C40.1807 31.1989 39.9798 31.9455 40.3154 32.5289L40.5205 32.8829C40.7465 33.2754 41.1566 33.4947 41.5793 33.4947C41.7868 33.4947 41.9961 33.4428 42.1869 33.3315ZM52.778 69.9274V69.5164C52.778 68.8443 52.2323 68.297 51.5585 68.297C50.8839 68.297 50.3365 68.8443 50.3365 69.5164V69.9274C50.3365 70.6011 50.8839 71.1469 51.5585 71.1469C52.2323 71.1469 52.778 70.6011 52.778 69.9274ZM51.5585 30.8206C50.8839 30.8206 50.3365 30.2749 50.3365 29.6011V29.1902C50.3365 28.5164 50.8839 27.9707 51.5585 27.9707C52.2323 27.9707 52.778 28.5164 52.778 29.1902V29.6011C52.778 30.2749 52.2323 30.8206 51.5585 30.8206Z" fill="black"/>
</svg>
