<svg width="55" height="55" viewBox="0 0 55 55" fill="none" xmlns="http://www.w3.org/2000/svg">
<circle cx="27.5" cy="27.5" r="27.5" fill="#FFD23F"/>
<mask id="mask0_0_1" style="mask-type:luminance" maskUnits="userSpaceOnUse" x="17" y="17" width="23" height="22">
<path d="M17 17H39.0905V39H17V17Z" fill="white"/>
</mask>
<g mask="url(#mask0_0_1)">
<path d="M19.9947 25.5277C19.9947 25.3377 20.1489 25.184 20.3389 25.184H29.0242C29.2142 25.184 29.3684 25.3377 29.3684 25.5277C29.3684 25.7173 29.2142 25.8715 29.0242 25.8715H20.3389C20.1489 25.8715 19.9947 25.7173 19.9947 25.5277ZM28.0986 35.4182H20.3389C20.1489 35.4182 19.9947 35.5724 19.9947 35.762C19.9947 35.952 20.1489 36.1057 20.3389 36.1057H28.0986C28.2881 36.1057 28.4423 35.952 28.4423 35.762C28.4423 35.5724 28.2881 35.4182 28.0986 35.4182ZM20.3389 23.3125H26.5736C26.7636 23.3125 26.9174 23.1587 26.9174 22.9687C26.9174 22.7792 26.7636 22.625 26.5736 22.625H20.3389C20.1489 22.625 19.9947 22.7792 19.9947 22.9687C19.9947 23.1587 20.1489 23.3125 20.3389 23.3125ZM38.7982 37.8669L37.9178 38.7737C37.7716 38.9246 37.5769 39.0005 37.3817 39.0005C37.194 39.0005 37.0059 38.9302 36.8611 38.7897L34.5817 36.5787C34.519 36.6532 34.4247 36.7003 34.32 36.7003H32.3631V38.6563C32.3631 38.8463 32.2089 39 32.0189 39H17.3442C17.1542 39 17 38.8463 17 38.6563V19.6439C17 19.4539 17.1542 19.3002 17.3442 19.3002H19.3011V17.3438C19.3011 17.1542 19.4553 17 19.6448 17H31.942C32.0335 17 32.1208 17.0363 32.1854 17.1009L34.5628 19.4775C34.6274 19.5421 34.6638 19.6293 34.6638 19.7203V28.5875C35.0301 29.2637 35.2381 30.037 35.2381 30.858C35.2381 31.7704 34.9811 32.6239 34.536 33.3501L35.5092 34.3044C35.6031 34.2611 35.7058 34.237 35.8124 34.2351C36.0133 34.2342 36.2014 34.3068 36.3443 34.4454L38.7826 36.8102C39.0783 37.0974 39.0853 37.5712 38.7982 37.8669ZM34.13 33.915C34.038 34.0258 33.9409 34.1323 33.839 34.2342L34.6939 35.073L34.9948 34.7632L34.13 33.915ZM34.5506 30.858C34.5506 28.6007 32.7135 26.7641 30.4548 26.7641C28.1966 26.7641 26.3595 28.6007 26.3595 30.858C26.3595 33.1157 28.1966 34.9523 30.4548 34.9523C32.7135 34.9523 34.5506 33.1157 34.5506 30.858ZM29.9852 21.6767H31.1885L29.9852 20.4738V21.6767ZM32.2863 19.3765H33.4896L32.2863 18.1737V19.3765ZM19.9891 19.3002H29.6414C29.7324 19.3002 29.8201 19.3365 29.8847 19.4006L32.2622 21.7776C32.3268 21.8417 32.3627 21.9294 32.3627 22.0204V26.4741C32.9785 26.7429 33.5273 27.1371 33.9758 27.6251V20.064H31.942C31.7525 20.064 31.5983 19.9103 31.5983 19.7203V17.6875H19.9891V19.3002ZM31.6752 36.3566V35.4819C31.2852 35.5847 30.8764 35.6398 30.4548 35.6398C28.8139 35.6398 27.3639 34.8095 26.5019 33.5472H20.3389C20.1489 33.5472 19.9947 33.3934 19.9947 33.2034C19.9947 33.0138 20.1489 32.8597 20.3389 32.8597H26.1115C25.8465 32.2877 25.6914 31.6549 25.6734 30.9886H20.3389C20.1489 30.9886 19.9947 30.8349 19.9947 30.6448C19.9947 30.4548 20.1489 30.3011 20.3389 30.3011H25.7041C25.7833 29.6244 26.004 28.9907 26.3359 28.43H20.3389C20.1489 28.43 19.9947 28.2758 19.9947 28.0863C19.9947 27.8963 20.1489 27.7425 20.3389 27.7425H26.8296C27.7076 26.7231 29.0072 26.0766 30.4548 26.0766C30.8764 26.0766 31.2852 26.1318 31.6752 26.2346V22.3642H29.6414C29.4514 22.3642 29.2977 22.2105 29.2977 22.0204V19.9877H17.688V38.3125H31.6752V36.3566ZM33.9758 36.0128V35.3319L33.3175 34.6864C33.0237 34.9066 32.7036 35.0938 32.3627 35.2423V36.0128H33.9758ZM38.3035 37.3039L35.8652 34.9391C35.8516 34.9255 35.8355 34.9226 35.8237 34.9226C35.8237 34.9226 35.8233 34.9226 35.8228 34.9226C35.8115 34.9226 35.795 34.9259 35.7808 34.9401L34.9009 35.8468C34.8788 35.8699 34.8792 35.9091 34.9019 35.9312L37.3402 38.296C37.3628 38.3182 37.4024 38.3177 37.4246 38.2951L38.3045 37.3883C38.3266 37.3652 38.3262 37.326 38.3035 37.3039ZM33.9866 30.858C33.9866 32.805 32.4023 34.3884 30.4548 34.3884C28.5074 34.3884 26.923 32.805 26.923 30.858C26.923 28.9115 28.5074 27.3281 30.4548 27.3281C32.4023 27.3281 33.9866 28.9115 33.9866 30.858ZM33.2987 30.858C33.2987 29.2906 32.0231 28.0156 30.4548 28.0156C28.887 28.0156 27.611 29.2906 27.611 30.858C27.611 32.4258 28.887 33.7009 30.4548 33.7009C32.0231 33.7009 33.2987 32.4258 33.2987 30.858Z" fill="black"/>
</g>
</svg>
