<svg width="63" height="35" viewBox="0 0 63 35" fill="none" xmlns="http://www.w3.org/2000/svg">
<mask id="mask0_5_1545" style="mask-type:luminance" maskUnits="userSpaceOnUse" x="0" y="0" width="63" height="35">
<path d="M0 0.00585938H62.9999V34.196H0V0.00585938Z" fill="white"/>
</mask>
<g mask="url(#mask0_5_1545)">
<path d="M26.7457 7.90601C27.6575 8.0367 28.4194 7.45586 29.3213 7.39854C30.9407 7.29536 32.4838 8.03288 34.0872 8.14828C35.0135 8.21401 35.7954 7.91824 36.6918 7.81353C37.5524 7.71418 38.2915 7.59342 38.711 6.7405C39.0932 5.96477 38.9411 4.99798 38.4114 4.33078C37.9529 3.75376 37.2742 3.44958 36.5634 3.34105C36.5398 2.64557 36.1064 1.96614 35.4759 1.60693C34.9027 1.28136 34.208 1.2676 33.5736 1.36008C33.3161 1.39753 32.6053 1.7017 32.3913 1.62833C32.2239 1.57254 32.0879 1.23932 31.9442 1.07042C31.2258 0.225143 29.9655 0.0126769 28.9368 0.333668C27.6384 0.738729 26.7809 1.87519 26.0709 2.96427C26.0624 2.97726 26.0624 2.99025 26.0556 3.00401C25.9837 3.00478 25.9088 3.01089 25.8248 3.04299C24.3199 3.63377 23.1857 5.44125 24.4774 6.84827C25.033 7.45662 25.9432 7.7906 26.7457 7.90601ZM26.1771 4.32008C26.3827 4.23983 26.5072 4.0908 26.5707 3.92342C26.803 3.95552 27.0514 3.88292 27.2157 3.63224C27.7026 2.88631 28.2712 2.03492 29.1241 1.67037C29.9319 1.32568 30.6549 1.54197 31.1333 2.23822C31.7455 3.13088 32.3653 2.97955 33.3314 2.7518C33.8006 2.64175 34.438 2.50418 34.8775 2.78925C35.158 2.97115 35.3628 3.31965 35.1687 3.62307C34.905 4.03348 35.2466 4.64718 35.7419 4.61967C36.4542 4.57993 37.411 4.75953 37.5792 5.58952C37.7802 6.58612 36.7721 6.4241 36.1209 6.5609C35.3544 6.72293 34.6986 6.88801 33.9038 6.80699C33.203 6.73515 32.5197 6.54103 31.8349 6.3813C30.4142 6.04961 29.0194 5.91204 27.63 6.44703C26.9796 6.6977 26.0754 6.53721 25.5405 6.03891C24.8694 5.41603 25.49 4.5891 26.1771 4.32008ZM41.9171 24.1528C41.6221 23.0094 40.7172 22.0495 39.5074 21.8454C38.416 21.662 37.3759 22.1275 36.6949 22.9269C35.9887 21.2325 34.4793 19.8767 32.6512 19.5121C30.7581 19.1354 28.8321 19.8171 27.5084 21.1568C26.7075 17.6366 23.8316 14.8264 20.3473 13.8413C16.3387 12.7064 12.1513 14.4145 9.57189 17.5724C8.2008 19.2515 7.33413 21.2386 7.01161 23.3709C5.78725 22.5249 4.14179 22.3162 2.73401 22.8375C0.944105 23.5001 -0.101409 25.2556 0.0430369 27.1433C0.193597 29.0983 1.47986 30.8256 3.45242 31.2367C4.05849 31.3621 4.77842 31.1886 5.34245 31.4102C5.83311 31.6028 6.22747 32.1944 6.66157 32.5123C7.44953 33.087 8.38346 33.4508 9.34414 33.606C11.3733 33.9338 13.5124 33.3507 14.9966 31.9276C16.1155 33.0679 17.4576 34.1983 19.1413 34.1127C20.9648 34.0179 22.316 32.4878 24.0983 32.3266C25.1514 32.231 26.054 32.8233 26.9536 33.2773C27.7713 33.6893 28.6036 33.9827 29.5269 34.0179C31.0485 34.0744 32.5488 33.4798 33.634 32.4267C34.8591 33.6021 36.6147 34.1111 38.2983 33.8536C39.2017 33.716 40.0431 33.3507 40.7547 32.7767C41.2606 32.3686 41.6343 32.0209 42.3245 31.9956C42.8671 31.9758 43.4036 31.9865 43.9455 31.923C45.6567 31.7213 47.5115 31.1099 48.5081 29.6066C49.5812 27.9855 49.1073 25.8127 47.7225 24.5349C46.1145 23.0515 43.7307 23.1202 41.9171 24.1528ZM45.0934 30.7308C44.0815 31.0052 43.1117 30.9677 42.083 31.0388C41.0015 31.1129 40.4795 31.9085 39.5968 32.4091C37.7618 33.4523 35.3276 32.9815 33.9703 31.3965C33.8098 31.21 33.4491 31.2107 33.2893 31.3965C32.1995 32.6651 30.4784 33.3171 28.8199 32.9693C27.1637 32.6231 25.8798 31.2299 24.0983 31.3644C22.5208 31.4821 21.3087 32.5971 19.8337 33.0205C17.962 33.5586 16.5328 32.1523 15.3467 30.9058C15.1755 30.7262 14.8346 30.714 14.6657 30.9058C13.2557 32.5062 10.9843 33.0901 8.93832 32.5406C7.78734 32.2318 7.1102 31.5692 6.23053 30.8324C5.81935 30.4885 5.37379 30.3808 4.84721 30.3655C4.08829 30.3425 3.4272 30.3295 2.73784 29.9566C0.948691 28.9906 0.423641 26.3034 1.68468 24.7153C3.04507 23.0025 5.85833 23.1951 7.18739 24.8161C7.58098 25.2953 8.25889 24.6113 7.86911 24.1359C7.85001 24.1115 7.82555 24.0939 7.80568 24.071C7.84848 24.0075 7.88134 23.9349 7.89204 23.8448C8.28716 20.2405 10.6304 16.9274 13.8931 15.3377C17.2703 13.6938 21.269 14.4389 24.0043 16.9587C25.5038 18.3405 26.5455 20.1855 26.7495 22.2291C26.7961 22.7022 27.3678 22.8856 27.6475 22.4721C28.7137 20.8924 30.7313 20.0349 32.6061 20.4835C34.396 20.9123 35.738 22.4316 36.0988 24.2055C36.2012 24.7069 36.8806 24.6151 37.0281 24.2055C37.3667 23.2616 38.3763 22.6135 39.3821 22.7992C40.4031 22.9873 41.0764 23.9586 41.0703 24.9591C41.068 25.2915 41.4937 25.601 41.7948 25.3741C43.6528 23.9754 46.5914 23.8677 47.7867 26.1826C48.93 28.4036 47.1416 30.1752 45.0934 30.7308ZM62.0364 11.1266C61.2255 10.2775 60.0485 9.85106 58.974 10.1254C59.1658 8.33705 58.2541 6.44703 56.5849 5.66136C54.6559 4.75341 52.292 5.50316 51.1028 7.22123C50.2186 6.32398 48.9369 5.84478 47.6621 6.08171C46.0533 6.3813 44.7839 7.77303 44.5707 9.37951C44.5065 9.86711 44.5737 10.5412 44.0517 10.7972C43.6772 10.9822 43.2095 10.9875 42.819 11.1625C42.109 11.4805 41.4975 12.02 41.0887 12.6819C40.2808 13.9896 40.556 15.5899 41.765 16.5384C42.9626 17.4784 44.6647 17.6007 46.1168 17.3615C47.2288 17.1781 48.233 17.1039 49.3534 17.2759C50.2575 17.4165 51.1494 17.6236 52.0597 17.723C52.9967 17.8262 53.8511 17.7329 54.7591 17.5098C55.7893 17.2568 56.7828 17.6305 57.8146 17.6978C59.4608 17.8071 61.1781 16.9052 62.1518 15.5991C63.1721 14.2288 63.2501 12.3991 62.0364 11.1266ZM60.731 15.7107C60.2075 16.1478 59.5762 16.4673 58.9167 16.6362C58.0576 16.8548 57.2437 16.65 56.387 16.5254C54.941 16.3145 53.6234 16.9144 52.169 16.7715C50.7153 16.6293 49.3091 16.1861 47.8386 16.1861C46.4645 16.1861 45.179 16.6805 43.7949 16.3993C42.5492 16.1456 41.23 15.2024 41.6466 13.7626C41.8338 13.1152 42.3191 12.5566 42.8877 12.2073C43.4762 11.845 44.2199 11.8886 44.7785 11.4881C45.3364 11.0892 45.4152 10.4197 45.4885 9.79145C45.5833 8.98286 45.8432 8.28279 46.463 7.72411C47.8616 6.46002 50.003 6.93921 50.9064 8.535C51.2121 9.0738 52.0444 8.59003 51.7387 8.04969C51.7242 8.02294 51.7035 8.00154 51.689 7.97632C51.7463 7.9404 51.7998 7.89149 51.8426 7.82347C52.7529 6.40881 54.753 5.77906 56.2746 6.58154C57.7901 7.38096 58.4046 9.28551 57.8314 10.8538C57.6488 11.3528 58.3037 11.5905 58.6354 11.3223C59.6236 10.5229 61.0566 11.2558 61.655 12.1912C62.4331 13.4034 61.7322 14.873 60.731 15.7107Z" fill="#FF6A01"/>
</g>
</svg>
