<svg width="201" height="205" viewBox="0 0 201 205" fill="none" xmlns="http://www.w3.org/2000/svg">
<g clip-path="url(#clip0_5_422)">
<path fill-rule="evenodd" clip-rule="evenodd" d="M130.989 56.7141C130.989 56.7141 127.214 51.4349 118.893 53.2712L120.901 61.8211C120.901 61.8211 119.26 76.4767 118.354 85.3595C118.354 85.3595 115.645 85.0267 113.935 79.977C113.361 78.29 114.199 74.2388 112.547 71.2319C111.055 68.512 106.912 66.825 104.846 64.61C103.124 62.7737 103.193 60.1456 102.344 57.9191C101.407 55.7587 99.8488 53.9253 97.868 52.6514C95.7678 51.2053 92.5544 51.1365 90.8903 49.1052C89.0541 46.8099 84.3601 39.6255 79.3334 39.0976C76.8774 38.8451 78.2661 44.1473 78.2661 44.1473C78.9777 46.523 80.3778 49.0937 79.7121 51.5267C78.638 55.0654 78.6061 58.8386 79.6203 62.395C80.0889 64.0612 80.9419 65.5942 82.1107 66.8708C83.2584 68.0185 84.8422 68.8907 85.8865 70.1761C87.4588 72.1041 87.4818 74.5831 87.8146 76.9128C88.595 82.215 89.8345 84.6365 93.9545 87.6893C97.9025 90.6043 99.0731 89.7206 100.944 94.3457C103.01 99.5101 108.599 101.232 114.899 100.945C115.385 100.894 115.875 100.951 116.336 101.112C116.796 101.273 117.216 101.534 117.564 101.876C117.911 102.218 118.179 102.633 118.347 103.092C118.516 103.55 118.581 104.039 118.537 104.525C118.606 106.924 121.188 124.552 122.692 126.331C124.195 128.11 124.746 124.988 123.266 114.039C121.751 102.769 122.692 101.805 123.587 102.069C126.582 102.987 129.176 102.563 131.839 98.9363C133.709 96.4 135.282 96.8475 137.979 96.2622C142.248 95.3097 142.753 90.4551 146.265 88.7336C148.962 87.4138 156.731 86.4383 159.245 80.482C161.758 74.5257 162.997 74.342 165.247 72.5288C167.496 70.7155 171.697 63.1983 169.309 62.3606C168.07 61.9245 165.029 64.2198 165.029 64.2198C162.92 65.0718 160.638 65.4101 158.372 65.2067C157.715 65.1226 157.048 65.1816 156.416 65.3797C155.784 65.5778 155.203 65.9103 154.711 66.3544C153.985 67.3446 153.137 68.2391 152.186 69.0169C149.616 70.6351 146.517 70.0039 144.153 71.186C141.789 72.3681 140.951 73.4125 137.737 77.303C136.629 78.8116 134.987 79.8415 133.147 80.1836C128.763 80.964 125.113 84.0282 122.359 87.3564C122.359 87.3564 123.816 64.0361 125.699 61.7179C127.306 59.8926 129.077 58.2177 130.989 56.7141Z" fill="#074785"/>
<path fill-rule="evenodd" clip-rule="evenodd" d="M56.0859 133.873C56.4991 128.651 60.47 122.396 65.8984 121.134C70.489 119.883 74.6779 121.547 79.2685 119.045C84.6969 116.118 87.2103 110.059 92.4321 106.926C97.2293 103.793 102.669 105.468 107.053 108.601C111.644 111.941 115.615 115.487 122.099 114.03C127.527 112.779 131.074 107.764 136.927 107.35C142.355 106.926 147.164 110.059 151.754 112.572C156.434 115.086 161.698 116.31 167.007 116.118C173.066 116.118 177.244 116.956 180.377 123.004C182.465 127.388 184.141 133.655 182.89 138.67C180.801 146.187 172.022 152.04 165.124 154.129C153.223 157.686 140.691 156.631 128.4 156.631C116.923 156.631 105.446 156.631 93.97 154.76C83.5263 153.084 71.2005 150.582 61.8357 144.936C60.066 143.943 58.6041 142.481 57.6101 140.712C56.6161 138.942 56.1285 136.934 56.2007 134.906" fill="#A089E4"/>
<path d="M51.8202 62.4177C50.9824 61.6028 49.2838 50.1148 47.7345 50.2066C46.1852 50.2984 44.8539 61.6832 44.1309 62.4406C42.6848 63.9441 32.092 65.0114 32.1723 66.4689C32.2527 67.9264 42.6619 68.615 44.1309 70.0381C44.9572 70.83 46.6787 82.3409 48.2165 82.2491C49.7544 82.1573 51.0856 70.7726 51.8316 70.0266C53.2318 68.5691 63.9049 67.4558 63.8131 65.9868C63.7213 64.5178 53.2432 63.7948 51.8202 62.4177Z" fill="#A089E4"/>
<path d="M70.3283 95.0461C69.7315 94.4723 68.5494 86.4732 67.4821 86.5306C66.4148 86.588 65.4623 94.5642 64.9573 95.0691C63.9474 96.1135 56.568 96.8595 56.6253 97.8694C56.6827 98.8793 63.9359 99.3728 64.9573 100.36C65.5311 100.911 66.7362 108.944 67.815 108.887C68.8937 108.829 69.8119 100.853 70.3283 100.36C71.3038 99.3384 78.7521 98.558 78.6832 97.5366C78.6144 96.5152 71.3153 96.0102 70.3283 95.0461Z" fill="#FD6085"/>
<path d="M179.375 89.6401C178.778 89.0663 177.596 81.0556 176.529 81.1245C175.462 81.1933 174.509 89.158 174.004 89.6515C172.994 90.6959 165.615 91.4419 165.672 92.4633C165.73 93.4847 172.983 93.9553 174.004 94.9537C174.578 95.5046 175.783 103.538 176.862 103.469C177.941 103.4 178.859 95.4357 179.375 94.9423C180.351 93.9323 187.799 93.1519 187.73 92.1305C187.661 91.1091 180.362 90.6156 179.375 89.6401Z" fill="#FD6085"/>
<path fill-rule="evenodd" clip-rule="evenodd" d="M97.1016 8.68588C101.336 3.62473 111.413 0.422797 116.818 1.31797C120.261 1.84589 121.615 3.69358 124.852 3.50995C127.652 3.0968 131.738 0.216209 135.181 0.732653C139.932 0.732653 141.883 5.40363 146.657 6.57424C151.627 7.25135 166.041 13.4601 165.777 22.848L153.153 32.4423L105.95 25.2006" fill="#FD6085"/>
<path fill-rule="evenodd" clip-rule="evenodd" d="M164.438 19.5302C160.238 14.469 151.814 23.3978 145.456 20.8729C142.839 19.5761 140.418 16.5922 138.031 16.0069C132.384 14.4002 130.066 17.43 124.466 18.2333C115.629 19.2318 111.956 10.1998 103.991 8.08812C100.147 7.07819 96.3251 6.82571 95.2233 12.6787C88.3374 49.725 139.075 75.0078 159.194 40.7962C162.143 36.3089 168.834 24.0519 164.438 19.5302Z" fill="#F9D555"/>
<path fill-rule="evenodd" clip-rule="evenodd" d="M97.9872 25.8676C98.9765 32.1995 101.988 38.0412 106.572 42.5201C109.2 44.9072 111.633 41.9921 109.303 39.9149C105.387 36.0896 102.781 31.125 101.855 25.7299C101.442 23.2051 97.6085 23.01 97.9872 25.8676Z" fill="white"/>
<path fill-rule="evenodd" clip-rule="evenodd" d="M97.463 16.1216C97.4056 16.5577 97.3597 17.0052 97.3253 17.4413C97.2658 17.9942 97.4154 18.5493 97.7446 18.9974C98.0738 19.4456 98.5588 19.7543 99.1041 19.8629C99.3515 19.8784 99.5994 19.844 99.8332 19.7617C100.067 19.6794 100.282 19.5509 100.465 19.3838C100.648 19.2168 100.796 19.0146 100.899 18.7893C101.002 18.5641 101.059 18.3203 101.067 18.0725C101.067 17.6709 101.135 17.2692 101.181 16.9249C101.236 16.4209 101.11 15.9141 100.826 15.494C100.543 15.0738 100.12 14.7676 99.6321 14.6296C99.3905 14.5692 99.1389 14.5609 98.8939 14.6051C98.6489 14.6494 98.4161 14.7453 98.211 14.8864C98.0059 15.0275 97.8331 15.2105 97.7041 15.4235C97.5752 15.6365 97.493 15.8744 97.463 16.1216Z" fill="white"/>
<path d="M145.443 126.379C145.087 126.034 144.364 121.191 143.721 121.226C143.078 121.26 142.493 126.069 142.195 126.39C141.587 127.021 137.111 127.469 137.157 128.089C137.203 128.709 141.575 128.995 142.195 129.592C142.539 129.925 143.274 134.791 143.916 134.757C144.559 134.722 145.133 129.925 145.443 129.592C146.039 128.984 150.538 128.444 150.504 127.882C150.469 127.32 146.039 126.964 145.443 126.379Z" fill="white"/>
<path d="M87.8915 127.707C87.5242 127.363 86.8127 122.519 86.1585 122.554C85.5044 122.588 84.942 127.397 84.6436 127.718C84.0239 128.35 79.5595 128.797 79.5939 129.417C79.6284 130.037 84.0239 130.323 84.6436 130.92C84.9879 131.253 85.711 136.119 86.3651 136.073C87.0193 136.027 87.5701 131.242 87.8915 130.92C88.4768 130.301 92.9871 129.773 92.9412 129.21C92.8953 128.648 88.4883 128.281 87.8915 127.707Z" fill="white"/>
<path d="M119.099 123.668C118.743 123.323 118.02 118.48 117.377 118.515C116.735 118.549 116.149 123.358 115.851 123.679C115.243 124.31 110.767 124.758 110.813 125.378C110.859 125.998 115.231 126.284 115.851 126.881C116.195 127.214 116.93 132.08 117.573 132.034C118.215 131.988 118.789 127.203 119.099 126.881C119.696 126.261 124.194 125.734 124.16 125.171C124.126 124.609 119.696 124.242 119.099 123.668Z" fill="#074785"/>
<path fill-rule="evenodd" clip-rule="evenodd" d="M195.662 135.202C197.958 133.217 201.263 130.451 200.976 127.329C200.414 120.524 190.877 125.103 188.972 125.034C185.529 124.851 190.98 115.933 187.721 114.2C181.294 110.757 177.839 120.076 178.689 125.47C179.538 132.551 181.202 141.537 173.547 145.554C168.727 148.389 161.29 149.146 155.908 149.433C150.801 149.72 148.069 147.574 143.811 145.876C140.7 144.691 137.473 143.837 134.183 143.328C127.939 142.18 120.858 142.478 114.328 142.478C102.427 142.478 88.8159 144.177 78.0395 139.036C64.1529 132.517 51.9648 130.531 38.3536 139.322C32.1104 143.006 26.441 147.827 20.7716 152.36C14.2529 157.18 1.07783 162.528 0.1138 167.956C-1.48144 176.541 20.4732 204.808 28.8051 204.326C32.7645 204.107 33.1318 203.04 38.5487 196.877C43.1393 191.678 46.8807 187.799 54.5355 186.95C59.918 186.388 64.3135 185.389 69.9829 185.389C76.8649 185.349 83.7319 184.742 90.5145 183.576C103.563 181.281 116.91 180.753 129.638 177.057C143.811 173.098 157.423 168.84 170.185 161.748C177.277 157.788 183.222 152.681 190.027 148.423C192.323 146.725 197.717 143.362 199.702 141.09C202.537 137.922 200.092 134.984 195.662 135.202Z" fill="#FFA4AC"/>
<path d="M86.2656 164.972L86.3574 164.777C86.4378 164.651 86.5066 164.456 86.6673 164.226C87.0929 163.543 87.6235 162.931 88.2396 162.413C89.1971 161.606 90.2634 160.937 91.4071 160.427C92.8837 159.752 94.4207 159.218 95.9977 158.832C97.7077 158.385 99.6013 158.017 101.587 157.685L104.651 157.237L106.212 156.996L107.841 156.766L111.135 156.307L112.822 156.078L113.672 155.963L114.532 155.883L117.975 155.584L119.72 155.435C120.305 155.435 120.867 155.332 121.487 155.309C123.782 155.217 126.17 155.102 128.476 155.033H135.672H136.074H136.889C137.439 155.033 138.036 155.033 138.495 155.137C139.551 155.217 140.561 155.274 141.525 155.286H142.248H142.604H142.948L143.637 155.206L144.279 155.079C145.098 154.94 145.879 154.636 146.575 154.184C146.89 153.975 147.173 153.72 147.413 153.427C147.64 153.147 147.822 152.833 147.952 152.497C148.199 151.846 148.285 151.146 148.204 150.454C148.204 150.294 148.204 150.11 148.204 149.938C148.204 149.766 148.136 149.651 148.101 149.502C148.019 149.221 147.904 148.951 147.757 148.698C147.468 148.252 147.098 147.862 146.667 147.551C146.029 147.094 145.358 146.688 144.658 146.334L143.924 145.933L144.704 146.231L145.645 146.621C146.071 146.793 146.482 147 146.873 147.241C147.384 147.538 147.835 147.927 148.204 148.389C148.305 148.524 148.397 148.666 148.48 148.813C148.572 148.962 148.629 149.135 148.709 149.295C148.79 149.456 148.824 149.662 148.87 149.835C148.916 150.007 148.939 150.167 148.962 150.363C149.126 151.17 149.091 152.005 148.859 152.796C148.723 153.233 148.522 153.647 148.262 154.024C147.974 154.409 147.639 154.756 147.263 155.056C146.47 155.64 145.569 156.061 144.612 156.296C144.36 156.365 144.119 156.445 143.866 156.491L143.12 156.606H142.73H142.351H141.583C140.55 156.606 139.494 156.606 138.438 156.606H136.866H135.259C133.078 156.606 130.818 156.744 128.534 156.778L121.648 157.099C121.062 157.099 120.5 157.18 119.915 157.214L118.193 157.352L114.75 157.604L113.901 157.673L113.052 157.776L111.365 157.96L108.06 158.327L106.453 158.511L104.846 158.695L101.782 158.993C99.8079 159.222 97.9372 159.452 96.2387 159.773C95.3895 159.934 94.5861 160.118 93.8287 160.324C93.1062 160.505 92.3937 160.723 91.694 160.978C90.5588 161.385 89.4792 161.932 88.4806 162.608C87.8361 163.045 87.2598 163.575 86.7706 164.18C86.587 164.387 86.4837 164.57 86.3919 164.685C86.3407 164.777 86.2985 164.873 86.2656 164.972Z" fill="#074785"/>
<path d="M176.703 143.285L176.864 143.112C176.967 142.998 177.116 142.826 177.323 142.63L178.057 141.907L178.516 141.483L179.067 141.047L180.341 140.094C180.8 139.75 181.305 139.463 181.822 139.142C182.338 138.82 182.889 138.499 183.474 138.223C184.06 137.948 184.622 137.65 185.219 137.374C185.815 137.099 186.424 136.881 187.021 136.663C187.617 136.445 188.226 136.249 188.799 136.066C189.373 135.882 189.947 135.722 190.498 135.607C191.049 135.492 191.554 135.377 192.036 135.285L192.724 135.159L193.356 135.079L194.377 134.976C194.664 134.976 194.882 134.976 195.043 134.976H195.272L195.066 135.09C194.928 135.159 194.733 135.274 194.48 135.389C194.228 135.503 193.918 135.676 193.551 135.836C193.183 135.997 192.793 136.169 192.403 136.387L190.991 137.007C190.486 137.213 189.97 137.466 189.419 137.696C188.868 137.925 188.271 138.155 187.744 138.407C187.216 138.66 186.596 138.912 186.022 139.153C185.448 139.394 184.874 139.681 184.301 139.922C184.025 140.048 183.727 140.152 183.463 140.289L182.648 140.668C182.109 140.92 181.569 141.127 181.087 141.368C180.605 141.609 180.146 141.816 179.71 142.011L179.079 142.286L178.516 142.562L177.587 142.998L176.967 143.25L176.703 143.285Z" fill="#074785"/>
<path d="M179.672 133.357C179.676 133.303 179.676 133.25 179.672 133.196C179.672 133.093 179.752 132.944 179.821 132.749C179.895 132.518 179.991 132.295 180.108 132.083C180.168 131.941 180.237 131.803 180.315 131.67L180.567 131.245C180.766 130.926 180.984 130.619 181.221 130.327C181.484 130.003 181.764 129.693 182.059 129.397C182.369 129.078 182.698 128.779 183.046 128.502C183.39 128.204 183.78 127.951 184.194 127.676C184.607 127.4 184.963 127.182 185.341 126.976C185.72 126.769 186.133 126.574 186.489 126.391L187.637 125.943C188.015 125.828 188.36 125.713 188.692 125.633C189.228 125.493 189.772 125.389 190.322 125.323H190.793H190.965L190.827 125.438L190.46 125.725L189.886 126.15L189.14 126.666L188.268 127.263L187.281 127.905L185.181 129.294L184.125 130.006L183.62 130.35L183.126 130.706L182.197 131.383C181.898 131.601 181.611 131.808 181.37 132.014C181.129 132.221 181.106 132.209 180.992 132.301L180.67 132.565C180.464 132.726 180.269 132.863 180.119 133.001C179.97 133.139 179.833 133.231 179.752 133.299L179.672 133.357Z" fill="#074785"/>
<path fill-rule="evenodd" clip-rule="evenodd" d="M187.852 122.614C188.173 119.802 189.952 115.326 187.737 114.155C186.964 113.718 186.099 113.467 185.212 113.421C184.845 114.569 184.489 115.716 184.064 116.864C183.64 118.356 183.009 120.307 184.133 121.684C184.64 122.114 185.239 122.422 185.884 122.583C186.529 122.744 187.202 122.755 187.852 122.614Z" fill="#074785"/>
<path fill-rule="evenodd" clip-rule="evenodd" d="M191.849 131.521C190.702 135.216 192.997 135.629 195.774 135.101C198.07 133.127 201.26 130.396 200.973 127.332C200.941 126.475 200.653 125.648 200.147 124.956C198.601 125.604 197.109 126.372 195.682 127.251C194.774 127.646 193.961 128.231 193.3 128.968C192.638 129.705 192.144 130.575 191.849 131.521Z" fill="#074785"/>
<path fill-rule="evenodd" clip-rule="evenodd" d="M200.025 136.444C196.926 137.385 192.818 139.75 192.439 142.894C192.307 143.455 192.325 144.04 192.49 144.592C192.655 145.144 192.962 145.643 193.38 146.039C195.651 144.593 197.77 142.92 199.704 141.046C201.322 139.279 201.218 137.558 200.025 136.444Z" fill="#074785"/>
<path fill-rule="evenodd" clip-rule="evenodd" d="M148.678 151.443C145.866 150.238 142.687 148.953 139.6 150.055C138.314 150.571 137.22 151.473 136.467 152.637C135.62 153.939 135.086 155.42 134.906 156.964C140.645 158.501 145.912 158.215 148.54 156.964C149.55 156.505 150.973 155.816 151.341 154.668C151.903 152.981 149.975 151.971 148.678 151.443Z" fill="#074785"/>
<path fill-rule="evenodd" clip-rule="evenodd" d="M137.352 107.28C142.78 106.856 147.589 109.989 152.179 112.502C156.858 115.018 162.123 116.242 167.432 116.048C173.491 116.048 177.669 116.886 180.802 122.934C182.89 127.318 184.566 133.584 183.304 138.6C181.215 146.128 169.761 147.781 162.921 148.722" fill="#A089E4"/>
<path d="M171.63 127.707C171.274 127.363 170.563 122.519 169.909 122.554C169.254 122.588 168.692 127.397 168.382 127.718C167.774 128.35 163.31 128.797 163.344 129.417C163.378 130.037 167.774 130.323 168.382 130.92C168.738 131.253 169.461 136.119 170.115 136.073C170.769 136.027 171.32 131.242 171.641 130.92C172.227 130.301 176.726 129.773 176.691 129.21C176.657 128.648 172.227 128.281 171.63 127.707Z" fill="#074785"/>
<path fill-rule="evenodd" clip-rule="evenodd" d="M156.86 137.53C156.468 137.564 156.102 137.743 155.836 138.034C155.57 138.324 155.422 138.703 155.422 139.097C155.422 139.491 155.57 139.87 155.836 140.16C156.102 140.45 156.468 140.63 156.86 140.663C157.252 140.63 157.618 140.45 157.884 140.16C158.15 139.87 158.298 139.491 158.298 139.097C158.298 138.703 158.15 138.324 157.884 138.034C157.618 137.743 157.252 137.564 156.86 137.53Z" fill="white"/>
<path fill-rule="evenodd" clip-rule="evenodd" d="M133.837 116.476C133.444 116.509 133.079 116.689 132.812 116.979C132.546 117.269 132.398 117.648 132.398 118.042C132.398 118.436 132.546 118.815 132.812 119.105C133.079 119.395 133.444 119.575 133.837 119.609C134.229 119.575 134.594 119.395 134.861 119.105C135.127 118.815 135.275 118.436 135.275 118.042C135.275 117.648 135.127 117.269 134.861 116.979C134.594 116.689 134.229 116.509 133.837 116.476Z" fill="white"/>
<path fill-rule="evenodd" clip-rule="evenodd" d="M105.54 133.722C105.147 133.755 104.782 133.935 104.516 134.225C104.249 134.515 104.102 134.894 104.102 135.288C104.102 135.682 104.249 136.061 104.516 136.351C104.782 136.642 105.147 136.821 105.54 136.855C105.932 136.821 106.297 136.642 106.564 136.351C106.83 136.061 106.978 135.682 106.978 135.288C106.978 134.894 106.83 134.515 106.564 134.225C106.297 133.935 105.932 133.755 105.54 133.722Z" fill="white"/>
<path fill-rule="evenodd" clip-rule="evenodd" d="M96.9225 113.409C96.5301 113.443 96.1647 113.622 95.8984 113.912C95.6321 114.203 95.4844 114.582 95.4844 114.976C95.4844 115.369 95.6321 115.749 95.8984 116.039C96.1647 116.329 96.5301 116.509 96.9225 116.542C97.3148 116.509 97.6802 116.329 97.9465 116.039C98.2128 115.749 98.3605 115.369 98.3605 114.976C98.3605 114.582 98.2128 114.203 97.9465 113.912C97.6802 113.622 97.3148 113.443 96.9225 113.409Z" fill="white"/>
<path fill-rule="evenodd" clip-rule="evenodd" d="M69.5006 126.425C69.1083 126.458 68.7428 126.638 68.4765 126.928C68.2102 127.218 68.0625 127.598 68.0625 127.991C68.0625 128.385 68.2102 128.765 68.4765 129.055C68.7428 129.345 69.1083 129.524 69.5006 129.558C69.8929 129.524 70.2583 129.345 70.5246 129.055C70.7909 128.765 70.9387 128.385 70.9387 127.991C70.9387 127.598 70.7909 127.218 70.5246 126.928C70.2583 126.638 69.8929 126.458 69.5006 126.425Z" fill="white"/>
<path fill-rule="evenodd" clip-rule="evenodd" d="M69.5617 142.019C63.5824 139.482 57.1097 139.494 50.8091 140.63C44.4984 141.7 38.5205 144.213 33.3418 147.975C32.8123 148.297 32.4289 148.812 32.2725 149.412C32.1162 150.012 32.1992 150.649 32.504 151.188C32.6547 151.46 32.859 151.698 33.1043 151.888C33.3497 152.078 33.6311 152.217 33.9314 152.295C34.2318 152.373 34.545 152.39 34.852 152.344C35.1589 152.297 35.4534 152.189 35.7174 152.026C40.1656 148.795 45.2519 146.549 50.6369 145.439C55.9161 144.291 62.1135 143.924 67.1402 146.081C67.683 146.376 68.3182 146.453 68.9156 146.295C69.513 146.137 70.0274 145.757 70.3536 145.232C70.6714 144.7 70.7665 144.064 70.6182 143.463C70.4699 142.861 70.0903 142.342 69.5617 142.019Z" fill="white"/>
<path fill-rule="evenodd" clip-rule="evenodd" d="M77.4562 144.558H76.5266C75.9042 144.558 75.3072 144.805 74.8671 145.245C74.427 145.685 74.1797 146.282 74.1797 146.905C74.1797 147.527 74.427 148.124 74.8671 148.564C75.3072 149.004 75.9042 149.252 76.5266 149.252H77.4677C78.0902 149.252 78.6871 149.004 79.1273 148.564C79.5674 148.124 79.8147 147.527 79.8147 146.905C79.8147 146.282 79.5674 145.685 79.1273 145.245C78.6871 144.805 78.0902 144.558 77.4677 144.558H77.4562Z" fill="white"/>
<path fill-rule="evenodd" clip-rule="evenodd" d="M163.118 68.5242C161.396 69.2013 159.48 69.5915 158.057 70.8195C156.749 72.213 155.58 73.7314 154.568 75.3528C151.997 78.7957 147.544 78.7268 144.021 80.6204C140.498 82.5141 139.327 87.2998 135.414 88.654C133.864 89.2049 132.074 89.0098 130.467 89.2853C129.739 89.4124 129.047 89.6944 128.437 90.1121C127.827 90.5299 127.314 91.0737 126.932 91.7068C126.381 92.5561 127.759 93.3135 128.298 92.4757C129.446 90.8001 131.167 90.7083 132.981 90.5936C134.444 90.5603 135.883 90.2037 137.192 89.5492C140.463 87.7818 141.657 83.8109 144.836 81.9173C148.015 80.0237 151.722 80.1385 154.522 77.7054C155.695 76.5063 156.724 75.1735 157.586 73.7345C159.158 71.531 161.213 70.9343 163.6 69.9932C164.484 69.6604 164.059 68.1455 163.118 68.5242Z" fill="#29AEFD"/>
<path fill-rule="evenodd" clip-rule="evenodd" d="M113.65 92.0618C109.174 92.0618 108.325 87.4023 107.407 83.9364C106.895 81.705 105.921 79.6057 104.549 77.7735C103.034 75.9258 100.693 74.9962 99.2811 73.0222C98.0802 71.0391 97.0915 68.9349 96.3317 66.7446C95.3834 64.6278 93.999 62.7349 92.269 61.1899C91.1808 60.2608 90.2976 59.1157 89.6753 57.8273C89.257 56.6377 88.9007 55.4272 88.608 54.2007C87.9094 51.9342 86.6317 49.889 84.901 48.2673C84.1665 47.5787 83.0533 48.6805 83.7534 49.415C85.7348 51.4299 87.0866 53.9781 87.6439 56.7485C88.3121 59.0711 89.6589 61.1412 91.5115 62.6933C93.4522 64.649 94.91 67.0303 95.7693 69.6481C96.4922 71.7856 97.6664 73.7426 99.2123 75.3864C101.003 77.1423 103.149 78.1293 104.354 80.4475C105.335 82.7124 106.104 85.0638 106.649 87.4712C107.693 90.9141 109.702 93.6685 113.535 93.6571C113.747 93.6723 113.955 93.6028 114.116 93.464C114.276 93.3252 114.375 93.1283 114.39 92.9168C114.405 92.7052 114.336 92.4963 114.197 92.336C114.058 92.1756 113.861 92.077 113.65 92.0618Z" fill="#29AEFD"/>
<path d="M112.701 25.4176C112.82 25.9288 112.855 26.456 112.804 26.9784C112.689 29.4574 111.725 34.1053 115.26 34.6333C117.9 35.0349 118.634 30.8002 119.002 29.0328C119.113 27.9924 119.392 26.9769 119.828 26.0259C120.287 25.3258 121.48 25.5668 122.054 26.1407C122.628 26.7145 122.353 28.3097 122.192 29.0442C121.767 31.4302 120.857 33.7035 119.518 35.7235C118.118 37.6975 115.157 38.0188 113.137 37.0089C112.093 36.4406 111.223 35.6011 110.617 34.579C110.011 33.5569 109.692 32.3901 109.694 31.2018C109.637 30.2263 109.281 24.3159 111.255 24.4192C111.575 24.3888 111.895 24.4723 112.16 24.655C112.424 24.8376 112.616 25.1077 112.701 25.4176Z" fill="#074785"/>
<path d="M142.341 29.2508C142.455 29.7628 142.49 30.2891 142.445 30.8116C142.33 33.2906 141.366 37.9386 144.901 38.478C147.529 38.8682 148.275 34.6333 148.63 32.8659C148.748 31.8232 149.027 30.805 149.457 29.8476C149.916 29.159 151.109 29.4 151.695 29.9738C152.28 30.5476 151.982 32.1429 151.832 32.8774C151.408 35.2652 150.493 37.5394 149.147 39.5568C147.758 41.5422 144.797 41.8521 142.777 40.8421C141.731 40.2767 140.859 39.4378 140.252 38.4151C139.646 37.3923 139.329 36.224 139.334 35.035C139.266 34.0595 138.91 28.149 140.884 28.2523C141.206 28.2191 141.529 28.3013 141.796 28.4842C142.063 28.667 142.256 28.9387 142.341 29.2508Z" fill="#074785"/>
<path fill-rule="evenodd" clip-rule="evenodd" d="M134.149 44.2633C132.666 42.8796 130.823 41.943 128.831 41.5613C126.839 41.1796 124.78 41.3683 122.891 42.1057C122.315 40.9994 121.832 39.8479 121.445 38.6627C121.348 38.2993 121.352 37.9164 121.457 37.5552C121.562 37.194 121.763 36.8684 122.04 36.6133C122.316 36.3582 122.657 36.1834 123.025 36.1077C123.393 36.032 123.776 36.0583 124.13 36.1838C125.226 37.7151 126.847 38.7896 128.684 39.2023C130.521 39.615 132.446 39.3372 134.092 38.4218C134.425 38.2152 134.539 37.7216 134.746 37.3659" fill="#074785"/>
<path fill-rule="evenodd" clip-rule="evenodd" d="M133.393 45.0672C134.818 43.6152 135.921 41.8789 136.629 39.9716C137.432 37.2975 134.954 37.3664 134.954 37.3664L132.383 37.7566" fill="#074785"/>
<path fill-rule="evenodd" clip-rule="evenodd" d="M134.955 37.3647C134.769 37.7879 134.471 38.1528 134.094 38.4206C131.088 40.4289 126.061 39.2698 124.133 36.1826L134.955 37.3647Z" fill="white"/>
<path fill-rule="evenodd" clip-rule="evenodd" d="M122.891 42.1069C124.78 41.3695 126.839 41.1808 128.831 41.5625C130.823 41.9442 132.666 42.8809 134.149 44.2645C132.864 46.0204 130.408 46.6631 127.676 45.7794C125.659 45.2346 123.939 43.9146 122.891 42.1069Z" fill="#FD6085"/>
</g>
<defs>
<clipPath id="clip0_5_422">
<rect width="201" height="203.651" fill="white" transform="translate(0 0.674805)"/>
</clipPath>
</defs>
</svg>
