<svg width="191" height="171" viewBox="0 0 191 171" fill="none" xmlns="http://www.w3.org/2000/svg">
<g clip-path="url(#clip0_5_356)">
<path fill-rule="evenodd" clip-rule="evenodd" d="M164.561 61.6904L163.821 61.2004C164.091 60.7604 164.351 60.3604 164.591 59.9604C167.097 56.024 168.41 51.4465 168.371 46.7804C168.181 36.6704 163.751 28.6404 155.901 22.4504C151.416 18.8676 145.87 16.8735 140.131 16.7804C133.641 16.6204 128.021 18.9804 122.931 22.7804C122.591 23.0204 122.281 23.2904 122.071 23.4604C120.771 20.1404 119.671 16.8404 118.211 13.7204C115.976 8.52957 111.819 4.40494 106.611 2.21038C102.754 0.736518 98.66 -0.0192691 94.531 -0.0196311C83.761 -0.319631 75.601 5.20038 71.921 15.3204C71.541 16.3204 71.211 17.4104 70.831 18.5204C66.806 15.3327 62.0114 13.2631 56.931 12.5204C50.361 11.5204 44.151 12.5804 38.751 16.5904C31.751 21.7904 28.811 29.1404 28.331 37.5904C28.211 39.5904 28.441 41.5004 28.511 43.3704C26.691 43.4204 24.821 43.3704 22.991 43.5404C9.761 45.0504 0.341001 57.4704 -0.00899913 70.0704C-0.208999 77.7204 4.15101 85.1604 8.69101 91.1904C7.53101 94.7904 5.63101 100.02 5.69101 103.8C5.92101 113.93 10.051 121.8 19.201 126.64C24.3848 129.225 30.0709 130.644 35.861 130.8C40.855 131.13 45.8163 129.786 49.961 126.98C50.031 126.92 50.161 126.98 50.281 126.93L51.011 128.53C53.231 133.24 56.201 137.35 60.741 140.06C67.511 144.11 74.551 143.92 81.631 140.98C86.8505 138.746 91.34 135.095 94.591 130.44C95.051 131.23 95.421 131.89 95.821 132.54C98.261 136.44 100.981 140.15 105.141 142.32C113.751 146.81 122.401 146.21 130.821 141.85C136.531 138.85 139.971 133.85 142.371 128.04C143.451 125.43 144.371 122.74 145.371 120.11C146.941 120.46 148.491 120.9 150.071 121.11C151.688 121.365 153.324 121.486 154.961 121.47C172.421 121.15 182.361 108.11 182.471 94.1704C182.581 80.2304 176.351 69.3204 164.561 61.6904Z" fill="#FFA4AC"/>
<path d="M10.7772 78.5606C9.49651 76.6393 8.65974 74.457 8.32763 72.1721C7.99553 69.8871 8.17644 67.5569 8.85723 65.3506C9.54723 62.8006 5.54723 61.9006 4.85723 64.4506C4.06026 67.174 3.86569 70.0382 4.28704 72.8444C4.7084 75.6505 5.73558 78.3313 7.29724 80.7006C8.73724 82.9106 12.2172 80.7706 10.7772 78.5606Z" fill="white"/>
<path d="M15.384 83.4994L14.584 82.7594C14.1862 82.3894 13.6577 82.1926 13.1148 82.2123C12.5718 82.232 12.059 82.4665 11.689 82.8644C11.3191 83.2622 11.1223 83.7907 11.142 84.3336C11.1617 84.8765 11.3962 85.3894 11.794 85.7594L12.594 86.5094C12.9918 86.8794 13.5203 87.0761 14.0632 87.0564C14.6062 87.0367 15.119 86.8022 15.489 86.4044C15.859 86.0065 16.0558 85.478 16.0361 84.9351C16.0164 84.3922 15.7819 83.8794 15.384 83.5094V83.4994Z" fill="white"/>
<path d="M16.7997 25.8304C16.2897 25.3304 15.2597 18.3604 14.3197 18.4104C13.3797 18.4604 12.5597 25.4104 12.1297 25.8504C11.2497 26.7604 4.80966 27.4104 4.85966 28.2904C4.90966 29.1704 11.2397 29.6004 12.1297 30.4604C12.6297 30.9404 13.6697 37.9404 14.6097 37.8904C15.5497 37.8404 16.3497 30.8904 16.8097 30.4604C17.6597 29.5704 24.1396 28.8904 24.0896 28.0004C24.0396 27.1104 17.6597 26.6704 16.7997 25.8304Z" fill="#29AEFD"/>
<path d="M183.487 58.7876C182.967 58.2876 181.937 51.3076 181.007 51.3676C180.077 51.4276 179.247 58.3676 178.807 58.7976C177.927 59.7076 171.497 60.3576 171.547 61.2476C171.597 62.1376 177.917 62.5476 178.807 63.4076C179.307 63.8976 180.357 70.8876 181.297 70.8376C182.237 70.7876 183.037 63.8376 183.487 63.4076C184.337 62.5276 190.827 61.8476 190.767 60.9576C190.707 60.0676 184.347 59.6176 183.487 58.7876Z" fill="#29AEFD"/>
<path d="M109.859 8.3783C107.279 5.2383 103.119 3.8883 99.2093 3.3783C96.5793 3.0483 96.3094 7.13831 98.9194 7.45831C101.769 7.80831 104.919 8.7383 106.759 11.0283C108.409 13.0983 111.499 10.4383 109.859 8.3783Z" fill="white"/>
<path d="M44.2723 21.2715C46.5723 19.7715 50.0323 17.9515 52.7423 19.3415C55.0924 20.5515 56.7424 16.7915 54.3924 15.5915C50.3124 13.4915 45.3924 15.6715 41.8724 17.9515C39.6524 19.4415 42.0723 22.7015 44.2723 21.2715Z" fill="white"/>
<path d="M35.3165 25.5486C35.2419 26.0851 35.3817 26.6294 35.7055 27.0636C36.0293 27.4978 36.511 27.787 37.0465 27.8686C37.3085 27.9095 37.5761 27.8978 37.8336 27.8343C38.0912 27.7708 38.3335 27.6567 38.5465 27.4986C38.8088 27.2962 39.0441 27.061 39.2465 26.7986C39.4451 26.5193 39.6159 26.2212 39.7565 25.9086C39.9753 25.4114 39.9876 24.8475 39.7907 24.3412C39.5938 23.8348 39.2037 23.4274 38.7064 23.2086C38.2092 22.9898 37.6453 22.9775 37.139 23.1744C36.6326 23.3714 36.2253 23.7614 36.0065 24.2586V24.3486C35.6443 24.6565 35.4004 25.0807 35.3165 25.5486Z" fill="white"/>
<path d="M160.576 35.3792C158.776 30.3792 153.996 26.1792 149.336 23.8292C146.996 22.6392 144.856 26.1392 147.206 27.3292C149.141 28.3256 150.93 29.5805 152.526 31.0592C154.291 32.4904 155.689 34.3208 156.606 36.3992C157.486 38.8692 161.466 37.8692 160.576 35.3792Z" fill="white"/>
<path d="M162.698 43.308C162.65 42.3776 162.398 41.4692 161.958 40.6481C161.826 40.413 161.65 40.2061 161.439 40.0392C161.227 39.8723 160.985 39.7486 160.726 39.6752C160.467 39.6019 160.196 39.5802 159.929 39.6116C159.661 39.643 159.403 39.7267 159.168 39.858C158.933 39.9894 158.726 40.1657 158.559 40.377C158.392 40.5883 158.268 40.8304 158.195 41.0894C158.121 41.3485 158.1 41.6195 158.131 41.8869C158.163 42.1544 158.246 42.413 158.378 42.6481C158.41 42.7017 158.437 42.7587 158.458 42.8181C158.525 43.0175 158.578 43.2213 158.618 43.4281C158.632 43.9691 158.861 44.4822 159.254 44.8544C159.647 45.2267 160.172 45.4276 160.713 45.4131C161.254 45.3985 161.767 45.1695 162.139 44.7767C162.511 44.3838 162.712 43.8591 162.698 43.3181V43.308Z" fill="white"/>
<path d="M127.109 102.231C125.199 100.411 122.299 103.301 124.209 105.131C125.577 106.247 126.503 107.814 126.819 109.551C126.883 110.361 126.707 111.172 126.314 111.883C125.921 112.594 125.328 113.174 124.609 113.551C123.384 114.094 122.108 114.513 120.799 114.801C119.211 115.23 117.756 116.052 116.569 117.191C115.425 118.562 114.793 120.286 114.779 122.071C114.619 123.731 114.849 125.441 113.879 126.891C112.309 129.231 107.879 128.551 105.639 127.951C103.079 127.271 101.999 131.221 104.549 131.901C108.249 132.901 112.749 133.031 115.919 130.561C116.729 129.893 117.394 129.065 117.87 128.13C118.347 127.194 118.625 126.17 118.689 125.121C118.859 123.511 118.449 121.121 119.689 119.851C120.769 118.771 122.689 118.521 124.079 118.111C125.903 117.661 127.561 116.7 128.859 115.341C132.529 111.151 130.699 105.681 127.109 102.231Z" fill="#FD6085"/>
<path d="M169.789 93.9906C169.558 93.8488 169.301 93.7553 169.033 93.7157C168.765 93.6762 168.492 93.6915 168.23 93.7607C167.969 93.8299 167.724 93.9516 167.51 94.1183C167.297 94.285 167.12 94.4933 166.989 94.7306C165.989 97.1106 162.799 97.6806 160.449 97.3606C157.289 96.9306 155.149 93.8606 152.449 92.3606C148.709 90.3606 145.179 92.3606 141.289 92.1806C138.899 92.0506 135.799 88.4706 136.289 86.0806C136.849 83.5106 132.909 82.4106 132.289 84.9906C131.389 89.1106 134.159 92.8706 137.459 94.9906C139.431 96.166 141.774 96.5519 144.019 96.0706C146.079 95.7506 148.319 94.8706 150.309 95.8606C152.099 96.7506 153.549 98.2706 155.159 99.4406C156.803 100.636 158.759 101.331 160.789 101.441C164.369 101.711 168.909 100.301 170.439 96.7606C170.696 96.301 170.771 95.7621 170.651 95.2496C170.531 94.7371 170.223 94.288 169.789 93.9906Z" fill="#FD6085"/>
<path d="M107.695 107.379C107.368 107.964 106.926 108.476 106.397 108.887C105.868 109.297 105.262 109.597 104.615 109.769C103.501 109.872 102.379 109.704 101.345 109.279C98.7147 108.469 96.2647 107.279 93.4647 107.199C90.2047 107.149 86.6847 109.549 83.4647 108.199C82.3926 107.636 81.4792 106.813 80.8082 105.804C80.1373 104.796 79.7303 103.636 79.6247 102.429C79.7047 99.7892 75.6247 99.7892 75.5347 102.429C75.4247 105.909 77.9747 109.319 80.6447 111.289C84.3647 114.039 88.8147 111.889 92.8147 111.349C95.8147 110.939 98.9047 113.039 101.815 113.659C105.815 114.529 108.995 112.779 111.215 109.469C112.705 107.249 109.155 105.199 107.695 107.379Z" fill="#FD6085"/>
<path d="M39.1594 47.6818C37.502 47.6092 35.8445 47.8223 34.2594 48.3118C32.7585 48.9208 31.3975 49.8293 30.2594 50.9818C29.0494 52.1218 28.0194 53.5618 26.5594 54.4018C25.3694 55.0918 23.6694 54.7318 22.3594 54.6718C19.6294 54.5318 16.8494 54.5118 14.3594 55.6718C11.3594 57.1118 10.3594 60.6718 10.3594 63.6718C10.3594 66.3118 14.4194 66.3118 14.4594 63.6718C14.4594 61.4118 15.0093 59.5618 17.0793 58.9418C19.1493 58.3218 21.6794 58.6618 23.8894 58.7618C25.4179 58.8714 26.9504 58.6143 28.3594 58.0118C29.7628 57.2636 31.0036 56.2438 32.0094 55.0118C32.9565 53.9059 34.082 52.9662 35.3394 52.2318C36.5617 51.7772 37.8706 51.6029 39.1694 51.7218C41.7994 51.7618 41.7994 47.6618 39.1594 47.6818Z" fill="#FD6085"/>
<path d="M115.79 33.4407C113.02 33.2707 110.14 33.5507 107.93 35.4407C106.959 36.3463 106.159 37.4203 105.571 38.6107C105.051 39.6107 104.48 40.7307 103.41 41.1507C102.169 41.5281 100.903 41.8155 99.6205 42.0107C98.2424 42.346 96.9681 43.0158 95.9105 43.9607C93.5105 46.0107 93.5305 49.4007 93.5405 52.2807C93.5405 54.9107 97.6405 54.9207 97.6305 52.2807C97.6305 50.1607 97.3405 47.7007 99.4005 46.4407C100.284 46.0061 101.24 45.7383 102.22 45.6507C103.427 45.4407 104.603 45.0812 105.72 44.5807C107.72 43.6307 108.72 41.1907 109.86 39.4107C111.13 37.4107 113.68 37.4107 115.79 37.5807C118.43 37.6707 118.41 33.5707 115.79 33.4407Z" fill="#FD6085"/>
<path d="M80.5107 33.1986C79.6797 32.4053 78.6384 31.8674 77.5107 31.6486C76.4507 31.4586 75.3707 31.5286 74.3107 31.3086C72.5107 30.9286 71.5707 29.3086 70.3607 28.0986C66.5607 24.2186 61.2606 23.8786 56.5906 26.3286C54.2506 27.5486 56.3206 31.0786 58.6606 29.8586C60.2614 28.9206 62.1464 28.5904 63.9706 28.9286C65.7799 29.4808 67.3665 30.5946 68.5007 32.1086C69.4646 33.345 70.7277 34.3155 72.1707 34.9286C73.0868 35.2525 74.0418 35.4542 75.0107 35.5286C75.9207 35.6286 76.9206 35.4486 77.6506 36.0886C79.5806 37.8386 82.4907 34.9586 80.5107 33.1986Z" fill="#FD6085"/>
<path d="M102.108 25.3192C100.858 19.0192 93.4379 14.8192 87.5679 13.8792C87.0446 13.7483 86.4909 13.8238 86.0217 14.09C85.5526 14.3562 85.2038 14.7928 85.0478 15.3092C84.9064 15.8329 84.9772 16.3913 85.2449 16.8631C85.5127 17.3349 85.9557 17.6821 86.4778 17.8292C90.9878 18.5492 97.1778 21.4592 98.1578 26.4092C98.6678 28.9992 102.618 27.8992 102.108 25.3192Z" fill="#FD6085"/>
<path d="M50.4125 71.1806C49.1625 64.8706 41.7426 60.6806 35.8726 59.7406C35.3491 59.6071 34.7943 59.6815 34.3245 59.9481C33.8547 60.2147 33.5064 60.6528 33.3525 61.1706C33.2111 61.6943 33.2819 62.2527 33.5496 62.7245C33.8174 63.1963 34.2604 63.5435 34.7825 63.6906C39.2925 64.4106 45.4825 67.3106 46.4625 72.2706C46.9725 74.8606 50.9225 73.7606 50.4125 71.1806Z" fill="#FD6085"/>
<path d="M153.304 62.5889C151.084 62.7889 148.034 62.0389 148.694 59.1589C149.034 57.6789 149.934 56.3889 150.294 54.9089C150.641 53.2958 150.426 51.6127 149.684 50.1389C148.554 47.7289 145.684 47.3589 143.424 46.7389C142.564 46.4989 141.264 46.0389 141.164 44.9889C141.024 43.5589 142.004 42.0789 142.694 40.9089C144.044 38.6389 140.494 36.5789 139.154 38.8489C137.304 41.9789 135.864 45.8489 138.814 48.8489C140.06 49.9293 141.579 50.6486 143.204 50.9289C144.044 51.1289 145.484 51.2289 146.004 51.9789C146.914 53.2889 146.004 54.9789 145.464 56.1989C144.598 57.9056 144.35 59.8601 144.764 61.7289C145.644 65.4689 149.844 67.0189 153.304 66.7289C155.864 66.4389 155.934 62.3489 153.304 62.5889Z" fill="#FD6085"/>
<path d="M47.6705 86.6894C46.4905 84.3294 42.9606 86.3994 44.1306 88.7594C45.1306 90.7594 40.5605 92.2994 39.3105 92.7594C38.2223 93.1098 37.228 93.7034 36.4033 94.4952C35.5785 95.2871 34.9449 96.2563 34.5505 97.3294C33.9005 99.0194 33.3905 101.179 31.5505 101.799C29.1605 102.599 27.3105 101.899 26.4305 99.5394C25.5505 97.1794 21.5605 98.1494 22.4805 100.629C23.7505 104.039 26.1106 106.239 29.8906 106.189C31.5056 106.222 33.092 105.761 34.4377 104.867C35.7834 103.974 36.824 102.691 37.4205 101.189C37.9605 99.9594 38.3205 98.2894 39.2505 97.3494C39.9105 96.6694 41.6105 96.2494 42.6605 95.7894C46.2505 94.2294 49.7605 90.9294 47.6705 86.6894Z" fill="#FD6085"/>
<path d="M64.272 111.021C61.522 107.221 57.692 105.271 53.522 103.371C53.0513 103.108 52.4971 103.037 51.9753 103.173C51.4535 103.309 51.0044 103.642 50.722 104.101C50.4508 104.571 50.3753 105.13 50.5118 105.655C50.6484 106.181 50.9861 106.632 51.4521 106.911C54.8621 108.451 58.452 109.911 60.732 113.091C61.0127 113.552 61.4618 113.886 61.9843 114.023C62.5068 114.159 63.0619 114.087 63.532 113.821C63.999 113.546 64.3386 113.097 64.4772 112.573C64.6157 112.049 64.5419 111.491 64.272 111.021Z" fill="#FD6085"/>
<path d="M170.671 83.8381C170.371 80.2881 168.981 76.4281 166.241 74.0181C164.241 72.2781 161.36 75.1681 163.35 76.9181C165.244 78.7461 166.392 81.2121 166.571 83.8381C166.791 86.4381 170.861 86.4381 170.671 83.8381Z" fill="#FD6085"/>
<path d="M35.2596 81.8799C34.2596 78.4599 32.1195 74.9598 28.9595 73.1498C26.6795 71.8398 24.3996 75.2498 26.6996 76.5598C28.921 77.976 30.5412 80.1625 31.2495 82.6999C31.9895 85.2199 35.9996 84.4399 35.2596 81.8799Z" fill="#FD6085"/>
<path d="M174.708 95.7824C175.018 98.4524 175.088 100.602 173.708 102.992C172.328 105.382 175.818 107.472 177.168 105.192C178.108 103.665 178.734 101.965 179.008 100.192C179.154 98.429 179.07 96.654 178.758 94.9124C178.418 92.3124 174.418 93.1824 174.708 95.7824Z" fill="white"/>
<path d="M9.63134 104.888C9.09556 104.974 8.6154 105.268 8.29522 105.706C7.97504 106.144 7.84067 106.691 7.92132 107.228C8.41715 109.468 9.38911 111.576 10.7713 113.408C12.3913 115.508 15.5913 112.948 13.9813 110.858C13.021 109.595 12.3393 108.143 11.9813 106.598C11.888 106.063 11.5907 105.586 11.1522 105.267C10.7137 104.948 10.1684 104.812 9.63134 104.888Z" fill="white"/>
<path fill-rule="evenodd" clip-rule="evenodd" d="M177.857 140.111C178.577 152.111 174.937 162.021 169.727 162.331L26.9573 170.941C21.7473 171.251 16.9573 161.811 16.2173 149.851L15.5674 139.031C14.8474 127.031 18.4874 117.111 23.6974 116.801L166.417 108.191C171.627 107.881 176.417 117.321 177.157 129.281L177.857 140.111Z" fill="#A089E4"/>
<path fill-rule="evenodd" clip-rule="evenodd" d="M143.968 149.971C144.006 150.631 143.781 151.279 143.343 151.774C142.904 152.268 142.288 152.569 141.628 152.611L56.6277 157.741C55.9676 157.779 55.3193 157.554 54.8245 157.116C54.3298 156.677 54.0289 156.06 53.9877 155.401L52.2776 127.091C52.2393 126.431 52.464 125.782 52.9026 125.287C53.3411 124.793 53.9578 124.492 54.6177 124.451L139.618 119.321C140.278 119.282 140.926 119.507 141.421 119.946C141.916 120.384 142.216 121.001 142.258 121.661L143.968 149.971Z" fill="#F9D555"/>
<path fill-rule="evenodd" clip-rule="evenodd" d="M23.0036 137.989C28.4436 125.109 7.94353 129.319 5.53353 140.279C4.76353 143.809 4.45356 147.489 5.94356 150.869C8.63356 156.919 14.3035 158.359 20.4235 157.749C25.9335 157.189 27.3435 151.039 21.9035 149.029C23.3423 149.128 24.763 148.662 25.8645 147.731C26.9661 146.801 27.662 145.478 27.805 144.042C27.948 142.607 27.5267 141.173 26.6305 140.043C25.7343 138.913 24.4335 138.177 23.0036 137.989Z" fill="#074785"/>
<path fill-rule="evenodd" clip-rule="evenodd" d="M170.549 130.131C164.119 117.711 184.879 120.301 188.139 131.041C189.189 134.501 189.789 138.141 188.559 141.631C186.359 147.871 180.819 149.751 174.669 149.631C169.129 149.511 167.239 143.481 172.509 141.061C171.791 141.189 171.055 141.176 170.343 141.02C169.63 140.864 168.956 140.57 168.357 140.153C167.149 139.312 166.324 138.025 166.064 136.576C165.935 135.858 165.949 135.122 166.105 134.41C166.26 133.698 166.555 133.023 166.971 132.424C167.388 131.826 167.918 131.315 168.532 130.922C169.146 130.528 169.831 130.259 170.549 130.131Z" fill="#074785"/>
<path d="M77.3156 133.569C77.4156 135.319 77.4756 137.069 77.4956 138.829C77.5156 140.589 77.4956 142.349 77.4956 144.109C77.4956 144.419 77.4956 144.849 77.4956 145.389C77.4956 145.929 77.4956 146.509 77.4956 147.129C77.4956 147.749 77.4156 148.389 77.3556 149.029C77.2902 149.622 77.1594 150.206 76.9656 150.769C76.7931 151.256 76.5283 151.704 76.1856 152.089C75.8566 152.43 75.4088 152.631 74.9356 152.649C74.5232 152.683 74.1093 152.607 73.7356 152.429C73.3852 152.269 73.0745 152.033 72.8256 151.739C72.5712 151.442 72.3684 151.104 72.2256 150.739C72.0732 150.356 71.9854 149.951 71.9656 149.539C71.8923 148.806 71.8556 148.106 71.8556 147.439C71.8556 146.729 71.8556 146.019 71.9256 145.319L68.8156 145.819C68.8156 146.369 68.7556 147.029 68.7256 147.819C68.6995 148.571 68.5956 149.319 68.4156 150.049C68.2527 150.728 67.9495 151.365 67.5256 151.919C67.3091 152.187 67.0365 152.403 66.7273 152.553C66.418 152.704 66.0795 152.784 65.7356 152.789C65.3108 152.827 64.8847 152.733 64.5156 152.519C64.1872 152.319 63.9099 152.045 63.7056 151.719C63.4947 151.368 63.3364 150.987 63.2356 150.589C63.1342 150.199 63.0673 149.801 63.0356 149.399C62.9656 148.129 62.9456 146.869 62.9756 145.609C63.0056 144.349 62.9756 143.099 62.9756 141.829C62.9756 140.559 62.8856 139.169 62.7956 137.829C62.7056 136.489 62.6456 135.159 62.6156 133.829C62.6156 133.379 62.6156 132.829 62.6156 132.279C62.592 131.72 62.6356 131.159 62.7456 130.609C62.8402 130.116 63.0529 129.653 63.3656 129.259C63.5436 129.057 63.7641 128.897 64.0113 128.79C64.2585 128.682 64.5263 128.631 64.7956 128.639C65.1674 128.588 65.546 128.613 65.9074 128.715C66.2688 128.816 66.6052 128.991 66.8956 129.229C67.399 129.695 67.7714 130.285 67.9756 130.939C68.2134 131.661 68.3514 132.411 68.3856 133.169C68.3856 133.949 68.4756 134.659 68.5156 135.289C68.5156 136.139 68.5856 136.959 68.5956 137.779C68.6056 138.599 68.5956 139.409 68.5956 140.229L71.9456 139.529C71.9456 138.529 71.8656 137.469 71.8356 136.459C71.8056 135.449 71.7756 134.459 71.7756 133.459C71.7756 132.969 71.7756 132.459 71.7756 131.909C71.7583 131.394 71.8156 130.879 71.9456 130.379C72.0509 129.924 72.2833 129.508 72.6156 129.179C73.043 128.818 73.5861 128.623 74.1456 128.629C74.6726 128.578 75.1991 128.732 75.6156 129.059C76.0303 129.376 76.3715 129.778 76.6156 130.239C76.8651 130.719 77.0468 131.23 77.1556 131.759C77.2676 132.242 77.3379 132.734 77.3656 133.229L77.3156 133.569Z" fill="white"/>
<path d="M93.9197 145.751C93.9394 146.162 93.8534 146.572 93.6697 146.941C93.3029 147.487 92.8218 147.948 92.2597 148.291C91.4579 148.853 90.6193 149.361 89.7497 149.811C88.8297 150.301 87.9397 150.721 87.0697 151.081C86.4559 151.359 85.8064 151.551 85.1397 151.651C84.801 151.648 84.4644 151.597 84.1397 151.501C83.7176 151.386 83.306 151.236 82.9097 151.051C82.512 150.869 82.1334 150.648 81.7797 150.391C81.4881 150.183 81.2315 149.93 81.0197 149.641C80.8807 149.367 80.783 149.073 80.7297 148.771C80.6297 148.331 80.5397 147.821 80.4497 147.231C80.3597 146.641 80.2797 146.021 80.1997 145.361C80.1197 144.701 80.0497 144.071 79.9797 143.481C79.9097 142.891 79.8697 142.351 79.8297 141.891C79.7897 141.431 79.7697 141.091 79.7497 140.891C79.7497 140.111 79.6797 139.211 79.6797 138.201C79.6797 137.191 79.6797 136.201 79.7997 135.131C79.8842 134.12 80.0447 133.117 80.2797 132.131C80.4732 131.264 80.8113 130.436 81.2797 129.681C81.5173 129.41 81.8063 129.189 82.1297 129.031C82.6257 128.771 83.1365 128.54 83.6597 128.341C84.2497 128.121 84.8797 127.901 85.5697 127.691C86.2597 127.481 86.9097 127.301 87.5697 127.151C88.2297 127.001 88.7797 126.871 89.2997 126.771C89.6945 126.68 90.0957 126.62 90.4997 126.591C90.8106 126.569 91.1222 126.621 91.4097 126.741C91.6958 126.856 91.9547 127.03 92.1697 127.251C92.3802 127.473 92.5556 127.726 92.6897 128.001C92.8188 128.277 92.8934 128.576 92.9097 128.881C92.9291 129.12 92.9054 129.36 92.8397 129.591C92.7632 129.816 92.6662 130.033 92.5497 130.241C92.1887 130.66 91.7592 131.015 91.2797 131.291C90.6297 131.711 89.9097 132.131 89.1497 132.541C88.3897 132.951 87.6397 133.331 86.9297 133.661L85.4397 134.381C85.3797 134.871 85.3197 135.381 85.2497 135.871C85.1797 136.361 85.1497 136.871 85.1297 137.381C85.827 136.977 86.5483 136.616 87.2897 136.301C88.0206 135.978 88.8023 135.785 89.5997 135.731C89.8983 135.674 90.206 135.686 90.4993 135.766C90.7926 135.846 91.0638 135.992 91.2922 136.192C91.5207 136.393 91.7005 136.643 91.8179 136.923C91.9353 137.204 91.9872 137.507 91.9697 137.811C92.0003 138.151 91.9489 138.494 91.8197 138.811C91.6995 139.089 91.5301 139.343 91.3197 139.561C91.1074 139.792 90.8653 139.994 90.5997 140.161L89.7897 140.671C89.1272 141.066 88.439 141.417 87.7297 141.721L85.5597 142.621C85.5597 142.791 85.4997 142.981 85.4697 143.181C85.4503 143.377 85.4503 143.575 85.4697 143.771C85.4872 144.066 85.5239 144.36 85.5797 144.651L85.7597 145.521C86.0097 145.431 86.4097 145.261 86.9497 145.041L88.6697 144.371C89.2697 144.151 89.8497 143.951 90.4097 143.781C90.8159 143.646 91.2347 143.552 91.6597 143.501C91.9678 143.487 92.2752 143.542 92.5597 143.661C92.8307 143.773 93.0758 143.94 93.2797 144.151C93.4878 144.373 93.6599 144.626 93.7897 144.901C93.881 145.175 93.925 145.462 93.9197 145.751Z" fill="white"/>
<path d="M111.301 145.04C111.33 145.546 111.33 146.054 111.301 146.56C111.263 147.141 111.152 147.716 110.971 148.27C110.816 148.789 110.554 149.269 110.201 149.68C110.026 149.875 109.811 150.032 109.572 150.141C109.333 150.249 109.074 150.307 108.811 150.31C108.472 150.349 108.129 150.3 107.813 150.169C107.498 150.038 107.222 149.828 107.011 149.56C106.548 148.966 106.208 148.286 106.011 147.56C105.794 146.778 105.647 145.978 105.571 145.17C105.491 144.35 105.421 143.7 105.371 143.17C103.871 143.51 102.371 143.82 100.931 144.09C100.931 144.58 100.861 145.19 100.771 145.91C100.672 146.625 100.501 147.329 100.261 148.01C100.035 148.66 99.6964 149.266 99.2611 149.8C99.067 150.044 98.8228 150.243 98.545 150.385C98.2673 150.526 97.9624 150.606 97.6511 150.62C97.4231 150.644 97.1927 150.613 96.98 150.527C96.7673 150.442 96.5788 150.305 96.4311 150.13C96.1119 149.757 95.8674 149.326 95.7111 148.86C95.5301 148.363 95.4093 147.846 95.3511 147.32C95.2911 146.78 95.2411 146.32 95.2211 145.98C95.1575 144.79 95.1843 143.596 95.3011 142.41C95.4211 141.23 95.5811 140.05 95.7611 138.88C95.8611 138.27 95.9811 137.54 96.1411 136.71C96.3011 135.88 96.5211 135.01 96.7711 134.12C97.0313 133.221 97.3385 132.337 97.6911 131.47C98.0367 130.639 98.4655 129.845 98.9711 129.1C99.4297 128.423 100.005 127.834 100.671 127.36C101.319 126.898 102.086 126.634 102.881 126.6C103.609 126.538 104.339 126.68 104.991 127.01C105.612 127.349 106.165 127.799 106.621 128.34C107.109 128.932 107.519 129.584 107.841 130.28C108.178 131.004 108.468 131.749 108.711 132.51C108.961 133.27 109.171 134.01 109.351 134.74L109.831 136.68C110.184 138.013 110.494 139.383 110.761 140.79C111.038 142.193 111.218 143.613 111.301 145.04ZM104.761 137.72C104.761 137.47 104.761 137.05 104.641 136.47C104.575 135.891 104.475 135.317 104.341 134.75C104.214 134.22 104.019 133.71 103.761 133.23C103.686 133.042 103.557 132.882 103.389 132.769C103.221 132.657 103.023 132.598 102.821 132.6C102.695 132.626 102.577 132.681 102.476 132.761C102.375 132.841 102.295 132.943 102.241 133.06C102.049 133.41 101.901 133.783 101.801 134.17C101.668 134.65 101.565 135.137 101.491 135.63C101.398 136.163 101.328 136.673 101.281 137.16C101.234 137.647 101.194 138.073 101.161 138.44C101.161 138.83 101.161 139.11 101.161 139.28C102.411 139.1 103.651 138.87 104.851 138.59L104.761 137.72Z" fill="white"/>
<path d="M128.422 144.36C128.444 144.92 128.243 145.467 127.862 145.88C127.404 146.415 126.864 146.874 126.262 147.24C125.555 147.684 124.809 148.062 124.032 148.37C123.212 148.7 122.392 148.99 121.582 149.24C120.772 149.49 120.002 149.68 119.282 149.83C118.719 149.954 118.147 150.041 117.572 150.09C117.146 150.124 116.718 150.124 116.292 150.09C115.878 150.056 115.481 149.911 115.142 149.67C114.901 149.448 114.73 149.159 114.652 148.84C114.502 148.4 114.342 147.89 114.192 147.28C114.042 146.67 113.912 146.03 113.782 145.33C113.652 144.63 113.552 143.94 113.462 143.27C113.372 142.6 113.292 141.98 113.222 141.42C113.152 140.86 113.122 140.42 113.102 140.09C113.102 139.57 113.102 138.93 113.042 138.18C112.982 137.43 113.042 136.63 113.042 135.77C113.042 134.91 113.092 134.04 113.142 133.16C113.192 132.28 113.272 131.42 113.362 130.62C113.442 129.895 113.569 129.177 113.742 128.47C113.859 127.94 114.048 127.429 114.302 126.95C114.446 126.68 114.657 126.452 114.914 126.287C115.172 126.123 115.467 126.027 115.772 126.01C115.97 125.992 116.17 126.015 116.359 126.077C116.548 126.139 116.723 126.238 116.872 126.37C117.2 126.666 117.462 127.027 117.642 127.43C117.855 127.91 118.023 128.408 118.142 128.92C118.262 129.48 118.362 130.03 118.442 130.57C118.512 131.11 118.562 131.62 118.592 132.08C118.622 132.54 118.592 132.91 118.652 133.19C118.752 134.83 118.812 136.45 118.822 138.07C118.832 139.69 118.902 141.31 119.002 142.95L119.072 144.18C120.002 143.83 121.012 143.5 122.072 143.18C123.103 142.864 124.167 142.67 125.242 142.6C125.605 142.58 125.969 142.58 126.332 142.6C126.675 142.612 127.013 142.683 127.332 142.81C127.651 142.936 127.924 143.157 128.113 143.443C128.303 143.729 128.4 144.067 128.392 144.41L128.422 144.36Z" fill="white"/>
<path d="M134.601 135.101C134.601 135.441 134.601 135.901 134.601 136.481C134.601 137.061 134.601 137.691 134.521 138.351C134.441 139.011 134.391 139.701 134.271 140.351C134.163 140.99 134.013 141.622 133.821 142.241C133.681 142.743 133.454 143.217 133.151 143.641C133.041 143.809 132.893 143.948 132.719 144.049C132.546 144.15 132.351 144.209 132.151 144.221C131.911 144.231 131.673 144.18 131.458 144.073C131.243 143.967 131.058 143.808 130.921 143.611C130.526 143.1 130.216 142.529 130.001 141.921C129.723 141.165 129.502 140.39 129.341 139.601C129.171 138.751 129.021 137.901 128.911 137.081C128.801 136.261 128.721 135.481 128.671 134.781C128.621 134.081 128.581 133.531 128.561 133.151C128.541 132.771 128.561 132.301 128.481 131.721C128.401 131.141 128.481 130.521 128.481 129.871C128.491 129.202 128.538 128.534 128.621 127.871C128.691 127.263 128.832 126.666 129.041 126.091C129.217 125.59 129.504 125.135 129.881 124.761C130.258 124.405 130.753 124.202 131.271 124.191C131.516 124.175 131.761 124.218 131.986 124.317C132.211 124.416 132.408 124.569 132.561 124.761C132.949 125.247 133.247 125.799 133.441 126.391C133.696 127.127 133.889 127.883 134.021 128.651C134.161 129.491 134.271 130.311 134.351 131.121C134.431 131.931 134.481 132.681 134.511 133.371C134.541 134.061 134.581 134.711 134.601 135.101ZM134.691 147.101C134.719 147.429 134.653 147.759 134.501 148.051C134.34 148.324 134.126 148.563 133.871 148.751C133.61 148.945 133.32 149.097 133.011 149.201C132.706 149.3 132.391 149.361 132.071 149.381C131.603 149.403 131.138 149.303 130.721 149.091C130.514 148.988 130.34 148.83 130.218 148.634C130.096 148.438 130.031 148.212 130.031 147.981C130.008 147.668 130.085 147.357 130.251 147.091C130.417 146.842 130.623 146.622 130.861 146.441C131.132 146.241 131.428 146.076 131.741 145.951C132.036 145.837 132.346 145.766 132.661 145.741C133.128 145.711 133.594 145.808 134.011 146.021C134.212 146.129 134.382 146.289 134.501 146.484C134.621 146.679 134.686 146.902 134.691 147.131V147.101Z" fill="white"/>
<path fill-rule="evenodd" clip-rule="evenodd" d="M86.6779 61.9402C87.0418 64.0012 86.9935 66.1139 86.5357 68.156C86.0779 70.1982 85.2197 72.1293 84.0107 73.8377C82.8018 75.546 81.2661 76.9977 79.4925 78.1087C77.7189 79.2197 75.7425 79.9679 73.6779 80.3102C69.5136 81.0349 65.2314 80.0908 61.7579 77.6822C58.2845 75.2736 55.8991 71.5943 55.1179 67.4402C54.7525 65.3791 54.7998 63.266 55.257 61.2233C55.7142 59.1806 56.5723 57.249 57.7815 55.5403C58.9907 53.8316 60.5269 52.3799 62.3012 51.2693C64.0755 50.1587 66.0526 49.4112 68.1179 49.0702C72.2821 48.3455 76.5643 49.2896 80.0378 51.6982C83.5112 54.1068 85.8967 57.7862 86.6779 61.9402Z" fill="white"/>
<path fill-rule="evenodd" clip-rule="evenodd" d="M75.0198 49.3711C72.6162 50.0565 70.4285 51.3467 68.6655 53.1184C66.9026 54.8901 65.6233 57.0842 64.9498 59.4911C64.4426 61.3225 64.3045 63.2365 64.5436 65.1217C64.7826 67.0069 65.3939 68.8259 66.342 70.4728C67.2902 72.1197 68.5562 73.5617 70.0665 74.7151C71.5768 75.8684 73.3014 76.7101 75.1398 77.1911C76.7911 77.6328 78.507 77.7818 80.2098 77.6311C82.6746 75.9074 84.5939 73.5135 85.7406 70.7328C86.8872 67.9522 87.2132 64.9012 86.6798 61.9411C86.129 58.9555 84.7402 56.1883 82.6756 53.9625C80.6109 51.7367 77.9556 50.1442 75.0198 49.3711Z" fill="#074785"/>
<path fill-rule="evenodd" clip-rule="evenodd" d="M135.725 61.9418C136.091 64.003 136.045 66.1166 135.589 68.1598C135.132 70.203 134.274 72.1351 133.065 73.8441C131.855 75.5531 130.318 77.0048 128.543 78.1151C126.768 79.2254 124.791 79.972 122.725 80.3118C118.56 81.0365 114.278 80.0924 110.805 77.6838C107.331 75.2752 104.946 71.5958 104.165 67.4418C103.799 65.3807 103.847 63.2675 104.304 61.2248C104.761 59.1821 105.619 57.2505 106.828 55.5419C108.038 53.8332 109.574 52.3815 111.348 51.2709C113.122 50.1602 115.099 49.4128 117.165 49.0718C121.329 48.3443 125.613 49.2873 129.087 51.6964C132.561 54.1054 134.946 57.7865 135.725 61.9418Z" fill="white"/>
<path fill-rule="evenodd" clip-rule="evenodd" d="M124.056 49.3711C121.651 50.0565 119.462 51.3479 117.699 53.1216C115.936 54.8953 114.657 57.0919 113.986 59.5011C113.481 61.3319 113.344 63.2448 113.583 65.1289C113.823 67.013 114.435 68.8307 115.383 70.4765C116.331 72.1223 117.596 73.5633 119.106 74.716C120.615 75.8687 122.339 76.71 124.176 77.1911C125.828 77.6328 127.544 77.7818 129.246 77.6311C131.711 75.9074 133.63 73.5135 134.777 70.7328C135.924 67.9522 136.25 64.9012 135.716 61.9411C135.166 58.9555 133.777 56.1883 131.712 53.9625C129.647 51.7367 126.992 50.1442 124.056 49.3711Z" fill="#074785"/>
<path fill-rule="evenodd" clip-rule="evenodd" d="M108.076 97.7087C99.6859 92.8387 91.246 92.6187 82.756 97.4887C81.216 95.1987 79.336 93.0487 78.226 90.5887C76.676 87.1387 79.226 83.9587 83.096 84.1187C88.506 90.0587 99.826 90.5487 105.626 85.0287C106.256 84.4387 106.306 83.3288 106.626 82.4688" fill="#074785"/>
<path fill-rule="evenodd" clip-rule="evenodd" d="M106.739 99.7505C106.739 99.7505 111.069 93.5205 111.739 87.3805C112.409 81.2405 107.059 82.3805 107.059 82.3805L101.609 84.2505" fill="#074785"/>
<path fill-rule="evenodd" clip-rule="evenodd" d="M107.082 82.4414C106.844 83.4355 106.343 84.3474 105.632 85.0814C99.8816 90.6514 88.5116 90.0814 83.1016 84.1714C90.9516 83.5714 99.2415 82.9414 107.082 82.4414Z" fill="white"/>
<path fill-rule="evenodd" clip-rule="evenodd" d="M82.7578 97.4897C91.2478 92.6197 99.6878 92.8397 108.078 97.7097C105.978 102.02 100.898 104.39 94.6078 103.57C89.9378 102.96 85.7378 101.19 82.7578 97.4897Z" fill="#FD6085"/>
<path fill-rule="evenodd" clip-rule="evenodd" d="M125.641 40.8797C123.991 39.7502 122.064 39.0919 120.067 38.9757C118.071 38.8594 116.081 39.2895 114.311 40.2197C112.451 41.2197 114.091 43.9897 115.951 43.0297C117.217 42.3967 118.632 42.1235 120.043 42.2398C121.454 42.3562 122.805 42.8577 123.951 43.6897C125.761 44.8297 127.391 42.0197 125.641 40.8797Z" fill="#074785"/>
<path fill-rule="evenodd" clip-rule="evenodd" d="M76.8637 40.0689C75.067 39.1933 73.0657 38.8237 71.0748 38.9999C69.0839 39.176 67.1787 39.8913 65.5637 41.0689C63.8637 42.2989 65.8937 44.8289 67.5637 43.6089C68.7277 42.786 70.0965 42.3009 71.519 42.2074C72.9414 42.1139 74.362 42.4155 75.6237 43.0789C77.5537 43.9689 78.7437 40.9489 76.8637 40.0689Z" fill="#074785"/>
<path fill-rule="evenodd" clip-rule="evenodd" d="M95.9791 79.361C95.7275 79.3789 95.4761 79.3243 95.2546 79.2038C95.0331 79.0833 94.8507 78.9018 94.7291 78.6809C94.6479 78.5237 94.61 78.3477 94.6191 78.171C94.7121 77.4742 95.0703 76.8402 95.6191 76.4009L95.7191 76.291C96.3528 75.7765 96.8107 75.0775 97.0291 74.291C97.0893 73.9961 97.0771 73.691 96.9935 73.4018C96.9099 73.1127 96.7574 72.8482 96.5491 72.631C96.4581 72.5157 96.3428 72.4219 96.2114 72.3562C96.0801 72.2905 95.9359 72.2546 95.7891 72.2509C95.3779 72.2843 94.9836 72.4295 94.6491 72.671L94.2791 72.951C93.5709 73.6343 92.6769 74.0934 91.709 74.2709C91.4774 74.2721 91.2494 74.2128 91.0477 74.0988C90.846 73.9848 90.6775 73.8201 90.5591 73.6209C89.7691 72.2809 92.0091 70.521 92.0991 70.451C93.176 69.5381 94.5283 69.0133 95.9391 68.9609H96.1391C96.7322 68.9839 97.3144 69.1269 97.8507 69.3813C98.387 69.6357 98.8661 69.9962 99.2591 70.4409C99.6946 70.9365 100.024 71.516 100.227 72.1438C100.43 72.7715 100.502 73.4342 100.439 74.0909C100.31 75.4912 99.686 76.7995 98.6791 77.7809C98.2457 78.232 97.7588 78.6283 97.2291 78.9609C96.8769 79.177 96.4803 79.3104 96.0691 79.351L95.9791 79.361Z" fill="#074785"/>
<path fill-rule="evenodd" clip-rule="evenodd" d="M166.24 111.078C161.35 111.078 156.47 111.268 151.59 111.528C149.84 111.628 149.83 114.358 151.59 114.258C156.47 113.998 161.35 113.818 166.24 113.808C166.582 113.779 166.9 113.622 167.132 113.37C167.364 113.117 167.493 112.786 167.493 112.443C167.493 112.1 167.364 111.769 167.132 111.517C166.9 111.264 166.582 111.107 166.24 111.078Z" fill="white"/>
<path fill-rule="evenodd" clip-rule="evenodd" d="M147.672 113.44C147.67 113.08 147.526 112.734 147.272 112.478C147.018 112.222 146.673 112.076 146.312 112.07C145.851 112.067 145.407 112.243 145.072 112.56C144.882 112.754 144.753 113.001 144.703 113.268C144.653 113.535 144.684 113.811 144.791 114.061C144.898 114.311 145.077 114.523 145.305 114.671C145.534 114.818 145.801 114.895 146.072 114.89C146.259 114.892 146.444 114.851 146.612 114.77C146.913 114.7 147.181 114.531 147.374 114.29C147.566 114.048 147.671 113.749 147.672 113.44Z" fill="white"/>
<path fill-rule="evenodd" clip-rule="evenodd" d="M31.3318 166.792C37.2818 166.732 43.2219 166.462 49.1519 166.082C51.2819 165.952 51.2619 162.632 49.1519 162.762C43.2219 163.142 37.2818 163.412 31.3318 163.472C30.8916 163.472 30.4694 163.646 30.1581 163.958C29.8468 164.269 29.6719 164.691 29.6719 165.132C29.6719 165.572 29.8468 165.994 30.1581 166.305C30.4694 166.617 30.8916 166.792 31.3318 166.792Z" fill="white"/>
<path fill-rule="evenodd" clip-rule="evenodd" d="M53.8594 163.72C53.8673 164.159 54.0481 164.578 54.3625 164.885C54.677 165.192 55.0999 165.362 55.5394 165.36C56.0982 165.361 56.6358 165.146 57.0394 164.76C57.267 164.524 57.4202 164.226 57.48 163.904C57.5397 163.582 57.5034 163.249 57.3755 162.948C57.2476 162.646 57.0337 162.389 56.7606 162.208C56.4874 162.027 56.167 161.93 55.8394 161.93C55.611 161.931 55.3858 161.982 55.1794 162.08C54.8054 162.162 54.4707 162.369 54.2307 162.667C53.9906 162.966 53.8596 163.337 53.8594 163.72Z" fill="white"/>
<path fill-rule="evenodd" clip-rule="evenodd" d="M60.9406 93.1797C60.5987 93.209 60.2802 93.3655 60.0482 93.6182C59.8162 93.871 59.6875 94.2016 59.6875 94.5447C59.6875 94.8878 59.8162 95.2184 60.0482 95.4712C60.2802 95.7239 60.5987 95.8804 60.9406 95.9097C61.2824 95.8804 61.6008 95.7239 61.8328 95.4712C62.0648 95.2184 62.1936 94.8878 62.1936 94.5447C62.1936 94.2016 62.0648 93.871 61.8328 93.6182C61.6008 93.3655 61.2824 93.209 60.9406 93.1797Z" fill="white"/>
<path fill-rule="evenodd" clip-rule="evenodd" d="M44.1671 121.539C43.8253 121.568 43.5069 121.725 43.2748 121.978C43.0428 122.23 42.9141 122.561 42.9141 122.904C42.9141 123.247 43.0428 123.578 43.2748 123.831C43.5069 124.083 43.8253 124.24 44.1671 124.269C44.509 124.24 44.8274 124.083 45.0594 123.831C45.2914 123.578 45.4202 123.247 45.4202 122.904C45.4202 122.561 45.2914 122.23 45.0594 121.978C44.8274 121.725 44.509 121.568 44.1671 121.539Z" fill="white"/>
<path fill-rule="evenodd" clip-rule="evenodd" d="M150.269 136.672C149.927 136.701 149.608 136.858 149.376 137.11C149.144 137.363 149.016 137.694 149.016 138.037C149.016 138.38 149.144 138.711 149.376 138.963C149.608 139.216 149.927 139.373 150.269 139.402C150.611 139.373 150.929 139.216 151.161 138.963C151.393 138.711 151.522 138.38 151.522 138.037C151.522 137.694 151.393 137.363 151.161 137.11C150.929 136.858 150.611 136.701 150.269 136.672Z" fill="white"/>
<path fill-rule="evenodd" clip-rule="evenodd" d="M133.534 157.742C133.192 157.771 132.874 157.928 132.642 158.181C132.41 158.433 132.281 158.764 132.281 159.107C132.281 159.45 132.41 159.781 132.642 160.034C132.874 160.286 133.192 160.443 133.534 160.472C133.876 160.443 134.195 160.286 134.427 160.034C134.659 159.781 134.787 159.45 134.787 159.107C134.787 158.764 134.659 158.433 134.427 158.181C134.195 157.928 133.876 157.771 133.534 157.742Z" fill="white"/>
<path fill-rule="evenodd" clip-rule="evenodd" d="M29.7062 154.27C29.3643 154.299 29.0459 154.455 28.8139 154.708C28.5819 154.961 28.4531 155.291 28.4531 155.635C28.4531 155.978 28.5819 156.308 28.8139 156.561C29.0459 156.814 29.3643 156.97 29.7062 157C30.048 156.97 30.3665 156.814 30.5985 156.561C30.8305 156.308 30.9593 155.978 30.9593 155.635C30.9593 155.291 30.8305 154.961 30.5985 154.708C30.3665 154.455 30.048 154.299 29.7062 154.27Z" fill="white"/>
<path fill-rule="evenodd" clip-rule="evenodd" d="M51.5187 46.4883C51.1768 46.5176 50.8584 46.6741 50.6264 46.9268C50.3944 47.1796 50.2656 47.5102 50.2656 47.8533C50.2656 48.1964 50.3944 48.527 50.6264 48.7798C50.8584 49.0325 51.1768 49.189 51.5187 49.2183C51.8605 49.189 52.179 49.0325 52.411 48.7798C52.643 48.527 52.7718 48.1964 52.7718 47.8533C52.7718 47.5102 52.643 47.1796 52.411 46.9268C52.179 46.6741 51.8605 46.5176 51.5187 46.4883Z" fill="white"/>
<path fill-rule="evenodd" clip-rule="evenodd" d="M143.667 75.5703C143.325 75.5996 143.007 75.7561 142.775 76.0089C142.543 76.2616 142.414 76.5922 142.414 76.9353C142.414 77.2784 142.543 77.609 142.775 77.8618C143.007 78.1145 143.325 78.271 143.667 78.3003C144.009 78.271 144.327 78.1145 144.559 77.8618C144.791 77.609 144.92 77.2784 144.92 76.9353C144.92 76.5922 144.791 76.2616 144.559 76.0089C144.327 75.7561 144.009 75.5996 143.667 75.5703Z" fill="white"/>
<path fill-rule="evenodd" clip-rule="evenodd" d="M38.4874 108.609C38.1456 108.639 37.8272 108.795 37.5952 109.048C37.3631 109.301 37.2344 109.631 37.2344 109.974C37.2344 110.317 37.3631 110.648 37.5952 110.901C37.8272 111.154 38.1456 111.31 38.4874 111.339C38.8293 111.31 39.1477 111.154 39.3797 110.901C39.6117 110.648 39.7405 110.317 39.7405 109.974C39.7405 109.631 39.6117 109.301 39.3797 109.048C39.1477 108.795 38.8293 108.639 38.4874 108.609Z" fill="white"/>
<path fill-rule="evenodd" clip-rule="evenodd" d="M133.018 26.7305C132.655 26.7305 132.307 26.8748 132.05 27.1317C131.793 27.3887 131.648 27.7371 131.648 28.1005C131.648 28.4638 131.793 28.8123 132.05 29.0692C132.307 29.3261 132.655 29.4705 133.018 29.4705C133.382 29.4705 133.73 29.3261 133.987 29.0692C134.244 28.8123 134.388 28.4638 134.388 28.1005C134.388 27.7371 134.244 27.3887 133.987 27.1317C133.73 26.8748 133.382 26.7305 133.018 26.7305Z" fill="white"/>
<path d="M33.3411 128.549C33.0111 128.229 32.3411 123.769 31.7511 123.809C31.1611 123.849 30.6311 128.269 30.3511 128.559C29.7911 129.139 25.6811 129.559 25.7111 130.119C25.7411 130.679 29.7811 130.959 30.3511 131.509C30.6711 131.819 31.3511 136.289 31.9411 136.249C32.5311 136.209 33.0511 131.809 33.3411 131.509C33.8911 130.939 38.0311 130.509 38.0011 129.939C37.9711 129.369 33.8611 129.079 33.3411 128.549Z" fill="#7BEFE5"/>
<path d="M43.2239 146.57C42.9039 146.25 42.224 141.79 41.644 141.82C41.064 141.85 40.5239 146.28 40.2439 146.57C39.6739 147.16 35.5639 147.57 35.5939 148.14C35.6239 148.71 39.6739 148.97 40.2439 149.53C40.5639 149.83 41.2439 154.3 41.8339 154.27C42.4239 154.24 42.9339 149.83 43.2339 149.52C43.7739 148.96 47.924 148.52 47.884 147.95C47.844 147.38 43.7739 147.1 43.2239 146.57Z" fill="white"/>
<path d="M159.122 125.16C158.792 124.84 158.122 120.38 157.532 120.41C156.942 120.44 156.412 124.88 156.132 125.17C155.572 125.75 151.462 126.17 151.492 126.73C151.522 127.29 155.562 127.56 156.132 128.12C156.452 128.43 157.132 132.9 157.722 132.86C158.312 132.82 158.832 128.42 159.122 128.12C159.672 127.55 163.812 127.12 163.782 126.55C163.752 125.98 159.672 125.69 159.122 125.16Z" fill="white"/>
<path d="M159.122 149.189C158.792 148.869 158.122 144.409 157.532 144.449C156.942 144.489 156.412 148.909 156.132 149.199C155.572 149.789 151.462 150.199 151.492 150.769C151.522 151.339 155.562 151.599 156.132 152.149C156.452 152.459 157.132 156.929 157.722 156.899C158.312 156.869 158.832 152.449 159.122 152.149C159.672 151.579 163.812 151.149 163.782 150.579C163.752 150.009 159.672 149.729 159.122 149.189Z" fill="#7BEFE5"/>
</g>
<defs>
<clipPath id="clip0_5_356">
<rect width="190.77" height="170.95" fill="white"/>
</clipPath>
</defs>
</svg>
