<svg xmlns="http://www.w3.org/2000/svg" width="87" height="77" viewBox="0 0 87 77" fill="none">
  <path d="M36.0945 21.6613C36.06 21.7264 36.0707 21.8036 36.1211 21.8573C36.4178 22.1739 36.7709 22.162 37.0815 22.1522C37.2875 22.1452 37.485 22.1387 37.684 22.2094C37.8991 22.2864 38.1206 22.473 38.3326 22.6532C38.5387 22.8293 38.7706 23.0273 39.022 23.1248C39.2807 23.2252 39.5619 23.2197 39.8607 22.9807C39.8911 22.962 39.9146 22.9323 39.9277 22.8985C39.9386 22.8704 39.9405 22.8416 39.9378 22.8128C39.923 22.4318 39.7189 22.0477 39.3516 21.701C39.0166 21.3853 38.576 21.1322 38.1114 20.9908C37.2391 20.7236 36.4822 20.8976 36.0869 21.4569C36.0438 21.5205 36.048 21.6025 36.0945 21.6613Z" fill="#FF6A01"/>
  <path d="M29.7129 18.0247C29.4475 17.6103 28.7598 17.3343 28.2963 17.4549C28.0031 17.5315 27.8272 17.7563 27.8074 18.072C27.8053 18.1082 27.8146 18.1414 27.8334 18.1718C27.9707 18.3942 28.3338 18.6043 28.6294 18.7236C28.6407 18.728 28.6551 18.7336 28.6712 18.7398C28.8841 18.8224 29.3201 18.961 29.6053 18.8452C29.6323 18.8353 29.6561 18.8168 29.6726 18.7955C29.862 18.5622 29.8767 18.2814 29.7129 18.0247Z" fill="#FF6A01"/>
  <mask id="mask0_5_258" style="mask-type:luminance" maskUnits="userSpaceOnUse" x="0" y="0" width="87" height="77">
    <path d="M19.8125 0.332031L86.3771 26.1507L66.7565 76.7359L0.191826 50.9172L19.8125 0.332031Z" fill="white"/>
  </mask>
  <g mask="url(#mask0_5_258)">
    <path d="M76.4427 51.386C76.5082 50.905 76.352 50.4571 75.9774 50.0577C75.6725 49.7333 75.218 49.4351 74.6247 49.1754C73.6938 48.7662 72.5868 48.5134 71.7296 48.362C72.1156 47.9268 72.39 47.4149 72.5813 46.7738C72.5882 46.7488 72.591 46.7249 72.5868 46.7002C72.4978 46.0742 72.2367 45.618 71.8143 45.3442C70.8647 44.7282 69.3074 45.1694 68.1704 45.4917C67.9102 45.5645 67.6761 45.6318 67.4775 45.6768C67.5624 45.0267 67.3778 44.3637 66.9622 43.8651C66.5243 43.3404 65.8995 43.05 65.1827 43.0372C65.2515 42.3403 64.8613 41.8405 64.5144 41.3936C64.4149 41.2663 64.3192 41.1414 64.2328 41.0164C64.5437 40.8939 64.9457 40.7772 65.3995 40.6483C66.8491 40.23 68.6549 39.7059 69.3392 38.4612C69.6265 37.9396 69.6946 37.4281 69.5444 36.9411C69.3858 36.4277 68.9768 35.9548 68.3797 35.5929C68.701 35.4246 69.0396 35.2832 69.3703 35.1454C70.6269 34.6217 71.9272 34.0809 72.5539 32.0339C72.5598 32.014 72.5612 31.9914 72.5609 31.9682C72.5018 31.3011 72.2459 30.6908 71.8009 30.1559C71.4387 29.7197 70.9393 29.3227 70.3155 28.9726C70.8569 28.6392 71.8992 27.9178 72.7878 26.842C73.2582 26.275 73.6095 25.6932 73.8342 25.1187C74.0971 24.448 74.1851 23.778 74.0996 23.1311C74.0218 22.5622 73.7035 22.008 73.2226 21.6062C72.7006 21.1699 72.0418 20.955 71.3639 21.0063C70.2845 21.0848 69.1279 21.4338 68.0095 21.7726C67.6975 21.8669 67.3758 21.9649 67.067 22.0511C66.4706 22.2209 65.871 22.4421 65.2929 22.6578C64.5413 22.9374 63.7628 23.2241 62.9557 23.4156C61.846 23.6793 60.7483 23.9457 59.6886 24.2047C57.7657 24.6732 55.9447 25.1175 54.2602 25.4862C54.1555 23.6832 53.4805 21.7136 52.2573 19.6302C51.1233 17.7005 49.9903 16.2279 48.6939 14.9931C47.0838 13.4592 45.2029 12.2851 42.952 11.4028C40.5459 10.4603 38.2016 10.2451 35.782 10.7436C33.7287 11.1671 31.8591 12.0417 29.9753 12.9884C29.5158 10.8851 28.4851 7.70265 27.3319 5.47913C27.2318 5.28689 27.1365 5.07988 27.0345 4.86382C26.7703 4.29185 26.4948 3.69887 26.0903 3.21669C25.6138 2.65111 25.0441 2.35435 24.349 2.30933C23.7657 2.27161 23.2395 2.47042 22.7912 2.90187C22.4083 3.26718 22.0827 3.78967 21.7943 4.49753C21.277 5.76446 20.9907 7.37698 20.7593 8.67163C20.6903 9.06166 20.6226 9.43647 20.5557 9.76358C20.0434 9.21646 19.3891 8.92571 18.6481 8.91829C17.7873 8.90972 16.8831 9.30387 16.3421 9.91934C15.8083 10.5283 15.4881 11.3301 15.3605 12.3739C15.2518 13.2689 15.2963 14.2334 15.3364 15.0807C15.3709 15.8066 15.4039 16.4959 15.3367 17.041C14.6037 17.1485 14.0614 17.4769 13.7259 18.0178C12.9003 19.3434 13.5263 21.6037 13.9718 22.8328C14.0672 23.0898 14.2808 23.5183 14.5088 23.9717C14.7418 24.4383 15.1262 25.201 15.1603 25.4157C15.1085 25.4538 14.9985 25.5184 14.9129 25.5674C14.609 25.7434 14.3862 25.8816 14.2973 26.0513C14.0059 26.5954 13.9426 27.2612 14.1086 28.027C14.2593 28.725 14.5662 29.38 14.7835 29.8109C15.3343 30.8997 16.1837 31.9241 17.3754 32.9427C18.4336 33.8457 19.6637 34.6676 20.854 35.4611C21.319 35.7727 21.8023 36.0923 22.2691 36.4184C22.4762 38.2408 23.0136 40.06 23.9135 41.9811C24.6618 43.5828 25.6785 45.2718 27.0161 47.1437C28.1944 48.7901 29.8291 50.9277 32.0401 52.8398C34.0436 54.5725 36.2484 55.8953 38.7531 56.8668C39.0544 56.9837 39.3589 57.0944 39.6677 57.2013C41.0032 59.4336 42.9206 61.4166 44.7833 63.3359C44.3612 64.2405 44.1487 65.0767 44.1531 65.8279C44.1565 66.5861 44.3816 67.2759 44.8164 67.8799C44.8309 67.9021 44.8511 67.9192 44.8761 67.9308C45.0941 68.0431 45.3112 68.191 45.5223 68.333C45.8182 68.5328 46.0999 68.7215 46.3923 68.8349C46.4405 68.8536 46.4885 68.8704 46.5358 68.8841C46.949 69.0056 47.3148 68.9247 47.6514 68.6431C47.6719 68.6261 47.6894 68.6024 47.6994 68.5767C48.1244 67.5475 48.2024 66.6841 48.2809 65.8505C48.3171 65.4496 48.3565 65.036 48.4306 64.6018C48.7493 62.7699 48.619 61.6121 48.0397 61.1564C47.6982 60.8863 47.2167 60.8695 46.6116 61.1071C46.4998 60.9833 46.3864 60.8562 46.2752 60.7354C45.6598 60.0587 45.0248 59.3632 44.5264 58.6228C44.8539 58.6602 45.183 58.7028 45.5055 58.7456C46.0293 58.813 46.5686 58.8854 47.0936 58.9328C47.5972 59.7169 48.0364 60.5526 48.4612 61.3587C49.108 62.5911 49.7778 63.8638 50.7041 65.0067C50.6669 65.1503 50.6273 65.2976 50.5854 65.4533C50.3577 66.3122 50.0998 67.2842 50.0623 68.1245C50.0173 69.1458 50.3048 69.7961 50.9435 70.1104C51.3425 70.304 51.5733 70.2235 51.7602 70.161C51.8842 70.1176 51.9821 70.0845 52.1424 70.1263C52.1963 70.1398 52.2562 70.2046 52.3235 70.2788C52.4671 70.4352 52.6617 70.6484 53.059 70.6509C53.0726 70.6516 53.0878 70.6482 53.1012 70.647C53.4566 70.5575 53.8066 70.3818 54.1689 70.1101C54.1943 70.0923 54.2133 70.0673 54.2248 70.0375C54.8117 68.6054 54.7232 67.5351 54.6202 66.2947C54.5935 65.9562 54.5642 65.6075 54.5481 65.2344L54.5478 65.2186C54.492 63.9733 54.4319 62.5629 53.6616 62.1042C53.3217 61.9012 52.8799 61.911 52.3491 62.1357C52.1603 61.7529 51.9545 61.3755 51.7532 61.0082C51.4141 60.3887 51.0635 59.7509 50.8037 59.0864C55.15 59.1604 59.3866 58.5118 64.3858 57.5148L64.5134 57.4885C66.6527 57.0623 68.6732 56.6612 70.8672 55.6916C71.81 55.2764 72.843 54.6956 73.8216 54.1288C74.2229 53.8972 74.8177 53.5337 75.3468 53.0726C75.9994 52.4931 76.3668 51.9295 76.4427 51.386ZM53.0074 63.8577C53.0305 64.046 53.057 64.2374 53.0835 64.4334C53.2859 65.937 53.4951 67.4894 53.0569 69.0504C52.7556 68.5574 52.7559 67.918 52.7878 67.252C52.7996 66.9904 52.8519 66.715 52.9003 66.4473C53.0039 65.8849 53.1126 65.3042 52.8863 64.7941C52.8681 64.7528 52.835 64.7215 52.7908 64.7043C52.7892 64.7037 52.7852 64.7022 52.7828 64.7012C52.7361 64.6859 52.6859 64.6914 52.6437 64.7166C52.1776 64.9868 52.0844 65.6225 51.995 66.2366C51.9717 66.4041 51.9459 66.5752 51.9137 66.7346L51.8807 66.903C51.7813 67.4023 51.6792 67.9134 51.561 68.3944C51.4057 67.532 51.6951 66.4428 51.9773 65.3841C52.0301 65.1884 52.0832 64.9871 52.135 64.7892C52.1493 64.7356 52.136 64.6795 52.1001 64.6361C51.083 63.432 50.343 62.0683 49.6296 60.7482C49.2232 59.9972 48.8006 59.2188 48.331 58.4757C48.4051 58.461 48.4945 58.4495 48.5912 58.4481C48.7807 58.4431 48.8828 58.4827 48.91 58.5053C49.295 59.1425 49.611 59.8288 49.9172 60.4929C50.521 61.812 51.1473 63.1732 52.366 64.2651C52.3954 64.2894 52.4322 64.3065 52.4706 64.3075C52.8263 64.3244 52.9447 64.0765 53.0074 63.8577ZM15.653 26.5947C15.7046 26.526 15.8057 26.4368 16.0589 26.475C16.0716 26.478 16.087 26.4812 16.1047 26.4881C16.2043 26.5267 16.3963 26.6631 16.7232 27.1023C17.0047 27.4795 17.3027 27.9573 17.5893 28.4169C17.8916 28.9029 18.1757 29.3615 18.3947 29.6119L18.4005 29.616C18.4203 29.6698 18.4418 29.7216 18.4586 29.7734C18.4852 29.8456 18.5569 29.8919 18.6328 29.8844C18.7084 29.8777 18.7717 29.8218 18.7867 29.7473C18.8137 29.6062 18.7514 29.5072 18.6961 29.4377C18.3763 28.6325 17.8405 27.6336 17.2772 26.5815C16.4546 25.0426 15.5196 23.2955 15.0331 21.7455C14.7737 20.9203 14.3398 19.5395 14.8686 18.7863C14.9619 18.6506 15.1823 18.5327 15.4032 18.4992C15.5939 18.4697 15.7615 18.5023 15.8793 18.5942C16.0755 18.7434 16.0967 19.3273 16.1149 19.8427C16.1381 20.5143 16.1649 21.2077 16.5224 21.5321C16.5695 21.5753 16.6373 21.5886 16.697 21.5656C16.756 21.5423 16.7982 21.4884 16.8061 21.4249C16.9496 20.0519 16.8765 18.7583 16.8025 17.5078C16.6859 15.4877 16.5664 13.3989 17.3795 10.9427C17.7783 10.4579 18.2631 10.2754 18.7876 10.4123C19.6609 10.641 20.5186 11.7297 20.6978 12.8379C20.7691 13.2639 20.7399 13.711 20.712 14.1428C20.6726 14.7828 20.6343 15.389 20.921 15.8532C20.9592 15.9142 21.0325 15.9445 21.1016 15.9306C21.1728 15.9139 21.2263 15.857 21.2366 15.7852C21.3155 15.1671 21.3887 14.4875 21.4638 13.7699C21.7141 11.4115 21.9966 8.74121 22.7187 6.4244L22.7243 6.40994C22.8766 5.92192 23.1051 5.18524 23.4099 4.60666C23.7406 3.97803 24.0748 3.69547 24.404 3.76866C25.0287 3.90467 25.5344 5.05734 25.8378 5.74522C25.9062 5.90019 25.9662 6.03621 26.0198 6.14573C27.4589 9.09013 28.2916 11.985 28.914 14.438C27.7961 15.7668 26.778 17.405 25.8857 19.3102C24.9849 19.3665 24.0409 19.2961 23.0425 19.2231C21.9786 19.1449 20.8764 19.0631 19.7698 19.1356C19.6379 19.1446 19.1726 19.1813 18.7286 19.2919C18.2093 19.4204 17.9256 19.6014 17.8643 19.8429C17.6911 20.5206 19.0342 21.2846 20.4232 22.0091C20.6059 22.1049 20.7642 22.1876 20.8576 22.2423C21.1131 22.3913 21.3476 22.5303 21.5754 22.6649C22.484 23.203 23.2082 23.6327 24.2309 24.0839C24.0944 24.7075 23.9492 25.3415 23.8096 25.9564C23.1017 29.056 22.3722 32.2544 22.5815 35.0147C22.3311 34.8289 22.052 34.6264 21.7623 34.4179C19.783 32.9829 16.7918 30.8163 15.9177 28.9071C15.718 28.4405 15.3199 27.0413 15.653 26.5947ZM23.8673 21.8691C24.6242 22.1026 25.4055 22.3446 26.1522 22.5853C26.5958 22.7306 27.0488 22.9017 27.4882 23.0675C28.6771 23.5166 29.9035 23.9812 31.0729 23.9422C31.1195 23.939 31.1637 23.9201 31.196 23.8846C31.2283 23.849 31.2414 23.8033 31.2385 23.756C31.1845 23.1279 30.525 22.946 30.0863 22.8239C29.998 22.7989 29.9132 22.7743 29.8418 22.7512C28.5917 22.3264 27.1868 21.8979 25.8275 21.4853C24.4121 21.0555 22.9595 20.6141 21.6284 20.1597C23.0105 20.1801 24.4122 20.2284 25.7777 20.2747C27.3711 20.329 29.019 20.386 30.624 20.3986C31.0199 21.3793 31.1873 22.2057 31.1707 23.0634C31.1701 23.065 31.1716 23.0683 31.171 23.0699C31.1801 23.4062 31.4822 23.4707 31.6484 23.5046C31.6899 23.5143 31.7491 23.5261 31.7806 23.5402C31.7792 23.5508 31.7752 23.5658 31.7659 23.5899C31.7559 23.6156 31.7524 23.6438 31.7543 23.6723C31.7724 23.8281 31.7237 23.8822 31.7079 23.8992C31.6007 24.0231 31.2994 24.0254 31.0598 24.0286C30.9655 24.0308 30.8761 24.0303 30.7955 24.0379C30.7572 24.0415 30.7205 24.0597 30.692 24.0856C30.5895 24.1854 30.4871 24.2898 30.3859 24.391C29.9129 24.872 29.4659 25.3262 28.8693 25.4182C27.6347 24.7102 26.2999 24.0297 25.0101 23.3687C23.2904 22.4891 21.5244 21.586 19.9593 20.6056C21.2424 21.0598 22.5704 21.4696 23.8673 21.8691ZM26.5868 25.4034C27.2143 25.8585 27.8616 26.3267 28.7311 26.4487C29.4307 26.5463 29.9372 26.1032 30.4253 25.6761C30.6292 25.4983 30.8212 25.3297 31.0234 25.2039C31.1786 25.1042 31.3689 25.0329 31.57 24.9575C31.9723 24.8067 32.4263 24.6344 32.6155 24.1921C32.8822 23.571 32.5903 23.1777 32.3085 22.7986C32.2671 22.741 32.2257 22.6833 32.1832 22.6262C32.1092 22.3498 32.0762 22.0394 32.0408 21.7114C31.9543 20.9146 31.866 20.0892 31.1689 19.6728C30.4812 19.261 29.5582 19.3318 28.6634 19.4015C27.9718 19.4548 27.2582 19.5099 26.6597 19.347C27.0474 18.8024 27.3467 18.2429 27.6378 17.6997C27.924 17.162 28.1961 16.6557 28.5367 16.1852C29.3324 15.0892 30.6478 13.8065 34.349 12.6082C35.5145 12.2313 36.693 12.0212 37.8506 11.9841C39.151 11.9432 40.4243 12.1201 41.6394 12.5138C43.3456 13.0684 44.8613 13.8808 46.2732 14.9987C47.4258 15.9133 48.4943 17.0135 49.6381 18.4654C50.5998 19.6887 51.3647 20.9807 51.9084 22.3071C52.4617 23.6565 52.773 25.0101 52.8352 26.3318C52.1542 26.6221 51.3994 26.7859 50.6646 26.9436C49.5474 27.1839 48.3936 27.4305 47.44 28.1354C47.3749 28.1841 47.3539 28.2693 47.385 28.3414C47.4173 28.4131 47.4968 28.4559 47.5742 28.4397C47.9758 28.3599 48.3785 28.2795 48.7801 28.1996C54.5439 27.0564 60.5044 25.8732 66.1188 23.943C66.9754 23.6477 67.8152 23.3838 69.1383 23.0607C69.2666 23.03 69.4203 22.9889 69.5817 22.9443C70.3781 22.7283 71.7105 22.369 72.205 22.6643C72.6361 22.923 72.5993 24.0685 72.2843 24.8474C71.9127 25.7577 71.1657 26.6019 69.9969 27.4304C68.9866 28.1457 67.822 28.7272 66.8885 29.1969C66.6017 29.3407 66.3317 29.4744 66.0899 29.6024C65.5089 29.9066 64.9324 30.2015 64.3728 30.4862C62.4819 31.4514 60.6967 32.3633 59.2083 33.4199C59.2052 33.4233 59.1996 33.4258 59.195 33.4305C59.1573 33.4325 59.12 33.4476 59.0908 33.4751L59.0837 33.4816C59.0545 33.5091 59.0343 33.5447 59.0299 33.5845L59.0168 33.6183C58.9928 33.6801 59.0047 33.7495 59.051 33.797C59.0965 33.8442 59.1621 33.8632 59.2249 33.8441C61.2046 33.2387 63.0541 32.2731 64.8421 31.342C65.9158 30.7825 67.0273 30.2044 68.1508 29.7096C68.8478 29.9615 69.6262 30.2708 70.205 30.6561C70.8679 31.0962 71.1393 31.5425 71.0337 32.0218C70.8021 33.0789 68.7541 33.9369 68.0824 34.2198C66.7449 34.7804 65.2715 35.2791 63.8483 35.7603C61.701 36.4883 59.4804 37.2406 57.726 38.2089C57.6546 38.2477 57.6216 38.3328 57.6456 38.4115C57.6699 38.4893 57.7481 38.5381 57.8296 38.5281C59.5831 38.3127 61.1855 37.7125 62.7364 37.133C63.6095 36.8072 64.5127 36.4681 65.4284 36.2041C65.7365 36.3485 66.1442 36.4244 66.5759 36.505C67.2105 36.6227 67.8667 36.7441 68.0966 37.0828C68.1831 37.2078 68.2058 37.3636 68.1668 37.5573C68.0253 38.2889 66.6492 38.7727 65.8267 39.0608C65.6844 39.111 65.5484 39.159 65.434 39.2014C63.5452 39.9179 61.3818 40.4586 59.2925 40.9799C58.0301 41.2943 56.8375 41.5932 55.7765 41.9127C55.6968 41.9372 55.6459 42.0136 55.6559 42.0951C55.665 42.1763 55.732 42.242 55.8144 42.2462C57.3557 42.3422 59.0766 41.9321 60.5975 41.573L60.6119 41.5693C60.7512 41.5365 60.9024 41.4944 61.0521 41.4517C61.4329 41.3443 61.8649 41.2217 62.088 41.2731C62.7718 41.4284 63.341 41.9264 63.5733 42.5738C63.8098 43.2292 63.6855 43.9259 63.2205 44.5339C62.5002 45.4762 59.8584 46.2352 58.732 46.5589C57.8203 46.8198 57.0195 47.0045 56.2858 47.1257C56.2245 47.1361 56.1615 47.1459 56.0953 47.1571C55.3682 47.278 54.3738 47.4423 53.7262 47.3703C53.2411 47.3153 52.7463 47.1686 52.2697 47.0272C51.9206 46.9241 51.5588 46.818 51.2014 46.7459C50.2942 46.5641 49.3637 46.4231 48.3795 46.2752C46.8628 46.0445 45.2964 45.8085 43.8327 45.4126C43.7524 45.3908 43.666 45.4302 43.6327 45.5088C43.5985 45.5852 43.6252 45.676 43.6969 45.7222C44.1162 45.9921 44.5706 46.2145 45.0509 46.4009C46.2768 46.8763 47.674 47.1198 49.1303 47.375C49.5436 47.4485 49.9729 47.5235 50.3976 47.6032C51.931 47.8958 53.6712 48.2269 55.2619 48.1286C56.6065 48.0476 57.9386 47.7825 59.5838 47.2672L59.6386 47.2497C61.4068 46.6962 63.076 46.1718 64.2899 44.7361C64.7072 44.5468 65.4439 44.4961 65.8739 44.7267C66.0752 44.8343 66.1866 44.9903 66.2109 45.1993C66.2443 45.4729 66.0908 45.8449 65.7764 46.2433C65.4645 46.6399 65.0914 46.9443 64.8655 47.0859C64.3557 47.4066 63.5732 47.6465 62.7439 47.9024C62.3452 48.025 61.9354 48.1498 61.5536 48.2882C61.3469 48.3614 61.1352 48.4355 60.93 48.5047C59.9005 48.8549 58.9289 49.1868 58.3208 49.792C58.2649 49.8479 58.2547 49.9336 58.294 50.0015C58.3341 50.0698 58.4167 50.0999 58.4926 50.0758C59.5804 49.7325 60.6864 49.3686 61.8576 48.9818C63.8651 48.3188 65.9404 47.6312 68.0152 47.0378C68.2229 46.9788 68.4401 46.905 68.6478 46.834C69.4459 46.5659 70.2708 46.288 71.0592 46.5522C70.5791 47.9546 69.5026 48.452 68.3652 48.9756C67.8013 49.2356 67.2182 49.5048 66.727 49.8919C66.6845 49.9253 66.6587 49.98 66.662 50.0358C66.665 50.0924 66.6937 50.1423 66.7421 50.1722C67.3294 50.5405 68.0292 50.1539 68.7061 49.7788C69.117 49.551 69.543 49.3151 69.8707 49.3091C70.8638 49.2932 73.8823 50.3818 74.7934 51.1612C73.8833 52.4569 72.1127 53.3311 70.9305 53.9177C67.9476 55.3965 64.4056 55.9412 60.6566 56.5193C59.6747 56.6707 58.6611 56.8275 57.6611 57.0015C55.1096 57.4443 52.9464 57.6246 50.6426 57.5886C48.1248 57.5491 46.166 57.3716 44.2933 57.0103C41.9579 56.5601 39.7287 55.81 37.4756 54.7161C36.0317 54.0165 34.6548 53.061 33.2676 51.7957C31.9272 50.5743 30.7795 49.2447 29.929 48.2208C27.9312 45.8185 26.0384 43.4291 24.8416 40.6222C23.9071 38.4307 23.5164 35.9235 23.6491 32.9604C23.7182 31.4124 23.9306 29.0587 24.9733 24.5216C25.5725 24.6708 26.0662 25.0278 26.5868 25.4034ZM46.6033 64.2118C45.9537 64.3379 45.8334 65.1507 45.7254 65.8675C45.6872 66.1115 45.6528 66.3477 45.5994 66.545C45.5765 66.5158 45.5527 66.477 45.5322 66.4229C45.418 66.1216 45.4574 65.5482 45.6333 64.8873C45.804 64.2521 46.0807 63.6219 46.3572 63.2403C46.4011 63.1797 46.4007 63.0973 46.3553 63.0381C45.6996 62.1719 44.8897 61.3006 44.1082 60.4586C43.0825 59.3575 42.0277 58.222 41.3345 57.1094C41.515 57.1636 41.7036 57.2682 41.8975 57.3758C42.0522 57.4607 42.2107 57.5499 42.3714 57.6123C43.465 59.7535 45.2019 61.5704 46.5949 62.9157C46.6363 62.9567 46.6989 62.9717 46.7552 62.9575C46.9108 62.9162 47.0333 62.8196 47.1371 62.7046C47.128 63.5143 47.0021 64.3869 46.8814 65.2365C46.7856 65.9146 46.6846 66.6111 46.6424 67.2823C46.465 66.9723 46.5572 66.5155 46.7142 65.8795C46.8531 65.3262 46.9949 64.7556 46.7916 64.3052C46.7734 64.264 46.7371 64.2314 46.6977 64.2161C46.668 64.2092 46.6352 64.2057 46.6033 64.2118Z" fill="#FF6A01"/>
  </g>
</svg>