<svg xmlns="http://www.w3.org/2000/svg" width="65" height="97" viewBox="0 0 65 97" fill="none">
  <path d="M11.4297 84.6478C12.2382 86.5789 13.3627 88.3613 14.7647 89.9341L16.7657 88.1555C15.5603 86.8031 14.5956 85.2743 13.8992 83.6133L11.4297 84.6478Z" fill="#FF6A01"/>
  <path d="M10.5 72.8181L13.1018 73.4502C13.5263 71.7009 14.2411 70.0399 15.2241 68.5166L12.9695 67.0742C11.8266 68.8455 10.9961 70.7785 10.5 72.8181Z" fill="#FF6A01"/>
  <path d="M47.7927 74.3632C47.4675 72.2832 46.8023 70.2932 45.8101 68.4355L43.4453 69.6869C44.2924 71.2818 44.8693 72.9924 45.1468 74.7784L47.7927 74.3632Z" fill="#FF6A01"/>
  <path d="M16.8438 91.9427C18.4681 93.2877 20.289 94.3461 22.2551 95.0866L23.2013 92.5877C21.5127 91.9519 19.9509 91.0424 18.5526 89.8848L16.8438 91.9427Z" fill="#FF6A01"/>
  <path d="M12.6321 77.3257C12.6321 76.848 12.6505 76.3721 12.6946 75.9053L10.0248 75.6738C9.97517 76.2214 9.95312 76.7726 9.95312 77.3257C9.95312 78.871 10.1405 80.4108 10.5117 81.8991L13.1099 81.2579C12.792 79.979 12.6321 78.6579 12.6321 77.3257Z" fill="#FF6A01"/>
  <path d="M33.4219 93.032L34.144 95.6063C36.1707 95.0367 38.078 94.1418 39.8144 92.9438L38.2875 90.748C36.801 91.777 35.1619 92.5469 33.4219 93.032Z" fill="#FF6A01"/>
  <path d="M40.2188 89.1818L42.058 91.124C43.5942 89.6797 44.8675 88.0058 45.845 86.1481L43.4747 84.9023C42.635 86.5009 41.5362 87.9397 40.2188 89.1818Z" fill="#FF6A01"/>
  <mask id="mask0_5_209" style="mask-type:luminance" maskUnits="userSpaceOnUse" x="24" y="93" width="8" height="4">
    <path d="M24.6094 93.248H31.6652V96.3111H24.6094V93.248Z" fill="white"/>
  </mask>
  <g mask="url(#mask0_5_209)">
    <path d="M28.9974 93.6381C28.9974 93.6381 28.9937 93.6381 28.9882 93.6381C27.8472 93.6381 26.7043 93.5186 25.5963 93.2871L25.0469 95.9C26.3331 96.1719 27.6634 96.3097 28.9882 96.3097H29.0029C29.7655 96.3097 30.539 96.262 31.2979 96.1719L30.9763 93.5186C30.324 93.5976 29.6589 93.6381 28.9974 93.6381Z" fill="#FF6A01"/>
  </g>
  <path d="M45.3471 77.3253C45.3471 79.1371 45.0531 80.9194 44.4688 82.6209L47.0044 83.4882C47.6825 81.5074 48.0261 79.4366 48.0261 77.2978V77.25H45.3471V77.3253Z" fill="#FF6A01"/>
  <path d="M41.0891 62.6699C40.3743 63.2616 39.6118 63.8 38.8125 64.285C40.0675 65.2203 41.1736 66.3301 42.1126 67.5851L44.2587 65.992C43.34 64.7573 42.2761 63.6438 41.0891 62.6699Z" fill="#FF6A01"/>
  <path d="M37.934 75.5231L32.4823 78.0331L31.3596 75.6076L36.8114 73.0977L37.934 75.5231Z" fill="#FF6A01"/>
  <path d="M26.6177 75.61L25.5097 78.0428L20.3281 75.6945L21.4379 73.2617L26.6177 75.61Z" fill="#FF6A01"/>
  <path d="M28.9953 83.4334C30.0225 83.4334 30.8585 84.2676 30.8585 85.291H33.5375C33.5375 82.7939 31.4998 80.7617 28.9953 80.7617C26.4909 80.7617 24.4531 82.7939 24.4531 85.291H27.1321C27.1321 84.2676 27.9682 83.4334 28.9953 83.4334Z" fill="#FF6A01"/>
  <path d="M28.9953 52.7029C30.0225 52.7029 30.8585 53.5371 30.8585 54.5624H33.5375C33.5375 52.0635 31.4998 50.0312 28.9953 50.0312C26.4909 50.0312 24.4531 52.0635 24.4531 54.5624H27.1321C27.1321 53.5371 27.9682 52.7029 28.9953 52.7029Z" fill="#FF6A01"/>
  <path d="M25.6563 46.097C25.6563 46.2348 25.6435 46.3708 25.6177 46.5049C25.5902 46.639 25.5497 46.7695 25.4983 46.8963C25.445 47.0231 25.3807 47.1443 25.3035 47.2583C25.2282 47.3722 25.1418 47.4788 25.0444 47.5743C24.9471 47.6717 24.8405 47.7581 24.7266 47.8352C24.6126 47.9106 24.4914 47.9749 24.3646 48.0282C24.2378 48.0796 24.1055 48.12 23.9714 48.1476C23.8372 48.1733 23.6994 48.1862 23.5634 48.1862C23.4256 48.1862 23.2897 48.1733 23.1537 48.1476C23.0196 48.12 22.8873 48.0796 22.7605 48.0282C22.6337 47.9749 22.5124 47.9106 22.3985 47.8352C22.2846 47.7581 22.178 47.6717 22.0825 47.5743C21.9851 47.4788 21.8969 47.3722 21.8215 47.2583C21.7444 47.1443 21.6801 47.0231 21.6268 46.8963C21.5753 46.7695 21.5349 46.639 21.5092 46.5049C21.4816 46.3708 21.4688 46.2348 21.4688 46.097C21.4688 45.961 21.4816 45.8251 21.5092 45.6891C21.5349 45.555 21.5753 45.4245 21.6268 45.2977C21.6801 45.1709 21.7444 45.0515 21.8215 44.9357C21.8969 44.8218 21.9851 44.7171 22.0825 44.6197C22.178 44.5223 22.2846 44.4359 22.3985 44.3606C22.5124 44.2834 22.6337 44.2191 22.7605 44.1677C22.8873 44.1144 23.0196 44.0758 23.1537 44.0482C23.2897 44.0207 23.4256 44.0078 23.5634 44.0078C23.6994 44.0078 23.8372 44.0207 23.9714 44.0482C24.1055 44.0758 24.2378 44.1144 24.3646 44.1677C24.4914 44.2191 24.6126 44.2834 24.7266 44.3606C24.8405 44.4359 24.9471 44.5223 25.0444 44.6197C25.1418 44.7171 25.2282 44.8218 25.3035 44.9357C25.3807 45.0515 25.445 45.1709 25.4983 45.2977C25.5497 45.4245 25.5902 45.555 25.6177 45.6891C25.6435 45.8251 25.6563 45.961 25.6563 46.097Z" fill="#FF6A01"/>
  <path d="M36.5097 46.097C36.5097 46.2348 36.4968 46.3708 36.4693 46.5049C36.4436 46.639 36.4031 46.7695 36.3499 46.8963C36.2984 47.0231 36.2341 47.1443 36.1569 47.2583C36.0797 47.3722 35.9934 47.4769 35.896 47.5743C35.7986 47.6717 35.6939 47.7581 35.5781 47.8352C35.4642 47.9106 35.3448 47.9749 35.2161 48.0282C35.0894 48.0796 34.9589 48.12 34.8248 48.1458C34.6888 48.1733 34.5528 48.1862 34.415 48.1862C34.2772 48.1862 34.1412 48.1733 34.0071 48.1458C33.8711 48.12 33.7407 48.0796 33.6139 48.0282C33.4871 47.9749 33.3658 47.9106 33.2519 47.8352C33.138 47.7581 33.0314 47.6717 32.934 47.5743C32.8366 47.4769 32.7503 47.3722 32.6749 47.2583C32.5978 47.1443 32.5335 47.0231 32.4802 46.8963C32.4287 46.7695 32.3883 46.639 32.3607 46.5049C32.335 46.3708 32.3203 46.2348 32.3203 46.097C32.3203 45.961 32.335 45.8251 32.3607 45.6891C32.3883 45.555 32.4287 45.4245 32.4802 45.2977C32.5335 45.1709 32.5978 45.0515 32.6749 44.9376C32.7503 44.8218 32.8366 44.7171 32.934 44.6197C33.0314 44.5223 33.138 44.4359 33.2519 44.3606C33.3658 44.2834 33.4871 44.2191 33.6139 44.1677C33.7407 44.1144 33.8711 44.0758 34.0071 44.0482C34.1412 44.0207 34.2772 44.0078 34.415 44.0078C34.5528 44.0078 34.6888 44.0207 34.8248 44.0482C34.9589 44.0758 35.0894 44.1144 35.2161 44.1677C35.3448 44.2191 35.4642 44.2834 35.5781 44.3606C35.6939 44.4359 35.7986 44.5223 35.896 44.6197C35.9934 44.7171 36.0797 44.8218 36.1569 44.9376C36.2341 45.0515 36.2984 45.1709 36.3499 45.2977C36.4031 45.4245 36.4436 45.555 36.4693 45.6891C36.4968 45.8251 36.5097 45.961 36.5097 46.097Z" fill="#FF6A01"/>
  <path d="M16.8822 62.6729C16.1049 63.3087 15.381 64.0087 14.7121 64.7658L16.7168 66.5334C17.4573 65.6973 18.275 64.944 19.1588 64.2807C22.0289 66.0171 25.3914 67.0148 28.9837 67.0148C32.5777 67.0148 35.9403 66.0171 38.8104 64.2843C39.6097 63.7993 40.3722 63.2609 41.087 62.6692C45.315 59.1817 48.016 53.9119 48.016 48.0247C48.016 42.8578 45.9323 38.1631 42.5606 34.7344C41.8661 35.3095 41.1348 35.8442 40.3685 36.3311C43.4334 39.2949 45.337 43.4402 45.337 48.0247C45.337 57.0209 38.0019 64.3431 28.9837 64.3431C25.6946 64.3431 22.6316 63.3675 20.0646 61.6917C19.756 61.4932 19.4528 61.2838 19.1625 61.0596C15.1991 58.0811 12.6321 53.346 12.6321 48.0247C12.6321 43.4402 14.5357 39.2949 17.5988 36.3311C16.8344 35.8442 16.1013 35.3095 15.4085 34.7344C12.0368 38.1631 9.95312 42.8578 9.95312 48.0247C9.95312 53.9119 12.6542 59.1817 16.8822 62.6729Z" fill="#FF6A01"/>
  <mask id="mask1_5_209" style="mask-type:luminance" maskUnits="userSpaceOnUse" x="10" y="0" width="38" height="38">
    <path d="M10.0234 0H47.6545V37.2728H10.0234V0Z" fill="white"/>
  </mask>
  <g mask="url(#mask1_5_209)">
    <path d="M17.493 32.9072C18.2335 33.4934 19.0236 34.0281 19.8541 34.4966C22.546 36.0272 25.6679 36.9019 28.9881 36.9019C32.3103 36.9019 35.4303 36.0272 38.1221 34.4966C38.9527 34.0281 39.7446 33.4934 40.4851 32.9072C44.748 29.5263 47.484 24.3061 47.484 18.4501C47.484 8.26145 39.2026 0.000244141 28.9881 0.000244141C18.7756 0.000244141 10.4923 8.26145 10.4923 18.4501C10.4923 24.3061 13.2301 29.5263 17.493 32.9072ZM34.4123 14.1229C35.5699 14.1229 36.507 15.0582 36.507 16.2121C36.507 17.366 35.5699 18.3013 34.4123 18.3013C33.2566 18.3013 32.3176 17.366 32.3176 16.2121C32.3176 15.0582 33.2566 14.1229 34.4123 14.1229ZM28.99 24.7544C30.4416 24.7544 31.6672 23.9037 31.6672 22.8949H34.3462C34.3462 25.3939 31.9428 27.4261 28.99 27.4261C26.0372 27.4261 23.6338 25.3939 23.6338 22.8949H26.3128C26.3128 23.9019 27.5384 24.7544 28.99 24.7544ZM25.6605 16.2121C25.6605 17.366 24.7234 18.3013 23.5676 18.3013C22.41 18.3013 21.4711 17.366 21.4711 16.2121C21.4711 15.0582 22.41 14.1229 23.5676 14.1229C24.7234 14.1229 25.6605 15.0582 25.6605 16.2121ZM21.0026 4.57551L22.1179 6.50484C21.1146 7.0818 20.1849 7.78371 19.3544 8.59219L17.7962 6.99728C18.7609 6.06017 19.8394 5.24434 21.0026 4.57551ZM12.949 18.4501C12.949 15.9402 13.5168 13.5349 14.6394 11.3024C14.8949 10.7953 15.1815 10.2937 15.492 9.81226L17.3699 11.0158C17.1016 11.4329 16.8554 11.8629 16.6349 12.3002C15.6703 14.2203 15.1815 16.2893 15.1815 18.4501H12.949Z" fill="#FF6A01"/>
  </g>
  <path d="M57.6719 58.4509H60.3509V74.016H57.6719V58.4509Z" fill="#FF6A01"/>
  <mask id="mask2_5_209" style="mask-type:luminance" maskUnits="userSpaceOnUse" x="57" y="77" width="4" height="20">
    <path d="M57.5312 77.2559H60.3536V96.3121H57.5312V77.2559Z" fill="white"/>
  </mask>
  <g mask="url(#mask2_5_209)">
    <path d="M57.6719 77.4863H60.3509V96.2431H57.6719V77.4863Z" fill="#FF6A01"/>
  </g>
  <mask id="mask3_5_209" style="mask-type:luminance" maskUnits="userSpaceOnUse" x="0" y="0" width="10" height="10">
    <path d="M0 0H9.55477V9.51986H0V0Z" fill="white"/>
  </mask>
  <g mask="url(#mask3_5_209)">
    <path d="M6.21566 0.0957031H3.53665V3.25429H0.0234375V5.92595H3.53665V9.42998H6.21566V5.92595H9.37976V3.25429H6.21566V0.0957031Z" fill="#FF6A01"/>
  </g>
  <path d="M57.6719 10.0332H60.3509V55.1244H57.6719V10.0332Z" fill="#FF6A01"/>
  <mask id="mask4_5_209" style="mask-type:luminance" maskUnits="userSpaceOnUse" x="53" y="0" width="12" height="9">
    <path d="M53.2969 0.111328H64.5568V8.57832H53.2969V0.111328Z" fill="white"/>
  </mask>
  <g mask="url(#mask4_5_209)">
    <path d="M64.1793 6.13649L60.1699 0.717831C59.92 0.379739 59.5268 0.179456 59.106 0.175781C58.6761 0.179456 58.2865 0.365039 58.0293 0.697619L53.8546 6.11444C53.5441 6.51868 53.4908 7.06257 53.7168 7.52009C53.941 7.97578 54.4077 8.2661 54.9185 8.2661H57.1069V8.25875H60.8994V8.2661H63.1025C63.606 8.2661 64.069 7.98129 64.2969 7.53112C64.5247 7.08094 64.4788 6.54257 64.1793 6.13649Z" fill="#FF6A01"/>
  </g>
</svg>