<svg width="75" height="80" viewBox="0 0 75 80" fill="none" xmlns="http://www.w3.org/2000/svg">
<path d="M72.1438 63.6971C71.5375 65.2808 70.0364 66.3535 68.3555 66.7849C67.5646 66.9879 66.7125 67.0113 65.906 66.883C65.2891 66.7849 64.1552 66.1368 63.751 66.9355C62.1945 70.0126 58.5947 71.8479 55.0113 71.1513C53.2654 70.8122 51.7108 69.9008 50.5361 68.6533C50.0853 68.1743 49.7559 67.2639 48.9096 67.4825C48.4763 67.5952 48.042 67.911 47.6436 68.1072C47.1092 68.3705 46.5642 68.6086 45.9996 68.8087C44.3401 69.3975 42.4202 69.483 40.9929 68.3705C41.5613 67.4145 41.777 66.2738 41.6459 65.1856C41.4515 63.5688 40.4896 62.1755 39.0167 61.3351C38.3385 60.9474 37.5311 60.7201 36.745 60.6443C36.336 60.6054 35.9386 60.6045 35.5305 60.6443C35.3323 60.6637 35.137 60.6958 34.9417 60.7308C34.8475 60.7473 34.7289 60.7959 34.6114 60.8406C34.5861 60.7832 34.5628 60.7298 34.5405 60.6929C34.4044 60.4684 34.2422 60.2586 34.077 60.0516C33.7486 59.6416 33.3765 59.2772 32.9626 58.943C32.1853 58.3163 31.2758 57.8713 30.3052 57.5779C28.636 57.0717 26.8152 57.2777 25.2431 57.9646C25.4005 56.9939 25.8756 56.0554 26.6995 55.2936C27.2786 54.7592 28.0102 54.3735 28.773 54.1296C29.1538 54.0082 29.5503 53.9363 29.9496 53.9032C30.3615 53.8702 30.8328 53.9936 31.2088 53.7867C31.5498 53.5982 31.5858 53.2474 31.6499 52.919C31.7257 52.5333 31.8792 52.1699 32.0687 51.8221C32.4884 51.0574 33.1724 50.4803 33.9779 50.0916C34.8271 49.6826 35.8599 49.6728 36.7674 49.872C37.6681 50.0702 38.2588 50.4939 39.1692 50.0353C39.5005 49.8681 39.7075 49.5417 39.8756 49.2405C40.0961 48.8441 40.3837 48.4855 40.6927 48.1464C41.3612 47.4168 42.1909 46.8367 43.0576 46.3334C46.2717 44.4708 50.5526 43.9685 53.9824 45.6018C55.5214 46.3354 56.7952 47.5013 57.693 48.88C58.1225 49.5368 58.4275 50.248 58.6403 50.9904C58.7472 51.3615 58.8123 51.7395 58.8512 52.1213C58.8939 52.5469 58.8298 52.9355 59.028 53.331C59.3982 54.0684 60.8663 53.432 61.4561 53.3718C62.4928 53.2649 63.5489 53.4349 64.3456 54.1005C64.6663 54.3686 64.8917 54.7136 65.0248 55.0954C65.1443 55.4364 65.0335 55.7901 65.2337 56.1117C65.4241 56.4178 65.8098 56.4965 66.1538 56.4518C66.626 56.3896 67.104 56.4032 67.5772 56.446C69.2736 56.6014 70.8719 57.6119 71.7707 58.9508C72.7219 60.3664 72.7336 62.16 72.1438 63.6971ZM38.1908 69.1391C37.4767 69.5316 36.6527 69.6744 35.8356 69.6414C35.4751 69.6278 35.1312 69.5491 34.8426 69.8212C34.5171 70.1272 34.6668 70.5567 34.4996 70.922C34.1052 71.7828 33.0859 71.9995 32.1892 71.9752C31.4634 71.9548 30.1935 71.299 29.8971 72.3153C29.7922 72.6719 29.8631 73.0974 29.798 73.4676C29.73 73.8475 29.6056 74.2158 29.4648 74.5762C29.1509 75.3788 28.5884 76.0949 27.9617 76.7011C25.1965 79.3799 20.6969 78.9864 17.6159 77.049C16.862 76.5748 16.2139 75.955 15.7534 75.2194C15.3297 74.5422 14.6894 74.1332 13.8325 74.4081C12.8317 74.7288 11.9388 74.8638 10.9614 74.3673C10.1442 73.9515 9.65358 73.1577 9.47189 72.325C9.24453 71.2825 8.09026 71.6352 7.23329 71.4049C6.22865 71.1358 5.40764 70.4323 4.9092 69.588C3.91232 67.9022 4.94029 65.7093 6.64547 64.863C6.90003 64.7367 7.00302 64.5356 7.00011 64.3316C7.00302 64.2626 6.99428 64.1887 6.97096 64.1091C6.86894 63.7709 7.1954 63.5611 7.50049 63.4484C7.93188 63.29 8.36231 63.4406 8.74707 63.6339C9.34947 63.9371 10.2045 65.1953 10.9691 64.5103C11.2606 64.2499 11.3131 63.8632 11.4695 63.5261C11.6522 63.1345 11.8999 62.7809 12.2079 62.468C12.8648 61.8005 13.9199 61.6169 14.7167 62.1532C15.5211 62.6944 15.8806 61.6664 16.1653 61.2195C16.5996 60.5364 17.581 60.2352 18.3738 60.1983C19.4115 60.1507 20.4385 60.586 21.3411 61.0145C22.1582 61.4021 22.85 61.9356 23.4748 61.029C24.4609 59.5998 26.2856 58.7351 28.0617 58.6369C29.8408 58.5398 31.5226 59.3472 32.7002 60.5617C32.9849 60.8551 33.2113 61.1913 33.4182 61.5353C33.5922 61.8248 33.7068 62.1445 34.0857 62.2426C34.4433 62.3349 34.7882 62.1503 35.1224 62.0609C35.5859 61.9375 36.0659 61.9317 36.5429 61.9599C38.3715 62.0658 39.7716 63.3551 40.1836 64.9796C40.6062 66.6547 39.7269 68.2938 38.1908 69.1391ZM71.7182 56.8356C70.9273 56.1545 69.9654 55.6794 68.9511 55.3694C68.4419 55.2139 67.9066 55.142 67.3751 55.0935C67.1458 55.0721 66.7494 55.108 66.4424 55.1284C66.4317 54.9934 66.422 54.8583 66.3918 54.7408C66.3151 54.4425 66.1499 54.152 65.9857 53.8896C65.6087 53.2872 64.9956 52.817 64.3495 52.4915C63.6878 52.1582 62.9261 52.0465 62.1857 52.0135C61.799 51.995 61.4065 52.0348 61.0237 52.0854C60.7788 52.1184 60.5379 52.1582 60.2959 52.2039C60.3018 52.2029 60.2921 52.2049 60.2746 52.2078C60.2678 52.1164 60.2581 52.0241 60.2493 51.9318C60.2114 51.5578 60.1415 51.1866 60.055 50.8203C59.883 50.0848 59.5721 49.3775 59.2136 48.7071C58.4829 47.339 57.3588 46.1974 56.0792 45.2705C53.2595 43.2301 49.4479 42.9036 46.0832 43.6974C44.4004 44.0948 42.7904 44.8294 41.3855 45.7825C40.6432 46.2858 39.9718 46.8678 39.3946 47.5363C39.1158 47.8598 38.8709 48.2057 38.6513 48.5672C38.3861 49.0044 38.2753 48.9626 37.7973 48.7896C36.1242 48.1843 34.2548 48.3223 32.7323 49.224C32.0502 49.6282 31.5042 50.1965 31.0543 50.8193C30.827 51.1322 30.6695 51.481 30.516 51.8298C30.4179 52.0504 30.3985 52.3467 30.3382 52.5984C30.1371 52.5964 29.9175 52.5721 29.7514 52.5857C29.3569 52.6178 28.9692 52.6926 28.5874 52.7888C27.8237 52.9812 27.0979 53.3358 26.4557 53.7643C25.212 54.5921 24.3035 55.8018 23.9032 57.1844C23.7439 57.7343 23.6846 58.2978 23.7079 58.8585C23.5243 58.9993 23.3485 59.149 23.1774 59.3005C22.9724 59.4842 22.7898 59.6892 22.612 59.8971C22.5644 59.9544 22.5197 60.0118 22.473 60.0691C21.4596 59.5541 20.4054 59.0994 19.2609 58.9284C18.2329 58.7749 17.2496 58.9372 16.3218 59.3695C15.9292 59.5532 15.5765 59.833 15.2782 60.1313C15.1102 60.2994 14.9712 60.4985 14.8459 60.6958L14.8449 60.6977C14.8109 60.6812 14.7759 60.6666 14.7429 60.6559C14.4223 60.5568 14.1016 60.5131 13.7654 60.4956C13.1601 60.4655 12.5519 60.6666 12.0243 60.9231C11.4676 61.1952 11.044 61.6684 10.6806 62.1328C10.5057 62.3553 10.3735 62.605 10.2463 62.8528C10.2317 62.8809 10.2132 62.9227 10.1938 62.9723L10.1724 62.9558C9.88871 62.7342 9.58654 62.5448 9.26202 62.3815C8.64796 62.0716 7.98241 61.9977 7.30422 62.1134C6.35204 62.2756 5.58836 63.05 5.54172 63.9244C3.69954 65.0467 2.79789 67.193 3.26037 69.2207C3.50716 70.305 4.30486 71.2961 5.24926 71.9325C5.74576 72.2667 6.2782 72.5106 6.85631 72.6923C7.11184 72.7719 7.37904 72.8147 7.64526 72.8497C7.79974 72.8701 7.9999 72.8555 8.18645 72.8545C8.20976 72.9906 8.22725 73.1373 8.26223 73.2364C8.36522 73.5327 8.52068 73.8174 8.68877 74.0856C8.98705 74.5626 9.42525 74.9931 9.9062 75.3088C11.0459 76.0579 12.4334 76.2144 13.7596 75.8607C13.9015 75.8228 14.3251 75.5644 14.4281 75.712C14.6273 76.0006 14.7924 76.295 15.0169 76.57C15.4162 77.0597 15.8836 77.4746 16.3985 77.8535C17.51 78.6687 18.7955 79.2429 20.147 79.6063C22.7402 80.301 25.6492 79.9765 27.8733 78.5093C28.8808 77.8447 29.7057 76.9635 30.3227 75.9647C30.6268 75.4711 30.8522 74.928 31.0252 74.3839C31.1213 74.0817 31.1787 73.7679 31.2234 73.455C31.237 73.3646 31.2467 73.2743 31.2564 73.1839C31.3711 73.2101 31.4721 73.2315 31.5061 73.2374C31.8141 73.2859 32.125 73.3073 32.4359 73.3161C33.1073 73.3345 33.768 73.1684 34.3656 72.8924C34.8174 72.6845 35.2458 72.3065 35.5208 71.913C35.6607 71.7119 35.7929 71.4982 35.8716 71.2679C35.9085 71.16 35.9231 71.0396 35.9367 70.9191C36.1805 70.9346 36.4497 70.9745 36.6401 70.9589C37.0385 70.9259 37.4291 70.8452 37.8119 70.7374C38.6416 70.5023 39.3839 70.0582 40.0252 69.518C40.0612 69.4879 40.0942 69.4558 40.1292 69.4247C40.3944 69.6298 40.681 69.8105 40.9871 69.9669C42.1181 70.5479 43.4589 70.6946 44.7181 70.5003C46.2445 70.2662 47.6388 69.6317 48.9883 68.9438C49.0437 69.0147 49.1001 69.0857 49.1574 69.1566C49.3634 69.4121 49.5839 69.654 49.8152 69.8882C50.2845 70.3614 50.8344 70.7665 51.3989 71.1328C53.586 72.5533 56.3969 72.976 58.9512 72.3444C60.226 72.0296 61.3812 71.4117 62.415 70.6548C62.9669 70.2506 63.4508 69.7697 63.8851 69.2557C64.0969 69.005 64.2922 68.7446 64.4758 68.4755C64.571 68.3365 64.6527 68.1276 64.7479 67.9469C64.8849 67.9984 65.0258 68.0596 65.1317 68.0868C65.393 68.1548 65.6622 68.1937 65.9303 68.2277C66.4686 68.2967 67.0001 68.3054 67.5413 68.2627C68.6188 68.1772 69.6526 67.8507 70.5921 67.3523C72.5451 66.3146 73.644 64.4035 73.9238 62.3602C74.2056 60.3042 73.3272 58.2221 71.7182 56.8356Z" fill="#FF6A01"/>
<path d="M66.1216 39.9564V39.9525C66.1207 31.9843 62.8862 24.7623 57.6599 19.5419C52.4355 14.3185 45.2077 11.0859 37.2346 11.0859H37.2317C29.2577 11.0859 22.0299 14.3185 16.8055 19.5419C11.5792 24.7623 8.34472 31.9853 8.34375 39.9535V39.9545H8.34472L8.34375 39.9574C8.34375 47.9032 11.5608 55.1077 16.7608 60.3253L16.8541 60.4195L16.96 60.3379C17.3817 60.0105 17.886 59.789 18.431 59.7112L18.7371 59.6675L18.5146 59.4547C18.3795 59.3255 18.2454 59.1953 18.1133 59.0632C13.2193 54.1701 10.1947 47.4213 10.1937 39.9564C10.1947 32.4915 13.2193 25.7417 18.1133 20.8487C23.0093 15.9576 29.7629 12.9349 37.2327 12.9339C44.7024 12.9349 51.4561 15.9576 56.3521 20.8487C61.2461 25.7417 64.2707 32.4915 64.2717 39.9564C64.2717 44.5308 63.1339 48.835 61.1275 52.6097L61.0012 52.8478L61.2704 52.8293C61.4181 52.8206 61.5657 52.8147 61.7125 52.8147C62.1176 52.8147 62.516 52.8575 62.8871 52.9673L63.0086 53.0032L63.0649 52.8905C65.0169 49.0031 66.1187 44.6134 66.1216 39.97V39.9564Z" fill="#FF6A01"/>
<path d="M1.20635 52.634C2.97857 52.1035 4.72164 51.4875 6.43459 50.787C7.2867 50.4391 6.9136 49.0391 6.04886 49.3927C4.33688 50.0923 2.59381 50.7083 0.820617 51.2398C-0.0713226 51.506 0.308578 52.9022 1.20635 52.634Z" fill="#FF6A01"/>
<path d="M1.44248 35.1264C2.55206 35.1264 3.66164 35.1264 4.77219 35.1264C5.70591 35.1264 5.70591 33.6797 4.77219 33.6797C3.66164 33.6797 2.55206 33.6797 1.44248 33.6797C0.508758 33.6797 0.508758 35.1264 1.44248 35.1264Z" fill="#FF6A01"/>
<path d="M0.329495 14.5201C3.51152 16.645 6.5313 18.9914 9.37909 21.5468C10.0718 22.1676 11.0988 21.1484 10.4022 20.5237C7.46501 17.8877 4.34225 15.4635 1.06015 13.2706C0.281886 12.7498 -0.441965 14.0042 0.329495 14.5201Z" fill="#FF6A01"/>
<path d="M17.1478 11.4732C17.6735 12.0552 18.2001 12.6391 18.7257 13.2211C19.3524 13.9158 20.3726 12.8888 19.7488 12.198C19.2232 11.616 18.6975 11.0321 18.1709 10.4501C17.5442 9.7554 16.524 10.7814 17.1478 11.4732Z" fill="#FF6A01"/>
<path d="M36.5958 0.696648C36.76 3.1043 36.8154 5.51584 36.759 7.92836C36.7377 8.86208 38.1854 8.86013 38.2068 7.92836C38.2631 5.51584 38.2077 3.1043 38.0435 0.696648C37.9804 -0.229299 36.5317 -0.235128 36.5958 0.696648Z" fill="#FF6A01"/>
<path d="M54.89 13.0534C55.6498 12.0323 56.4106 11.0111 57.1714 9.98899C57.7291 9.23987 56.4718 8.51991 55.9209 9.2593C55.1611 10.2805 54.4003 11.3016 53.6396 12.3238C53.0819 13.0729 54.3391 13.7928 54.89 13.0534Z" fill="#FF6A01"/>
<path d="M62.9903 20.776C66.5804 18.4927 70.1715 16.2084 73.7616 13.9242C74.5466 13.4247 73.8208 12.1723 73.0309 12.6756C69.4408 14.9589 65.8507 17.2432 62.2596 19.5274C61.4746 20.0268 62.2003 21.2793 62.9903 20.776Z" fill="#FF6A01"/>
<path d="M67.1665 33.37C68.2761 33.4332 69.3847 33.4973 70.4933 33.5605C71.426 33.6139 71.4212 32.1672 70.4933 32.1138C69.3847 32.0496 68.2761 31.9865 67.1665 31.9233C66.2337 31.8699 66.2386 33.3166 67.1665 33.37Z" fill="#FF6A01"/>
<path d="M67.6406 46.3533C69.3312 47.2695 70.9431 48.3189 72.4481 49.5139C73.171 50.0882 74.2028 49.0709 73.4722 48.4908C71.868 47.217 70.1735 46.0812 68.3712 45.1038C67.5502 44.6598 66.8205 45.9083 67.6406 46.3533Z" fill="#FF6A01"/>
<path d="M38.284 16.0642C43.8533 16.3498 49.1127 19.0616 52.6085 23.396C52.9126 23.773 53.4402 23.2386 53.139 22.8655C49.5198 18.3766 44.0399 15.6085 38.284 15.3131C37.8002 15.2879 37.8021 16.0389 38.284 16.0642Z" fill="#FF6A01"/>
<path d="M54.5413 26.1123C55.6791 27.3345 56.5215 28.7531 57.0471 30.3378C57.1977 30.7945 57.9235 30.5992 57.771 30.1386C57.2045 28.4315 56.298 26.8983 55.0728 25.5818C54.7425 25.2271 54.212 25.7596 54.5413 26.1123Z" fill="#FF6A01"/>
<path d="M45.9657 48.3767C47.6796 47.6053 49.6481 47.6646 51.3669 48.3923C53.4335 49.2687 54.4605 51.0409 55.3369 53.0036C55.5341 53.4447 56.1812 53.0628 55.985 52.6256C55.0085 50.4366 53.8329 48.6294 51.5564 47.6646C49.6462 46.8552 47.4737 46.8795 45.5858 47.7287C45.1457 47.9279 45.5275 48.574 45.9657 48.3767Z" fill="#FF6A01"/>
<path d="M60.1733 55.6833C60.7912 55.4958 61.417 55.7785 61.7026 56.3527C61.9183 56.7861 62.5654 56.4052 62.3516 55.9738C61.9212 55.111 60.8933 54.6806 59.9741 54.9595C59.5116 55.0994 59.7098 55.8242 60.1733 55.6833Z" fill="#FF6A01"/>
<path d="M25.3066 62.0992C27.451 61.0868 30.2405 61.2811 31.4871 63.544C31.7202 63.9676 32.3693 63.5887 32.1351 63.165C30.6816 60.5252 27.4325 60.2687 24.9277 61.4511C24.4905 61.6581 24.8723 62.3052 25.3066 62.0992Z" fill="#FF6A01"/>
<path d="M35.2386 64.5189C36.0178 64.3091 36.8126 64.6647 37.1915 65.371C37.4208 65.7986 38.0689 65.4196 37.8396 64.9931C37.3033 63.9933 36.1315 63.5017 35.0394 63.7951C34.573 63.9214 34.7712 64.6453 35.2386 64.5189Z" fill="#FF6A01"/>
</svg>
