<svg width="134" height="108" viewBox="0 0 134 108" fill="none" xmlns="http://www.w3.org/2000/svg">
<g clip-path="url(#clip0_5_1617)">
<path fill-rule="evenodd" clip-rule="evenodd" d="M43.7956 52.5901C23.1537 54.9367 20.0939 74.9517 20.1112 86.7019L27.588 86.0807C27.588 75.7282 30.1819 60.9297 44.7331 59.2791C61.8378 57.3408 67.1637 72.145 68.8086 82.6529L76.7111 81.9915C74.8188 70.1205 68.0494 49.8294 43.7956 52.5901Z" fill="#29AEFD"/>
<path fill-rule="evenodd" clip-rule="evenodd" d="M42.9368 46.3049C15.3989 49.4394 13.2191 77.0291 13.3686 87.2666L20.1093 86.6915C20.1093 74.9413 23.1518 54.9263 43.7938 52.5797C68.0476 49.819 74.817 70.1101 76.7035 81.9811L83.7145 81.406C82.3571 71.617 75.5589 42.5895 42.9368 46.3049Z" fill="#A089E4"/>
<path fill-rule="evenodd" clip-rule="evenodd" d="M46.2035 67.3899C37.0414 68.4654 34.5281 77.6619 34.0852 85.5414L40.7684 84.9663C41.1365 79.5772 42.6376 74.0961 47.1409 73.5152C52.484 72.825 55.1297 78.1968 56.441 83.6607L63.153 83.0856C61.3873 75.1601 57.0104 66.1245 46.2035 67.3899Z" fill="#FD6085"/>
<path fill-rule="evenodd" clip-rule="evenodd" d="M44.7239 59.281C30.1728 60.9317 27.5731 75.7186 27.5789 86.0827L34.0837 85.5421C34.5266 77.6626 37.04 68.466 46.202 67.3905C57.009 66.1252 61.3858 75.1607 63.1515 83.1207L68.7994 82.6549C67.1603 72.147 61.8574 57.3428 44.7239 59.281Z" fill="#FFA4AC"/>
<path fill-rule="evenodd" clip-rule="evenodd" d="M42.0607 41.1001C4.50383 45.3735 6.45357 83.1546 6.83317 87.8075L13.3668 87.2669C13.2173 77.0293 15.397 49.4397 42.9349 46.3052C75.5571 42.5897 82.3553 71.6115 83.7126 81.3889L90.183 80.8541C90.183 80.8541 88.3138 35.8088 42.0607 41.1001Z" fill="#F1854F"/>
<path d="M61.4081 100.023C61.0976 99.7237 60.4764 95.5251 59.9128 95.5539C59.3491 95.5826 58.8545 99.7581 58.59 100.028C58.0608 100.604 54.1901 100.972 54.2246 101.507C54.2591 102.041 58.0551 102.289 58.5957 102.806C58.8948 103.094 59.5217 107.31 60.0853 107.275C60.649 107.241 61.1321 103.088 61.4081 102.806C61.92 102.272 65.8195 101.863 65.7908 101.328C65.762 100.793 61.92 100.523 61.4081 100.023Z" fill="#29AEFD"/>
<path d="M88.9655 5.18794C88.6549 4.88887 88.0338 0.690312 87.4701 0.724821C86.9065 0.75933 86.4119 4.92337 86.1473 5.19944C85.6182 5.77458 81.7475 6.13692 81.782 6.67181C81.8165 7.20669 85.6124 7.45399 86.1473 7.97738C86.4521 8.26495 87.079 12.475 87.6427 12.4463C88.2063 12.4175 88.6894 8.25919 88.9655 7.97162C89.4774 7.44249 93.3769 7.03415 93.3481 6.49351C93.3193 5.95288 89.4659 5.69407 88.9655 5.18794Z" fill="#29AEFD"/>
<path d="M21.5075 33.8129C21.1969 33.5139 20.5757 29.3153 20.0121 29.3498C19.4484 29.3843 18.9538 33.5483 18.695 33.8187C18.1601 34.3938 14.2951 34.7619 14.3239 35.2968C14.3526 35.8317 18.1544 36.079 18.695 36.5966C18.9941 36.8899 19.6267 41.1 20.1904 41.0655C20.754 41.031 21.2314 36.8784 21.5075 36.5966C22.0193 36.0617 25.9188 35.6534 25.8901 35.1185C25.8613 34.5836 22.0251 34.3133 21.5075 33.8129Z" fill="#29AEFD"/>
<path fill-rule="evenodd" clip-rule="evenodd" d="M85.2533 21.8274C85.2533 21.8274 99.5744 2.31273 122.264 15.7193C144.953 29.1259 129.58 57.3022 119.279 67.8331C105.7 81.7113 79.7894 99.6271 72.3125 98.8391C64.8357 98.0512 33.4673 56.474 32.0525 34.607C30.6376 12.7401 46.5289 2.1862 60.3496 2.84761C74.1703 3.50903 85.2533 21.8274 85.2533 21.8274Z" fill="#F9D555"/>
<path fill-rule="evenodd" clip-rule="evenodd" d="M106.263 69.5352C106.044 69.5033 105.821 69.5585 105.642 69.6891C105.463 69.8198 105.343 70.0153 105.307 70.2338C105.27 70.4522 105.321 70.6761 105.449 70.8574C105.576 71.0386 105.769 71.1628 105.987 71.2031C106.206 71.2351 106.429 71.1798 106.607 71.0492C106.786 70.9186 106.906 70.723 106.943 70.5046C106.979 70.2861 106.928 70.0622 106.801 69.881C106.674 69.6997 106.48 69.5756 106.263 69.5352Z" fill="white"/>
<path fill-rule="evenodd" clip-rule="evenodd" d="M64.1604 72.9977C63.9478 72.981 63.7367 73.0447 63.5688 73.1762C63.4009 73.3077 63.2885 73.4974 63.2538 73.7078C63.2191 73.9182 63.2646 74.134 63.3814 74.3124C63.4982 74.4909 63.6777 74.619 63.8844 74.6714C64.0969 74.6882 64.3081 74.6245 64.476 74.493C64.6439 74.3615 64.7562 74.1718 64.791 73.9614C64.8257 73.751 64.7801 73.5352 64.6634 73.3567C64.5466 73.1783 64.3671 73.0502 64.1604 72.9977Z" fill="white"/>
<path fill-rule="evenodd" clip-rule="evenodd" d="M100.877 30.5177C100.655 30.4803 100.428 30.5323 100.246 30.6623C100.063 30.7923 99.9391 30.9896 99.9017 31.2107C99.8643 31.4319 99.9164 31.6589 100.046 31.8417C100.176 32.0245 100.374 32.1482 100.595 32.1856C100.704 32.2041 100.816 32.2009 100.925 32.1761C101.033 32.1513 101.135 32.1053 101.226 32.041C101.316 31.9766 101.393 31.8951 101.452 31.801C101.511 31.7069 101.551 31.6021 101.57 31.4926C101.588 31.383 101.585 31.2709 101.56 31.1627C101.535 31.0544 101.489 30.9521 101.425 30.8616C101.361 30.7711 101.279 30.6941 101.185 30.6351C101.091 30.5761 100.986 30.5362 100.877 30.5177Z" fill="white"/>
<path fill-rule="evenodd" clip-rule="evenodd" d="M84.3936 39.4597C84.181 39.4429 83.9698 39.5066 83.802 39.6381C83.6341 39.7696 83.5216 39.9593 83.4869 40.1697C83.4522 40.3801 83.4978 40.5959 83.6145 40.7743C83.7313 40.9528 83.9108 41.0809 84.1175 41.1333C84.3301 41.1501 84.5412 41.0864 84.7091 40.9549C84.877 40.8234 84.9894 40.6337 85.0241 40.4233C85.0588 40.2129 85.0133 39.9971 84.8965 39.8187C84.7798 39.6402 84.6003 39.5121 84.3936 39.4597Z" fill="white"/>
<path fill-rule="evenodd" clip-rule="evenodd" d="M45.1056 31.6095C44.9961 31.591 44.884 31.5942 44.7757 31.619C44.6675 31.6438 44.5652 31.6898 44.4746 31.7541C44.3841 31.8185 44.3071 31.9 44.2481 31.9941C44.1891 32.0882 44.1492 32.193 44.1307 32.3025C44.1122 32.4121 44.1155 32.5241 44.1403 32.6324C44.1651 32.7406 44.211 32.843 44.2753 32.9335C44.3397 33.024 44.4213 33.101 44.5154 33.16C44.6095 33.219 44.7143 33.2589 44.8238 33.2774C45.045 33.3147 45.2719 33.2628 45.4547 33.1328C45.6376 33.0028 45.7613 32.8055 45.7987 32.5844C45.836 32.3632 45.784 32.1362 45.654 31.9534C45.5241 31.7705 45.3268 31.6469 45.1056 31.6095Z" fill="white"/>
<path fill-rule="evenodd" clip-rule="evenodd" d="M113.753 39.4597C113.54 39.4429 113.329 39.5066 113.161 39.6381C112.993 39.7696 112.881 39.9593 112.846 40.1697C112.812 40.3801 112.857 40.5959 112.974 40.7743C113.091 40.9528 113.27 41.0809 113.477 41.1333C113.689 41.1501 113.901 41.0864 114.068 40.9549C114.236 40.8234 114.349 40.6337 114.383 40.4233C114.418 40.2129 114.373 39.9971 114.256 39.8187C114.139 39.6402 113.96 39.5121 113.753 39.4597Z" fill="white"/>
<path fill-rule="evenodd" clip-rule="evenodd" d="M91.1439 78.7941C90.9227 78.7567 90.6958 78.8087 90.513 78.9387C90.3301 79.0687 90.2064 79.2659 90.1691 79.4871C90.1317 79.7083 90.1837 79.9352 90.3137 80.1181C90.4437 80.3009 90.6409 80.4246 90.8621 80.462C91.0833 80.4994 91.3102 80.4473 91.4931 80.3174C91.6759 80.1874 91.7996 79.9901 91.837 79.7689C91.8744 79.5477 91.8223 79.3208 91.6924 79.138C91.5624 78.9551 91.3651 78.8314 91.1439 78.7941Z" fill="white"/>
<path fill-rule="evenodd" clip-rule="evenodd" d="M62.4931 25.3757C62.2806 25.3589 62.0694 25.4227 61.9015 25.5541C61.7336 25.6856 61.6213 25.8753 61.5865 26.0857C61.5518 26.2961 61.5974 26.5119 61.7141 26.6903C61.8309 26.8688 62.0104 26.9969 62.2171 27.0494C62.4297 27.0661 62.6408 27.0024 62.8087 26.8709C62.9766 26.7394 63.089 26.5497 63.1237 26.3393C63.1584 26.1289 63.1129 25.9131 62.9961 25.7347C62.8793 25.5562 62.6998 25.4281 62.4931 25.3757Z" fill="white"/>
<path fill-rule="evenodd" clip-rule="evenodd" d="M128.876 46.0172C129.238 44.8669 127.501 44.079 127.15 45.2465C126.258 48.285 124.982 51.1975 123.354 53.9139C122.704 54.9434 124.177 56.157 124.827 55.1217C126.56 52.2727 127.921 49.2129 128.876 46.0172Z" fill="white"/>
<path fill-rule="evenodd" clip-rule="evenodd" d="M122.3 57.2615C122.077 57.1647 121.826 57.1567 121.597 57.239C121.369 57.3213 121.18 57.4877 121.07 57.7043C121.012 57.7734 120.955 57.8309 120.891 57.8941C120.734 58.0919 120.66 58.3436 120.685 58.5952C120.711 58.8469 120.835 59.0783 121.029 59.24C121.127 59.3199 121.241 59.3794 121.362 59.415C121.484 59.4505 121.611 59.4614 121.737 59.447C121.984 59.4162 122.21 59.2929 122.369 59.1019C122.539 58.9339 122.681 58.7397 122.789 58.5268C122.892 58.2941 122.898 58.0303 122.806 57.7931C122.715 57.5559 122.533 57.3647 122.3 57.2615Z" fill="white"/>
<path fill-rule="evenodd" clip-rule="evenodd" d="M38.3579 49.1406C38.8411 50.2563 40.6585 49.7157 40.1754 48.5654C38.8539 45.6893 37.9031 42.6571 37.3457 39.5414C37.1616 38.3394 35.2522 38.3911 35.442 39.5989C35.9983 42.892 36.9784 46.0991 38.3579 49.1406Z" fill="white"/>
<path fill-rule="evenodd" clip-rule="evenodd" d="M35.9253 36.3493C36.1589 36.276 36.3554 36.1157 36.4743 35.9017C36.5931 35.6876 36.6251 35.436 36.5637 35.199C36.5637 35.1127 36.5637 35.0265 36.5637 34.9402C36.56 34.8156 36.5318 34.6929 36.4806 34.5792C36.4295 34.4654 36.3564 34.3629 36.2656 34.2775C36.1748 34.192 36.068 34.1253 35.9514 34.0811C35.8348 34.0369 35.7106 34.0161 35.586 34.02C35.3284 34.0282 35.0845 34.1377 34.9073 34.3248C34.7441 34.5106 34.656 34.7505 34.66 34.9977C34.6459 35.2395 34.6692 35.482 34.729 35.7167C34.8046 35.9586 34.9727 36.1609 35.1968 36.2794C35.4209 36.398 35.6828 36.4231 35.9253 36.3493Z" fill="white"/>
<path fill-rule="evenodd" clip-rule="evenodd" d="M89.0921 87.33C90.0181 86.5363 88.9598 84.9489 88.0281 85.7483C85.6591 87.8505 83.0303 89.6404 80.2062 91.0742C79.1134 91.6033 79.7173 93.415 80.8215 92.8858C83.805 91.3958 86.5846 89.5285 89.0921 87.33Z" fill="white"/>
<path fill-rule="evenodd" clip-rule="evenodd" d="M77.5598 93.3621C77.4208 93.1621 77.2115 93.022 76.9737 92.9698C76.7359 92.9175 76.4872 92.957 76.2772 93.0802L76.0241 93.155C75.844 93.2149 75.6859 93.3273 75.5703 93.4779C75.4548 93.6286 75.3871 93.8104 75.3759 93.9999C75.3648 94.1894 75.4107 94.3779 75.5078 94.541C75.6049 94.7042 75.7487 94.8344 75.9206 94.915C76.1443 95.0186 76.3986 95.035 76.6338 94.9609C76.8691 94.904 77.0942 94.8109 77.3009 94.6849C77.5079 94.5416 77.6508 94.3231 77.6991 94.076C77.7475 93.829 77.6974 93.5728 77.5598 93.3621Z" fill="white"/>
<path d="M18.2088 63.277C18.019 63.0987 17.6337 60.5336 17.3001 60.5509C16.9665 60.5681 16.6502 63.116 16.4892 63.2828C16.1671 63.6221 13.7975 63.8579 13.8205 64.1858C13.8435 64.5136 16.1613 64.6631 16.4892 64.9794C16.6732 65.1577 17.0643 67.7286 17.4036 67.7114C17.743 67.6941 18.042 65.152 18.2088 64.9794C18.5252 64.6516 20.9063 64.4043 20.889 64.0765C20.8718 63.7487 18.5252 63.5876 18.2088 63.277Z" fill="white"/>
<path d="M93.5303 31.5974C93.3405 31.4133 92.9551 28.8539 92.6216 28.8712C92.288 28.8884 91.9717 31.4363 91.8106 31.6031C91.4885 31.9367 89.1247 32.1783 89.1419 32.5061C89.1592 32.8339 91.4828 32.9835 91.8164 33.2998C91.9947 33.4781 92.3915 36.049 92.7251 36.026C93.0587 36.003 93.3635 33.4723 93.536 33.2998C93.8466 32.972 96.2277 32.7246 96.2104 32.3968C96.1932 32.069 93.8466 31.9079 93.5303 31.5974Z" fill="white"/>
<path d="M55.3371 61.2058C55.1531 61.0218 54.762 58.4566 54.4284 58.4796C54.0949 58.5027 53.7843 61.0448 53.6175 61.2116C53.2954 61.5452 50.9316 61.7867 50.9488 62.1088C50.9661 62.4309 53.2954 62.5919 53.6232 62.9083C53.8015 63.0866 54.1984 65.6574 54.532 65.6402C54.8655 65.6229 55.1761 63.0808 55.3429 62.9083C55.6535 62.5804 58.0346 62.3331 58.0173 62.0053C58.0001 61.6774 55.6535 61.5164 55.3371 61.2058Z" fill="white"/>
<path d="M36.2586 68.6668C36.0688 68.4885 35.6834 65.9176 35.3441 65.9406C35.0048 65.9636 34.6999 68.5057 34.5389 68.6725C34.2168 69.0119 31.853 69.2477 31.8702 69.5755C31.8875 69.9033 34.2111 70.0529 34.5389 70.3692C34.7229 70.5475 35.114 73.1184 35.4534 73.1011C35.7927 73.0839 36.0918 70.5417 36.2586 70.3692C36.5749 70.0414 38.956 69.794 38.933 69.4662C38.91 69.1384 36.5519 68.9773 36.2586 68.6668Z" fill="#074785"/>
<path d="M51.8054 41.7273C51.6156 41.5433 51.2303 38.9781 50.8909 39.0011C50.5516 39.0241 50.2468 41.5605 50.0858 41.7331C49.7637 42.0666 47.3998 42.3082 47.4171 42.6303C47.4343 42.9524 49.7579 43.1077 50.0858 43.4297C50.2698 43.6023 50.6609 46.1789 51.0002 46.1559C51.3396 46.1329 51.6386 43.6023 51.8054 43.424C52.1218 43.1019 54.5028 42.8488 54.4856 42.521C54.4683 42.1932 52.1218 42.0321 51.8054 41.7273Z" fill="#074785"/>
<path d="M117.533 48.9224C117.344 48.7384 116.958 46.1733 116.619 46.1905C116.28 46.2078 115.975 48.7557 115.814 48.9282C115.486 49.2618 113.128 49.5033 113.145 49.8254C113.162 50.1475 115.486 50.3028 115.814 50.6249C115.998 50.7974 116.389 53.3741 116.728 53.3511C117.068 53.3281 117.367 50.7974 117.533 50.6191C117.844 50.297 120.231 50.044 120.214 49.7162C120.196 49.3883 117.85 49.2273 117.533 48.9224Z" fill="#074785"/>
<path d="M71.6343 82.16C71.4445 81.9759 71.0591 79.4107 70.7256 79.4337C70.392 79.4568 70.0814 81.9931 69.9146 82.1657C69.5925 82.4993 67.2287 82.7408 67.2459 83.0629C67.2632 83.385 69.5868 83.5403 69.9204 83.8624C70.0987 84.0349 70.4955 86.6115 70.8291 86.5885C71.1627 86.5655 71.4675 84.0349 71.6401 83.8566C71.9506 83.5345 74.3317 83.2815 74.3144 82.9536C74.2972 82.6258 71.9219 82.4648 71.6343 82.16Z" fill="#074785"/>
<path d="M29.7746 48.8982C29.5848 48.7142 29.1995 46.149 28.8659 46.172C28.5324 46.195 28.216 48.7372 28.055 48.904C27.7329 49.2375 25.3691 49.4791 25.3863 49.8012C25.4036 50.1233 27.7271 50.2843 28.055 50.6006C28.239 50.7789 28.6301 53.3498 28.9695 53.3268C29.3088 53.3038 29.6078 50.7732 29.7746 50.6006C30.091 50.2728 32.4721 50.0255 32.4548 49.6977C32.4376 49.3698 30.091 49.203 29.7746 48.8982Z" fill="#074785"/>
<path fill-rule="evenodd" clip-rule="evenodd" d="M34.7694 59.7803C34.5936 59.7962 34.43 59.8773 34.3109 60.0077C34.1918 60.138 34.1257 60.3083 34.1257 60.4848C34.1257 60.6614 34.1918 60.8316 34.3109 60.962C34.43 61.0923 34.5936 61.1735 34.7694 61.1894C34.9453 61.1735 35.1089 61.0923 35.228 60.962C35.3471 60.8316 35.4131 60.6614 35.4131 60.4848C35.4131 60.3083 35.3471 60.138 35.228 60.0077C35.1089 59.8773 34.9453 59.7962 34.7694 59.7803Z" fill="white"/>
<path fill-rule="evenodd" clip-rule="evenodd" d="M24.8624 56.5537C24.6748 56.5537 24.4949 56.6282 24.3622 56.7609C24.2295 56.8936 24.155 57.0735 24.155 57.2611C24.155 57.4487 24.2295 57.6287 24.3622 57.7614C24.4949 57.894 24.6748 57.9686 24.8624 57.9686C25.0501 57.9686 25.23 57.894 25.3627 57.7614C25.4953 57.6287 25.5699 57.4487 25.5699 57.2611C25.5699 57.0735 25.4953 56.8936 25.3627 56.7609C25.23 56.6282 25.0501 56.5537 24.8624 56.5537Z" fill="white"/>
<path fill-rule="evenodd" clip-rule="evenodd" d="M42.9616 72.8936C42.774 72.8936 42.594 72.9681 42.4614 73.1008C42.3287 73.2334 42.2542 73.4134 42.2542 73.601C42.2542 73.7886 42.3287 73.9685 42.4614 74.1012C42.594 74.2339 42.774 74.3084 42.9616 74.3084C43.1492 74.3084 43.3292 74.2339 43.4618 74.1012C43.5945 73.9685 43.669 73.7886 43.669 73.601C43.669 73.4134 43.5945 73.2334 43.4618 73.1008C43.3292 72.9681 43.1492 72.8936 42.9616 72.8936Z" fill="white"/>
<path fill-rule="evenodd" clip-rule="evenodd" d="M11.9486 72.8936C11.761 72.8936 11.5811 72.9681 11.4484 73.1008C11.3158 73.2334 11.2412 73.4134 11.2412 73.601C11.2412 73.7886 11.3158 73.9685 11.4484 74.1012C11.5811 74.2339 11.761 74.3084 11.9486 74.3084C12.1362 74.3084 12.3162 74.2339 12.4489 74.1012C12.5815 73.9685 12.6561 73.7886 12.6561 73.601C12.6561 73.4134 12.5815 73.2334 12.4489 73.1008C12.3162 72.9681 12.1362 72.8936 11.9486 72.8936Z" fill="white"/>
<path fill-rule="evenodd" clip-rule="evenodd" d="M25.3881 70.5869C25.2005 70.5869 25.0206 70.6615 24.8879 70.7941C24.7552 70.9268 24.6807 71.1067 24.6807 71.2944C24.6807 71.482 24.7552 71.6619 24.8879 71.7946C25.0206 71.9273 25.2005 72.0018 25.3881 72.0018C25.5757 72.0018 25.7556 71.9273 25.8883 71.7946C26.021 71.6619 26.0955 71.482 26.0955 71.2944C26.0955 71.1067 26.021 70.9268 25.8883 70.7941C25.7556 70.6615 25.5757 70.5869 25.3881 70.5869Z" fill="white"/>
<path fill-rule="evenodd" clip-rule="evenodd" d="M45.8627 84.3213C45.5817 82.7886 44.9081 81.355 43.9077 80.1604C42.9073 78.9657 41.6142 78.0508 40.1547 77.505C38.6952 76.9592 37.1192 76.8012 35.5803 77.0463C34.0415 77.2914 32.5925 77.9313 31.3748 78.9035C30.4598 77.6824 29.2247 76.7385 27.8062 76.1763C26.3878 75.614 24.8414 75.4554 23.3384 75.7181C21.8353 75.9807 20.4343 76.6543 19.2905 77.6642C18.1468 78.6741 17.3049 79.9809 16.8582 81.4399C15.5311 80.9223 14.1007 80.725 12.6831 80.864C11.2655 81.0029 9.90068 81.4742 8.69939 82.2396C7.4981 83.005 6.49424 84.0429 5.7693 85.269C5.04435 86.4951 4.61877 87.8749 4.52711 89.2963C3.02896 89.7775 1.75552 90.7845 0.941971 92.1314C0.128421 93.4783 -0.170276 95.0741 0.101019 96.624C0.372315 98.174 1.19528 99.5734 2.41795 100.564C3.64062 101.554 5.18039 102.069 6.75291 102.013C7.37006 103.212 8.27128 104.243 9.37802 105.014C10.4848 105.786 11.7634 106.275 13.1024 106.439C14.4415 106.602 15.8004 106.436 17.0605 105.955C18.3206 105.473 19.4438 104.69 20.332 103.675C21.2371 104.795 22.4194 105.66 23.7617 106.182C25.1039 106.704 26.5595 106.867 27.9838 106.653C29.4081 106.439 30.7518 105.856 31.8814 104.962C33.0109 104.069 33.8871 102.895 34.4231 101.558C35.1493 102.175 35.9973 102.633 36.912 102.9C37.8266 103.168 38.7874 103.24 39.7317 103.111C41.2014 102.892 42.5612 102.205 43.6088 101.151C44.6565 100.097 45.336 98.7331 45.5464 97.262C46.1187 97.3424 46.6995 97.3424 47.2718 97.262C48.9052 96.9859 50.3716 96.0969 51.372 94.7766C52.3724 93.4562 52.8314 91.8039 52.6553 90.1568C52.4792 88.5096 51.6813 86.9917 50.4244 85.9127C49.1675 84.8336 47.5463 84.2748 45.8914 84.3501L45.8627 84.3213Z" fill="#7BEFE5"/>
<path d="M37.8158 89.5968C37.6486 89.3261 37.5244 89.0312 37.4477 88.7225C37.0221 87.2732 36.654 84.4147 34.5145 84.8116C32.9271 85.1049 33.3641 87.6873 33.4849 88.7685C33.6251 89.3889 33.6659 90.0276 33.6057 90.6608C33.4792 91.1496 32.7487 91.2359 32.3001 91.0289C31.8515 90.8218 31.725 89.8785 31.6502 89.3897C31.4213 87.9373 31.4937 86.4533 31.863 85.0301C32.2714 83.6153 33.9221 82.8848 35.2679 83.0286C36.7633 83.1954 37.8042 84.3514 38.3679 85.6857C38.5979 86.2609 39.9783 89.5737 38.8165 89.8843C38.642 89.9581 38.4474 89.9698 38.2653 89.9175C38.0832 89.8651 37.9245 89.7519 37.8158 89.5968Z" fill="#074785"/>
<path d="M20.0456 93.2605C19.8764 92.9909 19.7521 92.6956 19.6775 92.3862C19.2577 90.9426 18.8838 88.0842 16.7501 88.4753C15.1627 88.7686 15.5998 91.351 15.7148 92.438C15.8569 93.0561 15.8996 93.6929 15.8413 94.3245C15.7148 94.8191 14.9786 94.8996 14.5357 94.6983C14.0929 94.497 13.9606 93.548 13.8858 93.0591C13.6686 91.6126 13.7488 90.137 14.1216 88.7226C14.5357 87.3135 16.1807 86.583 17.5322 86.7268C19.0276 86.8936 20.0686 88.0439 20.6265 89.384C20.8566 89.9591 22.2369 93.272 21.0809 93.5825C20.8984 93.6623 20.6934 93.6736 20.5032 93.6144C20.3131 93.5553 20.1506 93.4296 20.0456 93.2605Z" fill="#074785"/>
<path fill-rule="evenodd" clip-rule="evenodd" d="M30.927 95.6812C29.8088 95.1658 28.5678 94.9766 27.3469 95.1354C26.1259 95.2941 24.9745 95.7943 24.0253 96.5784C23.4787 96.0468 22.9784 95.4695 22.5299 94.853C21.9548 93.973 22.5644 93.0125 23.6112 92.909C25.3366 94.3181 28.4079 94.0593 29.7825 92.3339C29.8888 92.1025 29.9475 91.8521 29.955 91.5977" fill="#074785"/>
<path fill-rule="evenodd" clip-rule="evenodd" d="M30.6346 96.2905C31.1807 95.1798 31.4883 93.9671 31.5376 92.7304C31.4916 91.0394 30.0767 91.5513 30.0767 91.5513L28.6619 92.2645" fill="#074785"/>
<path fill-rule="evenodd" clip-rule="evenodd" d="M30.0759 91.5527C30.0428 91.8316 29.9421 92.0981 29.7826 92.3292C28.4253 94.0546 25.308 94.3365 23.6113 92.9043L30.0759 91.5527Z" fill="white"/>
<path fill-rule="evenodd" clip-rule="evenodd" d="M24.0247 96.5767C24.9739 95.7926 26.1253 95.2924 27.3463 95.1337C28.5672 94.9749 29.8082 95.1641 30.9264 95.6795C30.5123 96.9333 29.201 97.773 27.4755 97.7845C26.8491 97.8201 26.2219 97.7318 25.6298 97.5245C25.0376 97.3173 24.4921 96.9952 24.0247 96.5767Z" fill="#FD6085"/>
<path fill-rule="evenodd" clip-rule="evenodd" d="M24.0391 76.8498C22.1204 77.061 20.354 77.9946 19.0986 79.461C18.4775 80.2029 19.6738 81.1001 20.2892 80.3639C21.3024 79.2113 22.7137 78.4841 24.2404 78.3279C25.2009 78.2359 24.9939 76.7578 24.0391 76.8498Z" fill="white"/>
<path fill-rule="evenodd" clip-rule="evenodd" d="M49.5823 89.8261C49.6743 91.609 48.7714 92.8226 47.3968 93.8521C46.6261 94.4272 47.5521 95.6062 48.317 95.0023C50.146 93.6393 51.1927 91.9253 51.0604 89.6075C51.0087 88.6643 49.5305 88.8771 49.5823 89.8261Z" fill="white"/>
<path fill-rule="evenodd" clip-rule="evenodd" d="M50.4706 87.0425C50.4096 86.8882 50.3083 86.7532 50.1773 86.6514C50.0995 86.5919 50.0106 86.5486 49.9158 86.5238C49.821 86.4991 49.7223 86.4936 49.6253 86.5075C49.5284 86.5214 49.4352 86.5545 49.3512 86.6049C49.2673 86.6553 49.1942 86.722 49.1363 86.8009C49.0561 86.9385 49.0133 87.0946 49.012 87.2538C49.0107 87.4129 49.0509 87.5697 49.1288 87.7085C49.2066 87.8474 49.3194 87.9635 49.4558 88.0454C49.5923 88.1273 49.7478 88.1722 49.9069 88.1755C50.1027 88.1484 50.2798 88.0448 50.3995 87.8875C50.5191 87.7301 50.5716 87.5318 50.5454 87.3359C50.5259 87.2368 50.5009 87.1389 50.4706 87.0425Z" fill="white"/>
<path fill-rule="evenodd" clip-rule="evenodd" d="M16.9449 102.294C15.47 103.138 13.722 103.368 12.0792 102.933C11.1417 102.714 10.9289 104.198 11.8837 104.411C13.9256 104.9 16.0783 104.561 17.8709 103.468C18.6819 102.956 17.7559 101.788 16.9449 102.294Z" fill="white"/>
<path fill-rule="evenodd" clip-rule="evenodd" d="M10.4159 101.811C10.2993 101.67 10.1363 101.574 9.95581 101.541L9.79475 101.478C9.65784 101.42 9.50682 101.405 9.36122 101.434C9.21562 101.464 9.08214 101.536 8.97806 101.642C8.87398 101.748 8.8041 101.883 8.77744 102.029C8.75078 102.175 8.76856 102.326 8.82851 102.461C8.90574 102.639 9.04758 102.781 9.22536 102.858C9.38733 102.93 9.55723 102.982 9.73149 103.013C9.92803 103.038 10.1264 102.984 10.2835 102.864C10.4407 102.743 10.544 102.566 10.5712 102.369C10.5933 102.17 10.5377 101.97 10.4159 101.811Z" fill="white"/>
<path fill-rule="evenodd" clip-rule="evenodd" d="M71.5218 44.0313C70.5785 46.4872 69.4512 49.5585 66.2707 48.6842C62.9924 47.7813 63.6998 43.7725 64.2347 41.2591C64.6085 39.5337 61.8479 39.2691 61.4798 40.9946C60.6343 45.0206 60.7551 49.7195 65.2872 51.2666C66.2491 51.6422 67.2953 51.7481 68.3129 51.5727C69.3305 51.3974 70.281 50.9475 71.0617 50.2716C72.5858 48.9201 73.3622 46.8725 74.0984 45.0148C74.7426 43.3469 72.1602 42.3634 71.5218 44.0313Z" fill="#074785"/>
<path fill-rule="evenodd" clip-rule="evenodd" d="M102.25 50.9063C101.485 53.4197 100.583 56.5657 97.3444 55.9215C94.0144 55.2601 94.4342 51.2111 94.785 48.6632C95.0266 46.8975 92.2602 46.8515 92.0186 48.6C91.4435 52.626 91.9208 57.3537 96.5507 58.573C97.5395 58.8792 98.5932 58.9092 99.5978 58.6599C100.602 58.4105 101.52 57.8912 102.25 57.1581C103.677 55.703 104.327 53.6037 104.902 51.7C105.414 49.9918 102.768 49.1981 102.25 50.9063Z" fill="#074785"/>
<path fill-rule="evenodd" clip-rule="evenodd" d="M70.953 33.278C69.1675 32.6085 67.2591 32.33 65.3568 32.4613C63.5739 32.5246 63.6314 35.291 65.4028 35.222C67.0571 35.1107 68.7157 35.3619 70.2628 35.9582C70.6182 36.0491 70.9951 35.9954 71.3109 35.8089C71.6268 35.6224 71.8559 35.3183 71.9479 34.9632C72.0297 34.6083 71.9721 34.2356 71.7869 33.922C71.6018 33.6083 71.3032 33.3778 70.953 33.278Z" fill="#074785"/>
<path fill-rule="evenodd" clip-rule="evenodd" d="M105.41 41.9576C103.884 41.3236 102.28 40.8943 100.642 40.6808C98.9163 40.3932 98.1916 43.0676 99.9516 43.361C101.348 43.5144 102.719 43.8489 104.029 44.356C105.64 45.0921 107.026 42.7111 105.41 41.9576Z" fill="#074785"/>
<path fill-rule="evenodd" clip-rule="evenodd" d="M76.4103 71.7602C73.5367 70.8371 71.0652 68.9591 69.4059 66.4378C67.7467 63.9165 66.9996 60.9036 67.2886 57.8992C67.4841 56.0473 68.6862 55.4894 70.5151 56.2141C73.3276 57.3298 76.1515 58.4514 79.0445 59.3314C82.5816 60.4126 86.2626 60.2458 89.886 59.9525C93.5094 59.6592 93.5381 61.5399 92.6409 63.8117C91.4482 66.9481 89.1081 69.5139 86.0946 70.9897C83.081 72.4655 79.6193 72.7409 76.4103 71.7602ZM71.999 67.2166C75.0473 70.84 81.4083 71.9903 85.2791 69.6379C84.8716 68.4096 84.1523 67.3081 83.1916 66.4411C82.2308 65.5741 81.0615 64.9713 79.7979 64.6917C76.7784 63.99 74.1443 64.87 71.999 67.2166Z" fill="#074785"/>
<path fill-rule="evenodd" clip-rule="evenodd" d="M78.5384 55.2237C78.5572 55.1933 78.5828 55.1677 78.6132 55.1489C79.0301 55.002 79.4846 55.002 79.9015 55.1489C80.6718 55.3574 81.4878 55.3212 82.2366 55.0454C82.5559 54.9045 82.8372 54.6896 83.0572 54.4186C83.2772 54.1476 83.4296 53.8282 83.5019 53.4868C83.7262 52.4458 83.0763 51.8534 82.1963 51.4795C81.742 51.284 79.6542 50.8411 80.005 50.0704C80.2294 49.5873 81.65 49.8691 82.0411 49.9899C83.0527 50.2548 83.9398 50.8652 84.5487 51.7153C84.7671 52.0751 84.9094 52.4759 84.9667 52.8929C85.024 53.3099 84.9952 53.7342 84.882 54.1396C84.7688 54.545 84.5736 54.9228 84.3085 55.2498C84.0434 55.5767 83.7141 55.8458 83.3409 56.0404C82.4805 56.5201 81.4792 56.6829 80.5112 56.5005C80.0605 56.4268 79.6202 56.2994 79.1999 56.1209C78.9789 56.0371 78.7815 55.9009 78.6247 55.7241C78.567 55.656 78.5285 55.5736 78.5134 55.4857C78.4982 55.3977 78.5069 55.3072 78.5384 55.2237Z" fill="#074785"/>
<path fill-rule="evenodd" clip-rule="evenodd" d="M71.9998 67.2176C74.145 64.871 76.7792 63.9911 79.7987 64.6927C81.0623 64.9724 82.2316 65.5752 83.1923 66.4422C84.1531 67.3092 84.8724 68.4107 85.2798 69.639C81.4148 71.9913 75.048 70.841 71.9998 67.2176Z" fill="#FFA4AC"/>
<path d="M64.3824 56.2436C63.9165 57.693 61.9207 58.3487 59.925 57.7102C57.9292 57.0718 56.6869 55.3809 57.1528 53.9315C57.6187 52.4822 59.6087 51.8208 61.6044 52.4592C63.6001 53.0976 64.8482 54.7885 64.3824 56.2436Z" fill="#FD6085"/>
<path d="M103.267 64.7274C103.025 66.2342 101.156 67.1832 99.0856 66.8554C97.0151 66.5275 95.5313 65.0379 95.7671 63.5311C96.0029 62.0242 97.8778 61.0809 99.9483 61.4088C102.019 61.7366 103.508 63.2262 103.267 64.7274Z" fill="#FD6085"/>
<path d="M97.5497 25.1873L97.4743 25.1951C95.6342 25.2017 95.0097 21.7159 94.7707 19.4208C94.6977 18.7204 94.6587 18.1363 94.6324 17.7796C94.6207 17.563 94.9759 17.4171 95.353 17.3778C95.7301 17.3385 96.1077 17.4081 96.1313 17.6344L96.147 17.7853C96.3153 19.4015 96.8031 23.9798 97.4519 23.934L97.4626 23.9329C98.0876 23.8678 98.3128 20.1737 98.3379 19.474C98.3511 19.2875 98.7579 19.1144 99.1566 19.0729C99.5229 19.0347 99.879 19.1066 99.9037 19.3436L99.907 19.3759C99.9111 19.833 99.938 20.6144 100.019 21.3902C100.133 22.4893 100.353 23.5555 100.72 23.5174L100.73 23.5163C101.398 23.4467 101.418 18.4017 101.316 17.1161C101.306 16.9102 101.551 16.754 101.799 16.7282C101.993 16.708 102.185 16.7751 102.206 16.9798L102.211 17.0229C102.394 18.7793 102.341 24.5466 100.843 24.7026C99.7396 24.774 99.2302 23.8577 98.9213 22.67C98.8003 23.3905 98.3902 25.0997 97.5497 25.1873Z" fill="white"/>
<path d="M103.532 24.3205L103.51 24.3191C103.359 24.3092 103.226 24.1811 103.225 24.0291C103.181 23.0383 103.202 22.0517 103.266 21.068C103.349 19.8031 103.495 18.5534 103.685 17.3064L103.481 17.2714C103.298 17.2486 103.214 17.0369 103.228 16.8315C103.242 16.6044 103.366 16.3737 103.582 16.3877L103.604 16.3892C104.81 16.5438 105.977 16.6307 107.197 16.7211C107.403 16.7345 107.487 16.9463 107.473 17.1625C107.456 17.4219 107.307 17.7053 107.091 17.6912L105.161 17.4894C104.986 18.6722 104.843 19.8572 104.766 21.0463L104.736 21.5111L106.163 21.6042C106.368 21.6176 106.47 21.8848 106.454 22.1334C106.439 22.3604 106.327 22.5811 106.111 22.567L104.699 22.4098C104.698 22.7572 104.697 23.1045 104.706 23.4634L106.668 23.5153C106.884 23.5293 106.967 23.7519 106.952 23.9789C106.936 24.2276 106.8 24.4901 106.594 24.4767L104.973 24.3602C104.498 24.3291 104.01 24.3082 103.532 24.3205Z" fill="white"/>
<path d="M110.738 25.2321L107.405 24.5C107.193 24.4555 107.146 24.2022 107.193 23.9796C107.244 23.7357 107.401 23.5141 107.613 23.5586L107.677 23.5719C107.792 22.8654 107.926 22.174 108.066 21.5061L108.283 20.5222C108.502 19.583 108.736 18.6801 108.99 17.8368L108.874 17.8124C108.674 17.7595 108.619 17.4934 108.666 17.2708C108.708 17.0693 108.833 16.8962 109.045 16.9407L110.68 17.3277C110.879 17.3806 110.922 17.5998 110.879 17.8013C110.831 18.0345 110.676 18.2456 110.474 18.2033L110.326 18.1722C110.071 19.0154 109.842 19.8972 109.625 20.8258L109.408 21.8096C109.266 22.4882 109.132 23.1796 109.015 23.8967L110.938 24.2779C111.15 24.3223 111.207 24.5778 111.156 24.8217C111.107 25.055 110.95 25.2766 110.738 25.2321Z" fill="white"/>
<path d="M114.337 26.6792L111.176 25.3948C110.974 25.3152 110.971 25.0577 111.055 24.8461C111.146 24.6144 111.339 24.4225 111.54 24.5021L111.601 24.526C111.833 23.8491 112.082 23.1902 112.333 22.5555L112.713 21.6225C113.088 20.7337 113.47 19.8832 113.863 19.095L113.753 19.0512C113.565 18.9655 113.556 18.6939 113.64 18.4824C113.715 18.2909 113.867 18.1414 114.069 18.2211L115.615 18.8785C115.802 18.9642 115.807 19.1875 115.731 19.379C115.644 19.6006 115.455 19.7824 115.264 19.7068L115.123 19.651C114.73 20.4393 114.355 21.2696 113.985 22.1483L113.604 23.0813C113.349 23.7261 113.101 24.385 112.864 25.072L114.696 25.7725C114.897 25.8521 114.91 26.1136 114.819 26.3453C114.731 26.567 114.539 26.7589 114.337 26.6792Z" fill="white"/>
<path d="M117.87 29.3899C117.721 29.282 117.623 29.158 117.639 29.0623C117.834 27.3319 118.112 25.5805 118.451 23.8736L117.592 25.0975C116.995 25.9226 116.359 26.7461 115.75 27.4956C115.621 27.656 115.386 27.5928 115.184 27.4468C114.964 27.288 114.789 27.0137 114.916 26.8381L114.922 26.8294C115.796 25.7503 116.678 24.6235 117.51 23.4737C118.126 22.6223 118.724 21.7582 119.269 20.8951L119.275 20.8863C119.427 20.6756 119.903 20.8322 120.21 21.0544C120.403 21.1941 120.538 21.3587 120.512 21.487C120.026 23.4889 119.569 25.3778 119.329 27.5575C120.013 26.7418 120.611 25.9709 121.189 25.1722C121.627 24.5666 122.054 23.9395 122.521 23.2749L122.527 23.2661C122.654 23.0905 123 23.1669 123.237 23.3384C123.413 23.4654 123.529 23.6563 123.402 23.8318C121.973 25.8067 120.473 27.7698 118.866 29.6025C118.709 29.7829 118.177 29.6122 117.87 29.3899Z" fill="white"/>
<path d="M119.109 30.1577L119.095 30.1405C119.003 30.0205 119.011 29.8362 119.124 29.7349C119.839 29.0467 120.592 28.4099 121.373 27.8075C122.376 27.0329 123.41 26.3164 124.471 25.6342L124.363 25.458C124.259 25.3056 124.362 25.1026 124.525 24.9769C124.705 24.8378 124.96 24.7779 125.092 24.9494L125.106 24.9666C125.787 25.9733 126.494 26.9061 127.233 27.8817C127.359 28.0446 127.255 28.2476 127.084 28.38C126.878 28.5389 126.567 28.6147 126.435 28.4432L125.31 26.8619C124.307 27.513 123.324 28.1898 122.381 28.918L122.012 29.2027L122.886 30.3346C123.012 30.4975 122.879 30.7508 122.681 30.903C122.501 31.0421 122.262 31.1039 122.129 30.9324L121.313 29.7693C121.052 29.9983 120.791 30.2273 120.528 30.4715L121.786 31.9773C121.919 32.1488 121.807 32.3584 121.627 32.4974C121.43 32.6497 121.142 32.7209 121.017 32.5579L120.032 31.265C119.741 30.8877 119.434 30.5085 119.109 30.1577Z" fill="white"/>
<path d="M121.064 35.2693L121.014 35.1493C120.588 33.9888 120.84 32.8503 121.87 32.4203C122.08 32.3327 122.327 32.2767 122.61 32.2523C122.747 32.2422 122.838 32.3213 122.888 32.4413C123.043 32.8112 122.843 33.5988 122.653 33.6781L122.439 33.7558C121.809 34.0187 121.711 34.4588 121.87 34.8387C122.062 35.2985 122.621 35.6523 123.051 35.4728C123.32 35.3601 123.543 35.0208 123.575 34.3383C123.638 32.5507 124.463 31.4901 125.443 31.081C126.643 30.5802 128.092 31.0433 128.665 32.3304L128.686 32.3803C128.999 33.1301 128.855 34.0236 128.283 34.7323C128.235 34.7874 128.183 34.8324 128.123 34.8574C127.784 34.9994 127.311 34.598 127.148 34.2081C127.073 34.0282 127.06 33.8574 127.165 33.7431C127.476 33.3904 127.679 32.9769 127.635 32.6194C127.626 32.5411 127.603 32.457 127.577 32.397C127.402 31.9771 126.877 31.8442 126.357 32.0612C126.057 32.1864 125.749 32.4325 125.509 32.8143C125.177 33.3404 125.109 33.9088 125.043 34.453C124.945 35.2573 124.825 36.0115 123.875 36.4906L123.755 36.5406C122.795 36.9414 121.594 36.5389 121.064 35.2693Z" fill="white"/>
<path d="M121.46 39.7616L121.438 39.6335C121.28 38.4074 121.779 37.3533 122.878 37.1626C123.102 37.1237 123.355 37.1238 123.637 37.1629C123.772 37.1834 123.844 37.2809 123.866 37.4089C123.935 37.8039 123.566 38.5276 123.363 38.5628L123.137 38.591C122.464 38.7077 122.271 39.1151 122.342 39.5207C122.427 40.0117 122.893 40.4806 123.352 40.4009C123.64 40.3509 123.932 40.0694 124.115 39.411C124.574 37.6821 125.613 36.831 126.659 36.6495C127.94 36.4273 129.251 37.2005 129.524 38.5825L129.533 38.6359C129.672 39.4365 129.334 40.2758 128.618 40.8398C128.559 40.8829 128.499 40.9154 128.435 40.9265C128.072 40.9894 127.7 40.4932 127.628 40.0769C127.595 39.8848 127.62 39.7154 127.748 39.6273C128.129 39.3523 128.419 38.9942 128.455 38.6359C128.464 38.5575 128.46 38.4703 128.449 38.4062C128.371 37.9579 127.888 37.7118 127.333 37.8081C127.013 37.8636 126.658 38.0352 126.339 38.3543C125.899 38.7936 125.707 39.3327 125.521 39.8487C125.247 40.611 124.963 41.32 123.93 41.5761L123.802 41.5984C122.777 41.7761 121.695 41.1172 121.46 39.7616Z" fill="white"/>
<path d="M45.7344 24.8956C45.5601 25.079 45.3512 25.182 45.194 25.0802C44.0599 24.3199 43.0226 23.5245 41.9665 22.632C42.6723 23.8264 43.263 24.9748 43.9204 26.1867C44.0058 26.3472 43.8044 26.7429 43.5587 27.0014C43.3923 27.1765 43.2001 27.2953 43.052 27.234C41.7853 26.6967 40.6567 26.1478 39.46 25.4867L40.1605 26.1523C40.8525 26.81 41.5034 27.4443 42.1963 28.1345C42.3547 28.2851 42.2792 28.5148 42.1207 28.6816C41.9543 28.8567 41.6966 28.9609 41.5382 28.8103L41.5298 28.8024C40.8703 28.1439 40.2028 27.4937 39.5357 26.8598C38.3183 25.7029 37.0772 24.5711 35.8205 23.4721L35.8122 23.4642C35.6204 23.282 35.8824 22.7057 36.2073 22.3639C36.3974 22.1637 36.6222 22.0441 36.7627 22.13C38.5556 23.199 40.3618 24.1538 42.233 25.1069C41.2605 23.3416 40.2475 21.5856 39.2512 19.8454C39.1578 19.6932 39.3134 19.4125 39.5273 19.1874C39.773 18.9289 40.102 18.7497 40.2771 18.9161L41.0863 19.701C42.6289 21.1669 44.325 22.5882 46.0715 23.756L46.0965 23.7798C46.2966 23.97 46.0514 24.562 45.7344 24.8956Z" fill="white"/>
<path d="M47.6821 22.9203L47.6633 22.9335C47.5319 23.0266 47.3367 23.0097 47.2343 22.8849C46.5356 22.0971 45.8932 21.2693 45.2884 20.415C44.5107 19.3165 43.7961 18.1876 43.1189 17.0321L42.9273 17.1396C42.761 17.2432 42.5502 17.1247 42.424 16.9463C42.2844 16.7491 42.232 16.4761 42.4198 16.3432L42.4386 16.3299C43.5366 15.6512 44.5572 14.9428 45.6247 14.2011C45.8031 14.0748 46.0139 14.1934 46.1468 14.3812C46.3063 14.6065 46.3731 14.9397 46.1853 15.0726L44.4583 16.1967C45.1049 17.2892 45.7797 18.3618 46.5108 19.3945L46.7966 19.7982L48.0359 18.9209C48.2143 18.7946 48.4771 18.9468 48.6299 19.1627C48.7695 19.3599 48.8246 19.6168 48.6368 19.7498L47.3671 20.5641C47.5985 20.8513 47.83 21.1384 48.0775 21.4283L49.7303 20.1595C49.918 20.0266 50.1354 20.1546 50.275 20.3517C50.4279 20.5676 50.4908 20.8755 50.3124 21.0017L48.8975 21.9893C48.4844 22.2818 48.0686 22.5903 47.6821 22.9203Z" fill="white"/>
<path d="M54.9481 18.743C54.7678 18.8189 54.6016 18.839 54.5235 18.772C53.0611 17.6403 51.625 16.4227 50.2631 15.1738L50.9002 16.628C51.3197 17.6245 51.7163 18.6557 52.0605 19.6216C52.1347 19.8275 51.9477 20.006 51.7039 20.1087C51.4389 20.2202 51.0929 20.2286 51.0037 20.0165L50.9992 20.0059C50.5022 18.6176 49.9661 17.1959 49.3815 15.807C48.9486 14.7787 48.4945 13.7592 48.0113 12.7894L48.0069 12.7788C47.8998 12.5244 48.3038 12.1796 48.6748 12.0234C48.9081 11.9252 49.1318 11.8934 49.2339 11.9877C50.7827 13.5323 52.2445 14.9888 54.0901 16.4084C53.727 15.3382 53.3571 14.3706 52.951 13.4059C52.6431 12.6743 52.3095 11.9411 51.9642 11.1504L51.9597 11.1398C51.8704 10.9278 52.1305 10.6561 52.4167 10.5356C52.6288 10.4463 52.8659 10.4464 52.9552 10.6584C53.9593 13.0438 54.9132 15.4878 55.6902 17.9564C55.7672 18.1985 55.3191 18.5868 54.9481 18.743Z" fill="white"/>
<path d="M58.5668 17.5624C58.1652 17.5904 57.7908 17.5127 57.7649 17.307C57.6174 16.3487 57.5329 15.4667 57.4737 14.6175C57.3769 13.2291 57.366 11.9153 57.3408 10.395C56.7556 10.4358 56.181 10.4643 55.5942 10.4822C55.3754 10.4859 55.2438 10.2529 55.227 10.0119C55.211 9.78243 55.3098 9.54493 55.5278 9.52973L55.5393 9.52893C56.2408 9.50309 56.9408 9.45429 57.6293 9.4063C58.5932 9.33911 59.5449 9.26125 60.4949 9.16043L60.5064 9.15963C60.7359 9.14363 60.8551 9.36594 60.8711 9.59544C60.8879 9.83641 60.8014 10.0846 60.5842 10.1113C60.035 10.1726 59.485 10.2225 58.9235 10.2731C58.9424 11.2058 58.9835 12.1254 59.0483 13.0549C59.141 14.386 59.2912 15.7131 59.4881 17.0485L59.4897 17.0714C59.5089 17.3468 59.0258 17.5304 58.5668 17.5624Z" fill="white"/>
<path d="M61.9998 17.3276C61.7616 17.2421 61.5553 17.0337 61.6291 16.828C61.7348 16.4993 61.8863 16.077 62.0572 15.6006C61.8809 15.5129 61.8797 15.2436 61.9613 15.0163C62.0468 14.7781 62.2297 14.5748 62.4431 14.627C63.3399 12.4679 64.7596 9.87313 66.4857 9.96689C66.6165 9.97713 66.7542 10.0021 66.8841 10.0487C67.7178 10.3478 68.4026 11.4367 68.1856 13.3019C68.0243 14.6372 67.5236 16.3396 66.8167 18.3101C66.7584 18.4725 66.6577 18.583 66.4997 18.6486C66.3379 18.725 66.1777 18.7286 66.0153 18.6703L65.7121 18.5616C65.3873 18.4451 65.2099 18.0881 65.3225 17.7741L65.6138 16.9621L63.078 15.9913L62.8341 16.637L62.6857 17.0848C62.577 17.388 62.2597 17.4208 61.9998 17.3276ZM65.9348 15.9651C66.2838 14.856 66.5204 13.8899 66.6113 13.0915C66.7871 11.9203 66.654 11.3715 66.3694 11.245L66.3369 11.2333C65.4166 10.9032 64.2442 13.1834 63.4748 15.0215L65.9348 15.9651Z" fill="white"/>
<path d="M70.1287 21.3644L67.2864 19.1168C67.1045 18.9758 67.1778 18.7124 67.3258 18.5215C67.4879 18.3124 67.7409 18.1738 67.9228 18.3148L67.9773 18.3571C68.4152 17.736 68.8643 17.1381 69.3083 16.5654L69.9729 15.727C70.6184 14.9321 71.261 14.1785 71.8955 13.4915L71.7955 13.414C71.6299 13.271 71.7011 12.9914 71.8491 12.8005C71.983 12.6278 72.1826 12.5206 72.3644 12.6615L73.7452 13.7904C73.9109 13.9334 73.8497 14.1625 73.7158 14.3352C73.5607 14.5352 73.3147 14.6647 73.142 14.5308L73.0148 14.4321C72.3802 15.1191 71.7518 15.8545 71.1133 16.6404L70.4487 17.4787C69.9976 18.0605 69.5486 18.6584 69.1036 19.2886L70.763 20.5462C70.9448 20.6872 70.8807 20.9577 70.7186 21.1667C70.5635 21.3667 70.3105 21.5053 70.1287 21.3644Z" fill="white"/>
</g>
<defs>
<clipPath id="clip0_5_1617">
<rect width="134.02" height="106.551" fill="white" transform="translate(-0.0100098 0.724609)"/>
</clipPath>
</defs>
</svg>
