<svg width="27" height="26" viewBox="0 0 27 26" fill="none" xmlns="http://www.w3.org/2000/svg">
<circle cx="13.2751" cy="13" r="13" fill="#F2D035"/>
<path d="M16.3297 17.7409H10.2208C9.37666 17.7409 8.68701 17.0513 8.68701 16.2071V10.0983C8.68701 9.2541 9.37666 8.56445 10.2208 8.56445H16.3297C17.1738 8.56445 17.8635 9.2541 17.8635 10.0983V16.2071C17.8635 17.055 17.1776 17.7409 16.3297 17.7409Z" fill="black"/>
<path d="M13.277 15.5095C12.6476 15.5095 12.056 15.2646 11.6113 14.8199C11.1666 14.3752 10.9216 13.7835 10.9216 13.1542C10.9216 12.5248 11.1666 11.9332 11.6113 11.4885C12.056 11.0438 12.6476 10.7988 13.277 10.7988C13.9063 10.7988 14.498 11.0438 14.9427 11.4885C15.3874 11.9332 15.6323 12.5248 15.6323 13.1542C15.6323 13.7835 15.3874 14.3752 14.9427 14.8199C14.4942 15.2646 13.9063 15.5095 13.277 15.5095ZM13.277 11.3C12.2557 11.3 11.4229 12.1291 11.4229 13.1542C11.4229 14.1755 12.2519 15.0083 13.277 15.0083C14.2983 15.0083 15.1311 14.1792 15.1311 13.1542C15.1274 12.1329 14.2983 11.3 13.277 11.3Z" fill="#F2D035"/>
<path d="M16.0916 10.7219C16.3414 10.7219 16.5439 10.5194 16.5439 10.2696C16.5439 10.0199 16.3414 9.81738 16.0916 9.81738C15.8419 9.81738 15.6394 10.0199 15.6394 10.2696C15.6394 10.5194 15.8419 10.7219 16.0916 10.7219Z" fill="#F2D035"/>
</svg>
