<svg width="27" height="26" viewBox="0 0 27 26" fill="none" xmlns="http://www.w3.org/2000/svg">
<circle cx="13.7249" cy="13" r="13" fill="#F2D035"/>
<path d="M10.7895 11.3203H8.55249V18.4541H10.7895V11.3203Z" fill="black"/>
<path d="M16.8408 11.1657C16.7583 11.1554 16.6707 11.1503 16.5831 11.1451C15.3305 11.0936 14.6244 11.8358 14.3769 12.1554C14.3099 12.243 14.279 12.2946 14.279 12.2946V11.341H12.1399V18.4748H14.279H14.3769C14.3769 17.748 14.3769 17.0264 14.3769 16.2996C14.3769 15.9079 14.3769 15.5161 14.3769 15.1244C14.3769 14.6399 14.3409 14.1244 14.5831 13.6811C14.7893 13.31 15.1604 13.1245 15.5779 13.1245C16.815 13.1245 16.8408 14.243 16.8408 14.3461C16.8408 14.3512 16.8408 14.3564 16.8408 14.3564V18.5058H19.0778V13.8512C19.0778 12.2585 18.2686 11.3204 16.8408 11.1657Z" fill="black"/>
<path d="M9.671 10.3977C10.3884 10.3977 10.9699 9.81612 10.9699 9.09874C10.9699 8.38136 10.3884 7.7998 9.671 7.7998C8.95362 7.7998 8.37207 8.38136 8.37207 9.09874C8.37207 9.81612 8.95362 10.3977 9.671 10.3977Z" fill="black"/>
</svg>
