<svg width="53" height="52" viewBox="0 0 53 52" fill="none" xmlns="http://www.w3.org/2000/svg">
<path d="M14.6529 42.1144C14.9722 42.4358 15.3751 42.6612 15.8159 42.7654C16.2568 42.8695 16.718 42.848 17.1473 42.7035L20 41.752V50.3751C20 50.5906 20.0856 50.7973 20.2379 50.9496C20.3903 51.102 20.597 51.1876 20.8125 51.1876H32.1875C32.403 51.1876 32.6096 51.102 32.762 50.9496C32.9144 50.7973 33 50.5906 33 50.3751V41.752L35.8527 42.7035C36.282 42.8477 36.7431 42.869 37.1839 42.7649C37.6247 42.6608 38.0276 42.4355 38.347 42.1144L43.3244 37.137C43.4094 37.0521 43.4745 36.9493 43.515 36.8361C43.5554 36.723 43.5703 36.6022 43.5585 36.4826C43.5467 36.363 43.5085 36.2475 43.4467 36.1444C43.3848 36.0414 43.3009 35.9533 43.2009 35.8866L40.7634 34.2616C40.6199 34.1658 40.4496 34.1182 40.2773 34.1257C40.1049 34.1331 39.9394 34.1952 39.8047 34.3031L36.1118 37.2573L32.9244 35.9825C32.5408 35.8285 32.1312 35.7496 31.7178 35.7501H28.9838C29.7181 35.2241 30.2666 34.4786 30.5501 33.621C30.8336 32.7633 30.8375 31.8379 30.5613 30.9778C30.2851 30.1178 29.743 29.3677 29.0131 28.8355C28.2832 28.3033 27.4033 28.0166 26.5 28.0166C25.5967 28.0166 24.7167 28.3033 23.9869 28.8355C23.257 29.3677 22.7149 30.1178 22.4387 30.9778C22.1625 31.8379 22.1664 32.7633 22.4499 33.621C22.7334 34.4786 23.2818 35.2241 24.0162 35.7501H21.2821C20.8687 35.7496 20.4591 35.8285 20.0755 35.9825L16.8881 37.2573L13.1953 34.3031C13.0606 34.1952 12.8951 34.1331 12.7227 34.1257C12.5503 34.1182 12.38 34.1658 12.2365 34.2616L9.79903 35.8866C9.69905 35.9533 9.61512 36.0414 9.55329 36.1444C9.49145 36.2475 9.45325 36.363 9.44143 36.4826C9.42962 36.6022 9.44449 36.723 9.48497 36.8361C9.52545 36.9493 9.59054 37.0521 9.67553 37.137L14.6529 42.1144ZM23.8593 32.297C23.8593 31.7747 24.0142 31.2642 24.3044 30.8299C24.5945 30.3957 25.0069 30.0572 25.4894 29.8574C25.972 29.6575 26.5029 29.6052 27.0151 29.7071C27.5274 29.809 27.9979 30.0605 28.3672 30.4298C28.7365 30.7991 28.988 31.2696 29.0899 31.7818C29.1917 32.2941 29.1395 32.825 28.9396 33.3075C28.7397 33.79 28.4013 34.2024 27.967 34.4926C27.5328 34.7827 27.0222 34.9376 26.5 34.9376C25.7999 34.9368 25.1287 34.6583 24.6337 34.1632C24.1387 33.6682 23.8602 32.9971 23.8593 32.297ZM12.6468 35.9435L16.2454 38.8222C16.3579 38.9126 16.4925 38.9714 16.6353 38.9925C16.7781 39.0137 16.924 38.9964 17.0579 38.9424L20.6849 37.4913C20.8748 37.4151 21.0775 37.3757 21.2821 37.3751H31.7178C31.9247 37.3748 32.1296 37.4143 32.3215 37.4913L35.9485 38.9424C36.0824 38.9964 36.2283 39.0137 36.3711 38.9925C36.5139 38.9714 36.6485 38.9126 36.761 38.8222L40.3596 35.9435L41.4784 36.6885L37.2014 40.9647C37.0952 41.0722 36.961 41.1476 36.814 41.1823C36.6671 41.2171 36.5133 41.2098 36.3702 41.1614L32.4475 39.854C32.3251 39.8127 32.1947 39.8012 32.067 39.8203C31.9393 39.8394 31.818 39.8887 31.7132 39.9641C31.6083 40.0395 31.523 40.1388 31.4642 40.2537C31.4053 40.3687 31.3748 40.496 31.375 40.6251V49.5626H21.625V40.6251C21.625 40.4964 21.5944 40.3695 21.5358 40.2548C21.4772 40.1402 21.3921 40.0412 21.2877 39.9659C21.1833 39.8906 21.0625 39.8412 20.9352 39.8217C20.8079 39.8023 20.6779 39.8134 20.5557 39.854L16.633 41.1614C16.49 41.2099 16.3363 41.2173 16.1893 41.1827C16.0423 41.1481 15.908 41.0728 15.8018 40.9655L11.5248 36.6885L12.6468 35.9435Z" fill="black"/>
<path d="M44.2198 31.9463C45.1611 29.1364 45.4205 26.1429 44.9769 23.2129C44.5332 20.2829 43.3991 17.5004 41.6681 15.0951C39.9372 12.6898 37.659 10.7306 35.0217 9.37932C32.3843 8.02799 29.4634 7.32324 26.5 7.32324C23.5366 7.32324 20.6157 8.02799 17.9784 9.37932C15.341 10.7306 13.0628 12.6898 11.3319 15.0951C9.60093 17.5004 8.46681 20.2829 8.02314 23.2129C7.57946 26.1429 7.83895 29.1364 8.78019 31.9463L10.3239 31.4296C9.46429 28.8639 9.22715 26.1306 9.63209 23.4553C10.037 20.7799 11.0725 18.2392 12.6529 16.0429C14.2333 13.8466 16.3134 12.0576 18.7215 10.8237C21.1296 9.58978 23.7966 8.94626 26.5024 8.94626C29.2083 8.94626 31.8753 9.58978 34.2834 10.8237C36.6915 12.0576 38.7716 13.8466 40.352 16.0429C41.9324 18.2392 42.9678 20.7799 43.3728 23.4553C43.7777 26.1306 43.5406 28.8639 42.6809 31.4296L44.2198 31.9463Z" fill="black"/>
<path d="M26.4999 0.812501C20.7916 0.811322 15.2522 2.74914 10.7895 6.30839C6.32682 9.86764 3.20546 14.8372 1.93695 20.4027C0.668443 25.9683 1.32803 31.7996 3.80763 36.9412C6.28722 42.0827 10.4398 46.2295 15.5847 48.7021L16.29 47.2396C12.4946 45.4148 9.2576 42.6061 6.91592 39.1059C4.57423 35.6057 3.21342 31.5419 2.97511 27.3374C2.7368 23.1328 3.62969 18.9413 5.56087 15.1989C7.49204 11.4565 10.3909 8.30007 13.9558 6.05809C17.5207 3.81612 21.6213 2.57054 25.8309 2.45098C30.0405 2.33142 34.2052 3.34225 37.8916 5.37827C41.578 7.4143 44.6513 10.4011 46.7918 14.0278C48.9323 17.6546 50.0616 21.7887 50.0624 26C50.0474 30.4349 48.788 34.7766 46.4275 38.5312C44.067 42.2857 40.7 45.3024 36.7097 47.2379L37.415 48.7004C42.559 46.2274 46.7106 42.0806 49.1895 36.9394C51.6685 31.7982 52.3277 25.9675 51.0593 20.4026C49.7909 14.8376 46.67 9.86854 42.208 6.30939C37.746 2.75023 32.2075 0.812089 26.4999 0.812501Z" fill="black"/>
<path d="M20.8125 13.8125C20.3815 13.8125 19.9682 13.9837 19.6635 14.2885C19.3587 14.5932 19.1875 15.0065 19.1875 15.4375V21.9375C19.1875 22.3685 19.3587 22.7818 19.6635 23.0865C19.9682 23.3913 20.3815 23.5625 20.8125 23.5625H24.4403L25.8216 25.6384C25.8958 25.7497 25.9963 25.841 26.1142 25.9041C26.2321 25.9672 26.3638 26.0002 26.4976 26.0002C26.6313 26.0002 26.763 25.9672 26.8809 25.9041C26.9988 25.841 27.0994 25.7497 27.1736 25.6384L28.5597 23.5625H32.1875C32.6185 23.5625 33.0318 23.3913 33.3365 23.0865C33.6413 22.7818 33.8125 22.3685 33.8125 21.9375V15.4375C33.8125 15.0065 33.6413 14.5932 33.3365 14.2885C33.0318 13.9837 32.6185 13.8125 32.1875 13.8125H20.8125ZM28.125 21.9375C27.9913 21.9375 27.8596 21.9705 27.7417 22.0335C27.6238 22.0966 27.5232 22.1878 27.449 22.2991L26.5 23.725L25.551 22.3015C25.4771 22.1898 25.3766 22.0981 25.2587 22.0346C25.1408 21.9711 25.009 21.9377 24.875 21.9375H20.8125V15.4375H32.1875V21.9375H28.125Z" fill="black"/>
<path d="M22.4375 17.875H24.0625V19.5H22.4375V17.875Z" fill="black"/>
<path d="M25.6875 17.875H27.3125V19.5H25.6875V17.875Z" fill="black"/>
<path d="M28.9375 17.875H30.5625V19.5H28.9375V17.875Z" fill="black"/>
</svg>
