<svg width="53" height="52" viewBox="0 0 53 52" fill="none" xmlns="http://www.w3.org/2000/svg">
<g clip-path="url(#clip0_1208_18231)">
<path d="M26.3265 49.7352C24.5152 49.7352 22.7046 49.37 21.028 48.6408L13.0109 45.1556C10.1144 43.8951 7.03918 43.0937 3.89592 42.7803L1.26324 42.5171C1.05404 42.4963 0.860042 42.3985 0.718978 42.2426C0.577914 42.0867 0.499863 41.8839 0.5 41.6737V33.4151C0.5 33.2319 0.55958 33.0534 0.669678 32.9069C0.866539 32.6438 5.58525 26.4792 12.7931 28.0831C16.847 28.984 20.1111 30.6698 22.1355 31.9256C23.6051 32.8372 25.3277 33.3186 27.1173 33.3186H35.1345C36.5164 33.3186 37.7309 34.0497 38.4102 35.1465L45.3152 27.1914C46.6539 25.4037 48.844 24.309 51.1369 24.309H51.6527C51.7936 24.3089 51.9322 24.344 52.0561 24.411C52.18 24.4781 52.2852 24.575 52.3621 24.693C52.4391 24.811 52.4855 24.9463 52.4971 25.0868C52.5087 25.2272 52.4851 25.3683 52.4285 25.4973L46.1836 39.6902C44.8182 42.7943 42.0379 45.139 38.7473 45.9618L37.6485 46.2363L31.2571 48.793C29.6842 49.4218 28.0051 49.7352 26.3265 49.7352ZM2.19504 40.9069L4.06472 41.0939C7.38298 41.4251 10.6294 42.2712 13.6872 43.6017L21.7039 47.0869C24.5229 48.3126 27.7738 48.3605 30.6283 47.2187L37.0721 44.6413C37.108 44.6271 37.1443 44.6154 37.1816 44.6063L38.3361 44.3173C41.1226 43.6206 43.4765 41.6356 44.632 39.0076L50.3281 26.0623C48.8696 26.2771 47.5276 27.063 46.6335 28.2549L38.9844 37.0706C38.9853 37.1036 38.9858 37.1361 38.9858 37.1695C38.9858 39.2927 37.2583 41.0203 35.135 41.0203H23.9493C22.4978 41.0199 21.0557 41.2539 19.6787 41.7132L19.3674 40.9227L19.1041 40.1174L19.1472 40.1034C20.6956 39.5873 22.3172 39.3245 23.9493 39.3251H35.135C36.3234 39.3251 37.2912 38.3578 37.2912 37.1691C37.2912 35.9804 36.3239 35.0128 35.1351 35.0128H27.118C25.0121 35.0128 22.9805 34.4431 21.2428 33.3653C19.3305 32.1788 16.2478 30.587 12.4266 29.7372C6.96799 28.5263 3.0402 32.7155 2.19554 33.7149V40.9069H2.19504ZM33.8729 24.1176C32.5696 24.1176 31.1083 23.7152 29.4995 22.9107C29.3045 22.8126 29.1546 22.6434 29.0806 22.438C29.0151 22.2543 27.5009 17.8988 29.9073 14.6778C31.6562 12.3364 34.9445 11.2818 39.6864 11.5461C39.8954 11.5576 40.0926 11.6462 40.2401 11.7946C40.3876 11.9431 40.4749 12.1409 40.485 12.35C40.5019 12.6865 40.8516 20.6291 36.8015 23.2734C35.9403 23.8363 34.962 24.1176 33.8729 24.1176ZM30.5803 21.5507C32.8062 22.5946 34.5858 22.697 35.8754 21.8548C38.277 20.2862 38.7962 15.6299 38.8088 13.2067C35.0933 13.1161 32.5638 13.9534 31.2648 15.6916C29.7191 17.7615 30.3199 20.6086 30.5803 21.5507ZM20.9135 13.0146C19.411 13.0146 17.6776 12.6928 16.1649 11.5849C13.599 9.70463 12.4198 6.12488 12.6593 0.945551C12.6691 0.736443 12.7559 0.538336 12.9029 0.389377C13.05 0.240419 13.247 0.151143 13.456 0.138743C13.8225 0.11789 22.4985 -0.345093 25.4179 4.03711C26.7775 6.07685 26.666 8.7485 25.0878 11.9791C24.992 12.1754 24.8239 12.3271 24.6188 12.4023C24.505 12.4445 22.9141 13.0148 20.9136 13.0148L20.9135 13.0146ZM14.3272 1.80623C14.254 5.95471 15.2077 8.78238 17.1662 10.2175C19.5109 11.9354 22.7124 11.2052 23.7189 10.9119C24.8706 8.41287 24.968 6.41769 24.008 4.97673C22.2237 2.29838 16.991 1.7747 14.3272 1.80623Z" fill="black"/>
<path d="M27.5314 34.7153C27.4164 34.7154 27.3027 34.6921 27.197 34.6469C27.0913 34.6016 26.996 34.5353 26.9167 34.4521C26.8375 34.3688 26.776 34.2702 26.7361 34.1625C26.6961 34.0547 26.6785 33.9399 26.6844 33.8251C26.7309 32.876 26.8147 31.9292 26.9356 30.9867C27.2881 24.9899 27.1063 11.0251 18.2769 7.16157C18.071 7.07147 17.9093 6.90328 17.8274 6.69398C17.7454 6.48467 17.75 6.25139 17.84 6.04544C18.0272 5.61734 18.528 5.42196 18.9561 5.60914C24.1592 7.88558 27.4326 13.5531 28.4201 21.9989C28.5089 22.7557 28.5753 23.5019 28.6248 24.2287C30.9502 18.3526 34.5076 16.2765 34.7194 16.1577C35.1268 15.9273 35.6437 16.0738 35.8734 16.4806C36.1018 16.8879 35.9583 17.4033 35.5524 17.6332C35.4628 17.6856 30.0077 20.9593 28.6383 31.055C28.5341 32.7822 28.3839 33.8833 28.3697 33.9841C28.3417 34.1866 28.2414 34.3721 28.0874 34.5065C27.9333 34.6409 27.7358 34.715 27.5314 34.7152V34.7153Z" fill="black"/>
</g>
<defs>
<clipPath id="clip0_1208_18231">
<rect width="52" height="52" fill="white" transform="translate(0.5)"/>
</clipPath>
</defs>
</svg>
